<svg width="64" height="64" viewBox="0 0 64 64" fill="none" xmlns="http://www.w3.org/2000/svg">
<g filter="url(#filter0_d)">
<circle cx="32" cy="32" r="16" fill="#06061B"/>
<circle cx="32" cy="32" r="16" stroke="#31D8A4" stroke-width="1.5"/>
</g>
<g clip-path="url(#clip0)">
<path d="M27.8658 28.6096C27.7539 28.4827 27.6162 28.4191 27.4523 28.4191H24.1004C24.0707 28.4191 24.0463 28.4097 24.028 28.391C24.0093 28.3726 24 28.3518 24 28.3295V26.0895C24 26.0672 24.0093 26.0467 24.028 26.028C24.0463 26.0093 24.0707 26 24.1004 26H27.6424C28.5361 26 29.3072 26.3623 29.9552 27.0864L30.8156 28.1279L29.1397 30.155L27.8658 28.6096ZM34.0559 27.0752C34.704 26.3584 35.4786 26 36.3799 26H39.9107C39.9405 26 39.9627 26.0075 39.9777 26.0223C39.9925 26.0374 40 26.0597 40 26.0895V28.3295C40 28.3518 39.9925 28.3726 39.9777 28.391C39.9627 28.4097 39.9405 28.4191 39.9107 28.4191H36.5588C36.3949 28.4191 36.2572 28.4827 36.1453 28.6096L33.6761 31.5887L36.1565 34.5901C36.2683 34.7098 36.4021 34.7695 36.5588 34.7695H39.9107C39.9405 34.7695 39.9627 34.7788 39.9777 34.7975C39.9925 34.8162 40 34.8406 40 34.8702V37.1102C40 37.1325 39.9925 37.1533 39.9777 37.1717C39.9627 37.1904 39.9405 37.1997 39.9107 37.1997H36.3799C35.4786 37.1997 34.7076 36.8377 34.067 36.1133L32.0113 33.627L29.9552 36.1133C29.3072 36.8377 28.5325 37.1997 27.6312 37.1997H24.1004C24.0707 37.1997 24.0481 37.1904 24.0334 37.1717C24.0183 37.153 24.0111 37.1289 24.0111 37.0987V34.8587C24.0111 34.8364 24.0183 34.8159 24.0334 34.7972C24.0481 34.7785 24.0707 34.7692 24.1004 34.7692H27.4523C27.6087 34.7692 27.7464 34.7059 27.8658 34.5787L30.2902 31.6445L34.0559 27.0752Z" fill="#00D1FF"/>
</g>
<defs>
<filter id="filter0_d" x="0.25" y="0.25" width="63.5" height="63.5" filterUnits="userSpaceOnUse" color-interpolation-filters="sRGB">
<feFlood flood-opacity="0" result="BackgroundImageFix"/>
<feColorMatrix in="SourceAlpha" type="matrix" values="0 0 0 0 0 0 0 0 0 0 0 0 0 0 0 0 0 0 127 0"/>
<feOffset/>
<feGaussianBlur stdDeviation="7.5"/>
<feColorMatrix type="matrix" values="0 0 0 0 0.266667 0 0 0 0 0.937255 0 0 0 0 0.756863 0 0 0 0.6 0"/>
<feBlend mode="normal" in2="BackgroundImageFix" result="effect1_dropShadow"/>
<feBlend mode="normal" in="SourceGraphic" in2="effect1_dropShadow" result="shape"/>
</filter>
<clipPath id="clip0">
<rect width="16" height="11.2" fill="white" transform="translate(24 26)"/>
</clipPath>
</defs>
</svg>
