<svg width="108" height="24" viewBox="0 0 108 24" fill="none" xmlns="http://www.w3.org/2000/svg">
<g clip-path="url(#clip0)">
<path d="M8.22607 5.59193C7.98802 5.31998 7.69494 5.18369 7.34619 5.18369H0.213731C0.150379 5.18369 0.0985465 5.16367 0.0595118 5.12362C0.0198373 5.08421 0 5.03964 0 4.99184V0.191845C0 0.144045 0.0198373 0.100121 0.0595118 0.0600727C0.0985465 0.0200242 0.150379 0 0.213731 0H7.75061C9.65243 0 11.2932 0.776423 12.6722 2.32798L14.503 4.55971L10.9367 8.90367L8.22607 5.59193ZM21.398 2.30408C22.777 0.768026 24.4254 0 26.3433 0H33.8565C33.9198 0 33.9672 0.0161486 33.9992 0.0477998C34.0305 0.0800969 34.0465 0.127897 34.0465 0.191845V4.99184C34.0465 5.03964 34.0305 5.08421 33.9992 5.12362C33.9672 5.16367 33.9198 5.18369 33.8565 5.18369H26.724C26.3753 5.18369 26.0822 5.31998 25.8441 5.59193L20.5898 11.9758L25.8678 18.4074C26.1059 18.6639 26.3906 18.7918 26.724 18.7918H33.8565C33.9198 18.7918 33.9672 18.8118 33.9992 18.8518C34.0305 18.8919 34.0465 18.9442 34.0465 19.0075V23.8075C34.0465 23.8553 34.0305 23.8999 33.9992 23.9393C33.9672 23.9793 33.9198 23.9994 33.8565 23.9994H26.3433C24.4254 23.9994 22.7847 23.2236 21.4217 21.6714L17.0473 16.3436L12.6722 21.6714C11.2932 23.2236 9.64475 23.9994 7.72694 23.9994H0.213731C0.150379 23.9994 0.102386 23.9793 0.0710302 23.9393C0.0390346 23.8992 0.0236767 23.8476 0.0236767 23.783V18.983C0.0236767 18.9352 0.0390346 18.8912 0.0710302 18.8512C0.102386 18.8111 0.150379 18.7911 0.213731 18.7911H7.34619C7.67894 18.7911 7.97202 18.6555 8.22607 18.3829L13.385 12.0953L21.398 2.30408Z" fill="#00D1FF"/>
</g>
<path d="M56.7426 5.9214C57.7824 5.9214 58.6414 6.78037 58.6414 7.82019V8.54354H60.8341V7.59414C60.8341 5.67274 59.1613 4 57.2399 4H50.7298C48.7406 4 47.113 5.65014 47.113 7.59414V9.15386C47.113 11.1431 48.7858 12.748 50.7298 12.748H56.9913C58.0311 12.748 58.8674 13.607 58.8674 14.6468V16.0031C58.8674 17.0429 58.0311 17.9019 56.9913 17.9019H51.0914C50.0516 17.9019 49.1927 17.0655 49.1927 16.0257V15.3023H47V16.2517C47 18.1731 48.6727 19.8233 50.5941 19.8233H57.466C59.4552 19.8233 61.0601 18.1731 61.0601 16.2291V14.4207C61.0601 12.4315 59.41 10.8266 57.466 10.8266H51.2045C50.1647 10.8266 49.3057 9.96763 49.3057 8.92781V7.82019C49.3057 6.78037 50.1647 5.9214 51.2045 5.9214H56.7426Z" fill="white"/>
<path d="M70.674 17.9923H68.6395C67.6675 17.9923 67.0346 17.3594 67.0346 16.3874V9.40251H70.6966V7.57153H67.0346V4.88158H64.9776V7.57153H62.8527V9.40251H64.9776V16.636C64.9776 18.4896 66.3565 19.8233 68.1648 19.8233H70.674V17.9923Z" fill="white"/>
<path d="M76.4911 17.9923C75.5191 17.9923 74.7506 17.2463 74.7506 16.2743V11.1431C74.7506 10.1485 75.5191 9.40251 76.4911 9.40251H81.8032V17.3141C81.8032 17.7436 81.4868 17.9923 81.1025 17.9923H76.4911ZM80.1757 19.8233L81.8032 18.467V19.8233H83.8602V7.57153H76.0164C74.2307 7.57153 72.6935 9.04084 72.6935 10.8944V16.523C72.6935 18.3087 74.1855 19.8233 76.0164 19.8233H80.1757Z" fill="white"/>
<path d="M93.7422 17.9923H91.7078C90.7358 17.9923 90.1028 17.3594 90.1028 16.3874V9.40251H93.7648V7.57153H90.1028V4.88158H88.0458V7.57153H85.921V9.40251H88.0458V16.636C88.0458 18.4896 89.4247 19.8233 91.2331 19.8233H93.7422V17.9923Z" fill="white"/>
<path d="M103.108 9.37991C104.08 9.37991 104.826 10.058 104.826 11.0527V11.1205H106.861V10.8266C106.861 8.99563 105.346 7.57153 103.538 7.57153H99.0168C97.2311 7.57153 95.8296 8.92782 95.8296 10.7136V11.4821C95.8296 13.2905 97.2311 14.6242 99.0168 14.6242H103.402C104.352 14.6242 105.03 15.2345 105.03 16.1839V16.4778C105.03 17.4272 104.442 18.0375 103.402 18.0375H99.582C98.5874 18.0375 97.8414 17.3367 97.8414 16.3647V16.2743H95.8296V16.5682C95.8296 18.4218 97.3215 19.8233 99.1525 19.8233H103.854C105.64 19.8233 107.041 18.467 107.041 16.6812V15.9353C107.041 14.1495 105.64 12.7932 103.854 12.7932H99.4689C98.5195 12.7932 97.8414 12.1829 97.8414 11.2335V10.9396C97.8414 9.99023 98.4065 9.37991 99.4689 9.37991H103.108Z" fill="white"/>
<defs>
<clipPath id="clip0">
<rect width="34.0465" height="24" fill="white"/>
</clipPath>
</defs>
</svg>
