<svg width="116" height="31" viewBox="0 0 116 31" fill="none" xmlns="http://www.w3.org/2000/svg">
<path d="M9.25457 6.29109C8.98676 5.98514 8.65704 5.83181 8.26468 5.83181H0.240453C0.169181 5.83181 0.110868 5.80928 0.0669526 5.76422C0.0223175 5.7199 0 5.66975 0 5.61598V0.215831C0 0.162055 0.0223175 0.112639 0.0669526 0.0675836C0.110868 0.0225279 0.169181 0 0.240453 0H8.71967C10.8593 0 12.7052 0.8735 14.2566 2.61905L16.3163 5.12981L12.3042 10.0169L9.25457 6.29109ZM24.0734 2.59216C25.6248 0.864052 27.4794 0 29.637 0H38.0895C38.1608 0 38.2141 0.0181676 38.2501 0.0537762C38.2854 0.0901114 38.3034 0.143888 38.3034 0.215831V5.61598C38.3034 5.66975 38.2854 5.7199 38.2501 5.76422C38.2141 5.80928 38.1608 5.83181 38.0895 5.83181H30.0653C29.673 5.83181 29.3432 5.98514 29.0754 6.29109L23.1642 13.4731L29.1021 20.7089C29.3699 20.9974 29.6902 21.1413 30.0653 21.1413H38.0895C38.1608 21.1413 38.2141 21.1638 38.2501 21.2089C38.2854 21.2539 38.3034 21.3128 38.3034 21.384V26.7842C38.3034 26.8379 38.2854 26.8881 38.2501 26.9324C38.2141 26.9775 38.1608 27 38.0895 27H29.637C27.4794 27 25.6335 26.1272 24.1 24.381L19.1787 18.3871L14.2566 24.381C12.7052 26.1272 10.8506 27 8.69304 27H0.240453C0.169181 27 0.115187 26.9775 0.0799112 26.9324C0.0439151 26.8874 0.026637 26.8292 0.026637 26.7566V21.3564C0.026637 21.3026 0.0439151 21.2532 0.0799112 21.2082C0.115187 21.1631 0.169181 21.1406 0.240453 21.1406H8.26468C8.63904 21.1406 8.96877 20.988 9.25457 20.6813L15.0586 13.6076L24.0734 2.59216Z" fill="#00D1FF"/>
<path d="M59.4497 9.35319C60.2296 9.35319 60.8739 9.99744 60.8739 10.7773V11.3198H62.5184V10.6078C62.5184 9.16669 61.2638 7.9121 59.8227 7.9121H54.94C53.448 7.9121 52.2273 9.14974 52.2273 10.6078V11.7776C52.2273 13.2695 53.4819 14.4733 54.94 14.4733H59.6362C60.4161 14.4733 61.0434 15.1175 61.0434 15.8974V16.9146C61.0434 17.6945 60.4161 18.3388 59.6362 18.3388H55.2112C54.4314 18.3388 53.7871 17.7115 53.7871 16.9316V16.3891H52.1426V17.1011C52.1426 18.5422 53.3972 19.7799 54.8383 19.7799H59.9923C61.4842 19.7799 62.6879 18.5422 62.6879 17.0842V15.7279C62.6879 14.2359 61.4503 13.0322 59.9923 13.0322H55.296C54.5161 13.0322 53.8719 12.3879 53.8719 11.6081V10.7773C53.8719 9.99744 54.5161 9.35319 55.296 9.35319H59.4497Z" fill="white"/>
<path d="M69.8985 18.4066H68.3727C67.6437 18.4066 67.1689 17.9319 67.1689 17.2029V11.9641H69.9155V10.5908H67.1689V8.5733H65.6261V10.5908H64.0325V11.9641H65.6261V17.3894C65.6261 18.7796 66.6603 19.7799 68.0166 19.7799H69.8985V18.4066Z" fill="white"/>
<path d="M74.2615 18.4066C73.5325 18.4066 72.9561 17.8471 72.9561 17.1181V13.2695C72.9561 12.5236 73.5325 11.9641 74.2615 11.9641H78.2457V17.898C78.2457 18.2201 78.0083 18.4066 77.7201 18.4066H74.2615ZM77.025 19.7799L78.2457 18.7626V19.7799H79.7885V10.5908H73.9055C72.5661 10.5908 71.4133 11.6928 71.4133 13.0831V17.3046C71.4133 18.6439 72.5322 19.7799 73.9055 19.7799H77.025Z" fill="white"/>
<path d="M88.4717 10.5908L83.7076 14.7784V7.30176H82.1648V19.7799H83.7076V15.3549L88.8616 19.7799H90.947L85.3013 15.0158L90.5231 10.5908H88.4717Z" fill="white"/>
<path d="M92.3645 10.5908V19.7799H93.9073V10.5908H92.3645ZM92.3645 7.55607V9.31928H93.9073V7.55607H92.3645Z" fill="white"/>
<path d="M97.8801 12.4727C97.8801 12.1675 98.1174 11.9641 98.4057 11.9641H101.983C102.729 11.9641 103.288 12.5236 103.288 13.2695V19.7799H104.831V13.0831C104.831 11.6928 103.695 10.5908 102.339 10.5908H99.0669L97.8801 11.5742V10.5908H96.3373V19.7799H97.8801V12.4727Z" fill="white"/>
<path d="M109.775 18.1184C109.046 18.1184 108.47 17.5589 108.47 16.8129V13.2695C108.47 12.5236 109.046 11.9641 109.775 11.9641H113.844V17.6098C113.844 17.9149 113.607 18.1184 113.319 18.1184H109.775ZM112.912 23.052C114.302 23.052 115.387 21.933 115.387 20.5767V10.5908H109.419C108.08 10.5908 106.927 11.6928 106.927 13.0831V16.9994C106.927 18.3557 108.046 19.4916 109.419 19.4916H112.624L113.844 18.4575V20.4411C113.844 21.1701 113.285 21.7296 112.556 21.7296H110.165C109.436 21.7296 108.877 21.1701 108.877 20.4411V20.1868H107.351V20.5937C107.351 21.9669 108.487 23.052 109.843 23.052H112.912Z" fill="white"/>
</svg>
