<svg viewBox="0 0 32 32" fill="none" xmlns="http://www.w3.org/2000/svg">
    <path fill-rule="evenodd" clip-rule="evenodd" d="M9.846.97a1.367 1.367 0 00-.688.492c-.264.382-.258.257-.258 4.936v4.312l.61.62.609.62v4.34c0 4.266.002 4.345.096 4.599.124.33.468.652.808.753.204.06.843.07 4.568.07h4.331l.626.61.625.611 4.375-.012c4.348-.013 4.377-.014 4.59-.113a1.47 1.47 0 00.67-.67c.1-.213.1-.242.113-4.616l.012-4.401-.61-.616-.609-.615-.012-4.405-.013-4.405-.14-.252a1.571 1.571 0 00-.347-.41c-.404-.31-.23-.3-4.965-.3H19.95l-.62-.609L18.71.9l-4.331.003c-3.498.003-4.37.015-4.533.067zm14.841 6.174c.082.081.082 9.462 0 9.543-.081.082-9.462.082-9.543 0-.082-.081-.082-9.462 0-9.543.081-.082 9.462-.082 9.543 0z" fill="#fff"/>
    <path d="M19.236 12.5l-7.096 5.25 1.312-3.098 5.784-2.152z" fill="#E2761B" stroke="#E2761B"/>
    <path d="M2.853 12.605l7.097 5.289-1.258-3.141-5.839-2.148zM16.796 24.75l-1.906 2.878 4.077 1.106 1.173-3.92-3.344-.064zm-14.698.063l1.165 3.921 4.077-1.106-1.905-2.879-3.337.064z" fill="#E4761B" stroke="#E4761B"/>
    <path d="M7.11 19.886L5.974 21.58l4.048.178-.143-4.29-2.769 2.418zm8.003 0l-2.804-2.467-.093 4.338 4.04-.177-1.143-1.694zM7.34 27.628l2.43-1.17-2.099-1.616-.33 2.786zm5.113-1.17l2.437 1.17-.338-2.786-2.1 1.616z" fill="#E4761B" stroke="#E4761B"/>
    <path d="M14.866 27.663l-2.422-1.134.193 1.518-.021.64 2.25-1.024zm-7.501 0l2.25 1.023-.014-.639.178-1.518-2.414 1.134z" fill="#D7C1B3" stroke="#D7C1B3"/>
    <path d="M9.38 23.75l-2.055-.596 1.45-.654.605 1.25zm2.98 0l.604-1.25 1.457.654-2.061.596z" fill="#233447" stroke="#233447"/>
    <path d="M7.238 27.643l.343-2.883-2.236.064 1.893 2.82zm7.159-2.883l.342 2.883 1.894-2.82-2.236-.063zm1.7-3.175l-4.015.177.371 2.053.593-1.236 1.43.647 1.621-1.641zm-8.588 1.64l1.43-.646.585 1.236.379-2.053-4.022-.177 1.628 1.64z" fill="#CD6116" stroke="#CD6116"/>
    <path d="M5.949 21.584l1.687 3.236-.057-1.611-1.63-1.625zm8.603 1.625l-.072 1.61 1.695-3.235-1.623 1.625zm-4.577-1.45l-.38 2.034.473 2.398.107-3.158-.2-1.273zm2.181 0l-.193 1.267.086 3.165.479-2.398-.372-2.033z" fill="#E4751F" stroke="#E4751F"/>
    <path d="M12.362 23.84l-.488 2.425.35.235 2.124-1.621.073-1.629-2.06.59zm-5.037-.59l.059 1.629L9.509 26.5l.35-.235-.481-2.425-2.053-.59z" fill="#F6851B" stroke="#F6851B"/>
    <path d="M12.394 28.814l.021-.664-.18-.157h-2.73l-.167.157.015.664-2.281-1.064.796.643L9.483 29.5h2.773l1.622-1.107.797-.643-2.281 1.064z" fill="#C0AD9E" stroke="#C0AD9E"/>
    <path d="M12.2 26.477l-.343-.227H9.875l-.343.227L9.352 28l.165-.152h2.698l.179.152-.193-1.523z" fill="#161616" stroke="#161616"/>
    <path d="M19.527 18.144l.61-2.872-.912-2.668-6.902 5.026 2.655 2.204 3.752 1.077.832-.95-.358-.254.574-.514-.445-.338.574-.43-.38-.28zM1.84 15.272l.61 2.872-.388.282.574.43-.437.337.574.514-.36.254.826.95 3.752-1.077 2.655-2.204-6.902-5.026-.904 2.668z" fill="#763D16" stroke="#763D16"/>
    <path d="M18.735 20.983l-3.751-1.087 1.14 1.699-1.7 3.269 2.238-.029h3.335l-1.262-3.852zM7.002 19.896l-3.75 1.087-1.249 3.852h3.328l2.23.029-1.692-3.27 1.133-1.698zm5.092 1.876l.236-4.1 1.09-2.922H8.58l1.075 2.921.251 4.101.086 1.294L10 26.25h1.986L12 23.066l.094-1.294z" fill="#F6851B" stroke="#F6851B"/>
</svg>
