<svg viewBox="0 0 256 256" fill="none" xmlns="http://www.w3.org/2000/svg">
    <path d="M65.987 82.61c-1.678-1.927-3.744-2.892-6.202-2.892H9.507c-.447 0-.812-.142-1.087-.426-.28-.279-.42-.594-.42-.933v-34c0-.339.14-.65.42-.934.275-.283.64-.425 1.087-.425h53.129c13.406 0 24.972 5.5 34.693 16.49l12.905 15.808-25.139 30.77-19.108-23.459zm92.851-23.29C168.559 48.44 180.179 43 193.698 43h52.962c.447 0 .781.114 1.006.339.221.228.334.567.334 1.02v34c0 .339-.113.654-.334.933-.225.284-.559.426-1.006.426h-50.278c-2.458 0-4.524.965-6.202 2.891l-37.039 45.219 37.206 45.558c1.678 1.816 3.685 2.722 6.035 2.722h50.278c.447 0 .781.142 1.006.426.221.284.334.654.334 1.103v34c0 .338-.113.654-.334.933-.225.284-.559.425-1.006.425h-52.962c-13.519 0-25.085-5.495-34.693-16.489l-30.836-37.739-30.84 37.739c-9.721 10.994-21.341 16.489-34.86 16.489H9.507c-.447 0-.785-.141-1.006-.425-.226-.284-.334-.65-.334-1.107v-34c0-.339.108-.65.334-.934.22-.283.56-.425 1.006-.425h50.278c2.345 0 4.411-.961 6.202-2.892l36.367-44.537 56.484-69.355z" fill="#00D1FF"/>
</svg>
