<svg viewBox="0 0 300 300" fill="none" xmlns="http://www.w3.org/2000/svg">
    <path d="M150 300c82.843 0 150-67.157 150-150S232.843 0 150 0 0 67.157 0 150s67.157 150 150 150z" fill="#10BA97"/>
    <path d="M139.8 105.8l-16.02 10.62c-4.92-9.24-11.16-13.86-18.72-13.86-3.96 0-7.14 1.32-9.54 3.96-2.4 2.52-3.6 5.76-3.6 9.72 0 7.68 6.36 14.52 19.08 20.52 5.16 2.28 9.24 4.26 12.24 5.94 3 1.56 6.54 3.9 10.62 7.02 4.08 3.12 7.08 6.78 9 10.98 2.04 4.2 3.06 9 3.06 14.4 0 9.72-2.82 18-8.46 24.84-5.52 6.72-12.9 10.92-22.14 12.6v15.66h-18v-15.66c-8.28-1.68-15.3-5.52-21.06-11.52-5.64-6.12-9.42-13.68-11.34-22.68l16.2-10.26c4.44 17.76 12.9 26.64 25.38 26.64 5.64 0 10.26-1.74 13.86-5.22 3.6-3.6 5.4-8.16 5.4-13.68 0-3.84-1.32-7.2-3.96-10.08-2.64-3-5.94-5.4-9.9-7.2a650.77 650.77 0 01-12.96-6.48c-4.68-2.4-9-4.86-12.96-7.38-3.96-2.64-7.26-6.24-9.9-10.8-2.64-4.68-3.96-10.08-3.96-16.2 0-7.92 2.34-14.88 7.02-20.88 4.68-5.88 10.74-9.66 18.18-11.34V69.8h18v16.02c10.44 2.76 18.6 9.42 24.48 19.98zm86.741 119.271L173 205.49v-13.768l53.541-19.428v12.315l-11.702 4.13v20.346l11.702 4.13v11.856zm-20.957-19.046v-14.15l-20.346 7.114 20.346 7.036zM173 159.502h31.054c4.334 0 7.598-.841 9.79-2.524 2.193-1.683 3.289-4.334 3.289-7.955 0-3.62-1.096-6.272-3.289-7.954-2.192-1.734-5.456-2.601-9.79-2.601H173v-11.473h30.442c7.649 0 13.487 1.887 17.516 5.66 4.028 3.722 6.042 9.178 6.042 16.368 0 7.19-2.014 12.646-6.042 16.369-4.029 3.722-9.867 5.583-17.516 5.583H173v-11.473zm0-41.27V99.645c0-5.354 1.147-10.07 3.442-14.15 2.244-4.13 5.405-7.292 9.484-9.484 4.029-2.244 8.643-3.366 13.845-3.366 5.201 0 9.841 1.122 13.92 3.366 4.029 2.192 7.19 5.354 9.485 9.484 2.243 4.08 3.365 8.796 3.365 14.15v18.587H173zm43.98-18.587c0-4.844-1.555-8.592-4.666-11.243-3.161-2.703-7.342-4.054-12.543-4.054-5.202 0-9.357 1.351-12.468 4.054-3.161 2.651-4.742 6.4-4.742 11.243v7.114h34.419v-7.114z" fill="#fff"/>
</svg>
