<svg viewBox="0 0 300 300" fill="none" xmlns="http://www.w3.org/2000/svg">
    <path d="M150 300c82.843 0 150-67.157 150-150S232.843 0 150 0 0 67.157 0 150s67.157 150 150 150z" fill="#10BA97"/>
    <path d="M138.8 106.8l-16.02 10.62c-4.92-9.24-11.16-13.86-18.72-13.86-3.96 0-7.14 1.32-9.54 3.96-2.4 2.52-3.6 5.76-3.6 9.72 0 7.68 6.36 14.52 19.08 20.52 5.16 2.28 9.24 4.26 12.24 5.94 3 1.56 6.54 3.9 10.62 7.02 4.08 3.12 7.08 6.78 9 10.98 2.04 4.2 3.06 9 3.06 14.4 0 9.72-2.82 18-8.46 24.84-5.52 6.72-12.9 10.92-22.14 12.6v15.66h-18v-15.66c-8.28-1.68-15.3-5.52-21.06-11.52-5.64-6.12-9.42-13.68-11.34-22.68l16.2-10.26c4.44 17.76 12.9 26.64 25.38 26.64 5.64 0 10.26-1.74 13.86-5.22 3.6-3.6 5.4-8.16 5.4-13.68 0-3.84-1.32-7.2-3.96-10.08-2.64-3-5.94-5.4-9.9-7.2a650.77 650.77 0 01-12.96-6.48c-4.68-2.4-9-4.86-12.96-7.38-3.96-2.64-7.26-6.24-9.9-10.8-2.64-4.68-3.96-10.08-3.96-16.2 0-7.92 2.34-14.88 7.02-20.88 4.68-5.88 10.74-9.66 18.18-11.34V70.8h18v16.02c10.44 2.76 18.6 9.42 24.48 19.98zM195 228.225c-5.61 0-10.513-1.075-14.708-3.225-4.247-2.202-7.524-5.322-9.831-9.36-2.307-4.089-3.461-8.887-3.461-14.393 0-4.299.839-8.153 2.517-11.562 1.678-3.408 4.037-6.161 7.079-8.258 3.041-2.097 6.554-3.356 10.539-3.775v11.797c-3.146.682-5.611 2.124-7.393 4.326-1.836 2.15-2.753 4.85-2.753 8.101 0 4.405 1.651 7.892 4.955 10.461 3.303 2.569 7.655 3.854 13.056 3.854 5.348 0 9.7-1.285 13.056-3.854 3.304-2.569 4.955-6.056 4.955-10.461 0-3.251-.891-5.951-2.674-8.101-1.835-2.202-4.326-3.644-7.472-4.326v-11.797c3.985.419 7.498 1.678 10.539 3.775 3.042 2.097 5.401 4.85 7.079 8.258 1.678 3.409 2.517 7.263 2.517 11.562 0 5.506-1.154 10.304-3.461 14.393-2.307 4.038-5.558 7.158-9.752 9.36-4.248 2.15-9.177 3.225-14.787 3.225zm27.528-51.026l-55.056-20.135v-14.157l55.056-19.978v12.663l-12.034 4.247v20.922l12.034 4.247v12.191zm-21.55-19.584v-14.551l-20.922 7.315 20.922 7.236zm-33.506-39.739V98.764c0-5.506 1.18-10.356 3.539-14.55 2.307-4.248 5.558-7.499 9.753-9.753C184.906 72.154 189.652 71 195 71c5.348 0 10.12 1.154 14.315 3.46 4.142 2.255 7.393 5.506 9.752 9.754 2.308 4.194 3.461 9.044 3.461 14.55v19.112h-55.056zm45.225-19.112c0-4.981-1.6-8.835-4.798-11.562-3.251-2.779-7.551-4.168-12.899-4.168-5.348 0-9.622 1.39-12.82 4.168-3.251 2.727-4.877 6.58-4.877 11.562v7.315h35.394v-7.315z" fill="#fff"/>
</svg>
