<svg viewBox="0 0 300 300" fill="none" xmlns="http://www.w3.org/2000/svg">
    <path d="M150 300c82.843 0 150-67.157 150-150S232.843 0 150 0 0 67.157 0 150s67.157 150 150 150z" fill="#10BA97"/>
    <path d="M53 149.5c0-7.314 1.396-13.705 4.188-19.173 2.86-5.536 6.912-9.808 12.156-12.816C74.655 114.504 80.886 113 88.037 113c5.584 0 10.59 1.094 15.016 3.281 4.426 2.187 8.001 5.263 10.725 9.227 2.724 3.965 4.358 8.544 4.903 13.739h-15.322c-.885-4.101-2.758-7.313-5.618-9.637-2.792-2.393-6.3-3.589-10.521-3.589-5.72 0-10.25 2.153-13.586 6.459-3.337 4.307-5.005 9.98-5.005 17.02 0 6.972 1.668 12.645 5.005 17.02 3.337 4.306 7.865 6.459 13.586 6.459 4.222 0 7.729-1.162 10.52-3.486 2.861-2.392 4.734-5.639 5.619-9.74h15.322c-.545 5.195-2.179 9.774-4.903 13.739-2.724 3.964-6.299 7.04-10.725 9.227-4.427 2.187-9.432 3.281-15.016 3.281-7.15 0-13.382-1.504-18.693-4.511-5.244-3.008-9.296-7.246-12.156-12.714C54.396 163.239 53 156.814 53 149.5zm74.583-35.885h15.322v28.811h28.398v-28.811h15.322v71.77h-15.322v-29.631h-28.398v29.631h-15.322v-71.77zm71.225 0H246v13.226h-31.87v16.815h26.15v12.611h-26.15v29.118h-15.322v-71.77z" fill="#fff"/>
</svg>
