<svg viewBox="0 0 300 300" fill="none" xmlns="http://www.w3.org/2000/svg">
    <path d="M150 300c82.843 0 150-67.157 150-150S232.843 0 150 0 0 67.157 0 150s67.157 150 150 150z" fill="#10BA97"/>
    <path d="M96.56 141.8h-21.6L86 119.72h12.48c3.361-18.4 10.561-32.4 21.601-42 11.04-9.76 24.88-14.64 41.52-14.64 22.72 0 39.04 9.12 48.96 27.36l-21.12 12c-6.88-11.2-16.16-16.8-27.84-16.8-20.48 0-32.96 11.36-37.44 34.08h51.12l-11.04 22.08h-42.24v14.4h53.28l-11.04 22.08h-40.08c4.48 22.72 16.96 34.08 37.44 34.08 11.68 0 20.96-5.6 27.84-16.8l21.12 12c-9.92 18.24-26.24 27.36-48.96 27.36-16.64 0-30.48-4.8-41.52-14.4-11.04-9.76-18.24-23.84-21.6-42.24H74.96L86 156.2h10.56v-14.4z" fill="#fff"/>
</svg>
