<svg viewBox="0 0 300 300" fill="none" xmlns="http://www.w3.org/2000/svg">
    <path d="M150 300c82.843 0 150-67.157 150-150S232.843 0 150 0 0 67.157 0 150s67.157 150 150 150z" fill="#10BA97"/>
    <path d="M114.73 154.849H95.142v-24.581h11.753c-2.285-8.357-3.428-15.732-3.428-22.123 0-15.076 4.489-27.12 13.467-36.134C125.912 62.671 137.747 58 152.438 58c11.917 0 22.119 2.95 30.607 8.85 8.652 5.899 14.855 14.256 18.609 25.072L180.352 102c-5.55-12.946-14.855-19.419-27.914-19.419-7.182 0-12.895 2.212-17.14 6.637-4.244 4.26-6.366 10.652-6.366 19.173 0 8.685.816 15.978 2.449 21.877h39.911v24.581h-32.566c.817 4.589 1.225 8.685 1.225 12.291 0 16.223-6.693 30.07-20.079 41.542 8.162-5.244 15.508-7.866 22.037-7.866 4.734 0 9.713 1.475 14.937 4.424 5.55 2.786 9.957 4.179 13.222 4.179 7.509 0 14.038-4.67 19.588-14.011L209 206.223c-5.224 9.833-10.855 16.961-16.895 21.386-5.877 4.261-12.896 6.391-21.058 6.391-6.856 0-14.038-1.393-21.547-4.179-7.346-2.949-12.733-4.424-16.16-4.424-9.631 0-19.018 2.867-28.159 8.603L90 217.039c9.631-9.177 16.487-17.125 20.568-23.843 4.244-6.883 6.366-14.257 6.366-22.123 0-5.9-.734-11.308-2.204-16.224z" fill="#fff"/>
</svg>
