<svg viewBox="0 0 300 300" fill="none" xmlns="http://www.w3.org/2000/svg">
    <path d="M150 300c82.843 0 150-67.157 150-150S232.843 0 150 0 0 67.157 0 150s67.157 150 150 150z" fill="#10BA97"/>
    <path d="M98.14 228l-9.02-54.34H70.2v-16.28h16.28l-2.64-15.84H70.2v-16.28h11l-9.02-54.34h24.86l8.359 54.34h20.24l9.46-54.34h27.94l9.24 54.34h20.46l8.14-54.34h24.86l-9.02 54.34h11.22v16.28h-13.86l-2.64 15.84h16.5v16.28h-19.14l-9.02 54.34h-30.8l-9.9-54.34h-20.24l-9.68 54.34h-31.02zm48.619-102.74h4.4l-2.2-20.24-2.2 20.24zm-36.52 32.12h9.9l2.64-15.84h-14.96l2.42 15.84zm31.68 0h14.08l-2.86-15.84h-8.36l-2.86 15.84zm36.08 0h10.12l2.2-15.84h-15.18l2.86 15.84zm-63.14 38.28l2.64-22h-5.06l2.42 22zm68.42 0l2.42-22h-5.28l2.86 22z" fill="#fff"/>
</svg>
