<svg viewBox="0 0 300 300" fill="none" xmlns="http://www.w3.org/2000/svg">
    <path d="M150 300c82.843 0 150-67.157 150-150S232.843 0 150 0 0 67.157 0 150s67.157 150 150 150z" fill="#10BA97"/>
    <path d="M167.472 213.988h31.932c4.457 0 7.813-.881 10.068-2.643 2.255-1.762 3.382-4.538 3.382-8.328 0-3.791-1.127-6.567-3.382-8.329-2.255-1.815-5.611-2.722-10.068-2.722h-31.932v-12.012h31.303c7.865 0 13.869 1.975 18.012 5.926 4.142 3.897 6.213 9.609 6.213 17.137 0 7.527-2.071 13.24-6.213 17.137-4.143 3.897-10.147 5.846-18.012 5.846h-31.303v-12.012zm37.124-52.739c2.726-.214 4.928-1.335 6.606-3.363 1.626-2.082 2.438-4.832 2.438-8.249 0-2.829-.576-5.125-1.73-6.887-1.206-1.815-2.858-2.722-4.955-2.722-1.468 0-2.622.507-3.461 1.521-.891.961-1.573 2.349-2.045 4.164-.524 1.762-1.153 4.512-1.887 8.249-.682 3.683-1.547 6.78-2.596 9.289-1.101 2.509-2.7 4.565-4.797 6.166-2.15 1.549-4.982 2.323-8.495 2.323-3.198 0-6.056-.881-8.573-2.643-2.517-1.815-4.483-4.298-5.899-7.448-1.468-3.203-2.202-6.806-2.202-10.81 0-4.111.76-7.795 2.281-11.052 1.468-3.31 3.513-5.899 6.135-7.767 2.621-1.922 5.584-2.91 8.887-2.963v11.771c-2.359.267-4.247 1.282-5.663 3.044-1.468 1.761-2.202 4.084-2.202 6.967 0 2.669.551 4.804 1.652 6.406 1.101 1.602 2.674 2.402 4.719 2.402 1.468 0 2.622-.48 3.461-1.441.786-.961 1.442-2.322 1.966-4.084.472-1.762 1.049-4.485 1.73-8.168.682-3.738 1.547-6.887 2.596-9.45.996-2.563 2.543-4.618 4.64-6.166 2.045-1.602 4.798-2.403 8.259-2.403 3.355 0 6.37.935 9.045 2.803 2.621 1.869 4.693 4.485 6.213 7.848 1.521 3.31 2.281 7.047 2.281 11.211 0 4.485-.787 8.489-2.36 12.013-1.625 3.47-3.853 6.193-6.685 8.168-2.831 1.975-6.004 2.99-9.517 3.043l.158-11.772zm-37.124-40.521v-19.459c0-5.606 1.18-10.544 3.539-14.815 2.307-4.325 5.558-7.635 9.753-9.93C184.906 74.174 189.652 73 195 73c5.348 0 10.12 1.174 14.315 3.523 4.142 2.296 7.393 5.606 9.752 9.93 2.308 4.272 3.461 9.21 3.461 14.816v19.459h-55.056zm45.225-19.459c0-5.072-1.6-8.996-4.798-11.772-3.251-2.83-7.551-4.245-12.899-4.245-5.348 0-9.622 1.415-12.82 4.245-3.251 2.776-4.877 6.7-4.877 11.772v7.447h35.394v-7.447zM138.8 106.8l-16.02 10.62c-4.92-9.24-11.16-13.86-18.72-13.86-3.96 0-7.14 1.32-9.54 3.96-2.4 2.52-3.6 5.76-3.6 9.72 0 7.68 6.36 14.52 19.08 20.52 5.16 2.28 9.24 4.26 12.24 5.94 3 1.56 6.54 3.9 10.62 7.02 4.08 3.12 7.08 6.78 9 10.98 2.04 4.2 3.06 9 3.06 14.4 0 9.72-2.82 18-8.46 24.84-5.52 6.72-12.9 10.92-22.14 12.6v15.66h-18v-15.66c-8.28-1.68-15.3-5.52-21.06-11.52-5.64-6.12-9.42-13.68-11.34-22.68l16.2-10.26c4.44 17.76 12.9 26.64 25.38 26.64 5.64 0 10.26-1.74 13.86-5.22 3.6-3.6 5.4-8.16 5.4-13.68 0-3.84-1.32-7.2-3.96-10.08-2.64-3-5.94-5.4-9.9-7.2a650.77 650.77 0 01-12.96-6.48c-4.68-2.4-9-4.86-12.96-7.38-3.96-2.64-7.26-6.24-9.9-10.8-2.64-4.68-3.96-10.08-3.96-16.2 0-7.92 2.34-14.88 7.02-20.88 4.68-5.88 10.74-9.66 18.18-11.34V70.8h18v16.02c10.44 2.76 18.6 9.42 24.48 19.98z" fill="#fff"/>
</svg>
