<svg viewBox="0 0 300 300" fill="none" xmlns="http://www.w3.org/2000/svg">
    <circle cx="150" cy="150" r="150" fill="#000"/>
    <path fill-rule="evenodd" clip-rule="evenodd" d="M80.027 205.873A16.781 16.781 0 0172 191.576v-32.529c0-1.245.334-2.445.956-3.513a6.977 6.977 0 019.56-2.512l73.419 42.8a13.987 13.987 0 016.937 12.074v33.707a8.459 8.459 0 01-1.223 4.38 8.386 8.386 0 01-11.54 2.779l-70.082-42.889zm109.437-61.768a13.987 13.987 0 016.937 12.074v68.392a5.573 5.573 0 01-2.846 4.87l-16.076 9.049c-.2.112-.422.2-.644.267v-37.976c0-4.914-2.579-9.472-6.804-12.007l-64.479-38.576V107.33c0-1.245.333-2.446.956-3.513a6.977 6.977 0 019.56-2.513l73.396 42.801zm32.129-50.516c4.313 2.49 6.959 7.115 6.959 12.096v99.899a5.608 5.608 0 01-2.935 4.913l-15.231 8.227v-69.549c0-4.913-2.579-9.45-6.781-11.985l-65.903-39.532V56.992c0-1.246.334-2.446.934-3.514 1.935-3.335 6.226-4.469 9.561-2.534l73.396 42.645z" fill="#00D395"/>
</svg>
