<svg viewBox="0 0 300 300" fill="none" xmlns="http://www.w3.org/2000/svg">
    <circle cx="150" cy="150" r="150" fill="#31CB9E"/>
    <path fill-rule="evenodd" clip-rule="evenodd" d="M162.171 41.915L217.828 82.8a4.09 4.09 0 011.728 3.635 4.097 4.097 0 01-2.216 3.359l-82.461 45.538 20.322-91.076a4.424 4.424 0 012.86-3.026 4.435 4.435 0 014.11.684zm57.383 154.699l-81.418-46.579 81.418-46.611a4.271 4.271 0 015.946 1.497c.381.662.577 1.415.568 2.178v85.807a4.296 4.296 0 01-4.349 4.321 4.296 4.296 0 01-2.165-.613zm-57.448 61.509l55.722-40.887a4.151 4.151 0 001.763-3.673 4.153 4.153 0 00-2.219-3.418l-82.493-45.538 20.322 91.076a4.395 4.395 0 004.917 3.328 4.386 4.386 0 001.988-.823v-.065zm-23.97-208.662l-21.169 98.883 20.908 98.947a4.193 4.193 0 01-1.82 4.322 4.204 4.204 0 01-4.693-.061l-53.964-41.407A11.226 11.226 0 0173 201.07V95.682a11.21 11.21 0 014.397-8.945L131.622 45.2a4.208 4.208 0 016.265 1.823 4.19 4.19 0 01.249 2.438z" fill="#fff"/>
</svg>
