<svg viewBox="0 0 300 300" fill="none" xmlns="http://www.w3.org/2000/svg">
    <path d="M150 300c82.843 0 150-67.157 150-150S232.843 0 150 0 0 67.157 0 150s67.157 150 150 150z" fill="#2A5ADA"/>
    <g clip-path="url(#clip0)">
        <path d="M150 48.15l18.518 10.648 50.463 29.167L237.5 98.613V199.54l-18.519 10.649-50.925 29.166-18.519 10.648-18.519-10.648-50-29.166-18.518-10.65V98.613l18.518-10.648 50.463-29.167L150 48.15zm50.463 130.093V119.91L150 90.743 99.537 119.91v58.333L150 207.41l50.463-29.167z" fill="#fff"/>
    </g>
    <defs>
        <clipPath id="clip0">
            <path fill="#fff" transform="matrix(-1 0 0 1 237.5 48.15)" d="M0 0h175v201.852H0z"/>
        </clipPath>
    </defs>
</svg>
