<svg width="14" height="8" viewBox="0 0 14 8" fill="none" xmlns="http://www.w3.org/2000/svg">
<path d="M0.000108474 4.76027L0.000108303 2.80029C0.000108296 2.72603 0.0296083 2.65481 0.0821176 2.6023C0.134628 2.54979 0.205846 2.52029 0.280106 2.52029L9.31284 2.52029L7.39485 0.470705C7.3575 0.430961 7.33256 0.38117 7.32311 0.327448C7.31366 0.273728 7.3201 0.218415 7.34165 0.168307C7.36332 0.118658 7.39893 0.0763598 7.44415 0.0465408C7.48938 0.0167213 7.54228 0.000661929 7.59645 0.000308587L10.36 0.000308346C10.3984 0.000431843 10.4364 0.00844938 10.4715 0.0238631C10.5067 0.0392769 10.5383 0.0617574 10.5644 0.0899075L13.8208 3.58988C13.8688 3.64166 13.8955 3.70967 13.8955 3.78028C13.8955 3.8509 13.8688 3.9189 13.8208 3.97068L10.5784 7.47065C10.5507 7.50059 10.5169 7.52412 10.4791 7.53959C10.4414 7.55507 10.4008 7.56212 10.36 7.56025L7.58245 7.56025C7.52828 7.5599 7.47538 7.54384 7.43015 7.51402C7.38493 7.4842 7.34932 7.4419 7.32766 7.39225C7.3061 7.34215 7.29966 7.28683 7.30911 7.23311C7.31856 7.17939 7.3435 7.1296 7.38086 7.08986L9.31284 5.04027L0.280106 5.04027C0.205847 5.04027 0.134628 5.01077 0.0821178 4.95826C0.0296085 4.90575 0.000108481 4.83453 0.000108474 4.76027Z" fill="#00D1FF"/>
</svg>