<svg viewBox="0 0 62 62" fill="none" xmlns="http://www.w3.org/2000/svg">
    <g filter="url(#filter0_d-676739)">
        <circle cx="31" cy="31" r="16" fill="#09092F"/>
        <circle cx="31" cy="31" r="15" stroke="#FC8738" stroke-width="2"/>
    </g>
    <g filter="url(#filter1_d-490688)">
        <mask id="a" fill="#fff">
            <path fill-rule="evenodd" clip-rule="evenodd" d="M30.82 30.822l.893-.672-.896-1.19-.893 1.192.896.67zm0 0l.893-.672v.001l.003.003.006.008.021.029a13.929 13.929 0 01.337.475c.214.311.5.748.788 1.243.287.492.586 1.062.816 1.637.223.558.418 1.21.418 1.841a3.672 3.672 0 00.42-1.707c0-.733-.242-1.686-.674-2.767-.425-1.062-.999-2.166-1.585-3.175a40.977 40.977 0 00-1.442-2.295 41.02 41.02 0 00-1.444 2.3c-.587 1.012-1.161 2.116-1.586 3.178-.432 1.08-.673 2.03-.673 2.76 0 .614.152 1.195.419 1.706 0-.629.196-1.279.418-1.834.23-.575.53-1.144.815-1.637a20.463 20.463 0 011.124-1.723l.021-.028.007-.008.001-.003h.001v-.001l.896.67zm0 0s.298.396.673.981c.635.99 1.491 2.522 1.491 3.585a2.2 2.2 0 01-.954 1.79 2.16 2.16 0 01-3.375-1.79c0-1.053.858-2.59 1.493-3.584.375-.585.672-.982.672-.982zm0 7.678c.603 0 1.181-.112 1.715-.316a4.831 4.831 0 003.104-4.504c0-2.877-2.806-7.29-4.136-9.22-.413-.6-.683-.96-.683-.96s-.27.36-.683.96C28.807 26.394 26 30.815 26 33.68a4.831 4.831 0 003.076 4.493 4.787 4.787 0 001.744.327zm-1.07-2.908c0-.804 1.07-2.181 1.07-2.181s1.072 1.373 1.072 2.181c0 .569-.48 1.033-1.071 1.033-.59 0-1.072-.464-1.072-1.033z"/>
        </mask>
        <path fill-rule="evenodd" clip-rule="evenodd" d="M30.82 30.822l.893-.672-.896-1.19-.893 1.192.896.67zm0 0l.893-.672v.001l.003.003.006.008.021.029a13.929 13.929 0 01.337.475c.214.311.5.748.788 1.243.287.492.586 1.062.816 1.637.223.558.418 1.21.418 1.841a3.672 3.672 0 00.42-1.707c0-.733-.242-1.686-.674-2.767-.425-1.062-.999-2.166-1.585-3.175a40.977 40.977 0 00-1.442-2.295 41.02 41.02 0 00-1.444 2.3c-.587 1.012-1.161 2.116-1.586 3.178-.432 1.08-.673 2.03-.673 2.76 0 .614.152 1.195.419 1.706 0-.629.196-1.279.418-1.834.23-.575.53-1.144.815-1.637a20.463 20.463 0 011.124-1.723l.021-.028.007-.008.001-.003h.001v-.001l.896.67zm0 0s.298.396.673.981c.635.99 1.491 2.522 1.491 3.585a2.2 2.2 0 01-.954 1.79 2.16 2.16 0 01-3.375-1.79c0-1.053.858-2.59 1.493-3.584.375-.585.672-.982.672-.982zm0 7.678c.603 0 1.181-.112 1.715-.316a4.831 4.831 0 003.104-4.504c0-2.877-2.806-7.29-4.136-9.22-.413-.6-.683-.96-.683-.96s-.27.36-.683.96C28.807 26.394 26 30.815 26 33.68a4.831 4.831 0 003.076 4.493 4.787 4.787 0 001.744.327zm-1.07-2.908c0-.804 1.07-2.181 1.07-2.181s1.072 1.373 1.072 2.181c0 .569-.48 1.033-1.071 1.033-.59 0-1.072-.464-1.072-1.033z" fill="#FC8738"/>
        <path d="M31.713 30.15l.672.893.894-.672-.673-.894-.893.673zm-.896-1.19l.893-.672-.896-1.19-.892 1.192.895.67zm-.893 1.192l-.895-.67-.67.896.895.67.67-.896zm1.789-.002l-.894.672.001.001.893-.673zm0 0l.894-.671v-.001l-.894.672zm0 .001l.895-.67v-.001l-.894.671zm.003.003l.895-.67v-.001l-.895.671zm.006.008l.898-.666-.002-.003-.896.67zm.021.029l.9-.664-.002-.002-.898.666zm.076.103l-.906.655.906-.655zm.26.372l.923-.633-.922.633zm.79 1.243l.966-.562-.967.562zm.815 1.637l-1.038.416 1.038-.416zm.418 1.841h-1.118l2.109.518-.99-.518zm-.254-4.474l1.038-.414-1.038.415zm-1.585-3.175l.966-.562-.966.562zm-1.442-2.295l.926-.625-.927-1.376-.927 1.376.928.625zm-1.444 2.3l.967.562-.967-.561zm-1.586 3.178l1.038.415-1.038-.415zm-.254 4.466l-.99.518 2.108-.517-1.118-.001zm.418-1.834l-1.037-.416 1.037.416zm.815-1.637l-.967-.561.967.561zm.788-1.246l.923.63-.923-.63zm.26-.373l-.907-.652.908.652zm.076-.104l-.9-.663-.001.002.901.662zm.021-.028l-.897-.667-.002.003.9.664zm.007-.008l-.897-.669v.002l.897.667zm.001-.003l-.895-.67v.001l.895.669zm.001 0l.896.668-.896-.669zm0-.001l-.895-.67.895.67zm1.569 1.65l-.941.604.94-.604zm1.491 3.585l1.118.016v-.016h-1.118zm-.954 1.79l.633.922-.633-.922zm-2.446-.009l-.636.92.636-.92zm.564-5.365l.942.603-.942-.603zm2.387 6.38l-.4-1.044.4 1.044zM31.503 24.46l-.92.634.92-.634zm-.683-.96l.893-.672-.895-1.19-.893 1.191.895.671zm-.683.96l.921.634-.921-.634zm-1.06 13.713l-.407 1.042.406-1.042zm1.744-4.763l.881-.687-.882-1.132-.882 1.133.883.687zm.22-4.153l-.894.672 1.345 1.787.893-.673-1.345-1.786zm-1.117.376l.896 1.19 1.786-1.346-.896-1.19-1.786 1.346zm.896 1.19l.892-1.193-1.79-1.34-.893 1.192 1.79 1.34zm.67-.896l-.895-.67-1.34 1.79.895.67 1.34-1.79zm.002 1.789l.781-.588.096-.073.006-.004a.322.322 0 01-.027.02 1.03 1.03 0 01-.03.02c-.01.005-.042.027-.088.05a1.1 1.1 0 01-.452.125 1.117 1.117 0 01-.943-.424l-.016-.02 1.788-1.343-.016-.02a1.117 1.117 0 00-1.514-.228l-.021.014-.008.006-.02.015-.099.075-.782.588 1.345 1.787zm-.672-.893l1.786-1.345-1.786 1.345zm0 0l1.788-1.343v-.001l-1.789 1.343zm0 0l.002.002 1.788-1.342-.002-.003-1.788 1.342zm0 0l.006.009 1.792-1.34-.007-.007-1.79 1.338zm.004.005l.021.03 1.796-1.333-.021-.029-1.796 1.332zm.02.027l.069.094 1.812-1.31a14.233 14.233 0 00-.082-.112l-1.8 1.328zm.069.094c.059.082.143.201.245.35l1.844-1.265a19.608 19.608 0 00-.277-.394l-1.812 1.31zm.245.35c.203.295.473.707.744 1.172l1.933-1.124a21.302 21.302 0 00-.833-1.314l-1.844 1.265zm.744 1.172c.27.465.541.983.744 1.49l2.076-.83a13.882 13.882 0 00-.887-1.784l-1.933 1.124zm.744 1.49c.203.507.338 1.004.338 1.427l2.236-.002c0-.84-.255-1.647-.498-2.255l-2.076.83zm2.447 1.944a4.79 4.79 0 00.546-2.225h-2.236c0 .43-.105.833-.291 1.189l1.981 1.036zm.546-2.225c0-.943-.301-2.05-.753-3.181l-2.076.83c.411 1.03.593 1.827.593 2.351h2.236zm-.753-3.181c-.452-1.131-1.054-2.286-1.657-3.323l-1.933 1.123c.57.983 1.116 2.035 1.514 3.03l2.076-.83zm-1.657-3.323a42.036 42.036 0 00-1.482-2.358l-1.853 1.25a39.85 39.85 0 011.402 2.231l1.933-1.123zm-3.336-2.358a42.424 42.424 0 00-1.483 2.364l1.934 1.123c.497-.857.998-1.634 1.404-2.238l-1.855-1.249zm-1.483 2.364c-.603 1.038-1.205 2.194-1.657 3.324l2.076.83c.398-.994.944-2.047 1.515-3.031l-1.934-1.123zm-1.657 3.324c-.452 1.13-.753 2.236-.753 3.174h2.236c0-.519.181-1.313.593-2.344l-2.076-.83zM26 33.68c0 .8.198 1.559.546 2.225l1.982-1.036a2.554 2.554 0 01-.292-1.189H26zm2.655 1.708c0-.42.136-.914.338-1.42l-2.075-.83c-.243.604-.499 1.41-.5 2.248l2.237.002zm.338-1.42a11.81 11.81 0 01.744-1.49l-1.934-1.123c-.301.52-.628 1.14-.886 1.782l2.076.832zm.744-1.49c.27-.467.542-.88.744-1.178l-1.846-1.26c-.225.328-.526.79-.832 1.315l1.934 1.123zm.744-1.178c.102-.148.186-.268.246-.35l-1.816-1.305c-.069.095-.164.23-.276.395l1.846 1.26zm.246-.35l.068-.095-1.802-1.323-.082.113 1.816 1.305zm.067-.093l.021-.029-1.8-1.327-.02.029 1.799 1.327zm.019-.025l.006-.009-1.795-1.333-.006.008 1.795 1.334zm.005-.007l.002-.003-1.793-1.337-.002.003 1.793 1.337zm.001-.002l-1.79-1.34-.001.002 1.791 1.338zm0 0l.001-.001-1.791-1.338 1.79 1.338zm0 0c.016-.022-.097.148-.297.275a1.118 1.118 0 01-1.201-.004l-.03-.02a.815.815 0 01-.026-.018l.005.004.097.072.783.585 1.34-1.79-.784-.586-.1-.075-.019-.014a.459.459 0 00-.008-.006l-.021-.015a.962.962 0 00-.117-.07 1.11 1.11 0 00-.447-.124 1.119 1.119 0 00-.667.17c-.2.127-.314.297-.298.275l1.79 1.341zm1.615.376a20.646 20.646 0 00-.703-1.025l-.013-.017-.003-.004-.001-.002h-.001v-.001l-.893.672-.894.673.002.002.007.01a14.344 14.344 0 01.167.231c.114.162.273.393.45.669l1.882-1.208zm1.668 4.19c0-.782-.3-1.612-.609-2.287a15.975 15.975 0 00-1.06-1.903l-1.881 1.208c.303.472.645 1.054.909 1.628.277.604.405 1.071.405 1.353h2.236zm-1.44 2.711a3.32 3.32 0 001.44-2.696l-2.236-.031a1.084 1.084 0 01-.468.883l1.265 1.844zm-1.842.571c.681 0 1.317-.211 1.843-.571l-1.265-1.844a1.014 1.014 0 01-.578.179v2.236zm-1.872-.583a3.278 3.278 0 001.872.583v-2.236c-.228 0-.432-.07-.599-.185l-1.273 1.838zm-1.411-2.7c0 1.12.557 2.108 1.41 2.7l1.274-1.838a1.04 1.04 0 01-.448-.862h-2.236zm1.67-4.186c-.333.52-.736 1.2-1.06 1.905-.309.674-.61 1.503-.61 2.281h2.236c0-.276.128-.74.406-1.348.265-.575.608-1.16.911-1.633l-1.883-1.205zm1.613-.38l-.896-.67v.002l-.001.001-.004.005-.012.017a12.22 12.22 0 00-.198.274 21.02 21.02 0 00-.502.75l1.883 1.206a18.869 18.869 0 01.582-.856l.034-.046.008-.01v-.003h.001l-.895-.67zm1.315 6.318a3.673 3.673 0 01-1.315.242v2.236c.742 0 1.456-.138 2.114-.39l-.8-2.088zm2.386-3.46c0 1.572-.99 2.926-2.386 3.46l.8 2.088a5.95 5.95 0 003.822-5.548h-2.236zm-3.938-8.586c.651.945 1.655 2.486 2.49 4.128.86 1.688 1.448 3.305 1.448 4.458h2.236c0-1.724-.815-3.752-1.69-5.473-.9-1.766-1.964-3.397-2.643-4.382l-1.841 1.269zm.237-1.594l-.894.672.002.002.008.01.033.046.132.18c.115.16.28.392.482.684l1.841-1.269a38.342 38.342 0 00-.695-.976l-.011-.015-.003-.004a.018.018 0 01-.002-.002l-.893.672zm.238 1.594a37.246 37.246 0 01.646-.91l.008-.01.002-.003-.894-.671-.895-.67-.001.001a.25.25 0 00-.014.019 14.093 14.093 0 00-.184.25 42.55 42.55 0 00-.51.727l1.842 1.267zm-3.94 8.586c0-1.146.588-2.762 1.448-4.452.837-1.644 1.84-3.187 2.492-4.134l-1.842-1.267c-.679.986-1.743 2.62-2.643 4.387-.875 1.72-1.691 3.748-1.691 5.466h2.236zm2.365 3.452a3.713 3.713 0 01-2.365-3.452h-2.236a5.95 5.95 0 003.788 5.535l.813-2.084zm1.337.25c-.473 0-.923-.089-1.337-.25l-.813 2.083c.668.26 1.394.403 2.15.403v-2.236zm0-3.971l-.882-.687v.001l-.002.002a.51.51 0 00-.016.02l-.041.055-.138.19a10.23 10.23 0 00-.414.63c-.15.25-.314.55-.443.861-.121.293-.253.69-.253 1.109h2.236c0 .016.003-.06.083-.252a4.44 4.44 0 01.293-.564 8.046 8.046 0 01.428-.636l.027-.035a1.46 1.46 0 01.005-.008h.001l-.883-.687zm2.19 2.181c0-.419-.13-.816-.252-1.11a6.61 6.61 0 00-.444-.861 10.19 10.19 0 00-.61-.895v-.002h-.001l-.882.687-.882.687.006.008.027.035.105.144c.09.126.206.299.322.49.117.195.221.39.293.563.08.192.082.269.082.254h2.236zm-2.19 2.15c1.17 0 2.19-.925 2.19-2.15h-2.236c0-.017.004-.034.01-.049a.082.082 0 01.018-.026.038.038 0 01.012-.009l.007-.001v2.236zm-2.189-2.15c0 1.225 1.021 2.15 2.19 2.15v-2.235l.006.002a.038.038 0 01.013.008.082.082 0 01.017.026c.007.015.01.032.01.049h-2.236z" fill="#FC8738" mask="url(#a)"/>
    </g>
    <defs>
        <filter id="filter0_d-676739" x="0" y="0" width="62" height="62" filterUnits="userSpaceOnUse" color-interpolation-filters="sRGB">
            <feFlood flood-opacity="0" result="BackgroundImageFix"/>
            <feColorMatrix in="SourceAlpha" values="0 0 0 0 0 0 0 0 0 0 0 0 0 0 0 0 0 0 127 0"/>
            <feOffset/>
            <feGaussianBlur stdDeviation="7.5"/>
            <feColorMatrix values="0 0 0 0 0.988235 0 0 0 0 0.529412 0 0 0 0 0.219608 0 0 0 0.6 0"/>
            <feBlend in2="BackgroundImageFix" result="effect1_dropShadow"/>
            <feBlend in="SourceGraphic" in2="effect1_dropShadow" result="shape"/>
        </filter>
        <filter id="filter1_d-490688" x="6" y="6" width="50" height="50" filterUnits="userSpaceOnUse" color-interpolation-filters="sRGB">
            <feFlood flood-opacity="0" result="BackgroundImageFix"/>
            <feColorMatrix in="SourceAlpha" values="0 0 0 0 0 0 0 0 0 0 0 0 0 0 0 0 0 0 127 0"/>
            <feOffset/>
            <feGaussianBlur stdDeviation="7.5"/>
            <feColorMatrix values="0 0 0 0 0.988235 0 0 0 0 0.529412 0 0 0 0 0.219608 0 0 0 0.6 0"/>
            <feBlend in2="BackgroundImageFix" result="effect1_dropShadow"/>
            <feBlend in="SourceGraphic" in2="effect1_dropShadow" result="shape"/>
        </filter>
    </defs>
</svg>
