<svg viewBox="0 0 62 62" fill="none" xmlns="http://www.w3.org/2000/svg">
    <g filter="url(#burn-custom-circle-filter0_d)">
        <circle cx="31" cy="31" r="16" fill="#09092F"/>
        <circle cx="31" cy="31" r="15" stroke="#FC8738" stroke-width="2"/>
    </g>
    <mask id="a" fill="#fff">
        <path fill-rule="evenodd" clip-rule="evenodd" d="M31 23.5s-.273.351-.692.937C28.936 26.358 26 30.804 26 33.68c0 2.655 2.246 4.82 5 4.82s5-2.165 5-4.82c0-2.889-2.934-7.326-4.307-9.244-.42-.585-.693-.936-.693-.936zm-1.542 4.26A41.254 41.254 0 0131 25.393c.44.625.991 1.446 1.541 2.36.609 1.009 1.204 2.111 1.644 3.173.447 1.08.696 2.028.696 2.753 0 2-1.706 3.702-3.882 3.702s-3.882-1.702-3.882-3.702c0-.72.248-1.666.696-2.746.44-1.06 1.035-2.164 1.644-3.175zm.388 7.285C29.846 34.106 31 32.5 31 32.5s1.154 1.602 1.154 2.545c0 .664-.518 1.205-1.154 1.205-.636 0-1.154-.541-1.154-1.205z"/>
    </mask>
    <path fill-rule="evenodd" clip-rule="evenodd" d="M31 23.5s-.273.351-.692.937C28.936 26.358 26 30.804 26 33.68c0 2.655 2.246 4.82 5 4.82s5-2.165 5-4.82c0-2.889-2.934-7.326-4.307-9.244-.42-.585-.693-.936-.693-.936zm-1.542 4.26A41.254 41.254 0 0131 25.393c.44.625.991 1.446 1.541 2.36.609 1.009 1.204 2.111 1.644 3.173.447 1.08.696 2.028.696 2.753 0 2-1.706 3.702-3.882 3.702s-3.882-1.702-3.882-3.702c0-.72.248-1.666.696-2.746.44-1.06 1.035-2.164 1.644-3.175zm.388 7.285C29.846 34.106 31 32.5 31 32.5s1.154 1.602 1.154 2.545c0 .664-.518 1.205-1.154 1.205-.636 0-1.154-.541-1.154-1.205z" fill="#FC8738"/>
    <path d="M30.308 24.437l.91.65-.91-.65zM31 23.5l.881-.688L31 21.681l-.881 1.132.882.687zm.693.936l.91-.65-.91.65zm-.692.958l.915-.643L31 23.447l-.915 1.305.916.642zm-1.543 2.365l-.958-.577.958.577zm3.084-.006l.958-.577-.958.577zm1.644 3.174l-1.033.428 1.033-.428zm-6.372.007l-1.033-.428 1.033.428zM31 32.5l.907-.653L31 30.585l-.907 1.263.908.652zm.218-7.413a36.96 36.96 0 01.655-.888l.008-.01.001-.002L31 23.5c-.882-.687-.882-.686-.883-.686v.001a.25.25 0 00-.004.004l-.01.014-.04.052-.147.193c-.125.168-.303.409-.518.71l1.82 1.3zm-4.1 8.593c0-1.14.611-2.759 1.51-4.457.872-1.648 1.917-3.195 2.59-4.136l-1.82-1.3c-.7.98-1.808 2.617-2.747 4.39-.912 1.725-1.77 3.768-1.77 5.503h2.237zM31 37.382c-2.176 0-3.882-1.703-3.882-3.702h-2.236c0 3.311 2.785 5.938 6.118 5.938v-2.236zm3.882-3.702c0 2-1.706 3.702-3.882 3.702v2.236c3.333 0 6.118-2.627 6.118-5.938h-2.236zm-4.098-8.593c.672.94 1.717 2.483 2.59 4.13.897 1.696 1.508 3.316 1.508 4.463h2.236c0-1.74-.856-3.784-1.769-5.509-.938-1.772-2.047-3.407-2.747-4.385l-1.818 1.301zM31 23.5l-.882.688.002.002.008.01a42.972 42.972 0 00.167.22c.116.155.285.382.489.667l1.818-1.301a39.35 39.35 0 00-.719-.972v-.001h-.001L31 23.5zm-.915 1.252a42.385 42.385 0 00-1.585 2.43l1.916 1.154a40.063 40.063 0 011.5-2.3l-1.83-1.284zm3.415 2.424a42.055 42.055 0 00-1.584-2.425l-1.83 1.285c.429.61.965 1.41 1.499 2.294l1.915-1.154zm1.719 3.323c-.469-1.131-1.094-2.286-1.719-3.323l-1.915 1.154c.592.983 1.157 2.033 1.568 3.025l2.066-.856zM36 33.68c0-.943-.313-2.05-.781-3.181l-2.066.856c.427 1.03.61 1.817.61 2.325H36zm-5 4.82c2.758 0 5-2.168 5-4.82h-2.236c0 1.347-1.17 2.584-2.764 2.584V38.5zm-5-4.82c0 2.652 2.242 4.82 5 4.82v-2.236c-1.594 0-2.764-1.237-2.764-2.584H26zm.781-3.174c-.468 1.13-.781 2.236-.781 3.174h2.236c0-.503.184-1.288.61-2.318l-2.065-.856zm1.719-3.324c-.625 1.038-1.25 2.194-1.719 3.324l2.066.856c.411-.991.976-2.042 1.569-3.026L28.5 27.182zM31 32.5l-.908-.652-.001.001-.001.002-.004.006-.013.017a10.735 10.735 0 00-.627 1.003c-.16.287-.33.626-.464.975-.127.332-.254.758-.254 1.193h2.236c0-.034.017-.16.107-.394.082-.216.2-.455.33-.687a9.652 9.652 0 01.47-.758l.03-.044.007-.01L31 32.5zm2.272 2.545c0-.436-.127-.862-.254-1.195a7.722 7.722 0 00-.464-.975 11.736 11.736 0 00-.628-1.002c-.005-.007-.01-.013-.012-.018a.177.177 0 01-.004-.005l-.002-.002v-.001L31 32.5l-.907.653a3.909 3.909 0 00.037.053 9.017 9.017 0 01.47.757c.13.232.247.47.33.686.088.233.106.36.106.396h2.236zM31 37.368c1.298 0 2.272-1.088 2.272-2.323h-2.236a.111.111 0 01-.028.078l-.012.01h.002l.001-.001H31v2.236zm-2.272-2.323c0 1.235.974 2.323 2.272 2.323v-2.236h.003a.01.01 0 01.001 0s-.005-.002-.012-.009a.111.111 0 01-.028-.078h-2.236z" fill="#FC8738" mask="url(#a)"/>
    <defs>
        <filter id="burn-custom-circle-filter0_d" x="0" y="0" width="62" height="62" filterUnits="userSpaceOnUse" color-interpolation-filters="sRGB">
            <feFlood flood-opacity="0" result="BackgroundImageFix"/>
            <feColorMatrix in="SourceAlpha" values="0 0 0 0 0 0 0 0 0 0 0 0 0 0 0 0 0 0 127 0"/>
            <feOffset/>
            <feGaussianBlur stdDeviation="7.5"/>
            <feColorMatrix values="0 0 0 0 0.988235 0 0 0 0 0.529412 0 0 0 0 0.219608 0 0 0 0.6 0"/>
            <feBlend in2="BackgroundImageFix" result="effect1_dropShadow"/>
            <feBlend in="SourceGraphic" in2="effect1_dropShadow" result="shape"/>
        </filter>
    </defs>
</svg>
