<svg viewBox="0 0 38 49" fill="none" xmlns="http://www.w3.org/2000/svg">
    <g filter="url(#filter0_d-909495)">
        <path d="M19.433 8.694S9.374 22.106 9.374 29.941C9.374 35.482 13.892 40 19.433 40c5.54 0 10.058-4.518 10.058-10.059 0-7.87-10.058-21.247-10.058-21.247zm0 29.33a4.504 4.504 0 01-4.518-4.518c0-3.494 4.518-9.53 4.518-9.53s4.517 6 4.517 9.53c-.035 2.506-2.047 4.517-4.517 4.517z" fill="#3B2627"/>
        <path d="M19.433 23.977l.446-.337-.448-.595-.446.596.448.336zm0 0l.447-.337h0v.002l.003.004.01.014.04.053.147.2a40.378 40.378 0 012.095 3.223c.572.985 1.151 2.091 1.588 3.184.434 1.084.746 2.199.746 3.186v.008h0c-.04 2.804-2.293 5.069-5.076 5.069a5.063 5.063 0 01-5.077-5.077c0-.979.313-2.09.746-3.171.437-1.091 1.016-2.199 1.588-3.185a40.983 40.983 0 012.241-3.436l.04-.053.01-.014.003-.004h0l.001-.001.448.335zm0-14.335a88.077 88.077 0 014.545 7.006c1.25 2.15 2.493 4.534 3.423 6.86.933 2.336 1.531 4.57 1.531 6.433 0 5.233-4.267 9.5-9.5 9.5-5.232 0-9.499-4.267-9.499-9.5 0-1.854.599-4.083 1.532-6.418.93-2.325 2.172-4.71 3.422-6.863a88.829 88.829 0 014.546-7.018z" stroke="#FC8738" stroke-width="1.118"/>
    </g>
    <defs>
        <filter id="filter0_d-909495" x=".989" y=".309" width="36.888" height="48.076" filterUnits="userSpaceOnUse" color-interpolation-filters="sRGB">
            <feFlood flood-opacity="0" result="BackgroundImageFix"/>
            <feColorMatrix in="SourceAlpha" values="0 0 0 0 0 0 0 0 0 0 0 0 0 0 0 0 0 0 127 0"/>
            <feOffset/>
            <feGaussianBlur stdDeviation="4.193"/>
            <feColorMatrix values="0 0 0 0 0.988235 0 0 0 0 0.529412 0 0 0 0 0.219608 0 0 0 0.6 0"/>
            <feBlend in2="BackgroundImageFix" result="effect1_dropShadow"/>
            <feBlend in="SourceGraphic" in2="effect1_dropShadow" result="shape"/>
        </filter>
    </defs>
</svg>
