<svg width="62" height="62" viewBox="0 0 62 62" fill="none" xmlns="http://www.w3.org/2000/svg">
<g filter="url(#filter0_d-676739)">
<circle cx="31" cy="31" r="16" fill="#09092F"/>
<circle cx="31" cy="31" r="15" stroke="#FC8738" stroke-width="2"/>
</g>
<g filter="url(#filter1_d-490688)">
<mask id="path-3-inside-1-172889" fill="white">
<path fill-rule="evenodd" clip-rule="evenodd" d="M30.8196 30.8224L31.7128 30.1499L30.817 28.9602L29.9245 30.1524L30.8196 30.8224ZM30.8196 30.8224C31.7128 30.1499 31.7129 30.1501 31.713 30.1502L31.7133 30.1505L31.7139 30.1514L31.7159 30.154L31.722 30.1623L31.7433 30.191C31.7613 30.2154 31.7869 30.2502 31.8189 30.2944C31.8828 30.3829 31.9727 30.5093 32.0799 30.6658C32.2937 30.9775 32.5801 31.4137 32.8683 31.909C33.1547 32.4012 33.4538 32.9706 33.6841 33.5463C33.9071 34.1037 34.102 34.7552 34.1023 35.387C34.3697 34.8758 34.5212 34.2951 34.5212 33.6804C34.5212 32.9468 34.2795 31.9942 33.8479 30.9135C33.4233 29.8507 32.8494 28.7474 32.2627 27.7377C31.7503 26.8558 31.2366 26.0596 30.8206 25.4428C30.4043 26.0612 29.8899 26.8597 29.3768 27.7436C28.79 28.7545 28.2159 29.8586 27.7913 30.9209C27.3594 32.0013 27.1181 32.9515 27.1181 33.6804C27.1181 34.2951 27.2695 34.8758 27.537 35.387C27.5372 34.7582 27.7329 34.1082 27.9554 33.5529C28.1855 32.9785 28.4843 32.4091 28.7704 31.9163C29.0583 31.4203 29.3444 30.9829 29.558 30.6701C29.6651 30.5131 29.7549 30.3862 29.8188 30.2974C29.8507 30.253 29.8762 30.218 29.8941 30.1935L29.9154 30.1648L29.9215 30.1565L29.9234 30.1539L29.9241 30.1531L29.9243 30.1527C29.9244 30.1526 29.9245 30.1524 30.8196 30.8224ZM30.8196 30.8224C30.8196 30.8224 31.1178 31.2185 31.4928 31.803C32.1282 32.7934 32.9842 34.325 32.9842 35.3884C32.9737 36.1344 32.5976 36.789 32.0304 37.1778C31.6847 37.4148 31.2679 37.553 30.8196 37.553C30.3594 37.553 29.934 37.4114 29.5843 37.1691C29.0217 36.7793 28.655 36.1289 28.655 35.3884C28.655 34.3345 29.5128 32.798 30.1485 31.8042C30.5225 31.2193 30.8196 30.8224 30.8196 30.8224ZM30.8196 38.5C31.4231 38.5 32.0013 38.3882 32.5345 38.1841C34.3469 37.4906 35.6392 35.7319 35.6392 33.6804C35.6392 30.803 32.8334 26.3898 31.5034 24.4596C31.0903 23.86 30.8196 23.5 30.8196 23.5C30.8196 23.5 30.5494 23.8604 30.1368 24.4603C28.8073 26.3937 26 30.8152 26 33.6804C26 35.7212 27.2789 37.4723 29.0765 38.1732C29.6175 38.3842 30.2054 38.5 30.8196 38.5ZM29.7494 35.592C29.7494 34.7875 30.8209 33.4105 30.8209 33.4105C30.8209 33.4105 31.8923 34.7839 31.8923 35.592C31.8923 36.161 31.4111 36.6248 30.8209 36.6248C30.2306 36.6248 29.7494 36.161 29.7494 35.592Z"/>
</mask>
<path fill-rule="evenodd" clip-rule="evenodd" d="M30.8196 30.8224L31.7128 30.1499L30.817 28.9602L29.9245 30.1524L30.8196 30.8224ZM30.8196 30.8224C31.7128 30.1499 31.7129 30.1501 31.713 30.1502L31.7133 30.1505L31.7139 30.1514L31.7159 30.154L31.722 30.1623L31.7433 30.191C31.7613 30.2154 31.7869 30.2502 31.8189 30.2944C31.8828 30.3829 31.9727 30.5093 32.0799 30.6658C32.2937 30.9775 32.5801 31.4137 32.8683 31.909C33.1547 32.4012 33.4538 32.9706 33.6841 33.5463C33.9071 34.1037 34.102 34.7552 34.1023 35.387C34.3697 34.8758 34.5212 34.2951 34.5212 33.6804C34.5212 32.9468 34.2795 31.9942 33.8479 30.9135C33.4233 29.8507 32.8494 28.7474 32.2627 27.7377C31.7503 26.8558 31.2366 26.0596 30.8206 25.4428C30.4043 26.0612 29.8899 26.8597 29.3768 27.7436C28.79 28.7545 28.2159 29.8586 27.7913 30.9209C27.3594 32.0013 27.1181 32.9515 27.1181 33.6804C27.1181 34.2951 27.2695 34.8758 27.537 35.387C27.5372 34.7582 27.7329 34.1082 27.9554 33.5529C28.1855 32.9785 28.4843 32.4091 28.7704 31.9163C29.0583 31.4203 29.3444 30.9829 29.558 30.6701C29.6651 30.5131 29.7549 30.3862 29.8188 30.2974C29.8507 30.253 29.8762 30.218 29.8941 30.1935L29.9154 30.1648L29.9215 30.1565L29.9234 30.1539L29.9241 30.1531L29.9243 30.1527C29.9244 30.1526 29.9245 30.1524 30.8196 30.8224ZM30.8196 30.8224C30.8196 30.8224 31.1178 31.2185 31.4928 31.803C32.1282 32.7934 32.9842 34.325 32.9842 35.3884C32.9737 36.1344 32.5976 36.789 32.0304 37.1778C31.6847 37.4148 31.2679 37.553 30.8196 37.553C30.3594 37.553 29.934 37.4114 29.5843 37.1691C29.0217 36.7793 28.655 36.1289 28.655 35.3884C28.655 34.3345 29.5128 32.798 30.1485 31.8042C30.5225 31.2193 30.8196 30.8224 30.8196 30.8224ZM30.8196 38.5C31.4231 38.5 32.0013 38.3882 32.5345 38.1841C34.3469 37.4906 35.6392 35.7319 35.6392 33.6804C35.6392 30.803 32.8334 26.3898 31.5034 24.4596C31.0903 23.86 30.8196 23.5 30.8196 23.5C30.8196 23.5 30.5494 23.8604 30.1368 24.4603C28.8073 26.3937 26 30.8152 26 33.6804C26 35.7212 27.2789 37.4723 29.0765 38.1732C29.6175 38.3842 30.2054 38.5 30.8196 38.5ZM29.7494 35.592C29.7494 34.7875 30.8209 33.4105 30.8209 33.4105C30.8209 33.4105 31.8923 34.7839 31.8923 35.592C31.8923 36.161 31.4111 36.6248 30.8209 36.6248C30.2306 36.6248 29.7494 36.161 29.7494 35.592Z" fill="#FC8738"/>
<path d="M31.7128 30.1499L32.3853 31.0431L33.2785 30.3706L32.606 29.4774L31.7128 30.1499ZM30.817 28.9602L31.7102 28.2877L30.8144 27.0979L29.9219 28.2902L30.817 28.9602ZM29.9245 30.1524L29.0295 29.4824L28.3595 30.3775L29.2545 31.0475L29.9245 30.1524ZM31.713 30.1502L30.8189 30.8215L30.82 30.823L31.713 30.1502ZM31.7133 30.1505L32.6071 29.4789L32.6062 29.4777L31.7133 30.1505ZM31.7139 30.1514L32.6083 29.4804L32.6078 29.4798L31.7139 30.1514ZM31.7159 30.154L32.6114 29.4846L32.6102 29.483L31.7159 30.154ZM31.722 30.1623L32.62 29.4961L32.6176 29.4929L31.722 30.1623ZM31.7433 30.191L32.6427 29.5268L32.6413 29.5248L31.7433 30.191ZM31.8189 30.2944L30.9126 30.9493L30.9126 30.9493L31.8189 30.2944ZM32.0799 30.6658L33.002 30.0335L33.002 30.0335L32.0799 30.6658ZM32.8683 31.909L33.8347 31.3467L33.8347 31.3467L32.8683 31.909ZM33.6841 33.5463L32.646 33.9615L32.646 33.9615L33.6841 33.5463ZM34.1023 35.387L32.9842 35.3875L35.093 35.9053L34.1023 35.387ZM33.8479 30.9135L34.8862 30.4987L34.8862 30.4987L33.8479 30.9135ZM32.2627 27.7377L33.2294 27.176L33.2294 27.176L32.2627 27.7377ZM30.8206 25.4428L31.7475 24.8177L30.8198 23.442L29.8931 24.8184L30.8206 25.4428ZM29.3768 27.7436L30.3437 28.3049L30.3437 28.3049L29.3768 27.7436ZM27.7913 30.9209L28.8294 31.3359L28.8294 31.3359L27.7913 30.9209ZM27.537 35.387L26.5463 35.9053L28.655 35.3875L27.537 35.387ZM27.9554 33.5529L26.9175 33.1371L26.9175 33.1371L27.9554 33.5529ZM28.7704 31.9163L27.8034 31.355L27.8034 31.355L28.7704 31.9163ZM29.558 30.6701L30.4814 31.3004L30.4814 31.3004L29.558 30.6701ZM29.8188 30.2974L28.9109 29.6448L28.9109 29.6448L29.8188 30.2974ZM29.8941 30.1935L28.9944 29.5298L28.993 29.5318L29.8941 30.1935ZM29.9154 30.1648L29.018 29.4978L29.0156 29.5011L29.9154 30.1648ZM29.9215 30.1565L29.0253 29.4881L29.0242 29.4896L29.9215 30.1565ZM29.9234 30.1539L29.0279 29.4846L29.0272 29.4855L29.9234 30.1539ZM29.9241 30.1531L30.8196 30.8224L30.8197 30.8223L29.9241 30.1531ZM29.9243 30.1527L29.0295 29.4824L29.0287 29.4835L29.9243 30.1527ZM31.4928 31.803L30.5518 32.4068L30.5518 32.4068L31.4928 31.803ZM32.9842 35.3884L34.1022 35.4041L34.1023 35.3963V35.3884H32.9842ZM32.0304 37.1778L32.6625 38.1L32.6625 38.1L32.0304 37.1778ZM29.5843 37.1691L28.9477 38.0882L28.9477 38.0882L29.5843 37.1691ZM30.1485 31.8042L31.0903 32.4066L31.0903 32.4066L30.1485 31.8042ZM32.5345 38.1841L32.1349 37.1399L32.1349 37.1399L32.5345 38.1841ZM31.5034 24.4596L30.5828 25.0939L30.5828 25.0939L31.5034 24.4596ZM30.8196 23.5L31.7132 22.828L30.8184 21.6381L29.9252 22.8292L30.8196 23.5ZM30.1368 24.4603L31.0581 25.0938L31.0581 25.0938L30.1368 24.4603ZM29.0765 38.1732L28.6703 39.2149L28.6703 39.2149L29.0765 38.1732ZM30.8209 33.4105L31.7024 32.7228L30.8197 31.5913L29.9384 32.7239L30.8209 33.4105ZM31.0403 29.2567L30.1471 29.9293L31.4921 31.7156L32.3853 31.0431L31.0403 29.2567ZM29.9238 29.6327L30.8196 30.8224L32.606 29.4774L31.7102 28.2877L29.9238 29.6327ZM30.8196 30.8224L31.7121 29.6302L29.9219 28.2902L29.0295 29.4824L30.8196 30.8224ZM31.4896 29.9274L30.5945 29.2574L29.2545 31.0475L30.1496 31.7175L31.4896 29.9274ZM31.4921 31.7156C31.9388 31.3793 32.1619 31.2114 32.2733 31.1276C32.3293 31.0855 32.3564 31.0651 32.3694 31.0554C32.3768 31.0498 32.377 31.0497 32.3747 31.0514C32.3739 31.052 32.3716 31.0537 32.3685 31.0559C32.3665 31.0574 32.3585 31.0631 32.348 31.0704C32.3429 31.074 32.3321 31.0813 32.3182 31.0903C32.3088 31.0963 32.2755 31.1178 32.2304 31.1413C32.2077 31.1532 32.1635 31.1754 32.1052 31.1972C32.0552 31.2159 31.9365 31.2571 31.7783 31.2663C31.5932 31.2772 31.3487 31.2438 31.1123 31.0932C31.0069 31.026 30.9325 30.9538 30.8856 30.9021C30.8682 30.8826 30.8431 30.8525 30.8349 30.8423C30.8269 30.8319 30.8189 30.8215 30.8189 30.8215L32.6071 29.4789C32.6071 29.4789 32.5992 29.4685 32.5911 29.4581C32.5829 29.4479 32.5578 29.4178 32.5404 29.3983C32.4935 29.3466 32.4191 29.2744 32.3137 29.2072C32.0773 29.0566 31.8328 29.0232 31.6477 29.034C31.4895 29.0433 31.3708 29.0845 31.3207 29.1032C31.2625 29.125 31.2182 29.1473 31.1955 29.1591C31.1505 29.1826 31.117 29.2041 31.1076 29.2102C31.0936 29.2192 31.0828 29.2266 31.0775 29.2303C31.0668 29.2377 31.0585 29.2437 31.056 29.2455C31.0524 29.2481 31.0495 29.2503 31.0477 29.2515C31.042 29.2558 31.0351 29.2609 31.0286 29.2658C31.0136 29.277 30.9848 29.2987 30.9291 29.3406C30.8172 29.4248 30.5937 29.593 30.1471 29.9293L31.4921 31.7156ZM30.82 30.823L30.8203 30.8233L32.6062 29.4777L32.606 29.4774L30.82 30.823ZM30.8194 30.8221L30.8201 30.823L32.6078 29.4798L32.6071 29.4789L30.8194 30.8221ZM30.8196 30.8224L30.8215 30.825L32.6102 29.483L32.6083 29.4804L30.8196 30.8224ZM30.8204 30.8234L30.8265 30.8317L32.6176 29.4929L32.6114 29.4846L30.8204 30.8234ZM30.8241 30.8284L30.8454 30.8571L32.6413 29.5248L32.62 29.4961L30.8241 30.8284ZM30.8439 30.8551C30.8598 30.8766 30.883 30.9083 30.9126 30.9493L32.7251 29.6396C32.6907 29.5921 32.6629 29.5541 32.6427 29.5268L30.8439 30.8551ZM30.9126 30.9493C30.9718 31.0312 31.0564 31.1501 31.1578 31.2981L33.002 30.0335C32.889 29.8686 32.7937 29.7346 32.7251 29.6396L30.9126 30.9493ZM31.1578 31.2981C31.3608 31.594 31.6313 32.0062 31.9019 32.4713L33.8347 31.3467C33.5289 30.8212 33.2266 30.361 33.002 30.0335L31.1578 31.2981ZM31.9019 32.4713C32.1725 32.9363 32.4431 33.4542 32.646 33.9615L34.7222 33.1311C34.4645 32.4869 34.1369 31.8662 33.8347 31.3467L31.9019 32.4713ZM32.646 33.9615C32.8486 34.468 32.984 34.9646 32.9842 35.3875L35.2203 35.3865C35.22 34.5458 34.9655 33.7395 34.7222 33.1311L32.646 33.9615ZM35.093 35.9053C35.4417 35.2387 35.6392 34.4807 35.6392 33.6804H33.4031C33.4031 34.1094 33.2978 34.5128 33.1116 34.8688L35.093 35.9053ZM35.6392 33.6804C35.6392 32.7374 35.3379 31.6296 34.8862 30.4987L32.8096 31.3282C33.2212 32.3587 33.4031 33.1562 33.4031 33.6804H35.6392ZM34.8862 30.4987C34.4343 29.3676 33.8319 28.2129 33.2294 27.176L31.296 28.2994C31.8669 29.2819 32.4124 30.3338 32.8096 31.3282L34.8862 30.4987ZM33.2294 27.176C32.7015 26.2674 32.1737 25.4495 31.7475 24.8177L29.8936 26.068C30.2995 26.6697 30.7991 27.4443 31.296 28.2994L33.2294 27.176ZM29.8931 24.8184C29.4667 25.4518 28.9383 26.2718 28.4098 27.1824L30.3437 28.3049C30.8414 27.4476 31.3418 26.6706 31.748 26.0672L29.8931 24.8184ZM28.4098 27.1824C27.8074 28.2202 27.2049 29.3755 26.7531 30.5059L28.8294 31.3359C29.2268 30.3417 29.7726 29.2888 30.3437 28.3049L28.4098 27.1824ZM26.7531 30.5059C26.3014 31.636 26 32.7416 26 33.6804H28.2361C28.2361 33.1614 28.4174 32.3667 28.8294 31.3359L26.7531 30.5059ZM26 33.6804C26 34.4807 26.1976 35.2387 26.5463 35.9053L28.5276 34.8688C28.3414 34.5128 28.2361 34.1094 28.2361 33.6804H26ZM28.655 35.3875C28.6552 34.9688 28.7907 34.4743 28.9932 33.9687L26.9175 33.1371C26.6751 33.7421 26.4193 34.5477 26.4189 35.3865L28.655 35.3875ZM28.9932 33.9687C29.1962 33.4621 29.4668 32.9437 29.7373 32.4776L27.8034 31.355C27.5018 31.8746 27.1748 32.495 26.9175 33.1371L28.9932 33.9687ZM29.7373 32.4776C30.0079 32.0115 30.2785 31.5977 30.4814 31.3004L28.6346 30.0397C28.4104 30.368 28.1086 30.8292 27.8034 31.355L29.7373 32.4776ZM30.4814 31.3004C30.5829 31.1518 30.6674 31.0323 30.7266 30.95L28.9109 29.6448C28.8425 29.74 28.7474 29.8744 28.6346 30.0397L30.4814 31.3004ZM30.7266 30.95C30.7562 30.9088 30.7795 30.8769 30.7953 30.8553L28.993 29.5318C28.9729 29.5591 28.9452 29.5971 28.9109 29.6448L30.7266 30.95ZM30.7939 30.8573L30.8151 30.8285L29.0156 29.5011L28.9944 29.5298L30.7939 30.8573ZM30.8127 30.8317L30.8189 30.8235L29.0242 29.4896L29.018 29.4978L30.8127 30.8317ZM30.8177 30.8249L30.8197 30.8224L29.0272 29.4855L29.0253 29.4881L30.8177 30.8249ZM30.819 30.8233L30.8196 30.8224L29.0285 29.4837L29.0279 29.4846L30.819 30.8233ZM30.8197 30.8223L30.82 30.822L29.0287 29.4835L29.0284 29.4838L30.8197 30.8223ZM30.8191 30.8231C30.8353 30.8014 30.7219 30.9712 30.5219 31.0977C30.2831 31.2487 30.0375 31.2801 29.8544 31.2686C29.6976 31.2588 29.5801 31.2178 29.5309 31.1993C29.4734 31.1776 29.4298 31.1558 29.4074 31.1441C29.363 31.1209 29.3301 31.0998 29.3208 31.0938C29.3071 31.0851 29.2965 31.0778 29.2914 31.0743C29.281 31.0672 29.2731 31.0615 29.2712 31.0601C29.2681 31.0579 29.2659 31.0563 29.2651 31.0557C29.2629 31.054 29.263 31.0542 29.2705 31.0597C29.2835 31.0694 29.3107 31.0897 29.3668 31.1317C29.4785 31.2152 29.7021 31.3825 30.1496 31.7175L31.4896 29.9274C31.0421 29.5924 30.8181 29.4248 30.706 29.3409C30.6501 29.2991 30.6213 29.2776 30.6063 29.2664C30.5998 29.2616 30.5929 29.2565 30.5872 29.2523C30.5855 29.251 30.5826 29.2489 30.579 29.2463C30.5766 29.2446 30.5684 29.2387 30.5578 29.2314C30.5526 29.2278 30.5419 29.2205 30.5281 29.2117C30.5188 29.2057 30.4858 29.1845 30.4413 29.1614C30.4189 29.1497 30.3753 29.1278 30.3178 29.1062C30.2686 29.0877 30.1511 29.0467 29.9943 29.0368C29.8112 29.0254 29.5656 29.0567 29.3268 29.2077C29.1268 29.3342 29.0133 29.504 29.0295 29.4824L30.8191 30.8231ZM32.4339 31.1993C32.2359 30.8906 32.0581 30.6317 31.9291 30.4489C31.8645 30.3574 31.8119 30.2845 31.7747 30.2337C31.7561 30.2082 31.7414 30.1883 31.7309 30.1742C31.7257 30.1671 31.7215 30.1616 31.7185 30.1575C31.717 30.1555 31.7157 30.1538 31.7148 30.1526C31.7143 30.1519 31.7139 30.1514 31.7136 30.1509C31.7134 30.1507 31.7133 30.1505 31.7131 30.1504C31.7131 30.1503 31.713 30.1502 31.713 30.1501C31.7129 30.1501 31.7129 30.15 31.7129 30.15C31.7128 30.15 31.7128 30.1499 30.8196 30.8224C29.9264 31.4949 29.9264 31.4949 29.9264 31.4949C29.9264 31.4948 29.9263 31.4948 29.9263 31.4948C29.9263 31.4947 29.9262 31.4947 29.9262 31.4947C29.9262 31.4946 29.9261 31.4945 29.9261 31.4945C29.9261 31.4944 29.9261 31.4945 29.9262 31.4946C29.9264 31.4949 29.9269 31.4955 29.9276 31.4966C29.9291 31.4986 29.9318 31.5021 29.9354 31.507C29.9427 31.5169 29.9542 31.5324 29.9694 31.5532C29.9999 31.5949 30.0452 31.6576 30.1021 31.7381C30.2159 31.8995 30.3748 32.1308 30.5518 32.4068L32.4339 31.1993ZM34.1023 35.3884C34.1023 34.6069 33.8025 33.7768 33.493 33.1021C33.1694 32.3967 32.7664 31.7176 32.4339 31.1993L30.5518 32.4068C30.8547 32.8789 31.1973 33.4607 31.4606 34.0345C31.7379 34.639 31.8662 35.1064 31.8662 35.3884H34.1023ZM32.6625 38.1C33.5205 37.5119 34.0864 36.5238 34.1022 35.4041L31.8663 35.3726C31.861 35.7449 31.6748 36.066 31.3983 36.2556L32.6625 38.1ZM30.8196 38.671C31.5015 38.671 32.1374 38.4599 32.6625 38.1L31.3983 36.2556C31.232 36.3696 31.0343 36.4349 30.8196 36.4349V38.671ZM28.9477 38.0882C29.4799 38.4569 30.1265 38.671 30.8196 38.671V36.4349C30.5924 36.4349 30.3882 36.3659 30.221 36.2501L28.9477 38.0882ZM27.537 35.3884C27.537 36.5078 28.0936 37.4965 28.9477 38.0882L30.221 36.2501C29.9497 36.0621 29.7731 35.75 29.7731 35.3884H27.537ZM29.2066 31.2018C28.8743 31.7214 28.4711 32.4021 28.1473 33.1072C27.8381 33.7805 27.537 34.6104 27.537 35.3884H29.7731C29.7731 35.1124 29.9008 34.6471 30.1794 34.0403C30.4435 33.4653 30.787 32.8808 31.0903 32.4066L29.2066 31.2018ZM30.8196 30.8224C29.9245 30.1524 29.9245 30.1525 29.9245 30.1525C29.9245 30.1526 29.9244 30.1526 29.9244 30.1526C29.9243 30.1527 29.9243 30.1528 29.9242 30.1529C29.9241 30.153 29.9239 30.1532 29.9238 30.1535C29.9235 30.1539 29.9231 30.1544 29.9226 30.1551C29.9217 30.1563 29.9204 30.158 29.9189 30.16C29.9159 30.164 29.9118 30.1696 29.9066 30.1766C29.8962 30.1907 29.8815 30.2107 29.863 30.2361C29.8261 30.287 29.7737 30.3598 29.7094 30.4514C29.5809 30.6343 29.4039 30.8933 29.2066 31.2018L31.0903 32.4066C31.2671 32.1303 31.4256 31.8984 31.5393 31.7366C31.596 31.6558 31.6412 31.5929 31.6717 31.5511C31.6869 31.5302 31.6983 31.5145 31.7057 31.5046C31.7093 31.4997 31.7119 31.4961 31.7135 31.4941C31.7142 31.4931 31.7147 31.4924 31.7149 31.4921C31.715 31.492 31.7151 31.4919 31.715 31.492C31.715 31.492 31.715 31.4921 31.7149 31.4921C31.7149 31.4922 31.7148 31.4922 31.7148 31.4923C31.7148 31.4923 31.7148 31.4923 31.7148 31.4923C31.7147 31.4924 31.7147 31.4924 30.8196 30.8224ZM32.1349 37.1399C31.7269 37.296 31.284 37.3819 30.8196 37.3819V39.6181C31.5622 39.6181 32.2757 39.4803 32.9341 39.2283L32.1349 37.1399ZM34.5212 33.6804C34.5212 35.2515 33.5307 36.6058 32.1349 37.1399L32.9341 39.2283C35.163 38.3754 36.7573 36.2123 36.7573 33.6804H34.5212ZM30.5828 25.0939C31.2342 26.0394 32.2376 27.5798 33.0737 29.2221C33.9331 30.9101 34.5212 32.5274 34.5212 33.6804H36.7573C36.7573 31.956 35.9424 29.9281 35.0664 28.2075C34.1672 26.4413 33.1027 24.81 32.4241 23.8252L30.5828 25.0939ZM30.8196 23.5C29.926 24.172 29.926 24.1719 29.926 24.1719C29.926 24.1719 29.926 24.1719 29.9259 24.1719C29.9259 24.1718 29.9259 24.1718 29.9259 24.1718C29.9259 24.1718 29.9259 24.1717 29.9259 24.1718C29.9259 24.1718 29.926 24.1719 29.9261 24.1721C29.9264 24.1725 29.9269 24.1732 29.9277 24.1743C29.9293 24.1764 29.932 24.1799 29.9356 24.1848C29.9428 24.1945 29.954 24.2095 29.9689 24.2297C29.9987 24.2701 30.0433 24.3309 30.1007 24.4102C30.2156 24.5691 30.3816 24.8019 30.5828 25.0939L32.4241 23.8252C32.2122 23.5176 32.0363 23.2707 31.9125 23.0997C31.8506 23.0141 31.8017 22.9474 31.7678 22.9015C31.7509 22.8786 31.7377 22.8608 31.7285 22.8485C31.7239 22.8424 31.7203 22.8375 31.7178 22.8341C31.7165 22.8324 31.7155 22.831 31.7147 22.83C31.7143 22.8295 31.714 22.8291 31.7138 22.8288C31.7136 22.8286 31.7135 22.8285 31.7134 22.8283C31.7134 22.8283 31.7134 22.8282 31.7133 22.8282C31.7133 22.8281 31.7133 22.8281 31.7133 22.8281C31.7132 22.8281 31.7132 22.828 30.8196 23.5ZM31.0581 25.0938C31.259 24.8016 31.4248 24.5685 31.5395 24.4095C31.5969 24.33 31.6414 24.2691 31.6712 24.2287C31.6861 24.2085 31.6973 24.1934 31.7045 24.1837C31.7081 24.1788 31.7107 24.1753 31.7123 24.1731C31.7131 24.1721 31.7137 24.1713 31.714 24.171C31.7141 24.1708 31.7142 24.1707 31.7142 24.1706C31.7142 24.1706 31.7142 24.1706 31.7142 24.1707C31.7142 24.1707 31.7142 24.1707 31.7141 24.1707C31.7141 24.1707 31.7141 24.1708 31.7141 24.1708C31.7141 24.1708 31.7141 24.1708 30.8196 23.5C29.9252 22.8292 29.9251 22.8292 29.9251 22.8292C29.9251 22.8292 29.9251 22.8293 29.9251 22.8293C29.925 22.8293 29.925 22.8294 29.9249 22.8295C29.9249 22.8296 29.9247 22.8297 29.9246 22.8299C29.9244 22.8302 29.9241 22.8306 29.9237 22.8312C29.9229 22.8322 29.9219 22.8335 29.9206 22.8352C29.9181 22.8387 29.9145 22.8435 29.9099 22.8496C29.9007 22.862 29.8876 22.8797 29.8707 22.9027C29.8369 22.9486 29.7881 23.0153 29.7263 23.1009C29.6028 23.272 29.4272 23.519 29.2156 23.8267L31.0581 25.0938ZM27.1181 33.6804C27.1181 32.5339 27.706 30.918 28.5662 29.2281C29.4029 27.5845 30.4067 26.041 31.0581 25.0938L29.2156 23.8267C28.5374 24.8129 27.4728 26.4468 26.5734 28.2137C25.6976 29.9342 24.8819 31.9617 24.8819 33.6804H27.1181ZM29.4827 37.1315C28.0981 36.5916 27.1181 35.2433 27.1181 33.6804H24.8819C24.8819 36.1991 26.4597 38.3529 28.6703 39.2149L29.4827 37.1315ZM30.8196 37.3819C30.347 37.3819 29.8967 37.293 29.4827 37.1315L28.6703 39.2149C29.3383 39.4753 30.0638 39.6181 30.8196 39.6181V37.3819ZM30.8209 33.4105C29.9384 32.7239 29.9383 32.7241 29.9382 32.7242C29.9382 32.7242 29.9381 32.7244 29.938 32.7245C29.9379 32.7247 29.9377 32.7249 29.9375 32.7252C29.9371 32.7257 29.9366 32.7262 29.9361 32.7269C29.9351 32.7282 29.9338 32.7299 29.9323 32.7319C29.9292 32.7359 29.9251 32.7412 29.92 32.7478C29.91 32.761 29.8961 32.7793 29.879 32.8022C29.8449 32.8479 29.7976 32.9123 29.7414 32.9916C29.6298 33.1489 29.4795 33.3701 29.3273 33.6228C29.1771 33.8723 29.0133 34.1718 28.8841 34.4835C28.7627 34.7761 28.6314 35.1734 28.6314 35.592H30.8675C30.8675 35.6084 30.87 35.5319 30.9496 35.34C31.0213 35.1672 31.1253 34.9717 31.2429 34.7763C31.3586 34.5842 31.4762 34.4109 31.5655 34.2849C31.6098 34.2225 31.6461 34.1731 31.6706 34.1403C31.6828 34.124 31.692 34.1119 31.6976 34.1045C31.7004 34.1008 31.7023 34.0983 31.7033 34.097C31.7038 34.0964 31.704 34.0961 31.704 34.0961C31.704 34.0961 31.704 34.0962 31.7038 34.0964C31.7038 34.0964 31.7037 34.0965 31.7036 34.0967C31.7036 34.0967 31.7035 34.0968 31.7034 34.0969C31.7034 34.097 31.7033 34.0971 30.8209 33.4105ZM33.0103 35.592C33.0103 35.173 32.8793 34.7756 32.7578 34.4822C32.6284 34.1701 32.4645 33.8705 32.3141 33.621C32.1618 33.3684 32.0114 33.1474 31.8997 32.9902C31.8435 32.911 31.7961 32.8467 31.7619 32.801C31.7448 32.7782 31.7309 32.7599 31.7208 32.7467C31.7158 32.7401 31.7117 32.7348 31.7086 32.7308C31.7071 32.7288 31.7058 32.7271 31.7047 32.7258C31.7042 32.7251 31.7037 32.7245 31.7034 32.724C31.7032 32.7238 31.703 32.7236 31.7028 32.7234C31.7027 32.7233 31.7026 32.7231 31.7026 32.7231C31.7025 32.7229 31.7024 32.7228 30.8209 33.4105C29.9393 34.0982 29.9392 34.0981 29.9391 34.098C29.9391 34.098 29.939 34.0978 29.939 34.0978C29.9389 34.0977 29.9388 34.0976 29.9387 34.0975C29.9386 34.0973 29.9385 34.0972 29.9385 34.0972C29.9385 34.0972 29.9388 34.0975 29.9393 34.0981C29.9402 34.0994 29.9421 34.1019 29.9449 34.1055C29.9505 34.1129 29.9597 34.1249 29.9719 34.1412C29.9963 34.1738 30.0326 34.223 30.0768 34.2853C30.1661 34.4109 30.2835 34.5837 30.399 34.7754C30.5165 34.9703 30.6204 35.1656 30.692 35.3383C30.7713 35.5297 30.7742 35.6069 30.7742 35.592H33.0103ZM30.8209 37.7428C31.9895 37.7428 33.0103 36.8168 33.0103 35.592H30.7742C30.7742 35.575 30.7781 35.5576 30.7845 35.5431C30.7905 35.5295 30.7973 35.5213 30.802 35.5168C30.8066 35.5123 30.8108 35.5099 30.8142 35.5085C30.8183 35.5069 30.8211 35.5067 30.8209 35.5067V37.7428ZM28.6314 35.592C28.6314 36.8168 29.6522 37.7428 30.8209 37.7428V35.5067C30.8207 35.5067 30.8235 35.5069 30.8275 35.5085C30.8309 35.5099 30.8351 35.5123 30.8397 35.5168C30.8444 35.5213 30.8512 35.5295 30.8572 35.5431C30.8636 35.5576 30.8675 35.575 30.8675 35.592H28.6314Z" fill="#FC8738" mask="url(#path-3-inside-1-172889)"/>
</g>
<defs>
<filter id="filter0_d-676739" x="0" y="0" width="62" height="62" filterUnits="userSpaceOnUse" color-interpolation-filters="sRGB">
<feFlood flood-opacity="0" result="BackgroundImageFix"/>
<feColorMatrix in="SourceAlpha" type="matrix" values="0 0 0 0 0 0 0 0 0 0 0 0 0 0 0 0 0 0 127 0"/>
<feOffset/>
<feGaussianBlur stdDeviation="7.5"/>
<feColorMatrix type="matrix" values="0 0 0 0 0.988235 0 0 0 0 0.529412 0 0 0 0 0.219608 0 0 0 0.6 0"/>
<feBlend mode="normal" in2="BackgroundImageFix" result="effect1_dropShadow"/>
<feBlend mode="normal" in="SourceGraphic" in2="effect1_dropShadow" result="shape"/>
</filter>
<filter id="filter1_d-490688" x="6" y="6" width="50" height="50" filterUnits="userSpaceOnUse" color-interpolation-filters="sRGB">
<feFlood flood-opacity="0" result="BackgroundImageFix"/>
<feColorMatrix in="SourceAlpha" type="matrix" values="0 0 0 0 0 0 0 0 0 0 0 0 0 0 0 0 0 0 127 0"/>
<feOffset/>
<feGaussianBlur stdDeviation="7.5"/>
<feColorMatrix type="matrix" values="0 0 0 0 0.988235 0 0 0 0 0.529412 0 0 0 0 0.219608 0 0 0 0.6 0"/>
<feBlend mode="normal" in2="BackgroundImageFix" result="effect1_dropShadow"/>
<feBlend mode="normal" in="SourceGraphic" in2="effect1_dropShadow" result="shape"/>
</filter>
</defs>
</svg>