<svg width="32" height="32" fill="none" xmlns="http://www.w3.org/2000/svg">
    <path fill-rule="evenodd" clip-rule="evenodd" d="m14 11 .75-.75a1.06 1.06 0 0 0-1.5-1.5l-2.543 2.543a1 1 0 0 0 0 1.414l2.543 2.543a1.06 1.06 0 0 0 1.5-1.5L14 13h7a1 1 0 1 0 0-2h-7Z" fill="url(#a)"/>
    <path fill-rule="evenodd" clip-rule="evenodd" d="m18.414 18.56-.75-.75a1.06 1.06 0 0 1 1.5-1.5l2.543 2.544a1 1 0 0 1 0 1.414l-2.543 2.543a1.06 1.06 0 0 1-1.5-1.5l.75-.75h-7a1 1 0 0 1 0-2h7Z" fill="url(#b)"/>
    <circle cx="16" cy="16" r="15" stroke="url(#c)" stroke-width="2"/>
    <defs>
        <linearGradient id="a" x1="16.207" y1="8.439" x2="16.207" y2="15.561" gradientUnits="userSpaceOnUse">
            <stop stop-color="#BE9461"/>
            <stop offset="1" stop-color="#9C6C3C"/>
        </linearGradient>
        <linearGradient id="b" x1="16.207" y1="16" x2="16.207" y2="23.121" gradientUnits="userSpaceOnUse">
            <stop stop-color="#BE9461"/>
            <stop offset="1" stop-color="#9C6C3C"/>
        </linearGradient>
        <linearGradient id="c" x1="16" y1="0" x2="16" y2="32" gradientUnits="userSpaceOnUse">
            <stop stop-color="#BE9461"/>
            <stop offset="1" stop-color="#9C6C3C"/>
        </linearGradient>
    </defs>
</svg>
