<svg viewBox="0 0 18 18" fill="none" xmlns="http://www.w3.org/2000/svg">
    <path fill-rule="evenodd" clip-rule="evenodd" d="M9 12.274A3.273 3.273 0 119 5.73a3.273 3.273 0 010 6.545zm1.636-3.273a1.636 1.636 0 11-3.272 0 1.636 1.636 0 013.272 0z" fill="currentColor"/>
    <path fill-rule="evenodd" clip-rule="evenodd" d="M14.024 16.163c.26.072.54-.001.732-.193l1.195-1.195a.75.75 0 00.193-.73l-.454-1.65a.75.75 0 01.031-.49l.08-.188a.75.75 0 01.322-.363l1.496-.844A.75.75 0 0018 9.857V8.166a.75.75 0 00-.38-.652l-1.49-.847a.75.75 0 01-.323-.367l-.077-.186a.75.75 0 01-.029-.487l.46-1.652a.75.75 0 00-.193-.732l-1.196-1.195a.75.75 0 00-.73-.192l-1.65.454a.75.75 0 01-.489-.031l-.187-.079a.75.75 0 01-.364-.323L10.51.381A.75.75 0 009.855 0h-1.69a.75.75 0 00-.653.38l-.847 1.49a.75.75 0 01-.366.323l-.186.077a.75.75 0 01-.487.029l-1.651-.46a.75.75 0 00-.732.191L2.049 3.225a.75.75 0 00-.193.729l.454 1.651a.75.75 0 01-.031.489l-.079.187a.75.75 0 01-.323.363l-1.496.844A.75.75 0 000 8.142v1.69c0 .27.145.519.379.652l1.49.85a.75.75 0 01.322.365l.077.188a.75.75 0 01.03.487l-.46 1.651a.75.75 0 00.191.732l1.195 1.195c.191.19.47.264.73.193l1.65-.454a.75.75 0 01.49.031l.187.079a.75.75 0 01.363.323l.844 1.495a.75.75 0 00.653.381h1.691a.75.75 0 00.652-.379l.848-1.49a.75.75 0 01.366-.322l.188-.077a.75.75 0 01.487-.03l1.651.46zm.807-5.958a.75.75 0 00-.324.364l-.514 1.227a.75.75 0 00-.03.489l.38 1.381a.564.564 0 01-.696.694l-1.378-.384a.75.75 0 00-.487.029l-1.227.506a.75.75 0 00-.366.322l-.71 1.246a.565.565 0 01-.982-.002l-.703-1.245a.75.75 0 00-.363-.323l-1.226-.514a.75.75 0 00-.49-.031l-1.382.38a.563.563 0 01-.692-.694l.384-1.378a.75.75 0 00-.03-.488l-.506-1.227a.75.75 0 00-.321-.366l-1.246-.71a.565.565 0 01.002-.983l1.245-.703a.75.75 0 00.323-.363l.514-1.226a.75.75 0 00.032-.489l-.38-1.384a.562.562 0 01.692-.69l1.379.384a.75.75 0 00.487-.029l1.228-.506a.75.75 0 00.366-.323l.708-1.246a.564.564 0 01.982.001l.703 1.246a.75.75 0 00.363.323l1.226.514a.75.75 0 00.489.032l1.383-.38a.564.564 0 01.693.695l-.383 1.377a.75.75 0 00.029.487l.506 1.228a.75.75 0 00.323.366l1.246.708a.564.564 0 01-.001.982l-1.246.703z" fill="currentColor"/>
</svg>
