<svg width="16" height="16" fill="none" xmlns="http://www.w3.org/2000/svg">
    <g clip-path="url(#a)">
        <path fill-rule="evenodd" clip-rule="evenodd" d="M3.757 3.757a1 1 0 0 0 0 1.415L6.586 8l-2.829 2.828a1 1 0 1 0 1.415 1.415L8 9.414l2.828 2.829a1 1 0 1 0 1.415-1.415L9.414 8l2.829-2.828a1 1 0 1 0-1.415-1.415L8 6.586 5.172 3.757a1 1 0 0 0-1.415 0Z" fill="currentColor"/>
    </g>
    <defs>
        <clipPath id="a">
            <path fill="#fff" d="M0 0h16v16H0z"/>
        </clipPath>
    </defs>
</svg>
