<svg width="14" height="12" viewBox="0 0 14 12" fill="none" xmlns="http://www.w3.org/2000/svg">
<path fill-rule="evenodd" clip-rule="evenodd" d="M8.66663 3.16667C8.66663 4.64 7.47329 5.83333 5.99996 5.83333C4.52663 5.83333 3.33329 4.64 3.33329 3.16667C3.33329 1.69333 4.52663 0.5 5.99996 0.5C7.47329 0.5 8.66663 1.69333 8.66663 3.16667ZM7.33329 3.16667C7.33329 2.43333 6.73329 1.83333 5.99996 1.83333C5.26663 1.83333 4.66663 2.43333 4.66663 3.16667C4.66663 3.9 5.26663 4.5 5.99996 4.5C6.73329 4.5 7.33329 3.9 7.33329 3.16667ZM1.99996 9.83333C2.13329 9.41333 3.71329 8.71333 5.30663 8.54L6.66663 7.20667C6.40663 7.18 6.21329 7.16667 5.99996 7.16667C4.21996 7.16667 0.666626 8.06 0.666626 9.83333V11.1667H6.66663L5.33329 9.83333H1.99996ZM8.97996 9.61333L12.4 6.16667L13.3333 7.10667L8.97996 11.5L6.66663 9.16667L7.59996 8.22667L8.97996 9.61333Z" fill="#828295"/>
</svg>
