<svg viewBox="0 0 14 12" fill="none" xmlns="http://www.w3.org/2000/svg">
    <path fill-rule="evenodd" clip-rule="evenodd" d="M8.667 3.167a2.666 2.666 0 11-5.334 0 2.666 2.666 0 115.334 0zm-1.334 0c0-.734-.6-1.334-1.333-1.334s-1.333.6-1.333 1.334C4.667 3.9 5.267 4.5 6 4.5s1.333-.6 1.333-1.333zM2 9.833c.133-.42 1.713-1.12 3.307-1.293l1.36-1.333A6.226 6.226 0 006 7.167c-1.78 0-5.333.893-5.333 2.666v1.334h6L5.333 9.833H2zm6.98-.22l3.42-3.446.933.94L8.98 11.5 6.667 9.167l.933-.94 1.38 1.386z" fill="#828295"/>
</svg>
