<svg viewBox="0 0 14 14" fill="none" xmlns="http://www.w3.org/2000/svg">
    <circle cx="7" cy="7" r="7" fill="#FF1E39"/>
    <path d="M8.066 7l1.59-1.59a.476.476 0 00.144-.35.53.53 0 00-.143-.367l-.35-.35A.53.53 0 008.94 4.2a.476.476 0 00-.35.143L7 5.934l-1.59-1.59a.476.476 0 00-.35-.144.53.53 0 00-.367.143l-.35.35a.531.531 0 00-.143.366c0 .138.048.255.143.35L5.934 7l-1.59 1.591a.476.476 0 00-.144.35c0 .138.048.26.143.366l.35.35a.53.53 0 00.366.143.476.476 0 00.35-.143L7 8.067l1.59 1.59a.476.476 0 00.35.143.53.53 0 00.367-.143l.35-.35a.53.53 0 00.143-.366.476.476 0 00-.143-.35l-1.591-1.59z" fill="#fff"/>
</svg>
