<svg viewBox="0 0 78 78" fill="none" xmlns="http://www.w3.org/2000/svg">
    <g filter="url(#filter0_d)">
        <path fill-rule="evenodd" clip-rule="evenodd" d="M39 61c12.15 0 22-9.85 22-22s-9.85-22-22-22-22 9.85-22 22 9.85 22 22 22zm0 2c13.255 0 24-10.745 24-24S52.255 15 39 15 15 25.745 15 39s10.745 24 24 24z" fill="#FF1E39"/>
    </g>
    <path d="M46 33.41L44.59 32 39 37.59 33.41 32 32 33.41 37.59 39 32 44.59 33.41 46 39 40.41 44.59 46 46 44.59 40.41 39 46 33.41z" fill="#FF1E39"/>
    <defs>
        <filter id="filter0_d" x="0" y="0" width="78" height="78" filterUnits="userSpaceOnUse" color-interpolation-filters="sRGB">
            <feFlood flood-opacity="0" result="BackgroundImageFix"/>
            <feColorMatrix in="SourceAlpha" values="0 0 0 0 0 0 0 0 0 0 0 0 0 0 0 0 0 0 127 0"/>
            <feOffset/>
            <feGaussianBlur stdDeviation="7.5"/>
            <feColorMatrix values="0 0 0 0 1 0 0 0 0 0.116667 0 0 0 0 0.222667 0 0 0 0.6 0"/>
            <feBlend in2="BackgroundImageFix" result="effect1_dropShadow"/>
            <feBlend in="SourceGraphic" in2="effect1_dropShadow" result="shape"/>
        </filter>
    </defs>
</svg>
