<svg width="18" height="18" viewBox="0 0 18 18" fill="none" xmlns="http://www.w3.org/2000/svg">
<path fill-rule="evenodd" clip-rule="evenodd" d="M13.2136 0.289023C14.1917 0.293711 15.1651 0.6234 15.9413 1.21871C17.0269 2.05152 17.6999 3.39137 17.7108 4.77184C17.7245 7.58551 17.7147 10.3996 17.7108 13.2136C17.7062 14.1918 17.3765 15.1652 16.7812 15.9414C15.9483 17.0269 14.6085 17.7 13.228 17.7109C10.4144 17.7246 7.60029 17.7148 4.78623 17.7109C3.79053 17.7058 2.80068 17.3648 2.01553 16.748C0.94951 15.9101 0.295215 14.5668 0.288965 13.2136C0.283887 10.4047 0.283887 7.59527 0.288965 4.78628C0.297559 2.94332 1.5292 1.16324 3.31514 0.539801C3.78193 0.376911 4.27607 0.29293 4.77178 0.289023C7.58545 0.275351 10.3995 0.285117 13.2136 0.289023ZM4.80107 0.914023C3.59443 0.915586 2.40029 1.51598 1.67959 2.48551C1.18975 3.1441 0.917871 3.95386 0.913965 4.78824C0.908887 7.60035 0.901074 10.4125 0.913965 13.2242C0.924121 14.4804 1.58037 15.7093 2.61865 16.4152C3.25029 16.8445 4.00537 17.08 4.77568 17.0859C7.5917 17.0996 10.4081 17.0996 13.2241 17.0859C14.4671 17.0761 15.6808 16.4343 16.3886 15.4195C16.8343 14.7808 17.0796 14.0058 17.0858 13.2242C17.0995 10.4082 17.0995 7.59176 17.0858 4.77575C17.0765 3.59098 16.4964 2.43238 15.5608 1.7148C14.8964 1.20504 14.0644 0.920664 13.2241 0.914023C10.4167 0.900351 7.60889 0.914023 4.80107 0.914023ZM4.7667 13.675L8.17685 13.6199L8.18701 14.2445L3.68232 14.3175L3.75537 9.81285C3.96357 9.81598 4.17178 9.81949 4.37998 9.82301L4.3249 13.2332L7.021 10.5367C7.16827 10.6839 7.31591 10.8316 7.46318 10.9789L4.7667 13.675ZM13.2331 4.32496L9.82295 4.38004L9.8128 3.75543L14.3175 3.68239C14.2933 5.18395 14.269 6.6855 14.2444 8.18707L13.6198 8.17691L13.6749 4.76675L10.9788 7.46324L10.5366 7.02106L13.2331 4.32496Z" fill="#828295"/>
</svg>
