<svg viewBox="0 0 28 28" fill="none" xmlns="http://www.w3.org/2000/svg">
    <path d="M13.417 12.717C8.75 12.717 4.2 13.767 0 15.983h26.717c-4.2-2.216-8.634-3.266-13.3-3.266zm6.066 4.55a4.416 4.416 0 00-4.2 3.033 6.255 6.255 0 00-3.266-.117c-.7-1.633-2.217-2.8-4.2-2.8a4.431 4.431 0 00-4.434 4.434 4.431 4.431 0 004.434 4.433 4.431 4.431 0 004.433-4.433v-.467c.933-.233 1.867-.117 2.8.233v.35a4.431 4.431 0 004.433 4.434 4.431 4.431 0 004.434-4.434c0-2.566-1.984-4.666-4.434-4.666zm-8.4 4.55a3.261 3.261 0 01-3.266 3.266 3.261 3.261 0 01-3.267-3.266c0-1.75 1.517-3.267 3.267-3.267 1.4 0 2.566.817 3.033 1.983.117.35.233.7.233 1.284 0-.117 0-.117 0 0zm8.4 3.266a3.261 3.261 0 01-3.266-3.266c0-1.75 1.516-3.267 3.266-3.267s3.267 1.517 3.267 3.267-1.517 3.266-3.267 3.266zm0-22.75L11.55 3.617 7.7 2.333 5.133 10.15H22.05l-2.567-7.817z" fill="#828295"/>
</svg>
