<svg width="558" height="275" viewBox="0 0 558 275" fill="none" xmlns="http://www.w3.org/2000/svg">
<g clip-path="url(#clip0)">
<g filter="url(#filter0_d)">
<rect width="558" height="275" rx="4" transform="matrix(-1 0 0 1 558 0)" fill="url(#paint0_linear)"/>
</g>
<g opacity="0.08">
<path d="M597.928 -92.6635C578.4 -90.8918 558.029 -94.4353 541.491 -85.6993C523.675 -76.2908 514.289 -59.6373 502.826 -46.7788C489.399 -31.7159 476.945 -15.5069 453.15 -9.12732C414.068 1.35125 364.923 -6.78835 324.424 -16.6705C247.477 -35.4524 169.505 -57.351 98.8062 -85.173C54.5012 -102.61 10.1876 -125.269 -39.662 -135.11C-51.6465 -137.478 -64.8041 -139.191 -77.2144 -137.268" stroke="url(#paint1_linear)" stroke-miterlimit="10" stroke-linecap="round"/>
<path d="M599.284 -89.4005C578.739 -87.886 558.464 -90.1957 541.526 -80.5826C504.13 -59.3506 497.586 -15.9628 451.995 -3.64224C413.148 6.85972 363.724 -1.25649 323.599 -11.3667C247.165 -30.6222 170.426 -52.8892 99.7018 -80.3253C55.0145 -97.657 9.55367 -119.503 -40.9217 -128.578C-53.1407 -130.777 -66.4809 -132.321 -79.0215 -130.332" stroke="url(#paint2_linear)" stroke-miterlimit="10" stroke-linecap="round"/>
<path d="M600.9 -86.5237C579.217 -85.1846 559.107 -85.7869 541.63 -75.6183C504.425 -53.9711 496.473 -10.5365 450.682 1.86583C411.913 12.3678 362.524 4.29253 322.782 -6.13927C247.069 -26.0088 171.617 -48.7494 100.814 -75.5598C55.5615 -92.6986 8.8058 -113.603 -42.3648 -121.813C-54.8532 -123.819 -68.4107 -125.175 -81.0903 -123.093" stroke="url(#paint3_linear)" stroke-miterlimit="10" stroke-linecap="round"/>
<path d="M602.716 -83.9627C579.669 -82.6646 559.654 -81.4775 541.656 -70.5604C505.016 -48.3344 494.978 -5.11026 449.196 7.36812C410.575 17.8935 361.299 9.82404 321.939 -1.01707C247.13 -21.6234 173.024 -44.9253 102.082 -70.9229C56.0829 -87.781 7.93663 -107.633 -44.0074 -114.919C-56.7827 -116.708 -70.5747 -117.866 -83.4282 -115.685" stroke="url(#paint4_linear)" stroke-miterlimit="10" stroke-linecap="round"/>
<path d="M604.69 -81.6352C580.095 -80.2494 560.341 -77.2496 541.63 -65.4496C507.919 -44.1942 494.171 1.80743 447.554 12.8766C406.36 22.6593 360.039 15.3617 321.096 4.02359C247.382 -17.4364 174.667 -41.3582 103.543 -66.391C56.6396 -82.8982 7.04208 -101.592 -45.7276 -107.919C-58.807 -109.486 -72.8424 -110.428 -85.8784 -108.142" stroke="url(#paint5_linear)" stroke-miterlimit="10" stroke-linecap="round"/>
<path d="M606.775 -79.4538C580.633 -77.8808 560.905 -72.9105 541.664 -60.4906C524.074 -49.1407 514.497 -34.2766 500.54 -21.0439C485.679 -6.95164 471.313 12.2864 445.754 18.3911C404.63 28.2147 358.735 20.9055 320.235 8.98258C247.781 -13.454 176.526 -38.019 105.167 -61.97C57.2298 -78.0621 6.12005 -95.5108 -47.51 -100.867C-60.8936 -102.2 -75.1723 -102.931 -88.4082 -100.54" stroke="url(#paint6_linear)" stroke-miterlimit="10" stroke-linecap="round"/>
<path d="M608.912 -77.3429C581.58 -75.501 561.288 -68.3788 541.603 -55.4151C523.31 -43.3694 512.889 -27.9088 497.95 -14.068C483.193 -0.390897 468.68 17.9349 443.79 23.911C402.701 33.7697 357.361 26.4605 319.331 13.8651C248.268 -9.67074 178.586 -34.8673 106.932 -57.6605C57.8381 -73.2789 5.21619 -89.4178 -49.309 -93.8092C-62.9881 -94.9085 -77.5101 -95.4231 -90.9546 -92.938" stroke="url(#paint7_linear)" stroke-miterlimit="10" stroke-linecap="round"/>
<path d="M611.06 -75.2142C582.476 -73.0156 561.784 -63.8936 541.552 -50.4036C522.545 -37.7323 511.213 -21.5759 495.3 -7.19708C480.604 6.0824 465.969 23.5779 441.679 29.4253C400.581 39.3308 355.92 32.0216 318.393 18.6719C248.816 -6.08606 180.881 -31.8673 108.844 -53.4677C58.4732 -68.5716 4.39993 -83.3071 -51.0464 -86.798C-64.9949 -87.6751 -79.7517 -87.9791 -93.396 -85.4121" stroke="url(#paint8_linear)" stroke-miterlimit="10" stroke-linecap="round"/>
<path d="M613.163 -72.9925C583.363 -70.367 562.253 -59.3153 541.43 -45.3225C522.241 -32.4231 510.665 -16.2316 494.17 -1.81185C478.979 11.4676 463.927 29.0216 439.419 34.9509C398.286 44.909 354.39 37.6173 317.411 23.4139C249.407 -2.69482 183.41 -28.9906 110.895 -49.3864C59.2205 -63.9231 3.66982 -77.2845 -52.6804 -79.8807C-66.8896 -80.5356 -81.8375 -80.6467 -95.6904 -78.0271" stroke="url(#paint9_linear)" stroke-miterlimit="10" stroke-linecap="round"/>
<path d="M615.179 -70.5951C584.258 -67.4551 562.757 -54.6492 541.265 -40.2061C521.312 -26.798 508.814 -9.9282 491.346 4.95348C476.085 17.9581 460.859 34.5707 437.021 40.4648C396.123 50.575 352.765 43.219 316.395 28.0917C250.033 0.491903 186.191 -26.2015 113.085 -45.4278C60.0812 -59.3681 3.11394 -71.3553 -54.1488 -73.1154C-68.584 -73.5598 -83.697 -73.5072 -97.7324 -70.8524" stroke="url(#paint10_linear)" stroke-miterlimit="10" stroke-linecap="round"/>
<path d="M617.056 -67.9402C585.074 -64.3733 563.174 -49.86 541.048 -35.0368C521.363 -21.8451 509.422 -5.48985 491.763 8.92403C475.372 22.3029 459.451 39.8101 434.483 45.985C393.419 56.1419 351.018 48.856 315.316 32.7172C283.517 18.3442 253.396 2.39247 219.711 -10.0274C186.365 -22.3187 151.124 -32.8265 115.397 -41.586C61.0627 -54.9005 2.75708 -65.5253 -55.4008 -66.531C-70.0185 -66.7825 -85.2532 -66.5895 -99.4624 -63.9406" stroke="url(#paint11_linear)" stroke-miterlimit="10" stroke-linecap="round"/>
<path d="M618.751 -64.9407C585.935 -60.8884 563.678 -44.925 540.796 -29.8503C520.199 -16.2843 507.484 0.75507 488.86 15.6017C472.522 28.6297 456.244 45.4703 431.815 51.5165C390.534 61.7261 349.141 54.5338 314.178 37.3073C283.674 22.2736 254.864 5.77799 221.927 -6.89921C189.05 -19.5589 153.679 -29.6632 117.83 -37.8437C62.1925 -50.5443 2.64418 -59.8476 -56.3827 -60.1867C-71.1395 -60.2686 -86.4437 -59.9587 -100.792 -57.3683" stroke="url(#paint12_linear)" stroke-miterlimit="10" stroke-linecap="round"/>
<path d="M620.202 -61.5261C586.96 -57.0703 563.904 -40.107 540.587 -24.8511C519.651 -11.1564 506.754 6.05254 487.591 20.9401C470.74 34.0266 453.759 50.9139 429.008 57.0362C387.475 67.3159 347.089 60.2347 312.961 41.8387C283.821 26.1326 256.359 9.08735 224.186 -3.87637C191.805 -16.9278 156.303 -26.6111 120.359 -34.2479C63.4786 -46.3286 2.80913 -54.3688 -57.0521 -54.1466C-71.8957 -54.094 -87.2087 -53.6964 -101.67 -51.2171" stroke="url(#paint13_linear)" stroke-miterlimit="10" stroke-linecap="round"/>
<path d="M621.366 -57.6027C588.038 -52.8019 563.869 -35.0141 540.326 -19.7757C519.582 -6.3559 507.189 10.4964 488.008 24.9395C470.106 38.4236 451.942 56.1179 426.088 62.5559C410.662 66.3976 393.793 67.3508 377.255 66.9356C351.122 66.2807 333.245 58.9948 313.717 47.5631C285.568 31.091 259.453 13.2271 227.862 -0.39154C195.759 -14.2265 159.45 -23.4888 123.036 -30.7396C64.591 -42.376 2.35728 -49.2292 -58.7293 -48.4164C-73.1384 -48.2234 -87.8691 -47.7673 -101.965 -45.5277" stroke="url(#paint14_linear)" stroke-miterlimit="10" stroke-linecap="round"/>
<path d="M622.218 -53.1353C588.811 -47.3639 564.26 -30.0964 540.013 -14.6885C518.321 -0.900266 505.164 16.6303 484.984 31.5061C466.847 44.8792 448.64 61.6437 422.898 68.0817C407.42 71.9527 390.473 72.9234 373.865 72.5024C347.732 71.8475 330.873 64.0879 312.231 52.0832C285.586 34.9152 260.93 16.49 230.113 2.52049C198.601 -11.7589 162.178 -20.6061 125.773 -27.3891C66.3638 -38.4641 3.25226 -44.2472 -58.4688 -43.1011C-72.8344 -42.8321 -87.539 -42.3409 -101.548 -40.0136" stroke="url(#paint15_linear)" stroke-miterlimit="10" stroke-linecap="round"/>
<path d="M622.791 -48.1762C589.445 -41.6739 564.503 -24.962 539.656 -9.53648C517.504 4.21665 504.259 21.9694 483.558 36.8277C464.769 50.3177 445.849 67.0881 419.586 73.6196C403.995 77.4965 387.005 78.5139 370.275 78.0929C344.125 77.4263 328.317 69.1698 310.649 56.6037C285.55 38.7574 262.372 19.7591 232.337 5.42708C201.468 -9.30257 164.95 -17.7696 128.614 -24.1433C68.6661 -34.6628 4.8159 -39.715 -57.1832 -37.8321C-71.5923 -37.3936 -86.3404 -36.727 -100.358 -34.271" stroke="url(#paint16_linear)" stroke-miterlimit="10" stroke-linecap="round"/>
<path d="M623.113 -42.7961C589.932 -35.7617 564.607 -19.6638 539.265 -4.36691C516.609 9.30435 503.304 27.3027 482.09 42.1259C462.623 55.727 442.973 72.5149 416.171 79.14C401.24 82.8298 384.937 84.0226 368.894 83.7478C339.945 83.2508 325.423 74.2516 307.155 59.6681C284.768 41.8043 263.641 23.1627 235.718 8.9535C205.171 -6.59478 168.001 -14.9332 131.126 -20.9561C71.2476 -30.7388 7.78847 -34.984 -53.8022 -32.5047C-68.7154 -31.9024 -84.0022 -31.0721 -98.4722 -28.394" stroke="url(#paint17_linear)" stroke-miterlimit="10" stroke-linecap="round"/>
<path d="M623.209 -37.0372C590.289 -29.6285 564.6 -14.2205 538.832 0.830712C516.28 14.0049 503.617 31.8513 482.412 46.1657C461.633 60.1995 440.758 77.7535 412.635 84.6534C397.287 88.4192 380.54 89.6647 364.08 89.3021C336.8 88.6999 323.025 79.5253 306.991 65.4622C285.829 46.8967 266.406 27.3137 239.117 12.4262C209.013 -4.00509 170.896 -11.8699 133.665 -17.6296C73.1518 -26.9913 8.91046 -30.3302 -53.0452 -26.9036C-67.4283 -26.1083 -82.1068 -25.0734 -96.0205 -22.3601" stroke="url(#paint18_linear)" stroke-miterlimit="10" stroke-linecap="round"/>
<path d="M623.122 -30.9554C590.532 -23.3596 564.46 -8.65924 538.379 6.04116C515.297 19.0517 502.591 37.1904 480.899 51.4581C459.381 65.6088 437.68 83.2446 408.993 90.1797C393.488 93.9279 376.637 95.2669 359.969 94.8927C332.567 94.2787 319.861 84.5311 305.009 69.9418C285.498 50.7739 267.656 30.6062 241.098 15.3269C211.793 -1.53124 173.302 -8.90483 136.288 -14.2552C75.6885 -23.0088 11.4646 -25.4296 -50.2564 -21.2312C-64.6047 -20.2547 -79.2311 -19.0384 -93.084 -16.2024" stroke="url(#paint19_linear)" stroke-miterlimit="10" stroke-linecap="round"/>
<path d="M622.87 -24.6171C590.653 -16.9628 564.225 -3.01671 537.901 11.251C525.517 17.958 517.887 23.9574 509.743 33.2957C501.609 42.6165 490.885 49.3352 479.344 56.7322C457.069 70.9999 434.569 88.6591 405.256 95.6935C389.291 99.5236 371.997 100.892 354.859 100.453C326.553 99.7341 315.455 88.4369 301.455 72.7951C283.413 52.639 266.475 31.5942 239.342 16.1511C211.593 0.357254 173.893 -6.19186 138.922 -10.8289C78.7478 -18.8047 15.2974 -20.3134 -45.6415 -15.5653C-60.4417 -14.4133 -75.5374 -12.9924 -89.79 -9.9459" stroke="url(#paint20_linear)" stroke-miterlimit="10" stroke-linecap="round"/>
<path d="M622.479 -18.0678C590.671 -10.4603 563.895 2.69637 537.389 16.4553C524.683 23.0512 517.183 29.0624 508.901 38.4592C500.584 47.8911 489.582 54.5864 477.728 61.9833C454.671 76.3738 431.363 94.0564 401.406 101.19C384.964 105.108 367.2 106.535 349.567 105.991C322.799 105.167 312.588 93.9336 300.629 78.9058C283.969 57.972 268.761 36.0208 242.124 19.8293C214.818 3.22848 176.848 -2.88791 141.504 -7.26178C81.034 -14.7523 17.0621 -15.2844 -43.8507 -9.5832C-58.0947 -8.24999 -72.556 -6.68873 -86.2524 -3.64222" stroke="url(#paint21_linear)" stroke-miterlimit="10" stroke-linecap="round"/>
<path d="M621.992 -11.3669C590.61 -3.89394 563.504 8.43825 536.876 21.6593C523.831 28.1324 516.47 34.1727 508.049 43.628C499.541 53.1769 488.261 59.8429 476.085 67.2457C452.229 81.7473 428.095 99.465 397.469 106.698C381.6 110.446 364.584 111.949 347.576 111.61C317.95 111.025 308.581 98.3891 296.997 81.6187C282.822 61.1176 269.378 39.5465 244.844 23.4954C218.416 6.20455 179.316 0.286957 144.015 -3.66005C73.3774 -11.5599 -13.2684 -13.2732 -82.5503 2.71949" stroke="url(#paint22_linear)" stroke-miterlimit="10" stroke-linecap="round"/>
<path d="M621.436 -4.57159C590.419 2.71429 563.157 14.2396 536.346 26.8407C522.997 33.115 516.419 38.6467 507.824 48.0084C499.176 57.411 488.652 64.0362 476.424 71.2753C451.517 86.0225 425.679 104.968 393.437 112.19C376.829 115.909 359.561 117.569 342.041 117.154C313.718 116.488 305.696 104.214 295.624 87.8351C282.605 66.6499 271.107 44.3245 247.043 27.4489C221.154 9.29262 182.072 3.8136 146.362 0.123882C75.672 -7.19124 -9.96572 -7.16786 -78.8218 9.08797" stroke="url(#paint23_linear)" stroke-miterlimit="10" stroke-linecap="round"/>
<path d="M620.828 2.26349C590.202 9.29793 562.679 19.9753 535.807 31.9976C522.111 38.1257 515.68 43.7217 506.928 53.136C498.081 62.6615 487.296 69.2573 474.747 76.5023C448.988 91.3723 422.177 110.306 389.309 117.674C373.431 121.235 356.771 122.989 339.972 122.79C310.911 122.445 303.211 111.692 293.894 94.3311C282.171 72.4968 272.594 49.1481 249.155 31.3778C224.195 12.4555 184.236 7.18701 148.535 3.9183C77.4624 -2.58403 -6.42851 -0.946753 -75.1455 15.426" stroke="url(#paint24_linear)" stroke-miterlimit="10" stroke-linecap="round"/>
<path d="M620.212 9.08794C589.942 15.8359 562.175 25.6712 535.269 37.1322C521.234 43.1141 514.916 48.7978 506.025 58.2589C496.969 67.9013 485.915 74.4738 473.044 81.7187C446.407 96.7173 418.719 115.675 385.112 123.148C368.73 126.791 351.549 128.603 334.228 128.328C304.08 127.855 298.032 114.786 289.975 96.9922C279.79 74.4913 271.099 50.0199 246.557 32.2788C222.631 14.988 183.767 10.6726 150.464 7.93016C79.2095 2.05936 -3.10837 5.37483 -71.6255 21.7359" stroke="url(#paint25_linear)" stroke-miterlimit="10" stroke-linecap="round"/>
<path d="M619.619 15.835C589.671 22.2788 561.653 31.278 534.746 42.2244C520.381 48.0659 514.158 53.8607 505.12 63.3745C495.847 73.1338 484.523 79.6829 471.331 86.9279C442.947 102.511 414.876 120.369 380.852 128.62C364.47 132.596 346.22 134.216 328.361 133.859C297.187 133.234 292.929 117.557 286.107 99.4998C278.372 79.0456 271.472 57.1177 252.074 39.938C228.879 19.3961 188.146 14.5719 152.123 11.9698C80.9552 6.82995 -0.163415 11.7593 -68.3677 27.9742" stroke="url(#paint26_linear)" stroke-miterlimit="10" stroke-linecap="round"/>
<path d="M619.064 22.4605C589.368 28.5886 561.114 36.7867 534.217 47.2711C519.538 52.9899 513.368 58.9075 504.173 68.4739C494.683 78.356 483.081 84.87 469.55 92.1208C440.28 107.804 411.288 125.72 376.49 134.076C359.874 138.07 341.397 139.766 323.303 139.391C291.756 138.742 288.662 122.364 282.927 104.143C276.417 83.4666 270.847 61.0886 251.927 43.5697C229.627 22.9283 188.876 18.4199 153.41 16.1804C81.9204 11.6662 2.79204 18.2913 -65.5078 34.1144" stroke="url(#paint27_linear)" stroke-miterlimit="10" stroke-linecap="round"/>
<path d="M618.586 28.8984C589.142 34.7224 560.498 42.0668 533.722 52.253C519.695 57.5858 512.629 63.5268 504.008 72.7657C493.571 83.9518 480.822 90.46 465.457 98.5178C436.074 113.932 406.777 131.293 372.067 139.532C354.938 143.601 335.801 145.443 317.185 144.905C287.02 144.034 284.839 128.439 280.102 110.973C274.01 88.4836 270.273 63.4274 248.573 44.7683C226.829 26.0682 187.312 22.4428 154.314 20.6068C82.303 16.5954 5.59063 24.9397 -63.1177 40.1547" stroke="url(#paint28_linear)" stroke-miterlimit="10" stroke-linecap="round"/>
<path d="M618.221 35.1029C588.907 40.6346 560.002 47.2831 533.235 57.1886C518.956 62.4747 511.847 68.5385 503.069 77.8359C492.38 89.1565 479.318 95.6412 463.588 103.699C433.31 119.206 403.075 136.62 367.591 144.964C349.966 149.11 330.073 151.139 310.936 150.385C282.501 149.262 280.441 134.608 276.852 118.113C271.594 93.9572 269.638 65.5855 244.679 46.1604C223.439 29.6297 185.191 26.4721 154.791 25.0395C82.4244 21.6305 7.72821 31.7173 -61.293 46.0142" stroke="url(#paint29_linear)" stroke-miterlimit="10" stroke-linecap="round"/>
<path d="M617.986 41.0086C588.69 46.2829 559.594 52.4052 532.766 62.1002C518.235 67.3512 511.065 73.5436 502.105 82.8994C491.146 94.3428 477.771 100.822 461.676 108.88C430.503 124.486 399.312 141.947 363.037 150.39C344.943 154.6 324.181 156.887 304.54 155.858C275.322 154.331 275.209 137.853 272.411 120.709C268.822 98.6992 267.544 73.6956 248.32 54.7091C228.054 34.6875 187.981 31.1323 154.722 29.7581C81.9639 26.7467 9.37952 38.5994 -60.2065 51.721" stroke="url(#paint30_linear)" stroke-miterlimit="10" stroke-linecap="round"/>
<path d="M617.916 46.5755C588.585 51.7037 559.272 57.6622 532.253 67.0532C516.01 72.7018 508.892 80.2917 498.907 90.2967C488.061 101.161 472.869 107.623 457.374 115.218C426.088 130.562 394.61 147.449 358.439 155.799C340.085 160.039 319.053 162.395 299.169 161.349C269.612 159.793 270.316 142.958 268.23 125.709C265.562 103.658 265.519 78.2685 246.539 59.1065C226.82 39.2136 186.843 35.7344 154.131 34.565C80.9643 31.957 10.3353 45.5464 -59.8765 57.2178" stroke="url(#paint31_linear)" stroke-miterlimit="10" stroke-linecap="round"/>
<path d="M617.856 52.0661C588.621 57.4165 558.933 62.8078 531.749 71.9766C515.219 77.5492 508.05 85.3145 497.873 95.3662C486.758 106.342 471.201 112.786 455.358 120.382C423.159 135.825 390.743 152.735 353.747 161.185C334.914 165.483 312.953 168.161 292.582 166.787C262.504 164.763 264.911 145.099 263.582 128.258C261.835 106.196 262.391 79.4788 241.42 61.0361C221.78 43.7628 182.863 40.3713 152.95 39.4766C81.3472 37.3306 8.89326 50.1307 -59.9541 62.3167" stroke="url(#paint32_linear)" stroke-miterlimit="10" stroke-linecap="round"/>
<path d="M617.716 57.6737C588.664 63.1937 558.472 67.8657 531.253 76.8707C514.897 82.2855 507.858 89.7234 497.568 99.5938C486.183 110.517 471.887 116.838 455.784 124.375C421.829 140.257 387.797 157.817 349.001 166.547C329.891 170.85 307.669 173.622 287.037 172.242C256.611 170.213 259.705 150.367 258.923 133.427C257.906 111.482 259.557 84.3437 238.613 65.9419C219.215 48.9026 180.611 45.359 151.089 44.6164C80.6688 42.8446 7.60644 54.6038 -60.1807 66.9418" stroke="url(#paint33_linear)" stroke-miterlimit="10" stroke-linecap="round"/>
<path d="M617.491 63.3926C588.551 69.0646 558.073 73.07 530.723 81.8061C514.089 87.1214 506.998 94.7406 496.526 104.64C484.871 115.669 470.236 121.978 453.776 129.509C418.883 145.484 383.86 163.085 344.204 171.897C324.92 176.183 302.237 179.171 281.432 177.68C251.388 175.523 254.699 155.279 254.143 138.62C253.413 116.791 255.595 89.706 234.946 71.2866C215.922 54.3174 177.492 51.2709 148.404 50.4932C79.0874 48.6454 6.27704 58.8316 -60.5454 71.1229" stroke="url(#paint34_linear)" stroke-miterlimit="10" stroke-linecap="round"/>
<path d="M617.196 69.2048C588.299 75.023 557.778 78.4438 530.159 86.7763C513.812 91.7057 506.32 99.1846 496.37 108.874C484.941 119.996 470.749 126.118 454.281 133.503C417.641 149.934 380.853 168.143 339.39 177.242C320.21 181.452 299.448 183.686 278.868 183.165C247.443 182.376 250.033 163.459 249.294 146.262C248.338 123.931 251.606 97.1789 231.365 77.9526C212.55 60.0887 175.519 57.4749 145.38 56.4692C77.4538 54.2004 4.76522 62.9247 -60.9883 74.8944" stroke="url(#paint35_linear)" stroke-miterlimit="10" stroke-linecap="round"/>
<path d="M616.822 75.1168C588.038 81.0344 557.334 83.7125 529.602 91.7118C512.986 96.5066 505.442 104.178 495.326 113.891C483.637 125.124 469.107 131.223 452.299 138.602C414.677 155.127 376.873 173.377 334.532 182.551C315.082 186.767 294.025 189.083 273.184 188.557C242.02 187.773 244.801 168.5 244.114 151.56C243.21 129.393 246.452 102.951 226.681 83.7651C208.43 66.0533 171.573 63.6091 141.973 62.3928C75.4025 59.6562 3.10496 66.6907 -61.5796 78.251" stroke="url(#paint36_linear)" stroke-miterlimit="10" stroke-linecap="round"/>
<path d="M616.387 81.1159C587.76 87.0919 556.787 88.852 529.081 96.6057C512.595 101.219 505.268 108.61 495.022 118.136C481.899 130.345 466.317 136.807 447.719 144.818C409.993 161.079 371.945 178.815 329.648 187.86C309.911 192.082 288.576 194.486 267.475 193.948C236.588 193.158 239.439 173.669 238.752 156.951C237.848 134.976 240.977 108.868 221.64 89.77C203.92 72.2629 167.324 69.8537 138.262 68.3626C73.1344 65.0238 1.34958 70.2455 -62.2573 81.2562" stroke="url(#paint37_linear)" stroke-miterlimit="10" stroke-linecap="round"/>
<path d="M615.892 87.1974C587.352 93.2319 556.309 94.1441 528.516 101.547C511.76 106.009 504.373 113.598 493.988 123.141C480.561 135.468 464.622 141.9 445.668 149.911C406.968 166.254 367.93 184.031 324.737 193.158C304.732 197.386 283.092 199.883 261.722 199.327C231.122 198.532 233.929 178.943 233.19 162.419C232.217 140.654 235.172 114.914 216.235 95.951C198.992 78.6835 162.761 76.1867 134.238 74.3623C70.6488 70.2983 -0.527672 73.5846 -63.0396 83.9287" stroke="url(#paint38_linear)" stroke-miterlimit="10" stroke-linecap="round"/>
<path d="M615.336 93.349C586.865 99.4244 555.822 99.442 527.943 106.476C510.926 110.768 503.479 118.575 492.937 128.124C479.214 140.561 462.911 146.97 443.591 154.969C403.918 171.394 363.881 189.212 319.802 198.415C299.526 202.649 277.582 205.239 255.943 204.66C225.638 203.853 228.289 184.288 227.455 167.927C226.36 146.391 229.089 121.054 210.499 102.255C193.7 85.2678 157.903 82.5605 129.928 80.3501C67.9464 75.4559 -2.51742 76.6721 -63.9082 86.2619" stroke="url(#paint39_linear)" stroke-miterlimit="10" stroke-linecap="round"/>
<path d="M614.736 99.5764C586.24 105.675 555.466 104.974 527.334 111.458C510.457 115.353 502.87 122.949 492.772 132.328C478.189 145.882 459.834 152.583 438.846 161.109C399.095 177.259 358.857 194.591 314.848 203.666C294.294 207.906 272.038 210.584 250.137 209.987C220.137 209.169 222.527 189.732 221.562 173.511C220.294 152.227 222.736 127.317 204.468 108.722C188.069 92.0391 152.785 89.0277 125.365 86.3729C65.0784 80.5431 -4.58587 79.5724 -64.8643 88.326" stroke="url(#paint40_linear)" stroke-miterlimit="10" stroke-linecap="round"/>
<path d="M614.076 105.868C585.588 111.979 554.97 110.318 526.752 116.4C509.631 120.089 501.966 127.925 491.746 137.304C476.85 150.97 458.07 157.647 436.708 166.161C395.992 182.388 354.781 199.755 309.894 208.906C289.071 213.151 266.502 215.923 244.332 215.303C214.636 214.472 216.678 195.258 215.54 179.154C214.045 158.138 216.148 133.679 198.167 115.324C182.133 98.9626 147.431 95.5535 120.577 92.4135C62.0626 85.572 -6.71527 82.2741 -65.8726 90.133" stroke="url(#paint41_linear)" stroke-miterlimit="10" stroke-linecap="round"/>
<path d="M613.38 112.213C584.875 118.329 554.483 115.674 526.169 121.329C508.814 124.796 501.045 132.895 490.711 142.257C475.503 156.039 456.288 162.682 434.561 171.178C392.881 187.475 350.696 204.883 304.923 214.104C283.83 218.355 260.939 221.22 238.5 220.571C209.125 219.723 210.725 200.83 209.369 184.826C207.605 164.097 209.325 140.111 191.588 122.025C175.866 106.003 141.825 102.108 115.544 98.4362C58.864 90.5071 -8.93178 84.765 -66.9854 91.6825" stroke="url(#paint42_linear)" stroke-width="1.4173" stroke-miterlimit="10" stroke-linecap="round"/>
<path d="M612.65 118.604C584.127 124.708 553.892 120.779 525.63 126.199C506.902 129.796 498.455 139.684 487.113 149.513C473.069 161.699 454.828 167.593 435.213 175.107C391.629 191.807 347.646 209.794 299.943 219.284C278.572 223.536 255.368 226.494 232.668 225.822C203.616 224.962 204.702 206.467 203.077 190.55C201 170.125 202.295 146.63 184.783 128.848C169.34 113.166 136.02 108.727 110.33 104.476C55.5529 95.4069 -11.1827 87.0802 -68.1499 93.0329" stroke="url(#paint43_linear)" stroke-width="1.4173" stroke-miterlimit="10" stroke-linecap="round"/>
<path d="M611.885 125.048C583.258 131.147 553.423 126.118 525.057 131.129C506.076 134.48 497.507 144.666 486.044 154.478C471.713 166.746 453.072 172.611 433.136 180.113C388.57 196.877 343.596 214.899 294.98 224.46C273.341 228.717 249.815 231.757 226.845 231.061C198.114 230.19 198.618 212.168 196.698 196.322C194.256 176.224 195.116 153.221 177.795 135.772C162.569 120.434 130.04 115.382 104.976 110.517C52.1633 100.261 -13.4164 89.2382 -69.332 94.2026" stroke="url(#paint44_linear)" stroke-width="1.4173" stroke-miterlimit="10" stroke-linecap="round"/>
<path d="M611.086 131.521C582.311 137.608 552.963 131.451 524.475 136.047C505.251 139.152 496.552 149.636 484.958 159.425C470.341 171.775 451.282 177.605 431.033 185.089C385.494 201.918 339.52 219.969 290.009 229.6C268.1 233.863 244.253 236.985 221.023 236.266C192.622 235.389 192.483 217.899 190.215 202.117C187.381 182.37 187.764 159.858 170.6 142.771C155.539 127.773 123.87 122.06 99.4408 116.546C48.6439 105.079 -15.693 91.2323 -70.6006 95.2086" stroke="url(#paint45_linear)" stroke-width="1.4173" stroke-miterlimit="10" stroke-linecap="round"/>
<path d="M610.269 138.035C581.304 144.11 552.616 137.117 523.85 141.035C504.522 143.666 496.439 153.928 484.724 163.582C469.881 175.809 452.256 181.592 431.859 189.007C384.399 206.245 336.288 225.132 285.056 234.734C262.869 238.891 238.857 242.207 215.218 241.458C187.156 240.569 186.313 223.676 183.663 207.958C180.395 188.574 180.282 166.57 163.266 149.864C148.318 135.181 117.57 128.778 93.8099 122.586C52.0774 111.716 7.85063 102.488 -36.4543 97.6993C-48.1259 96.4363 -60.0495 95.4481 -71.8774 96.1088" stroke="url(#paint46_linear)" stroke-width="1.4173" stroke-miterlimit="10" stroke-linecap="round"/>
<path d="M609.434 144.566C580.251 150.624 552.172 142.473 523.275 145.946C503.773 148.291 495.456 158.916 483.663 168.506C468.533 180.809 450.543 186.557 429.833 193.948C381.383 211.244 332.272 230.149 280.119 239.827C257.81 243.967 229.983 248.972 206.162 246.563C180.325 243.949 179.395 226.892 176.674 211.817C173.329 193.234 171.921 171.932 155.2 156.133C140.912 142.631 109.774 135.047 88.0646 128.574C48.861 116.89 7.61517 106.406 -34.2738 99.9973C-46.9621 98.056 -60.1111 96.3602 -73.1992 96.8748" stroke="url(#paint47_linear)" stroke-width="1.4173" stroke-miterlimit="10" stroke-linecap="round"/>
<path d="M608.583 151.115C579.139 157.155 551.746 147.823 522.71 150.858C503.043 152.91 494.483 163.897 482.611 173.423C467.186 185.796 448.822 191.503 427.808 198.877C378.367 216.22 328.265 235.154 275.192 244.896C252.587 249.042 224.482 254.1 200.374 251.685C174.823 249.129 173.111 232.733 169.956 217.723C166.124 199.502 164.203 178.768 147.613 163.33C133.325 150.027 103.377 141.748 82.2417 134.573C44.3592 121.708 4.57333 109.546 -36.3596 101.745C-48.7091 99.3888 -61.606 97.2837 -74.5464 97.5703" stroke="url(#paint48_linear)" stroke-width="1.4173" stroke-miterlimit="10" stroke-linecap="round"/>
<path d="M607.722 157.682C577.974 163.711 551.268 152.805 522.197 155.694C503.174 157.583 493.866 168.26 482.568 177.569C466.36 190.919 445.111 197.129 422.768 204.836C373.361 221.887 323.208 240.341 270.299 249.943C247.39 254.1 219.033 259.187 194.638 256.778C169.374 254.287 166.854 238.575 163.221 223.647C158.885 205.795 156.425 185.633 139.965 170.576C125.591 157.425 96.955 148.478 76.3755 140.561C39.8052 126.492 1.5229 112.639 -38.4541 103.436C-50.4472 100.676 -63.0834 98.1496 -75.8848 98.2139" stroke="url(#paint49_linear)" stroke-width="1.4173" stroke-miterlimit="10" stroke-linecap="round"/>
<path d="M606.853 164.255C576.766 170.26 550.877 158.121 521.641 160.6C502.444 162.226 492.945 173.207 481.543 182.476C465.039 195.895 443.365 202.053 420.717 209.742C370.346 226.834 319.236 245.312 265.432 254.966C242.211 259.135 213.627 264.24 188.928 261.848C163.943 259.428 160.597 244.423 156.46 229.582C151.593 212.116 148.586 192.533 132.248 177.85C117.717 164.793 90.4979 155.221 70.4659 146.531C35.1993 131.235 -1.53613 115.704 -40.5746 105.091C-52.2027 101.927 -64.5695 98.9861 -77.2578 98.8341" stroke="url(#paint50_linear)" stroke-width="1.4173" stroke-miterlimit="10" stroke-linecap="round"/>
<path d="M605.992 170.827C575.54 176.815 550.502 163.418 521.102 165.494C501.739 166.863 492.032 178.142 480.525 187.375C463.726 200.859 441.634 206.97 418.682 214.63C367.355 231.763 315.298 250.253 260.608 259.965C237.126 264.134 209.429 268.83 184.487 266.918C159.823 265.029 155.217 252.475 150.298 237.4C144.779 220.495 141.642 201.953 126.789 187.276C112.215 172.879 85.2307 162.547 64.5644 152.49C30.2276 135.778 -5.27373 118.311 -43.9558 106.324C-54.8365 102.95 -66.482 99.8219 -78.6055 99.4652" stroke="url(#paint51_linear)" stroke-width="1.4173" stroke-miterlimit="10" stroke-linecap="round"/>
<path d="M605.133 177.388C574.246 183.358 550.06 168.593 520.512 170.447C499.393 171.774 489.495 184.773 476.676 194.509C459.79 207.333 436.013 213.133 413.591 220.501C362.342 237.33 310.32 255.357 255.821 264.924C232.034 269.099 204.128 273.8 178.891 271.911C154.531 270.093 149.125 258.188 143.615 243.259C137.532 226.781 133.847 208.777 119.056 194.515C104.238 180.224 78.618 169.266 58.6643 158.413C25.6224 140.444 -8.22768 121.311 -46.0146 107.903C-56.5303 104.172 -67.9064 100.652 -79.9517 100.114" stroke="url(#paint52_linear)" stroke-width="1.4173" stroke-miterlimit="10" stroke-linecap="round"/>
<path d="M604.281 183.942C572.977 189.889 549.712 173.873 519.981 175.335C498.742 176.376 488.53 189.731 475.624 199.397C458.452 212.256 434.231 218.009 411.531 225.348C359.361 242.206 306.426 260.245 251.067 269.864C227.115 274.028 199.887 278.384 174.519 276.91C150.655 275.525 143.78 265.099 137.654 250.802C130.014 232.979 125.904 213.144 107.575 198.467C91.8277 185.86 70.9093 175.276 52.7893 164.301C20.8424 144.946 -11.8518 123.72 -49.2129 109.043C-59.0508 105.178 -69.7663 101.494 -81.2988 100.821" stroke="url(#paint53_linear)" stroke-width="1.4173" stroke-miterlimit="10" stroke-linecap="round"/>
<path d="M603.446 190.475C571.716 196.398 549.381 179.142 519.468 180.218C498.124 180.984 487.582 194.685 474.59 204.28C457.13 217.174 432.466 222.875 409.497 230.184C356.414 247.066 302.567 265.117 246.373 274.777C222.126 278.946 194.69 283.296 169.043 281.846C145.414 280.507 137.94 270.672 131.1 256.58C122.653 239.16 117.977 220.203 99.9093 205.754C84.0489 193.065 64.3819 181.885 46.9745 170.172C16.3313 149.56 -14.6596 126.697 -51.1864 110.634C-60.6679 106.465 -71.1315 102.418 -82.6118 101.605" stroke="url(#paint54_linear)" stroke-width="1.4173" stroke-miterlimit="10" stroke-linecap="round"/>
<path d="M602.63 196.977C570.518 202.877 549.139 184.627 519.026 185.002C499.924 185.241 489.764 196.556 478.458 205.374C459.503 220.144 436.551 225.898 410.662 233.991C355.624 251.2 299.891 269.76 241.724 279.642C217.182 283.811 189.554 288.156 163.63 286.729C140.304 285.443 132.083 276.186 124.609 262.31C115.458 245.323 110.078 227.173 92.3233 212.981C76.3238 200.187 57.917 188.416 41.231 175.996C11.8739 154.139 -17.4049 129.685 -53.1235 112.266C-62.2487 107.816 -72.4602 103.413 -83.9058 102.483" stroke="url(#paint55_linear)" stroke-width="1.4173" stroke-miterlimit="10" stroke-linecap="round"/>
<path d="M601.829 203.456C569.283 209.327 548.817 189.849 518.53 189.872C499.315 189.884 488.912 201.456 477.518 210.233C458.277 225.044 434.882 230.74 408.723 238.798C352.781 256.018 296.153 274.584 237.135 284.501C212.523 288.641 185.408 292.711 159.449 291.623C134.846 290.588 125.894 281.162 117.369 266.508C108.478 251.235 102.464 235.143 87.1254 222.004C70.9956 208.186 52.2064 195.451 35.6072 181.809C7.22356 158.501 -20.4388 132.193 -55.9836 113.452C-64.5178 108.95 -74.1297 104.494 -85.1494 103.512" stroke="url(#paint56_linear)" stroke-width="1.4173" stroke-miterlimit="10" stroke-linecap="round"/>
<path d="M601.074 209.888C568.093 215.729 548.513 195.041 518.07 194.725C498.75 194.527 488.104 206.338 476.606 215.069C457.078 229.915 433.24 235.552 406.82 243.563C349.984 260.795 292.469 279.355 232.616 289.307C207.735 293.447 180.42 297.506 154.2 296.435C129.927 295.441 120.211 286.588 110.991 272.227C101.492 257.421 94.8607 241.949 79.765 229.091C63.3918 215.145 45.9323 201.894 30.0893 187.574C2.99179 163.068 -22.9411 135.257 -57.7559 115.218C-65.9686 110.493 -75.3458 105.728 -86.3481 104.687" stroke="url(#paint57_linear)" stroke-width="1.4173" stroke-miterlimit="10" stroke-linecap="round"/>
<path d="M600.345 216.28C566.886 222.139 548.157 200.024 517.549 199.655C496.778 199.404 485.324 213.023 472.731 222.145C454.967 235.009 431.563 240.365 408.203 247.341C349.411 264.901 289.984 283.923 228.167 294.091C203.277 298.184 176.354 302.038 150.177 301.237C124.627 300.453 114.215 291.454 103.795 276.59C94.592 263.457 87.9871 249.511 74.673 237.857C57.7436 223.033 40.4057 208.877 24.7278 193.299C-0.553329 168.173 -24.244 140.404 -56.6254 118.944C-65.0901 113.336 -75.2495 107.237 -87.4946 106.062" stroke="url(#paint58_linear)" stroke-width="1.4173" stroke-miterlimit="10" stroke-linecap="round"/>
<path d="M599.649 222.623C565.773 228.459 547.879 205.169 517.106 204.502C496.239 204.052 484.498 217.91 471.801 226.98C453.777 239.862 429.99 245.142 406.404 252.083C346.734 269.637 286.429 288.652 223.787 298.845C198.645 302.932 171.522 306.779 145.111 305.984C119.917 305.23 108.723 296.786 97.6076 282.267C87.9002 269.596 80.8173 256.117 67.6509 244.762C50.3565 229.851 34.4005 215.191 19.5395 199C-4.54233 172.757 -26.6427 143.683 -58.3027 121.036C-66.3937 115.247 -76.3098 108.798 -88.5723 107.634" stroke="url(#paint59_linear)" stroke-width="1.4173" stroke-miterlimit="10" stroke-linecap="round"/>
<path d="M598.997 228.903C564.721 234.721 547.618 210.285 516.679 209.338C495.726 208.7 483.69 222.775 470.888 231.798C452.603 244.685 428.443 249.895 404.631 256.801C344.092 274.349 282.927 293.353 219.485 303.557C194.1 307.639 166.785 311.475 140.148 310.685C115.302 309.948 103.352 302.019 91.5673 287.874C81.3906 275.665 73.8297 262.637 60.8285 251.562C43.2212 236.569 28.5601 221.383 14.5247 204.654C-8.37519 177.358 -28.9199 147.045 -59.8847 123.275C-67.6194 117.334 -77.3095 110.557 -89.5894 109.446" stroke="url(#paint60_linear)" stroke-width="1.4173" stroke-miterlimit="10" stroke-linecap="round"/>
<path d="M598.398 235.126C563.766 240.885 547.427 215.578 516.341 214.081C495.622 213.081 483.586 227.132 470.941 235.862C450.935 249.668 425.411 255.065 399.556 262.456C339.278 279.677 278.339 298.213 215.262 308.242C189.633 312.317 162.145 316.136 135.282 315.346C110.765 314.627 98.1032 307.166 85.6756 293.419C75.0643 281.677 67.0515 269.07 54.2328 258.264C36.3735 243.207 22.9291 227.46 9.71927 210.274C-12.0161 181.996 -31.0312 150.502 -61.3529 125.68C-68.7487 119.627 -78.2302 112.535 -90.5361 111.529" stroke="url(#paint61_linear)" stroke-width="1.4173" stroke-miterlimit="10" stroke-linecap="round"/>
<path d="M597.85 241.277C562.853 247.025 547.201 220.624 515.958 218.905C495.144 217.758 482.847 231.979 470.08 240.675C449.822 254.463 423.872 259.801 397.809 267.14C336.714 284.343 274.966 302.856 211.116 312.896C185.566 316.913 158.381 320.591 131.631 319.995C107.88 319.468 94.2182 313.177 81.0953 300.084C53.685 272.736 26.2399 245.703 5.13901 215.846C-15.5969 186.498 -33.1346 153.185 -63.5606 127.521C-70.5218 121.65 -79.5167 114.709 -91.4229 113.902" stroke="url(#paint62_linear)" stroke-width="1.4173" stroke-miterlimit="10" stroke-linecap="round"/>
<path d="M597.354 247.353C562.009 253.107 546.992 225.63 515.584 223.723C494.665 222.454 482.133 236.816 469.236 245.476C448.735 259.241 422.368 264.515 396.105 271.801C334.21 288.975 271.663 307.464 207.074 317.504C162.569 324.422 106.984 334.473 75.6193 305.418C46.7837 278.695 20.5205 251.686 0.818816 221.373C-18.7873 191.206 -34.8303 156.8 -64.7348 130.276C-71.4787 124.294 -80.2302 117.271 -92.1973 116.587" stroke="url(#paint63_linear)" stroke-width="1.4173" stroke-miterlimit="10" stroke-linecap="round"/>
<path d="M596.92 253.34C561.218 259.106 546.792 230.459 515.167 228.617C494.639 227.425 482.29 240.798 469.532 249.563C447.875 264.445 419.178 269.661 391.09 277.344C329.526 294.185 267.283 312.212 203.129 322.071C158.589 328.912 102.917 338.783 70.3617 310.663C40.0921 284.513 15.2108 257.621 -3.22211 226.857C-21.7332 195.965 -36.3161 160.524 -65.7514 133.252C-72.2433 127.241 -80.8644 120.031 -92.8662 119.616" stroke="url(#paint64_linear)" stroke-width="1.4173" stroke-miterlimit="10" stroke-linecap="round"/>
<path d="M596.564 259.245C560.558 265.04 546.653 235.406 514.854 233.423C494.223 232.137 481.673 245.603 468.768 254.345C446.867 269.192 417.719 274.332 389.457 281.957C327.136 298.762 264.155 316.755 199.297 326.602C154.705 333.373 99.0065 343.045 65.3389 315.808C51.8075 304.861 40.3446 292.517 27.4824 281.197C11.1266 266.8 2.40987 249.235 -6.96735 232.295C-24.4095 200.783 -37.5758 164.359 -66.6113 136.461C-72.8686 130.45 -81.4202 123.088 -93.4307 123.012" stroke="url(#paint65_linear)" stroke-width="1.4173" stroke-miterlimit="10" stroke-linecap="round"/>
<path d="M596.267 265.052C560.097 270.871 546.418 240.581 514.549 238.224C493.917 236.698 480.942 250.486 468.019 259.123C445.875 273.929 416.292 278.993 387.856 286.547C324.806 303.306 261.095 321.269 195.567 331.099C150.888 337.806 95.2509 347.255 60.5491 320.86C46.8266 310.422 34.9552 298.336 22.5275 287.191C6.34552 272.689 -1.64119 254.755 -10.3927 237.692C-26.818 205.678 -38.5938 168.336 -67.2991 139.935C-73.3565 133.942 -81.8646 126.486 -93.8838 126.808" stroke="url(#paint66_linear)" stroke-width="1.4173" stroke-miterlimit="10" stroke-linecap="round"/>
<path d="M596.051 270.759C559.524 276.653 546.445 245.288 514.333 242.925C492.232 241.3 478.093 257.17 464.066 265.923C445.051 277.793 420.117 282.243 396.418 288.453C329.3 306.031 261.634 325.234 191.944 335.56C147.152 342.197 91.6452 351.412 56.0136 325.801C42.152 315.837 29.9677 303.984 17.9572 292.997C2.00115 278.396 -5.33376 260.193 -13.503 243.048C-28.9289 210.653 -39.349 172.435 -67.8109 143.683C-73.7118 137.719 -82.2374 130.234 -94.2305 131.023" stroke="url(#paint67_linear)" stroke-width="1.4173" stroke-miterlimit="10" stroke-linecap="round"/>
<path d="M595.912 276.355C559.42 282.285 546.21 250.463 513.95 247.89C492.024 246.142 477.389 261.848 463.162 270.426C443.73 282.139 418.683 286.629 394.793 292.845C327.032 310.475 258.801 329.672 188.442 339.969C143.529 346.542 88.23 355.512 51.764 330.619C37.7894 321.082 25.4313 309.458 13.838 298.587C-1.83996 283.887 -8.60129 265.538 -16.2317 248.346C-30.7103 215.712 -39.8181 176.669 -68.1149 147.718C-73.9115 141.789 -82.4892 134.357 -94.4302 135.684" stroke="url(#paint68_linear)" stroke-width="1.4173" stroke-miterlimit="10" stroke-linecap="round"/>
<path d="M595.868 281.84C560.437 287.722 545.445 255.363 513.637 252.79C491.841 251.03 476.728 266.373 462.197 274.77C442.322 286.249 417.145 290.792 393.098 297.02C324.772 314.726 256.081 334.11 185.07 344.349C140 350.845 85.0056 359.575 47.8183 335.32C12.3083 312.153 -5.46414 285.214 -18.5783 253.609C-32.1618 220.886 -39.9921 181.042 -68.2107 152.08C-73.9552 146.186 -82.6545 138.917 -94.4912 140.829" stroke="url(#paint69_linear)" stroke-width="1.4173" stroke-miterlimit="10" stroke-linecap="round"/>
<path d="M596.095 286.857C560.95 291.132 545.593 259.907 513.307 257.708C493.588 256.369 480.231 267.853 466.63 275.812C443.591 289.296 415.876 294.64 387.875 301.891C320.323 319.392 252.336 338.56 182.176 348.629C136.02 355.255 80.956 363.634 42.8127 338.987C8.01535 316.492 -8.51429 289.804 -20.5422 258.825C-29.1285 236.722 -36.5851 214.402 -46.4838 192.539C-51.7677 180.861 -57.2862 167.915 -67.4456 157.653C-73.3987 151.636 -82.6456 144.73 -94.5518 147.104" stroke="url(#paint70_linear)" stroke-width="1.4173" stroke-miterlimit="10" stroke-linecap="round"/>
<path d="M596.789 291.056C562.087 293.997 545.671 264.427 513.081 262.503C493.414 261.345 479.709 272.263 465.665 280.005C442.096 293.009 414.077 298.459 386.058 305.716C318.158 323.299 249.867 342.636 179.377 352.811C133.117 359.488 78.1656 367.669 39.4922 343.443C4.64269 321.615 -10.9049 294.524 -22.0811 264C-33.6397 232.442 -39.1321 191.948 -67.8461 164.559C-73.973 158.717 -83.2372 152.507 -94.7437 155.209" stroke="url(#paint71_linear)" stroke-width="1.4173" stroke-miterlimit="10" stroke-linecap="round"/>
<path d="M597.902 294.529C563.765 296.412 545.671 269.005 512.968 267.186C492.319 266.04 476.476 278.232 461.354 285.828C437.403 297.862 408.419 303.125 380.835 310.288C313.778 327.696 246.304 346.758 176.7 356.874C131.257 363.482 76.5492 371.773 37.9888 348.477C2.20937 326.859 -12.2345 299.295 -23.289 268.642C-30.7369 247.995 -37.2723 227.155 -46.5365 206.824C-52.0029 194.836 -57.9734 180.756 -70.4097 171.008C-76.6583 166.108 -85.3142 162.214 -95.0391 164.874" stroke="url(#paint72_linear)" stroke-width="1.4173" stroke-miterlimit="10" stroke-linecap="round"/>
<path d="M599.37 297.377C565.677 298.535 545.732 273.221 512.829 271.923C492.128 271.104 476.033 282.39 460.303 289.769C435.778 301.277 406.655 306.68 379.01 313.872C311.692 331.38 243.975 350.594 174.128 360.845C129.632 367.376 75.0024 375.832 36.7114 353.459C0.323654 332.198 -13.451 304.212 -24.4534 273.695C-29.0508 260.942 -50.647 161.816 -95.4126 175.908" stroke="url(#paint73_linear)" stroke-width="1.4173" stroke-miterlimit="10" stroke-linecap="round"/>
<path d="M601.135 299.71C567.745 300.424 545.819 277.233 512.681 276.701C490.494 276.344 473.556 287.671 455.81 295.149C430.807 305.681 401.233 311.113 373.874 318.253C307.46 335.59 240.594 354.512 171.678 364.722C126.364 371.435 71.3613 380.042 32.8704 356.705C-1.50112 335.865 -14.737 308.575 -25.5656 279.18C-29.8674 267.497 -51.6549 172.313 -95.8643 188.077" stroke="url(#paint74_linear)" stroke-width="1.4173" stroke-miterlimit="10" stroke-linecap="round"/>
<path d="M603.133 301.616C570.013 302.119 545.827 281.647 512.603 281.408C490.494 281.25 472.887 291.798 454.723 298.903C429.112 308.92 399.65 314.504 372.136 321.702C305.522 339.122 238.465 358.172 169.365 368.517C124.261 375.27 68.945 384.158 30.5844 360.687C-3.03102 340.116 -15.7107 313.913 -26.6175 285.074C-30.9802 273.543 -52.6025 183.797 -96.3687 201.169" stroke="url(#paint75_linear)" stroke-width="1.4173" stroke-miterlimit="10" stroke-linecap="round"/>
<path d="M605.324 303.207C572.291 303.774 545.932 285.565 512.595 286.074C492.623 286.378 476.346 294.096 459.547 300.447C434.552 309.89 407.047 315.597 380.401 322.532C310.259 340.794 239.882 361.254 167.184 372.241C123.053 378.913 68.0241 387.906 29.8026 365.563C-3.59557 346.039 -16.7619 319.129 -27.6339 291.307C-32.8396 277.975 -53.7841 196.433 -96.9419 214.951" stroke="url(#paint76_linear)" stroke-width="1.4173" stroke-miterlimit="10" stroke-linecap="round"/>
<path d="M607.636 304.575C574.507 305.317 546.089 289.682 512.569 290.804C492.58 291.471 475.981 298.324 458.661 304.335C433.154 313.188 405.596 318.995 378.863 325.959C308.547 344.273 238.022 364.809 165.186 375.913C119.743 382.843 63.1924 392.07 24.9709 367.75C-5.27255 348.507 -17.761 324.14 -28.5548 297.827C-34.195 284.074 -54.9744 209.619 -97.5151 229.237" stroke="url(#paint77_linear)" stroke-width="1.4173" stroke-miterlimit="10" stroke-linecap="round"/>
<path d="M610.017 305.827C576.593 306.862 546.341 293.851 512.517 295.588C491.225 296.687 473.261 303.424 454.255 309.382C428.322 317.51 400.738 323.328 374.075 330.287C304.749 348.373 235.137 368.505 163.335 379.528C119.526 386.252 64.1748 395.684 26.0315 373.423C-5.02886 355.29 -18.2473 330.252 -29.4235 304.535C-35.7069 290.08 -56.408 223.384 -98.1318 243.756" stroke="url(#paint78_linear)" stroke-width="1.4173" stroke-miterlimit="10" stroke-linecap="round"/>
<path d="M612.406 307.06C578.626 308.54 546.661 298.108 512.551 300.33C493.475 301.575 476.676 306.476 459.286 311.551C429.894 320.123 399.355 326.865 369.485 334.66C301.124 352.489 232.451 372.189 161.665 383.106C116.995 389.994 61.3666 399.502 22.9018 376.387C-5.87296 359.091 -18.9437 335.461 -30.2155 311.417C-37.3766 296.143 -57.9387 237.71 -98.75 258.328" stroke="url(#paint79_linear)" stroke-width="1.4173" stroke-miterlimit="10" stroke-linecap="round"/>
<path d="M614.753 308.376C580.512 310.393 547.044 302.464 512.56 305.142C493.536 306.622 476.337 310.902 458.651 315.627C428.79 323.603 398.303 330.473 368.321 338.262C299.847 356.044 231.052 375.697 160.206 386.644C115.762 393.509 59.7329 403.268 21.4854 380.135C-5.9945 363.511 -19.2564 341.291 -30.9019 318.358C-39.384 301.657 -59.7462 252.527 -99.3408 272.713" stroke="url(#paint80_linear)" stroke-width="1.4173" stroke-miterlimit="10" stroke-linecap="round"/>
</g>
</g>
<defs>
<filter id="filter0_d" x="-7.63264" y="-7.63264" width="573.265" height="290.265" filterUnits="userSpaceOnUse" color-interpolation-filters="sRGB">
<feFlood flood-opacity="0" result="BackgroundImageFix"/>
<feColorMatrix in="SourceAlpha" type="matrix" values="0 0 0 0 0 0 0 0 0 0 0 0 0 0 0 0 0 0 127 0"/>
<feOffset/>
<feGaussianBlur stdDeviation="3.81632"/>
<feColorMatrix type="matrix" values="0 0 0 0 0.929412 0 0 0 0 0.117647 0 0 0 0 1 0 0 0 0.6 0"/>
<feBlend mode="normal" in2="BackgroundImageFix" result="effect1_dropShadow"/>
<feBlend mode="normal" in="SourceGraphic" in2="effect1_dropShadow" result="shape"/>
</filter>
<linearGradient id="paint0_linear" x1="424.08" y1="-2.74463e-06" x2="378.65" y2="354.25" gradientUnits="userSpaceOnUse">
<stop stop-color="#0E0434"/>
<stop offset="1" stop-color="#1F0777"/>
</linearGradient>
<linearGradient id="paint1_linear" x1="260.357" y1="-138.098" x2="260.357" y2="-4.22958" gradientUnits="userSpaceOnUse">
<stop stop-color="#ED1EFF"/>
<stop offset="1" stop-color="#00D1FF"/>
</linearGradient>
<linearGradient id="paint2_linear" x1="260.131" y1="-131.25" x2="260.131" y2="1.26961" gradientUnits="userSpaceOnUse">
<stop stop-color="#ED1EFF"/>
<stop offset="1" stop-color="#00D1FF"/>
</linearGradient>
<linearGradient id="paint3_linear" x1="259.905" y1="-124.135" x2="259.905" y2="6.77652" gradientUnits="userSpaceOnUse">
<stop stop-color="#ED1EFF"/>
<stop offset="1" stop-color="#00D1FF"/>
</linearGradient>
<linearGradient id="paint4_linear" x1="259.644" y1="-116.874" x2="259.644" y2="12.282" gradientUnits="userSpaceOnUse">
<stop stop-color="#ED1EFF"/>
<stop offset="1" stop-color="#00D1FF"/>
</linearGradient>
<linearGradient id="paint5_linear" x1="259.406" y1="-109.507" x2="259.406" y2="17.4503" gradientUnits="userSpaceOnUse">
<stop stop-color="#ED1EFF"/>
<stop offset="1" stop-color="#00D1FF"/>
</linearGradient>
<linearGradient id="paint6_linear" x1="259.183" y1="-102.104" x2="259.183" y2="22.9699" gradientUnits="userSpaceOnUse">
<stop stop-color="#ED1EFF"/>
<stop offset="1" stop-color="#00D1FF"/>
</linearGradient>
<linearGradient id="paint7_linear" x1="258.979" y1="-94.7211" x2="258.979" y2="28.4911" gradientUnits="userSpaceOnUse">
<stop stop-color="#ED1EFF"/>
<stop offset="1" stop-color="#00D1FF"/>
</linearGradient>
<linearGradient id="paint8_linear" x1="258.832" y1="-87.4297" x2="258.832" y2="34.0125" gradientUnits="userSpaceOnUse">
<stop stop-color="#ED1EFF"/>
<stop offset="1" stop-color="#00D1FF"/>
</linearGradient>
<linearGradient id="paint9_linear" x1="258.736" y1="-80.2748" x2="258.736" y2="39.5503" gradientUnits="userSpaceOnUse">
<stop stop-color="#ED1EFF"/>
<stop offset="1" stop-color="#00D1FF"/>
</linearGradient>
<linearGradient id="paint10_linear" x1="258.723" y1="-73.3256" x2="258.723" y2="45.123" gradientUnits="userSpaceOnUse">
<stop stop-color="#ED1EFF"/>
<stop offset="1" stop-color="#00D1FF"/>
</linearGradient>
<linearGradient id="paint11_linear" x1="258.797" y1="-67.9402" x2="258.797" y2="50.6595" gradientUnits="userSpaceOnUse">
<stop stop-color="#ED1EFF"/>
<stop offset="1" stop-color="#00D1FF"/>
</linearGradient>
<linearGradient id="paint12_linear" x1="258.979" y1="-64.9407" x2="258.979" y2="56.2148" gradientUnits="userSpaceOnUse">
<stop stop-color="#ED1EFF"/>
<stop offset="1" stop-color="#00D1FF"/>
</linearGradient>
<linearGradient id="paint13_linear" x1="259.266" y1="-61.5261" x2="259.266" y2="61.7717" gradientUnits="userSpaceOnUse">
<stop stop-color="#ED1EFF"/>
<stop offset="1" stop-color="#00D1FF"/>
</linearGradient>
<linearGradient id="paint14_linear" x1="259.701" y1="-57.6027" x2="259.701" y2="67.0253" gradientUnits="userSpaceOnUse">
<stop stop-color="#ED1EFF"/>
<stop offset="1" stop-color="#00D1FF"/>
</linearGradient>
<linearGradient id="paint15_linear" x1="260.335" y1="-53.1353" x2="260.335" y2="72.5932" gradientUnits="userSpaceOnUse">
<stop stop-color="#ED1EFF"/>
<stop offset="1" stop-color="#00D1FF"/>
</linearGradient>
<linearGradient id="paint16_linear" x1="261.216" y1="-48.1762" x2="261.216" y2="78.1813" gradientUnits="userSpaceOnUse">
<stop stop-color="#ED1EFF"/>
<stop offset="1" stop-color="#00D1FF"/>
</linearGradient>
<linearGradient id="paint17_linear" x1="262.32" y1="-42.7961" x2="262.32" y2="83.7856" gradientUnits="userSpaceOnUse">
<stop stop-color="#ED1EFF"/>
<stop offset="1" stop-color="#00D1FF"/>
</linearGradient>
<linearGradient id="paint18_linear" x1="263.594" y1="-37.0372" x2="263.594" y2="89.3622" gradientUnits="userSpaceOnUse">
<stop stop-color="#ED1EFF"/>
<stop offset="1" stop-color="#00D1FF"/>
</linearGradient>
<linearGradient id="paint19_linear" x1="265.019" y1="-30.9554" x2="265.019" y2="94.9531" gradientUnits="userSpaceOnUse">
<stop stop-color="#ED1EFF"/>
<stop offset="1" stop-color="#00D1FF"/>
</linearGradient>
<linearGradient id="paint20_linear" x1="266.54" y1="-24.6171" x2="266.54" y2="100.532" gradientUnits="userSpaceOnUse">
<stop stop-color="#ED1EFF"/>
<stop offset="1" stop-color="#00D1FF"/>
</linearGradient>
<linearGradient id="paint21_linear" x1="268.113" y1="-18.0678" x2="268.113" y2="106.102" gradientUnits="userSpaceOnUse">
<stop stop-color="#ED1EFF"/>
<stop offset="1" stop-color="#00D1FF"/>
</linearGradient>
<linearGradient id="paint22_linear" x1="269.721" y1="-11.3669" x2="269.721" y2="111.657" gradientUnits="userSpaceOnUse">
<stop stop-color="#ED1EFF"/>
<stop offset="1" stop-color="#00D1FF"/>
</linearGradient>
<linearGradient id="paint23_linear" x1="271.307" y1="-4.57159" x2="271.307" y2="117.216" gradientUnits="userSpaceOnUse">
<stop stop-color="#ED1EFF"/>
<stop offset="1" stop-color="#00D1FF"/>
</linearGradient>
<linearGradient id="paint24_linear" x1="272.841" y1="0.36496" x2="272.841" y2="122.806" gradientUnits="userSpaceOnUse">
<stop stop-color="#ED1EFF"/>
<stop offset="1" stop-color="#00D1FF"/>
</linearGradient>
<linearGradient id="paint25_linear" x1="274.293" y1="5.23093" x2="274.293" y2="128.356" gradientUnits="userSpaceOnUse">
<stop stop-color="#ED1EFF"/>
<stop offset="1" stop-color="#00D1FF"/>
</linearGradient>
<linearGradient id="paint26_linear" x1="275.626" y1="10.0219" x2="275.626" y2="133.907" gradientUnits="userSpaceOnUse">
<stop stop-color="#ED1EFF"/>
<stop offset="1" stop-color="#00D1FF"/>
</linearGradient>
<linearGradient id="paint27_linear" x1="276.778" y1="14.7917" x2="276.778" y2="139.442" gradientUnits="userSpaceOnUse">
<stop stop-color="#ED1EFF"/>
<stop offset="1" stop-color="#00D1FF"/>
</linearGradient>
<linearGradient id="paint28_linear" x1="277.734" y1="19.6052" x2="277.734" y2="144.997" gradientUnits="userSpaceOnUse">
<stop stop-color="#ED1EFF"/>
<stop offset="1" stop-color="#00D1FF"/>
</linearGradient>
<linearGradient id="paint29_linear" x1="278.464" y1="24.3736" x2="278.464" y2="150.54" gradientUnits="userSpaceOnUse">
<stop stop-color="#ED1EFF"/>
<stop offset="1" stop-color="#00D1FF"/>
</linearGradient>
<linearGradient id="paint30_linear" x1="278.89" y1="29.2853" x2="278.89" y2="156.103" gradientUnits="userSpaceOnUse">
<stop stop-color="#ED1EFF"/>
<stop offset="1" stop-color="#00D1FF"/>
</linearGradient>
<linearGradient id="paint31_linear" x1="279.02" y1="34.2399" x2="279.02" y2="161.596" gradientUnits="userSpaceOnUse">
<stop stop-color="#ED1EFF"/>
<stop offset="1" stop-color="#00D1FF"/>
</linearGradient>
<linearGradient id="paint32_linear" x1="278.951" y1="39.2394" x2="278.951" y2="167.149" gradientUnits="userSpaceOnUse">
<stop stop-color="#ED1EFF"/>
<stop offset="1" stop-color="#00D1FF"/>
</linearGradient>
<linearGradient id="paint33_linear" x1="278.768" y1="44.4386" x2="278.768" y2="172.599" gradientUnits="userSpaceOnUse">
<stop stop-color="#ED1EFF"/>
<stop offset="1" stop-color="#00D1FF"/>
</linearGradient>
<linearGradient id="paint34_linear" x1="278.473" y1="50.2757" x2="278.473" y2="178.069" gradientUnits="userSpaceOnUse">
<stop stop-color="#ED1EFF"/>
<stop offset="1" stop-color="#00D1FF"/>
</linearGradient>
<linearGradient id="paint35_linear" x1="278.104" y1="56.109" x2="278.104" y2="183.24" gradientUnits="userSpaceOnUse">
<stop stop-color="#ED1EFF"/>
<stop offset="1" stop-color="#00D1FF"/>
</linearGradient>
<linearGradient id="paint36_linear" x1="277.621" y1="61.8027" x2="277.621" y2="188.631" gradientUnits="userSpaceOnUse">
<stop stop-color="#ED1EFF"/>
<stop offset="1" stop-color="#00D1FF"/>
</linearGradient>
<linearGradient id="paint37_linear" x1="277.065" y1="67.3643" x2="277.065" y2="194.022" gradientUnits="userSpaceOnUse">
<stop stop-color="#ED1EFF"/>
<stop offset="1" stop-color="#00D1FF"/>
</linearGradient>
<linearGradient id="paint38_linear" x1="276.426" y1="72.6708" x2="276.426" y2="199.404" gradientUnits="userSpaceOnUse">
<stop stop-color="#ED1EFF"/>
<stop offset="1" stop-color="#00D1FF"/>
</linearGradient>
<linearGradient id="paint39_linear" x1="275.714" y1="77.5413" x2="275.714" y2="204.741" gradientUnits="userSpaceOnUse">
<stop stop-color="#ED1EFF"/>
<stop offset="1" stop-color="#00D1FF"/>
</linearGradient>
<linearGradient id="paint40_linear" x1="274.936" y1="81.8745" x2="274.936" y2="210.07" gradientUnits="userSpaceOnUse">
<stop stop-color="#ED1EFF"/>
<stop offset="1" stop-color="#00D1FF"/>
</linearGradient>
<linearGradient id="paint41_linear" x1="274.102" y1="85.5682" x2="274.102" y2="215.389" gradientUnits="userSpaceOnUse">
<stop stop-color="#ED1EFF"/>
<stop offset="1" stop-color="#00D1FF"/>
</linearGradient>
<linearGradient id="paint42_linear" x1="273.197" y1="88.5865" x2="273.197" y2="220.663" gradientUnits="userSpaceOnUse">
<stop stop-color="#ED1EFF"/>
<stop offset="1" stop-color="#00D1FF"/>
</linearGradient>
<linearGradient id="paint43_linear" x1="272.25" y1="91.0263" x2="272.25" y2="225.917" gradientUnits="userSpaceOnUse">
<stop stop-color="#ED1EFF"/>
<stop offset="1" stop-color="#00D1FF"/>
</linearGradient>
<linearGradient id="paint44_linear" x1="271.276" y1="92.9745" x2="271.276" y2="231.161" gradientUnits="userSpaceOnUse">
<stop stop-color="#ED1EFF"/>
<stop offset="1" stop-color="#00D1FF"/>
</linearGradient>
<linearGradient id="paint45_linear" x1="270.243" y1="94.5122" x2="270.243" y2="236.369" gradientUnits="userSpaceOnUse">
<stop stop-color="#ED1EFF"/>
<stop offset="1" stop-color="#00D1FF"/>
</linearGradient>
<linearGradient id="paint46_linear" x1="269.196" y1="95.8975" x2="269.196" y2="241.564" gradientUnits="userSpaceOnUse">
<stop stop-color="#ED1EFF"/>
<stop offset="1" stop-color="#00D1FF"/>
</linearGradient>
<linearGradient id="paint47_linear" x1="268.118" y1="96.7816" x2="268.118" y2="247.191" gradientUnits="userSpaceOnUse">
<stop stop-color="#ED1EFF"/>
<stop offset="1" stop-color="#00D1FF"/>
</linearGradient>
<linearGradient id="paint48_linear" x1="267.018" y1="97.544" x2="267.018" y2="252.311" gradientUnits="userSpaceOnUse">
<stop stop-color="#ED1EFF"/>
<stop offset="1" stop-color="#00D1FF"/>
</linearGradient>
<linearGradient id="paint49_linear" x1="265.919" y1="98.2127" x2="265.919" y2="257.4" gradientUnits="userSpaceOnUse">
<stop stop-color="#ED1EFF"/>
<stop offset="1" stop-color="#00D1FF"/>
</linearGradient>
<linearGradient id="paint50_linear" x1="264.798" y1="98.8341" x2="264.798" y2="262.461" gradientUnits="userSpaceOnUse">
<stop stop-color="#ED1EFF"/>
<stop offset="1" stop-color="#00D1FF"/>
</linearGradient>
<linearGradient id="paint51_linear" x1="263.693" y1="99.4652" x2="263.693" y2="267.357" gradientUnits="userSpaceOnUse">
<stop stop-color="#ED1EFF"/>
<stop offset="1" stop-color="#00D1FF"/>
</linearGradient>
<linearGradient id="paint52_linear" x1="262.591" y1="100.114" x2="262.591" y2="272.341" gradientUnits="userSpaceOnUse">
<stop stop-color="#ED1EFF"/>
<stop offset="1" stop-color="#00D1FF"/>
</linearGradient>
<linearGradient id="paint53_linear" x1="261.491" y1="100.821" x2="261.491" y2="277.203" gradientUnits="userSpaceOnUse">
<stop stop-color="#ED1EFF"/>
<stop offset="1" stop-color="#00D1FF"/>
</linearGradient>
<linearGradient id="paint54_linear" x1="260.417" y1="101.605" x2="260.417" y2="282.131" gradientUnits="userSpaceOnUse">
<stop stop-color="#ED1EFF"/>
<stop offset="1" stop-color="#00D1FF"/>
</linearGradient>
<linearGradient id="paint55_linear" x1="259.362" y1="102.483" x2="259.362" y2="287.006" gradientUnits="userSpaceOnUse">
<stop stop-color="#ED1EFF"/>
<stop offset="1" stop-color="#00D1FF"/>
</linearGradient>
<linearGradient id="paint56_linear" x1="258.34" y1="103.512" x2="258.34" y2="291.802" gradientUnits="userSpaceOnUse">
<stop stop-color="#ED1EFF"/>
<stop offset="1" stop-color="#00D1FF"/>
</linearGradient>
<linearGradient id="paint57_linear" x1="257.363" y1="104.687" x2="257.363" y2="296.609" gradientUnits="userSpaceOnUse">
<stop stop-color="#ED1EFF"/>
<stop offset="1" stop-color="#00D1FF"/>
</linearGradient>
<linearGradient id="paint58_linear" x1="256.425" y1="106.062" x2="256.425" y2="301.343" gradientUnits="userSpaceOnUse">
<stop stop-color="#ED1EFF"/>
<stop offset="1" stop-color="#00D1FF"/>
</linearGradient>
<linearGradient id="paint59_linear" x1="255.539" y1="107.634" x2="255.539" y2="306.089" gradientUnits="userSpaceOnUse">
<stop stop-color="#ED1EFF"/>
<stop offset="1" stop-color="#00D1FF"/>
</linearGradient>
<linearGradient id="paint60_linear" x1="254.704" y1="109.446" x2="254.704" y2="310.789" gradientUnits="userSpaceOnUse">
<stop stop-color="#ED1EFF"/>
<stop offset="1" stop-color="#00D1FF"/>
</linearGradient>
<linearGradient id="paint61_linear" x1="253.931" y1="111.529" x2="253.931" y2="315.451" gradientUnits="userSpaceOnUse">
<stop stop-color="#ED1EFF"/>
<stop offset="1" stop-color="#00D1FF"/>
</linearGradient>
<linearGradient id="paint62_linear" x1="253.214" y1="113.902" x2="253.214" y2="320.059" gradientUnits="userSpaceOnUse">
<stop stop-color="#ED1EFF"/>
<stop offset="1" stop-color="#00D1FF"/>
</linearGradient>
<linearGradient id="paint63_linear" x1="252.578" y1="116.587" x2="252.578" y2="324.962" gradientUnits="userSpaceOnUse">
<stop stop-color="#ED1EFF"/>
<stop offset="1" stop-color="#00D1FF"/>
</linearGradient>
<linearGradient id="paint64_linear" x1="252.027" y1="119.616" x2="252.027" y2="329.484" gradientUnits="userSpaceOnUse">
<stop stop-color="#ED1EFF"/>
<stop offset="1" stop-color="#00D1FF"/>
</linearGradient>
<linearGradient id="paint65_linear" x1="251.567" y1="123.012" x2="251.567" y2="333.961" gradientUnits="userSpaceOnUse">
<stop stop-color="#ED1EFF"/>
<stop offset="1" stop-color="#00D1FF"/>
</linearGradient>
<linearGradient id="paint66_linear" x1="251.192" y1="126.798" x2="251.192" y2="338.395" gradientUnits="userSpaceOnUse">
<stop stop-color="#ED1EFF"/>
<stop offset="1" stop-color="#00D1FF"/>
</linearGradient>
<linearGradient id="paint67_linear" x1="250.91" y1="130.966" x2="250.91" y2="342.774" gradientUnits="userSpaceOnUse">
<stop stop-color="#ED1EFF"/>
<stop offset="1" stop-color="#00D1FF"/>
</linearGradient>
<linearGradient id="paint68_linear" x1="250.741" y1="135.528" x2="250.741" y2="347.094" gradientUnits="userSpaceOnUse">
<stop stop-color="#ED1EFF"/>
<stop offset="1" stop-color="#00D1FF"/>
</linearGradient>
<linearGradient id="paint69_linear" x1="250.689" y1="140.518" x2="250.689" y2="351.367" gradientUnits="userSpaceOnUse">
<stop stop-color="#ED1EFF"/>
<stop offset="1" stop-color="#00D1FF"/>
</linearGradient>
<linearGradient id="paint70_linear" x1="250.771" y1="146.625" x2="250.771" y2="355.54" gradientUnits="userSpaceOnUse">
<stop stop-color="#ED1EFF"/>
<stop offset="1" stop-color="#00D1FF"/>
</linearGradient>
<linearGradient id="paint71_linear" x1="251.023" y1="154.558" x2="251.023" y2="359.72" gradientUnits="userSpaceOnUse">
<stop stop-color="#ED1EFF"/>
<stop offset="1" stop-color="#00D1FF"/>
</linearGradient>
<linearGradient id="paint72_linear" x1="251.431" y1="164.011" x2="251.431" y2="363.89" gradientUnits="userSpaceOnUse">
<stop stop-color="#ED1EFF"/>
<stop offset="1" stop-color="#00D1FF"/>
</linearGradient>
<linearGradient id="paint73_linear" x1="251.979" y1="174.54" x2="251.979" y2="367.995" gradientUnits="userSpaceOnUse">
<stop stop-color="#ED1EFF"/>
<stop offset="1" stop-color="#00D1FF"/>
</linearGradient>
<linearGradient id="paint74_linear" x1="252.635" y1="186.32" x2="252.635" y2="371.983" gradientUnits="userSpaceOnUse">
<stop stop-color="#ED1EFF"/>
<stop offset="1" stop-color="#00D1FF"/>
</linearGradient>
<linearGradient id="paint75_linear" x1="253.382" y1="198.945" x2="253.382" y2="375.94" gradientUnits="userSpaceOnUse">
<stop stop-color="#ED1EFF"/>
<stop offset="1" stop-color="#00D1FF"/>
</linearGradient>
<linearGradient id="paint76_linear" x1="254.191" y1="212.229" x2="254.191" y2="379.8" gradientUnits="userSpaceOnUse">
<stop stop-color="#ED1EFF"/>
<stop offset="1" stop-color="#00D1FF"/>
</linearGradient>
<linearGradient id="paint77_linear" x1="255.06" y1="225.965" x2="255.06" y2="383.553" gradientUnits="userSpaceOnUse">
<stop stop-color="#ED1EFF"/>
<stop offset="1" stop-color="#00D1FF"/>
</linearGradient>
<linearGradient id="paint78_linear" x1="255.943" y1="239.919" x2="255.943" y2="387.38" gradientUnits="userSpaceOnUse">
<stop stop-color="#ED1EFF"/>
<stop offset="1" stop-color="#00D1FF"/>
</linearGradient>
<linearGradient id="paint79_linear" x1="256.828" y1="253.972" x2="256.828" y2="391.022" gradientUnits="userSpaceOnUse">
<stop stop-color="#ED1EFF"/>
<stop offset="1" stop-color="#00D1FF"/>
</linearGradient>
<linearGradient id="paint80_linear" x1="257.706" y1="267.925" x2="257.706" y2="394.671" gradientUnits="userSpaceOnUse">
<stop stop-color="#ED1EFF"/>
<stop offset="1" stop-color="#00D1FF"/>
</linearGradient>
<clipPath id="clip0">
<rect width="558" height="275" fill="white"/>
</clipPath>
</defs>
</svg>
