<svg viewBox="0 0 558 275" fill="none" xmlns="http://www.w3.org/2000/svg">
    <g clip-path="url(#clip0)">
        <g filter="url(#filter0_d)">
            <rect width="558" height="275" rx="4" transform="matrix(-1 0 0 1 558 0)" fill="url(#paint0_linear)"/>
        </g>
        <g opacity=".08" stroke-miterlimit="10" stroke-linecap="round">
            <path d="M597.928-92.663c-19.528 1.771-39.899-1.772-56.437 6.964-17.816 9.408-27.202 26.062-38.665 38.92-13.427 15.063-25.881 31.272-49.676 37.652-39.082 10.478-88.227 2.339-128.726-7.543-76.947-18.782-154.919-40.681-225.618-68.503-44.305-17.437-88.618-40.096-138.468-49.937-11.985-2.368-25.142-4.081-37.552-2.158" stroke="url(#paint1_linear)"/>
            <path d="M599.284-89.4c-20.545 1.514-40.82-.796-57.758 8.817-37.396 21.232-43.94 64.62-89.531 76.94-38.847 10.503-88.271 2.387-128.396-7.724-76.434-19.255-153.173-41.522-223.897-68.958-44.688-17.332-90.148-39.178-140.624-48.253-12.219-2.199-25.559-3.743-38.1-1.754" stroke="url(#paint2_linear)"/>
            <path d="M600.9-86.524c-21.683 1.34-41.793.737-59.27 10.906-37.205 21.647-45.157 65.081-90.948 77.484-38.769 10.502-88.158 2.427-127.9-8.005-75.713-19.87-151.165-42.61-221.968-69.42C55.562-92.7 8.806-113.604-42.365-121.814c-12.488-2.006-26.046-3.362-38.725-1.28" stroke="url(#paint3_linear)"/>
            <path d="M602.716-83.963c-23.047 1.298-43.062 2.485-61.06 13.403-36.64 22.226-46.678 65.45-92.46 77.928-38.621 10.525-87.897 2.456-127.257-8.385-74.809-20.606-148.915-43.908-219.857-69.906-46-16.858-94.145-36.71-146.09-43.996-12.775-1.789-26.567-2.947-39.42-.766" stroke="url(#paint4_linear)"/>
            <path d="M604.69-81.635c-24.595 1.386-44.349 4.385-63.06 16.185-33.711 21.256-47.459 67.257-94.076 78.327-41.194 9.782-87.515 2.485-126.458-8.853-73.714-21.46-146.429-45.382-217.553-70.415-46.903-16.507-96.5-35.201-149.27-41.528-13.08-1.567-27.115-2.509-40.151-.223" stroke="url(#paint5_linear)"/>
            <path d="M606.775-79.454c-26.142 1.573-45.87 6.543-65.111 18.963-17.59 11.35-27.167 26.214-41.124 39.447-14.861 14.092-29.227 33.33-54.786 39.435-41.124 9.824-87.019 2.515-125.519-9.408C247.781-13.454 176.526-38.02 105.167-61.97 57.23-78.062 6.12-95.51-47.51-100.867c-13.384-1.333-27.662-2.064-40.898.327" stroke="url(#paint6_linear)"/>
            <path d="M608.912-77.343c-27.332 1.842-47.624 8.964-67.309 21.928C523.31-43.37 512.889-27.91 497.95-14.068c-14.757 13.677-29.27 32.003-54.16 37.979-41.089 9.859-86.429 2.55-124.459-10.046C248.268-9.67 178.586-34.867 106.932-57.66 57.838-73.28 5.216-89.418-49.309-93.81c-13.68-1.099-28.201-1.613-41.646.872" stroke="url(#paint7_linear)"/>
            <path d="M611.06-75.214c-28.584 2.198-49.276 11.32-69.508 24.81-19.007 12.672-30.339 28.828-46.252 43.207-14.696 13.28-29.331 30.775-53.621 36.622-41.098 9.906-85.759 2.597-123.286-10.753-69.577-24.758-137.512-50.54-209.549-72.14C58.474-68.572 4.4-83.308-51.046-86.798c-13.949-.877-28.706-1.181-42.35 1.386" stroke="url(#paint8_linear)"/>
            <path d="M613.163-72.993c-29.8 2.626-50.91 13.678-71.733 27.67-19.189 12.9-30.765 29.091-47.26 43.511-15.191 13.28-30.243 30.834-54.751 36.763-41.133 9.958-85.029 2.666-122.008-11.537-68.004-26.109-134.001-52.405-206.516-72.8C59.221-63.923 3.67-77.284-52.68-79.881c-14.21-.655-29.158-.766-43.01 1.854" stroke="url(#paint9_linear)"/>
            <path d="M615.179-70.595c-30.921 3.14-52.422 15.946-73.914 30.389-19.953 13.408-32.451 30.278-49.919 45.16-15.261 13.004-30.487 29.617-54.325 35.51-40.898 10.111-84.256 2.755-120.626-12.372-66.362-27.6-130.204-54.293-203.31-73.52C60.081-59.368 3.114-71.355-54.149-73.115c-14.435-.445-29.548-.392-43.583 2.263" stroke="url(#paint10_linear)"/>
            <path d="M617.056-67.94c-31.982 3.567-53.882 18.08-76.008 32.903-19.685 13.192-31.626 29.547-49.285 43.961-16.391 13.379-32.312 30.886-57.28 37.061-41.064 10.157-83.465 2.871-119.167-13.268-31.799-14.373-61.92-30.325-95.605-42.744-33.346-12.292-68.587-22.8-104.314-31.559C61.063-54.901 2.757-65.526-55.401-66.531c-14.617-.251-29.852-.058-44.061 2.59" stroke="url(#paint11_linear)"/>
            <path d="M618.751-64.94c-32.816 4.052-55.073 20.015-77.955 35.09C520.199-16.284 507.484.755 488.86 15.602c-16.338 13.028-32.616 29.868-57.045 35.915-41.281 10.21-82.674 3.017-117.637-14.21-30.504-15.033-59.314-31.529-92.251-44.206-32.877-12.66-68.248-22.764-104.097-30.945C62.193-50.544 2.644-59.848-56.383-60.187c-14.756-.082-30.06.228-44.409 2.819" stroke="url(#paint12_linear)"/>
            <path d="M620.202-61.526c-33.242 4.456-56.298 21.419-79.615 36.675-20.936 13.695-33.833 30.904-52.996 45.791-16.851 13.087-33.832 29.974-58.583 36.096-41.533 10.28-81.919 3.199-116.047-15.197-29.14-15.706-56.602-32.752-88.775-45.715-32.381-13.052-67.883-22.735-103.827-30.372-56.88-12.08-117.55-20.12-177.411-19.899-14.844.053-30.157.45-44.618 2.93" stroke="url(#paint13_linear)"/>
            <path d="M621.366-57.603c-33.328 4.801-57.497 22.589-81.04 37.827-20.744 13.42-33.137 30.272-52.318 44.715-17.902 13.485-36.066 31.179-61.92 37.617-15.426 3.842-32.295 4.795-48.833 4.38-26.133-.655-44.01-7.941-63.538-19.373-28.149-16.472-54.264-34.336-85.855-47.955-32.103-13.835-68.412-23.097-104.826-30.348C64.591-42.376 2.357-49.23-58.729-48.416c-14.41.193-29.14.649-43.236 2.888" stroke="url(#paint14_linear)"/>
            <path d="M622.218-53.135c-33.407 5.771-57.958 23.039-82.205 38.447C518.321-.9 505.164 16.63 484.984 31.506c-18.137 13.373-36.344 30.138-62.086 36.576-15.478 3.87-32.425 4.841-49.033 4.42-26.133-.654-42.992-8.414-61.634-20.419C285.586 34.915 260.93 16.49 230.113 2.52c-31.512-14.279-67.935-23.126-104.34-29.91C66.363-38.463 3.253-44.246-58.469-43.1c-14.365.269-29.07.76-43.079 3.087" stroke="url(#paint15_linear)"/>
            <path d="M622.791-48.176c-33.346 6.502-58.288 23.214-83.135 38.64-22.152 13.753-35.397 31.505-56.098 46.364-18.789 13.49-37.709 30.26-63.972 36.792-15.591 3.876-32.581 4.894-49.311 4.473-26.15-.667-41.958-8.923-59.626-21.49-25.099-17.846-48.277-36.844-78.312-51.176-30.869-14.73-67.387-23.197-103.723-29.57C68.666-34.663 4.816-39.715-57.183-37.833c-14.41.44-29.157 1.106-43.175 3.562" stroke="url(#paint16_linear)"/>
            <path d="M623.113-42.796c-33.181 7.034-58.506 23.132-83.848 38.43-22.656 13.67-35.961 31.669-57.175 46.492-19.467 13.601-39.117 30.389-65.919 37.014-14.931 3.69-31.234 4.883-47.277 4.608-28.949-.497-43.471-9.496-61.739-24.08-22.387-17.864-43.514-36.505-71.437-50.715-30.547-15.548-67.717-23.886-104.592-29.91C71.248-30.738 7.788-34.983-53.802-32.504c-14.913.603-30.2 1.433-44.67 4.111" stroke="url(#paint17_linear)"/>
            <path d="M623.209-37.037C590.289-29.628 564.6-14.221 538.832.83c-22.552 13.174-35.215 31.02-56.42 45.335-20.779 14.034-41.654 31.588-69.777 38.487-15.348 3.766-32.095 5.012-48.555 4.65-27.28-.603-41.055-9.778-57.089-23.84-21.162-18.566-40.585-38.15-67.874-53.037-30.104-16.43-68.221-24.295-105.452-30.055-60.513-9.36-124.755-12.7-186.71-9.274-14.383.796-29.062 1.83-42.975 4.544" stroke="url(#paint18_linear)"/>
            <path d="M623.122-30.955C590.532-23.36 564.46-8.66 538.379 6.04c-23.082 13.01-35.788 31.15-57.48 45.417-21.518 14.15-43.219 31.787-71.906 38.722-15.505 3.748-32.356 5.087-49.024 4.713-27.402-.614-40.108-10.362-54.96-24.951-19.511-19.168-37.353-39.336-63.911-54.615-29.305-16.858-67.796-24.232-104.81-29.582-60.6-8.754-124.823-11.175-186.544-6.976-14.349.976-28.975 2.193-42.828 5.029" stroke="url(#paint19_linear)"/>
            <path d="M622.87-24.617c-32.217 7.654-58.645 21.6-84.969 35.868-12.384 6.707-20.014 12.706-28.158 22.045-8.134 9.32-18.858 16.04-30.399 23.436C457.069 71 434.569 88.66 405.256 95.694c-15.965 3.83-33.259 5.198-50.397 4.759-28.306-.719-39.404-12.016-53.404-27.658-18.042-20.156-34.98-41.2-62.113-56.644-27.749-15.794-65.449-22.343-100.42-26.98-60.174-7.976-123.625-9.484-184.564-4.736-14.8 1.152-29.895 2.573-44.148 5.62" stroke="url(#paint20_linear)"/>
            <path d="M622.479-18.068c-31.808 7.608-58.584 20.764-85.09 34.523-12.706 6.596-20.206 12.607-28.488 22.004-8.317 9.432-19.319 16.127-31.173 23.524-23.057 14.39-46.365 32.073-76.322 39.207-16.442 3.918-34.206 5.345-51.839 4.801-26.768-.824-36.979-12.057-48.938-27.085-16.66-20.934-31.868-42.885-58.505-59.077-27.306-16.6-65.276-22.717-100.62-27.09-60.47-7.491-124.442-8.023-185.355-2.322-14.244 1.333-28.705 2.894-42.401 5.94" stroke="url(#paint21_linear)"/>
            <path d="M621.992-11.367C590.61-3.894 563.504 8.438 536.876 21.66c-13.045 6.473-20.406 12.514-28.827 21.969-8.508 9.549-19.788 16.215-31.964 23.618-23.856 14.501-47.99 32.219-78.616 39.452-15.869 3.748-32.885 5.251-49.893 4.912-29.626-.585-38.995-13.22-50.579-29.991-14.175-20.501-27.619-42.072-52.153-58.124C218.416 6.205 179.316.287 144.015-3.66 73.377-11.56-13.268-13.273-82.55 2.72" stroke="url(#paint22_linear)"/>
            <path d="M621.436-4.572c-31.017 7.286-58.279 18.812-85.09 31.413-13.349 6.274-19.927 11.806-28.522 21.167-8.648 9.403-19.172 16.028-31.4 23.267-24.907 14.747-50.745 33.693-82.987 40.915-16.608 3.719-33.876 5.379-51.396 4.964-28.323-.666-36.345-12.94-46.417-29.319-13.019-21.185-24.517-43.51-48.581-60.386C221.154 9.293 182.072 3.814 146.362.124 75.672-7.191-9.966-7.168-78.822 9.088" stroke="url(#paint23_linear)"/>
            <path d="M620.828 2.263c-30.626 7.035-58.149 17.712-85.021 29.735-13.696 6.128-20.127 11.724-28.879 21.138-8.847 9.525-19.632 16.121-32.181 23.366-25.759 14.87-52.57 33.804-85.438 41.172-15.878 3.561-32.538 5.315-49.337 5.116-29.061-.345-36.761-11.098-46.078-28.459-11.723-21.834-21.3-45.183-44.739-62.953-24.96-18.922-64.919-24.191-100.62-27.46C77.462-2.584-6.429-.947-75.145 15.426" stroke="url(#paint24_linear)"/>
            <path d="M620.212 9.088c-30.27 6.748-58.037 16.583-84.943 28.044-14.035 5.982-20.353 11.666-29.244 21.127-9.056 9.642-20.11 16.215-32.981 23.46-26.637 14.998-54.325 33.956-87.932 41.429a219.121 219.121 0 01-50.884 5.18c-30.148-.473-36.196-13.542-44.253-31.336-10.185-22.5-18.876-46.972-43.418-64.713-23.926-17.291-62.79-21.606-96.093-24.349C79.21 2.06-3.108 5.375-71.626 21.736" stroke="url(#paint25_linear)"/>
            <path d="M619.619 15.835c-29.948 6.444-57.966 15.443-84.873 26.39-14.365 5.84-20.588 11.636-29.626 21.15-9.273 9.759-20.597 16.308-33.789 23.553-28.384 15.583-56.455 33.441-90.479 41.692-16.382 3.976-34.632 5.596-52.491 5.239-31.174-.625-35.432-16.302-42.254-34.36-7.735-20.453-14.635-42.381-34.033-59.561-23.195-20.542-63.928-25.366-99.951-27.968C80.955 6.83-.163 11.76-68.367 27.974" stroke="url(#paint26_linear)"/>
            <path d="M619.064 22.46c-29.696 6.129-57.95 14.327-84.847 24.811-14.679 5.719-20.849 11.636-30.044 21.203-9.49 9.882-21.092 16.396-34.623 23.647-29.27 15.683-58.262 33.599-93.06 41.955-16.616 3.994-35.093 5.69-53.187 5.315-31.547-.649-34.641-17.027-40.376-35.248-6.51-20.676-12.08-43.054-31-60.573-22.3-20.642-63.051-25.15-98.517-27.39C81.92 11.666 2.792 18.291-65.508 34.114" stroke="url(#paint27_linear)"/>
            <path d="M618.586 28.898c-29.444 5.824-58.088 13.169-84.864 23.355-14.027 5.333-21.093 11.274-29.714 20.513-10.437 11.186-23.186 17.694-38.551 25.752-29.383 15.414-58.68 32.775-93.39 41.014-17.129 4.069-36.266 5.911-54.882 5.373-30.165-.871-32.346-16.466-37.083-33.932-6.092-22.49-9.829-47.546-31.529-66.205-21.744-18.7-61.261-22.325-94.259-24.161C82.303 16.595 5.591 24.94-63.118 40.155" stroke="url(#paint28_linear)"/>
            <path d="M618.221 35.103c-29.314 5.532-58.219 12.18-84.986 22.086-14.279 5.286-21.388 11.35-30.166 20.647-10.689 11.32-23.751 17.805-39.481 25.863-30.278 15.507-60.513 32.921-95.997 41.265-17.625 4.146-37.518 6.175-56.655 5.421-28.435-1.123-30.495-15.777-34.084-32.272-5.258-24.156-7.214-52.528-32.173-71.953-21.24-16.53-59.488-19.688-89.888-21.12C82.424 21.63 7.728 31.716-61.293 46.014" stroke="url(#paint29_linear)"/>
            <path d="M617.986 41.009c-29.296 5.274-58.392 11.396-85.22 21.091-14.531 5.251-21.701 11.444-30.661 20.8-10.959 11.443-24.334 17.922-40.429 25.98-31.173 15.606-62.364 33.067-98.639 41.51-18.094 4.21-38.856 6.497-58.497 5.468-29.218-1.527-29.331-18.005-32.129-35.149-3.589-22.01-4.867-47.013-24.091-66-20.266-20.022-60.339-23.577-93.598-24.95C81.964 26.746 9.38 38.598-60.207 51.72" stroke="url(#paint30_linear)"/>
            <path d="M617.916 46.575c-29.331 5.129-58.644 11.087-85.663 20.478-16.243 5.649-23.361 13.239-33.346 23.244-10.846 10.864-26.038 17.326-41.533 24.921-31.286 15.344-62.764 32.231-98.935 40.581-18.354 4.24-39.386 6.596-59.27 5.55-29.557-1.556-28.853-18.391-30.939-35.64-2.668-22.051-2.711-47.44-21.691-66.603-19.719-19.892-59.696-23.372-92.408-24.541C80.964 31.957 10.335 45.546-59.876 57.218" stroke="url(#paint31_linear)"/>
            <path d="M617.856 52.066c-29.235 5.35-58.923 10.742-86.107 19.91-16.53 5.573-23.699 13.338-33.876 23.39-11.115 10.976-26.672 17.42-42.515 25.016-32.199 15.443-64.615 32.353-101.611 40.803-18.833 4.298-40.794 6.976-61.165 5.602-30.078-2.024-27.671-21.688-29-38.529-1.747-22.062-1.191-48.78-22.162-67.222-19.64-17.273-58.557-20.665-88.47-21.56C81.347 37.332 8.893 50.132-59.954 62.317" stroke="url(#paint32_linear)"/>
            <path d="M617.716 57.674c-29.052 5.52-59.244 10.192-86.463 19.197-16.356 5.415-23.395 12.852-33.685 22.723-11.385 10.923-25.681 17.244-41.784 24.781-33.955 15.882-67.987 33.442-106.783 42.172-19.11 4.303-41.332 7.075-61.964 5.695-30.426-2.029-27.332-21.875-28.114-38.815-1.017-21.945.634-49.083-20.31-67.485-19.398-17.04-58.002-20.583-87.524-21.326-70.42-1.771-143.483 9.988-211.27 22.326" stroke="url(#paint33_linear)"/>
            <path d="M617.491 63.393c-28.94 5.672-59.418 9.677-86.768 18.413-16.634 5.315-23.725 12.935-34.197 22.834-11.655 11.029-26.29 17.338-42.75 24.869-34.893 15.975-69.916 33.576-109.572 42.388-19.284 4.286-41.967 7.274-62.772 5.783-30.044-2.157-26.733-22.401-27.289-39.06-.73-21.829 1.452-48.914-19.197-67.333-19.024-16.97-57.454-20.016-86.542-20.794-69.317-1.848-142.127 8.339-208.95 20.63" stroke="url(#paint34_linear)"/>
            <path d="M617.196 69.205c-28.897 5.818-59.418 9.239-87.037 17.571-16.347 4.93-23.839 12.409-33.789 22.098-11.429 11.122-25.621 17.244-42.089 24.629-36.64 16.431-73.428 34.64-114.891 43.739-19.18 4.21-39.942 6.444-60.522 5.923-31.425-.789-28.835-19.706-29.574-36.903-.956-22.331 2.312-49.083-17.929-68.31C212.55 60.09 175.519 57.476 145.38 56.47 77.454 54.2 4.765 62.925-60.988 74.894" stroke="url(#paint35_linear)"/>
            <path d="M616.822 75.117c-28.784 5.917-59.488 8.596-87.22 16.595-16.616 4.795-24.16 12.466-34.276 22.179-11.689 11.233-26.219 17.332-43.027 24.711-37.622 16.525-75.426 34.775-117.767 43.949-19.45 4.216-40.507 6.532-61.348 6.006-31.164-.784-28.383-20.057-29.07-36.997-.904-22.167 2.338-48.609-17.433-67.795-18.251-17.712-55.108-20.156-84.708-21.372C75.403 59.656 3.105 66.69-61.58 78.25" stroke="url(#paint36_linear)"/>
            <path d="M616.387 81.116c-28.627 5.976-59.6 7.736-87.306 15.49-16.486 4.613-23.813 12.004-34.059 21.53-13.123 12.209-28.705 18.671-47.303 26.682-37.726 16.261-75.774 33.997-118.071 43.042-19.737 4.222-41.072 6.626-62.173 6.088-30.887-.79-28.036-20.279-28.723-36.997-.904-21.975 2.225-48.083-17.112-67.181-17.72-17.507-54.316-19.916-83.378-21.407-65.128-3.34-136.912 1.883-200.52 12.893" stroke="url(#paint37_linear)"/>
            <path d="M615.892 87.197c-28.54 6.035-59.583 6.947-87.376 14.35-16.756 4.462-24.143 12.051-34.528 21.594-13.427 12.327-29.366 18.759-48.32 26.77-38.7 16.343-77.738 34.12-120.931 43.247-20.005 4.228-41.645 6.725-63.015 6.169-30.6-.795-27.793-20.384-28.532-36.908-.973-21.765 1.982-47.505-16.955-66.468-17.243-17.267-53.474-19.764-81.997-21.589C70.648 70.298-.528 73.585-63.04 83.93" stroke="url(#paint38_linear)"/>
            <path d="M615.336 93.349c-28.471 6.075-59.514 6.093-87.393 13.127-17.017 4.292-24.464 12.099-35.006 21.648-13.723 12.437-30.026 18.846-49.346 26.845-39.673 16.425-79.71 34.243-123.789 43.446-20.276 4.234-42.22 6.824-63.859 6.245-30.305-.807-27.654-20.372-28.488-36.733-1.095-21.536 1.634-46.873-16.956-65.672-16.799-16.987-52.596-19.694-80.571-21.905-61.982-4.894-132.445-3.678-193.836 5.912" stroke="url(#paint39_linear)"/>
            <path d="M614.736 99.576c-28.496 6.099-59.27 5.398-87.402 11.882-16.877 3.895-24.464 11.491-34.562 20.87-14.583 13.554-32.938 20.255-53.926 28.781-39.751 16.15-79.989 33.482-123.998 42.557-20.554 4.24-42.81 6.918-64.711 6.321-30-.818-27.61-20.255-28.575-36.476-1.268-21.284 1.174-46.194-17.094-64.789-16.399-16.683-51.683-19.694-79.103-22.35-60.287-5.829-129.95-6.8-190.23 1.954" stroke="url(#paint40_linear)"/>
            <path d="M614.076 105.868c-28.488 6.111-59.106 4.45-87.324 10.532-17.121 3.689-24.786 11.525-35.006 20.904-14.896 13.666-33.676 20.343-55.038 28.857-40.716 16.227-81.927 33.594-126.814 42.745-20.823 4.245-43.392 7.017-65.562 6.397-29.696-.831-27.654-20.045-28.792-36.149-1.495-21.016.608-45.475-17.373-63.83-16.034-16.361-50.736-19.77-77.59-22.91-58.514-6.842-127.292-10.14-186.45-2.281" stroke="url(#paint41_linear)"/>
            <path d="M613.38 112.213c-28.505 6.116-58.897 3.461-87.211 9.116-17.355 3.467-25.124 11.566-35.458 20.928-15.208 13.782-34.423 20.425-56.15 28.921-41.68 16.297-83.865 33.705-129.638 42.926-21.093 4.251-43.984 7.116-66.423 6.467-29.375-.848-27.775-19.741-29.131-35.745-1.764-20.729-.044-44.715-17.781-62.801-15.722-16.022-49.763-19.917-76.044-23.589-56.68-7.929-124.476-13.671-182.53-6.754" stroke="url(#paint42_linear)" stroke-width="1.417"/>
            <path d="M612.65 118.604c-28.523 6.104-58.758 2.175-87.02 7.595-18.728 3.597-27.175 13.485-38.517 23.314-14.044 12.186-32.285 18.08-51.9 25.594-43.584 16.7-87.567 34.687-135.27 44.177-21.371 4.252-44.575 7.21-67.275 6.538-29.052-.86-27.966-19.355-29.591-35.272-2.077-20.425-.782-43.92-18.294-61.702-15.443-15.682-48.763-20.121-74.453-24.372C55.553 95.406-11.183 87.08-68.15 93.033" stroke="url(#paint43_linear)" stroke-width="1.417"/>
            <path d="M611.885 125.048c-28.627 6.099-58.462 1.07-86.828 6.081-18.981 3.351-27.55 13.537-39.013 23.349-14.331 12.268-32.972 18.133-52.908 25.635-44.566 16.764-89.54 34.786-138.156 44.347-21.639 4.257-45.165 7.297-68.135 6.601-28.731-.871-28.227-18.893-30.147-34.739-2.442-20.098-1.582-43.101-18.903-60.55-15.226-15.338-47.755-20.39-72.819-25.255C52.163 100.261-13.416 89.238-69.332 94.203" stroke="url(#paint44_linear)" stroke-width="1.417"/>
            <path d="M611.086 131.521c-28.775 6.087-58.123-.07-86.611 4.526-19.224 3.105-27.923 13.589-39.517 23.378-14.617 12.35-33.676 18.18-53.925 25.664-45.539 16.829-91.513 34.88-141.024 44.511-21.909 4.263-45.756 7.385-68.986 6.666-28.401-.877-28.54-18.367-30.808-34.149-2.834-19.747-2.451-42.259-19.615-59.346-15.061-14.998-46.73-20.711-71.16-26.225C48.645 105.079-15.692 91.232-70.6 95.209" stroke="url(#paint45_linear)" stroke-width="1.417"/>
            <path d="M610.269 138.035c-28.965 6.075-57.653-.918-86.419 3-19.328 2.631-27.411 12.893-39.126 22.547-14.843 12.227-32.468 18.01-52.865 25.425-47.46 17.238-95.571 36.125-146.803 45.727-22.187 4.157-46.199 7.473-69.838 6.724-28.062-.889-28.905-17.782-31.555-33.5-3.268-19.384-3.381-41.388-20.397-58.094-14.948-14.683-45.696-21.086-69.456-27.278-41.733-10.87-85.96-20.098-130.264-24.887-11.672-1.263-23.596-2.25-35.423-1.59" stroke="url(#paint46_linear)" stroke-width="1.417"/>
            <path d="M609.434 144.566c-29.183 6.058-57.262-2.093-86.159 1.38-19.502 2.345-27.819 12.97-39.612 22.56-15.13 12.303-33.12 18.051-53.83 25.442-48.45 17.296-97.561 36.201-149.714 45.879-22.309 4.14-50.136 9.145-73.957 6.736-25.837-2.614-26.767-19.671-29.488-34.746-3.345-18.583-4.753-39.885-21.474-55.684-14.288-13.502-45.426-21.086-67.135-27.559C48.86 116.89 7.615 106.406-34.274 99.997c-12.688-1.941-25.837-3.637-38.925-3.122" stroke="url(#paint47_linear)" stroke-width="1.417"/>
            <path d="M608.583 151.115c-29.444 6.04-56.837-3.292-85.873-.257-19.667 2.052-28.227 13.039-40.099 22.565-15.425 12.373-33.789 18.08-54.803 25.454-49.441 17.343-99.543 36.277-152.616 46.019-22.605 4.146-50.71 9.204-74.818 6.789-25.551-2.556-27.263-18.952-30.418-33.962-3.832-18.221-5.753-38.955-22.343-54.393-14.288-13.303-44.236-21.582-65.371-28.757-37.883-12.865-77.669-25.027-118.602-32.828-12.35-2.356-25.246-4.461-38.186-4.175" stroke="url(#paint48_linear)" stroke-width="1.417"/>
            <path d="M607.722 157.682c-29.748 6.029-56.454-4.877-85.525-1.988-19.023 1.889-28.331 12.566-39.629 21.875-16.208 13.35-37.457 19.56-59.8 27.267-49.407 17.051-99.56 35.505-152.469 45.107-22.909 4.157-51.266 9.244-75.661 6.835-25.264-2.491-27.784-18.203-31.417-33.131-4.336-17.852-6.796-38.014-23.256-53.071-14.374-13.151-43.01-22.098-63.59-30.015-36.57-14.069-74.852-27.922-114.83-37.125-11.992-2.76-24.628-5.286-37.43-5.222" stroke="url(#paint49_linear)" stroke-width="1.417"/>
            <path d="M606.853 164.255c-30.087 6.005-55.976-6.134-85.212-3.655-19.197 1.626-28.696 12.607-40.098 21.876-16.504 13.419-38.178 19.577-60.826 27.266-50.371 17.092-101.481 35.57-155.285 45.224-23.221 4.169-51.805 9.274-76.504 6.882-24.985-2.42-28.331-17.425-32.468-32.266-4.867-17.466-7.874-37.049-24.212-51.732-14.531-13.057-41.75-22.629-61.782-31.319-35.267-15.296-72.002-30.827-111.04-41.44-11.629-3.164-23.996-6.105-36.684-6.257" stroke="url(#paint50_linear)" stroke-width="1.417"/>
            <path d="M605.992 170.827c-30.452 5.988-55.49-7.409-84.89-5.333-19.363 1.369-29.07 12.648-40.577 21.881-16.799 13.484-38.891 19.595-61.843 27.255-51.327 17.133-103.384 35.623-158.074 45.335-23.482 4.169-51.179 8.865-76.121 6.953-24.664-1.889-29.27-14.443-34.189-29.518-5.519-16.905-8.656-35.447-23.509-50.124-14.574-14.397-41.558-24.729-62.225-34.786-34.336-16.712-69.838-34.179-108.52-46.166-10.88-3.374-22.526-6.502-34.65-6.859" stroke="url(#paint51_linear)" stroke-width="1.417"/>
            <path d="M605.133 177.388c-30.887 5.97-55.073-8.795-84.621-6.941-21.119 1.327-31.017 14.326-43.836 24.062-16.886 12.824-40.663 18.624-63.085 25.992-51.249 16.829-103.271 34.856-157.77 44.423-23.787 4.175-51.693 8.876-76.93 6.987-24.36-1.818-29.766-13.723-35.276-28.652-6.083-16.478-9.768-34.482-24.559-48.744-14.818-14.291-40.438-25.249-60.392-36.102-33.042-17.969-66.892-37.102-104.679-50.51-10.515-3.731-21.891-7.251-33.937-7.789" stroke="url(#paint52_linear)" stroke-width="1.417"/>
            <path d="M604.281 183.942c-31.304 5.947-54.569-10.069-84.3-8.607-21.239 1.041-31.451 14.396-44.357 24.062-17.172 12.859-41.393 18.612-64.093 25.951-52.17 16.858-105.105 34.897-160.464 44.516-23.952 4.164-51.18 8.52-76.548 7.046-23.864-1.385-30.739-11.811-36.865-26.108-7.64-17.823-11.75-37.658-30.079-52.335-15.747-12.607-36.666-23.191-54.786-34.166-31.947-19.355-64.64-40.581-102.002-55.258-9.838-3.865-20.553-7.549-32.086-8.222" stroke="url(#paint53_linear)" stroke-width="1.417"/>
            <path d="M603.446 190.475c-31.73 5.923-54.065-11.333-83.978-10.257-21.344.766-31.886 14.467-44.878 24.062-17.46 12.894-42.124 18.595-65.093 25.904-53.083 16.882-106.93 34.933-163.124 44.593-24.247 4.169-51.683 8.519-77.33 7.069-23.629-1.339-31.103-11.174-37.943-25.266-8.447-17.42-13.123-36.377-31.19-50.826-15.861-12.689-35.528-23.869-52.935-35.582-30.644-20.612-61.635-43.475-98.161-59.538-9.482-4.169-19.946-8.216-31.426-9.029" stroke="url(#paint54_linear)" stroke-width="1.417"/>
            <path d="M602.63 196.977c-32.112 5.9-53.491-12.35-83.604-11.975-19.102.239-29.262 11.554-40.568 20.372-18.955 14.77-41.907 20.524-67.796 28.617-55.038 17.209-110.771 35.769-168.938 45.651-24.542 4.169-52.17 8.514-78.094 7.087-23.326-1.286-31.547-10.543-39.021-24.419-9.151-16.987-14.531-35.137-32.286-49.329-16-12.794-34.406-24.565-51.092-36.985-29.357-21.857-58.636-46.311-94.355-63.73-9.125-4.45-19.336-8.853-30.782-9.783" stroke="url(#paint55_linear)" stroke-width="1.417"/>
            <path d="M601.829 203.456c-32.546 5.871-53.012-13.607-83.299-13.584-19.215.012-29.618 11.584-41.012 20.361-19.241 14.811-42.636 20.507-68.795 28.565-55.942 17.22-112.57 35.786-171.588 45.703-24.612 4.14-51.727 8.21-77.686 7.122-24.603-1.035-33.555-10.461-42.08-25.115-8.891-15.273-14.905-31.365-30.244-44.504-16.13-13.818-34.919-26.553-51.518-40.195-28.383-23.308-56.046-49.616-91.59-68.357-8.535-4.502-18.147-8.958-29.166-9.94" stroke="url(#paint56_linear)" stroke-width="1.417"/>
            <path d="M601.074 209.888c-32.981 5.841-52.561-14.847-83.004-15.163-19.32-.198-29.966 11.613-41.464 20.344-19.528 14.846-43.366 20.483-69.786 28.494-56.836 17.232-114.351 35.792-174.204 45.744-24.881 4.14-52.196 8.199-78.416 7.128-24.273-.994-33.989-9.847-43.209-24.208-9.499-14.806-16.13-30.278-31.226-43.136-16.373-13.946-33.833-27.197-49.676-41.517-27.097-24.506-53.03-52.317-87.845-72.356-8.213-4.725-17.59-9.49-28.592-10.531" stroke="url(#paint57_linear)" stroke-width="1.417"/>
            <path d="M600.345 216.28c-33.459 5.859-52.188-16.256-82.796-16.625-20.771-.251-32.225 13.368-44.818 22.49-17.764 12.864-41.168 18.22-64.528 25.196-58.792 17.56-118.219 36.582-180.036 46.75-24.89 4.093-51.813 7.947-77.99 7.146-25.55-.784-35.962-9.783-46.382-24.647-9.203-13.133-15.808-27.079-29.122-38.733-16.93-14.824-34.267-28.98-49.945-44.558-25.281-25.126-48.972-52.895-81.353-74.355-8.465-5.608-18.624-11.707-30.87-12.882" stroke="url(#paint58_linear)" stroke-width="1.417"/>
            <path d="M599.649 222.623c-33.876 5.836-51.77-17.454-82.543-18.121-20.867-.45-32.608 13.408-45.305 22.478-18.024 12.882-41.811 18.162-65.397 25.103-59.67 17.554-119.975 36.569-182.617 46.762-25.142 4.087-52.265 7.934-78.676 7.139-25.194-.754-36.388-9.198-47.503-23.717-9.708-12.671-16.79-26.15-29.957-37.505C50.357 229.851 34.4 215.191 19.54 199c-24.082-26.243-46.183-55.317-77.843-77.964-8.09-5.789-18.007-12.238-30.27-13.402" stroke="url(#paint59_linear)" stroke-width="1.417"/>
            <path d="M598.997 228.903c-34.276 5.818-51.379-18.618-82.318-19.565-20.953-.638-32.989 13.437-45.791 22.46-18.285 12.887-42.445 18.097-66.257 25.003-60.539 17.548-121.704 36.552-185.146 46.756-25.385 4.082-52.7 7.918-79.337 7.128-24.846-.737-36.796-8.666-48.58-22.811-10.177-12.209-17.738-25.237-30.74-36.312-17.607-14.993-32.268-30.179-46.303-46.908-22.9-27.296-43.445-57.609-74.41-81.379-7.734-5.941-17.425-12.718-29.704-13.829" stroke="url(#paint60_linear)" stroke-width="1.417"/>
            <path d="M598.398 235.126c-34.632 5.759-50.971-19.548-82.057-21.045-20.719-1-32.755 13.051-45.4 21.781-20.006 13.806-45.53 19.203-71.385 26.594-60.278 17.221-121.217 35.757-184.294 45.786-25.629 4.075-53.117 7.894-79.98 7.104-24.517-.719-37.179-8.18-49.606-21.927-10.612-11.742-18.624-24.349-31.443-35.155-17.86-15.057-31.304-30.804-44.514-47.99-21.735-28.278-40.75-59.772-71.072-84.594-7.396-6.053-16.877-13.145-29.183-14.151" stroke="url(#paint61_linear)" stroke-width="1.417"/>
            <path d="M597.85 241.277c-34.997 5.748-50.649-20.653-81.892-22.372-20.814-1.147-33.111 13.074-45.878 21.77-20.258 13.788-46.208 19.126-72.271 26.465-61.095 17.203-122.843 35.716-186.693 45.756-25.55 4.017-52.735 7.695-79.485 7.099-23.751-.527-37.413-6.818-50.536-19.911-27.41-27.348-54.855-54.381-75.956-84.238-20.736-29.348-38.274-62.661-68.7-88.325-6.96-5.871-15.956-12.812-27.862-13.619" stroke="url(#paint62_linear)" stroke-width="1.417"/>
            <path d="M597.354 247.353c-35.345 5.754-50.362-21.723-81.77-23.63-20.919-1.269-33.451 13.093-46.348 21.753-20.501 13.765-46.868 19.039-73.131 26.325-61.895 17.174-124.442 35.663-189.031 45.703-44.505 6.918-100.09 16.969-131.455-12.086-28.835-26.723-55.099-53.732-74.8-84.045-19.606-30.167-35.65-64.573-65.554-91.097-6.744-5.982-15.495-13.005-27.462-13.689" stroke="url(#paint63_linear)" stroke-width="1.417"/>
            <path d="M596.92 253.34c-35.702 5.766-50.128-22.881-81.753-24.723-20.528-1.192-32.877 12.181-45.635 20.946-21.657 14.882-50.354 20.098-78.442 27.781-61.564 16.841-123.807 34.868-187.961 44.727-44.54 6.841-100.212 16.712-132.767-11.408-30.27-26.15-55.151-53.042-73.584-83.806-18.511-30.892-33.094-66.333-62.53-93.605-6.491-6.011-15.112-13.221-27.114-13.636" stroke="url(#paint64_linear)" stroke-width="1.417"/>
            <path d="M596.564 259.245c-36.006 5.795-49.911-23.839-81.71-25.822-20.631-1.286-33.181 12.18-46.086 20.922-21.901 14.847-51.049 19.987-79.311 27.612-62.321 16.805-125.302 34.798-190.16 44.645-44.592 6.771-100.29 16.443-133.958-10.794-13.532-10.947-24.994-23.291-37.857-34.611C11.127 266.8 2.41 249.235-6.968 232.295c-17.442-31.512-30.608-67.936-59.643-95.834-6.258-6.011-14.81-13.373-26.82-13.449" stroke="url(#paint65_linear)" stroke-width="1.417"/>
            <path d="M596.267 265.052c-36.17 5.819-49.849-24.471-81.718-26.828-20.632-1.526-33.607 12.262-46.53 20.899-22.144 14.806-51.727 19.87-80.163 27.424-63.05 16.759-126.761 34.722-192.289 44.552-44.679 6.707-100.316 16.156-135.018-10.239-13.722-10.438-25.594-22.524-38.021-33.669-16.182-14.502-24.17-32.436-32.92-49.499-16.426-32.014-28.202-69.356-56.907-97.757-6.057-5.993-14.566-13.449-26.585-13.127" stroke="url(#paint66_linear)" stroke-width="1.417"/>
            <path d="M596.051 270.759c-36.527 5.894-49.606-25.471-81.718-27.834-22.101-1.625-36.24 14.245-50.267 22.998-19.015 11.87-43.949 16.32-67.648 22.53-67.118 17.578-134.784 36.781-204.474 47.107-44.792 6.637-100.299 15.852-135.93-9.759-13.862-9.964-26.046-21.817-38.057-32.804-15.956-14.601-23.29-32.804-31.46-49.949-15.426-32.395-25.846-70.613-54.308-99.365-5.9-5.964-14.426-13.449-26.42-12.66" stroke="url(#paint67_linear)" stroke-width="1.417"/>
            <path d="M595.912 276.355c-36.492 5.93-49.702-25.892-81.962-28.465-21.926-1.748-36.561 13.958-50.788 22.536-19.432 11.713-44.479 16.203-68.369 22.419-67.761 17.63-135.992 36.827-206.351 47.124-44.913 6.573-100.212 15.543-136.678-9.35-13.975-9.537-26.333-21.161-37.926-32.032-15.678-14.7-22.44-33.049-30.07-50.241-14.478-32.634-23.586-71.677-51.883-100.628-5.797-5.929-14.374-13.361-26.315-12.034" stroke="url(#paint68_linear)" stroke-width="1.417"/>
            <path d="M595.868 281.84c-35.431 5.882-50.423-26.477-82.231-29.05-21.796-1.76-36.909 13.583-51.44 21.98-19.875 11.479-45.052 16.022-69.099 22.25-68.326 17.706-137.017 37.09-208.028 47.329-45.07 6.496-100.064 15.226-137.252-9.029-35.51-23.167-53.282-50.106-66.396-81.711-13.584-32.723-21.414-72.567-49.633-101.529-5.744-5.894-14.444-13.163-26.28-11.251" stroke="url(#paint69_linear)" stroke-width="1.417"/>
            <path d="M596.095 286.857c-35.145 4.275-50.502-26.95-82.788-29.149-19.719-1.339-33.076 10.145-46.677 18.104-23.039 13.484-50.754 18.828-78.755 26.079-67.552 17.501-135.539 36.669-205.699 46.738-46.156 6.626-101.22 15.005-139.363-9.642-34.798-22.495-51.327-49.183-63.355-80.162-8.586-22.103-16.043-44.423-25.942-66.286-5.284-11.678-10.802-24.624-20.962-34.886-5.953-6.017-15.2-12.923-27.106-10.549" stroke="url(#paint70_linear)" stroke-width="1.417"/>
            <path d="M596.789 291.056c-34.702 2.941-51.118-26.629-83.708-28.553-19.667-1.158-33.372 9.76-47.416 17.502-23.569 13.004-51.588 18.454-79.607 25.711-67.9 17.583-136.191 36.92-206.681 47.095-46.26 6.677-101.211 14.858-139.885-9.368C4.642 321.615-10.905 294.524-22.08 264c-11.559-31.558-17.051-72.052-45.765-99.441-6.127-5.842-15.391-12.052-26.898-9.35" stroke="url(#paint71_linear)" stroke-width="1.417"/>
            <path d="M597.902 294.529c-34.137 1.883-52.231-25.524-84.934-27.343-20.649-1.146-36.492 11.046-51.614 18.642-23.951 12.034-52.935 17.297-80.519 24.46-67.057 17.408-134.531 36.47-204.135 46.586-45.443 6.608-100.15 14.899-138.711-8.397-35.78-21.618-50.223-49.182-61.278-79.835-7.448-20.647-13.983-41.487-23.247-61.818-5.467-11.988-11.437-26.068-23.874-35.816-6.248-4.9-14.904-8.794-24.63-6.134" stroke="url(#paint72_linear)" stroke-width="1.417"/>
            <path d="M599.37 297.377c-33.693 1.158-53.638-24.156-86.541-25.454-20.701-.819-36.796 10.467-52.526 17.846-24.525 11.508-53.648 16.911-81.293 24.103-67.318 17.508-135.035 36.722-204.882 46.973-44.496 6.531-99.126 14.987-137.417-7.386-36.387-21.261-50.162-49.247-61.164-79.764-4.598-12.753-26.194-111.879-70.96-97.787" stroke="url(#paint73_linear)" stroke-width="1.417"/>
            <path d="M601.135 299.71c-33.39.714-55.316-22.477-88.454-23.009-22.187-.357-39.125 10.97-56.871 18.448-25.003 10.532-54.577 15.964-81.936 23.104-66.414 17.337-133.28 36.259-202.196 46.469-45.314 6.713-100.317 15.32-138.808-8.017-34.371-20.84-47.607-48.13-58.436-77.525-4.301-11.683-26.089-106.867-70.298-91.103" stroke="url(#paint74_linear)" stroke-width="1.417"/>
            <path d="M603.133 301.616c-33.12.503-57.306-19.969-90.53-20.208-22.109-.158-39.716 10.39-57.88 17.495-25.611 10.017-55.073 15.601-82.587 22.799-66.614 17.42-133.671 36.47-202.771 46.815-45.104 6.753-100.42 15.641-138.78-7.83-33.616-20.571-46.296-46.774-57.203-75.613-4.362-11.531-25.985-101.277-69.75-83.905" stroke="url(#paint75_linear)" stroke-width="1.417"/>
            <path d="M605.324 303.207c-33.033.567-59.392-17.642-92.729-17.133-19.972.304-36.249 8.022-53.048 14.373-24.995 9.443-52.5 15.15-79.146 22.085-70.142 18.262-140.519 38.722-213.217 49.709-44.131 6.672-99.16 15.665-137.381-6.678-33.399-19.524-46.565-46.434-57.437-74.256-5.206-13.332-26.15-94.874-69.308-76.356" stroke="url(#paint76_linear)" stroke-width="1.417"/>
            <path d="M607.636 304.575c-33.129.742-61.547-14.893-95.067-13.771-19.989.667-36.588 7.52-53.908 13.531-25.507 8.853-53.065 14.66-79.798 21.624-70.316 18.314-140.841 38.85-213.677 49.954-45.443 6.93-101.994 16.157-140.215-8.163-30.244-19.243-42.732-43.61-53.526-69.923-5.64-13.753-26.42-88.208-68.96-68.59" stroke="url(#paint77_linear)" stroke-width="1.417"/>
            <path d="M610.017 305.827c-33.424 1.035-63.676-11.976-97.5-10.239-21.292 1.099-39.256 7.836-58.262 13.794-25.933 8.128-53.517 13.946-80.18 20.905-69.326 18.086-138.938 38.218-210.74 49.241-43.809 6.724-99.16 16.156-137.304-6.105-31.06-18.133-44.278-43.171-55.455-68.888-6.283-14.455-26.984-81.151-68.708-60.779" stroke="url(#paint78_linear)" stroke-width="1.417"/>
            <path d="M612.406 307.06c-33.78 1.48-65.745-8.952-99.855-6.73-19.076 1.245-35.875 6.146-53.265 11.221-29.392 8.572-59.931 15.314-89.801 23.109-68.361 17.829-137.034 37.529-207.82 48.446-44.67 6.888-100.298 16.396-138.763-6.719-28.775-17.296-41.846-40.926-53.117-64.97-7.162-15.274-27.724-73.707-68.535-53.089" stroke="url(#paint79_linear)" stroke-width="1.417"/>
            <path d="M614.753 308.376c-34.241 2.017-67.709-5.912-102.193-3.234-19.024 1.48-36.223 5.76-53.909 10.485-29.861 7.976-60.348 14.846-90.33 22.635-68.474 17.782-137.269 37.435-208.115 48.382-44.444 6.865-100.473 16.624-138.72-6.509-27.48-16.624-40.742-38.844-52.388-61.777-8.482-16.701-28.844-65.831-68.439-45.645" stroke="url(#paint80_linear)" stroke-width="1.417"/>
        </g>
    </g>
    <defs>
        <linearGradient id="paint0_linear" x1="424.08" y1="0" x2="378.65" y2="354.25" gradientUnits="userSpaceOnUse">
            <stop stop-color="#0E0434"/>
            <stop offset="1" stop-color="#1F0777"/>
        </linearGradient>
        <linearGradient id="paint1_linear" x1="260.357" y1="-138.098" x2="260.357" y2="-4.23" gradientUnits="userSpaceOnUse">
            <stop stop-color="#ED1EFF"/>
            <stop offset="1" stop-color="#00D1FF"/>
        </linearGradient>
        <linearGradient id="paint2_linear" x1="260.131" y1="-131.25" x2="260.131" y2="1.27" gradientUnits="userSpaceOnUse">
            <stop stop-color="#ED1EFF"/>
            <stop offset="1" stop-color="#00D1FF"/>
        </linearGradient>
        <linearGradient id="paint3_linear" x1="259.905" y1="-124.135" x2="259.905" y2="6.777" gradientUnits="userSpaceOnUse">
            <stop stop-color="#ED1EFF"/>
            <stop offset="1" stop-color="#00D1FF"/>
        </linearGradient>
        <linearGradient id="paint4_linear" x1="259.644" y1="-116.874" x2="259.644" y2="12.282" gradientUnits="userSpaceOnUse">
            <stop stop-color="#ED1EFF"/>
            <stop offset="1" stop-color="#00D1FF"/>
        </linearGradient>
        <linearGradient id="paint5_linear" x1="259.406" y1="-109.507" x2="259.406" y2="17.45" gradientUnits="userSpaceOnUse">
            <stop stop-color="#ED1EFF"/>
            <stop offset="1" stop-color="#00D1FF"/>
        </linearGradient>
        <linearGradient id="paint6_linear" x1="259.183" y1="-102.104" x2="259.183" y2="22.97" gradientUnits="userSpaceOnUse">
            <stop stop-color="#ED1EFF"/>
            <stop offset="1" stop-color="#00D1FF"/>
        </linearGradient>
        <linearGradient id="paint7_linear" x1="258.979" y1="-94.721" x2="258.979" y2="28.491" gradientUnits="userSpaceOnUse">
            <stop stop-color="#ED1EFF"/>
            <stop offset="1" stop-color="#00D1FF"/>
        </linearGradient>
        <linearGradient id="paint8_linear" x1="258.832" y1="-87.43" x2="258.832" y2="34.013" gradientUnits="userSpaceOnUse">
            <stop stop-color="#ED1EFF"/>
            <stop offset="1" stop-color="#00D1FF"/>
        </linearGradient>
        <linearGradient id="paint9_linear" x1="258.736" y1="-80.275" x2="258.736" y2="39.55" gradientUnits="userSpaceOnUse">
            <stop stop-color="#ED1EFF"/>
            <stop offset="1" stop-color="#00D1FF"/>
        </linearGradient>
        <linearGradient id="paint10_linear" x1="258.723" y1="-73.326" x2="258.723" y2="45.123" gradientUnits="userSpaceOnUse">
            <stop stop-color="#ED1EFF"/>
            <stop offset="1" stop-color="#00D1FF"/>
        </linearGradient>
        <linearGradient id="paint11_linear" x1="258.797" y1="-67.94" x2="258.797" y2="50.66" gradientUnits="userSpaceOnUse">
            <stop stop-color="#ED1EFF"/>
            <stop offset="1" stop-color="#00D1FF"/>
        </linearGradient>
        <linearGradient id="paint12_linear" x1="258.979" y1="-64.941" x2="258.979" y2="56.215" gradientUnits="userSpaceOnUse">
            <stop stop-color="#ED1EFF"/>
            <stop offset="1" stop-color="#00D1FF"/>
        </linearGradient>
        <linearGradient id="paint13_linear" x1="259.266" y1="-61.526" x2="259.266" y2="61.772" gradientUnits="userSpaceOnUse">
            <stop stop-color="#ED1EFF"/>
            <stop offset="1" stop-color="#00D1FF"/>
        </linearGradient>
        <linearGradient id="paint14_linear" x1="259.701" y1="-57.603" x2="259.701" y2="67.025" gradientUnits="userSpaceOnUse">
            <stop stop-color="#ED1EFF"/>
            <stop offset="1" stop-color="#00D1FF"/>
        </linearGradient>
        <linearGradient id="paint15_linear" x1="260.335" y1="-53.135" x2="260.335" y2="72.593" gradientUnits="userSpaceOnUse">
            <stop stop-color="#ED1EFF"/>
            <stop offset="1" stop-color="#00D1FF"/>
        </linearGradient>
        <linearGradient id="paint16_linear" x1="261.216" y1="-48.176" x2="261.216" y2="78.181" gradientUnits="userSpaceOnUse">
            <stop stop-color="#ED1EFF"/>
            <stop offset="1" stop-color="#00D1FF"/>
        </linearGradient>
        <linearGradient id="paint17_linear" x1="262.32" y1="-42.796" x2="262.32" y2="83.786" gradientUnits="userSpaceOnUse">
            <stop stop-color="#ED1EFF"/>
            <stop offset="1" stop-color="#00D1FF"/>
        </linearGradient>
        <linearGradient id="paint18_linear" x1="263.594" y1="-37.037" x2="263.594" y2="89.362" gradientUnits="userSpaceOnUse">
            <stop stop-color="#ED1EFF"/>
            <stop offset="1" stop-color="#00D1FF"/>
        </linearGradient>
        <linearGradient id="paint19_linear" x1="265.019" y1="-30.955" x2="265.019" y2="94.953" gradientUnits="userSpaceOnUse">
            <stop stop-color="#ED1EFF"/>
            <stop offset="1" stop-color="#00D1FF"/>
        </linearGradient>
        <linearGradient id="paint20_linear" x1="266.54" y1="-24.617" x2="266.54" y2="100.532" gradientUnits="userSpaceOnUse">
            <stop stop-color="#ED1EFF"/>
            <stop offset="1" stop-color="#00D1FF"/>
        </linearGradient>
        <linearGradient id="paint21_linear" x1="268.113" y1="-18.068" x2="268.113" y2="106.102" gradientUnits="userSpaceOnUse">
            <stop stop-color="#ED1EFF"/>
            <stop offset="1" stop-color="#00D1FF"/>
        </linearGradient>
        <linearGradient id="paint22_linear" x1="269.721" y1="-11.367" x2="269.721" y2="111.657" gradientUnits="userSpaceOnUse">
            <stop stop-color="#ED1EFF"/>
            <stop offset="1" stop-color="#00D1FF"/>
        </linearGradient>
        <linearGradient id="paint23_linear" x1="271.307" y1="-4.572" x2="271.307" y2="117.216" gradientUnits="userSpaceOnUse">
            <stop stop-color="#ED1EFF"/>
            <stop offset="1" stop-color="#00D1FF"/>
        </linearGradient>
        <linearGradient id="paint24_linear" x1="272.841" y1=".365" x2="272.841" y2="122.806" gradientUnits="userSpaceOnUse">
            <stop stop-color="#ED1EFF"/>
            <stop offset="1" stop-color="#00D1FF"/>
        </linearGradient>
        <linearGradient id="paint25_linear" x1="274.293" y1="5.231" x2="274.293" y2="128.356" gradientUnits="userSpaceOnUse">
            <stop stop-color="#ED1EFF"/>
            <stop offset="1" stop-color="#00D1FF"/>
        </linearGradient>
        <linearGradient id="paint26_linear" x1="275.626" y1="10.022" x2="275.626" y2="133.907" gradientUnits="userSpaceOnUse">
            <stop stop-color="#ED1EFF"/>
            <stop offset="1" stop-color="#00D1FF"/>
        </linearGradient>
        <linearGradient id="paint27_linear" x1="276.778" y1="14.792" x2="276.778" y2="139.442" gradientUnits="userSpaceOnUse">
            <stop stop-color="#ED1EFF"/>
            <stop offset="1" stop-color="#00D1FF"/>
        </linearGradient>
        <linearGradient id="paint28_linear" x1="277.734" y1="19.605" x2="277.734" y2="144.997" gradientUnits="userSpaceOnUse">
            <stop stop-color="#ED1EFF"/>
            <stop offset="1" stop-color="#00D1FF"/>
        </linearGradient>
        <linearGradient id="paint29_linear" x1="278.464" y1="24.374" x2="278.464" y2="150.54" gradientUnits="userSpaceOnUse">
            <stop stop-color="#ED1EFF"/>
            <stop offset="1" stop-color="#00D1FF"/>
        </linearGradient>
        <linearGradient id="paint30_linear" x1="278.89" y1="29.285" x2="278.89" y2="156.103" gradientUnits="userSpaceOnUse">
            <stop stop-color="#ED1EFF"/>
            <stop offset="1" stop-color="#00D1FF"/>
        </linearGradient>
        <linearGradient id="paint31_linear" x1="279.02" y1="34.24" x2="279.02" y2="161.596" gradientUnits="userSpaceOnUse">
            <stop stop-color="#ED1EFF"/>
            <stop offset="1" stop-color="#00D1FF"/>
        </linearGradient>
        <linearGradient id="paint32_linear" x1="278.951" y1="39.239" x2="278.951" y2="167.149" gradientUnits="userSpaceOnUse">
            <stop stop-color="#ED1EFF"/>
            <stop offset="1" stop-color="#00D1FF"/>
        </linearGradient>
        <linearGradient id="paint33_linear" x1="278.768" y1="44.439" x2="278.768" y2="172.599" gradientUnits="userSpaceOnUse">
            <stop stop-color="#ED1EFF"/>
            <stop offset="1" stop-color="#00D1FF"/>
        </linearGradient>
        <linearGradient id="paint34_linear" x1="278.473" y1="50.276" x2="278.473" y2="178.069" gradientUnits="userSpaceOnUse">
            <stop stop-color="#ED1EFF"/>
            <stop offset="1" stop-color="#00D1FF"/>
        </linearGradient>
        <linearGradient id="paint35_linear" x1="278.104" y1="56.109" x2="278.104" y2="183.24" gradientUnits="userSpaceOnUse">
            <stop stop-color="#ED1EFF"/>
            <stop offset="1" stop-color="#00D1FF"/>
        </linearGradient>
        <linearGradient id="paint36_linear" x1="277.621" y1="61.803" x2="277.621" y2="188.631" gradientUnits="userSpaceOnUse">
            <stop stop-color="#ED1EFF"/>
            <stop offset="1" stop-color="#00D1FF"/>
        </linearGradient>
        <linearGradient id="paint37_linear" x1="277.065" y1="67.364" x2="277.065" y2="194.022" gradientUnits="userSpaceOnUse">
            <stop stop-color="#ED1EFF"/>
            <stop offset="1" stop-color="#00D1FF"/>
        </linearGradient>
        <linearGradient id="paint38_linear" x1="276.426" y1="72.671" x2="276.426" y2="199.404" gradientUnits="userSpaceOnUse">
            <stop stop-color="#ED1EFF"/>
            <stop offset="1" stop-color="#00D1FF"/>
        </linearGradient>
        <linearGradient id="paint39_linear" x1="275.714" y1="77.541" x2="275.714" y2="204.741" gradientUnits="userSpaceOnUse">
            <stop stop-color="#ED1EFF"/>
            <stop offset="1" stop-color="#00D1FF"/>
        </linearGradient>
        <linearGradient id="paint40_linear" x1="274.936" y1="81.874" x2="274.936" y2="210.07" gradientUnits="userSpaceOnUse">
            <stop stop-color="#ED1EFF"/>
            <stop offset="1" stop-color="#00D1FF"/>
        </linearGradient>
        <linearGradient id="paint41_linear" x1="274.102" y1="85.568" x2="274.102" y2="215.389" gradientUnits="userSpaceOnUse">
            <stop stop-color="#ED1EFF"/>
            <stop offset="1" stop-color="#00D1FF"/>
        </linearGradient>
        <linearGradient id="paint42_linear" x1="273.197" y1="88.587" x2="273.197" y2="220.663" gradientUnits="userSpaceOnUse">
            <stop stop-color="#ED1EFF"/>
            <stop offset="1" stop-color="#00D1FF"/>
        </linearGradient>
        <linearGradient id="paint43_linear" x1="272.25" y1="91.026" x2="272.25" y2="225.917" gradientUnits="userSpaceOnUse">
            <stop stop-color="#ED1EFF"/>
            <stop offset="1" stop-color="#00D1FF"/>
        </linearGradient>
        <linearGradient id="paint44_linear" x1="271.276" y1="92.975" x2="271.276" y2="231.161" gradientUnits="userSpaceOnUse">
            <stop stop-color="#ED1EFF"/>
            <stop offset="1" stop-color="#00D1FF"/>
        </linearGradient>
        <linearGradient id="paint45_linear" x1="270.243" y1="94.512" x2="270.243" y2="236.369" gradientUnits="userSpaceOnUse">
            <stop stop-color="#ED1EFF"/>
            <stop offset="1" stop-color="#00D1FF"/>
        </linearGradient>
        <linearGradient id="paint46_linear" x1="269.196" y1="95.897" x2="269.196" y2="241.564" gradientUnits="userSpaceOnUse">
            <stop stop-color="#ED1EFF"/>
            <stop offset="1" stop-color="#00D1FF"/>
        </linearGradient>
        <linearGradient id="paint47_linear" x1="268.118" y1="96.782" x2="268.118" y2="247.191" gradientUnits="userSpaceOnUse">
            <stop stop-color="#ED1EFF"/>
            <stop offset="1" stop-color="#00D1FF"/>
        </linearGradient>
        <linearGradient id="paint48_linear" x1="267.018" y1="97.544" x2="267.018" y2="252.311" gradientUnits="userSpaceOnUse">
            <stop stop-color="#ED1EFF"/>
            <stop offset="1" stop-color="#00D1FF"/>
        </linearGradient>
        <linearGradient id="paint49_linear" x1="265.919" y1="98.213" x2="265.919" y2="257.4" gradientUnits="userSpaceOnUse">
            <stop stop-color="#ED1EFF"/>
            <stop offset="1" stop-color="#00D1FF"/>
        </linearGradient>
        <linearGradient id="paint50_linear" x1="264.798" y1="98.834" x2="264.798" y2="262.461" gradientUnits="userSpaceOnUse">
            <stop stop-color="#ED1EFF"/>
            <stop offset="1" stop-color="#00D1FF"/>
        </linearGradient>
        <linearGradient id="paint51_linear" x1="263.693" y1="99.465" x2="263.693" y2="267.357" gradientUnits="userSpaceOnUse">
            <stop stop-color="#ED1EFF"/>
            <stop offset="1" stop-color="#00D1FF"/>
        </linearGradient>
        <linearGradient id="paint52_linear" x1="262.591" y1="100.114" x2="262.591" y2="272.341" gradientUnits="userSpaceOnUse">
            <stop stop-color="#ED1EFF"/>
            <stop offset="1" stop-color="#00D1FF"/>
        </linearGradient>
        <linearGradient id="paint53_linear" x1="261.491" y1="100.821" x2="261.491" y2="277.203" gradientUnits="userSpaceOnUse">
            <stop stop-color="#ED1EFF"/>
            <stop offset="1" stop-color="#00D1FF"/>
        </linearGradient>
        <linearGradient id="paint54_linear" x1="260.417" y1="101.605" x2="260.417" y2="282.131" gradientUnits="userSpaceOnUse">
            <stop stop-color="#ED1EFF"/>
            <stop offset="1" stop-color="#00D1FF"/>
        </linearGradient>
        <linearGradient id="paint55_linear" x1="259.362" y1="102.483" x2="259.362" y2="287.006" gradientUnits="userSpaceOnUse">
            <stop stop-color="#ED1EFF"/>
            <stop offset="1" stop-color="#00D1FF"/>
        </linearGradient>
        <linearGradient id="paint56_linear" x1="258.34" y1="103.512" x2="258.34" y2="291.802" gradientUnits="userSpaceOnUse">
            <stop stop-color="#ED1EFF"/>
            <stop offset="1" stop-color="#00D1FF"/>
        </linearGradient>
        <linearGradient id="paint57_linear" x1="257.363" y1="104.687" x2="257.363" y2="296.609" gradientUnits="userSpaceOnUse">
            <stop stop-color="#ED1EFF"/>
            <stop offset="1" stop-color="#00D1FF"/>
        </linearGradient>
        <linearGradient id="paint58_linear" x1="256.425" y1="106.062" x2="256.425" y2="301.343" gradientUnits="userSpaceOnUse">
            <stop stop-color="#ED1EFF"/>
            <stop offset="1" stop-color="#00D1FF"/>
        </linearGradient>
        <linearGradient id="paint59_linear" x1="255.539" y1="107.634" x2="255.539" y2="306.089" gradientUnits="userSpaceOnUse">
            <stop stop-color="#ED1EFF"/>
            <stop offset="1" stop-color="#00D1FF"/>
        </linearGradient>
        <linearGradient id="paint60_linear" x1="254.704" y1="109.446" x2="254.704" y2="310.789" gradientUnits="userSpaceOnUse">
            <stop stop-color="#ED1EFF"/>
            <stop offset="1" stop-color="#00D1FF"/>
        </linearGradient>
        <linearGradient id="paint61_linear" x1="253.931" y1="111.529" x2="253.931" y2="315.451" gradientUnits="userSpaceOnUse">
            <stop stop-color="#ED1EFF"/>
            <stop offset="1" stop-color="#00D1FF"/>
        </linearGradient>
        <linearGradient id="paint62_linear" x1="253.214" y1="113.902" x2="253.214" y2="320.059" gradientUnits="userSpaceOnUse">
            <stop stop-color="#ED1EFF"/>
            <stop offset="1" stop-color="#00D1FF"/>
        </linearGradient>
        <linearGradient id="paint63_linear" x1="252.578" y1="116.587" x2="252.578" y2="324.962" gradientUnits="userSpaceOnUse">
            <stop stop-color="#ED1EFF"/>
            <stop offset="1" stop-color="#00D1FF"/>
        </linearGradient>
        <linearGradient id="paint64_linear" x1="252.027" y1="119.616" x2="252.027" y2="329.484" gradientUnits="userSpaceOnUse">
            <stop stop-color="#ED1EFF"/>
            <stop offset="1" stop-color="#00D1FF"/>
        </linearGradient>
        <linearGradient id="paint65_linear" x1="251.567" y1="123.012" x2="251.567" y2="333.961" gradientUnits="userSpaceOnUse">
            <stop stop-color="#ED1EFF"/>
            <stop offset="1" stop-color="#00D1FF"/>
        </linearGradient>
        <linearGradient id="paint66_linear" x1="251.192" y1="126.798" x2="251.192" y2="338.395" gradientUnits="userSpaceOnUse">
            <stop stop-color="#ED1EFF"/>
            <stop offset="1" stop-color="#00D1FF"/>
        </linearGradient>
        <linearGradient id="paint67_linear" x1="250.91" y1="130.966" x2="250.91" y2="342.774" gradientUnits="userSpaceOnUse">
            <stop stop-color="#ED1EFF"/>
            <stop offset="1" stop-color="#00D1FF"/>
        </linearGradient>
        <linearGradient id="paint68_linear" x1="250.741" y1="135.528" x2="250.741" y2="347.094" gradientUnits="userSpaceOnUse">
            <stop stop-color="#ED1EFF"/>
            <stop offset="1" stop-color="#00D1FF"/>
        </linearGradient>
        <linearGradient id="paint69_linear" x1="250.689" y1="140.518" x2="250.689" y2="351.367" gradientUnits="userSpaceOnUse">
            <stop stop-color="#ED1EFF"/>
            <stop offset="1" stop-color="#00D1FF"/>
        </linearGradient>
        <linearGradient id="paint70_linear" x1="250.771" y1="146.625" x2="250.771" y2="355.54" gradientUnits="userSpaceOnUse">
            <stop stop-color="#ED1EFF"/>
            <stop offset="1" stop-color="#00D1FF"/>
        </linearGradient>
        <linearGradient id="paint71_linear" x1="251.023" y1="154.558" x2="251.023" y2="359.72" gradientUnits="userSpaceOnUse">
            <stop stop-color="#ED1EFF"/>
            <stop offset="1" stop-color="#00D1FF"/>
        </linearGradient>
        <linearGradient id="paint72_linear" x1="251.431" y1="164.011" x2="251.431" y2="363.89" gradientUnits="userSpaceOnUse">
            <stop stop-color="#ED1EFF"/>
            <stop offset="1" stop-color="#00D1FF"/>
        </linearGradient>
        <linearGradient id="paint73_linear" x1="251.979" y1="174.54" x2="251.979" y2="367.995" gradientUnits="userSpaceOnUse">
            <stop stop-color="#ED1EFF"/>
            <stop offset="1" stop-color="#00D1FF"/>
        </linearGradient>
        <linearGradient id="paint74_linear" x1="252.635" y1="186.32" x2="252.635" y2="371.983" gradientUnits="userSpaceOnUse">
            <stop stop-color="#ED1EFF"/>
            <stop offset="1" stop-color="#00D1FF"/>
        </linearGradient>
        <linearGradient id="paint75_linear" x1="253.382" y1="198.945" x2="253.382" y2="375.94" gradientUnits="userSpaceOnUse">
            <stop stop-color="#ED1EFF"/>
            <stop offset="1" stop-color="#00D1FF"/>
        </linearGradient>
        <linearGradient id="paint76_linear" x1="254.191" y1="212.229" x2="254.191" y2="379.8" gradientUnits="userSpaceOnUse">
            <stop stop-color="#ED1EFF"/>
            <stop offset="1" stop-color="#00D1FF"/>
        </linearGradient>
        <linearGradient id="paint77_linear" x1="255.06" y1="225.965" x2="255.06" y2="383.553" gradientUnits="userSpaceOnUse">
            <stop stop-color="#ED1EFF"/>
            <stop offset="1" stop-color="#00D1FF"/>
        </linearGradient>
        <linearGradient id="paint78_linear" x1="255.943" y1="239.919" x2="255.943" y2="387.38" gradientUnits="userSpaceOnUse">
            <stop stop-color="#ED1EFF"/>
            <stop offset="1" stop-color="#00D1FF"/>
        </linearGradient>
        <linearGradient id="paint79_linear" x1="256.828" y1="253.972" x2="256.828" y2="391.022" gradientUnits="userSpaceOnUse">
            <stop stop-color="#ED1EFF"/>
            <stop offset="1" stop-color="#00D1FF"/>
        </linearGradient>
        <linearGradient id="paint80_linear" x1="257.706" y1="267.925" x2="257.706" y2="394.671" gradientUnits="userSpaceOnUse">
            <stop stop-color="#ED1EFF"/>
            <stop offset="1" stop-color="#00D1FF"/>
        </linearGradient>
        <clipPath id="clip0">
            <path fill="#fff" d="M0 0h558v275H0z"/>
        </clipPath>
        <filter id="filter0_d" x="-7.633" y="-7.633" width="573.265" height="290.265" filterUnits="userSpaceOnUse" color-interpolation-filters="sRGB">
            <feFlood flood-opacity="0" result="BackgroundImageFix"/>
            <feColorMatrix in="SourceAlpha" values="0 0 0 0 0 0 0 0 0 0 0 0 0 0 0 0 0 0 127 0"/>
            <feOffset/>
            <feGaussianBlur stdDeviation="3.816"/>
            <feColorMatrix values="0 0 0 0 0.929412 0 0 0 0 0.117647 0 0 0 0 1 0 0 0 0.6 0"/>
            <feBlend in2="BackgroundImageFix" result="effect1_dropShadow"/>
            <feBlend in="SourceGraphic" in2="effect1_dropShadow" result="shape"/>
        </filter>
    </defs>
</svg>
