<svg width="15" height="22" fill="none" xmlns="http://www.w3.org/2000/svg">
    <path d="m12.479 16.552-1.263 1.262-1.338 1.339c-.345.344-.64.643-.863.873a36.688 36.688 0 0 0 .44.451l.266-.262c.473-.467 1.121-1.112 1.832-1.822m.926-1.841-.42-2.969c2.07 2.071 2.6 2.619 2.6 2.677 0 .059-.53.604-2.583 2.657l-.523-.524m.926-1.841H.742v-.583H12.48l-1.263-1.263L9.88 13.37c-.336-.338-.644-.65-.877-.89.092-.095.2-.203.313-.318l.137-.136 2.083 2.081.944 2.446Zm-.926 1.841a245.97 245.97 0 0 0 2.117-2.133m-2.117 2.133 2.117-2.133m0 0c.157.162.26.27.322.34l.05.058-.01-.012a.528.528 0 0 1-.066-.131.72.72 0 0 1 .067-.641l.009-.013a13.21 13.21 0 0 1-.371.398Zm0 0a229.692 229.692 0 0 0-2.135-2.153l2.136 2.153Zm-5.056 4.193h-.001ZM3.449 4.227 2.186 5.489h11.731v.583H2.18l1.263 1.263L4.78 8.673c.345.345.64.643.862.873a37.476 37.476 0 0 1-.44.451A439.893 439.893 0 0 1 .99 5.781l.066-.067c.388-.4 1.037-1.051 2.073-2.087l2.083-2.081.136.136.003.002c.114.113.22.221.313.315-.233.24-.541.553-.878.89L3.45 4.226Z" fill="#31D8A4" stroke="#31D8A4" stroke-width="1.479"/>
</svg>
