<svg viewBox="0 0 27 24" fill="none" xmlns="http://www.w3.org/2000/svg">
    <path d="M16.68 22.475h0a8.443 8.443 0 100-16.888 8.443 8.443 0 00-8.444 8.444 8.443 8.443 0 008.445 8.444zM6.318 9.416c-.281.63-.507 1.29-.669 1.973H.464V9.416h5.853zM.464 5.066H9.73A11.389 11.389 0 007.75 7.04H.463V5.066zm0-4.353h17.93v1.973H.464V.713zM10.62 14.031a6.07 6.07 0 016.064-6.064 6.07 6.07 0 016.064 6.064 6.07 6.07 0 01-6.064 6.064 6.07 6.07 0 01-6.064-6.064zM.464 15.742V13.77h4.879c-.011.462 0 1.179.122 1.973h-5zm25.184-1.71c0 4.942-4.022 8.964-8.965 8.964-4.942 0-8.965-4.022-8.965-8.965 0-4.942 4.023-8.965 8.965-8.965 4.943 0 8.965 4.023 8.965 8.965zM7.094 20.094H.464v-1.973h5.634c.27.693.604 1.353.996 1.973z" fill="#080829" stroke="#00D1FF" stroke-width=".928"/>
</svg>
