<svg width="27" height="24" fill="none" xmlns="http://www.w3.org/2000/svg">
    <path d="M16.68 22.475a8.443 8.443 0 1 0 0-16.888 8.443 8.443 0 0 0-8.444 8.444 8.443 8.443 0 0 0 8.445 8.444ZM6.318 9.416c-.281.63-.507 1.29-.669 1.973H.464V9.416h5.853ZM.464 5.066H9.73A11.389 11.389 0 0 0 7.75 7.04H.463V5.066Zm0-4.353h17.93v1.973H.464V.713ZM10.62 14.031a6.07 6.07 0 0 1 6.064-6.064 6.07 6.07 0 0 1 6.064 6.064 6.07 6.07 0 0 1-6.064 6.064 6.07 6.07 0 0 1-6.064-6.064ZM.464 15.742V13.77h4.879c-.011.462 0 1.179.122 1.973h-5Zm25.184-1.71c0 4.942-4.022 8.964-8.965 8.964-4.942 0-8.965-4.022-8.965-8.965 0-4.942 4.023-8.965 8.965-8.965 4.943 0 8.965 4.023 8.965 8.965ZM7.094 20.094H.464v-1.973h5.634c.27.693.604 1.353.996 1.973Z" stroke="#00D1FF" stroke-width=".928"/>
</svg>
