<svg viewBox="0 0 40 40" fill="none" xmlns="http://www.w3.org/2000/svg">
    <path d="M34.56 4.164h-2.184V3.34h3.36v.904L33.56 6.676h2.192V7.5H32.36v-.88l2.2-2.456zm-5.14 5.334h-1.638V8.88h2.52v.678l-1.632 1.824h1.644V12H27.77v-.66l1.65-1.842zM20.053 33.5c1.385 0 2.518-1.108 2.518-2.462h-5.037c0 1.354 1.12 2.462 2.519 2.462zm7.555-7.385v-6.153c0-3.779-2.066-6.942-5.667-7.779v-.837c0-1.021-.843-1.846-1.888-1.846-1.046 0-1.89.825-1.89 1.846v.837c-3.613.837-5.665 3.988-5.665 7.779v6.153l-1.625 1.588c-.793.776-.239 2.105.882 2.105h16.583c1.12 0 1.687-1.33.894-2.105l-1.624-1.588z" fill="currentColor"/>
</svg>
