<svg width="225" height="275" viewBox="0 0 225 275" fill="none" xmlns="http://www.w3.org/2000/svg">
<g clip-path="url(#clip0)">
<g filter="url(#filter0_d)">
<rect width="225" height="275" rx="4" transform="matrix(-1 0 0 1 225 6.10352e-05)" fill="url(#paint0_linear)"/>
</g>
<g opacity="0.08">
<path d="M320.716 -30.1987C309.633 -26.3677 296.441 -25.7084 285.803 -21.531C274.255 -16.9936 260.914 -9.13653 253.388 -1.63596C250.875 0.869839 244.889 8.68995 239.737 3.48999C227.765 -8.59838 193.731 -7.23616 173.534 -6.61055C147.566 -5.80668 121.667 -3.22352 95.6235 -3.89958C74.0322 -4.45792 54.3147 -8.92127 34.5473 -14.5147C5.42577 -22.7553 -22.1267 -33.7976 -52.1327 -40.5952C-60.8372 -42.5662 -69.9314 -44.2143 -79.1655 -44.396" stroke="url(#paint1_linear)" stroke-miterlimit="10" stroke-linecap="round"/>
<path d="M319.742 -25.9034C308.914 -22.2776 295.747 -22.0892 285.519 -17.9824C274.126 -13.4114 262.428 -4.68653 255.188 2.77704C252.914 5.11803 246.278 14.4719 240.677 10.0153C227.281 -0.646986 195.526 0.493234 176.488 0.590775C150.589 0.721951 124.651 2.35661 98.7771 0.880036C76.7011 -0.381272 56.354 -5.28523 36.1918 -11.2319C6.81549 -19.8962 -20.9819 -31.3724 -51.3476 -38.4795C-59.8921 -40.4808 -68.8515 -42.1726 -77.9507 -42.3239" stroke="url(#paint2_linear)" stroke-miterlimit="10" stroke-linecap="round"/>
<path d="M318.783 -21.6319C308.179 -18.2281 294.988 -18.5274 285.134 -14.5081C273.896 -9.92362 263.628 -0.367957 256.627 7.03171C254.059 9.74605 247.253 19.7625 240.762 16.2443C224.987 7.69431 196.645 7.80532 177.867 7.40507C152.148 6.86018 126.33 7.55642 100.746 5.3197C78.3503 3.36551 57.5235 -1.91853 37.0765 -8.19143C7.64518 -17.2157 -20.2021 -29.0753 -50.7278 -36.4245C-59.0625 -38.4292 -67.8419 -40.1513 -76.7612 -40.2455" stroke="url(#paint3_linear)" stroke-miterlimit="10" stroke-linecap="round"/>
<path d="M317.863 -17.4108C307.495 -14.2559 294.243 -15.0799 284.744 -11.2187C273.746 -6.74858 265.356 3.02572 258.626 10.1933C255.697 13.3113 247.723 24.8346 240.187 22.1707C222.554 15.9281 197.494 14.7845 177.922 13.8494C152.483 12.6318 126.899 12.4031 101.71 9.47016C79.1346 6.83991 57.958 1.23298 37.3211 -5.33255C8.00472 -14.6595 -19.7277 -26.8488 -50.2583 -34.3763C-58.3531 -36.3708 -66.9177 -38.0862 -75.6172 -38.1165" stroke="url(#paint4_linear)" stroke-miterlimit="10" stroke-linecap="round"/>
<path d="M316.999 -13.2566C306.74 -10.3136 293.444 -11.5917 284.229 -7.78085C273.216 -3.22333 265.316 7.819 258.636 15.0471C255.038 18.9387 247.693 29.389 239.133 27.7981C219.196 24.0915 196.12 21.3234 174.849 19.7863C149.42 17.9498 123.756 16.7995 98.7771 12.8979C77.2508 9.53438 56.7938 3.90726 36.9963 -2.63472C8.17463 -12.1567 -19.118 -24.4537 -49.2139 -32.1426C-57.2538 -34.1977 -65.8534 -36.0039 -74.5479 -35.9231" stroke="url(#paint5_linear)" stroke-miterlimit="10" stroke-linecap="round"/>
<path d="M316.219 -9.20383C306.095 -6.49286 292.719 -8.2486 283.789 -4.53531C272.896 -0.00469601 265.796 11.6296 259.3 18.7972C254.938 23.6103 247.657 33.7176 237.793 33.1122C216.752 31.824 194.806 27.6398 173.065 25.4704C124.885 20.6639 80.0686 14.8922 36.2564 -0.0618743C7.78947 -9.77899 -19.1734 -22.3214 -49.0494 -30.0642C-56.8045 -32.0722 -65.1692 -33.8548 -73.5889 -33.6463" stroke="url(#paint6_linear)" stroke-miterlimit="10" stroke-linecap="round"/>
<path d="M315.539 -5.27204C305.536 -2.78643 292.074 -4.99287 283.415 -1.36704C272.642 3.1434 266.061 15.2318 259.81 22.3691C254.803 28.087 247.458 37.8277 236.375 38.1102C214.633 38.6652 192.573 33.5964 170.721 30.8215C123.262 24.7975 78.2901 17.5828 35.1974 2.42361C7.16523 -7.43476 -19.4079 -20.2295 -49.0091 -27.9319C-56.4893 -29.8793 -64.6142 -31.625 -72.749 -31.2651" stroke="url(#paint7_linear)" stroke-miterlimit="10" stroke-linecap="round"/>
<path d="M314.985 -1.488C305.086 0.778989 291.545 -1.83781 283.145 1.72076C262.588 10.4288 262.083 40.5119 235.065 42.7889C212.585 44.6826 190.229 39.2506 168.063 35.8534C121.368 28.6993 76.3461 20.2031 33.933 4.86562C6.38052 -5.09702 -19.7829 -18.0868 -49.0743 -25.7118C-56.2897 -27.592 -64.2047 -29.2771 -72.0547 -28.7457" stroke="url(#paint8_linear)" stroke-miterlimit="10" stroke-linecap="round"/>
<path d="M314.57 2.12467C304.781 4.21003 291.29 1.16607 283.075 4.66074C272.856 9.00973 266.436 21.1721 261.129 27.8856C255.058 35.5678 248.037 45.4296 234.046 47.1449C210.641 50.014 188.085 44.6324 165.32 40.5828C119.359 32.4061 74.3575 22.7967 32.544 7.29771C5.48617 -2.73221 -20.2725 -15.8969 -49.2541 -23.3807C-56.2396 -25.1835 -63.9747 -26.7912 -71.5449 -26.0714" stroke="url(#paint9_linear)" stroke-miterlimit="10" stroke-linecap="round"/>
<path d="M314.315 5.53857C304.506 7.45576 291.339 4.27726 283.025 7.86947C272.726 12.3194 266.455 24.2328 260.969 31.0271C254.008 39.6443 247.347 48.5677 233.526 51.1676C210.835 55.4393 186.241 49.7146 162.746 45.0158C117.435 35.9512 72.4733 25.4 31.1445 9.75302C4.56639 -0.307166 -20.8375 -13.64 -49.5343 -20.9186C-56.33 -22.6407 -63.9251 -24.1476 -71.2505 -23.2293" stroke="url(#paint10_linear)" stroke-miterlimit="10" stroke-linecap="round"/>
<path d="M314.255 8.73011C304.321 10.469 291.554 7.20645 283.005 11.0139C272.616 15.6421 266.49 27.2495 260.769 34.1715C253.608 42.8325 246.868 51.4094 233.571 54.7931C211.3 60.4572 183.828 54.2549 160.602 49.176C115.796 39.3816 70.8444 28.0601 29.8604 12.2752C3.72704 2.21168 -21.407 -11.286 -49.8839 -18.2854C-56.5797 -19.9302 -64.0399 -21.2856 -71.1704 -20.1723" stroke="url(#paint11_linear)" stroke-miterlimit="10" stroke-linecap="round"/>
<path d="M314.425 11.5726C304.277 13.0021 291.775 10.0018 283 14.0952C272.522 18.9857 266.541 30.2063 260.524 37.3066C253.239 45.8936 246.538 54.4133 233.217 57.9382C210.296 64.006 182.924 58.5975 159.114 53.0645C114.612 42.7286 69.5756 30.7949 28.7765 14.8856C3.13278 4.88597 -21.8564 -8.92114 -50.2283 -15.3084C-56.9391 -16.8186 -64.3544 -17.9319 -71.3999 -16.8623" stroke="url(#paint12_linear)" stroke-miterlimit="10" stroke-linecap="round"/>
<path d="M314.829 14.0447C304.296 15.2287 292.084 12.6522 283.01 17.129C272.446 22.3357 266.595 33.1392 260.234 40.438C252.814 48.9577 246.038 57.5413 232.757 61.0898C210.111 67.1441 182.084 62.3612 158.524 56.7072C114.137 46.0517 68.7357 33.7211 28.0516 17.6403C2.67768 7.61373 -22.2265 -5.80659 -50.5985 -11.8508C-57.3842 -13.2971 -64.8594 -14.3566 -71.9399 -13.2769" stroke="url(#paint13_linear)" stroke-miterlimit="10" stroke-linecap="round"/>
<path d="M315.434 16.2005C304.207 17.2196 292.494 15.1814 282.985 20.2064C272.742 25.6183 267.345 35.1975 260.754 42.5938C253.034 51.2581 245.874 60.5817 232.192 64.2513C209.722 70.2786 181.465 65.5967 158.179 59.9124C113.937 49.1089 69.1059 36.5126 28.4567 20.5091C2.98289 10.4792 -22.4959 -2.55429 -51.1577 -8.21504C-58.0484 -9.57725 -65.6136 -10.5628 -72.749 -9.45617" stroke="url(#paint14_linear)" stroke-miterlimit="10" stroke-linecap="round"/>
<path d="M316.214 18.0774C304.402 18.9486 292.744 17.62 283.005 23.1496C261.504 35.3624 257.741 60.3195 231.528 67.4063C209.192 73.4471 180.775 68.7786 157.705 62.9632C113.758 51.8872 69.6358 39.079 28.9717 23.2976C3.27797 13.3282 -22.8604 0.76221 -51.882 -4.45792C-58.9075 -5.72259 -66.5777 -6.61055 -73.7881 -5.46697" stroke="url(#paint15_linear)" stroke-miterlimit="10" stroke-linecap="round"/>
<path d="M317.144 19.7322C304.676 20.5024 293.114 20.156 283.065 26.0051C261.674 38.4567 257.102 63.4407 230.773 70.5746C208.483 76.6155 180.086 71.9705 157.235 65.97C113.703 54.5409 70.3202 41.4603 29.6111 26.0387C3.59258 16.1803 -23.2904 4.15589 -52.7117 -0.566448C-59.8921 -1.72012 -67.6872 -2.50045 -74.9775 -1.30305" stroke="url(#paint16_linear)" stroke-miterlimit="10" stroke-linecap="round"/>
<path d="M318.188 21.2053C304.936 21.952 293.428 22.6348 283.08 28.9144C262.013 41.699 256.242 66.5619 229.919 73.7396C207.713 79.7939 179.381 75.1523 156.75 68.9163C113.738 57.0634 71.1296 43.6599 30.3405 28.7059C3.8923 19.0089 -23.7901 7.58991 -53.6562 3.399C-61.0015 2.36978 -68.9315 1.70381 -76.3218 2.95839" stroke="url(#paint17_linear)" stroke-miterlimit="10" stroke-linecap="round"/>
<path d="M319.322 22.5441C305.181 23.3413 293.823 25.0667 283.065 31.8542C263.682 44.0805 255.777 70.5411 228.974 76.9081C205.289 82.5353 178.656 78.3376 156.266 71.8158C113.882 59.4718 72.0739 45.7118 31.1799 31.3127C4.21202 21.8176 -24.3049 11.0645 -54.6456 7.42524C-62.1658 6.52382 -70.2357 5.9823 -77.731 7.29742" stroke="url(#paint18_linear)" stroke-miterlimit="10" stroke-linecap="round"/>
<path d="M320.521 23.7989C305.491 24.7037 294.148 27.5626 283.085 34.7067C272.971 41.2352 267.465 49.7852 259.44 57.3968C250.895 65.5028 242.636 76.5687 227.94 80.0801C204.295 85.7308 177.907 81.5264 155.771 74.6683C114.112 61.7626 73.1432 47.6326 32.1143 33.8557C4.55178 24.5994 -24.8346 14.5628 -55.67 11.4818C-63.3651 10.7149 -71.5749 10.2945 -79.1851 11.6702" stroke="url(#paint19_linear)" stroke-miterlimit="10" stroke-linecap="round"/>
<path d="M321.75 25.0131C306.035 26.0726 294.368 30.1693 283.05 37.6262C272.531 44.5549 266.54 53.448 257.951 61.4094C249.466 69.2766 241.121 79.8177 226.81 83.2552C203.185 88.9261 177.117 84.7217 155.251 77.4767C114.392 63.9387 74.3272 49.4454 33.1284 36.3346C4.90128 27.3507 -25.3545 18.0675 -56.7046 15.5415C-64.5696 14.9092 -72.9193 14.6132 -80.6494 16.0427" stroke="url(#paint20_linear)" stroke-miterlimit="10" stroke-linecap="round"/>
<path d="M322.985 26.2375C306.55 27.5022 294.653 32.7492 283.02 40.5088C272.092 47.7974 265.576 57.0907 256.427 65.3615C247.977 73 239.563 83.0636 225.596 86.4271C201.966 92.1248 176.288 87.9205 154.711 80.2416C114.707 66.0006 75.6466 51.171 34.2279 38.7463C5.26634 30.0584 -25.8239 21.5824 -57.7037 19.5744C-65.7236 19.0699 -74.2082 18.895 -82.0532 20.3716" stroke="url(#paint21_linear)" stroke-miterlimit="10" stroke-linecap="round"/>
<path d="M324.194 27.5155C307.06 29.0257 294.923 35.3827 282.95 43.4315C271.917 50.8513 265.262 60.1648 255.778 68.4592C247.043 76.0977 238.389 86.1949 224.298 89.6054C200.648 95.3335 175.409 91.1392 154.147 82.9693C115.047 67.9513 77.1011 52.8257 35.4075 41.0939C5.69638 32.7322 -26.2433 25.0467 -58.6428 23.5533C-66.8126 23.1766 -75.4071 23.1127 -83.3721 24.6195" stroke="url(#paint22_linear)" stroke-miterlimit="10" stroke-linecap="round"/>
<path d="M325.353 28.8944C307.575 30.7006 295.213 38.0667 282.855 46.3745C271.383 54.087 264.197 63.7906 254.154 72.3507C245.379 79.8311 236.625 89.3867 222.918 92.7771C199.403 98.5926 174.474 94.3613 153.562 85.66C115.407 69.7843 78.7 54.43 36.6666 43.3709C6.191 35.3523 -26.5632 28.4572 -59.4873 27.4448C-67.787 27.1892 -76.4765 27.2194 -84.5464 28.7465" stroke="url(#paint23_linear)" stroke-miterlimit="10" stroke-linecap="round"/>
<path d="M326.432 30.4215C308.044 32.4733 295.452 40.8214 282.73 49.3479C271.412 56.9359 264.547 66.3436 254.393 74.6346C244.969 82.3302 235.815 92.4005 221.459 95.9523C197.849 101.795 173.47 97.6038 152.943 88.3206C134.659 80.0531 117.34 70.8775 97.9725 63.7335C78.7997 56.6634 58.5375 50.6193 37.9955 45.5808C6.75538 37.9221 -26.7683 31.8106 -60.2071 31.2321C-68.6118 31.0875 -77.3712 31.1985 -85.541 32.7222" stroke="url(#paint24_linear)" stroke-miterlimit="10" stroke-linecap="round"/>
<path d="M327.407 32.1469C308.539 34.4778 295.742 43.6602 282.585 52.3312C270.743 60.1345 263.432 69.9357 252.724 78.4756C243.33 85.9695 233.971 95.6563 219.925 99.1342C196.19 105.007 172.39 100.87 152.288 90.9609C134.749 82.3134 118.185 72.825 99.2465 65.5329C80.3435 58.251 60.0064 52.4389 39.3945 47.7334C7.40483 40.4279 -26.8334 35.0765 -60.7719 34.8815C-69.2565 34.8344 -78.0559 35.0126 -86.3057 36.5027" stroke="url(#paint25_linear)" stroke-miterlimit="10" stroke-linecap="round"/>
<path d="M328.241 34.111C309.129 36.674 295.872 46.4315 282.465 55.2068C270.428 63.0841 263.013 72.9828 251.995 81.5463C242.306 89.0738 232.542 98.7875 218.311 102.309C194.431 108.222 171.211 104.149 151.589 93.5674C134.834 84.533 119.044 74.7285 100.546 67.2716C81.9278 59.7643 61.5158 54.1944 40.8489 49.8017C8.14464 42.8527 -26.7382 38.2279 -61.1563 38.3557C-69.6909 38.386 -78.4953 38.6147 -86.8101 40.0408" stroke="url(#paint26_linear)" stroke-miterlimit="10" stroke-linecap="round"/>
<path d="M328.911 36.3678C309.748 39.1292 295.852 49.3609 282.316 58.1262C270.388 65.8454 263.263 75.539 252.235 83.8468C241.941 91.603 231.498 101.781 216.632 105.484C207.763 107.694 198.064 108.242 188.555 108.003C173.53 107.627 163.251 103.436 152.023 96.8601C135.839 87.3852 120.823 77.1097 102.66 69.2761C84.2013 61.3181 63.3246 55.9904 42.3879 51.8197C8.78422 45.1263 -26.9981 41.1843 -62.1208 41.6518C-70.4055 41.7628 -78.8751 42.0252 -86.98 43.3134" stroke="url(#paint27_linear)" stroke-miterlimit="10" stroke-linecap="round"/>
<path d="M329.401 38.9375C310.193 42.2573 296.077 52.1897 282.136 61.0525C269.663 68.9836 262.098 79.0673 250.496 87.624C240.067 95.3163 229.599 104.959 214.798 108.663C205.899 110.889 196.155 111.448 186.606 111.205C171.581 110.829 161.887 106.365 151.169 99.4601C135.848 89.5849 121.672 78.9866 103.954 70.9512C85.8352 62.7376 64.8935 57.6486 43.9618 53.747C9.80348 47.3765 -26.4835 44.05 -61.971 44.7093C-70.2307 44.864 -78.6853 45.1465 -86.7402 46.4852" stroke="url(#paint28_linear)" stroke-miterlimit="10" stroke-linecap="round"/>
<path d="M329.73 41.79C310.557 45.5302 296.216 55.143 281.93 64.0159C269.193 71.9268 261.578 82.1384 249.676 90.685C238.873 98.4446 227.994 108.091 212.894 111.848C203.93 114.078 194.161 114.663 184.542 114.421C169.507 114.038 160.417 109.288 150.259 102.06C135.828 91.795 122.501 80.867 105.232 72.6231C87.4837 64.1505 66.487 59.2801 45.5953 55.6139C11.1272 49.563 -25.5845 46.657 -61.2319 47.74C-69.5167 47.9923 -77.9963 48.3757 -86.0562 49.7884" stroke="url(#paint29_linear)" stroke-miterlimit="10" stroke-linecap="round"/>
<path d="M329.915 44.8846C310.837 48.9309 296.276 58.1906 281.706 66.9895C268.679 74.8533 261.029 85.2061 248.831 93.7326C237.639 101.556 226.341 111.213 210.93 115.023C202.346 117.146 192.972 117.832 183.748 117.674C167.103 117.388 158.754 112.212 148.25 103.823C135.378 93.5476 123.231 82.8248 107.176 74.6515C89.6125 65.708 68.241 60.9117 47.0395 57.4473C12.6114 51.8201 -23.8755 49.3783 -59.288 50.8044C-67.8625 51.1508 -76.652 51.6284 -84.9717 53.1689" stroke="url(#paint30_linear)" stroke-miterlimit="10" stroke-linecap="round"/>
<path d="M329.97 48.1973C311.042 52.4588 296.272 61.3216 281.456 69.9792C268.489 77.5572 261.209 87.8225 249.017 96.0564C237.069 104.129 225.067 114.226 208.897 118.195C200.073 120.361 190.444 121.077 180.98 120.869C165.295 120.522 157.375 115.245 148.156 107.156C135.989 96.4768 124.821 85.2125 109.131 76.649C91.8216 67.1976 69.9055 62.6737 48.4991 59.3607C13.7062 53.9758 -23.2303 52.0552 -58.8527 54.0262C-67.1224 54.4837 -75.5621 55.079 -83.562 56.6397" stroke="url(#paint31_linear)" stroke-miterlimit="10" stroke-linecap="round"/>
<path d="M329.92 51.6956C311.182 56.0647 296.191 64.5205 281.196 72.9763C267.924 80.4601 260.619 90.8936 248.147 99.1005C235.775 107.24 223.298 117.384 206.803 121.374C197.889 123.53 188.2 124.3 178.616 124.085C162.861 123.731 155.556 118.124 147.016 109.733C135.798 98.707 125.54 87.1063 110.269 78.3176C93.4202 68.6206 71.2892 64.3793 50.0077 61.3017C15.1649 56.2665 -21.7617 54.874 -57.2492 57.289C-65.4989 57.8507 -73.9086 58.5503 -81.8735 60.1816" stroke="url(#paint32_linear)" stroke-miterlimit="10" stroke-linecap="round"/>
<path d="M329.775 55.3414C311.252 59.7442 296.056 67.7661 280.921 75.9731C273.8 79.831 269.413 83.2819 264.731 88.6534C260.054 94.0148 253.888 97.8794 247.252 102.134C234.445 110.341 221.509 120.499 204.654 124.545C195.475 126.748 185.531 127.535 175.678 127.283C159.403 126.869 153.022 120.371 144.972 111.374C134.599 99.7798 124.86 87.6746 109.26 78.7917C93.305 69.7069 71.6288 65.9398 51.5215 63.2725C16.9235 58.6847 -19.5583 57.817 -54.5961 60.5481C-63.1057 61.2107 -71.7852 62.028 -79.98 63.7804" stroke="url(#paint33_linear)" stroke-miterlimit="10" stroke-linecap="round"/>
<path d="M329.551 59.1086C311.262 63.4845 295.867 71.0524 280.627 78.9667C273.321 82.7607 269.009 86.2183 264.247 91.6235C259.465 97.0488 253.139 100.9 246.323 105.155C233.067 113.432 219.665 123.603 202.441 127.707C192.987 129.96 182.774 130.781 172.635 130.468C157.245 129.994 151.374 123.533 144.498 114.889C134.919 102.847 126.175 90.2209 110.859 80.9074C95.1593 71.3585 73.3282 67.8403 53.0061 65.3244C18.2381 61.0157 -18.5435 60.7097 -53.5663 63.9891C-61.7561 64.7559 -70.0708 65.654 -77.9458 67.4064" stroke="url(#paint34_linear)" stroke-miterlimit="10" stroke-linecap="round"/>
<path d="M329.271 62.963C311.227 67.2615 295.642 74.3551 280.332 81.96C272.832 85.6834 268.599 89.1578 263.757 94.5966C258.866 100.089 252.38 103.924 245.379 108.182C231.663 116.523 217.787 126.715 200.178 130.875C191.054 133.031 181.27 133.896 171.491 133.7C154.457 133.364 149.07 126.096 142.41 116.449C134.26 104.657 126.53 92.2489 112.424 83.0161C97.2282 73.0703 74.7475 69.6664 54.4504 67.3961C13.8362 62.852 -35.9822 61.8665 -75.8169 71.0656" stroke="url(#paint35_linear)" stroke-miterlimit="10" stroke-linecap="round"/>
<path d="M328.951 66.8718C311.117 71.0627 295.442 77.6921 280.027 84.9404C272.352 88.5494 268.569 91.7313 263.628 97.1162C258.656 102.525 252.605 106.336 245.574 110.5C231.253 118.982 216.397 129.88 197.859 134.034C188.31 136.173 178.382 137.128 168.308 136.889C152.023 136.506 147.411 129.446 141.62 120.025C134.135 107.839 127.524 94.9972 113.688 85.2902C98.8022 74.8466 76.3314 71.695 55.7994 69.5726C15.1553 65.3649 -34.0835 65.3784 -73.6733 74.7289" stroke="url(#paint36_linear)" stroke-miterlimit="10" stroke-linecap="round"/>
<path d="M328.601 70.8034C310.993 74.8496 295.168 80.9913 279.717 87.9067C271.842 91.4316 268.145 94.6505 263.113 100.066C258.026 105.545 251.825 109.339 244.61 113.506C229.799 122.06 214.384 132.95 195.486 137.188C186.357 139.237 176.778 140.246 167.119 140.132C150.41 139.933 145.982 133.748 140.626 123.761C133.885 111.202 128.378 97.7718 114.902 87.5501C100.551 76.6659 77.5757 73.6354 57.0488 71.7552C16.1847 68.015 -32.0497 68.9568 -71.5596 78.3746" stroke="url(#paint37_linear)" stroke-miterlimit="10" stroke-linecap="round"/>
<path d="M328.247 74.7288C310.843 78.6103 294.878 84.2677 279.408 90.8601C271.338 94.301 267.705 97.5703 262.594 103.012C257.387 108.559 251.031 112.339 243.631 116.507C228.315 125.134 212.395 136.038 193.073 140.337C183.654 142.432 173.775 143.475 163.816 143.317C146.482 143.045 143.004 135.527 138.372 125.292C132.516 112.349 127.519 98.2732 113.408 88.0684C99.6519 78.1226 77.3061 75.6404 58.1583 74.0629C17.1893 70.6859 -30.1407 72.593 -69.5356 82.0041" stroke="url(#paint38_linear)" stroke-miterlimit="10" stroke-linecap="round"/>
<path d="M327.906 78.6098C310.687 82.3164 294.577 87.4928 279.107 93.7892C270.847 97.1494 267.27 100.483 262.073 105.955C256.741 111.569 250.231 115.336 242.645 119.503C226.326 128.467 210.186 138.739 190.623 143.485C181.204 145.772 170.711 146.704 160.443 146.498C142.519 146.139 140.071 137.121 136.148 126.735C131.701 114.969 127.733 102.356 116.58 92.4741C103.244 80.6582 79.8238 77.8833 59.1119 76.3865C18.1929 73.43 -28.4475 76.2655 -67.6626 85.5924" stroke="url(#paint39_linear)" stroke-miterlimit="10" stroke-linecap="round"/>
<path d="M327.587 82.4209C310.513 85.9458 294.268 90.6614 278.803 96.6922C270.363 99.9817 266.816 103.385 261.529 108.888C256.072 114.572 249.402 118.319 241.622 122.49C224.792 131.511 208.123 141.817 188.116 146.623C178.562 148.92 167.938 149.896 157.535 149.681C139.397 149.307 137.618 139.886 134.32 129.405C130.577 117.512 127.374 104.64 116.496 94.5631C103.674 82.69 80.2441 80.0967 59.852 78.8085C18.7481 76.2119 -26.748 80.0227 -66.0181 89.1243" stroke="url(#paint40_linear)" stroke-miterlimit="10" stroke-linecap="round"/>
<path d="M327.312 86.124C310.383 89.474 293.913 93.6986 278.518 99.5578C270.453 102.625 266.391 106.043 261.434 111.357C255.433 117.791 248.102 121.535 239.268 126.17C222.374 135.036 205.529 145.022 185.572 149.761C175.723 152.102 164.72 153.162 154.017 152.852C136.673 152.351 135.419 143.381 132.696 133.334C129.193 120.398 127.044 105.985 114.567 95.2525C102.065 84.4961 79.3445 82.4107 60.3716 81.3546C18.9679 79.0472 -25.1391 83.8469 -64.644 92.5987" stroke="url(#paint41_linear)" stroke-miterlimit="10" stroke-linecap="round"/>
<path d="M327.102 89.6929C310.248 92.8748 293.628 96.699 278.238 102.397C270.028 105.437 265.941 108.925 260.894 114.273C254.748 120.785 247.238 124.515 238.194 129.15C220.785 138.07 203.401 148.086 182.999 152.886C172.865 155.271 161.427 156.438 150.424 156.004C134.075 155.358 132.891 146.929 130.827 137.441C127.804 123.546 126.679 107.227 112.329 96.0532C100.116 86.5447 78.1253 84.7284 60.6464 83.9043C19.0378 81.9434 -23.9099 87.7454 -63.5947 95.9691" stroke="url(#paint42_linear)" stroke-miterlimit="10" stroke-linecap="round"/>
<path d="M326.967 93.0899C310.123 96.1237 293.394 99.6453 277.968 105.222C269.614 108.242 265.491 111.804 260.34 117.186C254.039 123.768 246.348 127.495 237.094 132.13C219.171 141.107 201.237 151.15 180.38 156.007C169.977 158.429 158.039 159.744 146.747 159.152C129.947 158.274 129.882 148.796 128.273 138.934C126.21 126.274 125.475 111.892 114.422 100.971C102.77 89.454 79.7292 87.409 60.6063 86.6185C18.7729 84.8863 -22.9606 91.7041 -62.9702 99.2518" stroke="url(#paint43_linear)" stroke-miterlimit="10" stroke-linecap="round"/>
<path d="M326.927 96.2921C310.063 99.2418 293.209 102.669 277.674 108.071C268.334 111.32 264.242 115.686 258.501 121.441C252.265 127.69 243.53 131.407 234.621 135.776C216.632 144.602 198.534 154.316 177.737 159.119C167.184 161.557 155.091 162.913 143.659 162.311C126.664 161.416 127.069 151.732 125.87 141.81C124.336 129.126 124.311 114.522 113.398 103.5C102.06 92.0574 79.0746 90.0562 60.2666 89.3835C18.1983 87.8833 -22.4109 95.7001 -62.7803 102.414" stroke="url(#paint44_linear)" stroke-miterlimit="10" stroke-linecap="round"/>
<path d="M326.892 99.4503C310.083 102.528 293.014 105.629 277.384 110.903C267.88 114.108 263.757 118.575 257.906 124.357C251.515 130.67 242.571 134.377 233.462 138.746C214.948 147.629 196.31 157.356 175.039 162.216C164.211 164.688 151.584 166.229 139.871 165.439C122.577 164.275 123.961 152.963 123.197 143.277C122.192 130.586 122.512 115.218 110.455 104.61C99.1619 94.6742 76.7861 92.7233 59.5871 92.2087C18.4182 90.9743 -23.2403 98.337 -62.8252 105.346" stroke="url(#paint45_linear)" stroke-miterlimit="10" stroke-linecap="round"/>
<path d="M326.812 102.676C310.108 105.851 292.749 108.538 277.099 113.718C267.694 116.833 263.647 121.111 257.731 126.789C251.185 133.072 242.965 136.708 233.706 141.043C214.183 150.178 194.616 160.279 172.31 165.301C161.322 167.776 148.545 169.37 136.683 168.577C119.189 167.409 120.968 155.994 120.518 146.25C119.933 133.627 120.883 118.017 108.84 107.432C97.6874 97.6306 75.4915 95.5923 58.5173 95.1651C18.028 94.146 -23.9803 100.91 -62.9556 108.007" stroke="url(#paint46_linear)" stroke-miterlimit="10" stroke-linecap="round"/>
<path d="M326.682 105.965C310.043 109.228 292.519 111.532 276.794 116.557C267.23 119.614 263.153 123.997 257.132 129.691C250.431 136.035 242.016 139.664 232.552 143.996C212.49 153.185 192.353 163.309 169.552 168.378C158.464 170.844 145.423 172.562 133.46 171.705C116.186 170.464 118.09 158.819 117.77 149.237C117.35 136.681 118.605 121.101 106.732 110.506C95.7941 100.745 73.6981 98.9929 56.9737 98.5455C17.119 97.4827 -24.7444 103.342 -63.165 110.412" stroke="url(#paint47_linear)" stroke-miterlimit="10" stroke-linecap="round"/>
<path d="M326.513 109.309C309.899 112.655 292.35 114.623 276.47 119.416C267.071 122.251 262.764 126.553 257.042 132.127C250.471 138.524 242.312 142.045 232.843 146.294C211.776 155.745 190.624 166.219 166.784 171.452C155.756 173.874 143.819 175.159 131.987 174.86C113.918 174.406 115.407 163.525 114.982 153.633C114.433 140.788 116.311 125.4 104.674 114.34C93.8557 104.065 72.5642 102.561 55.2352 101.983C16.18 100.678 -25.6134 105.696 -63.4194 112.581" stroke="url(#paint48_linear)" stroke-miterlimit="10" stroke-linecap="round"/>
<path d="M326.298 112.709C309.748 116.113 292.094 117.654 276.149 122.255C266.596 125.013 262.258 129.426 256.442 135.013C249.721 141.474 241.367 144.982 231.703 149.227C210.071 158.732 188.335 169.229 163.991 174.507C152.808 176.932 140.7 178.264 128.718 177.961C110.799 177.51 112.398 166.424 112.004 156.68C111.484 143.929 113.348 128.719 101.98 117.684C91.4867 107.496 70.2951 106.09 53.276 105.39C15.0002 103.816 -26.5684 107.862 -63.7598 114.512" stroke="url(#paint49_linear)" stroke-miterlimit="10" stroke-linecap="round"/>
<path d="M326.048 116.16C309.588 119.597 291.78 120.61 275.85 125.07C266.371 127.724 262.158 131.975 256.267 137.454C248.722 144.477 239.763 148.194 229.069 152.802C207.378 162.156 185.502 172.357 161.183 177.56C149.835 179.989 137.568 181.371 125.435 181.062C107.676 180.608 109.315 169.397 108.921 159.781C108.401 147.141 110.2 132.123 99.082 121.138C88.8934 111.068 67.8518 109.682 51.1424 108.824C13.6962 106.904 -27.5776 109.907 -64.1494 116.241" stroke="url(#paint50_linear)" stroke-miterlimit="10" stroke-linecap="round"/>
<path d="M325.763 119.658C309.353 123.129 291.505 123.654 275.525 127.912C265.891 130.478 261.644 134.844 255.673 140.333C247.952 147.424 238.788 151.124 227.89 155.731C205.639 165.132 183.194 175.357 158.359 180.608C146.857 183.04 134.415 184.476 122.127 184.156C104.533 183.699 106.147 172.431 105.723 162.926C105.163 150.407 106.862 135.601 95.9739 124.693C86.0602 114.761 65.2284 113.325 48.8289 112.275C12.2671 109.938 -28.6569 111.828 -64.5991 117.778" stroke="url(#paint51_linear)" stroke-miterlimit="10" stroke-linecap="round"/>
<path d="M325.443 123.197C309.074 126.691 291.225 126.701 275.195 130.748C265.412 133.216 261.129 137.707 255.068 143.199C247.178 150.353 237.804 154.04 226.696 158.641C203.886 168.089 180.865 178.338 155.521 183.632C143.864 186.067 131.247 187.557 118.805 187.224C101.381 186.76 102.905 175.506 102.425 166.094C101.795 153.707 103.364 139.133 92.6762 128.319C83.0173 118.548 62.4354 116.991 46.3506 115.72C10.7132 112.904 -29.801 113.604 -65.0986 119.12" stroke="url(#paint52_linear)" stroke-miterlimit="10" stroke-linecap="round"/>
<path d="M325.099 126.779C308.714 130.287 291.021 129.883 274.846 133.613C265.142 135.853 260.78 140.223 254.974 145.618C246.589 153.414 236.036 157.269 223.968 162.173C201.113 171.463 177.977 181.432 152.673 186.652C140.856 189.091 128.059 190.631 115.467 190.288C98.218 189.817 99.5922 178.637 99.0375 169.307C98.308 157.063 99.7121 142.735 89.2087 132.039C79.7797 122.443 59.4926 120.711 43.7276 119.184C9.06462 115.83 -30.9899 115.272 -65.6479 120.307" stroke="url(#paint53_linear)" stroke-miterlimit="10" stroke-linecap="round"/>
<path d="M324.719 130.398C308.339 133.913 290.735 132.957 274.511 136.455C264.667 138.578 260.26 143.085 254.383 148.48C245.819 156.34 235.021 160.182 222.739 165.079C199.328 174.412 175.633 184.402 149.825 189.666C137.852 192.108 124.876 193.702 112.129 193.346C95.0546 192.868 96.2288 181.815 95.5742 172.552C94.7148 160.464 95.924 146.395 85.5856 135.837C76.3664 126.426 56.4141 124.465 40.9739 122.658C7.33027 118.723 -32.2146 116.826 -66.228 121.347" stroke="url(#paint54_linear)" stroke-miterlimit="10" stroke-linecap="round"/>
<path d="M324.319 134.047C307.929 137.565 290.455 136.038 274.176 139.291C264.197 141.285 259.73 145.944 253.789 151.329C245.044 159.257 233.996 163.077 221.504 167.965C197.539 177.339 173.285 187.352 146.967 192.656C134.839 195.101 121.678 196.749 108.776 196.376C91.8865 195.888 92.8059 185.021 92.0264 175.815C91.0121 163.891 92.0015 150.094 81.8029 139.691C72.7637 130.475 53.1911 128.235 38.0807 126.123C5.49138 121.562 -33.4889 118.259 -66.8677 122.238" stroke="url(#paint55_linear)" stroke-width="1.4173" stroke-miterlimit="10" stroke-linecap="round"/>
<path d="M323.899 137.723C307.499 141.235 290.115 138.974 273.866 142.092C263.097 144.161 258.241 149.849 251.72 155.503C243.645 162.512 233.157 165.903 221.879 170.225C196.82 179.831 171.531 190.177 144.103 195.636C131.816 198.081 118.474 199.783 105.423 199.396C88.7182 198.902 89.3428 188.263 88.4084 179.108C87.2142 167.359 87.9587 153.844 77.8901 143.616C69.0107 134.595 49.8529 132.042 35.0823 129.597C3.58725 124.38 -34.7834 119.591 -67.5376 123.015" stroke="url(#paint56_linear)" stroke-width="1.4173" stroke-miterlimit="10" stroke-linecap="round"/>
<path d="M323.459 141.43C307 144.938 289.845 142.046 273.536 144.928C262.623 146.855 257.696 152.714 251.105 158.358C242.865 165.415 232.147 168.789 220.684 173.104C195.061 182.747 169.202 193.113 141.25 198.613C128.808 201.061 115.281 202.81 102.075 202.41C85.5551 201.909 85.8449 191.543 84.7406 182.428C83.3365 170.867 83.8312 157.635 73.8725 147.599C65.1181 138.776 46.4149 135.87 32.0041 133.072C1.63837 127.172 -36.0677 120.832 -68.2173 123.688" stroke="url(#paint57_linear)" stroke-width="1.4173" stroke-miterlimit="10" stroke-linecap="round"/>
<path d="M323 145.153C306.455 148.655 289.581 145.113 273.201 147.757C262.148 149.543 257.147 155.574 250.481 161.204C242.076 168.308 231.118 171.661 219.476 175.966C193.292 185.646 166.859 196.03 138.392 201.569C125.795 204.021 112.084 205.817 98.7272 205.404C82.3976 204.899 82.3177 194.839 81.0135 185.761C79.3845 174.402 79.6044 161.453 69.7356 151.625C61.0761 142.997 42.8677 139.711 28.8216 136.54C-0.384821 129.944 -37.3763 121.979 -68.9463 124.266" stroke="url(#paint58_linear)" stroke-width="1.4173" stroke-miterlimit="10" stroke-linecap="round"/>
<path d="M322.53 148.9C305.876 152.395 289.381 148.372 272.842 150.626C261.729 152.139 257.082 158.042 250.346 163.595C241.812 170.628 231.678 173.955 219.95 178.22C192.663 188.135 165 198.999 135.544 204.522C122.787 206.914 108.981 208.821 95.3895 208.39C79.2548 207.879 78.7701 198.162 77.2461 189.121C75.3673 177.971 75.3023 165.314 65.5185 155.705C56.924 147.259 39.2452 143.576 25.5839 140.014C1.58909 133.761 -23.8398 128.454 -49.3136 125.699C-56.0243 124.972 -62.88 124.404 -69.6807 124.784" stroke="url(#paint59_linear)" stroke-width="1.4173" stroke-miterlimit="10" stroke-linecap="round"/>
<path d="M322.05 152.657C305.271 156.142 289.126 151.453 272.512 153.451C261.299 154.8 256.517 160.911 249.736 166.427C241.037 173.504 230.693 176.81 218.786 181.062C190.929 191.011 162.692 201.885 132.706 207.452C119.879 209.833 103.879 212.712 90.1826 211.326C75.327 209.823 74.7924 200.012 73.2284 191.341C71.3046 180.651 70.4951 168.398 60.8812 159.31C52.6664 151.544 34.7628 147.181 22.2807 143.458C-0.25998 136.738 -23.9749 130.707 -48.0596 127.021C-55.355 125.904 -62.9152 124.929 -70.4404 125.225" stroke="url(#paint60_linear)" stroke-width="1.4173" stroke-miterlimit="10" stroke-linecap="round"/>
<path d="M321.56 156.424C304.631 159.899 288.881 154.53 272.187 156.276C260.879 157.457 255.957 163.777 249.131 169.256C240.262 176.373 229.704 179.656 217.621 183.897C189.194 193.873 160.388 204.764 129.872 210.368C116.875 212.752 100.715 215.662 86.8543 214.273C72.1636 212.803 71.1793 203.372 69.3654 194.738C67.1618 184.257 66.0575 172.33 56.5186 163.45C48.3038 155.799 31.0847 151.036 18.9324 146.909C-2.84874 139.509 -25.7242 132.513 -49.2593 128.026C-56.3598 126.671 -63.7751 125.46 -71.2153 125.625" stroke="url(#paint61_linear)" stroke-width="1.4173" stroke-miterlimit="10" stroke-linecap="round"/>
<path d="M321.066 160.202C303.961 163.669 288.606 157.396 271.892 159.058C260.954 160.144 255.602 166.286 249.106 171.641C239.787 179.32 227.57 182.892 214.723 187.325C186.316 197.133 157.479 207.748 127.059 213.271C113.887 215.662 97.5825 218.588 83.5564 217.203C69.0306 215.77 67.5815 206.732 65.4929 198.145C62.9994 187.876 61.5853 176.279 52.1213 167.618C43.8566 160.054 27.392 154.907 15.5596 150.353C-5.46709 142.261 -27.4781 134.293 -50.4635 128.999C-57.3591 127.411 -64.6245 125.958 -71.9849 125.995" stroke="url(#paint62_linear)" stroke-width="1.4173" stroke-miterlimit="10" stroke-linecap="round"/>
<path d="M320.566 163.982C303.267 167.437 288.381 160.454 271.572 161.88C260.534 162.815 255.072 169.132 248.517 174.463C239.028 182.182 226.566 185.724 213.544 190.147C184.582 199.978 155.196 210.607 124.26 216.16C110.909 218.558 94.4744 221.495 80.2734 220.119C65.9075 218.726 63.9838 210.096 61.6053 201.559C58.807 191.512 57.0781 180.248 47.6841 171.802C39.3294 164.292 23.6793 158.786 12.1617 153.788C-8.11547 144.989 -29.2371 136.055 -51.6828 129.951C-58.3686 128.131 -65.479 126.439 -72.7744 126.352" stroke="url(#paint63_linear)" stroke-width="1.4173" stroke-miterlimit="10" stroke-linecap="round"/>
<path d="M320.071 167.763C302.562 171.207 288.166 163.501 271.262 164.695C260.129 165.482 254.548 171.97 247.932 177.281C238.273 185.038 225.571 188.552 212.375 192.959C182.863 202.814 152.932 213.449 121.487 219.036C107.986 221.434 92.061 224.135 77.7201 223.035C63.5391 221.948 60.8908 214.727 58.0626 206.056C54.8896 196.332 53.0858 185.666 44.5462 177.224C36.1665 168.943 20.6514 163 8.76891 157.215C-10.9736 147.602 -31.3856 137.555 -53.6265 130.66C-59.8825 128.719 -66.5783 126.92 -73.5488 126.715" stroke="url(#paint64_linear)" stroke-width="1.4173" stroke-miterlimit="10" stroke-linecap="round"/>
<path d="M319.577 171.537C301.818 174.971 287.912 166.478 270.923 167.544C258.781 168.308 253.089 175.785 245.719 181.385C236.01 188.761 222.339 192.098 209.447 196.336C179.981 206.016 150.07 216.385 118.735 221.888C105.058 224.289 89.0136 226.994 74.5028 225.907C60.4967 224.861 57.3886 218.013 54.2206 209.426C50.7229 199.948 48.6042 189.592 40.0996 181.388C31.58 173.168 16.8494 166.865 5.37665 160.622C-13.6213 150.286 -33.0839 139.281 -54.8101 131.568C-60.8563 129.422 -67.3972 127.397 -74.3228 127.088" stroke="url(#paint65_linear)" stroke-width="1.4173" stroke-miterlimit="10" stroke-linecap="round"/>
<path d="M319.087 175.307C301.089 178.727 287.712 169.515 270.618 170.356C258.406 170.954 252.534 178.637 245.114 184.196C235.24 191.593 221.314 194.902 208.262 199.124C178.266 208.82 147.831 219.197 116.001 224.73C102.23 227.125 86.5747 229.63 71.989 228.783C58.2677 227.986 54.3152 221.988 50.7924 213.765C46.4002 203.513 44.0367 192.104 33.4984 183.662C24.4441 176.41 12.4168 170.322 1.9984 164.009C-16.3699 152.876 -35.168 140.666 -56.6494 132.224C-62.3058 130 -68.4669 127.881 -75.0977 127.495" stroke="url(#paint66_linear)" stroke-width="1.4173" stroke-miterlimit="10" stroke-linecap="round"/>
<path d="M318.607 179.064C300.364 182.471 287.522 172.546 270.323 173.165C258.05 173.605 251.989 181.486 244.519 187.005C234.48 194.422 220.299 197.701 207.093 201.906C176.572 211.616 145.612 221.999 113.302 227.555C99.3612 229.954 83.5862 232.456 68.8406 231.622C55.2542 230.852 50.9569 225.194 47.0244 217.088C42.1675 207.068 39.4792 196.164 29.0908 187.853C19.9716 180.554 8.6638 174.123 -1.34485 167.386C-18.9637 155.53 -36.7823 142.379 -57.784 133.139C-63.2356 130.741 -69.2517 128.413 -75.8525 127.946" stroke="url(#paint67_linear)" stroke-width="1.4173" stroke-miterlimit="10" stroke-linecap="round"/>
<path d="M318.138 182.804C299.675 186.198 287.383 175.701 270.069 175.916C259.086 176.054 253.244 182.562 246.744 187.634C235.845 196.13 222.649 199.44 207.763 204.095C176.118 213.994 144.074 224.67 110.63 230.354C96.5189 232.752 80.634 235.251 65.7284 234.431C52.317 233.691 47.59 228.366 43.2927 220.385C38.031 210.614 34.938 200.173 24.7295 192.01C15.5303 184.651 4.94704 177.88 -4.64687 170.736C-21.5262 158.163 -38.3605 144.097 -58.8974 134.078C-64.1441 131.518 -70.0154 128.985 -76.5962 128.45" stroke="url(#paint68_linear)" stroke-width="1.4173" stroke-miterlimit="10" stroke-linecap="round"/>
<path d="M317.678 186.531C298.965 189.908 287.197 178.704 269.783 178.718C258.735 178.724 252.754 185.381 246.203 190.429C235.14 198.949 221.689 202.225 206.648 206.86C174.484 216.765 141.924 227.444 107.991 233.149C93.8398 235.53 78.2497 237.871 63.3242 237.246C49.1782 236.65 44.0314 231.228 39.1296 222.799C34.0178 214.014 30.56 204.758 21.7406 197.2C12.4665 189.252 1.66334 181.926 -7.8806 174.079C-24.2002 160.672 -40.1051 145.54 -60.5422 134.76C-65.4491 132.17 -70.9755 129.607 -77.3115 129.042" stroke="url(#paint69_linear)" stroke-width="1.4173" stroke-miterlimit="10" stroke-linecap="round"/>
<path d="M317.243 190.231C298.28 193.591 287.022 181.691 269.518 181.509C258.41 181.395 252.289 188.189 245.679 193.211C234.451 201.751 220.744 204.993 205.554 209.601C172.875 219.513 139.806 230.189 105.393 235.914C91.0867 238.295 75.3816 240.629 60.3062 240.014C46.3501 239.442 40.7636 234.35 35.462 226.089C30.0005 217.572 26.1879 208.673 17.5084 201.276C8.09436 193.254 -1.94427 185.633 -11.0535 177.396C-26.6336 163.299 -41.5441 147.303 -61.5614 135.776C-66.2834 133.058 -71.675 130.317 -78.001 129.718" stroke="url(#paint70_linear)" stroke-width="1.4173" stroke-miterlimit="10" stroke-linecap="round"/>
<path d="M316.824 193.907C297.586 197.278 286.818 184.557 269.219 184.345C257.277 184.2 250.691 192.034 243.45 197.281C233.237 204.681 219.78 207.762 206.349 211.774C172.545 221.875 138.377 232.816 102.835 238.665C88.5237 241.02 73.0435 243.236 57.9931 242.775C43.3024 242.325 37.3162 237.148 31.325 228.598C26.0334 221.044 22.2358 213.022 14.5806 206.319C4.84682 197.792 -5.12185 189.649 -14.1361 180.689C-28.6719 166.236 -42.2932 150.263 -60.9114 137.919C-65.7783 134.693 -71.6196 131.185 -78.6602 130.509" stroke="url(#paint71_linear)" stroke-width="1.4173" stroke-miterlimit="10" stroke-linecap="round"/>
<path d="M316.424 197.556C296.947 200.913 286.658 187.516 268.965 187.133C256.967 186.874 250.217 194.845 242.916 200.062C232.553 207.472 218.876 210.509 205.315 214.502C171.007 224.599 136.334 235.537 100.317 241.399C85.8608 243.75 70.2657 245.964 55.0804 245.506C40.5946 245.072 34.1587 240.215 27.7677 231.864C22.1863 224.575 18.1139 216.822 10.5437 210.291C0.599986 201.714 -8.57419 193.281 -17.1188 183.968C-30.965 168.873 -43.6719 152.149 -61.8753 139.122C-66.5274 135.793 -72.2288 132.083 -79.2793 131.413" stroke="url(#paint72_linear)" stroke-width="1.4173" stroke-miterlimit="10" stroke-linecap="round"/>
<path d="M316.049 201.169C296.342 204.515 286.508 190.459 268.719 189.914C256.672 189.548 249.752 197.644 242.391 202.833C231.878 210.247 217.987 213.243 204.295 217.216C169.487 227.31 134.32 238.241 97.8429 244.11C83.2472 246.458 67.5422 248.664 52.2269 248.21C37.941 247.786 31.0703 243.226 24.2946 235.089C18.4433 228.066 14.0961 220.573 6.62084 214.202C-3.50273 205.578 -11.9324 196.843 -20.0023 187.22C-33.1689 171.519 -44.9814 154.083 -62.7851 140.411C-67.2323 136.993 -72.8037 133.095 -79.8643 132.456" stroke="url(#paint73_linear)" stroke-width="1.4173" stroke-miterlimit="10" stroke-linecap="round"/>
<path d="M315.705 204.748C295.792 208.061 286.398 193.504 268.525 192.643C256.612 192.067 249.692 200.15 242.421 205.172C230.919 213.113 216.243 216.217 201.377 220.469C166.719 230.374 131.682 241.036 95.4147 246.805C80.679 249.149 64.8741 251.346 49.4289 250.891C35.3328 250.478 28.0525 246.186 20.907 238.278C14.8059 231.525 10.1988 224.273 2.82847 218.057C-7.44001 209.396 -15.1701 200.338 -22.7653 190.453C-35.2623 174.187 -46.1954 156.071 -63.6293 141.793C-67.8816 138.312 -73.3332 134.232 -80.4087 133.654" stroke="url(#paint74_linear)" stroke-width="1.4173" stroke-miterlimit="10" stroke-linecap="round"/>
<path d="M315.39 208.286C295.268 211.592 286.268 196.406 268.305 195.417C256.337 194.758 249.267 202.938 241.927 207.94C230.279 215.871 215.358 218.941 200.373 223.163C165.245 233.058 129.743 243.707 93.0311 249.482C78.3404 251.793 62.7103 253.908 47.3301 253.565C33.6738 253.262 25.8188 249.643 18.2736 242.113C2.51356 226.382 -13.2664 210.832 -25.3987 193.658C-37.3211 176.777 -47.4047 157.615 -64.8986 142.853C-68.9011 139.476 -74.0728 135.483 -80.9185 135.019" stroke="url(#paint75_linear)" stroke-width="1.4173" stroke-miterlimit="10" stroke-linecap="round"/>
<path d="M315.104 211.781C294.782 215.091 286.148 199.286 268.089 198.189C256.062 197.459 248.857 205.72 241.441 210.701C229.654 218.619 214.493 221.653 199.393 225.844C163.806 235.722 127.843 246.358 90.707 252.133C65.1182 256.112 33.1585 261.893 15.125 245.18C-1.45451 229.809 -16.5549 214.273 -27.8827 196.837C-39.1556 179.485 -48.3797 159.694 -65.5738 144.437C-69.4513 140.996 -74.4831 136.957 -81.3638 136.563" stroke="url(#paint76_linear)" stroke-width="1.4173" stroke-miterlimit="10" stroke-linecap="round"/>
<path d="M314.855 215.225C294.328 218.541 286.033 202.064 267.85 201.004C256.047 200.318 248.947 208.01 241.611 213.052C229.159 221.612 212.66 224.613 196.51 229.032C161.112 238.719 125.325 249.089 88.4384 254.759C62.8297 258.695 30.82 264.372 12.1019 248.197C-5.30207 233.156 -19.608 217.687 -30.2063 199.992C-40.8495 182.222 -49.2342 161.836 -66.1584 146.149C-69.8911 142.691 -74.8479 138.544 -81.7485 138.305" stroke="url(#paint77_linear)" stroke-width="1.4173" stroke-miterlimit="10" stroke-linecap="round"/>
<path d="M314.65 218.622C293.948 221.955 285.954 204.909 267.67 203.769C255.808 203.029 248.592 210.775 241.172 215.803C228.58 224.343 211.821 227.299 195.571 231.685C159.739 241.352 123.527 251.702 86.2354 257.366C60.5967 261.261 28.572 266.824 9.21428 251.157C1.43422 244.86 -5.1566 237.76 -12.5519 231.248C-21.9559 222.967 -26.9677 212.863 -32.3593 203.119C-42.388 184.994 -49.9581 164.042 -66.6525 147.995C-70.2503 144.538 -75.1671 140.303 -82.0728 140.259" stroke="url(#paint78_linear)" stroke-width="1.4173" stroke-miterlimit="10" stroke-linecap="round"/>
<path d="M314.48 221.962C293.683 225.309 285.818 207.886 267.494 206.53C255.632 205.652 248.172 213.583 240.741 218.551C228.009 227.068 211 229.98 194.651 234.326C158.399 243.966 121.767 254.298 84.0908 259.952C58.4022 263.81 26.4125 269.246 6.46013 254.063C-1.42986 248.059 -8.25553 241.107 -15.401 234.696C-24.7051 226.355 -29.2972 216.039 -34.329 206.224C-43.773 187.809 -50.5437 166.33 -67.0482 149.993C-70.531 146.546 -75.4229 142.257 -82.3335 142.442" stroke="url(#paint79_linear)" stroke-width="1.4173" stroke-miterlimit="10" stroke-linecap="round"/>
<path d="M314.355 225.244C293.354 228.635 285.833 210.593 267.37 209.234C254.663 208.299 246.533 217.428 238.468 222.463C227.535 229.291 213.2 231.85 199.573 235.422C160.983 245.533 122.077 256.579 82.0078 262.519C56.2542 266.336 24.3394 271.637 3.85244 256.905C-4.1175 251.173 -11.1231 244.356 -18.0287 238.036C-27.2028 229.637 -31.4202 219.167 -36.1172 209.305C-44.9866 190.671 -50.9777 168.687 -67.3424 152.149C-70.7352 148.718 -75.6371 144.413 -82.5327 144.867" stroke="url(#paint80_linear)" stroke-width="1.4173" stroke-miterlimit="10" stroke-linecap="round"/>
<path d="M314.275 228.464C293.294 231.874 285.699 213.57 267.15 212.09C254.543 211.084 246.129 220.119 237.949 225.053C226.776 231.79 212.375 234.373 198.639 237.949C159.679 248.089 120.449 259.132 79.9943 265.055C54.1707 268.835 22.3758 273.995 1.40916 259.677C-6.62574 254.191 -13.7312 247.504 -20.397 241.251C-29.4113 232.796 -33.2988 222.241 -37.686 212.352C-46.0107 193.581 -51.2474 171.123 -67.5171 154.47C-70.85 151.06 -75.7818 146.785 -82.6475 147.548" stroke="url(#paint81_linear)" stroke-width="1.4173" stroke-miterlimit="10" stroke-linecap="round"/>
<path d="M314.25 231.618C293.878 235.002 285.259 216.388 266.97 214.908C254.438 213.896 245.749 222.722 237.394 227.552C225.966 234.154 211.491 236.768 197.664 240.35C158.379 250.534 118.884 261.684 78.0554 267.574C52.1418 271.311 20.5219 276.332 -0.859561 262.381C-21.2766 249.055 -31.4951 233.559 -39.0353 215.379C-46.8454 196.557 -51.3475 173.638 -67.5722 156.979C-70.8751 153.589 -75.8769 149.408 -82.6826 150.508" stroke="url(#paint82_linear)" stroke-width="1.4173" stroke-miterlimit="10" stroke-linecap="round"/>
<path d="M314.381 234.504C294.173 236.963 285.344 219.002 266.781 217.737C255.443 216.967 247.763 223.573 239.943 228.151C226.696 235.907 210.761 238.981 194.662 243.152C155.821 253.219 116.731 264.244 76.3917 270.036C49.8535 273.847 18.1937 278.667 -3.73742 264.49C-23.7447 251.55 -33.2487 236.2 -40.1643 218.38C-45.1012 205.666 -49.3884 192.827 -55.0798 180.251C-58.1179 173.534 -61.2909 166.088 -67.1322 160.185C-70.555 156.724 -75.8716 152.751 -82.7173 154.117" stroke="url(#paint83_linear)" stroke-width="1.4173" stroke-miterlimit="10" stroke-linecap="round"/>
<path d="M314.78 236.919C294.828 238.611 285.389 221.602 266.65 220.496C255.343 219.83 247.463 226.109 239.388 230.562C225.836 238.043 209.727 241.178 193.617 245.352C154.577 255.466 115.312 266.589 74.7823 272.441C48.1842 276.282 16.5892 280.988 -5.64664 267.053C-25.6839 254.497 -34.6232 238.914 -41.0492 221.357C-47.6949 203.204 -50.8529 179.912 -67.3625 164.157C-70.8852 160.797 -76.2118 157.225 -82.8276 158.779" stroke="url(#paint84_linear)" stroke-width="1.4173" stroke-miterlimit="10" stroke-linecap="round"/>
<path d="M315.419 238.917C295.792 240 285.389 224.235 266.585 223.189C254.713 222.53 245.604 229.543 236.909 233.912C223.138 240.834 206.474 243.861 190.614 247.982C152.058 257.995 113.263 268.96 73.2432 274.779C47.1148 278.579 15.6598 283.349 -6.51112 269.949C-27.0831 257.514 -35.3878 241.658 -41.7438 224.027C-46.026 212.15 -49.7836 200.163 -55.1103 188.468C-58.2533 181.573 -61.6861 173.474 -68.8366 167.867C-72.4293 165.048 -77.4061 162.808 -82.9976 164.338" stroke="url(#paint85_linear)" stroke-width="1.4173" stroke-miterlimit="10" stroke-linecap="round"/>
<path d="M316.264 240.555C296.891 241.221 285.424 226.661 266.506 225.914C254.603 225.443 245.349 231.935 236.305 236.179C222.204 242.799 205.459 245.906 189.564 250.044C150.859 260.114 111.924 271.166 71.7642 277.062C46.1805 280.819 14.7704 285.683 -7.24563 272.814C-28.1674 260.585 -36.0873 244.487 -42.4133 226.933C-45.0566 219.597 -57.4737 162.579 -83.2124 170.685" stroke="url(#paint86_linear)" stroke-width="1.4173" stroke-miterlimit="10" stroke-linecap="round"/>
<path d="M317.278 241.898C298.081 242.308 285.474 228.968 266.421 228.662C253.664 228.457 243.925 234.972 233.721 239.274C219.346 245.332 202.341 248.456 186.611 252.563C148.426 262.536 109.98 273.42 70.3552 279.293C44.3017 283.154 12.6768 288.105 -9.45416 274.681C-29.2166 262.694 -36.8268 246.997 -43.0528 230.088C-45.5263 223.368 -58.0533 168.617 -83.4722 177.685" stroke="url(#paint87_linear)" stroke-width="1.4173" stroke-miterlimit="10" stroke-linecap="round"/>
<path d="M318.428 242.994C299.385 243.283 285.478 231.507 266.376 231.37C253.664 231.279 243.54 237.346 233.097 241.433C218.371 247.195 201.432 250.407 185.612 254.547C147.311 264.567 108.756 275.525 69.0258 281.475C43.0923 285.36 11.2875 290.473 -10.7685 276.972C-30.0963 265.139 -37.3866 250.067 -43.6577 233.478C-46.1661 226.846 -58.5982 175.223 -83.7622 185.216" stroke="url(#paint88_linear)" stroke-width="1.4173" stroke-miterlimit="10" stroke-linecap="round"/>
<path d="M319.687 243.909C300.694 244.235 285.539 233.761 266.371 234.053C254.888 234.228 245.529 238.668 235.87 242.321C221.499 247.753 205.684 251.036 190.364 255.025C150.035 265.529 109.57 277.298 67.7718 283.618C42.3979 287.456 10.758 292.629 -11.2181 279.777C-30.4209 268.546 -37.9911 253.067 -44.2421 237.064C-47.2352 229.395 -59.2776 182.491 -84.0918 193.143" stroke="url(#paint89_linear)" stroke-width="1.4173" stroke-miterlimit="10" stroke-linecap="round"/>
<path d="M321.016 244.696C301.968 245.123 285.629 236.129 266.356 236.775C254.863 237.158 245.319 241.1 235.361 244.558C220.695 249.65 204.85 252.99 189.48 256.996C149.05 267.53 108.501 279.343 66.6227 285.73C40.4943 289.716 7.97995 295.023 -13.9961 281.035C-31.3851 269.965 -38.5655 255.95 -44.7716 240.814C-48.0145 232.903 -59.9619 190.076 -84.4214 201.36" stroke="url(#paint90_linear)" stroke-width="1.4173" stroke-miterlimit="10" stroke-linecap="round"/>
<path d="M322.386 245.416C303.168 246.011 285.774 238.527 266.326 239.526C254.084 240.159 243.756 244.033 232.827 247.461C217.917 252.136 202.057 255.483 186.727 259.485C146.867 269.888 106.842 281.469 65.5587 287.809C40.3697 291.677 8.54487 297.102 -13.3862 284.298C-31.2449 273.867 -38.845 259.465 -45.271 244.672C-48.8837 236.358 -60.7861 197.994 -84.7759 209.712" stroke="url(#paint91_linear)" stroke-width="1.4173" stroke-miterlimit="10" stroke-linecap="round"/>
<path d="M323.759 246.125C304.336 246.976 285.958 240.976 266.346 242.254C255.377 242.97 245.719 245.789 235.72 248.708C218.821 253.639 201.262 257.517 184.088 262.001C144.783 272.256 105.298 283.588 64.5986 289.867C38.9149 293.83 6.93021 299.299 -15.1857 286.003C-31.7302 276.053 -39.2455 262.462 -45.7264 248.631C-49.8437 239.846 -61.6662 206.234 -85.1313 218.094" stroke="url(#paint92_linear)" stroke-width="1.4173" stroke-miterlimit="10" stroke-linecap="round"/>
<path d="M325.108 246.882C305.421 248.042 286.178 243.482 266.35 245.022C255.412 245.873 245.524 248.335 235.355 251.053C218.186 255.641 200.657 259.593 183.418 264.073C144.048 274.301 104.493 285.606 63.7591 291.902C38.2053 295.851 5.99074 301.465 -16.0003 288.159C-31.8003 278.596 -39.4254 265.815 -46.1212 252.623C-50.9981 243.017 -62.7056 214.757 -85.4712 226.368" stroke="url(#paint93_linear)" stroke-width="1.4173" stroke-miterlimit="10" stroke-linecap="round"/>
<path d="M326.393 247.747C306.4 249.253 286.423 245.987 266.341 247.831C237.214 250.501 208.258 259.64 181 266.686C142.184 276.72 103.164 287.732 63.0247 293.927C37.9906 297.792 6.15084 303.453 -15.8752 290.88C-31.4803 281.973 -39.5551 269.165 -46.4757 256.619C-52.2621 246.129 -64.0096 223.324 -85.8008 234.414" stroke="url(#paint94_linear)" stroke-width="1.4173" stroke-miterlimit="10" stroke-linecap="round"/>
<path d="M327.587 248.772C307.295 250.646 286.713 248.658 266.351 250.649C236.875 253.535 208.218 261.809 180.531 268.899C141.66 278.852 102.58 289.773 62.4155 295.942C37.0566 299.837 4.64215 305.531 -17.4039 292.484C-31.7248 284.012 -39.6647 272.186 -46.7752 260.605C-53.5509 249.566 -65.2835 231.773 -86.1152 242.103" stroke="url(#paint95_linear)" stroke-width="1.4173" stroke-miterlimit="10" stroke-linecap="round"/>
<path d="M328.656 250.017C308.084 252.257 287.023 251.439 266.366 253.498C236.655 256.458 208.173 264.13 180.181 271.207C141.25 281.048 102.115 291.845 61.9356 297.95C36.5217 301.811 4.20723 307.515 -17.8987 294.559C-31.5751 286.544 -39.575 275.367 -47.0102 264.51C-54.7753 253.172 -66.6278 239.977 -86.3853 249.304" stroke="url(#paint96_linear)" stroke-width="1.4173" stroke-miterlimit="10" stroke-linecap="round"/>
<path d="M329.56 251.544C308.769 254.134 287.322 254.383 266.386 256.38C238.453 259.048 211.79 265.751 185.412 272.273C144.593 282.363 103.659 293.671 61.5957 299.965C36.6765 303.691 4.8117 309.349 -17.3842 297.22C-31.0405 289.756 -39.2203 278.553 -47.1753 268.297C-55.9597 256.976 -67.8172 247.804 -86.6152 255.896" stroke="url(#paint97_linear)" stroke-width="1.4173" stroke-miterlimit="10" stroke-linecap="round"/>
<path d="M330.28 253.407C309.304 256.307 287.602 257.406 266.396 259.307C238.439 261.813 211.781 268.442 185.352 274.836C144.463 284.728 103.469 295.821 61.396 301.979C36.127 305.679 3.5877 311.364 -18.6382 298.72C-31.1652 291.596 -39.1352 281.328 -47.275 271.96C-56.8839 260.904 -68.9313 255.069 -86.7949 261.752" stroke="url(#paint98_linear)" stroke-width="1.4173" stroke-miterlimit="10" stroke-linecap="round"/>
<path d="M330.769 255.664C309.678 258.816 287.971 260.319 266.565 262.098C238.723 264.413 211.74 271.318 185.372 277.523C144.433 287.16 103.409 298.024 61.3503 304.007C36.1064 307.6 3.52206 313.183 -18.7838 300.762C-30.9361 293.994 -38.7311 284.146 -47.3007 275.425C-57.5692 264.971 -69.8164 261.557 -86.9155 266.747" stroke="url(#paint99_linear)" stroke-width="1.4173" stroke-miterlimit="10" stroke-linecap="round"/>
<path d="M331 258.375C309.858 261.708 288.432 263.047 266.915 264.755C239.133 266.959 211.686 274.321 185.287 280.345C144.438 289.662 103.344 300.311 61.4459 306.052C35.5473 309.601 2.86809 314.952 -19.8275 302.211C-31.2403 295.807 -38.4307 286.521 -47.2651 278.64C-58.1082 268.963 -70.3854 267.194 -86.9849 270.749" stroke="url(#paint100_linear)" stroke-width="1.4173" stroke-miterlimit="10" stroke-linecap="round"/>
<path d="M330.999 261.503C310.068 265.136 288.811 265.728 267.425 267.312C239.672 269.37 211.625 277.45 185.132 283.282C144.438 292.242 103.569 302.127 61.9953 307.909C36.1067 311.512 3.12766 316.701 -19.7428 304.203C-31.0307 298.034 -37.9263 289.006 -47.1454 281.6C-57.7437 273.08 -71.385 271.093 -86.9951 273.915" stroke="url(#paint101_linear)" stroke-width="1.4173" stroke-miterlimit="10" stroke-linecap="round"/>
<path d="M330.945 264.793C310.263 268.684 289.241 268.311 268.065 269.794C255.088 270.702 243.755 273.571 231.563 276.585C214.589 280.779 196.875 283.79 179.626 287.456C141.02 295.656 102.17 304.465 62.775 309.712C36.7116 313.183 3.67756 318.484 -19.5227 306.177C-30.8055 300.19 -37.4014 291.324 -46.9253 284.26C-57.6485 276.309 -71.8695 274.311 -86.9849 277.039" stroke="url(#paint102_linear)" stroke-width="1.4173" stroke-miterlimit="10" stroke-linecap="round"/>
<path d="M330.845 268.207C310.408 272.29 289.781 270.891 268.844 272.182C255.343 273.016 243.805 276.508 231.293 279.821C214.533 284.261 196.665 287.019 179.426 290.52C141.15 298.296 102.624 306.577 63.6243 311.515C37.3859 314.835 4.42684 320.072 -19.1132 308.091C-30.491 302.299 -36.8969 293.53 -46.8006 286.817C-57.8486 279.326 -72.1246 277.473 -86.9951 280.147" stroke="url(#paint103_linear)" stroke-width="1.4173" stroke-miterlimit="10" stroke-linecap="round"/>
<path d="M330.71 271.735C310.503 275.929 290.411 273.4 269.774 274.486C256.637 275.179 245.429 278.926 233.487 282.394C216.667 287.277 198.564 289.924 180.99 293.318C142.489 300.755 103.754 308.649 64.5889 313.331C38.1057 316.496 5.56138 321.571 -18.3534 309.93C-29.7762 304.371 -36.5819 295.901 -46.7054 289.484C-57.9883 282.333 -72.2692 280.621 -86.9849 283.265" stroke="url(#paint104_linear)" stroke-width="1.4173" stroke-miterlimit="10" stroke-linecap="round"/>
<path d="M330.54 275.36C310.488 279.625 291.145 275.845 270.783 276.739C257.096 277.338 245.519 281.845 233.302 285.642C216.597 290.836 198.464 293.298 180.765 296.533C142.669 303.499 104.333 310.825 65.643 315.154C39.4146 318.087 7.59483 322.944 -16.4249 312.184C-28.4373 306.802 -35.8276 298.441 -46.5608 292.158C-58.1684 285.363 -72.3444 283.756 -86.9951 286.382" stroke="url(#paint105_linear)" stroke-width="1.4173" stroke-miterlimit="10" stroke-linecap="round"/>
</g>
</g>
<defs>
<filter id="filter0_d" x="-7.63264" y="-7.63258" width="240.265" height="290.265" filterUnits="userSpaceOnUse" color-interpolation-filters="sRGB">
<feFlood flood-opacity="0" result="BackgroundImageFix"/>
<feColorMatrix in="SourceAlpha" type="matrix" values="0 0 0 0 0 0 0 0 0 0 0 0 0 0 0 0 0 0 127 0"/>
<feOffset/>
<feGaussianBlur stdDeviation="3.81632"/>
<feColorMatrix type="matrix" values="0 0 0 0 0.929412 0 0 0 0 0.117647 0 0 0 0 1 0 0 0 0.6 0"/>
<feBlend mode="normal" in2="BackgroundImageFix" result="effect1_dropShadow"/>
<feBlend mode="normal" in="SourceGraphic" in2="effect1_dropShadow" result="shape"/>
</filter>
<linearGradient id="paint0_linear" x1="171" y1="-2.74463e-06" x2="67" y2="327" gradientUnits="userSpaceOnUse">
<stop stop-color="#0E0434"/>
<stop offset="1" stop-color="#1F0777"/>
</linearGradient>
<linearGradient id="paint1_linear" x1="120.775" y1="-44.396" x2="120.775" y2="5.23755" gradientUnits="userSpaceOnUse">
<stop stop-color="#ED1EFF"/>
<stop offset="1" stop-color="#00D1FF"/>
</linearGradient>
<linearGradient id="paint2_linear" x1="120.896" y1="-42.3239" x2="120.896" y2="11.2028" gradientUnits="userSpaceOnUse">
<stop stop-color="#ED1EFF"/>
<stop offset="1" stop-color="#00D1FF"/>
</linearGradient>
<linearGradient id="paint3_linear" x1="121.011" y1="-40.2455" x2="121.011" y2="16.9846" gradientUnits="userSpaceOnUse">
<stop stop-color="#ED1EFF"/>
<stop offset="1" stop-color="#00D1FF"/>
</linearGradient>
<linearGradient id="paint4_linear" x1="121.123" y1="-38.1165" x2="121.123" y2="22.567" gradientUnits="userSpaceOnUse">
<stop stop-color="#ED1EFF"/>
<stop offset="1" stop-color="#00D1FF"/>
</linearGradient>
<linearGradient id="paint5_linear" x1="121.225" y1="-35.9258" x2="121.225" y2="27.9616" gradientUnits="userSpaceOnUse">
<stop stop-color="#ED1EFF"/>
<stop offset="1" stop-color="#00D1FF"/>
</linearGradient>
<linearGradient id="paint6_linear" x1="121.315" y1="-33.6629" x2="121.315" y2="33.1382" gradientUnits="userSpaceOnUse">
<stop stop-color="#ED1EFF"/>
<stop offset="1" stop-color="#00D1FF"/>
</linearGradient>
<linearGradient id="paint7_linear" x1="121.395" y1="-31.3125" x2="121.395" y2="38.1523" gradientUnits="userSpaceOnUse">
<stop stop-color="#ED1EFF"/>
<stop offset="1" stop-color="#00D1FF"/>
</linearGradient>
<linearGradient id="paint8_linear" x1="121.465" y1="-28.8451" x2="121.465" y2="43.1793" gradientUnits="userSpaceOnUse">
<stop stop-color="#ED1EFF"/>
<stop offset="1" stop-color="#00D1FF"/>
</linearGradient>
<linearGradient id="paint9_linear" x1="121.513" y1="-26.2473" x2="121.513" y2="47.9532" gradientUnits="userSpaceOnUse">
<stop stop-color="#ED1EFF"/>
<stop offset="1" stop-color="#00D1FF"/>
</linearGradient>
<linearGradient id="paint10_linear" x1="121.532" y1="-23.5074" x2="121.532" y2="52.6694" gradientUnits="userSpaceOnUse">
<stop stop-color="#ED1EFF"/>
<stop offset="1" stop-color="#00D1FF"/>
</linearGradient>
<linearGradient id="paint11_linear" x1="121.542" y1="-20.5786" x2="121.542" y2="57.0452" gradientUnits="userSpaceOnUse">
<stop stop-color="#ED1EFF"/>
<stop offset="1" stop-color="#00D1FF"/>
</linearGradient>
<linearGradient id="paint12_linear" x1="121.513" y1="-17.2867" x2="121.513" y2="60.611" gradientUnits="userSpaceOnUse">
<stop stop-color="#ED1EFF"/>
<stop offset="1" stop-color="#00D1FF"/>
</linearGradient>
<linearGradient id="paint13_linear" x1="121.445" y1="-13.7193" x2="121.445" y2="63.9012" gradientUnits="userSpaceOnUse">
<stop stop-color="#ED1EFF"/>
<stop offset="1" stop-color="#00D1FF"/>
</linearGradient>
<linearGradient id="paint14_linear" x1="121.343" y1="-9.93356" x2="121.343" y2="67.0685" gradientUnits="userSpaceOnUse">
<stop stop-color="#ED1EFF"/>
<stop offset="1" stop-color="#00D1FF"/>
</linearGradient>
<linearGradient id="paint15_linear" x1="121.213" y1="-5.99503" x2="121.213" y2="70.2317" gradientUnits="userSpaceOnUse">
<stop stop-color="#ED1EFF"/>
<stop offset="1" stop-color="#00D1FF"/>
</linearGradient>
<linearGradient id="paint16_linear" x1="121.083" y1="-1.90234" x2="121.083" y2="73.3993" gradientUnits="userSpaceOnUse">
<stop stop-color="#ED1EFF"/>
<stop offset="1" stop-color="#00D1FF"/>
</linearGradient>
<linearGradient id="paint17_linear" x1="120.933" y1="2.27448" x2="120.933" y2="76.5661" gradientUnits="userSpaceOnUse">
<stop stop-color="#ED1EFF"/>
<stop offset="1" stop-color="#00D1FF"/>
</linearGradient>
<linearGradient id="paint18_linear" x1="120.796" y1="6.51178" x2="120.796" y2="79.539" gradientUnits="userSpaceOnUse">
<stop stop-color="#ED1EFF"/>
<stop offset="1" stop-color="#00D1FF"/>
</linearGradient>
<linearGradient id="paint19_linear" x1="120.668" y1="10.7702" x2="120.668" y2="82.7139" gradientUnits="userSpaceOnUse">
<stop stop-color="#ED1EFF"/>
<stop offset="1" stop-color="#00D1FF"/>
</linearGradient>
<linearGradient id="paint20_linear" x1="120.55" y1="15.017" x2="120.55" y2="85.8898" gradientUnits="userSpaceOnUse">
<stop stop-color="#ED1EFF"/>
<stop offset="1" stop-color="#00D1FF"/>
</linearGradient>
<linearGradient id="paint21_linear" x1="120.466" y1="19.2111" x2="120.466" y2="89.0656" gradientUnits="userSpaceOnUse">
<stop stop-color="#ED1EFF"/>
<stop offset="1" stop-color="#00D1FF"/>
</linearGradient>
<linearGradient id="paint22_linear" x1="120.411" y1="23.3266" x2="120.411" y2="92.2511" gradientUnits="userSpaceOnUse">
<stop stop-color="#ED1EFF"/>
<stop offset="1" stop-color="#00D1FF"/>
</linearGradient>
<linearGradient id="paint23_linear" x1="120.403" y1="27.3239" x2="120.403" y2="95.4565" gradientUnits="userSpaceOnUse">
<stop stop-color="#ED1EFF"/>
<stop offset="1" stop-color="#00D1FF"/>
</linearGradient>
<linearGradient id="paint24_linear" x1="120.446" y1="30.4215" x2="120.446" y2="98.6412" gradientUnits="userSpaceOnUse">
<stop stop-color="#ED1EFF"/>
<stop offset="1" stop-color="#00D1FF"/>
</linearGradient>
<linearGradient id="paint25_linear" x1="120.55" y1="32.1469" x2="120.55" y2="101.837" gradientUnits="userSpaceOnUse">
<stop stop-color="#ED1EFF"/>
<stop offset="1" stop-color="#00D1FF"/>
</linearGradient>
<linearGradient id="paint26_linear" x1="120.716" y1="34.111" x2="120.716" y2="105.033" gradientUnits="userSpaceOnUse">
<stop stop-color="#ED1EFF"/>
<stop offset="1" stop-color="#00D1FF"/>
</linearGradient>
<linearGradient id="paint27_linear" x1="120.965" y1="36.3678" x2="120.965" y2="108.055" gradientUnits="userSpaceOnUse">
<stop stop-color="#ED1EFF"/>
<stop offset="1" stop-color="#00D1FF"/>
</linearGradient>
<linearGradient id="paint28_linear" x1="121.33" y1="38.9375" x2="121.33" y2="111.258" gradientUnits="userSpaceOnUse">
<stop stop-color="#ED1EFF"/>
<stop offset="1" stop-color="#00D1FF"/>
</linearGradient>
<linearGradient id="paint29_linear" x1="121.837" y1="41.79" x2="121.837" y2="114.472" gradientUnits="userSpaceOnUse">
<stop stop-color="#ED1EFF"/>
<stop offset="1" stop-color="#00D1FF"/>
</linearGradient>
<linearGradient id="paint30_linear" x1="122.472" y1="44.8846" x2="122.472" y2="117.696" gradientUnits="userSpaceOnUse">
<stop stop-color="#ED1EFF"/>
<stop offset="1" stop-color="#00D1FF"/>
</linearGradient>
<linearGradient id="paint31_linear" x1="123.204" y1="48.1973" x2="123.204" y2="120.903" gradientUnits="userSpaceOnUse">
<stop stop-color="#ED1EFF"/>
<stop offset="1" stop-color="#00D1FF"/>
</linearGradient>
<linearGradient id="paint32_linear" x1="124.023" y1="51.6956" x2="124.023" y2="124.119" gradientUnits="userSpaceOnUse">
<stop stop-color="#ED1EFF"/>
<stop offset="1" stop-color="#00D1FF"/>
</linearGradient>
<linearGradient id="paint33_linear" x1="124.897" y1="55.3414" x2="124.897" y2="127.328" gradientUnits="userSpaceOnUse">
<stop stop-color="#ED1EFF"/>
<stop offset="1" stop-color="#00D1FF"/>
</linearGradient>
<linearGradient id="paint34_linear" x1="125.802" y1="59.1086" x2="125.802" y2="130.532" gradientUnits="userSpaceOnUse">
<stop stop-color="#ED1EFF"/>
<stop offset="1" stop-color="#00D1FF"/>
</linearGradient>
<linearGradient id="paint35_linear" x1="126.727" y1="62.963" x2="126.727" y2="133.727" gradientUnits="userSpaceOnUse">
<stop stop-color="#ED1EFF"/>
<stop offset="1" stop-color="#00D1FF"/>
</linearGradient>
<linearGradient id="paint36_linear" x1="127.639" y1="66.8718" x2="127.639" y2="136.925" gradientUnits="userSpaceOnUse">
<stop stop-color="#ED1EFF"/>
<stop offset="1" stop-color="#00D1FF"/>
</linearGradient>
<linearGradient id="paint37_linear" x1="128.521" y1="69.7113" x2="128.521" y2="140.14" gradientUnits="userSpaceOnUse">
<stop stop-color="#ED1EFF"/>
<stop offset="1" stop-color="#00D1FF"/>
</linearGradient>
<linearGradient id="paint38_linear" x1="129.356" y1="72.5103" x2="129.356" y2="143.333" gradientUnits="userSpaceOnUse">
<stop stop-color="#ED1EFF"/>
<stop offset="1" stop-color="#00D1FF"/>
</linearGradient>
<linearGradient id="paint39_linear" x1="130.122" y1="75.2661" x2="130.122" y2="146.526" gradientUnits="userSpaceOnUse">
<stop stop-color="#ED1EFF"/>
<stop offset="1" stop-color="#00D1FF"/>
</linearGradient>
<linearGradient id="paint40_linear" x1="130.785" y1="78.0097" x2="130.785" y2="149.71" gradientUnits="userSpaceOnUse">
<stop stop-color="#ED1EFF"/>
<stop offset="1" stop-color="#00D1FF"/>
</linearGradient>
<linearGradient id="paint41_linear" x1="131.334" y1="80.7785" x2="131.334" y2="152.905" gradientUnits="userSpaceOnUse">
<stop stop-color="#ED1EFF"/>
<stop offset="1" stop-color="#00D1FF"/>
</linearGradient>
<linearGradient id="paint42_linear" x1="131.754" y1="83.5213" x2="131.754" y2="156.093" gradientUnits="userSpaceOnUse">
<stop stop-color="#ED1EFF"/>
<stop offset="1" stop-color="#00D1FF"/>
</linearGradient>
<linearGradient id="paint43_linear" x1="131.999" y1="86.3466" x2="131.999" y2="159.293" gradientUnits="userSpaceOnUse">
<stop stop-color="#ED1EFF"/>
<stop offset="1" stop-color="#00D1FF"/>
</linearGradient>
<linearGradient id="paint44_linear" x1="132.073" y1="89.1965" x2="132.073" y2="162.453" gradientUnits="userSpaceOnUse">
<stop stop-color="#ED1EFF"/>
<stop offset="1" stop-color="#00D1FF"/>
</linearGradient>
<linearGradient id="paint45_linear" x1="132.034" y1="92.0723" x2="132.034" y2="165.647" gradientUnits="userSpaceOnUse">
<stop stop-color="#ED1EFF"/>
<stop offset="1" stop-color="#00D1FF"/>
</linearGradient>
<linearGradient id="paint46_linear" x1="131.928" y1="95.0629" x2="131.928" y2="168.782" gradientUnits="userSpaceOnUse">
<stop stop-color="#ED1EFF"/>
<stop offset="1" stop-color="#00D1FF"/>
</linearGradient>
<linearGradient id="paint47_linear" x1="131.759" y1="98.4204" x2="131.759" y2="171.928" gradientUnits="userSpaceOnUse">
<stop stop-color="#ED1EFF"/>
<stop offset="1" stop-color="#00D1FF"/>
</linearGradient>
<linearGradient id="paint48_linear" x1="131.547" y1="101.776" x2="131.547" y2="174.902" gradientUnits="userSpaceOnUse">
<stop stop-color="#ED1EFF"/>
<stop offset="1" stop-color="#00D1FF"/>
</linearGradient>
<linearGradient id="paint49_linear" x1="131.269" y1="105.051" x2="131.269" y2="178.003" gradientUnits="userSpaceOnUse">
<stop stop-color="#ED1EFF"/>
<stop offset="1" stop-color="#00D1FF"/>
</linearGradient>
<linearGradient id="paint50_linear" x1="130.949" y1="108.25" x2="130.949" y2="181.105" gradientUnits="userSpaceOnUse">
<stop stop-color="#ED1EFF"/>
<stop offset="1" stop-color="#00D1FF"/>
</linearGradient>
<linearGradient id="paint51_linear" x1="130.582" y1="111.302" x2="130.582" y2="184.201" gradientUnits="userSpaceOnUse">
<stop stop-color="#ED1EFF"/>
<stop offset="1" stop-color="#00D1FF"/>
</linearGradient>
<linearGradient id="paint52_linear" x1="130.172" y1="114.104" x2="130.172" y2="187.27" gradientUnits="userSpaceOnUse">
<stop stop-color="#ED1EFF"/>
<stop offset="1" stop-color="#00D1FF"/>
</linearGradient>
<linearGradient id="paint53_linear" x1="129.726" y1="116.596" x2="129.726" y2="190.336" gradientUnits="userSpaceOnUse">
<stop stop-color="#ED1EFF"/>
<stop offset="1" stop-color="#00D1FF"/>
</linearGradient>
<linearGradient id="paint54_linear" x1="129.245" y1="118.721" x2="129.245" y2="193.395" gradientUnits="userSpaceOnUse">
<stop stop-color="#ED1EFF"/>
<stop offset="1" stop-color="#00D1FF"/>
</linearGradient>
<linearGradient id="paint55_linear" x1="128.726" y1="120.457" x2="128.726" y2="196.429" gradientUnits="userSpaceOnUse">
<stop stop-color="#ED1EFF"/>
<stop offset="1" stop-color="#00D1FF"/>
</linearGradient>
<linearGradient id="paint56_linear" x1="128.181" y1="121.861" x2="128.181" y2="199.451" gradientUnits="userSpaceOnUse">
<stop stop-color="#ED1EFF"/>
<stop offset="1" stop-color="#00D1FF"/>
</linearGradient>
<linearGradient id="paint57_linear" x1="127.621" y1="122.981" x2="127.621" y2="202.467" gradientUnits="userSpaceOnUse">
<stop stop-color="#ED1EFF"/>
<stop offset="1" stop-color="#00D1FF"/>
</linearGradient>
<linearGradient id="paint58_linear" x1="127.027" y1="123.866" x2="127.027" y2="205.463" gradientUnits="userSpaceOnUse">
<stop stop-color="#ED1EFF"/>
<stop offset="1" stop-color="#00D1FF"/>
</linearGradient>
<linearGradient id="paint59_linear" x1="126.425" y1="124.663" x2="126.425" y2="208.451" gradientUnits="userSpaceOnUse">
<stop stop-color="#ED1EFF"/>
<stop offset="1" stop-color="#00D1FF"/>
</linearGradient>
<linearGradient id="paint60_linear" x1="125.805" y1="125.171" x2="125.805" y2="211.688" gradientUnits="userSpaceOnUse">
<stop stop-color="#ED1EFF"/>
<stop offset="1" stop-color="#00D1FF"/>
</linearGradient>
<linearGradient id="paint61_linear" x1="125.172" y1="125.61" x2="125.172" y2="214.633" gradientUnits="userSpaceOnUse">
<stop stop-color="#ED1EFF"/>
<stop offset="1" stop-color="#00D1FF"/>
</linearGradient>
<linearGradient id="paint62_linear" x1="124.54" y1="125.994" x2="124.54" y2="217.56" gradientUnits="userSpaceOnUse">
<stop stop-color="#ED1EFF"/>
<stop offset="1" stop-color="#00D1FF"/>
</linearGradient>
<linearGradient id="paint63_linear" x1="123.896" y1="126.352" x2="123.896" y2="220.471" gradientUnits="userSpaceOnUse">
<stop stop-color="#ED1EFF"/>
<stop offset="1" stop-color="#00D1FF"/>
</linearGradient>
<linearGradient id="paint64_linear" x1="123.261" y1="126.715" x2="123.261" y2="223.288" gradientUnits="userSpaceOnUse">
<stop stop-color="#ED1EFF"/>
<stop offset="1" stop-color="#00D1FF"/>
</linearGradient>
<linearGradient id="paint65_linear" x1="122.627" y1="127.088" x2="122.627" y2="226.155" gradientUnits="userSpaceOnUse">
<stop stop-color="#ED1EFF"/>
<stop offset="1" stop-color="#00D1FF"/>
</linearGradient>
<linearGradient id="paint66_linear" x1="121.995" y1="127.495" x2="121.995" y2="228.951" gradientUnits="userSpaceOnUse">
<stop stop-color="#ED1EFF"/>
<stop offset="1" stop-color="#00D1FF"/>
</linearGradient>
<linearGradient id="paint67_linear" x1="121.377" y1="127.946" x2="121.377" y2="231.786" gradientUnits="userSpaceOnUse">
<stop stop-color="#ED1EFF"/>
<stop offset="1" stop-color="#00D1FF"/>
</linearGradient>
<linearGradient id="paint68_linear" x1="120.771" y1="128.45" x2="120.771" y2="234.59" gradientUnits="userSpaceOnUse">
<stop stop-color="#ED1EFF"/>
<stop offset="1" stop-color="#00D1FF"/>
</linearGradient>
<linearGradient id="paint69_linear" x1="120.183" y1="129.042" x2="120.183" y2="237.348" gradientUnits="userSpaceOnUse">
<stop stop-color="#ED1EFF"/>
<stop offset="1" stop-color="#00D1FF"/>
</linearGradient>
<linearGradient id="paint70_linear" x1="119.621" y1="129.718" x2="119.621" y2="240.114" gradientUnits="userSpaceOnUse">
<stop stop-color="#ED1EFF"/>
<stop offset="1" stop-color="#00D1FF"/>
</linearGradient>
<linearGradient id="paint71_linear" x1="119.082" y1="130.509" x2="119.082" y2="242.837" gradientUnits="userSpaceOnUse">
<stop stop-color="#ED1EFF"/>
<stop offset="1" stop-color="#00D1FF"/>
</linearGradient>
<linearGradient id="paint72_linear" x1="118.573" y1="131.413" x2="118.573" y2="245.567" gradientUnits="userSpaceOnUse">
<stop stop-color="#ED1EFF"/>
<stop offset="1" stop-color="#00D1FF"/>
</linearGradient>
<linearGradient id="paint73_linear" x1="118.093" y1="132.456" x2="118.093" y2="248.27" gradientUnits="userSpaceOnUse">
<stop stop-color="#ED1EFF"/>
<stop offset="1" stop-color="#00D1FF"/>
</linearGradient>
<linearGradient id="paint74_linear" x1="117.648" y1="133.654" x2="117.648" y2="250.951" gradientUnits="userSpaceOnUse">
<stop stop-color="#ED1EFF"/>
<stop offset="1" stop-color="#00D1FF"/>
</linearGradient>
<linearGradient id="paint75_linear" x1="117.236" y1="135.019" x2="117.236" y2="253.602" gradientUnits="userSpaceOnUse">
<stop stop-color="#ED1EFF"/>
<stop offset="1" stop-color="#00D1FF"/>
</linearGradient>
<linearGradient id="paint76_linear" x1="116.87" y1="136.563" x2="116.87" y2="256.422" gradientUnits="userSpaceOnUse">
<stop stop-color="#ED1EFF"/>
<stop offset="1" stop-color="#00D1FF"/>
</linearGradient>
<linearGradient id="paint77_linear" x1="116.553" y1="138.305" x2="116.553" y2="259.023" gradientUnits="userSpaceOnUse">
<stop stop-color="#ED1EFF"/>
<stop offset="1" stop-color="#00D1FF"/>
</linearGradient>
<linearGradient id="paint78_linear" x1="116.289" y1="140.259" x2="116.289" y2="261.599" gradientUnits="userSpaceOnUse">
<stop stop-color="#ED1EFF"/>
<stop offset="1" stop-color="#00D1FF"/>
</linearGradient>
<linearGradient id="paint79_linear" x1="116.073" y1="142.437" x2="116.073" y2="264.149" gradientUnits="userSpaceOnUse">
<stop stop-color="#ED1EFF"/>
<stop offset="1" stop-color="#00D1FF"/>
</linearGradient>
<linearGradient id="paint80_linear" x1="115.911" y1="144.834" x2="115.911" y2="266.668" gradientUnits="userSpaceOnUse">
<stop stop-color="#ED1EFF"/>
<stop offset="1" stop-color="#00D1FF"/>
</linearGradient>
<linearGradient id="paint81_linear" x1="115.814" y1="147.459" x2="115.814" y2="269.153" gradientUnits="userSpaceOnUse">
<stop stop-color="#ED1EFF"/>
<stop offset="1" stop-color="#00D1FF"/>
</linearGradient>
<linearGradient id="paint82_linear" x1="115.784" y1="150.328" x2="115.784" y2="271.611" gradientUnits="userSpaceOnUse">
<stop stop-color="#ED1EFF"/>
<stop offset="1" stop-color="#00D1FF"/>
</linearGradient>
<linearGradient id="paint83_linear" x1="115.832" y1="153.841" x2="115.832" y2="274.011" gradientUnits="userSpaceOnUse">
<stop stop-color="#ED1EFF"/>
<stop offset="1" stop-color="#00D1FF"/>
</linearGradient>
<linearGradient id="paint84_linear" x1="115.976" y1="158.404" x2="115.976" y2="276.416" gradientUnits="userSpaceOnUse">
<stop stop-color="#ED1EFF"/>
<stop offset="1" stop-color="#00D1FF"/>
</linearGradient>
<linearGradient id="paint85_linear" x1="116.211" y1="163.842" x2="116.211" y2="278.814" gradientUnits="userSpaceOnUse">
<stop stop-color="#ED1EFF"/>
<stop offset="1" stop-color="#00D1FF"/>
</linearGradient>
<linearGradient id="paint86_linear" x1="116.526" y1="169.898" x2="116.526" y2="281.175" gradientUnits="userSpaceOnUse">
<stop stop-color="#ED1EFF"/>
<stop offset="1" stop-color="#00D1FF"/>
</linearGradient>
<linearGradient id="paint87_linear" x1="116.903" y1="176.674" x2="116.903" y2="283.47" gradientUnits="userSpaceOnUse">
<stop stop-color="#ED1EFF"/>
<stop offset="1" stop-color="#00D1FF"/>
</linearGradient>
<linearGradient id="paint88_linear" x1="117.333" y1="183.936" x2="117.333" y2="285.745" gradientUnits="userSpaceOnUse">
<stop stop-color="#ED1EFF"/>
<stop offset="1" stop-color="#00D1FF"/>
</linearGradient>
<linearGradient id="paint89_linear" x1="117.798" y1="191.577" x2="117.798" y2="287.966" gradientUnits="userSpaceOnUse">
<stop stop-color="#ED1EFF"/>
<stop offset="1" stop-color="#00D1FF"/>
</linearGradient>
<linearGradient id="paint90_linear" x1="118.297" y1="199.479" x2="118.297" y2="290.125" gradientUnits="userSpaceOnUse">
<stop stop-color="#ED1EFF"/>
<stop offset="1" stop-color="#00D1FF"/>
</linearGradient>
<linearGradient id="paint91_linear" x1="118.805" y1="207.505" x2="118.805" y2="292.326" gradientUnits="userSpaceOnUse">
<stop stop-color="#ED1EFF"/>
<stop offset="1" stop-color="#00D1FF"/>
</linearGradient>
<linearGradient id="paint92_linear" x1="119.314" y1="215.588" x2="119.314" y2="294.421" gradientUnits="userSpaceOnUse">
<stop stop-color="#ED1EFF"/>
<stop offset="1" stop-color="#00D1FF"/>
</linearGradient>
<linearGradient id="paint93_linear" x1="119.818" y1="223.614" x2="119.818" y2="296.52" gradientUnits="userSpaceOnUse">
<stop stop-color="#ED1EFF"/>
<stop offset="1" stop-color="#00D1FF"/>
</linearGradient>
<linearGradient id="paint94_linear" x1="120.296" y1="231.446" x2="120.296" y2="298.605" gradientUnits="userSpaceOnUse">
<stop stop-color="#ED1EFF"/>
<stop offset="1" stop-color="#00D1FF"/>
</linearGradient>
<linearGradient id="paint95_linear" x1="120.736" y1="238.993" x2="120.736" y2="300.593" gradientUnits="userSpaceOnUse">
<stop stop-color="#ED1EFF"/>
<stop offset="1" stop-color="#00D1FF"/>
</linearGradient>
<linearGradient id="paint96_linear" x1="121.136" y1="246.143" x2="121.136" y2="302.59" gradientUnits="userSpaceOnUse">
<stop stop-color="#ED1EFF"/>
<stop offset="1" stop-color="#00D1FF"/>
</linearGradient>
<linearGradient id="paint97_linear" x1="121.473" y1="251.544" x2="121.473" y2="304.586" gradientUnits="userSpaceOnUse">
<stop stop-color="#ED1EFF"/>
<stop offset="1" stop-color="#00D1FF"/>
</linearGradient>
<linearGradient id="paint98_linear" x1="121.743" y1="253.407" x2="121.743" y2="306.511" gradientUnits="userSpaceOnUse">
<stop stop-color="#ED1EFF"/>
<stop offset="1" stop-color="#00D1FF"/>
</linearGradient>
<linearGradient id="paint99_linear" x1="121.927" y1="255.664" x2="121.927" y2="308.421" gradientUnits="userSpaceOnUse">
<stop stop-color="#ED1EFF"/>
<stop offset="1" stop-color="#00D1FF"/>
</linearGradient>
<linearGradient id="paint100_linear" x1="122.007" y1="258.375" x2="122.007" y2="310.253" gradientUnits="userSpaceOnUse">
<stop stop-color="#ED1EFF"/>
<stop offset="1" stop-color="#00D1FF"/>
</linearGradient>
<linearGradient id="paint101_linear" x1="122.002" y1="261.503" x2="122.002" y2="312.106" gradientUnits="userSpaceOnUse">
<stop stop-color="#ED1EFF"/>
<stop offset="1" stop-color="#00D1FF"/>
</linearGradient>
<linearGradient id="paint102_linear" x1="121.98" y1="264.793" x2="121.98" y2="313.879" gradientUnits="userSpaceOnUse">
<stop stop-color="#ED1EFF"/>
<stop offset="1" stop-color="#00D1FF"/>
</linearGradient>
<linearGradient id="paint103_linear" x1="121.925" y1="268.207" x2="121.925" y2="315.56" gradientUnits="userSpaceOnUse">
<stop stop-color="#ED1EFF"/>
<stop offset="1" stop-color="#00D1FF"/>
</linearGradient>
<linearGradient id="paint104_linear" x1="121.863" y1="271.735" x2="121.863" y2="317.2" gradientUnits="userSpaceOnUse">
<stop stop-color="#ED1EFF"/>
<stop offset="1" stop-color="#00D1FF"/>
</linearGradient>
<linearGradient id="paint105_linear" x1="121.772" y1="275.36" x2="121.772" y2="318.827" gradientUnits="userSpaceOnUse">
<stop stop-color="#ED1EFF"/>
<stop offset="1" stop-color="#00D1FF"/>
</linearGradient>
<clipPath id="clip0">
<rect width="225" height="275" fill="white"/>
</clipPath>
</defs>
</svg>
