<svg viewBox="0 0 225 275" fill="none" xmlns="http://www.w3.org/2000/svg">
    <g clip-path="url(#clip0)">
        <g filter="url(#filter0_d)">
            <rect width="225" height="275" rx="4" transform="matrix(-1 0 0 1 225 0)" fill="url(#paint0_linear)"/>
        </g>
        <g opacity=".08" stroke-miterlimit="10" stroke-linecap="round">
            <path d="M320.716-30.199c-11.083 3.831-24.275 4.49-34.913 8.668-11.548 4.537-24.889 12.394-32.415 19.895C250.875.87 244.889 8.69 239.737 3.49c-11.972-12.088-46.006-10.726-66.203-10.1-25.968.803-51.867 3.386-77.91 2.71-21.592-.558-41.31-5.021-61.077-10.615-29.121-8.24-56.674-19.283-86.68-26.08-8.704-1.971-17.798-3.62-27.032-3.801" stroke="url(#paint1_linear)"/>
            <path d="M319.742-25.903c-10.828 3.625-23.995 3.814-34.223 7.92-11.393 4.572-23.091 13.296-30.331 20.76-2.274 2.341-8.91 11.695-14.511 7.238C227.281-.647 195.526.493 176.488.591c-25.899.131-51.837 1.766-77.71.289C76.7-.381 56.353-5.285 36.191-11.232c-29.377-8.664-57.174-20.14-87.54-27.248-8.544-2-17.504-3.693-26.603-3.844" stroke="url(#paint2_linear)"/>
            <path d="M318.783-21.632c-10.604 3.404-23.795 3.105-33.649 7.124-11.238 4.584-21.506 14.14-28.507 21.54-2.568 2.714-9.374 12.73-15.865 9.212-15.775-8.55-44.117-8.439-62.895-8.839-25.719-.545-51.537.151-77.121-2.085C78.35 3.366 57.524-1.92 37.076-8.191c-29.43-9.025-57.278-20.884-87.804-28.233-8.334-2.005-17.114-3.727-26.033-3.822" stroke="url(#paint3_linear)"/>
            <path d="M317.863-17.41c-10.368 3.154-23.62 2.33-33.119 6.191-10.998 4.47-19.388 14.245-26.118 21.412-2.929 3.118-10.903 14.642-18.439 11.978-17.633-6.243-42.693-7.386-62.265-8.322-25.439-1.217-51.023-1.446-76.212-4.379C79.135 6.84 57.958 1.233 37.321-5.333c-29.316-9.326-57.049-21.516-87.58-29.043-8.094-1.995-16.659-3.71-25.358-3.74" stroke="url(#paint4_linear)"/>
            <path d="M316.999-13.257c-10.259 2.943-23.555 1.665-32.77 5.476-11.013 4.558-18.913 15.6-25.593 22.828-3.598 3.892-10.943 14.342-19.503 12.751-19.937-3.706-43.013-6.475-64.284-8.012-25.429-1.836-51.093-2.987-76.072-6.888-21.526-3.364-41.983-8.99-61.78-15.533-28.822-9.522-56.115-21.819-86.21-29.508-8.04-2.055-16.64-3.86-25.335-3.78" stroke="url(#paint5_linear)"/>
            <path d="M316.219-9.204c-10.124 2.711-23.5.955-32.43 4.669-10.893 4.53-17.993 16.165-24.489 23.332-4.362 4.813-11.643 14.92-21.507 14.315-21.041-1.288-42.987-5.472-64.728-7.642-48.18-4.806-92.996-10.578-136.809-25.532-28.467-9.717-55.43-22.26-85.305-30.002-7.755-2.008-16.12-3.79-24.54-3.582" stroke="url(#paint6_linear)"/>
            <path d="M315.539-5.272c-10.003 2.486-23.465.28-32.124 3.905-10.773 4.51-17.354 16.599-23.605 23.736-5.007 5.718-12.352 15.459-23.435 15.741-21.742.555-43.802-4.514-65.654-7.288-47.459-6.024-92.43-13.24-135.524-28.398C7.165-7.435-19.408-20.23-49.009-27.932c-7.48-1.947-15.605-3.693-23.74-3.333" stroke="url(#paint7_linear)"/>
            <path d="M314.985-1.488c-9.899 2.267-23.44-.35-31.84 3.209-20.557 8.708-21.062 38.79-48.08 41.068-22.48 1.894-44.836-3.538-67.002-6.936-46.695-7.154-91.717-15.65-134.13-30.987C6.381-5.097-19.783-18.087-49.074-25.712c-7.216-1.88-15.13-3.565-22.98-3.034" stroke="url(#paint8_linear)"/>
            <path d="M314.57 2.125c-9.789 2.085-23.28-.959-31.495 2.536-10.219 4.349-16.639 16.511-21.946 23.225-6.071 7.682-13.092 17.544-27.083 19.259-23.405 2.869-45.961-2.513-68.726-6.562-45.961-8.177-90.962-17.786-132.776-33.285C5.486-2.732-20.272-15.897-49.254-23.381c-6.986-1.802-14.72-3.41-22.29-2.69" stroke="url(#paint9_linear)"/>
            <path d="M314.315 5.539c-9.809 1.917-22.976-1.262-31.29 2.33-10.299 4.45-16.57 16.364-22.056 23.158-6.961 8.617-13.622 17.54-27.443 20.14-22.691 4.272-47.285-1.452-70.78-6.151C117.435 35.95 72.473 25.4 31.144 9.753 4.566-.307-20.837-13.64-49.534-20.919c-6.796-1.722-14.391-3.229-21.717-2.31" stroke="url(#paint10_linear)"/>
            <path d="M314.255 8.73c-9.934 1.739-22.701-1.524-31.25 2.284-10.389 4.628-16.515 16.236-22.236 23.158-7.161 8.66-13.901 17.237-27.198 20.621-22.271 5.664-49.743-.538-72.969-5.617-44.806-9.794-89.758-21.116-130.742-36.9C3.727 2.211-21.407-11.287-49.884-18.286c-6.696-1.645-14.156-3-21.286-1.887" stroke="url(#paint11_linear)"/>
            <path d="M314.425 11.573c-10.148 1.43-22.65-1.571-31.425 2.522-10.478 4.89-16.459 16.111-22.476 23.212-7.285 8.587-13.986 17.106-27.307 20.631-22.921 6.068-50.293.66-74.103-4.873-44.502-10.336-89.538-22.27-130.338-38.18C3.133 4.887-21.855-8.92-50.228-15.307c-6.711-1.51-14.126-2.624-21.172-1.554" stroke="url(#paint12_linear)"/>
            <path d="M314.829 14.045c-10.533 1.184-22.745-1.393-31.819 3.084-10.564 5.207-16.415 16.01-22.776 23.309-7.42 8.52-14.196 17.103-27.477 20.652-22.646 6.054-50.673 1.271-74.233-4.383C114.137 46.052 68.736 33.721 28.052 17.64 2.678 7.614-22.227-5.807-50.598-11.85c-6.786-1.447-14.261-2.507-21.342-1.427" stroke="url(#paint13_linear)"/>
            <path d="M315.434 16.2c-11.227 1.02-22.94-1.019-32.449 4.006-10.243 5.412-15.64 14.991-22.231 22.388-7.72 8.664-14.88 17.988-28.562 21.657-22.47 6.028-50.727 1.346-74.013-4.339-44.242-10.803-89.073-23.4-129.722-39.403C2.983 10.48-22.496-2.554-51.158-8.215c-6.89-1.362-14.456-2.348-21.591-1.241" stroke="url(#paint14_linear)"/>
            <path d="M316.214 18.077c-11.812.872-23.47-.457-33.209 5.073-21.501 12.212-25.264 37.17-51.477 44.256-22.336 6.041-50.753 1.373-73.823-4.443-43.947-11.076-88.07-23.884-128.733-39.665C3.278 13.328-22.86.762-51.882-4.458c-7.026-1.265-14.696-2.153-21.906-1.009" stroke="url(#paint15_linear)"/>
            <path d="M317.144 19.732c-12.468.77-24.03.424-34.079 6.273-21.391 12.452-25.963 37.436-52.292 44.57-22.29 6.04-50.687 1.395-73.538-4.605C113.703 54.54 70.32 41.46 29.611 26.039 3.593 16.18-23.29 4.156-52.712-.566c-7.18-1.154-14.975-1.934-22.266-.737" stroke="url(#paint16_linear)"/>
            <path d="M318.188 21.205c-13.252.747-24.76 1.43-35.108 7.71-21.067 12.784-26.838 37.647-53.161 44.825-22.206 6.054-50.538 1.412-73.169-4.824-43.012-11.853-85.62-25.256-126.41-40.21C3.892 19.009-23.79 7.59-53.656 3.399c-7.346-1.03-15.276-1.695-22.666-.44" stroke="url(#paint17_linear)"/>
            <path d="M319.322 22.544c-14.141.797-25.499 2.523-36.257 9.31-19.383 12.227-27.288 38.687-54.091 45.054-23.685 5.627-50.318 1.43-72.708-5.092C113.882 59.472 72.074 45.712 31.18 31.313 4.212 21.818-24.305 11.065-54.646 7.425c-7.52-.901-15.59-1.443-23.085-.128" stroke="url(#paint18_linear)"/>
            <path d="M320.521 23.799c-15.03.905-26.373 3.764-37.436 10.908-10.114 6.528-15.62 15.078-23.645 22.69-8.545 8.106-16.804 19.172-31.5 22.683-23.645 5.65-50.033 1.446-72.169-5.412-41.659-12.905-82.628-27.035-123.657-40.812C4.552 24.599-24.835 14.563-55.67 11.482c-7.695-.767-15.905-1.188-23.515.188" stroke="url(#paint19_linear)"/>
            <path d="M321.75 25.013c-15.715 1.06-27.382 5.156-38.7 12.613-10.519 6.929-16.51 15.822-25.099 23.783-8.485 7.868-16.83 18.409-31.141 21.846-23.625 5.671-49.693 1.467-71.559-5.778-40.859-13.538-80.924-28.032-122.123-41.142C4.901 27.35-25.355 18.067-56.705 15.54c-7.865-.632-16.214-.928-23.944.502" stroke="url(#paint20_linear)"/>
            <path d="M322.985 26.238c-16.435 1.264-28.332 6.511-39.965 14.27-10.928 7.29-17.444 16.583-26.593 24.854-8.45 7.638-16.864 17.702-30.831 21.065-23.63 5.698-49.308 1.493-70.885-6.185C114.707 66 75.647 51.17 34.228 38.746 5.266 30.058-25.824 21.582-57.704 19.574c-8.02-.504-16.504-.679-24.35.798" stroke="url(#paint21_linear)"/>
            <path d="M324.194 27.515c-17.134 1.51-29.271 7.868-41.244 15.916-11.033 7.42-17.688 16.734-27.172 25.028-8.735 7.639-17.389 17.736-31.48 21.146-23.65 5.728-48.889 1.534-70.151-6.636-39.1-15.018-77.046-30.143-118.74-41.875-29.71-8.362-61.65-16.047-94.05-17.54-8.17-.377-16.764-.441-24.73 1.066" stroke="url(#paint22_linear)"/>
            <path d="M325.353 28.894c-17.778 1.807-30.14 9.173-42.498 17.48-11.472 7.713-18.658 17.417-28.701 25.977-8.775 7.48-17.529 17.036-31.236 20.426-23.515 5.816-48.444 1.584-69.356-7.117C115.407 69.784 78.7 54.43 36.667 43.37 6.19 35.353-26.563 28.458-59.487 27.446c-8.3-.256-16.99-.226-25.06 1.302" stroke="url(#paint23_linear)"/>
            <path d="M326.432 30.422c-18.388 2.051-30.98 10.4-43.702 18.926-11.318 7.588-18.183 16.996-28.337 25.287-9.424 7.695-18.578 17.765-32.934 21.317-23.61 5.843-47.989 1.652-68.516-7.631-18.284-8.268-35.603-17.444-54.97-24.587C78.8 56.663 58.537 50.618 37.995 45.58c-31.24-7.659-64.764-13.77-98.203-14.349-8.405-.145-17.164-.034-25.334 1.49" stroke="url(#paint24_linear)"/>
            <path d="M327.407 32.147c-18.868 2.33-31.665 11.513-44.822 20.184-11.842 7.803-19.153 17.605-29.861 26.145-9.394 7.493-18.753 17.18-32.799 20.658-23.735 5.873-47.535 1.736-67.637-8.173-17.539-8.648-34.103-18.136-53.042-25.428-18.902-7.282-39.24-13.094-59.851-17.8-31.99-7.305-66.228-12.656-100.167-12.851-8.485-.048-17.284.13-25.534 1.62" stroke="url(#paint25_linear)"/>
            <path d="M328.241 34.111c-19.112 2.563-32.369 12.32-45.776 21.096-12.037 7.877-19.452 17.776-30.47 26.34-9.689 7.527-19.453 17.24-33.684 20.762-23.88 5.913-47.1 1.84-66.722-8.742-16.755-9.034-32.545-18.838-51.043-26.295-18.618-7.508-39.03-13.078-59.697-17.47-32.704-6.95-67.587-11.574-102.005-11.446-8.535.03-17.34.259-25.654 1.685" stroke="url(#paint26_linear)"/>
            <path d="M328.911 36.368c-19.163 2.761-33.059 12.993-46.595 21.758-11.928 7.72-19.053 17.413-30.081 25.72-10.294 7.757-20.737 17.935-35.603 21.638-8.869 2.21-18.568 2.758-28.077 2.519-15.025-.376-25.304-4.567-36.532-11.143-16.184-9.475-31.2-19.75-49.363-27.584C84.201 61.318 63.325 55.99 42.388 51.82 8.784 45.126-26.998 41.184-62.121 41.652c-8.285.11-16.754.373-24.859 1.661" stroke="url(#paint27_linear)"/>
            <path d="M329.401 38.938c-19.208 3.32-33.324 13.252-47.265 22.114-12.473 7.932-20.038 18.015-31.64 26.572-10.429 7.692-20.897 17.335-35.698 21.039-8.899 2.226-18.643 2.785-28.192 2.542-15.025-.376-24.719-4.84-35.437-11.745-15.321-9.875-29.497-20.473-47.215-28.509-18.119-8.213-39.06-13.302-59.992-17.204-34.159-6.37-70.446-9.697-105.933-9.038-8.26.155-16.714.438-24.77 1.776" stroke="url(#paint28_linear)"/>
            <path d="M329.73 41.79c-19.173 3.74-33.514 13.353-47.8 22.226-12.737 7.91-20.352 18.122-32.254 26.669-10.803 7.76-21.682 17.406-36.782 21.163-8.964 2.23-18.733 2.815-28.352 2.573-15.035-.383-24.125-5.133-34.283-12.361-14.431-10.265-27.758-21.193-45.027-29.437-17.748-8.473-38.745-13.343-59.637-17.01-34.468-6.05-71.18-8.956-106.827-7.873-8.285.252-16.764.636-24.824 2.048" stroke="url(#paint29_linear)"/>
            <path d="M329.915 44.885c-19.078 4.046-33.639 13.306-48.209 22.105-13.027 7.863-20.677 18.216-32.875 26.743-11.192 7.823-22.49 17.48-37.901 21.29-8.584 2.123-17.958 2.809-27.182 2.651-16.645-.286-24.994-5.462-35.498-13.851-12.872-10.275-25.019-20.998-41.074-29.171-17.564-8.944-38.935-13.74-60.137-17.205-34.428-5.627-70.915-8.069-106.327-6.643-8.575.347-17.364.824-25.684 2.365" stroke="url(#paint30_linear)"/>
            <path d="M329.97 48.197c-18.928 4.262-33.698 13.125-48.514 21.782-12.967 7.578-20.247 17.844-32.439 26.077-11.948 8.073-23.95 18.17-40.12 22.139-8.824 2.166-18.453 2.882-27.917 2.674-15.685-.347-23.605-5.624-32.824-13.713-12.167-10.68-23.335-21.944-39.025-30.507-17.31-9.451-39.225-13.975-60.632-17.288-34.793-5.385-71.73-7.306-107.352-5.335-8.27.458-16.71 1.053-24.709 2.614" stroke="url(#paint31_linear)"/>
            <path d="M329.92 51.696c-18.738 4.369-33.729 12.825-48.724 21.28-13.272 7.484-20.577 17.918-33.049 26.124-12.372 8.14-24.849 18.284-41.344 22.274-8.914 2.156-18.603 2.926-28.187 2.711-15.755-.354-23.06-5.961-31.6-14.352-11.218-11.026-21.476-22.627-36.747-31.415-16.849-9.697-38.98-13.939-60.261-17.016-34.843-5.035-71.77-6.428-107.257-4.013-8.25.562-16.66 1.261-24.625 2.893" stroke="url(#paint32_linear)"/>
            <path d="M329.775 55.341c-18.523 4.403-33.719 12.425-48.854 20.632-7.121 3.858-11.508 7.309-16.19 12.68-4.677 5.362-10.843 9.226-17.479 13.481-12.807 8.207-25.743 18.365-42.598 22.411-9.179 2.203-19.123 2.99-28.976 2.738-16.275-.414-22.656-6.912-30.706-15.909-10.373-11.594-20.112-23.7-35.712-32.582-15.955-9.085-37.631-12.852-57.739-15.52-34.597-4.587-71.08-5.455-106.117-2.724-8.51.663-17.19 1.48-25.384 3.232" stroke="url(#paint33_linear)"/>
            <path d="M329.551 59.109c-18.289 4.375-33.684 11.943-48.924 19.858-7.306 3.794-11.618 7.251-16.38 12.657-4.782 5.425-11.108 9.276-17.924 13.531-13.256 8.277-26.658 18.448-43.882 22.552-9.454 2.253-19.667 3.074-29.806 2.761-15.39-.474-21.261-6.935-28.137-15.579-9.579-12.042-18.323-24.668-33.639-33.982-15.7-9.548-37.53-13.067-57.853-15.583-34.768-4.308-71.55-4.614-106.572-1.335-8.19.767-16.505 1.665-24.38 3.417" stroke="url(#paint34_linear)"/>
            <path d="M329.271 62.963c-18.044 4.298-33.629 11.392-48.939 18.997-7.5 3.723-11.733 7.198-16.575 12.637-4.891 5.492-11.377 9.327-18.378 13.585-13.716 8.341-27.592 18.533-45.201 22.693-9.124 2.156-18.908 3.021-28.687 2.825-17.034-.336-22.421-7.604-29.081-17.251-8.15-11.792-15.88-24.2-29.986-33.433-15.196-9.946-37.677-13.35-57.974-15.62-40.614-4.544-90.432-5.53-130.267 3.67" stroke="url(#paint35_linear)"/>
            <path d="M328.951 66.872c-17.834 4.19-33.509 10.82-48.924 18.068-7.675 3.61-11.458 6.791-16.399 12.176-4.972 5.409-11.023 9.22-18.054 13.384-14.321 8.482-29.177 19.38-47.715 23.534-9.549 2.139-19.477 3.094-29.551 2.855-16.285-.383-20.897-7.443-26.688-16.864-7.485-12.186-14.096-25.028-27.932-34.735-14.886-10.443-37.357-13.595-57.889-15.717-40.644-4.208-89.883-4.195-129.472 5.156" stroke="url(#paint36_linear)"/>
            <path d="M328.601 70.803c-17.608 4.047-33.433 10.188-48.884 17.104-7.875 3.525-11.572 6.743-16.604 12.159-5.087 5.479-11.288 9.273-18.503 13.44-14.811 8.554-30.226 19.444-49.124 23.682-9.129 2.049-18.708 3.058-28.367 2.944-16.709-.199-21.137-6.384-26.493-16.371-6.741-12.559-12.248-25.99-25.724-36.21-14.351-10.885-37.326-13.916-57.853-15.796-40.864-3.74-89.099-2.798-128.609 6.62" stroke="url(#paint37_linear)"/>
            <path d="M328.247 74.729c-17.404 3.881-33.369 9.539-48.839 16.131-8.07 3.441-11.703 6.71-16.814 12.152-5.207 5.547-11.563 9.327-18.963 13.495-15.316 8.627-31.236 19.531-50.558 23.83a125.975 125.975 0 01-29.257 2.98c-17.334-.272-20.812-7.79-25.444-18.025-5.856-12.943-10.853-27.019-24.964-37.224-13.756-9.945-36.102-12.428-55.25-14.005-40.969-3.377-88.299-1.47-127.694 7.941" stroke="url(#paint38_linear)"/>
            <path d="M327.906 78.61c-17.219 3.706-33.329 8.883-48.799 15.18-8.26 3.36-11.837 6.693-17.034 12.165-5.332 5.614-11.842 9.381-19.428 13.548-16.319 8.964-32.459 19.236-52.022 23.982-9.419 2.287-19.912 3.219-30.18 3.013-17.924-.359-20.372-9.377-24.295-19.763-4.447-11.766-8.415-24.379-19.568-34.26-13.336-11.817-36.756-14.592-57.468-16.088-40.92-2.957-87.56-.121-126.775 9.205" stroke="url(#paint39_linear)"/>
            <path d="M327.587 82.42c-17.074 3.526-33.319 8.241-48.784 14.272-8.44 3.29-11.987 6.693-17.274 12.196-5.457 5.684-12.127 9.431-19.907 13.602-16.83 9.021-33.499 19.327-53.506 24.133-9.554 2.297-20.178 3.273-30.581 3.058-18.138-.374-19.917-9.795-23.215-20.276-3.743-11.893-6.946-24.765-17.824-34.842-12.822-11.873-36.252-14.466-56.644-15.755-41.104-2.596-86.6 1.215-125.87 10.316" stroke="url(#paint40_linear)"/>
            <path d="M327.312 86.124c-16.929 3.35-33.399 7.575-48.794 13.434-8.065 3.067-12.127 6.485-17.084 11.799-6.001 6.434-13.332 10.178-22.166 14.813-16.894 8.866-33.739 18.852-53.696 23.591-9.849 2.341-20.852 3.401-31.555 3.091-17.344-.501-18.598-9.471-21.321-19.518-3.503-12.936-5.652-27.349-18.129-38.082-12.502-10.756-35.222-12.841-54.195-13.897-41.404-2.308-85.511 2.492-125.016 11.244" stroke="url(#paint41_linear)"/>
            <path d="M327.102 89.693c-16.854 3.182-33.474 7.006-48.864 12.704-8.21 3.04-12.297 6.528-17.344 11.876-6.146 6.512-13.656 10.242-22.7 14.877-17.409 8.92-34.793 18.936-55.195 23.736-10.134 2.385-21.572 3.552-32.575 3.118-16.349-.646-17.533-9.075-19.597-18.563-3.023-13.895-4.148-30.214-18.498-41.388-12.213-9.508-34.204-11.325-51.683-12.149-41.608-1.96-84.556 3.841-124.24 12.065" stroke="url(#paint42_linear)"/>
            <path d="M326.967 93.09c-16.844 3.034-33.573 6.555-48.999 12.132-8.354 3.02-12.477 6.582-17.628 11.964-6.301 6.582-13.992 10.309-23.246 14.944-17.923 8.977-35.857 19.02-56.714 23.877-10.403 2.422-22.341 3.737-33.633 3.145-16.8-.878-16.865-10.356-18.474-20.218-2.063-12.66-2.798-27.042-13.851-37.963-11.652-11.517-34.693-13.562-53.816-14.353C18.773 84.886-22.96 91.704-62.97 99.252" stroke="url(#paint43_linear)"/>
            <path d="M326.927 96.292c-16.864 2.95-33.718 6.377-49.253 11.779-9.34 3.249-13.432 7.615-19.173 13.37-6.236 6.249-14.971 9.966-23.88 14.335-17.989 8.826-36.087 18.54-56.884 23.343-10.553 2.438-22.646 3.794-34.078 3.192-16.995-.895-16.59-10.579-17.789-20.501-1.534-12.684-1.559-27.288-12.472-38.31-11.338-11.443-34.323-13.444-53.131-14.117-42.069-1.5-82.678 6.317-123.047 13.031" stroke="url(#paint44_linear)"/>
            <path d="M326.892 99.45c-16.809 3.078-33.878 6.179-49.508 11.453-9.504 3.205-13.627 7.672-19.478 13.454-6.391 6.313-15.335 10.02-24.444 14.389-18.514 8.883-37.152 18.61-58.423 23.47-10.828 2.472-23.455 4.013-35.168 3.223-17.294-1.164-15.91-12.476-16.674-22.162-1.005-12.691-.685-28.059-12.742-38.667-11.293-9.936-33.669-11.887-50.868-12.401-41.169-1.235-82.827 6.128-122.412 13.137" stroke="url(#paint45_linear)"/>
            <path d="M326.812 102.676c-16.704 3.175-34.063 5.862-49.713 11.042-9.405 3.115-13.452 7.393-19.368 13.071-6.546 6.283-14.766 9.919-24.025 14.254-19.523 9.135-39.09 19.236-61.396 24.258-10.988 2.475-23.765 4.069-35.627 3.276-17.494-1.168-15.715-12.583-16.165-22.327-.585-12.623.365-28.233-11.678-38.818-11.153-9.801-33.349-11.84-50.323-12.267-40.489-1.019-82.497 5.745-121.473 12.842" stroke="url(#paint46_linear)"/>
            <path d="M326.682 105.965c-16.639 3.263-34.163 5.567-49.888 10.592-9.564 3.057-13.641 7.44-19.662 13.134-6.701 6.344-15.116 9.973-24.58 14.305-20.062 9.189-40.199 19.313-63 24.382-11.088 2.466-24.129 4.184-36.092 3.327-17.274-1.241-15.37-12.886-15.69-22.468-.42-12.556.835-28.136-11.038-38.731-10.938-9.761-33.034-11.513-49.758-11.96-39.855-1.063-81.718 4.796-120.139 11.866" stroke="url(#paint47_linear)"/>
            <path d="M326.513 109.309c-16.614 3.346-34.163 5.314-50.043 10.107-9.399 2.835-13.706 7.137-19.428 12.711-6.571 6.397-14.73 9.918-24.199 14.167-21.067 9.451-42.219 19.925-66.059 25.158-11.028 2.422-22.965 3.707-34.797 3.408-18.069-.454-16.58-11.335-17.005-21.227-.549-12.845 1.329-28.233-10.308-39.293-10.818-10.275-32.11-11.779-49.439-12.357-39.055-1.305-80.848 3.713-118.654 10.598" stroke="url(#paint48_linear)"/>
            <path d="M326.298 112.709c-16.55 3.404-34.204 4.945-50.149 9.546-9.553 2.758-13.891 7.171-19.707 12.758-6.721 6.461-15.075 9.969-24.739 14.214-21.632 9.505-43.368 20.002-67.712 25.28-11.183 2.425-23.291 3.757-35.273 3.454-17.919-.451-16.32-11.537-16.714-21.281-.52-12.751 1.344-27.961-10.024-38.996-10.493-10.188-31.685-11.594-48.704-12.294-38.276-1.574-79.844 2.472-117.036 9.122" stroke="url(#paint49_linear)"/>
            <path d="M326.048 116.16c-16.46 3.437-34.268 4.45-50.198 8.91-9.479 2.654-13.692 6.905-19.583 12.384-7.545 7.023-16.504 10.74-27.198 15.348-21.691 9.354-43.567 19.555-67.886 24.758-11.348 2.429-23.615 3.811-35.748 3.502-17.759-.454-16.12-11.665-16.514-21.281-.52-12.64 1.279-27.658-9.839-38.643-10.189-10.07-31.23-11.456-47.94-12.314-37.446-1.92-78.72 1.083-115.291 7.417" stroke="url(#paint50_linear)"/>
            <path d="M325.763 119.658c-16.41 3.471-34.258 3.996-50.238 8.254-9.634 2.566-13.881 6.932-19.852 12.421-7.721 7.091-16.885 10.791-27.783 15.398-22.251 9.401-44.696 19.626-69.531 24.877-11.502 2.432-23.944 3.868-36.232 3.548-17.594-.457-15.98-11.725-16.404-21.23-.56-12.519 1.139-27.325-9.75-38.233-9.913-9.932-30.745-11.368-47.144-12.418-36.562-2.337-77.486-.447-113.428 5.503" stroke="url(#paint51_linear)"/>
            <path d="M325.443 123.197c-16.369 3.494-34.218 3.504-50.248 7.551-9.783 2.468-14.066 6.959-20.127 12.451-7.89 7.154-17.264 10.841-28.372 15.442-22.81 9.448-45.831 19.697-71.175 24.991-11.657 2.435-24.274 3.925-36.716 3.592-17.424-.464-15.9-11.718-16.38-21.13-.63-12.387.939-26.961-9.749-37.775-9.659-9.771-30.24-11.328-46.325-12.599-35.638-2.816-76.152-2.116-111.45 3.4" stroke="url(#paint52_linear)"/>
            <path d="M325.099 126.779c-16.385 3.508-34.078 3.104-50.253 6.834-9.704 2.24-14.066 6.61-19.872 12.005-8.385 7.796-18.938 11.651-31.006 16.555-22.855 9.29-45.991 19.259-71.295 24.479-11.817 2.439-24.614 3.979-37.206 3.636-17.249-.471-15.875-11.651-16.43-20.981-.729-12.244.675-26.572-9.828-37.268-9.43-9.596-29.716-11.328-45.481-12.855-34.663-3.354-74.718-3.912-109.376 1.123" stroke="url(#paint53_linear)"/>
            <path d="M324.719 130.398c-16.38 3.515-33.984 2.559-50.208 6.057-9.844 2.123-14.251 6.63-20.128 12.025-8.564 7.86-19.362 11.702-31.644 16.599-23.411 9.333-47.106 19.323-72.914 24.587-11.973 2.442-24.949 4.036-37.696 3.68-17.074-.478-15.9-11.531-16.555-20.794-.86-12.088.35-26.157-9.988-36.715-9.22-9.411-29.172-11.372-44.612-13.179-33.644-3.935-73.189-5.832-107.202-1.311" stroke="url(#paint54_linear)"/>
            <path d="M324.319 134.047c-16.39 3.518-33.864 1.991-50.143 5.244-9.979 1.994-14.446 6.653-20.387 12.038-8.745 7.928-19.793 11.748-32.285 16.636-23.965 9.374-48.219 19.387-74.537 24.691-12.128 2.445-25.289 4.093-38.191 3.72-16.89-.488-15.97-11.355-16.75-20.561-1.014-11.924-.025-25.721-10.223-36.124-9.04-9.216-28.612-11.456-43.722-13.568-32.59-4.561-71.57-7.864-104.949-3.885" stroke="url(#paint55_linear)" stroke-width="1.417"/>
            <path d="M323.899 137.723c-16.4 3.512-33.784 1.251-50.033 4.369-10.769 2.069-15.625 7.757-22.146 13.411-8.075 7.009-18.563 10.4-29.841 14.722-25.059 9.606-50.348 19.952-77.776 25.411-12.287 2.445-25.629 4.147-38.68 3.76-16.705-.494-16.08-11.133-17.015-20.288-1.194-11.749-.45-25.264-10.518-35.492-8.88-9.021-28.037-11.574-42.808-14.019-31.495-5.217-69.865-10.006-102.62-6.582" stroke="url(#paint56_linear)" stroke-width="1.417"/>
            <path d="M323.459 141.43c-16.459 3.508-33.614.616-49.923 3.498-10.913 1.927-15.84 7.786-22.431 13.43-8.24 7.057-18.958 10.431-30.421 14.746-25.623 9.643-51.482 20.009-79.434 25.509-12.442 2.448-25.969 4.197-39.175 3.797-16.52-.501-16.23-10.867-17.334-19.982-1.404-11.561-.91-24.793-10.868-34.829-8.755-8.823-27.458-11.729-41.869-14.527-30.366-5.9-68.072-12.24-100.221-9.384" stroke="url(#paint57_linear)" stroke-width="1.417"/>
            <path d="M323 145.153c-16.545 3.502-33.419-.04-49.799 2.604-11.053 1.786-16.054 7.817-22.72 13.447-8.405 7.104-19.363 10.457-31.005 14.762-26.184 9.68-52.617 20.064-81.084 25.603-12.597 2.452-26.308 4.248-39.665 3.835-16.33-.505-16.41-10.565-17.714-19.643-1.629-11.359-1.409-24.308-11.277-34.136-8.66-8.628-26.868-11.914-40.914-15.085-29.207-6.596-66.198-14.561-97.768-12.274" stroke="url(#paint58_linear)" stroke-width="1.417"/>
            <path d="M322.53 148.9c-16.654 3.495-33.149-.528-49.688 1.726-11.113 1.513-15.76 7.416-22.496 12.969-8.534 7.033-18.668 10.36-30.396 14.625-27.287 9.915-54.95 20.779-84.406 26.302-12.757 2.392-26.563 4.299-40.155 3.868-16.134-.511-16.619-10.228-18.143-19.269-1.879-11.15-1.944-23.807-11.727-33.416-8.595-8.446-26.274-12.129-39.935-15.691-23.995-6.253-49.424-11.56-74.898-14.315-6.71-.727-13.566-1.295-20.367-.915" stroke="url(#paint59_linear)" stroke-width="1.417"/>
            <path d="M322.05 152.657c-16.779 3.485-32.924-1.204-49.538.794-11.213 1.349-15.995 7.46-22.776 12.976-8.699 7.077-19.043 10.383-30.95 14.635-27.857 9.949-56.094 20.823-86.08 26.39-12.827 2.381-28.827 5.26-42.523 3.874-14.856-1.503-15.39-11.314-16.955-19.985-1.923-10.69-2.733-22.943-12.347-32.031-8.215-7.766-26.118-12.129-38.6-15.852-22.541-6.72-46.256-12.751-70.34-16.437-7.296-1.117-14.856-2.092-22.381-1.796" stroke="url(#paint60_linear)" stroke-width="1.417"/>
            <path d="M321.56 156.424c-16.929 3.475-32.679-1.894-49.373-.148-11.308 1.181-16.23 7.501-23.056 12.98-8.869 7.117-19.427 10.4-31.51 14.641-28.427 9.976-57.233 20.867-87.749 26.471-12.997 2.384-29.157 5.294-43.018 3.905-14.69-1.47-15.675-10.901-17.489-19.535-2.203-10.481-3.307-22.408-12.846-31.288-8.215-7.651-25.434-12.414-37.587-16.541-21.78-7.4-44.656-14.396-68.191-18.883-7.1-1.355-14.516-2.566-21.956-2.401" stroke="url(#paint61_linear)" stroke-width="1.417"/>
            <path d="M321.066 160.202c-17.105 3.467-32.46-2.806-49.174-1.144-10.938 1.086-16.29 7.228-22.786 12.583-9.319 7.679-21.536 11.251-34.383 15.684-28.407 9.808-57.244 20.423-87.664 25.946-13.172 2.391-29.477 5.317-43.503 3.932-14.525-1.433-15.974-10.471-18.063-19.058-2.494-10.269-3.908-21.866-13.372-30.527-8.264-7.564-24.729-12.711-36.561-17.265-21.027-8.092-43.038-16.06-66.023-21.354-6.896-1.588-14.161-3.041-21.522-3.004" stroke="url(#paint62_linear)" stroke-width="1.417"/>
            <path d="M320.566 163.982c-17.299 3.455-32.185-3.528-48.994-2.102-11.038.935-16.5 7.252-23.055 12.583-9.489 7.719-21.951 11.261-34.973 15.684-28.962 9.831-58.348 20.46-89.284 26.013-13.351 2.398-29.786 5.335-43.987 3.959-14.365-1.393-16.29-10.023-18.668-18.56-2.798-10.047-4.527-21.311-13.92-29.757-8.356-7.51-24.006-13.016-35.523-18.014-20.277-8.799-41.4-17.733-63.845-23.837-6.686-1.82-13.796-3.512-21.091-3.599" stroke="url(#paint63_linear)" stroke-width="1.417"/>
            <path d="M320.071 167.763c-17.509 3.444-31.905-4.262-48.809-3.068-11.133.787-16.714 7.275-23.33 12.586-9.659 7.757-22.361 11.271-35.557 15.678-29.512 9.855-59.443 20.49-90.888 26.077-13.501 2.398-29.426 5.099-43.767 3.999-14.18-1.087-16.83-8.308-19.657-16.979-3.173-9.724-4.977-20.39-13.517-28.832-8.38-8.281-23.895-14.224-35.777-20.009-19.743-9.613-40.155-19.66-62.395-26.555-6.257-1.941-12.952-3.74-19.923-3.945" stroke="url(#paint64_linear)" stroke-width="1.417"/>
            <path d="M319.577 171.537c-17.759 3.434-31.665-5.059-48.654-3.993-12.142.764-17.834 8.241-25.204 13.841-9.709 7.376-23.38 10.713-36.272 14.951-29.466 9.68-59.377 20.049-90.712 25.552-13.677 2.401-29.721 5.106-44.232 4.019-14.006-1.046-17.114-7.894-20.282-16.481-3.498-9.478-5.617-19.834-14.121-28.038-8.52-8.22-23.25-14.523-34.723-20.766-18.998-10.336-38.46-21.341-60.187-29.054-6.046-2.146-12.587-4.171-19.513-4.48" stroke="url(#paint65_linear)" stroke-width="1.417"/>
            <path d="M319.087 175.307c-17.998 3.42-31.375-5.792-48.469-4.951-12.212.598-18.084 8.281-25.504 13.84-9.874 7.397-23.8 10.706-36.852 14.928-29.996 9.696-60.431 20.073-92.261 25.606-13.771 2.395-29.426 4.9-44.012 4.053-13.721-.797-17.674-6.795-21.197-15.018-4.392-10.252-6.755-21.661-17.294-30.103-9.054-7.252-21.081-13.34-31.5-19.653-18.368-11.133-37.166-23.343-58.647-31.785-5.657-2.224-11.818-4.343-18.449-4.729" stroke="url(#paint66_linear)" stroke-width="1.417"/>
            <path d="M318.607 179.064c-18.243 3.407-31.085-6.518-48.284-5.899-12.273.44-18.334 8.321-25.804 13.84-10.039 7.417-24.22 10.696-37.426 14.901-30.521 9.71-61.481 20.093-93.791 25.649-13.94 2.399-29.716 4.901-44.461 4.067-13.587-.77-17.884-6.428-21.817-14.534-4.857-10.02-7.545-20.924-17.933-29.235-9.12-7.299-20.427-13.73-30.436-20.467-17.619-11.856-35.437-25.007-56.439-34.247-5.452-2.398-11.468-4.726-18.069-5.193" stroke="url(#paint67_linear)" stroke-width="1.417"/>
            <path d="M318.138 182.804c-18.463 3.394-30.755-7.103-48.069-6.888-10.983.138-16.825 6.646-23.325 11.718-10.899 8.496-24.095 11.806-38.981 16.461-31.645 9.899-63.689 20.575-97.133 26.259-14.111 2.398-29.996 4.897-44.902 4.077-13.411-.74-18.138-6.065-22.435-14.046-5.262-9.771-8.355-20.212-18.563-28.375-9.2-7.359-19.783-14.13-29.377-21.274-16.88-12.573-33.714-26.639-54.25-36.658-5.247-2.56-11.118-5.093-17.7-5.628" stroke="url(#paint68_linear)" stroke-width="1.417"/>
            <path d="M317.678 186.531c-18.713 3.377-30.481-7.827-47.895-7.813-11.048.006-17.029 6.663-23.58 11.711-11.063 8.52-24.514 11.796-39.555 16.431-32.164 9.905-64.724 20.584-98.657 26.289-14.151 2.381-29.741 4.722-44.667 4.097-14.146-.596-19.293-6.018-24.194-14.447-5.112-8.785-8.57-18.041-17.39-25.599-9.273-7.948-20.077-15.274-29.62-23.121-16.32-13.407-32.225-28.539-52.662-39.319-4.907-2.59-10.433-5.153-16.77-5.718" stroke="url(#paint69_linear)" stroke-width="1.417"/>
            <path d="M317.243 190.231c-18.963 3.36-30.221-8.54-47.725-8.722-11.108-.114-17.229 6.68-23.839 11.702-11.228 8.54-24.935 11.782-40.125 16.39-32.679 9.912-65.748 20.588-100.161 26.313-14.306 2.381-30.011 4.715-45.087 4.1-13.956-.572-19.542-5.664-24.844-13.925-5.462-8.517-9.274-17.416-17.954-24.813-9.414-8.022-19.452-15.643-28.561-23.88-15.58-14.097-30.491-30.093-50.508-41.62-4.722-2.718-10.114-5.459-16.44-6.058" stroke="url(#paint70_linear)" stroke-width="1.417"/>
            <path d="M316.824 193.907c-19.238 3.371-30.006-9.35-47.605-9.562-11.942-.145-18.528 7.689-25.769 12.936-10.213 7.4-23.67 10.481-37.101 14.493-33.804 10.101-67.972 21.042-103.514 26.891-14.311 2.355-29.791 4.571-44.842 4.11-14.69-.45-20.677-5.627-26.668-14.177-5.292-7.554-9.09-15.576-16.744-22.279-9.734-8.527-19.703-16.67-28.717-25.63-14.536-14.453-28.157-30.426-46.775-42.77-4.867-3.226-10.709-6.734-17.75-7.41" stroke="url(#paint71_linear)" stroke-width="1.417"/>
            <path d="M316.424 197.556c-19.477 3.357-29.766-10.04-47.459-10.423-11.998-.259-18.748 7.712-26.049 12.929-10.363 7.41-24.04 10.447-37.601 14.44-34.308 10.097-68.981 21.035-104.998 26.897-14.456 2.351-30.051 4.565-45.237 4.107-14.485-.434-20.921-5.291-27.312-13.642-5.582-7.289-9.654-15.042-17.224-21.573-9.944-8.577-19.118-17.01-27.663-26.323-13.846-15.095-26.553-31.819-44.756-44.846-4.652-3.329-10.354-7.039-17.404-7.709" stroke="url(#paint72_linear)" stroke-width="1.417"/>
            <path d="M316.049 201.169c-19.707 3.346-29.541-10.71-47.33-11.255-12.047-.366-18.967 7.73-26.328 12.919-10.513 7.414-24.404 10.41-38.096 14.383-34.808 10.094-69.975 21.025-106.452 26.894-14.596 2.348-30.3 4.554-45.616 4.1-14.286-.424-21.157-4.984-27.932-13.121-5.852-7.023-10.199-14.516-17.674-20.887-10.124-8.624-18.553-17.359-26.623-26.982-13.167-15.701-24.98-33.137-42.783-46.809-4.447-3.418-10.019-7.316-17.08-7.955" stroke="url(#paint73_linear)" stroke-width="1.417"/>
            <path d="M315.705 204.748c-19.913 3.313-29.307-11.244-47.18-12.105-11.913-.576-18.833 7.507-26.104 12.529-11.502 7.941-26.178 11.045-41.044 15.297-34.658 9.905-69.695 20.567-105.962 26.336-14.736 2.344-30.54 4.541-45.986 4.086-14.096-.413-21.377-4.705-28.522-12.613-6.101-6.753-10.708-14.005-18.079-20.221-10.268-8.661-17.998-17.719-25.593-27.604-12.497-16.266-23.43-34.382-40.864-48.66-4.253-3.481-9.704-7.561-16.78-8.139" stroke="url(#paint74_linear)" stroke-width="1.417"/>
            <path d="M315.39 208.286c-20.122 3.306-29.122-11.88-47.085-12.869-11.968-.659-19.038 7.521-26.378 12.523-11.648 7.931-26.569 11.001-41.554 15.223-35.128 9.895-70.63 20.544-107.342 26.319-14.69 2.311-30.32 4.426-45.7 4.083-13.657-.303-21.512-3.922-29.057-11.452-15.76-15.731-31.54-31.281-43.673-48.455-11.922-16.881-22.006-36.043-39.5-50.805-4.002-3.377-9.174-7.37-16.02-7.834" stroke="url(#paint75_linear)" stroke-width="1.417"/>
            <path d="M315.104 211.781c-20.322 3.31-28.956-12.495-47.015-13.592-12.027-.73-19.232 7.531-26.648 12.512-11.787 7.918-26.948 10.952-42.048 15.143-35.587 9.878-71.55 20.514-108.686 26.289-25.589 3.979-57.548 9.76-75.582-6.953-16.58-15.371-31.68-30.907-43.008-48.343-11.273-17.352-20.497-37.143-37.69-52.4-3.878-3.441-8.91-7.48-15.79-7.874" stroke="url(#paint76_linear)" stroke-width="1.417"/>
            <path d="M314.855 215.225c-20.527 3.316-28.822-13.161-47.005-14.221-11.803-.686-18.903 7.006-26.239 12.048-12.452 8.56-28.951 11.561-45.101 15.98-35.398 9.687-71.185 20.057-108.072 25.727-25.608 3.936-57.618 9.613-76.336-6.562-17.404-15.041-31.71-30.51-42.308-48.205-10.643-17.77-19.028-38.156-35.952-53.843-3.733-3.458-8.69-7.605-15.59-7.844" stroke="url(#paint77_linear)" stroke-width="1.417"/>
            <path d="M314.65 218.622c-20.702 3.333-28.696-13.713-46.98-14.853-11.862-.74-19.078 7.006-26.498 12.034-12.592 8.54-29.351 11.496-45.601 15.882-35.832 9.667-72.044 20.017-109.336 25.681-25.638 3.895-57.663 9.458-77.02-6.209-7.78-6.297-14.372-13.397-21.767-19.909-9.404-8.281-14.416-18.385-19.807-28.129-10.029-18.125-17.6-39.077-34.294-55.124-3.597-3.457-8.514-7.692-15.42-7.736" stroke="url(#paint78_linear)" stroke-width="1.417"/>
            <path d="M314.48 221.962c-20.797 3.347-28.662-14.076-46.986-15.432-11.862-.878-19.322 7.053-26.753 12.021-12.732 8.517-29.741 11.429-46.09 15.775-36.252 9.64-72.884 19.972-110.56 25.626-25.689 3.858-57.678 9.294-77.63-5.889-7.89-6.004-14.717-12.956-21.862-19.367-9.304-8.341-13.896-18.657-18.928-28.472-9.444-18.415-16.215-39.894-32.72-56.231-3.482-3.447-8.374-7.736-15.284-7.551" stroke="url(#paint79_linear)" stroke-width="1.417"/>
            <path d="M314.355 225.244c-21.001 3.391-28.522-14.651-46.985-16.01-12.707-.935-20.837 8.194-28.902 13.229-10.933 6.828-25.268 9.387-38.895 12.959-38.59 10.111-77.496 21.157-117.565 27.097-25.754 3.817-57.669 9.118-78.156-5.614-7.97-5.732-14.975-12.549-21.88-18.869-9.175-8.399-13.392-18.869-18.09-28.731-8.869-18.634-14.86-40.618-31.224-57.156-3.393-3.431-8.295-7.736-15.19-7.282" stroke="url(#paint80_linear)" stroke-width="1.417"/>
            <path d="M314.275 228.464c-20.981 3.41-28.576-14.894-47.125-16.374-12.607-1.006-21.021 8.029-29.201 12.963-11.173 6.737-25.574 9.32-39.31 12.896-38.96 10.14-78.19 21.183-118.645 27.106-25.823 3.78-57.618 8.94-78.585-5.378-8.035-5.486-15.14-12.173-21.806-18.426-9.014-8.455-12.902-19.01-17.289-28.899-8.325-18.771-13.561-41.229-29.831-57.882-3.333-3.41-8.265-7.685-15.13-6.922" stroke="url(#paint81_linear)" stroke-width="1.417"/>
            <path d="M314.25 231.618c-20.372 3.384-28.991-15.23-47.28-16.71-12.532-1.012-21.221 7.814-29.576 12.644-11.428 6.602-25.903 9.216-39.73 12.798-39.285 10.184-78.78 21.334-119.609 27.224-25.913 3.737-57.533 8.758-78.915-5.193-20.417-13.326-30.635-28.822-38.175-47.002-7.81-18.822-12.313-41.741-28.537-58.4-3.303-3.39-8.305-7.571-15.11-6.471" stroke="url(#paint82_linear)" stroke-width="1.417"/>
            <path d="M314.381 234.504c-20.208 2.459-29.037-15.502-47.6-16.767-11.338-.77-19.018 5.836-26.838 10.414-13.247 7.756-29.182 10.83-45.281 15.001-38.841 10.067-77.931 21.092-118.27 26.884-26.538 3.811-58.198 8.631-80.13-5.546-20.007-12.94-29.51-28.29-36.426-46.11-4.937-12.714-9.224-25.553-14.916-38.129-3.038-6.717-6.21-14.163-12.052-20.066-3.423-3.461-8.74-7.434-15.585-6.068" stroke="url(#paint83_linear)" stroke-width="1.417"/>
            <path d="M314.78 236.919c-19.952 1.692-29.391-15.317-48.13-16.423-11.307-.666-19.187 5.613-27.262 10.066-13.552 7.481-29.661 10.616-45.771 14.79-39.04 10.114-78.305 21.237-118.835 27.089-26.598 3.841-58.193 8.547-80.429-5.388-20.037-12.556-28.976-28.139-35.402-45.696-6.646-18.153-9.804-41.445-26.313-57.2-3.523-3.36-8.85-6.932-15.466-5.378" stroke="url(#paint84_linear)" stroke-width="1.417"/>
            <path d="M315.419 238.917c-19.627 1.083-30.03-14.682-48.834-15.728-11.872-.659-20.981 6.354-29.676 10.723-13.771 6.922-30.435 9.949-46.295 14.07-38.556 10.013-77.351 20.978-117.37 26.797-26.13 3.8-57.584 8.57-79.755-4.83-20.572-12.435-28.877-28.291-35.233-45.922-4.282-11.877-8.04-23.864-13.366-35.559-3.143-6.895-6.576-14.994-13.727-20.601-3.592-2.819-8.57-5.059-14.16-3.529" stroke="url(#paint85_linear)" stroke-width="1.417"/>
            <path d="M316.264 240.555c-19.373.666-30.84-13.894-49.758-14.641-11.903-.471-21.157 6.021-30.201 10.265-14.101 6.62-30.846 9.727-46.741 13.865-38.705 10.07-77.64 21.122-117.8 27.018-25.583 3.757-56.994 8.621-79.01-4.248-20.921-12.229-28.841-28.327-35.167-45.881-2.644-7.336-15.06-64.354-40.8-56.248" stroke="url(#paint86_linear)" stroke-width="1.417"/>
            <path d="M317.278 241.898c-19.197.41-31.804-12.93-50.857-13.236-12.757-.205-22.496 6.31-32.7 10.612-14.375 6.058-31.38 9.182-47.11 13.289-38.185 9.973-76.631 20.857-116.256 26.73-26.053 3.861-57.678 8.812-79.81-4.612-19.762-11.987-27.372-27.684-33.598-44.593-2.473-6.72-15-61.471-40.42-52.403" stroke="url(#paint87_linear)" stroke-width="1.417"/>
            <path d="M318.428 242.994c-19.043.289-32.95-11.487-52.052-11.624-12.712-.091-22.836 5.976-33.279 10.063-14.726 5.762-31.665 8.974-47.485 13.114-38.301 10.02-76.856 20.978-116.586 26.928-25.934 3.885-57.738 8.998-79.794-4.503-19.328-11.833-26.619-26.905-32.89-43.494-2.508-6.632-14.94-58.255-40.104-48.262" stroke="url(#paint88_linear)" stroke-width="1.417"/>
            <path d="M319.687 243.909c-18.993.326-34.148-10.148-53.316-9.856-11.483.175-20.842 4.615-30.501 8.268-14.371 5.432-30.186 8.715-45.506 12.704-40.329 10.504-80.794 22.273-122.592 28.593-25.374 3.838-57.014 9.011-78.99-3.841-19.203-11.231-26.773-26.71-33.024-42.713-2.993-7.669-15.036-54.573-39.85-43.921" stroke="url(#paint89_linear)" stroke-width="1.417"/>
            <path d="M321.016 244.696c-19.048.427-35.387-8.567-54.66-7.921-11.493.383-21.037 4.325-30.995 7.783-14.666 5.092-30.511 8.432-45.881 12.438-40.43 10.534-80.979 22.347-122.857 28.734-26.129 3.986-58.643 9.293-80.62-4.695-17.388-11.07-24.569-25.085-30.775-40.221-3.242-7.911-15.19-50.738-39.65-39.454" stroke="url(#paint90_linear)" stroke-width="1.417"/>
            <path d="M322.386 245.416c-19.218.595-36.612-6.889-56.06-5.89-12.242.633-22.57 4.507-33.499 7.935-14.91 4.675-30.77 8.022-46.1 12.024-39.86 10.403-79.885 21.984-121.168 28.324-25.19 3.868-57.014 9.293-78.945-3.511-17.859-10.431-25.459-24.833-31.885-39.626-3.613-8.314-15.515-46.678-39.505-34.96" stroke="url(#paint91_linear)" stroke-width="1.417"/>
            <path d="M323.759 246.125c-19.423.851-37.801-5.149-57.413-3.871-10.969.716-20.627 3.535-30.626 6.454-16.899 4.931-34.458 8.809-51.632 13.293-39.305 10.255-78.79 21.587-119.49 27.866-25.683 3.963-57.668 9.432-79.784-3.864-16.544-9.95-24.06-23.541-30.54-37.372-4.118-8.785-15.94-42.397-39.405-30.537" stroke="url(#paint92_linear)" stroke-width="1.417"/>
            <path d="M325.108 246.882c-19.687 1.16-38.93-3.4-58.758-1.86-10.938.851-20.826 3.313-30.995 6.031-17.169 4.588-34.698 8.54-51.937 13.02-39.37 10.228-78.925 21.533-119.659 27.829-25.554 3.949-57.768 9.563-79.76-3.743-15.8-9.563-23.424-22.344-30.12-35.536-4.877-9.606-16.585-37.866-39.35-26.255" stroke="url(#paint93_linear)" stroke-width="1.417"/>
            <path d="M326.393 247.747c-19.993 1.506-39.97-1.76-60.052.084-29.127 2.67-58.083 11.809-85.341 18.855-38.816 10.034-77.836 21.046-117.975 27.241-25.034 3.865-56.874 9.526-78.9-3.047-15.605-8.907-23.68-21.715-30.6-34.261-5.787-10.49-17.535-33.295-39.326-22.205" stroke="url(#paint94_linear)" stroke-width="1.417"/>
            <path d="M327.587 248.772c-20.292 1.874-40.874-.114-61.236 1.877-29.476 2.886-58.133 11.16-85.82 18.25-38.871 9.953-77.951 20.874-118.115 27.043-25.36 3.895-57.774 9.589-79.82-3.458-14.32-8.472-22.26-20.298-29.371-31.879-6.776-11.039-18.509-28.832-39.34-18.502" stroke="url(#paint95_linear)" stroke-width="1.417"/>
            <path d="M328.656 250.017c-20.572 2.24-41.633 1.422-62.29 3.481-29.711 2.96-58.193 10.632-86.185 17.709-38.931 9.841-78.066 20.638-118.245 26.743-25.414 3.861-57.729 9.565-79.835-3.391-13.676-8.015-21.676-19.192-29.111-30.049-7.765-11.338-19.618-24.533-39.375-15.206" stroke="url(#paint96_linear)" stroke-width="1.417"/>
            <path d="M329.56 251.544c-20.791 2.59-42.238 2.839-63.174 4.836-27.933 2.668-54.596 9.371-80.974 15.893-40.819 10.09-81.753 21.398-123.816 27.692-24.92 3.726-56.784 9.384-78.98-2.745-13.657-7.464-21.836-18.667-29.791-28.923-8.785-11.321-20.642-20.493-39.44-12.401" stroke="url(#paint97_linear)" stroke-width="1.417"/>
            <path d="M330.28 253.407c-20.976 2.9-42.678 3.999-63.884 5.9-27.957 2.506-54.615 9.135-81.044 15.529-40.889 9.892-81.883 20.985-123.956 27.143-25.269 3.7-57.808 9.385-80.034-3.259-12.527-7.124-20.497-17.392-28.637-26.76-9.609-11.056-21.656-16.891-39.52-10.208" stroke="url(#paint98_linear)" stroke-width="1.417"/>
            <path d="M330.769 255.664c-21.091 3.152-42.798 4.655-64.204 6.434-27.842 2.315-54.825 9.22-81.193 15.425-40.939 9.637-81.963 20.501-124.022 26.484-25.244 3.593-57.828 9.176-80.134-3.245-12.152-6.768-19.947-16.616-28.517-25.337-10.268-10.454-22.515-13.868-39.614-8.678" stroke="url(#paint99_linear)" stroke-width="1.417"/>
            <path d="M331 258.375c-21.142 3.333-42.568 4.672-64.085 6.38-27.782 2.204-55.229 9.566-81.628 15.59-40.849 9.317-81.943 19.966-123.841 25.707-25.899 3.549-58.578 8.9-81.273-3.841-11.413-6.404-18.604-15.69-27.438-23.571-10.843-9.677-23.12-11.446-39.72-7.891" stroke="url(#paint100_linear)" stroke-width="1.417"/>
            <path d="M330.999 261.503c-20.931 3.633-42.188 4.225-63.574 5.809-27.753 2.058-55.8 10.138-82.293 15.97-40.694 8.96-81.563 18.845-123.137 24.627-25.888 3.603-58.867 8.792-81.738-3.706-11.288-6.169-18.183-15.197-27.402-22.603-10.599-8.52-24.24-10.507-39.85-7.685" stroke="url(#paint101_linear)" stroke-width="1.417"/>
            <path d="M330.945 264.793c-20.682 3.891-41.704 3.518-62.88 5.001-12.977.908-24.31 3.777-36.502 6.791-16.974 4.194-34.688 7.205-51.937 10.871-38.606 8.2-77.456 17.009-116.851 22.256-26.063 3.471-59.097 8.772-82.298-3.535-11.282-5.987-17.878-14.853-27.402-21.917-10.724-7.951-24.945-9.949-40.06-7.221" stroke="url(#paint102_linear)" stroke-width="1.417"/>
            <path d="M330.845 268.207c-20.437 4.083-41.064 2.684-62.001 3.975-13.501.834-25.039 4.326-37.551 7.639-16.76 4.44-34.628 7.198-51.867 10.699-38.276 7.776-76.802 16.057-115.802 20.995-26.238 3.32-59.197 8.557-82.737-3.424-11.378-5.792-17.784-14.561-27.688-21.274-11.048-7.491-25.324-9.344-40.194-6.67" stroke="url(#paint103_linear)" stroke-width="1.417"/>
            <path d="M330.71 271.735c-20.207 4.194-40.299 1.665-60.936 2.751-13.137.693-24.345 4.44-36.287 7.908-16.82 4.883-34.923 7.53-52.497 10.924-38.501 7.437-77.236 15.331-116.401 20.013-26.483 3.165-59.028 8.24-82.942-3.401-11.423-5.559-18.229-14.029-28.352-20.446-11.283-7.151-25.564-8.863-40.28-6.219" stroke="url(#paint104_linear)" stroke-width="1.417"/>
            <path d="M330.54 275.36c-20.052 4.265-39.395.485-59.757 1.379-13.687.599-25.264 5.106-37.481 8.903-16.705 5.194-34.838 7.656-52.537 10.891-38.096 6.966-76.432 14.292-115.122 18.621-26.228 2.933-58.048 7.79-82.068-2.97-12.012-5.382-19.403-13.743-30.136-20.026-11.607-6.795-25.783-8.402-40.434-5.776" stroke="url(#paint105_linear)" stroke-width="1.417"/>
        </g>
    </g>
    <defs>
        <linearGradient id="paint0_linear" x1="171" y1="0" x2="67" y2="327" gradientUnits="userSpaceOnUse">
            <stop stop-color="#0E0434"/>
            <stop offset="1" stop-color="#1F0777"/>
        </linearGradient>
        <linearGradient id="paint1_linear" x1="120.775" y1="-44.396" x2="120.775" y2="5.238" gradientUnits="userSpaceOnUse">
            <stop stop-color="#ED1EFF"/>
            <stop offset="1" stop-color="#00D1FF"/>
        </linearGradient>
        <linearGradient id="paint2_linear" x1="120.896" y1="-42.324" x2="120.896" y2="11.203" gradientUnits="userSpaceOnUse">
            <stop stop-color="#ED1EFF"/>
            <stop offset="1" stop-color="#00D1FF"/>
        </linearGradient>
        <linearGradient id="paint3_linear" x1="121.011" y1="-40.245" x2="121.011" y2="16.985" gradientUnits="userSpaceOnUse">
            <stop stop-color="#ED1EFF"/>
            <stop offset="1" stop-color="#00D1FF"/>
        </linearGradient>
        <linearGradient id="paint4_linear" x1="121.123" y1="-38.117" x2="121.123" y2="22.567" gradientUnits="userSpaceOnUse">
            <stop stop-color="#ED1EFF"/>
            <stop offset="1" stop-color="#00D1FF"/>
        </linearGradient>
        <linearGradient id="paint5_linear" x1="121.225" y1="-35.926" x2="121.225" y2="27.962" gradientUnits="userSpaceOnUse">
            <stop stop-color="#ED1EFF"/>
            <stop offset="1" stop-color="#00D1FF"/>
        </linearGradient>
        <linearGradient id="paint6_linear" x1="121.315" y1="-33.663" x2="121.315" y2="33.138" gradientUnits="userSpaceOnUse">
            <stop stop-color="#ED1EFF"/>
            <stop offset="1" stop-color="#00D1FF"/>
        </linearGradient>
        <linearGradient id="paint7_linear" x1="121.395" y1="-31.313" x2="121.395" y2="38.152" gradientUnits="userSpaceOnUse">
            <stop stop-color="#ED1EFF"/>
            <stop offset="1" stop-color="#00D1FF"/>
        </linearGradient>
        <linearGradient id="paint8_linear" x1="121.465" y1="-28.845" x2="121.465" y2="43.179" gradientUnits="userSpaceOnUse">
            <stop stop-color="#ED1EFF"/>
            <stop offset="1" stop-color="#00D1FF"/>
        </linearGradient>
        <linearGradient id="paint9_linear" x1="121.513" y1="-26.247" x2="121.513" y2="47.953" gradientUnits="userSpaceOnUse">
            <stop stop-color="#ED1EFF"/>
            <stop offset="1" stop-color="#00D1FF"/>
        </linearGradient>
        <linearGradient id="paint10_linear" x1="121.532" y1="-23.507" x2="121.532" y2="52.669" gradientUnits="userSpaceOnUse">
            <stop stop-color="#ED1EFF"/>
            <stop offset="1" stop-color="#00D1FF"/>
        </linearGradient>
        <linearGradient id="paint11_linear" x1="121.542" y1="-20.579" x2="121.542" y2="57.045" gradientUnits="userSpaceOnUse">
            <stop stop-color="#ED1EFF"/>
            <stop offset="1" stop-color="#00D1FF"/>
        </linearGradient>
        <linearGradient id="paint12_linear" x1="121.513" y1="-17.287" x2="121.513" y2="60.611" gradientUnits="userSpaceOnUse">
            <stop stop-color="#ED1EFF"/>
            <stop offset="1" stop-color="#00D1FF"/>
        </linearGradient>
        <linearGradient id="paint13_linear" x1="121.445" y1="-13.719" x2="121.445" y2="63.901" gradientUnits="userSpaceOnUse">
            <stop stop-color="#ED1EFF"/>
            <stop offset="1" stop-color="#00D1FF"/>
        </linearGradient>
        <linearGradient id="paint14_linear" x1="121.343" y1="-9.934" x2="121.343" y2="67.069" gradientUnits="userSpaceOnUse">
            <stop stop-color="#ED1EFF"/>
            <stop offset="1" stop-color="#00D1FF"/>
        </linearGradient>
        <linearGradient id="paint15_linear" x1="121.213" y1="-5.995" x2="121.213" y2="70.232" gradientUnits="userSpaceOnUse">
            <stop stop-color="#ED1EFF"/>
            <stop offset="1" stop-color="#00D1FF"/>
        </linearGradient>
        <linearGradient id="paint16_linear" x1="121.083" y1="-1.902" x2="121.083" y2="73.399" gradientUnits="userSpaceOnUse">
            <stop stop-color="#ED1EFF"/>
            <stop offset="1" stop-color="#00D1FF"/>
        </linearGradient>
        <linearGradient id="paint17_linear" x1="120.933" y1="2.274" x2="120.933" y2="76.566" gradientUnits="userSpaceOnUse">
            <stop stop-color="#ED1EFF"/>
            <stop offset="1" stop-color="#00D1FF"/>
        </linearGradient>
        <linearGradient id="paint18_linear" x1="120.796" y1="6.512" x2="120.796" y2="79.539" gradientUnits="userSpaceOnUse">
            <stop stop-color="#ED1EFF"/>
            <stop offset="1" stop-color="#00D1FF"/>
        </linearGradient>
        <linearGradient id="paint19_linear" x1="120.668" y1="10.77" x2="120.668" y2="82.714" gradientUnits="userSpaceOnUse">
            <stop stop-color="#ED1EFF"/>
            <stop offset="1" stop-color="#00D1FF"/>
        </linearGradient>
        <linearGradient id="paint20_linear" x1="120.55" y1="15.017" x2="120.55" y2="85.89" gradientUnits="userSpaceOnUse">
            <stop stop-color="#ED1EFF"/>
            <stop offset="1" stop-color="#00D1FF"/>
        </linearGradient>
        <linearGradient id="paint21_linear" x1="120.466" y1="19.211" x2="120.466" y2="89.066" gradientUnits="userSpaceOnUse">
            <stop stop-color="#ED1EFF"/>
            <stop offset="1" stop-color="#00D1FF"/>
        </linearGradient>
        <linearGradient id="paint22_linear" x1="120.411" y1="23.327" x2="120.411" y2="92.251" gradientUnits="userSpaceOnUse">
            <stop stop-color="#ED1EFF"/>
            <stop offset="1" stop-color="#00D1FF"/>
        </linearGradient>
        <linearGradient id="paint23_linear" x1="120.403" y1="27.324" x2="120.403" y2="95.457" gradientUnits="userSpaceOnUse">
            <stop stop-color="#ED1EFF"/>
            <stop offset="1" stop-color="#00D1FF"/>
        </linearGradient>
        <linearGradient id="paint24_linear" x1="120.446" y1="30.422" x2="120.446" y2="98.641" gradientUnits="userSpaceOnUse">
            <stop stop-color="#ED1EFF"/>
            <stop offset="1" stop-color="#00D1FF"/>
        </linearGradient>
        <linearGradient id="paint25_linear" x1="120.55" y1="32.147" x2="120.55" y2="101.837" gradientUnits="userSpaceOnUse">
            <stop stop-color="#ED1EFF"/>
            <stop offset="1" stop-color="#00D1FF"/>
        </linearGradient>
        <linearGradient id="paint26_linear" x1="120.716" y1="34.111" x2="120.716" y2="105.033" gradientUnits="userSpaceOnUse">
            <stop stop-color="#ED1EFF"/>
            <stop offset="1" stop-color="#00D1FF"/>
        </linearGradient>
        <linearGradient id="paint27_linear" x1="120.965" y1="36.368" x2="120.965" y2="108.055" gradientUnits="userSpaceOnUse">
            <stop stop-color="#ED1EFF"/>
            <stop offset="1" stop-color="#00D1FF"/>
        </linearGradient>
        <linearGradient id="paint28_linear" x1="121.33" y1="38.938" x2="121.33" y2="111.258" gradientUnits="userSpaceOnUse">
            <stop stop-color="#ED1EFF"/>
            <stop offset="1" stop-color="#00D1FF"/>
        </linearGradient>
        <linearGradient id="paint29_linear" x1="121.837" y1="41.79" x2="121.837" y2="114.472" gradientUnits="userSpaceOnUse">
            <stop stop-color="#ED1EFF"/>
            <stop offset="1" stop-color="#00D1FF"/>
        </linearGradient>
        <linearGradient id="paint30_linear" x1="122.472" y1="44.885" x2="122.472" y2="117.696" gradientUnits="userSpaceOnUse">
            <stop stop-color="#ED1EFF"/>
            <stop offset="1" stop-color="#00D1FF"/>
        </linearGradient>
        <linearGradient id="paint31_linear" x1="123.204" y1="48.197" x2="123.204" y2="120.903" gradientUnits="userSpaceOnUse">
            <stop stop-color="#ED1EFF"/>
            <stop offset="1" stop-color="#00D1FF"/>
        </linearGradient>
        <linearGradient id="paint32_linear" x1="124.023" y1="51.696" x2="124.023" y2="124.119" gradientUnits="userSpaceOnUse">
            <stop stop-color="#ED1EFF"/>
            <stop offset="1" stop-color="#00D1FF"/>
        </linearGradient>
        <linearGradient id="paint33_linear" x1="124.897" y1="55.341" x2="124.897" y2="127.328" gradientUnits="userSpaceOnUse">
            <stop stop-color="#ED1EFF"/>
            <stop offset="1" stop-color="#00D1FF"/>
        </linearGradient>
        <linearGradient id="paint34_linear" x1="125.802" y1="59.109" x2="125.802" y2="130.532" gradientUnits="userSpaceOnUse">
            <stop stop-color="#ED1EFF"/>
            <stop offset="1" stop-color="#00D1FF"/>
        </linearGradient>
        <linearGradient id="paint35_linear" x1="126.727" y1="62.963" x2="126.727" y2="133.727" gradientUnits="userSpaceOnUse">
            <stop stop-color="#ED1EFF"/>
            <stop offset="1" stop-color="#00D1FF"/>
        </linearGradient>
        <linearGradient id="paint36_linear" x1="127.639" y1="66.872" x2="127.639" y2="136.925" gradientUnits="userSpaceOnUse">
            <stop stop-color="#ED1EFF"/>
            <stop offset="1" stop-color="#00D1FF"/>
        </linearGradient>
        <linearGradient id="paint37_linear" x1="128.521" y1="69.711" x2="128.521" y2="140.14" gradientUnits="userSpaceOnUse">
            <stop stop-color="#ED1EFF"/>
            <stop offset="1" stop-color="#00D1FF"/>
        </linearGradient>
        <linearGradient id="paint38_linear" x1="129.356" y1="72.51" x2="129.356" y2="143.333" gradientUnits="userSpaceOnUse">
            <stop stop-color="#ED1EFF"/>
            <stop offset="1" stop-color="#00D1FF"/>
        </linearGradient>
        <linearGradient id="paint39_linear" x1="130.122" y1="75.266" x2="130.122" y2="146.526" gradientUnits="userSpaceOnUse">
            <stop stop-color="#ED1EFF"/>
            <stop offset="1" stop-color="#00D1FF"/>
        </linearGradient>
        <linearGradient id="paint40_linear" x1="130.785" y1="78.01" x2="130.785" y2="149.71" gradientUnits="userSpaceOnUse">
            <stop stop-color="#ED1EFF"/>
            <stop offset="1" stop-color="#00D1FF"/>
        </linearGradient>
        <linearGradient id="paint41_linear" x1="131.334" y1="80.778" x2="131.334" y2="152.905" gradientUnits="userSpaceOnUse">
            <stop stop-color="#ED1EFF"/>
            <stop offset="1" stop-color="#00D1FF"/>
        </linearGradient>
        <linearGradient id="paint42_linear" x1="131.754" y1="83.521" x2="131.754" y2="156.093" gradientUnits="userSpaceOnUse">
            <stop stop-color="#ED1EFF"/>
            <stop offset="1" stop-color="#00D1FF"/>
        </linearGradient>
        <linearGradient id="paint43_linear" x1="131.999" y1="86.347" x2="131.999" y2="159.293" gradientUnits="userSpaceOnUse">
            <stop stop-color="#ED1EFF"/>
            <stop offset="1" stop-color="#00D1FF"/>
        </linearGradient>
        <linearGradient id="paint44_linear" x1="132.073" y1="89.197" x2="132.073" y2="162.453" gradientUnits="userSpaceOnUse">
            <stop stop-color="#ED1EFF"/>
            <stop offset="1" stop-color="#00D1FF"/>
        </linearGradient>
        <linearGradient id="paint45_linear" x1="132.034" y1="92.072" x2="132.034" y2="165.647" gradientUnits="userSpaceOnUse">
            <stop stop-color="#ED1EFF"/>
            <stop offset="1" stop-color="#00D1FF"/>
        </linearGradient>
        <linearGradient id="paint46_linear" x1="131.928" y1="95.063" x2="131.928" y2="168.782" gradientUnits="userSpaceOnUse">
            <stop stop-color="#ED1EFF"/>
            <stop offset="1" stop-color="#00D1FF"/>
        </linearGradient>
        <linearGradient id="paint47_linear" x1="131.759" y1="98.42" x2="131.759" y2="171.928" gradientUnits="userSpaceOnUse">
            <stop stop-color="#ED1EFF"/>
            <stop offset="1" stop-color="#00D1FF"/>
        </linearGradient>
        <linearGradient id="paint48_linear" x1="131.547" y1="101.776" x2="131.547" y2="174.902" gradientUnits="userSpaceOnUse">
            <stop stop-color="#ED1EFF"/>
            <stop offset="1" stop-color="#00D1FF"/>
        </linearGradient>
        <linearGradient id="paint49_linear" x1="131.269" y1="105.051" x2="131.269" y2="178.003" gradientUnits="userSpaceOnUse">
            <stop stop-color="#ED1EFF"/>
            <stop offset="1" stop-color="#00D1FF"/>
        </linearGradient>
        <linearGradient id="paint50_linear" x1="130.949" y1="108.25" x2="130.949" y2="181.105" gradientUnits="userSpaceOnUse">
            <stop stop-color="#ED1EFF"/>
            <stop offset="1" stop-color="#00D1FF"/>
        </linearGradient>
        <linearGradient id="paint51_linear" x1="130.582" y1="111.302" x2="130.582" y2="184.201" gradientUnits="userSpaceOnUse">
            <stop stop-color="#ED1EFF"/>
            <stop offset="1" stop-color="#00D1FF"/>
        </linearGradient>
        <linearGradient id="paint52_linear" x1="130.172" y1="114.104" x2="130.172" y2="187.27" gradientUnits="userSpaceOnUse">
            <stop stop-color="#ED1EFF"/>
            <stop offset="1" stop-color="#00D1FF"/>
        </linearGradient>
        <linearGradient id="paint53_linear" x1="129.726" y1="116.596" x2="129.726" y2="190.336" gradientUnits="userSpaceOnUse">
            <stop stop-color="#ED1EFF"/>
            <stop offset="1" stop-color="#00D1FF"/>
        </linearGradient>
        <linearGradient id="paint54_linear" x1="129.245" y1="118.721" x2="129.245" y2="193.395" gradientUnits="userSpaceOnUse">
            <stop stop-color="#ED1EFF"/>
            <stop offset="1" stop-color="#00D1FF"/>
        </linearGradient>
        <linearGradient id="paint55_linear" x1="128.726" y1="120.457" x2="128.726" y2="196.429" gradientUnits="userSpaceOnUse">
            <stop stop-color="#ED1EFF"/>
            <stop offset="1" stop-color="#00D1FF"/>
        </linearGradient>
        <linearGradient id="paint56_linear" x1="128.181" y1="121.861" x2="128.181" y2="199.451" gradientUnits="userSpaceOnUse">
            <stop stop-color="#ED1EFF"/>
            <stop offset="1" stop-color="#00D1FF"/>
        </linearGradient>
        <linearGradient id="paint57_linear" x1="127.621" y1="122.981" x2="127.621" y2="202.467" gradientUnits="userSpaceOnUse">
            <stop stop-color="#ED1EFF"/>
            <stop offset="1" stop-color="#00D1FF"/>
        </linearGradient>
        <linearGradient id="paint58_linear" x1="127.027" y1="123.866" x2="127.027" y2="205.463" gradientUnits="userSpaceOnUse">
            <stop stop-color="#ED1EFF"/>
            <stop offset="1" stop-color="#00D1FF"/>
        </linearGradient>
        <linearGradient id="paint59_linear" x1="126.425" y1="124.663" x2="126.425" y2="208.451" gradientUnits="userSpaceOnUse">
            <stop stop-color="#ED1EFF"/>
            <stop offset="1" stop-color="#00D1FF"/>
        </linearGradient>
        <linearGradient id="paint60_linear" x1="125.805" y1="125.171" x2="125.805" y2="211.688" gradientUnits="userSpaceOnUse">
            <stop stop-color="#ED1EFF"/>
            <stop offset="1" stop-color="#00D1FF"/>
        </linearGradient>
        <linearGradient id="paint61_linear" x1="125.172" y1="125.61" x2="125.172" y2="214.633" gradientUnits="userSpaceOnUse">
            <stop stop-color="#ED1EFF"/>
            <stop offset="1" stop-color="#00D1FF"/>
        </linearGradient>
        <linearGradient id="paint62_linear" x1="124.54" y1="125.994" x2="124.54" y2="217.56" gradientUnits="userSpaceOnUse">
            <stop stop-color="#ED1EFF"/>
            <stop offset="1" stop-color="#00D1FF"/>
        </linearGradient>
        <linearGradient id="paint63_linear" x1="123.896" y1="126.352" x2="123.896" y2="220.471" gradientUnits="userSpaceOnUse">
            <stop stop-color="#ED1EFF"/>
            <stop offset="1" stop-color="#00D1FF"/>
        </linearGradient>
        <linearGradient id="paint64_linear" x1="123.261" y1="126.715" x2="123.261" y2="223.288" gradientUnits="userSpaceOnUse">
            <stop stop-color="#ED1EFF"/>
            <stop offset="1" stop-color="#00D1FF"/>
        </linearGradient>
        <linearGradient id="paint65_linear" x1="122.627" y1="127.088" x2="122.627" y2="226.155" gradientUnits="userSpaceOnUse">
            <stop stop-color="#ED1EFF"/>
            <stop offset="1" stop-color="#00D1FF"/>
        </linearGradient>
        <linearGradient id="paint66_linear" x1="121.995" y1="127.495" x2="121.995" y2="228.951" gradientUnits="userSpaceOnUse">
            <stop stop-color="#ED1EFF"/>
            <stop offset="1" stop-color="#00D1FF"/>
        </linearGradient>
        <linearGradient id="paint67_linear" x1="121.377" y1="127.946" x2="121.377" y2="231.786" gradientUnits="userSpaceOnUse">
            <stop stop-color="#ED1EFF"/>
            <stop offset="1" stop-color="#00D1FF"/>
        </linearGradient>
        <linearGradient id="paint68_linear" x1="120.771" y1="128.45" x2="120.771" y2="234.59" gradientUnits="userSpaceOnUse">
            <stop stop-color="#ED1EFF"/>
            <stop offset="1" stop-color="#00D1FF"/>
        </linearGradient>
        <linearGradient id="paint69_linear" x1="120.183" y1="129.042" x2="120.183" y2="237.348" gradientUnits="userSpaceOnUse">
            <stop stop-color="#ED1EFF"/>
            <stop offset="1" stop-color="#00D1FF"/>
        </linearGradient>
        <linearGradient id="paint70_linear" x1="119.621" y1="129.718" x2="119.621" y2="240.114" gradientUnits="userSpaceOnUse">
            <stop stop-color="#ED1EFF"/>
            <stop offset="1" stop-color="#00D1FF"/>
        </linearGradient>
        <linearGradient id="paint71_linear" x1="119.082" y1="130.509" x2="119.082" y2="242.837" gradientUnits="userSpaceOnUse">
            <stop stop-color="#ED1EFF"/>
            <stop offset="1" stop-color="#00D1FF"/>
        </linearGradient>
        <linearGradient id="paint72_linear" x1="118.573" y1="131.413" x2="118.573" y2="245.567" gradientUnits="userSpaceOnUse">
            <stop stop-color="#ED1EFF"/>
            <stop offset="1" stop-color="#00D1FF"/>
        </linearGradient>
        <linearGradient id="paint73_linear" x1="118.093" y1="132.456" x2="118.093" y2="248.27" gradientUnits="userSpaceOnUse">
            <stop stop-color="#ED1EFF"/>
            <stop offset="1" stop-color="#00D1FF"/>
        </linearGradient>
        <linearGradient id="paint74_linear" x1="117.648" y1="133.654" x2="117.648" y2="250.951" gradientUnits="userSpaceOnUse">
            <stop stop-color="#ED1EFF"/>
            <stop offset="1" stop-color="#00D1FF"/>
        </linearGradient>
        <linearGradient id="paint75_linear" x1="117.236" y1="135.019" x2="117.236" y2="253.602" gradientUnits="userSpaceOnUse">
            <stop stop-color="#ED1EFF"/>
            <stop offset="1" stop-color="#00D1FF"/>
        </linearGradient>
        <linearGradient id="paint76_linear" x1="116.87" y1="136.563" x2="116.87" y2="256.422" gradientUnits="userSpaceOnUse">
            <stop stop-color="#ED1EFF"/>
            <stop offset="1" stop-color="#00D1FF"/>
        </linearGradient>
        <linearGradient id="paint77_linear" x1="116.553" y1="138.305" x2="116.553" y2="259.023" gradientUnits="userSpaceOnUse">
            <stop stop-color="#ED1EFF"/>
            <stop offset="1" stop-color="#00D1FF"/>
        </linearGradient>
        <linearGradient id="paint78_linear" x1="116.289" y1="140.259" x2="116.289" y2="261.599" gradientUnits="userSpaceOnUse">
            <stop stop-color="#ED1EFF"/>
            <stop offset="1" stop-color="#00D1FF"/>
        </linearGradient>
        <linearGradient id="paint79_linear" x1="116.073" y1="142.437" x2="116.073" y2="264.149" gradientUnits="userSpaceOnUse">
            <stop stop-color="#ED1EFF"/>
            <stop offset="1" stop-color="#00D1FF"/>
        </linearGradient>
        <linearGradient id="paint80_linear" x1="115.911" y1="144.834" x2="115.911" y2="266.668" gradientUnits="userSpaceOnUse">
            <stop stop-color="#ED1EFF"/>
            <stop offset="1" stop-color="#00D1FF"/>
        </linearGradient>
        <linearGradient id="paint81_linear" x1="115.814" y1="147.459" x2="115.814" y2="269.153" gradientUnits="userSpaceOnUse">
            <stop stop-color="#ED1EFF"/>
            <stop offset="1" stop-color="#00D1FF"/>
        </linearGradient>
        <linearGradient id="paint82_linear" x1="115.784" y1="150.328" x2="115.784" y2="271.611" gradientUnits="userSpaceOnUse">
            <stop stop-color="#ED1EFF"/>
            <stop offset="1" stop-color="#00D1FF"/>
        </linearGradient>
        <linearGradient id="paint83_linear" x1="115.832" y1="153.841" x2="115.832" y2="274.011" gradientUnits="userSpaceOnUse">
            <stop stop-color="#ED1EFF"/>
            <stop offset="1" stop-color="#00D1FF"/>
        </linearGradient>
        <linearGradient id="paint84_linear" x1="115.976" y1="158.404" x2="115.976" y2="276.416" gradientUnits="userSpaceOnUse">
            <stop stop-color="#ED1EFF"/>
            <stop offset="1" stop-color="#00D1FF"/>
        </linearGradient>
        <linearGradient id="paint85_linear" x1="116.211" y1="163.842" x2="116.211" y2="278.814" gradientUnits="userSpaceOnUse">
            <stop stop-color="#ED1EFF"/>
            <stop offset="1" stop-color="#00D1FF"/>
        </linearGradient>
        <linearGradient id="paint86_linear" x1="116.526" y1="169.898" x2="116.526" y2="281.175" gradientUnits="userSpaceOnUse">
            <stop stop-color="#ED1EFF"/>
            <stop offset="1" stop-color="#00D1FF"/>
        </linearGradient>
        <linearGradient id="paint87_linear" x1="116.903" y1="176.674" x2="116.903" y2="283.47" gradientUnits="userSpaceOnUse">
            <stop stop-color="#ED1EFF"/>
            <stop offset="1" stop-color="#00D1FF"/>
        </linearGradient>
        <linearGradient id="paint88_linear" x1="117.333" y1="183.936" x2="117.333" y2="285.745" gradientUnits="userSpaceOnUse">
            <stop stop-color="#ED1EFF"/>
            <stop offset="1" stop-color="#00D1FF"/>
        </linearGradient>
        <linearGradient id="paint89_linear" x1="117.798" y1="191.577" x2="117.798" y2="287.966" gradientUnits="userSpaceOnUse">
            <stop stop-color="#ED1EFF"/>
            <stop offset="1" stop-color="#00D1FF"/>
        </linearGradient>
        <linearGradient id="paint90_linear" x1="118.297" y1="199.479" x2="118.297" y2="290.125" gradientUnits="userSpaceOnUse">
            <stop stop-color="#ED1EFF"/>
            <stop offset="1" stop-color="#00D1FF"/>
        </linearGradient>
        <linearGradient id="paint91_linear" x1="118.805" y1="207.505" x2="118.805" y2="292.326" gradientUnits="userSpaceOnUse">
            <stop stop-color="#ED1EFF"/>
            <stop offset="1" stop-color="#00D1FF"/>
        </linearGradient>
        <linearGradient id="paint92_linear" x1="119.314" y1="215.588" x2="119.314" y2="294.421" gradientUnits="userSpaceOnUse">
            <stop stop-color="#ED1EFF"/>
            <stop offset="1" stop-color="#00D1FF"/>
        </linearGradient>
        <linearGradient id="paint93_linear" x1="119.818" y1="223.614" x2="119.818" y2="296.52" gradientUnits="userSpaceOnUse">
            <stop stop-color="#ED1EFF"/>
            <stop offset="1" stop-color="#00D1FF"/>
        </linearGradient>
        <linearGradient id="paint94_linear" x1="120.296" y1="231.446" x2="120.296" y2="298.605" gradientUnits="userSpaceOnUse">
            <stop stop-color="#ED1EFF"/>
            <stop offset="1" stop-color="#00D1FF"/>
        </linearGradient>
        <linearGradient id="paint95_linear" x1="120.736" y1="238.993" x2="120.736" y2="300.593" gradientUnits="userSpaceOnUse">
            <stop stop-color="#ED1EFF"/>
            <stop offset="1" stop-color="#00D1FF"/>
        </linearGradient>
        <linearGradient id="paint96_linear" x1="121.136" y1="246.143" x2="121.136" y2="302.59" gradientUnits="userSpaceOnUse">
            <stop stop-color="#ED1EFF"/>
            <stop offset="1" stop-color="#00D1FF"/>
        </linearGradient>
        <linearGradient id="paint97_linear" x1="121.473" y1="251.544" x2="121.473" y2="304.586" gradientUnits="userSpaceOnUse">
            <stop stop-color="#ED1EFF"/>
            <stop offset="1" stop-color="#00D1FF"/>
        </linearGradient>
        <linearGradient id="paint98_linear" x1="121.743" y1="253.407" x2="121.743" y2="306.511" gradientUnits="userSpaceOnUse">
            <stop stop-color="#ED1EFF"/>
            <stop offset="1" stop-color="#00D1FF"/>
        </linearGradient>
        <linearGradient id="paint99_linear" x1="121.927" y1="255.664" x2="121.927" y2="308.421" gradientUnits="userSpaceOnUse">
            <stop stop-color="#ED1EFF"/>
            <stop offset="1" stop-color="#00D1FF"/>
        </linearGradient>
        <linearGradient id="paint100_linear" x1="122.007" y1="258.375" x2="122.007" y2="310.253" gradientUnits="userSpaceOnUse">
            <stop stop-color="#ED1EFF"/>
            <stop offset="1" stop-color="#00D1FF"/>
        </linearGradient>
        <linearGradient id="paint101_linear" x1="122.002" y1="261.503" x2="122.002" y2="312.106" gradientUnits="userSpaceOnUse">
            <stop stop-color="#ED1EFF"/>
            <stop offset="1" stop-color="#00D1FF"/>
        </linearGradient>
        <linearGradient id="paint102_linear" x1="121.98" y1="264.793" x2="121.98" y2="313.879" gradientUnits="userSpaceOnUse">
            <stop stop-color="#ED1EFF"/>
            <stop offset="1" stop-color="#00D1FF"/>
        </linearGradient>
        <linearGradient id="paint103_linear" x1="121.925" y1="268.207" x2="121.925" y2="315.56" gradientUnits="userSpaceOnUse">
            <stop stop-color="#ED1EFF"/>
            <stop offset="1" stop-color="#00D1FF"/>
        </linearGradient>
        <linearGradient id="paint104_linear" x1="121.863" y1="271.735" x2="121.863" y2="317.2" gradientUnits="userSpaceOnUse">
            <stop stop-color="#ED1EFF"/>
            <stop offset="1" stop-color="#00D1FF"/>
        </linearGradient>
        <linearGradient id="paint105_linear" x1="121.772" y1="275.36" x2="121.772" y2="318.827" gradientUnits="userSpaceOnUse">
            <stop stop-color="#ED1EFF"/>
            <stop offset="1" stop-color="#00D1FF"/>
        </linearGradient>
        <clipPath id="clip0">
            <path fill="#fff" d="M0 0h225v275H0z"/>
        </clipPath>
        <filter id="filter0_d" x="-7.633" y="-7.633" width="240.265" height="290.265" filterUnits="userSpaceOnUse" color-interpolation-filters="sRGB">
            <feFlood flood-opacity="0" result="BackgroundImageFix"/>
            <feColorMatrix in="SourceAlpha" values="0 0 0 0 0 0 0 0 0 0 0 0 0 0 0 0 0 0 127 0"/>
            <feOffset/>
            <feGaussianBlur stdDeviation="3.816"/>
            <feColorMatrix values="0 0 0 0 0.929412 0 0 0 0 0.117647 0 0 0 0 1 0 0 0 0.6 0"/>
            <feBlend in2="BackgroundImageFix" result="effect1_dropShadow"/>
            <feBlend in="SourceGraphic" in2="effect1_dropShadow" result="shape"/>
        </filter>
    </defs>
</svg>
