<svg viewBox="0 0 28 32" fill="none" xmlns="http://www.w3.org/2000/svg">
    <path d="M13.964 0a.797.797 0 01.797.797v5.457l2.034-2.025a.797.797 0 011.127 0 .787.787 0 010 1.127L14.76 8.509v6.084l5.27-3.042 1.162-4.314a.798.798 0 011.542.416l-.737 2.77 4.729-2.728a.8.8 0 11.796 1.39l-4.728 2.729 2.77.745a.798.798 0 11-.415 1.543l-4.313-1.153-5.271 3.043 5.271 3.042 4.314-1.153a.796.796 0 01.949.466v.094a.848.848 0 01-.45.94h-.084l-2.771.746 4.728 2.771a.799.799 0 11-.788 1.39l-4.729-2.729.738 2.771a.797.797 0 01-.475.984h-.101a.789.789 0 01-.95-.475v-.085l-1.16-4.313-5.272-3.051v6.093l3.161 3.153a.848.848 0 01.068 1.059l-.068.076a.788.788 0 01-1.05.068l-.077-.068-2.034-2.025v5.457a.797.797 0 11-1.593 0V25.73l-2.034 2.025a.788.788 0 01-1.05.068l-.077-.068a.847.847 0 01-.068-1.06l.068-.075 3.16-3.153v-6.093l-5.27 3.05-1.161 4.314a.847.847 0 01-.848.585H5.82a.788.788 0 01-.585-.847v-.094l.738-2.77L1.2 24.28A.797.797 0 01.108 24a.847.847 0 01.297-1.102l4.729-2.729-2.772-.745a.847.847 0 01-.584-.848v-.101a.848.848 0 01.847-.577h.093l4.314 1.153 5.33-3.06-5.27-3.042-4.314 1.153a.795.795 0 11-.416-1.5l2.772-.746-4.73-2.771a.799.799 0 11.789-1.39l4.729 2.729-.738-2.771a.799.799 0 111.543-.416l1.152 4.314 5.28 3.05V8.518L9.998 5.364a.847.847 0 010-1.135.797.797 0 011.127 0l2.034 2.025V.797A.796.796 0 0113.964 0z" fill="currentColor"/>
</svg>
