<svg width="136" height="89" viewBox="0 0 136 89" fill="none" xmlns="http://www.w3.org/2000/svg">
<g clip-path="url(#snxStatBGclip0)">
<g clip-path="url(#snxStatBGclip1)">
<path d="M32.8593 20.6195C31.9084 19.6168 30.7377 19.1142 29.3446 19.1142H0.853754C0.600695 19.1142 0.393647 19.0404 0.237722 18.8927C0.0792407 18.7474 0 18.5831 0 18.4068V0.707404C0 0.531149 0.0792407 0.369184 0.237722 0.22151C0.393647 0.0738368 0.600695 0 0.853754 0H30.9601C38.557 0 45.111 2.86296 50.6195 8.58413L57.9326 16.8134L43.6872 32.8312L32.8593 20.6195ZM85.4751 8.496C90.9836 2.832 97.5683 0 105.229 0H135.241C135.494 0 135.683 0.0595458 135.811 0.176256C135.936 0.295347 136 0.471603 136 0.707404V18.4068C136 18.5831 135.936 18.7474 135.811 18.8927C135.683 19.0404 135.494 19.1142 135.241 19.1142H106.75C105.357 19.1142 104.186 19.6168 103.235 20.6195L82.2467 44.1592L103.33 67.8751C104.281 68.8207 105.418 69.2923 106.75 69.2923H135.241C135.494 69.2923 135.683 69.3661 135.811 69.5138C135.936 69.6615 136 69.8544 136 70.0878V87.7872C136 87.9635 135.936 88.1278 135.811 88.2731C135.683 88.4208 135.494 88.4946 135.241 88.4946H105.229C97.5683 88.4946 91.0143 85.634 85.5697 79.9105L68.0959 60.2651L50.6195 79.9105C45.111 85.634 38.5263 88.4946 30.8655 88.4946H0.853754C0.600695 88.4946 0.408984 88.4208 0.283733 88.2731C0.155925 88.1254 0.0945776 87.9349 0.0945776 87.6967V69.9973C0.0945776 69.8211 0.155925 69.6591 0.283733 69.5114C0.408984 69.3637 0.600695 69.2899 0.853754 69.2899H29.3446C30.6738 69.2899 31.8445 68.7897 32.8593 67.7846L53.467 44.5998L85.4751 8.496Z" fill="#00D1FF"/>
</g>
<rect width="136" height="88.497" fill="url(#snxStatBGpaint0_linear)"/>
</g>
<defs>
<linearGradient id="snxStatBGpaint0_linear" x1="68" y1="88.497" x2="68" y2="-38.5331" gradientUnits="userSpaceOnUse">
<stop stop-color="#06061B"/>
<stop offset="1" stop-color="#06061B" stop-opacity="0.76"/>
</linearGradient>
<clipPath id="snxStatBGclip0">
<rect width="136" height="88.497" fill="white"/>
</clipPath>
<clipPath id="snxStatBGclip1">
<rect width="136" height="88.497" fill="white"/>
</clipPath>
</defs>
</svg>
