<svg viewBox="0 0 129 91" fill="none" xmlns="http://www.w3.org/2000/svg">
    <path d="M31.168 21.203c-.902-1.031-2.012-1.548-3.334-1.548H.81a.781.781 0 01-.585-.228.694.694 0 01-.225-.5V.727c0-.18.075-.347.225-.5A.781.781 0 01.81 0h28.557c7.205 0 13.422 2.944 18.647 8.827l6.937 8.462-13.512 16.47-10.271-12.556zM81.076 8.736C86.3 2.912 92.546 0 99.813 0h28.467c.24 0 .419.061.541.181.118.123.179.304.179.546v18.2c0 .182-.061.35-.179.5-.122.152-.301.228-.541.228h-27.025c-1.32 0-2.431.517-3.333 1.548L78.013 45.408l19.998 24.387c.902.972 1.981 1.457 3.244 1.457h27.025c.24 0 .419.076.541.228.118.152.179.35.179.59v18.2c0 .181-.061.35-.179.5-.122.152-.301.228-.541.228H99.813c-7.267 0-13.483-2.942-18.648-8.827L64.591 61.97l-16.577 20.2c-5.225 5.886-11.47 8.828-18.737 8.828H.81c-.24 0-.422-.076-.54-.228-.122-.152-.18-.348-.18-.593v-18.2a.78.78 0 01.18-.5c.118-.151.3-.227.54-.227h27.024c1.261 0 2.372-.515 3.334-1.548l19.547-23.84 30.36-37.126z" fill="#00D1FF"/>
    <path fill="url(#paint0_linear-377295)" d="M0 0h129v91H0z"/>
    <defs>
        <linearGradient id="paint0_linear-377295" x1="64.5" y1="91" x2="64.5" y2="-39.623" gradientUnits="userSpaceOnUse">
            <stop stop-color="#06061B"/>
            <stop offset="1" stop-color="#06061B" stop-opacity=".76"/>
        </linearGradient>
    </defs>
</svg>
