<svg width="161" height="113" viewBox="0 0 161 113" fill="none" xmlns="http://www.w3.org/2000/svg">
<path opacity="0.1" d="M39.39 26.2331C38.275 24.9574 36.9023 24.318 35.2688 24.318H1.86143C1.5647 24.318 1.32193 24.224 1.1391 24.0362C0.953266 23.8513 0.860352 23.6422 0.860352 23.418V0.899992C0.860352 0.675752 0.953266 0.469693 1.1391 0.281816C1.32193 0.0939386 1.5647 0 1.86143 0H37.163C46.0708 0 53.7558 3.64239 60.2148 10.9211L68.79 21.3907L52.0863 41.7693L39.39 26.2331ZM101.085 10.809C107.544 3.603 115.265 0 124.248 0H159.439C159.735 0 159.957 0.0757569 160.107 0.22424C160.254 0.375754 160.329 0.599995 160.329 0.899992V23.418C160.329 23.6422 160.254 23.8513 160.107 24.0362C159.957 24.224 159.735 24.318 159.439 24.318H126.031C124.398 24.318 123.025 24.9574 121.91 26.2331L97.2998 56.1813L122.021 86.3538C123.136 87.5568 124.47 88.1568 126.031 88.1568H159.439C159.735 88.1568 159.957 88.2508 160.107 88.4386C160.254 88.6265 160.329 88.872 160.329 89.1689V111.687C160.329 111.911 160.254 112.12 160.107 112.305C159.957 112.493 159.735 112.587 159.439 112.587H124.248C115.265 112.587 107.58 108.948 101.196 101.666L80.707 76.6721L60.2148 101.666C53.7558 108.948 46.0349 112.587 37.0521 112.587H1.86143C1.5647 112.587 1.33991 112.493 1.19305 112.305C1.04318 112.117 0.97125 111.875 0.97125 111.572V89.0538C0.97125 88.8295 1.04318 88.6235 1.19305 88.4356C1.33991 88.2477 1.5647 88.1538 1.86143 88.1538H35.2688C36.8273 88.1538 38.2001 87.5174 39.39 86.2386L63.5538 56.7419L101.085 10.809Z" fill="#00D1FF"/>
</svg>