<svg width="32" height="38" viewBox="0 0 32 38" fill="none" xmlns="http://www.w3.org/2000/svg">
<path d="M16.5536 3.00343C13.1959 3.00363 9.94209 4.16807 7.34663 6.29835C4.75117 8.42863 2.97465 11.3929 2.31976 14.6862C1.66487 17.9795 2.17214 21.3979 3.75512 24.3591C5.33811 27.3203 7.89887 29.641 11.0011 30.9258C14.1033 32.2106 17.5551 32.38 20.7682 31.4052C23.9813 30.4303 26.757 28.3715 28.6223 25.5796C30.4877 22.7876 31.3273 19.4353 30.998 16.0937C30.6687 12.7521 29.191 9.62809 26.8166 7.2539C25.4704 5.90416 23.8706 4.8338 22.1094 4.10436C20.3481 3.37492 18.46 3.00077 16.5536 3.00343V3.00343Z" fill="#FFF6E9"/>
<path d="M30.0947 24.1001H3.0112C2.88119 24.1008 2.75359 24.1354 2.64102 24.2004C2.52845 24.2655 2.4348 24.3588 2.36931 24.4711C2.30383 24.5834 2.26877 24.7109 2.26761 24.8409C2.26644 24.9709 2.29921 25.099 2.36268 25.2125C3.68805 27.5865 5.58804 29.59 7.88856 31.0393C10.1891 32.4885 12.8165 33.3372 15.5301 33.5076C15.7179 33.5206 15.8937 33.6045 16.022 33.7423C16.1503 33.88 16.2214 34.0614 16.2209 34.2496V34.2496C16.221 34.4433 16.1457 34.6294 16.011 34.7685C15.8762 34.9077 15.6926 34.9888 15.499 34.9949C12.7024 35.0672 10.254 35.4232 8.6455 35.9438C7.83678 36.2063 8.02367 37.3999 8.87465 37.3999H24.2257C25.0767 37.3999 25.2636 36.2063 24.4549 35.9438C22.8464 35.4232 20.398 35.0672 17.6014 34.9949C17.4078 34.9888 17.2242 34.9077 17.0894 34.7685C16.9547 34.6294 16.8794 34.4433 16.8795 34.2496V34.2496C16.879 34.0614 16.9501 33.88 17.0784 33.7423C17.2066 33.6045 17.3825 33.5206 17.5703 33.5076C20.2838 33.337 22.9112 32.4882 25.2117 31.039C27.5121 29.5898 29.4122 27.5864 30.7377 25.2125C30.801 25.0994 30.8337 24.9719 30.8328 24.8423C30.8319 24.7127 30.7973 24.5857 30.7325 24.4735C30.6677 24.3613 30.5748 24.2679 30.463 24.2025C30.3512 24.137 30.2243 24.1017 30.0947 24.1001Z" fill="url(#paint0_radial_735_16482)"/>
<path d="M6.77784 13.5557C10.5211 13.5557 13.5557 10.5211 13.5557 6.77784C13.5557 3.03454 10.5211 0 6.77784 0C3.03454 0 0 3.03454 0 6.77784C0 10.5211 3.03454 13.5557 6.77784 13.5557Z" fill="url(#paint1_radial_735_16482)"/>
<path d="M2.97852 12.3922C4.23695 13.2462 5.74619 13.6518 7.2632 13.5438C8.78022 13.4358 10.2167 12.8203 11.3414 11.7966C12.4661 10.7728 13.2136 9.40037 13.4634 7.90017C13.7132 6.39997 13.4509 4.85935 12.7187 3.52637C10.5108 4.13086 8.47729 5.24927 6.78443 6.79016C5.09157 8.33106 3.78739 10.2507 2.97852 12.3922V12.3922Z" fill="url(#paint2_radial_735_16482)"/>
<path d="M31.0676 17.5158C31.0706 15.4828 30.6453 13.4719 29.8194 11.6141C28.9935 9.75629 27.7856 8.0933 26.2743 6.73338C20.7958 1.78321 12.3226 1.78321 6.84518 6.73338C5.09512 8.30706 3.75462 10.2832 2.93955 12.4911C2.04073 14.9384 3.90845 17.5158 6.51035 17.5158H7.78738C8.66942 17.5173 9.51477 17.869 10.1376 18.4935C10.7605 19.118 11.1099 19.9643 11.109 20.8464V23.7219C11.109 24.6041 11.4594 25.4503 12.0831 26.0742C12.7068 26.6981 13.5528 27.0488 14.4351 27.0491C14.872 27.0491 15.3046 26.963 15.7083 26.7958C16.112 26.6286 16.4788 26.3835 16.7877 26.0746C17.0967 25.7656 17.3418 25.3988 17.509 24.9952C17.6762 24.5915 17.7622 24.1588 17.7622 23.7219V20.8464C17.7622 19.9641 18.1126 19.118 18.7364 18.4941C19.3601 17.8701 20.2061 17.5195 21.0883 17.5192V17.5192C21.5252 17.5192 21.9578 17.6053 22.3614 17.7725C22.765 17.9397 23.1317 18.1848 23.4406 18.4938C23.7495 18.8027 23.9944 19.1695 24.1615 19.5732C24.3286 19.9769 24.4145 20.4095 24.4144 20.8464V27.0491C24.4147 27.9313 24.7653 28.7773 25.3893 29.401C26.0132 30.0248 26.8593 30.3752 27.7416 30.3752V30.3752C28.6237 30.3752 29.4697 30.0247 30.0934 29.401C30.7172 28.7772 31.0676 27.9312 31.0676 27.0491V17.5158Z" fill="url(#paint3_radial_735_16482)"/>
<path d="M6.14533 13.5411L6.11307 13.53C5.99951 13.4877 5.89577 13.4228 5.8082 13.3391C5.72062 13.2554 5.65106 13.1547 5.60378 13.0431C5.5565 12.9316 5.53249 12.8116 5.53322 12.6904C5.53395 12.5693 5.55942 12.4495 5.60805 12.3386C6.94929 9.4418 9.34692 7.16713 12.3102 5.98012C12.4234 5.93651 12.5444 5.91672 12.6656 5.92197C12.7868 5.92723 12.9056 5.95742 13.0146 6.01066C13.1235 6.0639 13.2204 6.13905 13.299 6.23141C13.3777 6.32377 13.4364 6.43135 13.4716 6.54744V6.54744C13.541 6.76139 13.5268 6.99367 13.4318 7.19757C13.3369 7.40147 13.1683 7.56187 12.9599 7.64649C10.4314 8.6624 8.38543 10.6042 7.23882 13.0761C7.14886 13.2773 6.98616 13.437 6.78336 13.5233C6.58055 13.6095 6.35264 13.6159 6.14533 13.5411V13.5411Z" fill="white"/>
<defs>
<radialGradient id="paint0_radial_735_16482" cx="0" cy="0" r="1" gradientUnits="userSpaceOnUse" gradientTransform="translate(9.95813 25.7253) scale(16.1209)">
<stop stop-color="#D0F4F7"/>
<stop offset="1" stop-color="#69A8FB"/>
</radialGradient>
<radialGradient id="paint1_radial_735_16482" cx="0" cy="0" r="1" gradientUnits="userSpaceOnUse" gradientTransform="translate(4.11921 3.49738) scale(11.7213)">
<stop offset="0.36" stop-color="#FFE8A8"/>
<stop offset="0.91" stop-color="#FDB078"/>
</radialGradient>
<radialGradient id="paint2_radial_735_16482" cx="0" cy="0" r="1" gradientUnits="userSpaceOnUse" gradientTransform="translate(6.31348 6.37967) scale(9.71123)">
<stop offset="0.19" stop-color="#FFD0A8"/>
<stop offset="0.91" stop-color="#FDB0C0"/>
</radialGradient>
<radialGradient id="paint3_radial_735_16482" cx="0" cy="0" r="1" gradientUnits="userSpaceOnUse" gradientTransform="translate(10.3426 6.36406) scale(21.3703)">
<stop stop-color="#FDB0A7"/>
<stop offset="0.21" stop-color="#FAABA6"/>
<stop offset="0.48" stop-color="#F39BA5"/>
<stop offset="0.77" stop-color="#E682A2"/>
<stop offset="1" stop-color="#DA68A0"/>
</radialGradient>
</defs>
</svg>