<svg viewBox="0 0 106 20" fill="none" xmlns="http://www.w3.org/2000/svg">
    <path d="M33.32 2.605c1.006 0 1.836.818 1.836 1.808v.69h2.12v-.905c0-1.83-1.617-3.423-3.474-3.423h-6.294c-1.923 0-3.496 1.572-3.496 3.423v1.486c0 1.894 1.617 3.423 3.496 3.423h6.053c1.005 0 1.814.818 1.814 1.808v1.292c0 .99-.809 1.808-1.814 1.808h-5.703c-1.006 0-1.836-.796-1.836-1.787v-.689h-2.12v.905c0 1.83 1.617 3.401 3.475 3.401h6.643c1.923 0 3.475-1.572 3.475-3.423V10.7c0-1.895-1.596-3.423-3.475-3.423h-6.053c-1.005 0-1.836-.818-1.836-1.809V4.413c0-.99.83-1.808 1.836-1.808h5.354zm13.469 11.496h-1.967c-.94 0-1.552-.603-1.552-1.528V5.92h3.54V4.177h-3.54V1.615h-1.988v2.562h-2.054V5.92h2.054v6.89c0 1.765 1.333 3.035 3.081 3.035h2.426v-1.744zm5.623 0c-.94 0-1.682-.71-1.682-1.636V7.578c0-.947.743-1.658 1.682-1.658h5.136v7.535c0 .41-.306.646-.678.646h-4.458zm3.562 1.744l1.574-1.292v1.292h1.988V4.177h-7.583c-1.726 0-3.212 1.399-3.212 3.164v5.36c0 1.702 1.442 3.144 3.212 3.144h4.021zM70.728 4.177l-6.14 5.317V0h-1.989v15.845h1.989v-5.619l6.643 5.619h2.688l-7.277-6.05 6.73-5.618h-2.644zm5.018 0v11.668h1.989V4.177h-1.99zm0-3.854v2.239h1.989V.322h-1.99zm7.109 6.243c0-.387.306-.646.678-.646h4.61c.962 0 1.683.71 1.683 1.658v8.267h1.989V7.341c0-1.765-1.464-3.164-3.213-3.164h-4.217l-1.53 1.248V4.177h-1.988v11.668h1.988V6.566zm15.333 7.169c-.94 0-1.683-.71-1.683-1.657v-4.5c0-.947.743-1.658 1.683-1.658h5.244v7.17c0 .387-.306.645-.677.645h-4.567zM102.23 20c1.792 0 3.191-1.42 3.191-3.143V4.177h-7.692c-1.727 0-3.213 1.399-3.213 3.164v4.973c0 1.723 1.442 3.165 3.213 3.165h4.13l1.573-1.313v2.519c0 .925-.721 1.636-1.661 1.636h-3.08c-.94 0-1.662-.71-1.662-1.636v-.323h-1.966v.516c0 1.744 1.464 3.122 3.212 3.122h3.955z" fill="#fff"/>
    <g clip-path="url(#clip0)">
        <path d="M4.813 4.732a.648.648 0 00-.515-.249H.125a.118.118 0 01-.09-.036.113.113 0 01-.035-.08V1.444c0-.03.012-.056.035-.08a.118.118 0 01.09-.037h4.41c1.112 0 2.072.473 2.879 1.417l1.07 1.358L6.4 6.747 4.813 4.732zm7.706-2.002c.807-.934 1.771-1.402 2.893-1.402h4.396c.037 0 .064.01.083.03.018.019.028.048.028.087v2.921a.13.13 0 01-.028.08c-.019.025-.046.037-.083.037h-4.173a.648.648 0 00-.515.249l-3.074 3.885 3.088 3.914a.65.65 0 00.5.234h4.174c.037 0 .064.012.083.037a.154.154 0 01.028.095v2.921a.13.13 0 01-.028.08c-.019.025-.046.037-.083.037h-4.396c-1.122 0-2.082-.472-2.88-1.417l-2.559-3.243-2.56 3.243c-.806.945-1.77 1.417-2.892 1.417H.125c-.037 0-.065-.012-.083-.037a.151.151 0 01-.028-.095v-2.921c0-.03.009-.056.028-.08.018-.025.046-.037.083-.037h4.173a.674.674 0 00.515-.248L7.83 8.69l4.688-5.96z" fill="#00D1FF"/>
    </g>
    <defs>
        <clipPath id="clip0">
            <path fill="#fff" transform="translate(0 1.328)" d="M0 0h19.919v14.607H0z"/>
        </clipPath>
    </defs>
</svg>
