<svg viewBox="0 0 22 16" fill="none" xmlns="http://www.w3.org/2000/svg">
    <path d="M5.315 3.728a.718.718 0 00-.568-.272H.138a.131.131 0 01-.1-.04A.124.124 0 010 3.328v-3.2C0 .096.013.067.038.04a.131.131 0 01.1-.04h4.87c1.23 0 2.29.518 3.18 1.552L9.371 3.04 7.067 5.936 5.315 3.728zm8.512-2.192C14.717.512 15.783 0 17.022 0h4.855c.041 0 .072.01.092.032.02.021.031.053.031.096v3.2c0 .032-.01.062-.03.088-.021.027-.052.04-.093.04h-4.609a.718.718 0 00-.568.272l-3.395 4.256 3.41 4.288a.718.718 0 00.553.256h4.61c.04 0 .07.013.091.04.02.027.031.062.031.104v3.2a.14.14 0 01-.03.088c-.021.027-.052.04-.093.04h-4.855c-1.239 0-2.3-.517-3.18-1.552l-2.827-3.552-2.827 3.552C7.298 15.483 6.232 16 4.993 16H.138c-.04 0-.072-.013-.092-.04a.165.165 0 01-.03-.104v-3.2a.14.14 0 01.03-.088c.02-.027.051-.04.092-.04h4.609c.215 0 .404-.09.568-.272L8.65 8.064l5.178-6.528z" fill="#00D1FF"/>
</svg>
