<svg width="99" height="24" viewBox="0 0 99 24" fill="none" xmlns="http://www.w3.org/2000/svg">
<path d="M50.5324 7.95004C51.1953 7.95004 51.7429 8.49766 51.7429 9.16055V9.6217H53.1408V9.01645C53.1408 7.79152 52.0744 6.72512 50.8495 6.72512H46.6991C45.431 6.72512 44.3934 7.77711 44.3934 9.01645V10.0108C44.3934 11.279 45.4598 12.3021 46.6991 12.3021H50.6909C51.3538 12.3021 51.887 12.8497 51.887 13.5126V14.3773C51.887 15.0402 51.3538 15.5878 50.6909 15.5878H46.9297C46.2668 15.5878 45.7192 15.0546 45.7192 14.3917V13.9305H44.3214V14.5358C44.3214 15.7607 45.3878 16.8127 46.6127 16.8127H50.9936C52.2617 16.8127 53.2849 15.7607 53.2849 14.5214V13.3685C53.2849 12.1004 52.2329 11.0772 50.9936 11.0772H47.0018C46.3389 11.0772 45.7913 10.5296 45.7913 9.86669V9.16055C45.7913 8.49766 46.3389 7.95004 47.0018 7.95004H50.5324Z" fill="white"/>
<path d="M59.4139 15.6454H58.1169C57.4973 15.6454 57.0938 15.2419 57.0938 14.6223V10.1693H59.4283V9.00203H57.0938V7.28714H55.7824V9.00203H54.4277V10.1693H55.7824V14.7808C55.7824 15.9625 56.6614 16.8127 57.8143 16.8127H59.4139V15.6454Z" fill="white"/>
<path d="M63.1224 15.6454C62.5028 15.6454 62.0128 15.1699 62.0128 14.5502V11.279C62.0128 10.6449 62.5028 10.1693 63.1224 10.1693H66.509V15.2131C66.509 15.4869 66.3072 15.6454 66.0623 15.6454H63.1224ZM65.4714 16.8127L66.509 15.9481V16.8127H67.8204V9.00203H62.8198C61.6814 9.00203 60.7014 9.93874 60.7014 11.1204V14.7087C60.7014 15.8472 61.6525 16.8127 62.8198 16.8127H65.4714Z" fill="white"/>
<path d="M75.2011 9.00203L71.1517 12.5615V6.20633H69.8403V16.8127H71.1517V13.0515L75.5326 16.8127H77.3051L72.5063 12.7633L76.9448 9.00203H75.2011Z" fill="white"/>
<path d="M78.51 9.00203V16.8127H79.8214V9.00203H78.51ZM78.51 6.42249V7.92122H79.8214V6.42249H78.51Z" fill="white"/>
<path d="M83.1982 10.6016C83.1982 10.3422 83.4 10.1693 83.645 10.1693H86.6857C87.3197 10.1693 87.7953 10.6449 87.7953 11.279V16.8127H89.1067V11.1204C89.1067 9.93874 88.1411 9.00203 86.9883 9.00203H84.207L83.1982 9.83787V9.00203H81.8868V16.8127H83.1982V10.6016Z" fill="white"/>
<path d="M93.3092 15.4005C92.6896 15.4005 92.1996 14.9249 92.1996 14.2908V11.279C92.1996 10.6449 92.6896 10.1693 93.3092 10.1693H96.7678V14.9681C96.7678 15.2275 96.5661 15.4005 96.3211 15.4005H93.3092ZM95.9752 19.594C97.1569 19.594 98.0792 18.6429 98.0792 17.49V9.00203H93.0066C91.8682 9.00203 90.8882 9.93874 90.8882 11.1204V14.4493C90.8882 15.6022 91.8393 16.5677 93.0066 16.5677H95.7303L96.7678 15.6887V17.3747C96.7678 17.9944 96.2923 18.47 95.6726 18.47H93.6407C93.021 18.47 92.5455 17.9944 92.5455 17.3747V17.1586H91.2485V17.5044C91.2485 18.6717 92.214 19.594 93.3669 19.594H95.9752Z" fill="white"/>
<path d="M8.21483 5.59193C7.97711 5.31998 7.68443 5.18369 7.33615 5.18369H0.213439C0.150174 5.18369 0.0984118 5.16367 0.0594305 5.12362C0.0198102 5.08421 0 5.03964 0 4.99184V0.191845C0 0.144045 0.0198102 0.100121 0.0594305 0.0600727C0.0984118 0.0200242 0.150174 0 0.213439 0H7.74003C9.63925 0 11.2777 0.776423 12.6549 2.32798L14.4832 4.55971L10.9218 8.90367L8.21483 5.59193ZM21.3688 2.30408C22.7459 0.768026 24.3921 0 26.3073 0H33.8102C33.8735 0 33.9208 0.0161486 33.9527 0.0477998C33.984 0.0800969 34 0.127897 34 0.191845V4.99184C34 5.03964 33.984 5.08421 33.9527 5.12362C33.9208 5.16367 33.8735 5.18369 33.8102 5.18369H26.6875C26.3392 5.18369 26.0465 5.31998 25.8088 5.59193L20.5617 11.9758L25.8325 18.4074C26.0702 18.6639 26.3546 18.7918 26.6875 18.7918H33.8102C33.8735 18.7918 33.9208 18.8118 33.9527 18.8518C33.984 18.8919 34 18.9442 34 19.0075V23.8075C34 23.8553 33.984 23.8999 33.9527 23.9393C33.9208 23.9793 33.8735 23.9994 33.8102 23.9994H26.3073C24.3921 23.9994 22.7536 23.2236 21.3924 21.6714L17.024 16.3436L12.6549 21.6714C11.2777 23.2236 9.63158 23.9994 7.71638 23.9994H0.213439C0.150174 23.9994 0.102246 23.9793 0.0709332 23.9393C0.0389813 23.8992 0.0236444 23.8476 0.0236444 23.783V18.983C0.0236444 18.9352 0.0389813 18.8912 0.0709332 18.8512C0.102246 18.8111 0.150174 18.7911 0.213439 18.7911H7.33615C7.66845 18.7911 7.96113 18.6555 8.21483 18.3829L13.3668 12.0953L21.3688 2.30408Z" fill="#00D1FF"/>
</svg>
