<svg viewBox="0 0 112 33" fill="none" xmlns="http://www.w3.org/2000/svg">
    <path d="M57.163 10.954c.765 0 1.397.613 1.397 1.356v.517h1.612v-.678c0-1.373-1.23-2.568-2.643-2.568h-4.787c-1.462 0-2.659 1.179-2.659 2.568v1.114c0 1.42 1.23 2.567 2.66 2.567h4.603c.765 0 1.38.614 1.38 1.356v.969a1.37 1.37 0 01-1.38 1.356h-4.338c-.764 0-1.396-.597-1.396-1.34v-.517H50v.679c0 1.372 1.23 2.55 2.643 2.55h5.052c1.463 0 2.643-1.178 2.643-2.566v-1.292c0-1.421-1.213-2.567-2.643-2.567h-4.604c-.764 0-1.396-.614-1.396-1.357v-.791c0-.743.632-1.356 1.396-1.356h4.072zm10.243 8.622h-1.495c-.715 0-1.18-.452-1.18-1.146v-4.99h2.692v-1.308h-2.692v-1.921h-1.513v1.921h-1.562v1.308h1.562v5.167c0 1.324 1.014 2.277 2.344 2.277h1.844v-1.308zm4.278 0c-.715 0-1.28-.533-1.28-1.227v-3.665c0-.71.565-1.244 1.28-1.244h3.905v5.652c0 .306-.232.484-.515.484h-3.39zm2.709 1.308l1.196-.969v.969h1.513v-8.752h-5.767c-1.313 0-2.444 1.05-2.444 2.374v4.02c0 1.276 1.097 2.358 2.444 2.358h3.058zm11.221-8.752l-4.67 3.989V9H79.43v11.884h1.513v-4.215l5.052 4.215h2.045l-5.535-4.537 5.12-4.215h-2.012zm3.816 0v8.752h1.513v-8.752H89.43zm0-2.89v1.68h1.513v-1.68H89.43zm5.408 4.683c0-.291.232-.485.515-.485h3.507c.73 0 1.279.533 1.279 1.244v6.2h1.513v-6.378c0-1.324-1.114-2.374-2.443-2.374H96l-1.163.937v-.937h-1.513v8.752h1.513v-6.96zm11.661 5.376c-.715 0-1.28-.532-1.28-1.243v-3.374c0-.71.565-1.244 1.28-1.244h3.989v5.377c0 .29-.233.484-.516.484h-3.473zM109.573 24c1.363 0 2.427-1.066 2.427-2.357v-9.51h-5.85c-1.313 0-2.444 1.049-2.444 2.373v3.73c0 1.291 1.097 2.373 2.444 2.373h3.141l1.197-.985v1.89c0 .694-.549 1.227-1.264 1.227h-2.343c-.715 0-1.263-.533-1.263-1.227v-.243h-1.496v.388c0 1.308 1.114 2.341 2.443 2.341h3.008z" fill="#fff"/>
    <path d="M10.423 6.99a1.432 1.432 0 00-1.115-.51H.271a.263.263 0 01-.196-.075A.227.227 0 010 6.24v-6A.23.23 0 01.075.075.263.263 0 01.271 0h9.55c2.41 0 4.488.97 6.236 2.91l2.32 2.79-4.52 5.43-3.434-4.14zm16.69-4.11C28.86.96 30.949 0 33.379 0h9.52c.08 0 .14.02.18.06.04.04.06.1.06.18v6c0 .06-.02.115-.06.165-.04.05-.1.075-.18.075H33.86c-.441 0-.813.17-1.114.51l-6.658 7.98 6.688 8.04c.301.32.662.48 1.084.48h9.04c.08 0 .14.025.18.075.04.05.06.115.06.194v6c0 .06-.02.116-.06.165-.04.05-.1.075-.18.075h-9.52c-2.43 0-4.509-.97-6.236-2.91L21.6 20.43l-5.543 6.66C14.309 29.03 12.22 30 9.79 30H.27c-.08 0-.141-.025-.181-.075a.3.3 0 01-.06-.195v-6c0-.06.02-.115.06-.165.04-.05.1-.075.18-.075h9.038c.422 0 .793-.17 1.115-.51l6.537-7.86L27.113 2.88z" fill="#00D1FF"/>
</svg>
