<svg viewBox="0 0 39 27" fill="none" xmlns="http://www.w3.org/2000/svg">
    <path d="M9.38 6.29a1.29 1.29 0 00-1.003-.458H.244a.237.237 0 01-.176-.068A.205.205 0 010 5.616v-5.4C0 .162.023.113.068.068A.237.237 0 01.244 0h8.595c2.168 0 4.04.873 5.612 2.619l2.088 2.51-4.067 4.888L9.381 6.29zm15.022-3.698C25.974.864 27.854 0 30.042 0h8.567c.072 0 .126.018.163.054.035.036.054.09.054.162v5.4a.232.232 0 01-.054.148c-.037.045-.09.068-.163.068h-8.134c-.397 0-.732.153-1.003.459l-5.992 7.182 6.019 7.235c.271.289.596.433.976.433h8.134c.072 0 .126.022.163.067a.275.275 0 01.054.175v5.4a.232.232 0 01-.054.149c-.037.045-.09.067-.163.067h-8.568c-2.187 0-4.058-.872-5.612-2.619l-4.989-5.993-4.989 5.993C12.878 26.127 10.999 27 8.811 27H.245c-.073 0-.127-.023-.163-.068a.27.27 0 01-.054-.176v-5.4a.23.23 0 01.054-.148c.036-.045.09-.068.163-.068h8.133c.38 0 .714-.153 1.004-.46l5.883-7.073 9.138-11.015z" fill="#00D1FF"/>
</svg>
