<svg viewBox="0 0 146 10" fill="none" xmlns="http://www.w3.org/2000/svg">
    <path d="M14.09 4.742c-.623-.574-1.371-.86-2.245-.86H3.178a.592.592 0 01-.415-.16.503.503 0 01-.173-.385v-.664c0-.145.058-.27.173-.376a.593.593 0 01.415-.159h11.173c.028 0 .05-.008.068-.024a.073.073 0 00.026-.055V.08a.074.074 0 00-.026-.06.111.111 0 00-.067-.02H3.179C2.298 0 1.547.287.929.862.308 1.436 0 2.129 0 2.94v.128c0 .819.31 1.515.928 2.09.62.574 1.37.86 2.25.86h8.666a.59.59 0 01.404.154c.116.102.173.23.173.381v.664a.489.489 0 01-.173.381.59.59 0 01-.403.154H.66c-.02 0-.04.008-.058.024a.085.085 0 00-.026.065v1.98c0 .02.009.038.026.054A.082.082 0 00.66 9.9h11.183c.875 0 1.623-.288 2.245-.866.623-.578.934-1.272.934-2.084v-.13c0-.811-.311-1.504-.934-2.079zM32.903 0h-2.424c-.02 0-.04.007-.057.02-.018.013-.027.033-.027.06v2.514c0 .218-.119.383-.356.495l-4.837 1.89-4.836-1.89c-.238-.112-.357-.277-.357-.495V.079c0-.026-.006-.046-.02-.06A.106.106 0 0019.925 0h-2.423a.097.097 0 00-.058.02c-.017.013-.026.033-.026.06v2.88c0 .43.126.822.378 1.178.252.357.594.62 1.028.792l5.078 2.01v2.872c0 .026.008.048.026.064.017.017.04.025.068.025h2.423c.021 0 .04-.008.058-.025a.084.084 0 00.026-.064V6.94l5.078-2a2.306 2.306 0 001.028-.797c.252-.353.378-.744.378-1.173V.08a.072.072 0 00-.027-.06.094.094 0 00-.057-.02zm18.001 0H48.48c-.028 0-.049.008-.063.025a.081.081 0 00-.02.054v7.683h-1.018a.608.608 0 01-.483-.238l-4.7-6.484C41.693.373 40.996.026 40.11 0h-4.05a.096.096 0 00-.068.025.074.074 0 00-.026.054v9.742c0 .02.008.039.026.055.017.016.04.025.068.025h2.424c.02 0 .04-.009.057-.025a.073.073 0 00.027-.055V2.138h1.017a.6.6 0 01.483.248l4.7 6.485c.503.667 1.2 1.01 2.087 1.03h4.05c.028 0 .049-.009.063-.025a.083.083 0 00.021-.055V.08a.083.083 0 00-.02-.054.085.085 0 00-.066-.026zM68.42 0H53.575c-.028 0-.049.008-.063.025a.081.081 0 00-.02.054v1.98c0 .02.006.038.02.055.014.016.035.024.063.024h6.127v7.683c0 .02.007.039.02.055a.083.083 0 00.064.025h2.423c.028 0 .05-.009.063-.025a.083.083 0 00.021-.055V2.138h6.127c.028 0 .05-.008.068-.024a.074.074 0 00.026-.055V.08a.074.074 0 00-.026-.054A.093.093 0 0068.42 0zm18 0h-2.423a.08.08 0 00-.057.025.074.074 0 00-.026.054v3.802h-9.82V.079a.074.074 0 00-.026-.054A.097.097 0 0074 0h-2.424a.08.08 0 00-.057.025.074.074 0 00-.027.054v9.742c0 .02.009.039.026.055a.082.082 0 00.058.025H74c.028 0 .05-.009.068-.025a.074.074 0 00.026-.055V6.02h9.82v3.8c0 .02.008.039.026.055a.082.082 0 00.057.025h2.424c.028 0 .05-.009.068-.025a.074.074 0 00.026-.055V.08a.075.075 0 00-.026-.054A.095.095 0 0086.42 0zm17.938 0h-11.76c-.875 0-1.623.287-2.246.861-.622.575-.934 1.268-.934 2.08v4.01c0 .818.312 1.514.934 2.088.623.575 1.37.862 2.245.862h11.761a.08.08 0 00.057-.025.076.076 0 00.027-.054v-1.98c0-.027-.009-.047-.027-.06a.091.091 0 00-.057-.02h-11.76a.574.574 0 01-.41-.158.5.5 0 01-.168-.376V6.02h12.33c.028 0 .049-.009.063-.025a.082.082 0 00.021-.054V3.96c0-.027-.007-.047-.021-.06-.014-.013-.035-.02-.063-.02H92.02V2.673a.5.5 0 01.168-.376.574.574 0 01.41-.159h11.76a.08.08 0 00.057-.024c.017-.017.027-.035.027-.055V.08a.073.073 0 00-.027-.054.081.081 0 00-.057-.025zm17.915 0h-14.844c-.028 0-.05.008-.063.025a.078.078 0 00-.021.054v1.98c0 .02.006.038.021.055.013.016.035.024.063.024h6.126v7.683c0 .02.007.039.021.055.014.016.035.025.063.025h2.424a.081.081 0 00.063-.025.08.08 0 00.02-.055V2.138h6.127a.094.094 0 00.068-.024.072.072 0 00.026-.055V.08a.072.072 0 00-.026-.054.094.094 0 00-.068-.025zm5.643.02c-.014-.013-.035-.02-.063-.02h-2.424c-.028 0-.049.007-.063.02-.014.013-.02.033-.02.06v9.74c0 .02.006.039.02.055s.035.025.063.025h2.424c.028 0 .049-.009.063-.025a.082.082 0 00.021-.055V.08c0-.026-.007-.046-.021-.06zm6.691 2.386a.512.512 0 00-.389-.168h-3.147a.094.094 0 01-.068-.025.075.075 0 01-.026-.055V.178c0-.02.009-.038.026-.054a.095.095 0 01.068-.025h3.326c.839 0 1.563.32 2.172.96l.807.921-1.573 1.792-1.196-1.366zm5.812-1.356c.608-.634 1.335-.95 2.182-.95h3.315c.028 0 .049.006.063.019.014.013.021.033.021.06v1.98a.08.08 0 01-.021.054c-.014.016-.035.025-.063.025h-3.147a.512.512 0 00-.389.168l-2.318 2.634 2.329 2.653a.513.513 0 00.378.158h3.147c.028 0 .049.009.063.025a.096.096 0 01.021.064v1.98c0 .02-.007.039-.021.055-.014.016-.035.025-.063.025h-3.315c-.846 0-1.57-.32-2.172-.96l-1.93-2.199-1.93 2.198c-.609.64-1.336.96-2.183.96h-3.315c-.028 0-.049-.008-.063-.024a.096.096 0 01-.021-.065V7.93a.08.08 0 01.021-.054c.014-.017.035-.025.063-.025h3.147a.533.533 0 00.389-.168l2.276-2.594 3.536-4.04z" fill="currentColor"/>
</svg>
