<svg  viewBox="0 0 64 64" fill="none" xmlns="http://www.w3.org/2000/svg">
<path d="M47.8899 48.0291C47.5838 48.4423 47.1551 48.6754 46.7079 48.7158C46.2605 48.761 45.7954 48.6135 45.4168 48.2663L39.3731 42.7196C38.6184 42.0268 38.5004 40.7949 39.11 39.9712C39.4158 39.5581 39.8449 39.325 40.2923 39.2843C40.7395 39.2397 41.2048 39.3868 41.5835 39.7344L47.6268 45.2809C48.3816 45.9738 48.4994 47.206 47.8899 48.0291Z" fill="#FB70FE"/>
<path d="M56.6899 61.5049L56.69 61.505C57.3562 62.1716 58.2252 62.5036 59.0949 62.5L59.0991 62.5C59.9678 62.5036 60.8369 62.1717 61.5044 61.5041C62.8316 60.1768 62.8322 58.0176 61.5044 56.69L61.5044 56.69L49.3104 44.4953L49.664 44.1417L49.3104 44.4953C48.6436 43.8284 47.7749 43.4964 46.9053 43.5L46.901 43.5001C46.0322 43.4961 45.1632 43.8283 44.4962 44.4949C44.4962 44.495 44.4962 44.495 44.4962 44.495M56.6899 61.5049L44.4962 44.495M56.6899 61.5049L44.4961 49.3102L44.4961 49.3102C43.1679 47.9821 43.168 45.8234 44.4962 44.495M56.6899 61.5049L44.4962 44.495" fill="#FB70FE" stroke="#D94454"/>
<path d="M24 47.5C36.9787 47.5 47.5 36.9787 47.5 24C47.5 11.0213 36.9787 0.5 24 0.5C11.0213 0.5 0.5 11.0213 0.5 24C0.5 36.9787 11.0213 47.5 24 47.5Z" fill="#FB70FE" stroke="#D94454"/>
<path d="M24 41C33.3888 41 41 33.3888 41 24C41 14.6112 33.3888 7 24 7C14.6112 7 7 14.6112 7 24C7 33.3888 14.6112 41 24 41Z" fill="#FB70FE"/>
<path d="M24 42C33.9411 42 42 33.9411 42 24C42 14.0589 33.9411 6 24 6C14.0589 6 6 14.0589 6 24C6 33.9411 14.0589 42 24 42Z" fill="#FEBEFF"/>
<path d="M13 31L19.2857 22.3333L26.2 27L35 15" stroke="#D94454" stroke-width="2"/>
</svg>
