<?xml version="1.0" encoding="UTF-8" standalone="no"?><!-- Generator: Gravit.io --><svg xmlns="http://www.w3.org/2000/svg" xmlns:xlink="http://www.w3.org/1999/xlink" style="isolation:isolate" viewBox="-0.262 1.738 26.38 26.38" width="26.38pt" height="26.38pt"><defs><clipPath id="_clipPath_zUpla8PmFIHGQFNM88pAmftN3XEsYTZ8"><rect x="-0.262" y="1.738" width="26.38" height="26.38"/></clipPath></defs><g clip-path="url(#_clipPath_zUpla8PmFIHGQFNM88pAmftN3XEsYTZ8)"><g><path d=" M 20.844 22.894 C 20.734 23.043 20.579 23.128 20.417 23.142 C 20.256 23.158 20.088 23.105 19.951 22.98 L 17.77 20.978 C 17.497 20.728 17.455 20.283 17.675 19.986 C 17.785 19.836 17.94 19.752 18.102 19.738 C 18.263 19.722 18.431 19.775 18.568 19.9 L 20.749 21.902 C 21.022 22.152 21.064 22.597 20.844 22.894 Z " fill="rgb(64,47,200)"/><path d=" M 24.021 27.759 L 24.021 27.759 C 24.261 27.999 24.575 28.119 24.889 28.118 L 24.89 28.118 C 25.204 28.119 25.518 27.999 25.758 27.758 C 26.238 27.279 26.238 26.5 25.758 26.021 L 25.758 26.021 L 21.357 21.619 L 21.484 21.491 L 21.357 21.619 C 21.116 21.378 20.803 21.258 20.489 21.259 L 20.487 21.259 C 20.173 21.258 19.86 21.378 19.619 21.619 C 19.619 21.619 19.619 21.619 19.619 21.619 M 24.021 27.759 L 19.619 21.619 M 24.021 27.759 L 19.619 23.357 L 19.619 23.357 C 19.14 22.877 19.14 22.098 19.619 21.619 M 24.021 27.759 L 19.619 21.619" fill="rgb(64,47,200)"/><path d=" M 7.054 17.116 L 11.162 13.233 L 12.949 14.928 L 17.171 11.107" fill="none" vector-effect="non-scaling-stroke" stroke-width="1.4" stroke="rgb(64,47,200)" stroke-linejoin="miter" stroke-linecap="square" stroke-miterlimit="3"/><mask id="_mask_QYpMDLJXLPUMZIJ2hnMfWgp5dNIDSokj" x="-200%" y="-200%" width="400%" height="400%"><rect x="-200%" y="-200%" width="400%" height="400%" style="fill:white;"/><path d=" M 12.22 22.703 C 16.905 22.703 20.703 18.905 20.703 14.22 C 20.703 9.536 16.905 5.738 12.22 5.738 C 7.536 5.738 3.738 9.536 3.738 14.22 C 3.738 18.905 7.536 22.703 12.22 22.703 Z " fill="black" stroke="none"/></mask><path d=" M 12.22 22.703 C 16.905 22.703 20.703 18.905 20.703 14.22 C 20.703 9.536 16.905 5.738 12.22 5.738 C 7.536 5.738 3.738 9.536 3.738 14.22 C 3.738 18.905 7.536 22.703 12.22 22.703 Z " fill="none"/><path d=" M 12.22 22.703 C 16.905 22.703 20.703 18.905 20.703 14.22 C 20.703 9.536 16.905 5.738 12.22 5.738 C 7.536 5.738 3.738 9.536 3.738 14.22 C 3.738 18.905 7.536 22.703 12.22 22.703 Z " fill="none" mask="url(#_mask_QYpMDLJXLPUMZIJ2hnMfWgp5dNIDSokj)" vector-effect="non-scaling-stroke" stroke-width="2" stroke="rgb(64,47,200)" stroke-linejoin="miter" stroke-linecap="butt" stroke-miterlimit="4"/></g></g></svg>