<svg width="45" height="53" fill="none" xmlns="http://www.w3.org/2000/svg">
    <g filter="url(#a)">
        <path d="M9.138 17.147a.468.468 0 0 0 0 .665l1.51 1.51 3.467 3.466c.184.184.48.184.664 0l1.178-1.178a.468.468 0 0 0 0-.664l-3.135-3.135a.468.468 0 0 1 0-.664l3.135-3.134a.468.468 0 0 0 0-.665l-1.178-1.177a.468.468 0 0 0-.664 0l-3.467 3.466-1.51 1.51Z" fill="#ED1EFF"/>
    </g>
    <g filter="url(#b)">
        <path d="M27.041 25.96a8.48 8.48 0 1 0 0-16.96 8.48 8.48 0 0 0 0 16.96Z" fill="#360937"/>
        <path d="M34.945 17.48a7.904 7.904 0 1 1-15.808 0 7.904 7.904 0 0 1 15.808 0Z" stroke="#ED1EFF" stroke-width="1.151"/>
    </g>
    <g filter="url(#c)">
        <path d="m33.877 33.213-3.467-3.466a.468.468 0 0 0-.665 0l-1.177 1.177a.468.468 0 0 0 0 .665l3.134 3.134a.468.468 0 0 1 0 .665l-3.134 3.134a.468.468 0 0 0 0 .665l1.177 1.177a.47.47 0 0 0 .665 0l3.467-3.467 1.51-1.51a.468.468 0 0 0 0-.664l-1.51-1.51Z" fill="#ED1EFF"/>
    </g>
    <g filter="url(#d)">
        <path d="M17.483 43.535a8.48 8.48 0 1 0 0-16.959 8.48 8.48 0 0 0 0 16.96Z" fill="#360937"/>
        <path d="M25.387 35.056a7.904 7.904 0 1 1-15.809 0 7.904 7.904 0 0 1 15.809 0Z" stroke="#ED1EFF" stroke-width="1.151"/>
    </g>
    <defs>
        <filter id="a" x=".368" y="3.4" width="24.36" height="28.159" filterUnits="userSpaceOnUse" color-interpolation-filters="sRGB">
            <feFlood flood-opacity="0" result="BackgroundImageFix"/>
            <feColorMatrix in="SourceAlpha" values="0 0 0 0 0 0 0 0 0 0 0 0 0 0 0 0 0 0 127 0"/>
            <feOffset/>
            <feGaussianBlur stdDeviation="4.316"/>
            <feColorMatrix values="0 0 0 0 0.929412 0 0 0 0 0.117647 0 0 0 0 1 0 0 0 0.6 0"/>
            <feBlend in2="BackgroundImageFix" result="effect1_dropShadow"/>
            <feBlend in="SourceGraphic" in2="effect1_dropShadow" result="shape"/>
        </filter>
        <filter id="b" x="9.929" y=".368" width="34.224" height="34.224" filterUnits="userSpaceOnUse" color-interpolation-filters="sRGB">
            <feFlood flood-opacity="0" result="BackgroundImageFix"/>
            <feColorMatrix in="SourceAlpha" values="0 0 0 0 0 0 0 0 0 0 0 0 0 0 0 0 0 0 127 0"/>
            <feOffset/>
            <feGaussianBlur stdDeviation="4.316"/>
            <feColorMatrix values="0 0 0 0 0.929412 0 0 0 0 0.117647 0 0 0 0 1 0 0 0 0.6 0"/>
            <feBlend in2="BackgroundImageFix" result="effect1_dropShadow"/>
            <feBlend in="SourceGraphic" in2="effect1_dropShadow" result="shape"/>
        </filter>
        <filter id="c" x="19.797" y="20.976" width="24.36" height="28.159" filterUnits="userSpaceOnUse" color-interpolation-filters="sRGB">
            <feFlood flood-opacity="0" result="BackgroundImageFix"/>
            <feColorMatrix in="SourceAlpha" values="0 0 0 0 0 0 0 0 0 0 0 0 0 0 0 0 0 0 127 0"/>
            <feOffset/>
            <feGaussianBlur stdDeviation="4.316"/>
            <feColorMatrix values="0 0 0 0 0.929412 0 0 0 0 0.117647 0 0 0 0 1 0 0 0 0.6 0"/>
            <feBlend in2="BackgroundImageFix" result="effect1_dropShadow"/>
            <feBlend in="SourceGraphic" in2="effect1_dropShadow" result="shape"/>
        </filter>
        <filter id="d" x=".37" y="17.944" width="34.224" height="34.224" filterUnits="userSpaceOnUse" color-interpolation-filters="sRGB">
            <feFlood flood-opacity="0" result="BackgroundImageFix"/>
            <feColorMatrix in="SourceAlpha" values="0 0 0 0 0 0 0 0 0 0 0 0 0 0 0 0 0 0 127 0"/>
            <feOffset/>
            <feGaussianBlur stdDeviation="4.316"/>
            <feColorMatrix values="0 0 0 0 0.929412 0 0 0 0 0.117647 0 0 0 0 1 0 0 0 0.6 0"/>
            <feBlend in2="BackgroundImageFix" result="effect1_dropShadow"/>
            <feBlend in="SourceGraphic" in2="effect1_dropShadow" result="shape"/>
        </filter>
    </defs>
</svg>
