<svg width="16" height="16" viewBox="0 0 16 16" fill="none" xmlns="http://www.w3.org/2000/svg">
<path fill-rule="evenodd" clip-rule="evenodd" d="M13.3334 3.33333V4.85333C13.7267 5.08667 14 5.50667 14 6V10C14 10.4933 13.7267 10.9133 13.3334 11.1467V12.6667C13.3334 13.4 12.7334 14 12 14H2.66671C1.92671 14 1.33337 13.4 1.33337 12.6667V3.33333C1.33337 2.6 1.92671 2 2.66671 2H12C12.7334 2 13.3334 2.6 13.3334 3.33333ZM8.00004 10H12.6667V6H8.00004V10ZM2.66671 12.6667V3.33333H12V4.66667H8.00004C7.26671 4.66667 6.66671 5.26667 6.66671 6V10C6.66671 10.7333 7.26671 11.3333 8.00004 11.3333H12V12.6667H2.66671ZM9.00004 8C9.00004 7.44772 9.44776 7 10 7C10.5523 7 11 7.44772 11 8C11 8.55228 10.5523 9 10 9C9.44776 9 9.00004 8.55228 9.00004 8Z" fill="#828295"/>
</svg>