<svg viewBox="0 0 54 49" fill="none" xmlns="http://www.w3.org/2000/svg">
    <g filter="url(#filter0_d)">
        <path d="M40.102 11.572H11.92c.316-.246.693-.41 1.109-.463l24.3-3.09c1.292-.166 2.465.814 2.62 2.19l.153 1.363z" fill="#8F81FF"/>
        <path d="M43.859 14.263v23.96c0 1.694-1.292 3.065-2.883 3.065h-29.93c-1.591 0-2.883-1.371-2.883-3.066v-23.96c0-1.694 1.292-3.065 2.883-3.065h29.93c1.591 0 2.883 1.371 2.883 3.066z" fill="#402FC8"/>
        <path opacity=".8" d="M38.788 38.107h-1.415c-.13 0-.235-.112-.235-.25s.105-.25.235-.25h1.415c.13 0 .235.112.235.25s-.105.25-.235.25zm-2.83 0h-1.415c-.13 0-.235-.112-.235-.25s.105-.25.235-.25h1.415c.13 0 .235.112.235.25s-.105.25-.235.25zm-2.83 0h-1.416c-.13 0-.235-.112-.235-.25s.106-.25.235-.25h1.415c.13 0 .235.112.235.25s-.105.25-.235.25zm-2.831 0h-1.415c-.13 0-.235-.112-.235-.25s.105-.25.235-.25h1.415c.13 0 .235.112.235.25s-.105.25-.235.25zm-2.83 0H26.05c-.13 0-.234-.112-.234-.25s.105-.25.234-.25h1.416c.13 0 .234.112.234.25s-.105.25-.235.25zm-2.83 0H23.22c-.13 0-.235-.112-.235-.25s.105-.25.235-.25h1.415c.13 0 .235.112.235.25s-.105.25-.235.25zm-2.831 0H20.39c-.13 0-.234-.112-.234-.25s.105-.25.235-.25h1.415c.13 0 .235.112.235.25s-.106.25-.235.25zm-2.83 0H17.56c-.13 0-.235-.112-.235-.25s.105-.25.235-.25h1.415c.13 0 .235.112.235.25s-.105.25-.235.25zm-2.831 0H14.73c-.13 0-.235-.112-.235-.25s.105-.25.235-.25h1.415c.13 0 .235.112.235.25s-.105.25-.235.25zm-2.83 0h-.144c-.486 0-.955-.188-1.319-.53a.26.26 0 01-.021-.352.225.225 0 01.332-.022c.278.26.636.404 1.008.404h.144c.13 0 .234.112.234.25s-.105.25-.235.25zm26.759-.526a.227.227 0 01-.169-.076.261.261 0 01.006-.353c.3-.309.466-.724.466-1.168 0-.138.105-.254.235-.254a.24.24 0 01.235.246v.008c0 .581-.217 1.124-.61 1.527a.227.227 0 01-.163.07zM11.411 36.32a.242.242 0 01-.234-.239 2.248 2.248 0 01-.002-.097v-1.419c0-.138.105-.25.234-.25.13 0 .235.112.235.25v1.419c0 .025 0 .05.002.075.006.138-.095.254-.224.26h-.01zm29.201-1.6a.241.241 0 01-.235-.249v-1.505c0-.138.106-.25.235-.25.13 0 .235.112.235.25v1.505c0 .138-.105.25-.235.25zM11.41 33.31c-.13 0-.234-.112-.234-.25v-1.505c0-.138.105-.25.234-.25.13 0 .235.112.235.25v1.505c0 .138-.105.25-.235.25zm29.203-1.599c-.13 0-.235-.112-.235-.25v-1.505c0-.137.106-.25.235-.25.13 0 .235.113.235.25v1.505c0 .138-.105.25-.235.25zM11.41 30.3c-.13 0-.234-.112-.234-.25v-1.505c0-.138.105-.25.234-.25.13 0 .235.112.235.25v1.505c0 .138-.105.25-.235.25zm29.202-1.6c-.13 0-.235-.112-.235-.25v-1.505c0-.138.106-.25.235-.25.13 0 .235.112.235.25v1.505c0 .138-.105.25-.235.25zM11.41 27.29c-.13 0-.234-.112-.234-.25v-1.505c0-.138.105-.25.234-.25.13 0 .235.112.235.25v1.505c0 .138-.105.25-.235.25zm29.203-1.599c-.13 0-.235-.112-.235-.25v-1.505c0-.137.106-.25.235-.25.13 0 .235.113.235.25v1.505c0 .138-.105.25-.235.25zM11.41 24.28c-.13 0-.234-.112-.234-.25v-1.505c0-.138.105-.25.234-.25.13 0 .235.112.235.25v1.505c0 .138-.105.25-.235.25zm29.203-1.599c-.13 0-.235-.112-.235-.25v-1.505c0-.137.106-.25.235-.25.13 0 .235.113.235.25v1.505c0 .138-.105.25-.235.25zM11.41 21.27c-.13 0-.234-.112-.234-.25v-1.505c0-.138.105-.25.234-.25.13 0 .235.112.235.25v1.505c0 .138-.105.25-.235.25zm29.203-1.599c-.13 0-.235-.112-.235-.25v-1.505c0-.137.106-.25.235-.25.13 0 .235.113.235.25v1.505c0 .138-.105.25-.235.25zM11.41 18.26c-.13 0-.234-.112-.234-.25v-1.505c0-.138.105-.25.234-.25.13 0 .235.112.235.25v1.505c0 .138-.105.25-.235.25zm29.201-1.599a.242.242 0 01-.234-.238 1.65 1.65 0 00-.519-1.142.261.261 0 01-.022-.353.225.225 0 01.332-.023c.411.384.652.915.678 1.495.006.138-.094.255-.224.261h-.01zm-28.665-1.255a.227.227 0 01-.168-.076.261.261 0 01.005-.353 1.926 1.926 0 011.388-.598h.06c.13 0 .235.112.235.25 0 .137-.105.25-.235.25h-.06a1.47 1.47 0 00-1.061.457.228.228 0 01-.164.07zm26.759-.528h-1.416c-.13 0-.234-.112-.234-.25 0-.137.105-.25.234-.25h1.416c.13 0 .234.113.234.25 0 .138-.105.25-.234.25zm-2.83 0h-1.416c-.13 0-.235-.112-.235-.25 0-.137.105-.25.235-.25h1.415c.13 0 .235.113.235.25 0 .138-.105.25-.235.25zm-2.831 0h-1.415c-.13 0-.235-.112-.235-.25 0-.137.105-.25.235-.25h1.415c.13 0 .235.113.235.25 0 .138-.106.25-.235.25zm-2.83 0h-1.416c-.13 0-.235-.112-.235-.25 0-.137.106-.25.235-.25h1.415c.13 0 .235.113.235.25 0 .138-.105.25-.235.25zm-2.831 0h-1.415c-.13 0-.235-.112-.235-.25 0-.137.105-.25.235-.25h1.415c.13 0 .235.113.235.25 0 .138-.105.25-.235.25zm-2.83 0h-1.416c-.13 0-.235-.112-.235-.25 0-.137.106-.25.235-.25h1.416c.13 0 .234.113.234.25 0 .138-.105.25-.235.25zm-2.83 0h-1.416c-.13 0-.235-.112-.235-.25 0-.137.105-.25.235-.25h1.415c.13 0 .235.113.235.25 0 .138-.105.25-.235.25zm-2.831 0h-1.415c-.13 0-.235-.112-.235-.25 0-.137.105-.25.235-.25h1.415c.13 0 .235.113.235.25 0 .138-.106.25-.235.25zm-2.83 0h-1.416c-.13 0-.235-.112-.235-.25 0-.137.105-.25.235-.25h1.415c.13 0 .235.113.235.25 0 .138-.105.25-.235.25z" fill="#8F81FF"/>
        <path d="M45.788 23.995v4.495c0 1.034-.788 1.873-1.761 1.873H37.82c-2.14 0-3.875-1.845-3.875-4.12 0-2.277 1.735-4.121 3.875-4.121h6.206c.973 0 1.761.839 1.761 1.873z" fill="#8F81FF"/>
        <path d="M38.114 28.94c1.4 0 2.536-1.208 2.536-2.697 0-1.49-1.136-2.697-2.536-2.697-1.4 0-2.536 1.207-2.536 2.697 0 1.489 1.135 2.696 2.536 2.696z" fill="#402FC8"/>
    </g>
    <defs>
        <filter id="filter0_d" x=".53" y=".367" width="52.89" height="48.553" filterUnits="userSpaceOnUse" color-interpolation-filters="sRGB">
            <feFlood flood-opacity="0" result="BackgroundImageFix"/>
            <feColorMatrix in="SourceAlpha" values="0 0 0 0 0 0 0 0 0 0 0 0 0 0 0 0 0 0 127 0" result="hardAlpha"/>
            <feOffset/>
            <feGaussianBlur stdDeviation="3.816"/>
            <feColorMatrix values="0 0 0 0 0.25098 0 0 0 0 0.184314 0 0 0 0 0.784314 0 0 0 0.6 0"/>
            <feBlend in2="BackgroundImageFix" result="effect1_dropShadow"/>
            <feBlend in="SourceGraphic" in2="effect1_dropShadow" result="shape"/>
        </filter>
    </defs>
</svg>
