<svg viewBox="0 0 38 32" fill="none" xmlns="http://www.w3.org/2000/svg">
    <path d="M37.026 4.916h-1.97V.788A.788.788 0 0034.27 0H3.246A3.254 3.254 0 000 3.246v25.508A3.254 3.254 0 003.246 32h33.78a.788.788 0 00.788-.788V5.704a.788.788 0 00-.788-.788zm-33.78-3.34H33.48v3.34H3.246a1.67 1.67 0 110-3.34zm0 28.848a1.67 1.67 0 01-1.67-1.67V6.011c.5.313 1.079.48 1.67.48h32.992v7.445H25.47a4.42 4.42 0 100 8.839h10.77v7.65H3.245zM36.238 21.2H25.47a2.844 2.844 0 110-5.687h10.77V21.2z" fill="#FFD75C"/>
</svg>
