<svg viewBox="0 0 16 16" fill="none" xmlns="http://www.w3.org/2000/svg">
    <path fill-rule="evenodd" clip-rule="evenodd" d="M13.333 3.333v1.52c.394.234.667.654.667 1.147v4c0 .493-.273.913-.667 1.147v1.52c0 .733-.6 1.333-1.333 1.333H2.667c-.74 0-1.334-.6-1.334-1.333V3.333C1.333 2.6 1.927 2 2.667 2H12c.733 0 1.333.6 1.333 1.333zM8 10h4.667V6H8v4zm-5.333 2.667V3.333H12v1.334H8c-.733 0-1.333.6-1.333 1.333v4c0 .733.6 1.333 1.333 1.333h4v1.334H2.667zM9 8a1 1 0 112 0 1 1 0 01-2 0z" fill="#828295"/>
</svg>
