<svg viewBox="0 0 300 300" fill="none" xmlns="http://www.w3.org/2000/svg">
    <path d="M150 300c82.843 0 150-67.157 150-150S232.843 0 150 0 0 67.157 0 150s67.157 150 150 150z" fill="#FFA14A"/>
    <path d="M42 115.581h44.738v12.502H56.525v15.893h24.79v11.92h-24.79v27.523H42v-67.838zm49.75 0h53.647v12.502h-19.561v55.336h-14.525v-55.336H91.75v-12.502zm69.673 45.742c.258 3.36 1.614 6.073 4.067 8.14 2.518 2.003 5.843 3.005 9.974 3.005 3.422 0 6.198-.711 8.328-2.132 2.195-1.486 3.293-3.521 3.293-6.106 0-1.809-.614-3.23-1.84-4.264-1.162-1.098-2.841-1.938-5.036-2.519-2.13-.646-5.455-1.422-9.974-2.326-4.454-.84-8.198-1.906-11.233-3.198-3.034-1.357-5.519-3.327-7.456-5.912-1.872-2.649-2.808-6.137-2.808-10.466 0-3.941 1.065-7.462 3.195-10.563 2.195-3.101 5.197-5.524 9.006-7.269 3.874-1.809 8.231-2.713 13.073-2.713 4.971 0 9.425.937 13.363 2.81 4.003 1.809 7.134 4.329 9.393 7.559 2.324 3.231 3.519 6.881 3.583 10.951h-14.235c-.322-2.907-1.549-5.233-3.679-6.977-2.131-1.809-4.939-2.714-8.425-2.714-3.228 0-5.81.679-7.747 2.035-1.937 1.357-2.905 3.295-2.905 5.815 0 1.809.581 3.23 1.743 4.264 1.162.969 2.808 1.777 4.939 2.423 2.13.581 5.422 1.292 9.877 2.132 4.519.84 8.328 1.906 11.426 3.198 3.099 1.227 5.585 3.133 7.457 5.717 1.937 2.52 2.905 5.912 2.905 10.176 0 4.135-1.13 7.85-3.389 11.145-2.26 3.23-5.423 5.782-9.49 7.656-4.003 1.873-8.522 2.81-13.557 2.81-5.423 0-10.265-.969-14.526-2.907-4.196-2.003-7.488-4.749-9.877-8.238-2.388-3.488-3.615-7.397-3.68-11.726l14.235.194zm48.999-45.742h45.513v12.502h-30.988v15.215h25.178v11.92h-25.178v15.699H257v12.502h-46.578v-67.838z" fill="#fff"/>
</svg>
