<svg viewBox="0 0 300 300" fill="none" xmlns="http://www.w3.org/2000/svg">
    <path d="M150 300c82.843 0 150-67.157 150-150S232.843 0 150 0 0 67.157 0 150s67.157 150 150 150z" fill="#FFA14A"/>
    <path d="M33 177v-54h10.416l22.747 34.02V123h11.335v54H67.005L44.26 142.98V177H33zm53.627-54h11.489v54h-11.49v-54zm20.568.077h11.489V147.3l21.445-24.223h13.939l-19.683 22.217L155.37 177h-13.786l-15.318-22.757-7.582 8.563V177h-11.489v-53.923zm52.281 0h11.489V147.3l21.445-24.223h13.939l-19.684 22.217L207.651 177h-13.786l-15.318-22.757-7.582 8.563V177h-11.489v-53.923zm52.281-.077h35.997v9.951h-24.508v12.112h19.913v9.488h-19.913v12.498h25.351V177h-36.84v-54zm43.755 0H267v54h-11.488v-54z" fill="#fff"/>
</svg>
