<svg xmlns="http://www.w3.org/2000/svg" width="40" height="40" viewBox="0 0 1024 1024">
    <path d="M292.28 0H552q190.79 27 306.24 122.88T1024 392v339.72c0 101.63-10.58 138.48-30.45 175.64a207.13 207.13 0 01-86.19 86.19c-37.16 19.87-74 30.45-175.64 30.45H292.28c-101.63 0-138.48-10.58-175.64-30.45a207.13 207.13 0 01-86.19-86.19C10.58 870.2 0 833.35 0 731.72V292.28C0 190.65 10.58 153.8 30.45 116.64a207.13 207.13 0 0186.19-86.19C153.8 10.58 190.65 0 292.28 0z" fill-rule="evenodd" fill="#2d65f8"/>
    <path d="M993.55 116.64a207.13 207.13 0 00-86.19-86.19C870.21 10.58 833.35 0 731.72 0H552q190.79 27 306.24 122.88T1024 392v-99.72c0-101.63-10.58-138.48-30.45-175.64z" fill="#173fff" fill-rule="evenodd"/>
    <path d="M591.8 382.71c0-97.43-48-181.13-84.48-208.41 0 0-2.78-1.53-2.59 2.3-3 188-100.19 239-153.65 307.63-123.27 158.45-8.6 332.23 108.14 364.18 65.35 18-15.06-31.95-25.4-136.86C421.21 584.73 591.8 487.81 591.8 382.71z" fill="#fcfcff"/>
    <path d="M643.64 445.69c-.78-.51-1.81-.9-2.53.32-2.07 23.74-26.56 74.42-57.67 121C478.07 725 538.08 801.1 571.91 842.18c19.44 23.74 0 0 49-24.25 60.52-36.26 99.8-98.95 105.62-168.62a242.5 242.5 0 00-82.89-203.62z" fill="#fff"/>
</svg>
