<svg width="24" height="24" viewBox="0 0 24 24" fill="none" xmlns="http://www.w3.org/2000/svg">
<path d="M21.8836 1.80005L13.3685 8.10005L14.943 4.38306L21.8836 1.80005Z" fill="#E2761B" stroke="#E2761B"/>
<path d="M2.22409 1.92554L10.7405 8.27244L9.23078 4.50337L2.22409 1.92554ZM18.9552 16.4995L16.6685 19.9536L21.561 21.2809L22.9674 16.576L18.9552 16.4995ZM1.31824 16.576L2.71604 21.2809L7.60854 19.9536L5.32183 16.4994L1.31824 16.576Z" fill="#E4761B" stroke="#E4761B"/>
<path d="M7.33231 10.663L5.96912 12.6964L10.8268 12.909L10.6543 7.76187L7.33231 10.663ZM16.936 10.663L13.5709 7.70215L13.4586 12.9088L18.308 12.6962L16.936 10.663ZM7.60848 19.9535L10.5249 18.5497L8.00526 16.61L7.60848 19.9535ZM13.7434 18.5497L16.6684 19.9535L16.263 16.61L13.7434 18.5497Z" fill="#E4761B" stroke="#E4761B"/>
<path d="M16.6396 19.9952L13.7333 18.6345L13.9649 20.457L13.9391 21.2238L16.6396 19.9952ZM7.6377 19.9952L10.3382 21.2238L10.321 20.4569L10.5354 18.6345L7.6377 19.9952Z" fill="#D7C1B3" stroke="#D7C1B3"/>
<path d="M10.0558 15.3L7.59045 14.5845L9.33032 13.8L10.0558 15.3ZM13.6314 15.3L14.3571 13.8L16.1055 14.5845L13.6314 15.3Z" fill="#233447" stroke="#233447"/>
<path d="M7.48555 19.9723L7.89698 16.5118L5.2135 16.5885L7.48555 19.9723ZM16.076 16.512L16.4874 19.9723L18.7595 16.5885L16.076 16.512ZM18.1165 12.7021L13.2981 12.9151L13.7439 15.3786L14.4556 13.8955L16.1702 14.6712L18.1165 12.7021ZM7.81118 14.671L9.52601 13.8953L10.2289 15.3784L10.6833 12.9151L5.85669 12.7021L7.81118 14.671Z" fill="#CD6116" stroke="#CD6116"/>
<path d="M5.9386 12.7012L7.96376 16.5837L7.89527 14.6509L5.9386 12.7012ZM16.2622 14.6509L16.1761 16.5837L18.2101 12.7012L16.2622 14.6509ZM10.7699 12.9121L10.315 15.3515L10.8816 18.2296L11.0103 14.44L10.7699 12.9121ZM13.3874 12.9121L13.1556 14.4314L13.2585 18.2296L13.8334 15.3515L13.3874 12.9121Z" fill="#E4751F" stroke="#E4751F"/>
<path d="M13.6341 15.4083L13.0489 18.3184L13.4682 18.5999L16.0183 16.6542L16.1055 14.7L13.6341 15.4083ZM7.59045 14.7L7.66034 16.6542L10.2108 18.5999L10.6299 18.3184L10.0533 15.4083L7.59045 14.7Z" fill="#F6851B" stroke="#F6851B"/>
<path d="M13.6727 21.3773L13.6987 20.58L13.4816 20.3915H10.2057L10.0059 20.58L10.0233 21.3773L7.28638 20.1001L8.24213 20.8715L10.1798 22.2001H13.5076L15.4539 20.8715L16.4097 20.1001L13.6727 21.3773Z" fill="#C0AD9E" stroke="#C0AD9E"/>
<path d="M13.4409 18.5728L13.0286 18.3H10.6503L10.238 18.5728L10.0233 20.4001L10.2208 20.218H13.4581L13.6726 20.3999L13.4409 18.5728Z" fill="#161616" stroke="#161616"/>
<path d="M22.2319 8.5733L22.9637 5.12657L21.8702 1.9248L13.5879 7.95663L16.7734 10.6009L21.2763 11.8933L22.2749 10.753L21.8445 10.4487L22.5334 9.83205L21.9996 9.42664L22.6883 8.91128L22.2319 8.5733ZM1.00928 5.12657L1.741 8.5733L1.27603 8.91128L1.96493 9.42647L1.43971 9.83205L2.12844 10.4487L1.69801 10.753L2.6882 11.8933L7.19092 10.6009L10.3764 7.95663L2.09391 1.9248L1.00928 5.12657Z" fill="#763D16" stroke="#763D16"/>
<path d="M21.2815 11.9799L16.7806 10.675L18.149 12.7135L16.1092 16.6368L18.7942 16.6026H22.7959L21.2815 11.9799ZM7.20233 10.675L2.70141 11.9799L1.2041 16.6026H5.19711L7.87349 16.6368L5.84256 12.7135L7.20233 10.675ZM13.3126 12.9266L13.5965 8.00546L14.9044 4.5H9.09554L10.3864 8.00546L10.6876 12.9266L10.791 14.479L10.7996 18.3H13.1833L13.2006 14.479L13.3126 12.9266Z" fill="#F6851B" stroke="#F6851B"/>
</svg>