<svg viewBox="0 0 26 40" xmlns="http://www.w3.org/2000/svg">
    <g fill="none">
        <path d="M.384 22.928l.939-.41 11.544-5.017 12.472 5.427-4.683 9.675-11.467 1.62-8.608-9.3z" fill="#133444"/>
        <path d="M22.746 16.955a12.826 12.826 0 00-8.174-4.522l-.204-.026a12.453 12.453 0 00-3.003 0l-.206.025a12.813 12.813 0 00-8.174 4.523l-.519.861-.863 1.434-.63 1.05c0 .025-.025.06-.035.084v.018l1.39.828 8.843 5.23 1.707 1.007V14.97l-1.707.769v-1.865l1.707-.769 1.705.77 8.678 3.95z" fill="#c42370"/>
        <path d="M25.723 26.032a13.782 13.782 0 01-5.042 10.574 12.859 12.859 0 01-4.06 2.253 11.97 11.97 0 01-3.741.596C5.767 39.455 0 33.132 0 26.032a13.21 13.21 0 01.384-3.114l12.473 7.38 12.474-7.38c.263 1.017.394 2.064.392 3.114z" fill="#1c4d6b"/>
        <path d="M11.365 12.416l1.502.675-1.708.775v-1.544zm-.205 3.328l1.707-.777v12.5l-1.708-1.008z" fill="#000"/>
        <path d="M12.867 14.967v12.5l11.953-7.065z" fill="#1d4259"/>
        <path d="M12.867.565v14.402l11.953 5.435z" fill="#4b6b9a"/>
        <path d="M12.867 14.967v12.496l-1.708-1.008L.93 20.402H.913h.025c0-.025.027-.06.035-.085l1.493-2.484 8.693-3.94v1.859z" fill="#343535"/>
        <path d="M12.867 14.967v12.5l-1.708-1.008L.921 20.411l-.008-.01.017-.017 10.23-4.64z" fill="#3e5578"/>
        <path d="M12.867.565v14.402L.913 20.402z" fill="#6db2d8"/>
        <path d="M8.028 38.43c.18.077.36.154.538.221-.179-.067-.357-.144-.538-.221zm.538.221zM9.59 39c.145.045.281.078.426.112-.137-.034-.281-.077-.425-.111z" fill="#335f8a"/>
        <path d="M.384 22.928l12.473 7.38c-.17 1.12-.47 2.217-.896 3.268-1.003 2.422-3.01 4.975-6.919 3.028A13.772 13.772 0 010 26.032c.007-1.046.136-2.088.384-3.104z" fill="#6db2d8"/>
        <path d="M20.673 36.604l-.034.027c-.068.05-.13.101-.193.153l-.017.016c-.067.06-.144.111-.213.163a2.32 2.32 0 01-.239.17 2.455 2.455 0 00-.238.17c-.077.06-.146.095-.213.146l-.045.025c-.075.052-.151.095-.22.145 0 0-.018 0-.026.017-.077.052-.153.094-.23.146-.077.052-.171.094-.256.144s-.171.094-.256.137h-.01l-.255.127c-.085.042-.171.086-.265.128-.094.043-.179.085-.264.12-.178.076-.36.153-.538.22a8.535 8.535 0 01-.554.193c-.072.027-.147.05-.223.07l-.246.076a9.327 9.327 0 01-.426.111c-.052.016-.112.025-.164.043l-.092.017-.23.05c-.078.017-.137.027-.214.042a1.45 1.45 0 01-.192.035c-.07.01-.146.027-.214.035-.034 0-.069 0-.102.017l-.163.017h-.085c-.059.01-.118.016-.178.017a1.676 1.676 0 01-.223.018h-.171c-.061 0-.102.01-.152.01h-.921c-.08.004-.16.004-.24 0h-.18c-.051 0-.101-.01-.153-.01h-.171a2.14 2.14 0 00-.221-.018c-.06 0-.12 0-.179-.017h-.086a.92.92 0 00-.162-.017.452.452 0 01-.102-.017 1.592 1.592 0 01-.213-.035c-.07 0-.129-.025-.192-.035a1.988 1.988 0 01-.214-.042c-.07-.017-.154-.033-.23-.05l-.095-.017a1.538 1.538 0 01-.177-.023c-.146-.035-.29-.077-.426-.112l-.256-.077c-.077-.025-.154-.042-.223-.069-.192-.06-.367-.127-.554-.192A6.837 6.837 0 018 38.457c-.085-.042-.179-.077-.265-.12l-.264-.128-.255-.127c-.085-.042-.17-.094-.256-.137-.086-.042-.171-.094-.256-.144a4.331 4.331 0 01-.23-.146l-.025-.017a1.922 1.922 0 01-.223-.144l-.043-.025a3.257 3.257 0 01-.213-.146c-.07-.052-.161-.11-.238-.171-.077-.062-.162-.11-.239-.17l-.213-.163-.017-.015c-.07-.052-.13-.104-.193-.154l-.034-.027c3.898 1.945 5.92-.613 6.92-3.02.426-1.05.728-2.148.898-3.268.17 1.124.47 2.224.896 3.277 1.011 2.378 3.026 4.939 6.924 2.992z" fill="#529bba"/>
        <path d="M15.708 39.112c.144-.034.29-.077.427-.111-.137.034-.283.077-.427.111zm.903-.263c.193-.06.367-.129.556-.192a8.59 8.59 0 01-.556.192zm.556-.198c.179-.067.357-.144.536-.221-.179.077-.357.154-.536.221z" fill="#335f8a"/>
        <path d="M25.723 26.032a13.782 13.782 0 01-5.042 10.574c-3.899 1.945-5.92-.616-6.92-3.02a14.527 14.527 0 01-.896-3.269l12.472-7.38c.256 1.012.386 2.052.386 3.095z" fill="#4b6b9a"/>
    </g>
</svg>
