<svg width="40" height="40" viewBox="0 0 88 88" xmlns="http://www.w3.org/2000/svg">
    <g transform="translate(.509 .557)" fill="none" fill-rule="evenodd">
        <circle fill="#313D53" cx="43.491" cy="43.491" r="43.491"/>
        <path d="M26.98 53.512v3.193a4 4 0 004 4h25.062a4 4 0 004-4V30.247a4 4 0 00-4-4H26.981v27.265zm-6.489-33.069h36c5.523 0 10 4.477 10 10v26.096c0 5.523-4.477 10-10 10h-26c-5.523 0-10-4.477-10-10V20.443zm13.481 5.804h6.447v23.265a4 4 0 01-4 4h-9.438V47.89h6.991V26.247zm0 0h6.447-6.447zm19.079 34.458h-6.447V37.441a4 4 0 014-4h9.438v5.622h-6.991v21.642zm-6.447 0h6.447-6.447zm13.438-21.642V33.44v5.623z" fill="#E8EEFF"/>
    </g>
</svg>
