<svg viewBox="0 0 109 109" fill="none" xmlns="http://www.w3.org/2000/svg">
    <path fill-rule="evenodd" clip-rule="evenodd" d="M54.7 0C24.7 0 .4 24.3.4 54.3c0 30 24.3 54.3 54.3 54.3 30 0 54.3-24.3 54.3-54.3C108.9 24.3 84.6 0 54.7 0zm-7.4 77.6c-6.9.4-13.9-3.6-14.2-10.1-.4-6.4 4.8-10.7 13.4-11.1 3.2-.2 5.8.1 8.3.3 2.6.3 5.2.5 8.3.3 1.5-.1 3.1-.3 4.7-.6-.8 11-9.2 20.6-20.5 21.2zm18-25.3c-3.4.2-6.1-.1-8.8-.4-2.7-.3-5.5-.6-8.8-.4-1.6.1-3.3.3-4.9.7 1-12 9.8-22.5 21.7-23.1 7.3-.4 14.6 4 15 11.1.4 7-5.1 11.6-14.2 12.1z" fill="#4360DF"/>
</svg>
