<svg height="40" width="40" xmlns="http://www.w3.org/2000/svg">
    <path d="M1.363 6.825C0 9.5 0 13 0 20s0 10.5 1.363 13.175a12.536 12.536 0 005.462 5.462C9.5 40 13 40 20 40s10.5 0 13.175-1.363a12.536 12.536 0 005.462-5.462C40 30.5 40 27 40 20s0-10.5-1.363-13.175a12.536 12.536 0 00-5.462-5.462C30.5 0 27 0 20 0S9.5 0 6.825 1.363a12.536 12.536 0 00-5.462 5.462zm28.618 3.962a1.305 1.305 0 011.3 1.319c-.062 3.725-.206 6.575-.475 8.831-.262 2.257-.656 3.932-1.25 5.288a8.37 8.37 0 01-1.475 2.294c-.781.844-1.675 1.456-2.65 2.037-.417.25-.85.496-1.305.754-.97.55-2.036 1.156-3.245 1.965a1.293 1.293 0 01-1.443 0c-1.228-.818-2.308-1.431-3.287-1.986l-.638-.364c-1.144-.662-2.175-1.294-3.075-2.206a7.841 7.841 0 01-1.532-2.2c-.562-1.163-.943-2.569-1.225-4.388-.375-2.431-.562-5.612-.631-10.025a1.304 1.304 0 01.369-.93c.244-.245.581-.389.931-.389h.538c1.656.007 5.312-.156 8.475-2.618a1.304 1.304 0 011.593 0c3.163 2.462 6.82 2.625 8.482 2.618zm-2.906 14.607c.406-.838.744-1.994 1-3.657.306-1.987.494-4.687.581-8.362-1.95-.056-5.3-.431-8.493-2.581-3.194 2.143-6.544 2.519-8.488 2.581.069 3.038.206 5.4.425 7.256.25 2.113.606 3.544 1.05 4.55a5.57 5.57 0 001.006 1.575c.52.57 1.175 1.038 2.07 1.575.37.223.779.454 1.223.706.793.449 1.7.962 2.714 1.607a58.107 58.107 0 012.672-1.588l.678-.387c1.1-.632 1.912-1.156 2.518-1.769a5.53 5.53 0 001.044-1.506z" fill="#3375bb" fill-rule="evenodd"/>
</svg>
