<svg fill="none" xmlns="http://www.w3.org/2000/svg" width="40" viewBox="0 0 38 33">
    <path fill-rule="evenodd" clip-rule="evenodd" d="M60.51 17.12V7.876h2.172v9.242c0 1.5-.507 2.732-1.522 3.697-.994.945-2.212 1.418-3.652 1.418-1.441 0-2.679-.473-3.693-1.418-.995-.965-1.502-2.197-1.502-3.697V7.877h2.192v9.242c0 .884.284 1.623.872 2.178a3.004 3.004 0 002.13.842c.833 0 1.523-.288 2.111-.842.588-.555.893-1.294.893-2.178zm7.094-.248v5.155h-2.09v-9.591h2.09v1.437c.508-1.047 1.766-1.643 2.902-1.643 2.293 0 3.612 1.5 3.612 4.21v5.587h-2.09v-5.34c0-1.5-.771-2.382-1.989-2.382-1.38 0-2.435.821-2.435 2.567zm11.404 5.155h-2.07v-9.591h2.07v9.591zM77.973 7.22c.791 0 1.38.575 1.38 1.334 0 .76-.588 1.335-1.38 1.335-.75 0-1.4-.596-1.4-1.335s.65-1.334 1.4-1.334zm12.439 14.81h-7.751V7.876h2.15v12.159h5.601v1.992zm31.667-5.157v5.155h-2.09v-9.591h2.09v1.437c.507-1.047 1.765-1.643 2.902-1.643 2.293 0 3.611 1.5 3.611 4.21v5.587h-2.09v-5.34c0-1.5-.771-2.382-1.988-2.382-1.38 0-2.435.821-2.435 2.567zM96.43 20.179c.812 0 1.502-.267 2.05-.822.547-.555.831-1.273.831-2.156 0-1.726-1.258-2.896-2.881-2.896-.791 0-1.481.267-2.03.8-.547.534-.831 1.233-.831 2.096 0 .883.284 1.601.832 2.156.548.555 1.238.822 2.029.822zm0-7.949c1.4 0 2.577.452 3.53 1.376.954.924 1.441 2.116 1.441 3.594 0 1.48-.487 2.691-1.46 3.636-.954.924-2.131 1.397-3.511 1.397-1.38 0-2.557-.473-3.51-1.397-.954-.945-1.421-2.157-1.421-3.636 0-1.478.467-2.67 1.42-3.594.954-.924 2.131-1.376 3.51-1.376zm20.982-3.677c0-.76-.589-1.334-1.38-1.334-.751 0-1.4.595-1.4 1.334 0 .74.649 1.335 1.4 1.335.791 0 1.38-.575 1.38-1.335zm-2.415 13.474h2.07v-9.591h-2.07v9.591zm-3.526-7.097c.06-.016.121-.034.181-.054.758-.253 1.216-.776 1.807-1.452.136-.155.279-.318.434-.488l-1.444-1.318c-.248.272-.438.495-.594.68-.354.417-.532.627-.821.723-.275.092-.602.108-1.128-.054-.747-.515-1.62-.768-2.619-.768-1.242 0-2.302.403-3.16 1.226-.859.824-1.279 1.886-1.279 3.204 0 .934.211 1.749.64 2.444l-.548.926-.004.008c-.665 1.176-.657 2.508.11 3.489.761.974 2.071 1.353 3.504 1.08 1.49-.283 2.601-.056 3.204.325.292.185.443.389.511.576.065.18.082.43-.044.771-.206.4-.796.882-2.045.984-1.246.101-2.958-.213-4.938-.915l-.779 1.637c2.165.939 4.208 1.362 5.876 1.226 1.665-.135 3.148-.866 3.719-2.41.265-.713.292-1.285.049-1.957-.24-.666-.714-1.19-1.303-1.563-1.156-.733-2.821-.936-4.616-.594-.912.174-1.4-.111-1.598-.364-.19-.243-.299-.697.048-1.315l.291-.493c.691.418 1.48.63 2.362.63 1.242 0 2.302-.421 3.161-1.245.876-.842 1.315-1.922 1.315-3.24 0-.623-.098-1.188-.292-1.698zm-2.444 3.607c-.462.473-1.045.7-1.73.7-.668 0-1.25-.227-1.713-.7-.463-.472-.702-1.085-.702-1.837 0-.735.239-1.33.702-1.785.463-.455 1.045-.683 1.713-.683 1.371 0 2.433.998 2.433 2.468 0 .752-.24 1.365-.703 1.837z" fill="#12083A"/>
    <path fill-rule="evenodd" clip-rule="evenodd" d="M0 0h4.414c4.937 0 8.938 3.95 8.938 8.824v6.994c0 2.34 1.921 4.236 4.29 4.236 2.37 0 4.291-1.897 4.291-4.236V8.824C21.933 3.951 25.935 0 30.871 0h4.489v15.545C35.36 25.185 27.444 33 17.68 33S0 25.185 0 15.545V0z" fill="url(#paint0_linear)"/>
    <path fill-rule="evenodd" clip-rule="evenodd" d="M0 0h4.414c4.937 0 8.938 3.95 8.938 8.824v6.994c0 2.34 1.921 4.236 4.29 4.236 2.37 0 4.291-1.897 4.291-4.236V8.824C21.933 3.951 25.935 0 30.871 0h4.489v15.545C35.36 25.185 27.444 33 17.68 33S0 25.185 0 15.545V0z" fill="url(#paint1_linear)"/>
    <path fill-rule="evenodd" clip-rule="evenodd" d="M0 0h4.414c4.937 0 8.938 3.95 8.938 8.824v6.994c0 2.34 1.921 4.236 4.29 4.236 2.37 0 4.291-1.897 4.291-4.236V8.824C21.933 3.951 25.935 0 30.871 0h4.489v15.545C35.36 25.185 27.444 33 17.68 33S0 25.185 0 15.545V0z" fill="url(#paint2_linear)"/>
    <path fill-rule="evenodd" clip-rule="evenodd" d="M0 0h4.414c4.937 0 8.938 3.95 8.938 8.824v6.994c0 2.34 1.921 4.236 4.29 4.236 2.37 0 4.291-1.897 4.291-4.236V8.824C21.933 3.951 25.935 0 30.871 0h4.489v15.545C35.36 25.185 27.444 33 17.68 33S0 25.185 0 15.545V0z" fill="url(#paint3_linear)"/>
    <path opacity=".974" fill-rule="evenodd" clip-rule="evenodd" d="M18.408 20.042l2.118.978 4.116-.371 1.87-.607 2.188-.773 2.457-2.069 2.015-1.007.933-2.704.333-2.255.503-1.62V6.938l.306-2.46V2.51c-.59 4.016-.938 4.98-1.501 6.128-.845 1.722-.845 1.757-1.986 3.309-1.14 1.552-1.771 2.295-3.523 3.698-1.751 1.403-2.437 1.805-4.39 2.605a22.47 22.47 0 01-4.035 1.224l-1.404.567z" fill="url(#paint4_linear)"/>
    <path fill-rule="evenodd" clip-rule="evenodd" d="M0 0h4.414c4.937 0 8.938 3.95 8.938 8.824v6.994c0 2.34 1.921 4.236 4.29 4.236 2.37 0 4.291-1.897 4.291-4.236V8.824C21.933 3.951 25.935 0 30.871 0h4.489v15.545C35.36 25.185 27.444 33 17.68 33S0 25.185 0 15.545V0z" fill="url(#paint5_linear)"/>
    <path fill-rule="evenodd" clip-rule="evenodd" d="M0 0h4.414c4.937 0 8.938 3.95 8.938 8.824v6.957c0 2.36 1.938 4.273 4.328 4.273 2.81 0 5.58-.65 8.09-1.896l.196-.097a17.137 17.137 0 006.526-5.668l.016-.022a15.464 15.464 0 002.695-8.156L35.36 0v15.545C35.36 25.185 27.444 33 17.68 33S0 25.185 0 15.545V0z" fill="url(#paint6_linear)"/>
    <path fill-rule="evenodd" clip-rule="evenodd" d="M0 0h4.414c4.937 0 8.938 3.95 8.938 8.824v6.957c0 2.36 1.938 4.273 4.328 4.273 2.81 0 5.58-.65 8.09-1.896l.196-.097a17.137 17.137 0 006.526-5.668l.016-.022a15.464 15.464 0 002.695-8.156L35.36 0v15.545C35.36 25.185 27.444 33 17.68 33S0 25.185 0 15.545V0z" fill="url(#paint7_linear)"/>
    <mask id="a" maskUnits="userSpaceOnUse" x="0" y="0" width="36" height="33">
        <path fill-rule="evenodd" clip-rule="evenodd" d="M0 0h4.414c4.937 0 8.938 3.95 8.938 8.824v6.957c0 2.36 1.938 4.273 4.328 4.273 2.81 0 5.58-.65 8.09-1.896l.196-.097a17.137 17.137 0 006.526-5.668l.016-.022a15.464 15.464 0 002.695-8.156L35.36 0v15.545C35.36 25.185 27.444 33 17.68 33S0 25.185 0 15.545V0z" fill="url(#paint8_linear)"/>
    </mask>
    <g mask="url(#a)">
        <path opacity=".5" fill-rule="evenodd" clip-rule="evenodd" d="M13.335 13.418l-.358 2.504-.49 4.222-1.344 1.488-.296 2.275.751 3.101-.005 2.23 2.016 2.048 1.884 1.316 1.234 1.178 2.415 1.215 2.082 1.387 1.774.893-1.438-.995a15.33 15.33 0 01-2.341-1.994l-.454-.473a4.755 4.755 0 00-1.423-1.018 2.197 2.197 0 01-1.126-1.202l-.203-.528a7.812 7.812 0 01-.52-2.802v-8.788l-.762-.598-.695-.785-.173-.3-.042-.084a6.196 6.196 0 01-.167-.37 3.846 3.846 0 01-.134-.384l-.006-.02a3.515 3.515 0 01-.097-.434l-.02-.126-.062-.512v-2.444z" fill="url(#paint9_linear)"/>
    </g>
    <path fill-rule="evenodd" clip-rule="evenodd" d="M0 0h4.414c4.937 0 8.938 3.95 8.938 8.824v6.957c0 2.36 1.938 4.273 4.328 4.273 2.81 0 5.58-.65 8.09-1.896l.196-.097a17.137 17.137 0 006.526-5.668l.016-.022a15.464 15.464 0 002.695-8.156L35.36 0v15.545C35.36 25.185 27.444 33 17.68 33S0 25.185 0 15.545V0z" fill="url(#paint10_linear)"/>
    <path fill-rule="evenodd" clip-rule="evenodd" d="M0 0h4.414c4.937 0 8.938 3.95 8.938 8.824v19.903c0 2.36 1.938 4.273 4.328 4.273C7.916 33 0 25.185 0 15.545V0z" fill="url(#paint11_linear)"/>
    <path fill-rule="evenodd" clip-rule="evenodd" d="M0 0h4.414c4.937 0 8.938 3.95 8.938 8.824v19.903c0 2.36 1.938 4.273 4.328 4.273C7.916 33 0 25.185 0 15.545V0z" fill="url(#paint12_linear)"/>
    <defs>
        <linearGradient id="paint0_linear" x1="17.68" y1="0" x2="17.68" y2="33" gradientUnits="userSpaceOnUse">
            <stop stop-color="#DEEDFF"/>
            <stop offset="1" stop-color="#B2D4FD"/>
        </linearGradient>
        <linearGradient id="paint1_linear" x1="32.004" y1="1.757" x2="30.976" y2="20.737" gradientUnits="userSpaceOnUse">
            <stop stop-color="#00D6D9"/>
            <stop offset="1" stop-color="#455CDA"/>
        </linearGradient>
        <linearGradient id="paint2_linear" x1="22.871" y1="1.757" x2="29.957" y2="11.997" gradientUnits="userSpaceOnUse">
            <stop stop-color="#00D6D9"/>
            <stop offset="1" stop-color="#04CFD9" stop-opacity="0"/>
        </linearGradient>
        <linearGradient id="paint3_linear" x1="22.931" y1="16.5" x2="25.236" y2="19.527" gradientUnits="userSpaceOnUse">
            <stop stop-color="#3F66DA" stop-opacity="0"/>
            <stop offset="1" stop-color="#2E2EAE"/>
        </linearGradient>
        <linearGradient id="paint4_linear" x1="24.894" y1="13.306" x2="27.177" y2="19.154" gradientUnits="userSpaceOnUse">
            <stop stop-color="#2D41B3" stop-opacity="0"/>
            <stop offset="1" stop-color="#141E62"/>
        </linearGradient>
        <linearGradient id="paint5_linear" x1="15.355" y1="7.892" x2="28.547" y2="23.092" gradientUnits="userSpaceOnUse">
            <stop stop-color="#3F66DA" stop-opacity="0"/>
            <stop offset="1" stop-color="#2436C1"/>
        </linearGradient>
        <linearGradient id="paint6_linear" x1="43.347" y1="40.591" x2="31.312" y2="9.343" gradientUnits="userSpaceOnUse">
            <stop stop-color="#706AE1"/>
            <stop offset="1" stop-color="#4352ED"/>
        </linearGradient>
        <linearGradient id="paint7_linear" x1="67.418" y1="1.757" x2="37.886" y2="38.738" gradientUnits="userSpaceOnUse">
            <stop stop-color="#00D6D9"/>
            <stop offset="1" stop-color="#0FC4DD" stop-opacity="0"/>
        </linearGradient>
        <linearGradient id="paint8_linear" x1="24.744" y1="23.272" x2="14.191" y2="30.386" gradientUnits="userSpaceOnUse">
            <stop stop-color="#3F4DDA" stop-opacity="0"/>
            <stop offset="1" stop-color="#2736A4"/>
        </linearGradient>
        <linearGradient id="paint9_linear" x1="19.195" y1="23.354" x2="13.062" y2="23.383" gradientUnits="userSpaceOnUse">
            <stop stop-color="#2D41B3" stop-opacity="0"/>
            <stop offset="1" stop-color="#141E62"/>
        </linearGradient>
        <linearGradient id="paint10_linear" x1="24.744" y1="23.272" x2="14.191" y2="30.386" gradientUnits="userSpaceOnUse">
            <stop stop-color="#3F4DDA" stop-opacity="0"/>
            <stop offset="1" stop-color="#2736A4"/>
        </linearGradient>
        <linearGradient id="paint11_linear" x1="6.799" y1="0" x2="17.005" y2="23.042" gradientUnits="userSpaceOnUse">
            <stop stop-color="#00D6D9"/>
            <stop offset="1" stop-color="#5272EE"/>
        </linearGradient>
        <linearGradient id="paint12_linear" x1="4.917" y1="8.006" x2="12.821" y2="20.205" gradientUnits="userSpaceOnUse">
            <stop stop-color="#00D6D9"/>
            <stop offset="1" stop-color="#0FC4DD" stop-opacity="0"/>
        </linearGradient>
    </defs>
</svg>
