<svg width="40" height="40" viewBox="0 0 1025 1024" xmlns="http://www.w3.org/2000/svg">
    <defs>
        <linearGradient x1="0%" y1="100%" x2="100%" y2="0%" id="a">
            <stop stop-color="#1550FF" offset="0%"/>
            <stop stop-color="#0D8DFF" offset="100%"/>
        </linearGradient>
    </defs>
    <g fill="none" fill-rule="evenodd">
        <rect fill="url(#a)" width="1024" height="1024" rx="192"/>
        <g fill="#FFF" fill-rule="nonzero">
            <path d="M873.739 511.885l-78.081 82.858c-10.617 11.266-28.357 11.793-39.623 1.176a28.03 28.03 0 01-3.25-3.648l-81.649-109.54c-8.13-10.906-7.255-26.075 2.074-35.975l78.081-82.857c10.617-11.267 28.357-11.793 39.624-1.176a28.03 28.03 0 013.25 3.648l81.648 109.54c8.13 10.906 7.255 26.075-2.074 35.974z"/>
            <path d="M728.491 666.368l-78.08 82.857c-10.618 11.267-28.358 11.793-39.624 1.176a28.03 28.03 0 01-3.25-3.648L410.22 482.033c-8.13-10.907-7.255-26.076 2.074-35.975l78.081-82.858c10.617-11.266 28.357-11.793 39.624-1.176a28.03 28.03 0 013.25 3.648l197.316 264.72c8.13 10.907 7.255 26.076-2.074 35.976z" opacity=".75"/>
            <path d="M728.346 666.173l-78.081 82.857c-10.617 11.267-28.357 11.793-39.623 1.176a28.03 28.03 0 01-3.25-3.648l-95.705-128.397 117.121-124.286L730.42 630.198c8.13 10.906 7.255 26.075-2.074 35.975z"/>
            <path d="M270.683 365.94L468 630.66c8.13 10.907 7.255 26.076-2.075 35.976l-78.08 82.857c-10.618 11.267-28.358 11.793-39.624 1.176a28.03 28.03 0 01-3.25-3.648l-197.317-264.72c-8.13-10.907-7.255-26.076 2.075-35.976l78.08-82.857c10.618-11.267 28.358-11.793 39.624-1.176a28.03 28.03 0 013.25 3.648z" opacity=".5"/>
            <path d="M366.569 494.58L468.18 630.903c8.13 10.907 7.255 26.076-2.074 35.976l-78.081 82.857c-10.617 11.267-28.357 11.793-39.624 1.176a28.03 28.03 0 01-3.25-3.648l-95.705-128.397L366.57 494.58z" opacity=".5"/>
        </g>
    </g>
</svg>
