<svg height="25" width="40" xmlns="http://www.w3.org/2000/svg">
    <path d="M8.192 4.834c6.521-6.385 17.095-6.385 23.616 0l.785.769a.805.805 0 010 1.156l-2.685 2.628a.424.424 0 01-.59 0l-1.08-1.057c-4.55-4.454-11.926-4.454-16.476 0l-1.156 1.132a.424.424 0 01-.59 0L7.33 6.834a.805.805 0 010-1.156zm29.169 5.437l2.39 2.34a.805.805 0 010 1.155l-10.775 10.55a.848.848 0 01-1.181 0l-7.647-7.487a.212.212 0 00-.296 0l-7.647 7.487a.848.848 0 01-1.18 0L.25 13.766a.805.805 0 010-1.156l2.39-2.34a.848.848 0 011.18 0l7.647 7.488c.082.08.214.08.296 0l7.646-7.487a.848.848 0 011.181 0l7.648 7.487c.081.08.213.08.295 0l7.647-7.487a.848.848 0 011.18 0z" fill="#3b99fc"/>
</svg>
