<svg viewBox="0 0 300 300" fill="none" xmlns="http://www.w3.org/2000/svg">
    <path d="M150 300c82.843 0 150-67.157 150-150S232.843 0 150 0 0 67.157 0 150s67.157 150 150 150z" fill="#F4C14D"/>
    <path d="M45 149.5c0-5.711 1.114-10.701 3.343-14.971 2.228-4.323 5.411-7.658 9.55-10.007 4.191-2.348 9.1-3.522 14.723-3.522 4.404 0 8.357.854 11.859 2.562 3.502 1.708 6.314 4.109 8.436 7.205 2.175 3.095 3.502 6.645 3.98 10.647H85.11c-.742-3.149-2.228-5.63-4.456-7.445-2.229-1.868-5.014-2.802-8.357-2.802-3.077 0-5.757.774-8.038 2.322-2.282 1.548-4.033 3.709-5.253 6.484-1.22 2.776-1.83 5.951-1.83 9.527 0 5.497 1.326 9.927 3.979 13.289 2.706 3.363 6.42 5.044 11.142 5.044 3.449 0 6.5-.934 9.153-2.802 2.652-1.921 4.244-4.723 4.775-8.406v-.721H72.378v-9.526h24.91v31.142h-8.277l-1.273-6.965c-1.645 2.188-3.847 3.976-6.606 5.364-2.759 1.387-5.969 2.081-9.63 2.081-5.252 0-9.895-1.174-13.927-3.522-3.98-2.349-7.084-5.684-9.312-10.007C46.088 160.147 45 155.157 45 149.5zm114.845 0c0 5.39-1.168 10.274-3.502 14.65-2.335 4.323-5.598 7.712-9.789 10.167-4.192 2.455-8.967 3.683-14.326 3.683-5.358 0-10.134-1.228-14.325-3.683-4.192-2.455-7.455-5.844-9.789-10.167-2.335-4.376-3.502-9.26-3.502-14.65 0-5.39 1.167-10.247 3.502-14.57 2.334-4.377 5.597-7.792 9.789-10.247 4.191-2.455 8.967-3.683 14.325-3.683 5.359 0 10.134 1.228 14.326 3.683 4.191 2.455 7.454 5.87 9.789 10.247 2.334 4.323 3.502 9.18 3.502 14.57zm-43.056 0c0 3.522.636 6.671 1.91 9.447 1.273 2.775 3.077 4.963 5.412 6.564 2.334 1.548 5.04 2.322 8.117 2.322 3.025 0 5.704-.774 8.039-2.322 2.334-1.601 4.138-3.789 5.411-6.564 1.274-2.776 1.91-5.925 1.91-9.447 0-3.522-.636-6.671-1.91-9.447-1.273-2.775-3.077-4.936-5.411-6.484-2.335-1.601-5.014-2.402-8.039-2.402-3.077 0-5.783.801-8.117 2.402-2.335 1.548-4.139 3.709-5.412 6.484-1.274 2.776-1.91 5.925-1.91 9.447zm50.285 28.02v-56.04h11.938v45.712h22.125v10.328h-34.063zm40.493-56.04h19.339c5.571 0 10.479 1.201 14.724 3.603 4.297 2.348 7.587 5.657 9.868 9.927 2.335 4.216 3.502 9.046 3.502 14.49 0 5.444-1.167 10.301-3.502 14.57-2.281 4.217-5.571 7.526-9.868 9.927-4.245 2.349-9.153 3.523-14.724 3.523h-19.339v-56.04zm19.339 46.033c5.041 0 8.94-1.628 11.699-4.884 2.812-3.309 4.218-7.685 4.218-13.129s-1.406-9.794-4.218-13.049c-2.759-3.309-6.658-4.964-11.699-4.964h-7.401v36.026h7.401z" fill="#fff"/>
</svg>
