<svg viewBox="0 0 300 300" fill="none" xmlns="http://www.w3.org/2000/svg">
    <path d="M150 300c82.843 0 150-67.157 150-150S232.843 0 150 0 0 67.157 0 150s67.157 150 150 150z" fill="#F4C14D"/>
    <path d="M46.779 158.91c.195 2.532 1.222 4.577 3.08 6.135 1.906 1.509 4.423 2.264 7.552 2.264 2.59 0 4.693-.536 6.306-1.607 1.662-1.12 2.493-2.653 2.493-4.601 0-1.363-.464-2.434-1.393-3.213-.88-.828-2.151-1.461-3.813-1.899-1.613-.487-4.13-1.071-7.553-1.753-3.373-.633-6.208-1.436-8.505-2.41-2.298-1.023-4.18-2.508-5.646-4.455-1.418-1.996-2.127-4.626-2.127-7.888 0-2.97.807-5.623 2.42-7.961 1.662-2.337 3.935-4.162 6.82-5.477 2.932-1.363 6.232-2.045 9.898-2.045 3.764 0 7.137.706 10.119 2.118 3.03 1.363 5.401 3.262 7.112 5.697 1.76 2.434 2.665 5.185 2.713 8.252H65.477c-.245-2.191-1.174-3.943-2.787-5.258-1.613-1.363-3.74-2.045-6.379-2.045-2.444 0-4.4.511-5.866 1.534-1.467 1.022-2.2 2.483-2.2 4.382 0 1.363.44 2.434 1.32 3.213.88.731 2.127 1.339 3.74 1.826 1.613.438 4.106.974 7.479 1.607 3.422.633 6.306 1.436 8.652 2.41 2.346.925 4.228 2.361 5.646 4.309 1.467 1.899 2.2 4.455 2.2 7.668 0 3.117-.856 5.916-2.566 8.399-1.711 2.435-4.107 4.358-7.186 5.77-3.031 1.412-6.453 2.118-10.266 2.118-4.106 0-7.772-.73-10.998-2.191-3.178-1.509-5.671-3.579-7.48-6.208-1.808-2.629-2.737-5.575-2.786-8.837l10.779.146zm37.102-34.472H94.88v51.124h-11v-51.124zm19.692 51.124v-51.124h10.999v41.702h20.384v9.422h-31.383zm24.1-51.124h11.658l12.319 37.832 12.612-37.832h11.365l-17.378 51.124h-13.125l-17.451-51.124zm52.375 0h34.463v9.422h-23.464v11.466h19.065v8.983h-19.065v11.831h24.271v9.422h-35.27v-51.124zm62.788 0c3.715 0 6.99.706 9.825 2.118 2.884 1.363 5.109 3.335 6.673 5.916 1.564 2.58 2.346 5.575 2.346 8.983 0 3.262-.782 6.159-2.346 8.691-1.564 2.483-3.715 4.382-6.453 5.697L263 175.562h-12.172l-8.579-17.163h-9.312v17.163h-10.999v-51.124h20.898zm-9.899 24.832h9.019c2.591 0 4.644-.706 6.159-2.118 1.564-1.412 2.346-3.311 2.346-5.697 0-2.434-.782-4.358-2.346-5.77-1.515-1.412-3.568-2.118-6.159-2.118h-9.019v15.703z" fill="#fff"/>
</svg>
