<svg viewBox="0 0 300 300" fill="none" xmlns="http://www.w3.org/2000/svg">
    <path d="M150 300c82.843 0 150-67.157 150-150S232.843 0 150 0 0 67.157 0 150s67.157 150 150 150z" fill="#B2A1FB"/>
    <path d="M51 150c0-7.414 1.414-13.892 4.243-19.435 2.898-5.613 7.004-9.943 12.316-12.992C72.942 114.524 79.255 113 86.5 113c5.658 0 10.73 1.109 15.215 3.326 4.484 2.217 8.107 5.335 10.867 9.354 2.76 4.019 4.416 8.661 4.968 13.927h-15.525c-.897-4.158-2.794-7.414-5.692-9.77-2.83-2.425-6.383-3.638-10.66-3.638-5.796 0-10.385 2.183-13.766 6.548-3.38 4.365-5.071 10.116-5.071 17.253 0 7.067 1.69 12.818 5.071 17.253 3.381 4.365 7.97 6.548 13.765 6.548 4.278 0 7.832-1.178 10.66-3.534 2.899-2.425 4.796-5.716 5.693-9.874h15.525c-.552 5.266-2.208 9.908-4.968 13.927s-6.383 7.137-10.867 9.354C97.229 185.891 92.157 187 86.499 187c-7.244 0-13.558-1.524-18.94-4.573-5.312-3.049-9.418-7.345-12.316-12.888C52.414 163.927 51 157.414 51 150zm75.568-36.376h48.644v13.407h-33.119v16.317h26.909v12.784h-26.909v16.837h34.257v13.407h-49.782v-72.752zm78.17 35.648l-22.562-35.648h18.836l14.283 22.865 14.593-22.865h16.974l-22.563 35.648L248 186.376h-18.94l-15.421-24.424-15.732 24.424h-16.87l23.701-37.104z" fill="#fff"/>
</svg>
