<svg viewBox="0 0 300 300" fill="none" xmlns="http://www.w3.org/2000/svg">
    <path d="M150 300c82.843 0 150-67.157 150-150S232.843 0 150 0 0 67.157 0 150s67.157 150 150 150z" fill="#B2A1FB"/>
    <path d="M49 113h25.124c7.238 0 13.614 1.564 19.128 4.693 5.583 3.059 9.857 7.369 12.821 12.931 3.033 5.493 4.549 11.785 4.549 18.876 0 7.091-1.516 13.418-4.549 18.98-2.964 5.492-7.238 9.803-12.82 12.931C87.737 184.47 81.361 186 74.123 186H49v-73zm25.124 59.964c6.549 0 11.615-2.12 15.2-6.361 3.653-4.311 5.48-10.012 5.48-17.103 0-7.091-1.828-12.758-5.48-16.999-3.585-4.31-8.651-6.465-15.2-6.465H64.51v46.928h9.615zM120.184 113h48.594v13.453h-33.085v16.373h26.882v12.827h-26.882v16.894h34.223V186h-49.732v-73zm59.067 0h47.767v13.453H194.76v17.103h26.468v12.827H194.76V186h-15.509v-73zm56.24 0H251v73h-15.509v-73z" fill="#fff"/>
</svg>
