<svg width="154" height="115" fill="none" xmlns="http://www.w3.org/2000/svg">
    <g filter="url(#a)">
        <mask id="b" fill="#fff">
            <path fill-rule="evenodd" clip-rule="evenodd" d="m117.335 64.772 1.598-1.203-1.602-2.129-1.597 2.133 1.601 1.199Zm0 0 1.599-1.203v.001l.002.003.007.008.023.032.088.117.321.44a87.562 87.562 0 0 1 4.554 7.007c1.245 2.14 2.512 4.56 3.473 6.962.948 2.371 1.663 4.882 1.663 7.157v.028c-.091 6.464-5.289 11.702-11.73 11.702a11.7 11.7 0 0 1-11.73-11.73c0-2.258.717-4.76 1.664-7.126.961-2.398 2.228-4.82 3.472-6.962a89.149 89.149 0 0 1 4.873-7.472l.087-.118.024-.032.006-.009.002-.002.001-.001 1.601 1.198Zm0 0s.48.637 1.227 1.712c2.615 3.765 8.503 12.898 8.503 18.812-.076 5.397-4.408 9.73-9.73 9.73a9.7 9.7 0 0 1-9.73-9.73c0-5.858 5.895-15.03 8.508-18.81a61.991 61.991 0 0 1 1.222-1.714Zm0-32.915s.456.606 1.236 1.694C123.164 39.965 139 63.126 139 77.618c0 11.935-9.73 21.665-21.665 21.665-11.934 0-21.664-9.73-21.664-21.665 0-14.43 15.84-37.64 20.431-44.066.778-1.089 1.233-1.695 1.233-1.695Zm-1.734 5.905c.659-.964 1.246-1.803 1.736-2.496a188.524 188.524 0 0 1 9.101 14.12c2.68 4.612 5.337 9.71 7.32 14.672 1.995 4.995 3.242 9.697 3.242 13.56 0 10.83-8.835 19.665-19.665 19.665-10.83 0-19.664-8.835-19.664-19.665 0-3.843 1.247-8.535 3.242-13.527 1.982-4.96 4.64-10.06 7.32-14.678a191.03 191.03 0 0 1 7.368-11.65Zm-3.076 48.45c0-3.617 4.816-9.807 4.816-9.807s4.816 6.174 4.816 9.806c0 2.558-2.163 4.643-4.816 4.643s-4.816-2.085-4.816-4.643Z"/>
        </mask>
        <path fill-rule="evenodd" clip-rule="evenodd" d="m117.335 64.772 1.598-1.203-1.602-2.129-1.597 2.133 1.601 1.199Zm0 0 1.599-1.203v.001l.002.003.007.008.023.032.088.117.321.44a87.562 87.562 0 0 1 4.554 7.007c1.245 2.14 2.512 4.56 3.473 6.962.948 2.371 1.663 4.882 1.663 7.157v.028c-.091 6.464-5.289 11.702-11.73 11.702a11.7 11.7 0 0 1-11.73-11.73c0-2.258.717-4.76 1.664-7.126.961-2.398 2.228-4.82 3.472-6.962a89.149 89.149 0 0 1 4.873-7.472l.087-.118.024-.032.006-.009.002-.002.001-.001 1.601 1.198Zm0 0s.48.637 1.227 1.712c2.615 3.765 8.503 12.898 8.503 18.812-.076 5.397-4.408 9.73-9.73 9.73a9.7 9.7 0 0 1-9.73-9.73c0-5.858 5.895-15.03 8.508-18.81a61.991 61.991 0 0 1 1.222-1.714Zm0-32.915s.456.606 1.236 1.694C123.164 39.965 139 63.126 139 77.618c0 11.935-9.73 21.665-21.665 21.665-11.934 0-21.664-9.73-21.664-21.665 0-14.43 15.84-37.64 20.431-44.066.778-1.089 1.233-1.695 1.233-1.695Zm-1.734 5.905c.659-.964 1.246-1.803 1.736-2.496a188.524 188.524 0 0 1 9.101 14.12c2.68 4.612 5.337 9.71 7.32 14.672 1.995 4.995 3.242 9.697 3.242 13.56 0 10.83-8.835 19.665-19.665 19.665-10.83 0-19.664-8.835-19.664-19.665 0-3.843 1.247-8.535 3.242-13.527 1.982-4.96 4.64-10.06 7.32-14.678a191.03 191.03 0 0 1 7.368-11.65Zm-3.076 48.45c0-3.617 4.816-9.807 4.816-9.807s4.816 6.174 4.816 9.806c0 2.558-2.163 4.643-4.816 4.643s-4.816-2.085-4.816-4.643Z" fill="#FC8738"/>
        <path d="m118.933 63.569 12.03 15.977 15.978-12.03-12.03-15.978-15.978 12.03Zm-1.602-2.129 15.977-12.03-16.024-21.282-15.965 21.327 16.012 11.985Zm-1.597 2.133L99.723 51.588 87.738 67.6l16.011 11.985 11.985-16.01Zm3.2-.004 15.995-12.005-.015-.02-.015-.02-15.965 12.045Zm0 .001-15.996 12.006.007.009.007.009 15.982-12.024Zm.002.003 15.999-12.001-.008-.012-.009-.011-15.982 12.024Zm.007.008 16.019-11.974-.01-.013-.01-.014-15.999 12.002Zm.023.032 16.032-11.957-.006-.009-.006-.008-16.02 11.974Zm.088.117 16.088-11.88-16.088 11.88Zm.321.44 16.21-11.713-16.21 11.713Zm1.13 1.608L137 54.468l-16.495 11.31Zm3.424 5.4 17.287-10.058-17.287 10.057Zm3.473 6.961-18.569 7.428 18.569-7.428Zm1.663 7.171 19.998.282.002-.141v-.141h-20Zm0 .014-19.998-.282 19.998.282Zm-21.796-7.154 18.566 7.438-18.566-7.438Zm3.472-6.962 17.297 10.04-17.297-10.04Zm3.422-5.415 16.518 11.276-16.518-11.276Zm1.13-1.616 16.24 11.674-16.24-11.674Zm.321-.441-16.12-11.839 16.12 11.839Zm.087-.118L99.649 51.687l-.006.009-.007.009 16.065 11.913Zm.024-.032L99.692 51.63l-.01.012-.01.013 16.053 11.931Zm.006-.009-16.022-11.97-.005.007-.005.007 16.032 11.956Zm.002-.002-16.008-11.99-.007.01-.007.009 16.022 11.97Zm.001-.001 16.008 11.989.008-.01.007-.01-16.023-11.97Zm2.828 2.91 16.426-11.41-16.426 11.41Zm8.503 18.812 19.998.282.002-.141v-.141h-20Zm-10.952-18.81-16.45-11.375 16.45 11.375Zm2.458-32.935-16.26 11.646 16.26-11.646Zm-1.236-1.694 15.985-12.02L117.314-1.45l-15.979 21.306 16 12Zm-1.233 1.695L99.83 21.924l16.272 11.628Zm1.235 1.714 16.31-11.575L117.32.686l-16.304 23.021 16.321 11.56Zm-1.736 2.496 16.512 11.285-16.512-11.285Zm3.469-.009-16.501 11.3 16.501-11.3Zm7.368 11.632-17.292 10.048 17.292-10.048Zm7.32 14.673-18.574 7.42 18.574-7.42Zm-32.845.033-18.571-7.423 18.571 7.423Zm7.32-14.678 17.297 10.04-17.297-10.04Zm9.108 26.992 15.769-12.302-15.79-20.24-15.764 20.26 15.785 12.282Zm-10.438-28.814-1.598 1.203 24.06 31.955 1.598-1.203-24.06-31.955Zm-5.55 25.88 1.603 2.128 31.955-24.06-1.603-2.129-31.955 24.06Zm30.392 2.087 1.597-2.133-32.023-23.97-1.596 2.133 32.022 23.97ZM129.32 48.76l-1.601-1.198-23.97 32.022 1.601 1.199 23.97-32.023Zm.045 31.989 1.39-1.046.106-.08.033-.024-.025.018a7.719 7.719 0 0 1-.26.19 20.499 20.499 0 0 1-1.116.747c-.21.13-.941.585-1.935 1.06a19.995 19.995 0 0 1-20.358-1.849c-2.806-2.032-4.492-4.495-4.232-4.15l31.931-24.092c.26.345-1.426-2.117-4.232-4.15a19.998 19.998 0 0 0-20.358-1.849c-.994.475-1.725.93-1.936 1.06-.306.19-.543.35-.657.427-.233.158-.412.287-.461.322l-.16.116-.172.128-.211.158-1.407 1.06 24.06 31.954Zm-26.427-5.174 31.992-24.01-.001-.001-31.991 24.01Zm.014.019.002.003 31.964-24.048-.002-.003-31.964 24.048Zm-.015-.02.007.009 31.998-24.003-.007-.008-31.998 24.002Zm-.013-.018.023.032 32.039-23.95-.024-.03-32.038 23.948Zm.011.014.03.042 32.177-23.763a29.284 29.284 0 0 0-.144-.193L102.935 75.57Zm.03.041.199.273 32.421-23.427a57.961 57.961 0 0 0-.443-.607l-32.177 23.76Zm.199.273c.19.263.484.676.847 1.205L137 54.468a99.5 99.5 0 0 0-1.415-2.011l-32.421 23.427Zm.847 1.205a68.093 68.093 0 0 1 2.631 4.146l34.574-20.115A107.661 107.661 0 0 0 137 54.468l-32.989 22.621Zm2.631 4.146c.962 1.653 1.719 3.153 2.191 4.332l37.139-14.855c-1.451-3.627-3.228-6.967-4.756-9.593l-34.574 20.116Zm2.191 4.332c.108.271.188.493.246.666.057.174.083.272.09.298.006.028-.016-.056-.042-.242a7.376 7.376 0 0 1-.062-.993h40c0-6.02-1.782-11.306-3.093-14.585l-37.139 14.856Zm.232-.271v.014h40v-.014h-40Zm.002-.268v.014l39.996.564v-.014l-39.996-.564Zm0 .014c.059-4.192 3.498-8.016 8.268-8.016v40c17.653 0 31.487-14.299 31.728-31.42l-39.996-.563Zm8.268-8.016c4.544 0 8.27 3.726 8.27 8.27h-40c0 17.547 14.183 31.73 31.73 31.73v-40Zm8.27 8.27c0 .483-.037.832-.064 1.022-.026.192-.05.281-.044.255.006-.024.032-.122.09-.297.058-.173.138-.395.248-.668L88.704 70.732c-1.302 3.25-3.099 8.54-3.099 14.564h40Zm.23.312c.475-1.185 1.236-2.695 2.203-4.36L93.444 61.167c-1.522 2.622-3.294 5.955-4.74 9.566l37.131 14.875Zm2.203-4.36a69.093 69.093 0 0 1 2.643-4.18L97.645 54.517a109.14 109.14 0 0 0-4.201 6.65l34.594 20.082Zm2.643-4.18c.365-.533.661-.95.852-1.217l-32.48-23.347c-.357.497-.84 1.18-1.408 2.012l33.036 22.553Zm.852-1.217.201-.277-32.24-23.676c-.113.153-.261.357-.44.606l32.479 23.347Zm.201-.277.032-.043-32.13-23.826-.142.192 32.24 23.677Zm.019-.025.023-.032-32.103-23.862-.024.032 32.104 23.862Zm.004-.007.007-.008L99.698 51.62l-.006.009 32.065 23.912Zm-.004.006.002-.003-32.044-23.941-.002.003 32.044 23.94Zm-.012.015h.001L99.726 51.585h-.001l32.016 23.978Zm.016-.02s-.116.154-.234.307c-.12.152-.486.6-.737.893a20 20 0 0 1-26.231 3.415c-.231-.156-.407-.282-.455-.316l-.155-.112a17.067 17.067 0 0 1-.094-.069l.107.08 1.392 1.042 23.97-32.023-1.409-1.054-.212-.158a17.028 17.028 0 0 0-.785-.558 19.83 19.83 0 0 0-2.573-1.47c-.098-.046-4.006-2.124-9.323-1.934a20.001 20.001 0 0 0-14.337 6.819c-.251.292-.617.74-.736.892-.118.153-.234.308-.234.308l32.046 23.938Zm3.231-20.47a96.665 96.665 0 0 0-1.137-1.601l-.353-.482-.115-.155a2.139 2.139 0 0 0-.041-.054l-.016-.022-.007-.01-.003-.003-.002-.003c-.001 0-.001-.001-15.979 12.029-15.977 12.03-15.977 12.03-15.978 12.029l-.001-.001-.001-.002-.003-.004a.023.023 0 0 0-.005-.006l-.007-.01-.008-.011.014.02a50.64 50.64 0 0 1 .79 1.107l32.852-22.82Zm12.077 30.223c0-8.14-3.562-15.625-5.49-19.369-2.366-4.594-5.039-8.625-6.587-10.853l-32.852 22.82c1.067 1.536 2.646 3.955 3.878 6.347.612 1.189.975 2.058 1.152 2.579.232.683-.101.041-.101-1.524h40Zm-29.73 29.73c16.52 0 29.502-13.381 29.728-29.448l-39.996-.564c.075-5.273 4.391-9.988 10.268-9.988v40Zm-29.73-29.73c0 16.443 13.288 29.73 29.73 29.73v-40c5.649 0 10.27 4.621 10.27 10.27h-40ZM99.663 55.11c-1.54 2.229-4.207 6.263-6.567 10.848-1.91 3.71-5.49 11.207-5.49 19.337h39.999c0 1.601-.342 2.264-.105 1.568.178-.524.545-1.4 1.162-2.6 1.241-2.41 2.829-4.852 3.901-6.402l-32.9-22.751Zm17.672 9.66c-16.011-11.984-16.011-11.984-16.012-11.983l-.002.003-.003.004-.007.009-.016.021-.04.054-.113.154a94.725 94.725 0 0 0-1.479 2.078l32.9 22.751c.286-.414.511-.73.652-.924l.141-.194.016-.021-.008.01-.007.01-.005.006-.003.004-.001.002h-.001c0 .001 0 .002-16.012-11.983Zm17.495-42.866a142.76 142.76 0 0 0-1.055-1.455c-.128-.175-.232-.314-.308-.417a10.65 10.65 0 0 0-.095-.127l-.031-.042a.165.165 0 0 0-.017-.022l-.002-.003-.001-.001v-.001l-15.986 12.02a44181.69 44181.69 0 0 1-15.985 12.02v-.001l-.001-.002-.002-.002a.042.042 0 0 0-.003-.004l-.004-.005c-.001-.002-.001-.002 0 0l.031.041.175.237c.166.226.426.583.765 1.056l32.519-23.292ZM159 77.618c0-12.75-6.331-26.106-10.89-34.558-5.104-9.463-10.755-17.63-13.28-21.155l-32.519 23.292c2.069 2.89 6.633 9.51 10.595 16.853 1.979 3.67 3.625 7.185 4.737 10.264.549 1.52.91 2.775 1.124 3.762.105.484.166.86.199 1.133.016.135.025.236.029.307.005.07.005.104.005.102h40Zm-41.665 41.665c22.981 0 41.665-18.684 41.665-41.665h-40c0 .423-.152.819-.499 1.166a1.599 1.599 0 0 1-1.166.499v40ZM75.671 77.618c0 22.981 18.684 41.665 41.664 41.665v-40c-.422 0-.818-.152-1.165-.5a1.597 1.597 0 0 1-.499-1.165h-40ZM99.83 21.924c-2.52 3.527-8.168 11.705-13.27 21.168-4.55 8.44-10.89 21.802-10.89 34.526h40.001c0 .006 0-.12.033-.39a12.5 12.5 0 0 1 .198-1.123c.214-.983.574-2.236 1.124-3.756 1.113-3.079 2.761-6.599 4.743-10.274 3.966-7.357 8.534-13.997 10.605-16.894L99.83 21.924Zm17.505 9.933-16-12h-.001l-.001.002-.002.003-.005.007-.011.015-.032.042-.093.126-.308.418c-.256.349-.612.839-1.052 1.454l32.544 23.257a114.147 114.147 0 0 1 .941-1.296l.03-.041c.002-.003.002-.003 0 0l-.003.004a.04.04 0 0 0-.003.004l-.002.002-.001.001c0 .001-.001.002-16.001-11.998Zm-16.319-8.15c-.55.776-1.2 1.707-1.927 2.77l33.024 22.57c.592-.865 1.114-1.613 1.546-2.222l-32.643-23.118Zm34.556 2.745a205.722 205.722 0 0 0-1.925-2.762l-32.619 23.152c.43.606.951 1.35 1.541 2.212l33.003-22.602Zm8.159 12.886a209.183 209.183 0 0 0-8.159-12.886l-33.003 22.602a169.38 169.38 0 0 1 6.577 10.38l34.585-20.096Zm8.6 17.302c-2.471-6.186-5.637-12.204-8.6-17.302l-34.585 20.095c2.397 4.126 4.545 8.305 6.038 12.044l37.147-14.837ZM157 77.618c0-7.607-2.314-15.082-4.669-20.978l-37.147 14.837c.743 1.86 1.232 3.384 1.521 4.56.301 1.225.295 1.707.295 1.581h40Zm-39.665 39.665c21.876 0 39.665-17.789 39.665-39.665h-40a.49.49 0 0 1 .039-.17.24.24 0 0 1 .048-.078.241.241 0 0 1 .079-.048.49.49 0 0 1 .169-.04v40.001ZM77.671 77.618c0 21.876 17.789 39.665 39.664 39.665v-40c.034 0 .104.01.17.039a.241.241 0 0 1 .079.048.24.24 0 0 1 .048.079.49.49 0 0 1 .039.17h-40Zm4.67-20.95c-2.35 5.882-4.67 13.354-4.67 20.95h40c0 .143-.009-.326.292-1.548.289-1.173.778-2.695 1.521-4.556L82.342 56.668Zm8.595-17.295c-2.96 5.1-6.125 11.117-8.594 17.295l37.142 14.846c1.496-3.74 3.646-7.926 6.046-12.06L90.936 39.372Zm8.153-12.896a210.453 210.453 0 0 0-8.153 12.896l34.594 20.08a170.652 170.652 0 0 1 6.583-10.406L99.09 26.477Zm18.252 49.928c-15.785-12.281-15.787-12.28-15.788-12.277a.027.027 0 0 0-.004.004l-.007.01-.017.021-.038.05-.099.129a57.84 57.84 0 0 0-1.115 1.519 61.196 61.196 0 0 0-2.474 3.774c-.894 1.484-2.03 3.527-2.996 5.858-.825 1.989-2.278 5.924-2.278 10.718h40c0 1.679-.266 2.907-.416 3.493a8.295 8.295 0 0 1-.357 1.11c-.064.154.004-.03.314-.545a21.505 21.505 0 0 1 1.092-1.623l.027-.036a.763.763 0 0 1-.018.023l-.017.023a.305.305 0 0 0-.018.022l-.003.005c-.002.002-.003.004-15.788-12.278Zm24.816 9.806c0-4.789-1.447-8.72-2.276-10.72-.968-2.338-2.107-4.383-3.003-5.87a61.087 61.087 0 0 0-3.599-5.299 44.896 44.896 0 0 1-.138-.178l-.016-.022-.008-.01a.027.027 0 0 0-.004-.004c-.001-.002-.003-.005-15.772 12.297-15.769 12.302-15.771 12.3-15.773 12.298l-.003-.005a.278.278 0 0 0-.006-.007l-.011-.015-.019-.023a.498.498 0 0 1-.018-.025l.027.036c.044.06.133.18.251.346.251.353.558.807.831 1.261.308.51.373.69.308.532a8.323 8.323 0 0 1-.358-1.114 14.138 14.138 0 0 1-.413-3.478h40Zm-24.816 24.643c13 0 24.816-10.353 24.816-24.643h-40c0-9.174 7.49-15.357 15.184-15.357v40ZM92.525 86.211c0 14.29 11.816 24.643 24.816 24.643v-40c7.693 0 15.184 6.183 15.184 15.357h-40Z" fill="#FC8738" mask="url(#b)"/>
    </g>
    <g filter="url(#c)">
        <path d="M59.129 73.572c12.213-.007 22.111-9.905 22.111-22.111 0-12.213-9.898-22.111-22.111-22.111-12.213 0-22.111 9.898-22.111 22.111 0 12.213 9.898 22.111 22.111 22.111ZM32.065 39.025a29.394 29.394 0 0 0-1.942 5.675H16v-5.675h16.065ZM16 27.515h25.418a29.886 29.886 0 0 0-5.808 5.676H16v-5.675ZM16 16h47.89v5.675H16V16Zm26.866 35.461c0-8.974 7.296-16.27 16.27-16.27s16.27 7.296 16.27 16.27-7.296 16.27-16.27 16.27-16.27-7.296-16.27-16.27ZM16 56.215V50.54h13.368a30.233 30.233 0 0 0 .356 5.675H16Zm67.081-4.754c0 13.202-10.743 23.945-23.945 23.945S35.19 64.663 35.19 51.461s10.743-23.945 23.945-23.945S83.08 38.259 83.08 51.46Zm-48.896 16.27H16v-5.675h15.29a30.022 30.022 0 0 0 2.895 5.675Z" stroke="#00D1FF" stroke-width="2"/>
    </g>
    <defs>
        <filter id="a" x="80.671" y="16.857" width="73.329" height="97.426" filterUnits="userSpaceOnUse" color-interpolation-filters="sRGB">
            <feFlood flood-opacity="0" result="BackgroundImageFix"/>
            <feColorMatrix in="SourceAlpha" values="0 0 0 0 0 0 0 0 0 0 0 0 0 0 0 0 0 0 127 0"/>
            <feOffset/>
            <feGaussianBlur stdDeviation="7.5"/>
            <feColorMatrix values="0 0 0 0 0.988235 0 0 0 0 0.529412 0 0 0 0 0.219608 0 0 0 0.6 0"/>
            <feBlend in2="BackgroundImageFix" result="effect1_dropShadow"/>
            <feBlend in="SourceGraphic" in2="effect1_dropShadow" result="shape"/>
        </filter>
        <filter id="c" x="0" y="0" width="99.081" height="91.406" filterUnits="userSpaceOnUse" color-interpolation-filters="sRGB">
            <feFlood flood-opacity="0" result="BackgroundImageFix"/>
            <feColorMatrix in="SourceAlpha" values="0 0 0 0 0 0 0 0 0 0 0 0 0 0 0 0 0 0 127 0"/>
            <feOffset/>
            <feGaussianBlur stdDeviation="7.5"/>
            <feColorMatrix values="0 0 0 0 0 0 0 0 0 0.819608 0 0 0 0 1 0 0 0 0.6 0"/>
            <feBlend in2="BackgroundImageFix" result="effect1_dropShadow"/>
            <feBlend in="SourceGraphic" in2="effect1_dropShadow" result="shape"/>
        </filter>
    </defs>
</svg>
