<svg width="154" height="115" viewBox="0 0 154 115" fill="none" xmlns="http://www.w3.org/2000/svg">
<g filter="url(#filter0_d-111696)">
<mask id="path-1-inside-1-301654" fill="white">
<path fill-rule="evenodd" clip-rule="evenodd" d="M117.335 64.7716L118.933 63.5686L117.331 61.4403L115.734 63.5731L117.335 64.7716ZM117.335 64.7716C118.933 63.5686 118.933 63.5688 118.934 63.5692L118.934 63.57L118.936 63.5727L118.943 63.5815L118.966 63.6131C118.987 63.6403 119.016 63.6796 119.054 63.7305C119.129 63.8322 119.237 63.9803 119.375 64.1703C119.649 64.5502 120.039 65.0982 120.505 65.7785C121.437 67.137 122.681 69.0328 123.929 71.1774C125.174 73.3164 126.441 75.7364 127.402 78.1393C128.35 80.5101 129.065 83.0208 129.065 85.2959V85.31L129.065 85.3241C128.974 91.7883 123.776 97.026 117.335 97.026C110.834 97.026 105.605 91.7977 105.605 85.2959C105.605 83.0377 106.322 80.5353 107.269 78.1704C108.23 75.7722 109.497 73.3506 110.741 71.2076C111.988 69.059 113.232 67.1566 114.163 65.7926C114.63 65.1096 115.019 64.5591 115.293 64.1775C115.431 63.9866 115.539 63.8378 115.614 63.7356C115.652 63.6845 115.681 63.645 115.701 63.6177L115.725 63.586L115.731 63.5772L115.733 63.5745L115.734 63.5737C115.734 63.5733 115.734 63.5731 117.335 64.7716ZM117.335 64.7716C117.335 64.7716 117.815 65.4089 118.562 66.4836C121.177 70.2487 127.065 79.3824 127.065 85.2959C126.989 90.6931 122.657 95.026 117.335 95.026C111.938 95.026 107.605 90.6931 107.605 85.2959C107.605 79.4385 113.5 70.2653 116.113 66.4864C116.857 65.4102 117.335 64.7716 117.335 64.7716ZM117.335 31.8566C117.335 31.8566 117.791 32.4627 118.571 33.5509C123.164 39.9649 139 63.1255 139 77.6183C139 89.5528 129.27 99.2829 117.335 99.2829C105.401 99.2829 95.6708 89.5528 95.6708 77.6183C95.6708 63.1885 111.511 39.9771 116.102 33.5523C116.88 32.4633 117.335 31.8566 117.335 31.8566ZM115.601 37.7622C116.26 36.7982 116.847 35.9587 117.337 35.2663C117.827 35.9564 118.413 36.7927 119.07 37.7531C121.082 40.6906 123.762 44.7787 126.438 49.3854C129.118 53.9975 131.775 59.096 133.758 64.0585C135.753 69.0529 137 73.7546 137 77.6183C137 88.4483 128.165 97.2829 117.335 97.2829C106.505 97.2829 97.6708 88.4483 97.6708 77.6183C97.6708 73.7745 98.9176 69.0829 100.913 64.091C102.895 59.1316 105.553 54.0303 108.233 49.4131C110.91 44.8014 113.59 40.7059 115.601 37.7622ZM112.525 86.2113C112.525 82.5951 117.341 76.4052 117.341 76.4052C117.341 76.4052 122.157 82.5788 122.157 86.2113C122.157 88.7687 119.994 90.8537 117.341 90.8537C114.688 90.8537 112.525 88.7687 112.525 86.2113Z"/>
</mask>
<path fill-rule="evenodd" clip-rule="evenodd" d="M117.335 64.7716L118.933 63.5686L117.331 61.4403L115.734 63.5731L117.335 64.7716ZM117.335 64.7716C118.933 63.5686 118.933 63.5688 118.934 63.5692L118.934 63.57L118.936 63.5727L118.943 63.5815L118.966 63.6131C118.987 63.6403 119.016 63.6796 119.054 63.7305C119.129 63.8322 119.237 63.9803 119.375 64.1703C119.649 64.5502 120.039 65.0982 120.505 65.7785C121.437 67.137 122.681 69.0328 123.929 71.1774C125.174 73.3164 126.441 75.7364 127.402 78.1393C128.35 80.5101 129.065 83.0208 129.065 85.2959V85.31L129.065 85.3241C128.974 91.7883 123.776 97.026 117.335 97.026C110.834 97.026 105.605 91.7977 105.605 85.2959C105.605 83.0377 106.322 80.5353 107.269 78.1704C108.23 75.7722 109.497 73.3506 110.741 71.2076C111.988 69.059 113.232 67.1566 114.163 65.7926C114.63 65.1096 115.019 64.5591 115.293 64.1775C115.431 63.9866 115.539 63.8378 115.614 63.7356C115.652 63.6845 115.681 63.645 115.701 63.6177L115.725 63.586L115.731 63.5772L115.733 63.5745L115.734 63.5737C115.734 63.5733 115.734 63.5731 117.335 64.7716ZM117.335 64.7716C117.335 64.7716 117.815 65.4089 118.562 66.4836C121.177 70.2487 127.065 79.3824 127.065 85.2959C126.989 90.6931 122.657 95.026 117.335 95.026C111.938 95.026 107.605 90.6931 107.605 85.2959C107.605 79.4385 113.5 70.2653 116.113 66.4864C116.857 65.4102 117.335 64.7716 117.335 64.7716ZM117.335 31.8566C117.335 31.8566 117.791 32.4627 118.571 33.5509C123.164 39.9649 139 63.1255 139 77.6183C139 89.5528 129.27 99.2829 117.335 99.2829C105.401 99.2829 95.6708 89.5528 95.6708 77.6183C95.6708 63.1885 111.511 39.9771 116.102 33.5523C116.88 32.4633 117.335 31.8566 117.335 31.8566ZM115.601 37.7622C116.26 36.7982 116.847 35.9587 117.337 35.2663C117.827 35.9564 118.413 36.7927 119.07 37.7531C121.082 40.6906 123.762 44.7787 126.438 49.3854C129.118 53.9975 131.775 59.096 133.758 64.0585C135.753 69.0529 137 73.7546 137 77.6183C137 88.4483 128.165 97.2829 117.335 97.2829C106.505 97.2829 97.6708 88.4483 97.6708 77.6183C97.6708 73.7745 98.9176 69.0829 100.913 64.091C102.895 59.1316 105.553 54.0303 108.233 49.4131C110.91 44.8014 113.59 40.7059 115.601 37.7622ZM112.525 86.2113C112.525 82.5951 117.341 76.4052 117.341 76.4052C117.341 76.4052 122.157 82.5788 122.157 86.2113C122.157 88.7687 119.994 90.8537 117.341 90.8537C114.688 90.8537 112.525 88.7687 112.525 86.2113Z" fill="#FC8738"/>
<path d="M118.933 63.5686L130.963 79.546L146.941 67.5159L134.911 51.5385L118.933 63.5686ZM117.331 61.4403L133.308 49.4103L117.284 28.128L101.319 49.4553L117.331 61.4403ZM115.734 63.5731L99.723 51.5881L87.738 67.5993L103.749 79.5843L115.734 63.5731ZM118.934 63.5692L134.929 51.5637L134.914 51.5435L134.899 51.5233L118.934 63.5692ZM118.934 63.57L102.938 75.5756L102.945 75.5847L102.952 75.5939L118.934 63.57ZM118.936 63.5727L134.935 51.5716L134.927 51.5602L134.918 51.5489L118.936 63.5727ZM118.943 63.5815L134.962 51.6071L134.952 51.5938L134.942 51.5804L118.943 63.5815ZM118.966 63.6131L134.998 51.6558L134.992 51.6473L134.986 51.6387L118.966 63.6131ZM119.054 63.7305L135.142 51.8496L135.142 51.8494L119.054 63.7305ZM119.375 64.1703L135.585 52.4567L135.585 52.4566L119.375 64.1703ZM120.505 65.7785L137 54.4679L137 54.4679L120.505 65.7785ZM123.929 71.1774L141.216 61.1195V61.1195L123.929 71.1774ZM127.402 78.1393L108.833 85.5671L108.833 85.5671L127.402 78.1393ZM129.065 85.31L149.063 85.5917L149.065 85.4509V85.31H129.065ZM129.065 85.3241L109.067 85.0424V85.0425L129.065 85.3241ZM107.269 78.1704L125.835 85.6082V85.6082L107.269 78.1704ZM110.741 71.2076L128.038 81.2484L110.741 71.2076ZM114.163 65.7926L130.681 77.0689L130.681 77.0689L114.163 65.7926ZM115.293 64.1775L131.533 75.8509L131.533 75.8508L115.293 64.1775ZM115.614 63.7356L99.4941 51.8972L99.4939 51.8976L115.614 63.7356ZM115.701 63.6177L99.6493 51.6869L99.6428 51.6957L99.6363 51.7046L115.701 63.6177ZM115.725 63.586L99.6919 51.6298L99.6824 51.6425L99.6729 51.6553L115.725 63.586ZM115.731 63.5772L99.7091 51.6067L99.7038 51.6138L99.6985 51.6209L115.731 63.5772ZM115.733 63.5745L99.7248 51.5856L99.718 51.5948L99.7111 51.604L115.733 63.5745ZM115.734 63.5737L131.742 75.5626L131.75 75.5527L131.757 75.5427L115.734 63.5737ZM118.562 66.4836L134.988 55.0738L134.988 55.0738L118.562 66.4836ZM127.065 85.2959L147.063 85.5776L147.065 85.4368V85.2959H127.065ZM116.113 66.4864L99.6633 55.1109L99.6633 55.1109L116.113 66.4864ZM118.571 33.5509L102.311 45.1966L102.311 45.1966L118.571 33.5509ZM117.335 31.8566L133.32 19.8363L117.314 -1.44867L101.335 19.8566L117.335 31.8566ZM116.102 33.5523L99.83 21.9239L116.102 33.5523ZM117.337 35.2663L133.647 23.6905L117.32 0.686165L101.016 23.7073L117.337 35.2663ZM115.601 37.7622L132.113 49.0474L132.113 49.0474L115.601 37.7622ZM119.07 37.7531L102.569 49.0536L102.569 49.0536L119.07 37.7531ZM126.438 49.3854L109.146 59.4332L109.146 59.4332L126.438 49.3854ZM133.758 64.0585L115.184 71.4773L115.184 71.4773L133.758 64.0585ZM100.913 64.091L82.3417 56.6677L82.3417 56.6677L100.913 64.091ZM108.233 49.4131L125.53 59.4533L125.53 59.4533L108.233 49.4131ZM117.341 76.4052L133.11 64.1033L117.32 43.8631L101.556 64.1235L117.341 76.4052ZM106.903 47.5912L105.305 48.7942L129.365 80.749L130.963 79.546L106.903 47.5912ZM101.353 73.4704L102.956 75.5986L134.911 51.5385L133.308 49.4103L101.353 73.4704ZM131.745 75.5581L133.342 73.4253L101.319 49.4553L99.723 51.5881L131.745 75.5581ZM129.32 48.7603L127.719 47.5618L103.749 79.5843L105.35 80.7828L129.32 48.7603ZM129.365 80.749C130.165 80.1469 130.56 79.8495 130.755 79.703C130.803 79.6666 130.837 79.641 130.861 79.6231C130.887 79.6041 130.895 79.5981 130.894 79.5989C130.893 79.5993 130.884 79.6062 130.869 79.6168C130.861 79.6229 130.82 79.6537 130.765 79.6938C130.739 79.7135 130.682 79.755 130.609 79.8073C130.561 79.8417 130.383 79.9698 130.151 80.1273C130.036 80.2051 129.799 80.3638 129.493 80.5541C129.283 80.6849 128.552 81.1391 127.558 81.6139C127.053 81.8556 126.094 82.2898 124.834 82.6789C123.683 83.0345 121.289 83.67 118.194 83.5555C114.569 83.4213 110.669 82.2785 107.2 79.7654C104.394 77.7327 102.708 75.2702 102.968 75.615L134.899 51.5233C135.159 51.8681 133.473 49.4056 130.667 47.3729C127.199 44.8598 123.298 43.717 119.673 43.5828C116.578 43.4683 114.184 44.1038 113.033 44.4594C111.773 44.8485 110.814 45.2827 110.309 45.5244C109.315 45.9992 108.584 46.4535 108.373 46.5844C108.067 46.7747 107.83 46.9336 107.716 47.0115C107.483 47.1693 107.304 47.2978 107.255 47.3328C107.182 47.3857 107.124 47.4281 107.095 47.449C107.005 47.5152 106.926 47.5749 106.923 47.5765C106.877 47.6111 106.809 47.6621 106.712 47.7352C106.507 47.8893 106.103 48.1932 105.305 48.7942L129.365 80.749ZM102.938 75.5747L102.938 75.5756L134.93 51.5645L134.929 51.5637L102.938 75.5747ZM102.952 75.5939L102.954 75.5966L134.918 51.5489L134.916 51.5462L102.952 75.5939ZM102.937 75.5738L102.944 75.5826L134.942 51.5804L134.935 51.5716L102.937 75.5738ZM102.924 75.556L102.947 75.5876L134.986 51.6387L134.962 51.6071L102.924 75.556ZM102.935 75.5704C102.936 75.573 102.947 75.5869 102.965 75.6115L135.142 51.8494C135.085 51.7723 135.037 51.7076 134.998 51.6558L102.935 75.5704ZM102.965 75.6113C103.001 75.6605 103.069 75.7528 103.164 75.8841L135.585 52.4566C135.406 52.2078 135.256 52.0039 135.142 51.8496L102.965 75.6113ZM103.164 75.8839C103.354 76.147 103.648 76.56 104.011 77.0891L137 54.4679C136.43 53.6365 135.944 52.9535 135.585 52.4567L103.164 75.8839ZM104.011 77.089C104.748 78.165 105.709 79.6315 106.642 81.2352L141.216 61.1195C139.654 58.4342 138.125 56.109 137 54.4679L104.011 77.089ZM106.642 81.2352C107.604 82.8877 108.361 84.3878 108.833 85.5671L145.972 70.7115C144.521 67.0851 142.744 63.7452 141.216 61.1195L106.642 81.2352ZM108.833 85.5671C108.941 85.8381 109.021 86.0595 109.079 86.2327C109.136 86.4074 109.162 86.5055 109.169 86.5315C109.175 86.5595 109.153 86.475 109.127 86.2889C109.102 86.1045 109.065 85.7658 109.065 85.2959H149.065C149.065 79.2757 147.283 73.9897 145.972 70.7115L108.833 85.5671ZM109.065 85.2959V85.31H149.065V85.2959H109.065ZM109.067 85.0284L109.067 85.0424L149.063 85.6058L149.063 85.5917L109.067 85.0284ZM109.067 85.0425C109.126 80.8497 112.565 77.026 117.335 77.026V117.026C134.988 117.026 148.822 102.727 149.063 85.6058L109.067 85.0425ZM117.335 77.026C121.879 77.026 125.605 80.7519 125.605 85.2959H85.6053C85.6053 102.843 99.788 117.026 117.335 117.026V77.026ZM125.605 85.2959C125.605 85.7793 125.568 86.1282 125.541 86.3183C125.515 86.5104 125.491 86.599 125.497 86.5728C125.503 86.5486 125.529 86.4513 125.587 86.2763C125.645 86.1027 125.725 85.8806 125.835 85.6082L88.7036 70.7325C87.402 73.9813 85.6053 79.2719 85.6053 85.2959H125.605ZM125.835 85.6082C126.31 84.4226 127.071 82.9126 128.038 81.2484L93.4438 61.1668C91.9217 63.7887 90.1501 67.1217 88.7036 70.7325L125.835 85.6082ZM128.038 81.2484C128.975 79.6334 129.94 78.1547 130.681 77.0689L97.6452 54.5163C96.5241 56.1585 95.0008 58.4846 93.4438 61.1668L128.038 81.2484ZM130.681 77.0689C131.046 76.5348 131.342 76.1174 131.533 75.8509L99.0535 52.504C98.6964 53.0008 98.2132 53.6844 97.6452 54.5163L130.681 77.0689ZM131.533 75.8508C131.629 75.7181 131.697 75.6242 131.734 75.5736L99.4939 51.8976C99.3809 52.0513 99.2325 52.2551 99.0534 52.5041L131.533 75.8508ZM131.734 75.5739C131.753 75.5486 131.763 75.5341 131.766 75.5309L99.6363 51.7046C99.5982 51.756 99.5506 51.8204 99.4941 51.8972L131.734 75.5739ZM131.753 75.5485L131.776 75.5168L99.6729 51.6553L99.6493 51.6869L131.753 75.5485ZM131.757 75.5423L131.764 75.5335L99.6985 51.6209L99.6919 51.6298L131.757 75.5423ZM131.753 75.5477L131.755 75.5451L99.7111 51.604L99.7091 51.6067L131.753 75.5477ZM131.741 75.5634L131.742 75.5626L99.7255 51.5847L99.7248 51.5856L131.741 75.5634ZM131.757 75.5427C131.757 75.5428 131.641 75.697 131.523 75.8501C131.403 76.002 131.037 76.45 130.786 76.7425C130.116 77.5083 129.032 78.6318 127.498 79.7479C124 82.2921 120.073 83.4311 116.449 83.5608C113.359 83.6714 110.971 83.035 109.831 82.6828C108.58 82.2962 107.628 81.8657 107.127 81.6267C106.141 81.157 105.415 80.7081 105.207 80.5791C104.903 80.3912 104.669 80.2344 104.555 80.1577C104.324 80.0022 104.148 79.8759 104.1 79.8419C104.028 79.7904 103.972 79.7494 103.945 79.73C103.891 79.6905 103.85 79.6602 103.842 79.6542C103.828 79.6438 103.819 79.6369 103.819 79.6366C103.818 79.6359 103.826 79.642 103.851 79.661C103.875 79.6789 103.909 79.7044 103.958 79.7407C104.153 79.8867 104.549 80.183 105.35 80.7828L129.32 48.7603C128.521 48.1616 128.116 47.8589 127.911 47.7055C127.813 47.6326 127.745 47.5819 127.699 47.5477C127.697 47.5459 127.618 47.4871 127.529 47.4218C127.501 47.4012 127.443 47.3593 127.37 47.3072C127.322 47.2726 127.145 47.1458 126.914 46.9901C126.8 46.9132 126.565 46.7564 126.261 46.5684C126.053 46.4393 125.327 45.9903 124.341 45.5206C124.243 45.4735 120.335 43.3962 115.018 43.5864C111.395 43.7162 107.468 44.8552 103.97 47.3994C102.435 48.5155 101.351 49.639 100.681 50.4048C100.43 50.6973 100.064 51.1453 99.9449 51.2972C99.8271 51.4503 99.7107 51.6045 99.7107 51.6046L131.757 75.5427ZM134.988 55.0738C134.526 54.4096 134.138 53.8669 133.851 53.4719C133.707 53.274 133.588 53.1122 133.498 52.9896C133.452 52.9283 133.414 52.8767 133.383 52.8353C133.368 52.8145 133.354 52.7963 133.342 52.7807C133.336 52.7729 133.331 52.7657 133.326 52.7592C133.324 52.7559 133.321 52.7528 133.319 52.7499C133.318 52.7484 133.317 52.747 133.316 52.7456C133.315 52.7449 133.315 52.7442 133.314 52.7435C133.314 52.7432 133.314 52.7427 133.314 52.7425C133.313 52.7421 133.313 52.7416 117.335 64.7716C101.358 76.8016 101.358 76.8011 101.357 76.8006C101.357 76.8005 101.357 76.8 101.356 76.7997C101.356 76.799 101.356 76.7984 101.355 76.7978C101.354 76.7966 101.353 76.7954 101.352 76.7942C101.351 76.7919 101.349 76.7897 101.347 76.7877C101.344 76.7836 101.342 76.7802 101.34 76.7773C101.335 76.7715 101.333 76.7681 101.332 76.7669C101.33 76.7645 101.335 76.7711 101.346 76.7863C101.369 76.8168 101.417 76.8815 101.486 76.9773C101.626 77.1696 101.851 77.4829 102.136 77.8935L134.988 55.0738ZM147.065 85.2959C147.065 77.1552 143.503 69.6709 141.575 65.9272C139.209 61.3328 136.536 57.302 134.988 55.0738L102.136 77.8935C103.203 79.4303 104.782 81.8489 106.014 84.241C106.626 85.4299 106.989 86.2995 107.166 86.8197C107.398 87.5033 107.065 86.861 107.065 85.2959H147.065ZM117.335 115.026C133.855 115.026 146.837 101.645 147.063 85.5776L107.067 85.0143C107.142 79.7413 111.458 75.026 117.335 75.026V115.026ZM87.6053 85.2959C87.6053 101.739 100.893 115.026 117.335 115.026V75.026C122.984 75.026 127.605 79.6474 127.605 85.2959H87.6053ZM99.6633 55.1109C98.1221 57.3396 95.4563 61.3741 93.0964 65.9591C91.1868 69.6693 87.6053 77.1663 87.6053 85.2959H127.605C127.605 86.8971 127.263 87.56 127.5 86.8642C127.678 86.34 128.045 85.4633 128.662 84.2643C129.903 81.8536 131.491 79.4121 132.563 77.862L99.6633 55.1109ZM117.335 64.7716C101.324 52.7866 101.324 52.7871 101.323 52.7876C101.323 52.7878 101.323 52.7883 101.323 52.7886C101.322 52.7893 101.322 52.7899 101.321 52.7906C101.32 52.792 101.319 52.7934 101.318 52.7948C101.316 52.7977 101.314 52.8008 101.311 52.804C101.306 52.8104 101.301 52.8175 101.295 52.8252C101.284 52.8407 101.27 52.8587 101.255 52.8793C101.225 52.9204 101.187 52.9717 101.142 53.0327C101.052 53.1546 100.934 53.3158 100.792 53.513C100.507 53.9068 100.122 54.4482 99.6633 55.1109L132.563 77.862C132.849 77.4484 133.074 77.1325 133.215 76.9379C133.285 76.8409 133.333 76.7752 133.356 76.7437C133.368 76.728 133.373 76.721 133.372 76.7229C133.371 76.7239 133.369 76.7272 133.364 76.7328C133.362 76.7356 133.36 76.7389 133.357 76.7429C133.355 76.7449 133.354 76.747 133.352 76.7493C133.351 76.7504 133.35 76.7516 133.349 76.7528C133.349 76.7534 133.349 76.754 133.348 76.7546C133.348 76.7549 133.347 76.7554 133.347 76.7556C133.347 76.756 133.347 76.7565 117.335 64.7716ZM134.83 21.9052C134.39 21.29 134.032 20.7997 133.775 20.4502C133.647 20.2754 133.543 20.1355 133.467 20.0326C133.429 19.9812 133.397 19.9389 133.372 19.9061C133.36 19.8897 133.35 19.8757 133.341 19.8641C133.337 19.8582 133.333 19.853 133.329 19.8484C133.328 19.8461 133.326 19.8439 133.324 19.8419C133.324 19.8409 133.323 19.8399 133.322 19.839C133.322 19.8386 133.322 19.8381 133.321 19.8377C133.321 19.8374 133.321 19.8371 133.321 19.837C133.32 19.8367 133.32 19.8363 117.335 31.8566C101.351 43.8768 101.35 43.8765 101.35 43.8762C101.35 43.8761 101.35 43.8758 101.35 43.8756C101.349 43.8752 101.349 43.8748 101.349 43.8744C101.348 43.8736 101.348 43.8728 101.347 43.8721C101.346 43.8707 101.345 43.8694 101.344 43.8683C101.342 43.8661 101.341 43.8644 101.34 43.8633C101.339 43.861 101.339 43.8611 101.34 43.8634C101.344 43.868 101.354 43.8816 101.371 43.904C101.404 43.9487 101.463 44.0284 101.546 44.1411C101.712 44.3667 101.972 44.7236 102.311 45.1966L134.83 21.9052ZM159 77.6183C159 64.8683 152.669 51.5116 148.11 43.0598C143.006 33.5967 137.355 25.4296 134.83 21.9052L102.311 45.1966C104.38 48.0862 108.944 54.7064 112.906 62.0503C114.885 65.7194 116.531 69.2351 117.643 72.314C118.192 73.834 118.553 75.0888 118.767 76.0759C118.872 76.5601 118.933 76.9357 118.966 77.2092C118.982 77.3438 118.991 77.4455 118.995 77.5159C119 77.5863 119 77.6197 119 77.6183H159ZM117.335 119.283C140.316 119.283 159 100.599 159 77.6183H119C119 78.0406 118.848 78.4366 118.501 78.7839C118.154 79.1312 117.758 79.2829 117.335 79.2829V119.283ZM75.6708 77.6183C75.6708 100.599 94.3552 119.283 117.335 119.283V79.2829C116.913 79.2829 116.517 79.1312 116.17 78.7839C115.822 78.4366 115.671 78.0406 115.671 77.6183H75.6708ZM99.83 21.9239C97.3095 25.451 91.662 33.6293 86.5602 43.0923C82.0099 51.5323 75.6708 64.8936 75.6708 77.6183H115.671C115.671 77.6235 115.671 77.4987 115.704 77.228C115.737 76.9589 115.797 76.5867 115.902 76.1048C116.116 75.122 116.476 73.8694 117.026 72.3492C118.139 69.2702 119.787 65.7503 121.769 62.0746C125.735 54.7182 130.303 48.0784 132.374 45.1806L99.83 21.9239ZM117.335 31.8566C101.335 19.8566 101.335 19.8569 101.335 19.8572C101.335 19.8573 101.335 19.8577 101.334 19.8579C101.334 19.8583 101.334 19.8588 101.333 19.8592C101.333 19.8602 101.332 19.8611 101.331 19.8621C101.33 19.8641 101.328 19.8663 101.326 19.8686C101.323 19.8732 101.319 19.8784 101.315 19.8841C101.306 19.8957 101.296 19.9097 101.283 19.9261C101.259 19.9588 101.228 20.0009 101.19 20.0523C101.113 20.1551 101.01 20.2948 100.882 20.4695C100.626 20.8188 100.27 21.3089 99.83 21.9239L132.374 45.1806C132.713 44.7067 132.973 44.349 133.139 44.1226C133.222 44.0095 133.281 43.9295 133.315 43.8845C133.331 43.862 133.342 43.8482 133.345 43.8435C133.347 43.8411 133.347 43.841 133.345 43.8432C133.345 43.8443 133.343 43.8459 133.342 43.8482C133.341 43.8493 133.34 43.8505 133.339 43.8519C133.338 43.8526 133.338 43.8534 133.337 43.8541C133.337 43.8545 133.337 43.8549 133.336 43.8553C133.336 43.8555 133.336 43.8558 133.336 43.8559C133.336 43.8563 133.335 43.8566 117.335 31.8566ZM101.016 23.7073C100.466 24.4831 99.816 25.4141 99.0895 26.4771L132.113 49.0474C132.705 48.1823 133.227 47.4343 133.659 46.8252L101.016 23.7073ZM135.572 26.4525C134.846 25.3927 134.196 24.4644 133.647 23.6905L101.028 46.842C101.458 47.4484 101.979 48.1928 102.569 49.0536L135.572 26.4525ZM143.731 39.3376C140.74 34.1901 137.777 29.6727 135.572 26.4525L102.569 49.0536C104.387 51.7086 106.783 55.3673 109.146 59.4332L143.731 39.3376ZM152.331 56.6396C149.86 50.4541 146.694 44.4359 143.731 39.3376L109.146 59.4332C111.543 63.559 113.691 67.7379 115.184 71.4773L152.331 56.6396ZM157 77.6183C157 70.0113 154.686 62.5356 152.331 56.6396L115.184 71.4773C115.927 73.3364 116.416 74.8606 116.705 76.0375C117.006 77.2624 117 77.7436 117 77.6183H157ZM117.335 117.283C139.211 117.283 157 99.494 157 77.6183H117C117 77.5842 117.011 77.5147 117.039 77.4489C117.061 77.3969 117.081 77.3756 117.087 77.3697C117.093 77.3638 117.114 77.3436 117.166 77.3216C117.232 77.2937 117.301 77.2829 117.335 77.2829V117.283ZM77.6708 77.6183C77.6708 99.494 95.4597 117.283 117.335 117.283V77.2829C117.369 77.2829 117.439 77.2937 117.505 77.3216C117.557 77.3436 117.578 77.3638 117.584 77.3697C117.59 77.3756 117.61 77.3969 117.632 77.4489C117.66 77.5147 117.671 77.5842 117.671 77.6183H77.6708ZM82.3417 56.6677C79.9902 62.5504 77.6708 70.0219 77.6708 77.6183H117.671C117.671 77.7614 117.662 77.2923 117.963 76.07C118.252 74.8972 118.741 73.3746 119.484 71.5143L82.3417 56.6677ZM90.9355 39.373C87.9753 44.473 84.811 50.4901 82.3417 56.6677L119.484 71.5143C120.98 67.7731 123.13 63.5877 125.53 59.4533L90.9355 39.373ZM99.0895 26.4771C96.8858 29.7014 93.9244 34.2237 90.9355 39.373L125.53 59.4533C127.895 55.3791 130.293 51.7105 132.113 49.0474L99.0895 26.4771ZM117.341 76.4052C101.556 64.1235 101.554 64.1257 101.553 64.1279C101.552 64.1287 101.55 64.131 101.549 64.1325C101.547 64.1357 101.544 64.1389 101.542 64.1422C101.536 64.1489 101.531 64.1559 101.525 64.1634C101.514 64.1783 101.501 64.1949 101.487 64.2132C101.459 64.2496 101.426 64.2925 101.388 64.3416C101.313 64.4398 101.22 64.5634 101.11 64.71C100.892 65.0022 100.606 65.3922 100.273 65.8609C99.6229 66.7782 98.7275 68.0936 97.7994 69.6349C96.9054 71.1194 95.7693 73.1616 94.8027 75.4925C93.9778 77.4818 92.5247 81.4167 92.5247 86.2113H132.525C132.525 87.8897 132.259 89.1175 132.109 89.7035C131.948 90.3331 131.792 90.7186 131.752 90.8145C131.688 90.9677 131.756 90.7844 132.066 90.2694C132.342 89.8112 132.651 89.3532 132.903 88.9968C133.023 88.8287 133.113 88.7069 133.158 88.6464C133.18 88.6168 133.19 88.6038 133.185 88.6096C133.183 88.6125 133.177 88.6202 133.167 88.6329C133.163 88.6393 133.157 88.647 133.15 88.656C133.146 88.6605 133.142 88.6653 133.138 88.6704C133.136 88.673 133.134 88.6757 133.132 88.6784C133.131 88.6798 133.13 88.6819 133.129 88.6826C133.127 88.6847 133.126 88.6869 117.341 76.4052ZM142.157 86.2113C142.157 81.4222 140.71 77.4912 139.881 75.4902C138.913 73.1535 137.774 71.108 136.878 69.6211C135.947 68.0776 135.05 66.7611 134.398 65.8432C134.064 65.3742 133.777 64.9839 133.558 64.6913C133.448 64.5445 133.354 64.4207 133.279 64.3223C133.241 64.273 133.208 64.23 133.18 64.1934C133.166 64.1752 133.153 64.1585 133.141 64.1435C133.135 64.136 133.13 64.1288 133.125 64.1222C133.122 64.1188 133.12 64.1156 133.117 64.1124C133.116 64.1109 133.114 64.1086 133.113 64.1078C133.112 64.1056 133.11 64.1033 117.341 76.4052C101.572 88.707 101.57 88.7049 101.568 88.7027C101.568 88.702 101.566 88.6999 101.565 88.6985C101.563 88.6957 101.561 88.6931 101.559 88.6905C101.555 88.6853 101.551 88.6804 101.548 88.6759C101.541 88.6668 101.534 88.6591 101.529 88.6526C101.519 88.6396 101.513 88.6317 101.511 88.6285C101.506 88.6223 101.516 88.6347 101.538 88.6638C101.582 88.7231 101.671 88.8434 101.789 89.0099C102.04 89.3631 102.347 89.8171 102.62 90.271C102.928 90.7815 102.993 90.9605 102.928 90.8031C102.887 90.7048 102.731 90.3185 102.57 89.6888C102.421 89.1015 102.157 87.8798 102.157 86.2113H142.157ZM117.341 110.854C130.341 110.854 142.157 100.501 142.157 86.2113H102.157C102.157 77.0367 109.647 70.8537 117.341 70.8537V110.854ZM92.5247 86.2113C92.5247 100.501 104.341 110.854 117.341 110.854V70.8537C125.034 70.8537 132.525 77.0367 132.525 86.2113H92.5247Z" fill="#FC8738" mask="url(#path-1-inside-1-301654)"/>
</g>
<g filter="url(#filter1_d-253845)">
<path d="M59.129 73.5721H59.1295C71.3419 73.5649 81.2401 63.6675 81.2401 51.461C81.2401 39.2478 71.3421 29.3498 59.129 29.3498C46.9158 29.3498 37.0178 39.2478 37.0178 51.461C37.0178 63.6741 46.9158 73.5721 59.129 73.5721ZM32.0645 39.0247C31.2354 40.8269 30.5787 42.7253 30.123 44.6996H16V39.0247H32.0645ZM16 27.5158H41.4178C39.2323 29.1338 37.2788 31.0446 35.61 33.1907H16V27.5158ZM16 16H63.8903V21.6749H16V16ZM42.8656 51.461C42.8656 42.487 50.1619 35.1907 59.1359 35.1907C68.1099 35.1907 75.4061 42.487 75.4061 51.461C75.4061 60.4349 68.1099 67.7312 59.1359 67.7312C50.1619 67.7312 42.8656 60.4349 42.8656 51.461ZM16 56.2154V50.5405H29.3684C29.3301 51.784 29.344 53.887 29.724 56.2154H16ZM83.081 51.461C83.081 64.6627 72.3376 75.4061 59.1359 75.4061C45.9341 75.4061 35.1907 64.6627 35.1907 51.461C35.1907 38.2592 45.9341 27.5158 59.1359 27.5158C72.3376 27.5158 83.081 38.2592 83.081 51.461ZM34.1848 67.7312H16V62.0563H31.2902C32.0566 64.0596 33.0298 65.9605 34.1848 67.7312Z" stroke="#00D1FF" stroke-width="2"/>
</g>
<defs>
<filter id="filter0_d-111696" x="80.6708" y="16.8566" width="73.3292" height="97.4263" filterUnits="userSpaceOnUse" color-interpolation-filters="sRGB">
<feFlood flood-opacity="0" result="BackgroundImageFix"/>
<feColorMatrix in="SourceAlpha" type="matrix" values="0 0 0 0 0 0 0 0 0 0 0 0 0 0 0 0 0 0 127 0"/>
<feOffset/>
<feGaussianBlur stdDeviation="7.5"/>
<feColorMatrix type="matrix" values="0 0 0 0 0.988235 0 0 0 0 0.529412 0 0 0 0 0.219608 0 0 0 0.6 0"/>
<feBlend mode="normal" in2="BackgroundImageFix" result="effect1_dropShadow"/>
<feBlend mode="normal" in="SourceGraphic" in2="effect1_dropShadow" result="shape"/>
</filter>
<filter id="filter1_d-253845" x="0" y="0" width="99.081" height="91.4061" filterUnits="userSpaceOnUse" color-interpolation-filters="sRGB">
<feFlood flood-opacity="0" result="BackgroundImageFix"/>
<feColorMatrix in="SourceAlpha" type="matrix" values="0 0 0 0 0 0 0 0 0 0 0 0 0 0 0 0 0 0 127 0"/>
<feOffset/>
<feGaussianBlur stdDeviation="7.5"/>
<feColorMatrix type="matrix" values="0 0 0 0 0 0 0 0 0 0.819608 0 0 0 0 1 0 0 0 0.6 0"/>
<feBlend mode="normal" in2="BackgroundImageFix" result="effect1_dropShadow"/>
<feBlend mode="normal" in="SourceGraphic" in2="effect1_dropShadow" result="shape"/>
</filter>
</defs>
</svg>