<svg width="135" height="126" viewBox="0 0 135 126" fill="none" xmlns="http://www.w3.org/2000/svg">
<mask id="path-1-inside-1-219489" fill="white">
<path fill-rule="evenodd" clip-rule="evenodd" d="M102.423 93.4318L103.316 92.7593L102.42 91.5695L101.528 92.7618L102.423 93.4318ZM102.423 93.4318C103.316 92.7593 103.316 92.7594 103.316 92.7596L103.317 92.7602L103.318 92.762L103.322 92.768L103.339 92.7899L103.4 92.8723C103.453 92.9439 103.53 93.0485 103.627 93.1828C103.821 93.4515 104.097 93.8395 104.427 94.3215C105.087 95.2843 105.969 96.6273 106.853 98.1457C107.734 99.6611 108.629 101.37 109.305 103.062C109.975 104.736 110.468 106.48 110.468 108.043V108.051L110.467 108.059C110.405 112.497 106.837 116.088 102.423 116.088C97.9631 116.088 94.378 112.502 94.378 108.043C94.378 106.493 94.8714 104.754 95.5405 103.084C96.217 101.395 97.1111 99.6853 97.9925 98.167C98.8756 96.6456 99.7571 95.2978 100.417 94.331C100.747 93.8471 101.023 93.4572 101.217 93.1873C101.314 93.0523 101.391 92.9472 101.444 92.8752L101.505 92.7925L101.521 92.7705L101.526 92.7645L101.527 92.7627L101.527 92.7621C101.528 92.762 101.528 92.7618 102.423 93.4318ZM102.423 93.4318C102.423 93.4318 102.686 93.7817 103.11 94.3852C104.861 96.876 109.349 103.687 109.349 108.043C109.295 111.885 106.211 114.97 102.423 114.97C98.5806 114.97 95.4961 111.885 95.4961 108.043C95.4961 103.728 99.9885 96.8868 101.738 94.3868C102.16 93.7824 102.423 93.4318 102.423 93.4318ZM102.423 70C102.423 70 102.675 70.3352 103.114 70.945C106.114 75.1058 117.846 92.0523 117.846 102.577C117.846 111.073 110.919 118 102.423 118C93.9267 118 87 111.073 87 102.577C87 92.0982 98.7345 75.1137 101.732 70.9458C102.171 70.3355 102.423 70 102.423 70ZM100.936 74.0317C101.524 73.1721 102.03 72.4511 102.424 71.9001C102.817 72.4496 103.323 73.1681 103.91 74.0249C105.345 76.1204 107.257 79.0373 109.167 82.3249C111.079 85.6157 112.979 89.2593 114.397 92.8107C115.823 96.38 116.727 99.7695 116.727 102.577C116.727 110.456 110.301 116.882 102.423 116.882C94.5442 116.882 88.1181 110.456 88.1181 102.577C88.1181 99.7836 89.0221 96.4011 90.448 92.8338C91.8667 89.2847 93.7662 85.6391 95.6784 82.3448C97.5888 79.0536 99.5009 76.1315 100.936 74.0317ZM98.9982 108.694C98.9982 106.12 102.427 101.714 102.427 101.714C102.427 101.714 105.855 106.109 105.855 108.694C105.855 110.515 104.315 111.999 102.427 111.999C100.538 111.999 98.9982 110.515 98.9982 108.694Z"/>
</mask>
<path fill-rule="evenodd" clip-rule="evenodd" d="M102.423 93.4318L103.316 92.7593L102.42 91.5695L101.528 92.7618L102.423 93.4318ZM102.423 93.4318C103.316 92.7593 103.316 92.7594 103.316 92.7596L103.317 92.7602L103.318 92.762L103.322 92.768L103.339 92.7899L103.4 92.8723C103.453 92.9439 103.53 93.0485 103.627 93.1828C103.821 93.4515 104.097 93.8395 104.427 94.3215C105.087 95.2843 105.969 96.6273 106.853 98.1457C107.734 99.6611 108.629 101.37 109.305 103.062C109.975 104.736 110.468 106.48 110.468 108.043V108.051L110.467 108.059C110.405 112.497 106.837 116.088 102.423 116.088C97.9631 116.088 94.378 112.502 94.378 108.043C94.378 106.493 94.8714 104.754 95.5405 103.084C96.217 101.395 97.1111 99.6853 97.9925 98.167C98.8756 96.6456 99.7571 95.2978 100.417 94.331C100.747 93.8471 101.023 93.4572 101.217 93.1873C101.314 93.0523 101.391 92.9472 101.444 92.8752L101.505 92.7925L101.521 92.7705L101.526 92.7645L101.527 92.7627L101.527 92.7621C101.528 92.762 101.528 92.7618 102.423 93.4318ZM102.423 93.4318C102.423 93.4318 102.686 93.7817 103.11 94.3852C104.861 96.876 109.349 103.687 109.349 108.043C109.295 111.885 106.211 114.97 102.423 114.97C98.5806 114.97 95.4961 111.885 95.4961 108.043C95.4961 103.728 99.9885 96.8868 101.738 94.3868C102.16 93.7824 102.423 93.4318 102.423 93.4318ZM102.423 70C102.423 70 102.675 70.3352 103.114 70.945C106.114 75.1058 117.846 92.0523 117.846 102.577C117.846 111.073 110.919 118 102.423 118C93.9267 118 87 111.073 87 102.577C87 92.0982 98.7345 75.1137 101.732 70.9458C102.171 70.3355 102.423 70 102.423 70ZM100.936 74.0317C101.524 73.1721 102.03 72.4511 102.424 71.9001C102.817 72.4496 103.323 73.1681 103.91 74.0249C105.345 76.1204 107.257 79.0373 109.167 82.3249C111.079 85.6157 112.979 89.2593 114.397 92.8107C115.823 96.38 116.727 99.7695 116.727 102.577C116.727 110.456 110.301 116.882 102.423 116.882C94.5442 116.882 88.1181 110.456 88.1181 102.577C88.1181 99.7836 89.0221 96.4011 90.448 92.8338C91.8667 89.2847 93.7662 85.6391 95.6784 82.3448C97.5888 79.0536 99.5009 76.1315 100.936 74.0317ZM98.9982 108.694C98.9982 106.12 102.427 101.714 102.427 101.714C102.427 101.714 105.855 106.109 105.855 108.694C105.855 110.515 104.315 111.999 102.427 111.999C100.538 111.999 98.9982 110.515 98.9982 108.694Z" fill="#FC8738"/>
<path d="M103.316 92.7593L103.988 93.6525L104.882 92.9799L104.209 92.0868L103.316 92.7593ZM102.42 91.5695L103.313 90.897L102.418 89.7073L101.525 90.8995L102.42 91.5695ZM101.528 92.7618L100.633 92.0918L99.9626 92.9869L100.858 93.6569L101.528 92.7618ZM103.316 92.7596L104.21 92.0873L104.209 92.086L103.316 92.7596ZM103.317 92.7602L104.211 92.0886L104.21 92.0879L103.317 92.7602ZM103.318 92.762L104.212 92.091L104.212 92.0903L103.318 92.762ZM103.322 92.768L104.218 92.0986L104.217 92.097L103.322 92.768ZM103.339 92.7899L104.237 92.1238L104.234 92.1205L103.339 92.7899ZM103.4 92.8723L104.299 92.2081L104.298 92.2061L103.4 92.8723ZM103.627 93.1828L104.533 92.528L104.533 92.528L103.627 93.1828ZM104.427 94.3215L103.505 94.9538L103.505 94.9538L104.427 94.3215ZM106.853 98.1457L105.886 98.708L105.886 98.708L106.853 98.1457ZM109.305 103.062L110.343 102.646L110.343 102.646L109.305 103.062ZM110.468 108.051L111.585 108.067L111.586 108.059V108.051H110.468ZM110.467 108.059L109.349 108.043L109.349 108.043L110.467 108.059ZM95.5405 103.084L94.5026 102.668L94.5026 102.668L95.5405 103.084ZM97.9925 98.167L97.0255 97.6057L97.0255 97.6057L97.9925 98.167ZM100.417 94.331L99.4937 93.7006L99.4937 93.7006L100.417 94.331ZM101.217 93.1873L100.309 92.5347L100.309 92.5347L101.217 93.1873ZM101.444 92.8752L100.544 92.2115L100.543 92.2135L101.444 92.8752ZM101.505 92.7925L100.608 92.1255L100.605 92.1288L101.505 92.7925ZM101.521 92.7705L100.625 92.1021L100.624 92.1035L101.521 92.7705ZM101.526 92.7645L100.63 92.0953L100.629 92.0961L101.526 92.7645ZM101.527 92.7627L100.632 92.0928L100.631 92.0936L101.527 92.7627ZM101.527 92.7621L100.633 92.0913L100.632 92.0923L101.527 92.7621ZM103.11 94.3852L104.025 93.7422L104.025 93.7422L103.11 94.3852ZM109.349 108.043L110.467 108.059L110.468 108.051V108.043H109.349ZM101.738 94.3868L102.654 95.0277L102.654 95.0277L101.738 94.3868ZM103.114 70.945L104.021 70.2912L104.021 70.2912L103.114 70.945ZM102.423 70L103.316 69.328L102.422 68.1381L101.528 69.3292L102.423 70ZM101.732 70.9458L102.64 71.5986L102.64 71.5986L101.732 70.9458ZM102.424 71.9001L103.333 71.2495L102.423 69.9773L101.514 71.2505L102.424 71.9001ZM100.936 74.0317L100.013 73.4008L100.013 73.4008L100.936 74.0317ZM103.91 74.0249L102.988 74.6566L102.988 74.6566L103.91 74.0249ZM109.167 82.3249L110.134 81.7632L110.134 81.7632L109.167 82.3249ZM114.397 92.8107L115.436 92.396L115.436 92.396L114.397 92.8107ZM90.448 92.8338L91.4862 93.2488L91.4862 93.2488L90.448 92.8338ZM95.6784 82.3448L94.7114 81.7835L94.7114 81.7835L95.6784 82.3448ZM102.427 101.714L103.308 101.026L102.426 99.8944L101.544 101.027L102.427 101.714ZM102.643 91.8661L101.75 92.5386L103.095 94.325L103.988 93.6525L102.643 91.8661ZM101.527 92.2421L102.423 93.4318L104.209 92.0868L103.313 90.897L101.527 92.2421ZM102.423 93.4318L103.315 92.2395L101.525 90.8995L100.633 92.0918L102.423 93.4318ZM103.093 92.5367L102.198 91.8667L100.858 93.6569L101.753 94.3269L103.093 92.5367ZM103.095 94.325C103.542 93.9887 103.765 93.8208 103.876 93.737C103.932 93.6949 103.959 93.6747 103.972 93.6652C103.98 93.6595 103.979 93.6602 103.975 93.6628C103.974 93.6637 103.971 93.666 103.967 93.6691C103.964 93.671 103.953 93.6787 103.939 93.6881C103.932 93.6928 103.918 93.7024 103.899 93.7138C103.886 93.7217 103.841 93.7489 103.781 93.7766C103.75 93.7908 103.692 93.8158 103.615 93.8369C103.544 93.8568 103.404 93.8883 103.227 93.8741C103.021 93.8576 102.815 93.7835 102.639 93.6493C102.497 93.5414 102.41 93.415 102.424 93.4333L104.209 92.086C104.222 92.1042 104.135 91.9779 103.993 91.8699C103.817 91.7357 103.611 91.6617 103.406 91.6451C103.095 91.6202 102.865 91.7367 102.852 91.7426C102.791 91.7704 102.746 91.7976 102.733 91.8056C102.715 91.817 102.7 91.8266 102.693 91.8314C102.679 91.841 102.668 91.8489 102.664 91.8512C102.66 91.8546 102.656 91.8574 102.654 91.8589C102.647 91.8641 102.639 91.87 102.632 91.8748C102.617 91.8862 102.588 91.908 102.532 91.9499C102.42 92.0341 102.197 92.2024 101.75 92.5386L103.095 94.325ZM102.423 93.4319L102.423 93.4325L104.21 92.0879L104.21 92.0873L102.423 93.4319ZM102.423 93.4318L102.424 93.4336L104.212 92.0903L104.211 92.0886L102.423 93.4318ZM102.424 93.4329L102.428 93.4389L104.217 92.097L104.212 92.091L102.424 93.4329ZM102.427 93.4374L102.443 93.4593L104.234 92.1205L104.218 92.0986L102.427 93.4374ZM102.441 93.456L102.502 93.5384L104.298 92.2061L104.237 92.1238L102.441 93.456ZM102.501 93.5364C102.551 93.6051 102.626 93.7066 102.72 93.8377L104.533 92.528C104.433 92.3904 104.354 92.2826 104.299 92.2081L102.501 93.5364ZM102.72 93.8377C102.91 94.0998 103.18 94.4803 103.505 94.9538L105.349 93.6892C105.013 93.1988 104.732 92.8032 104.533 92.528L102.72 93.8377ZM103.505 94.9538C104.154 95.9008 105.02 97.2198 105.886 98.708L107.819 97.5835C106.918 96.0349 106.02 94.6678 105.349 93.6892L103.505 94.9538ZM105.886 98.708C106.752 100.196 107.618 101.853 108.267 103.477L110.343 102.646C109.639 100.886 108.716 99.126 107.819 97.5835L105.886 98.708ZM108.267 103.477C108.917 105.1 109.349 106.69 109.349 108.043H111.586C111.586 106.271 111.033 104.371 110.343 102.646L108.267 103.477ZM109.349 108.043V108.051H111.586V108.043H109.349ZM109.35 108.035L109.349 108.043L111.585 108.075L111.585 108.067L109.35 108.035ZM109.349 108.043C109.295 111.886 106.21 114.97 102.423 114.97V117.206C107.463 117.206 111.514 113.109 111.585 108.074L109.349 108.043ZM102.423 114.97C98.5806 114.97 95.4961 111.885 95.4961 108.043H93.2599C93.2599 113.12 97.3456 117.206 102.423 117.206V114.97ZM95.4961 108.043C95.4961 106.703 95.929 105.12 96.5784 103.5L94.5026 102.668C93.8138 104.388 93.2599 106.282 93.2599 108.043H95.4961ZM96.5784 103.5C97.2277 101.879 98.0936 100.22 98.9594 98.7283L97.0255 97.6057C96.1286 99.1508 95.2063 100.912 94.5026 102.668L96.5784 103.5ZM98.9594 98.7283C99.8253 97.2368 100.691 95.9126 101.34 94.9614L99.4937 93.7006C98.8231 94.683 97.926 96.0545 97.0255 97.6057L98.9594 98.7283ZM101.34 94.9614C101.665 94.4858 101.936 94.1034 102.125 93.8399L100.309 92.5347C100.111 92.8111 99.8297 93.2084 99.4937 93.7006L101.34 94.9614ZM102.125 93.8399C102.22 93.7081 102.294 93.6061 102.345 93.537L100.543 92.2135C100.488 92.2883 100.409 92.3965 100.309 92.5347L102.125 93.8399ZM102.344 93.5389L102.405 93.4562L100.605 92.1288L100.544 92.2115L102.344 93.5389ZM102.402 93.4595L102.419 93.4375L100.624 92.1035L100.608 92.1255L102.402 93.4595ZM102.417 93.4389L102.422 93.4328L100.629 92.0961L100.625 92.1021L102.417 93.4389ZM102.421 93.4336L102.423 93.4318L100.631 92.0936L100.63 92.0953L102.421 93.4336ZM102.422 93.4326L102.423 93.432L100.632 92.0923L100.632 92.0928L102.422 93.4326ZM102.422 93.433C102.436 93.4144 102.347 93.5438 102.202 93.6536C102.022 93.79 101.813 93.8624 101.608 93.8773C101.432 93.8901 101.293 93.8578 101.224 93.8381C101.149 93.817 101.092 93.7924 101.061 93.7784C101.002 93.7511 100.958 93.7245 100.946 93.7168C100.927 93.7056 100.913 93.6963 100.906 93.6917C100.892 93.6825 100.882 93.675 100.879 93.6731C100.875 93.6702 100.872 93.6679 100.871 93.667C100.867 93.6645 100.867 93.6639 100.874 93.6695C100.887 93.679 100.914 93.6991 100.97 93.7411C101.082 93.8246 101.305 93.9918 101.753 94.3269L103.093 92.5367C102.645 92.2018 102.421 92.0341 102.309 91.9502C102.253 91.9085 102.224 91.8868 102.209 91.8754C102.202 91.8707 102.195 91.8648 102.188 91.8597C102.186 91.8582 102.182 91.8555 102.177 91.8522C102.174 91.85 102.163 91.8422 102.149 91.8328C102.142 91.8282 102.128 91.8188 102.11 91.8076C102.097 91.7998 102.053 91.7732 101.994 91.7459C101.982 91.7408 101.754 91.6247 101.447 91.647C101.241 91.6619 101.033 91.7343 100.853 91.8707C100.708 91.9805 100.619 92.1099 100.633 92.0913L102.422 93.433ZM104.025 93.7422C103.809 93.4346 103.633 93.1909 103.511 93.0231C103.449 92.9392 103.402 92.8743 103.369 92.8298C103.352 92.8076 103.339 92.7905 103.33 92.7786C103.326 92.7727 103.323 92.7681 103.32 92.7649C103.319 92.7633 103.318 92.762 103.317 92.7611C103.317 92.7606 103.317 92.7602 103.316 92.7599C103.316 92.7598 103.316 92.7596 103.316 92.7595C103.316 92.7595 103.316 92.7594 103.316 92.7594C103.316 92.7594 103.316 92.7593 103.316 92.7593C103.316 92.7593 103.316 92.7593 102.423 93.4318C101.53 94.1043 101.53 94.1043 101.53 94.1043C101.53 94.1043 101.53 94.1042 101.53 94.1042C101.53 94.1042 101.53 94.1042 101.529 94.1042C101.529 94.1042 101.529 94.1042 101.529 94.1042C101.53 94.1042 101.53 94.1043 101.53 94.1046C101.53 94.105 101.531 94.1057 101.531 94.1068C101.533 94.109 101.536 94.1125 101.539 94.1174C101.547 94.1271 101.558 94.142 101.573 94.162C101.602 94.202 101.647 94.2622 101.704 94.3412C101.82 94.4993 101.988 94.7322 102.196 95.0281L104.025 93.7422ZM110.468 108.043C110.468 105.568 109.223 102.564 107.877 99.9955C106.504 97.3762 104.914 95.0064 104.025 93.7422L102.196 95.0281C103.058 96.2547 104.587 98.5357 105.896 101.034C107.232 103.582 108.231 106.161 108.231 108.043H110.468ZM102.423 116.088C106.837 116.088 110.405 112.497 110.467 108.059L108.232 108.027C108.186 111.273 105.585 113.852 102.423 113.852V116.088ZM94.378 108.043C94.378 112.502 97.9631 116.088 102.423 116.088V113.852C99.1981 113.852 96.6141 111.268 96.6141 108.043H94.378ZM100.821 93.7458C99.934 95.0143 98.3436 97.3936 96.9704 100.016C95.6246 102.586 94.378 105.588 94.378 108.043H96.6141C96.6141 106.183 97.6137 103.607 98.9514 101.053C100.262 98.5508 101.792 96.2593 102.654 95.0277L100.821 93.7458ZM102.423 93.4318C101.528 92.7618 101.528 92.7618 101.528 92.7618C101.528 92.7619 101.528 92.7619 101.528 92.7619C101.528 92.762 101.528 92.762 101.528 92.7621C101.527 92.7622 101.527 92.7623 101.527 92.7624C101.527 92.7627 101.527 92.7631 101.526 92.7636C101.526 92.7645 101.525 92.7658 101.524 92.7674C101.521 92.7706 101.518 92.7752 101.513 92.7811C101.505 92.793 101.492 92.8101 101.475 92.8323C101.443 92.8769 101.395 92.9419 101.334 93.0259C101.212 93.1939 101.037 93.4379 100.821 93.7458L102.654 95.0277C102.861 94.7313 103.029 94.4979 103.144 94.3394C103.201 94.2602 103.245 94.1998 103.275 94.1597C103.29 94.1396 103.301 94.1247 103.308 94.1149C103.312 94.1101 103.314 94.1065 103.316 94.1043C103.317 94.1032 103.317 94.1025 103.318 94.1021C103.318 94.1018 103.318 94.1017 103.318 94.1017C103.318 94.1016 103.318 94.1016 103.318 94.1017C103.318 94.1017 103.318 94.1017 103.318 94.1017C103.318 94.1017 103.318 94.1017 103.318 94.1017C103.318 94.1018 103.318 94.1018 102.423 93.4318ZM104.021 70.2912C103.799 69.9829 103.624 69.7434 103.504 69.5804C103.444 69.4989 103.397 69.4365 103.366 69.3941C103.35 69.3729 103.338 69.3567 103.33 69.3457C103.325 69.3402 103.322 69.3359 103.32 69.333C103.319 69.3315 103.318 69.3303 103.317 69.3295C103.317 69.3291 103.317 69.3288 103.317 69.3285C103.317 69.3284 103.317 69.3283 103.317 69.3282C103.316 69.3282 103.316 69.3281 103.316 69.3281C103.316 69.3281 103.316 69.3281 103.316 69.3281C103.316 69.3281 103.316 69.328 102.423 70C101.529 70.672 101.529 70.6719 101.529 70.6719C101.529 70.6719 101.529 70.6719 101.529 70.6719C101.529 70.6719 101.529 70.6719 101.529 70.6719C101.529 70.6719 101.529 70.6719 101.529 70.672C101.529 70.672 101.529 70.6722 101.53 70.6724C101.53 70.6729 101.531 70.6737 101.531 70.6749C101.533 70.6771 101.536 70.6807 101.539 70.6855C101.547 70.6952 101.558 70.7099 101.572 70.7297C101.602 70.7692 101.646 70.8287 101.704 70.9072C101.82 71.0643 101.99 71.2973 102.207 71.5988L104.021 70.2912ZM118.964 102.577C118.964 99.7589 118.183 96.5855 117.016 93.3954C115.844 90.1928 114.257 86.9053 112.587 83.8397C109.247 77.7086 105.534 72.389 104.021 70.2912L102.207 71.5988C103.695 73.6618 107.347 78.8958 110.623 84.9094C112.261 87.9161 113.794 91.0988 114.916 94.1638C116.042 97.2413 116.727 100.133 116.727 102.577H118.964ZM102.423 119.118C111.536 119.118 118.964 111.691 118.964 102.577H116.727C116.727 110.456 110.301 116.882 102.423 116.882V119.118ZM85.8819 102.577C85.8819 111.691 93.3092 119.118 102.423 119.118V116.882C94.5442 116.882 88.1181 110.456 88.1181 102.577H85.8819ZM100.825 70.293C99.3133 72.3942 95.6001 77.7249 92.26 83.8602C90.5899 86.928 89.0026 90.2159 87.8305 93.4155C86.6631 96.6024 85.8819 99.7698 85.8819 102.577H88.1181C88.1181 100.145 88.8037 97.2599 89.9302 94.1846C91.052 91.1222 92.5857 87.9386 94.2239 84.9294C97.5005 78.9108 101.153 73.6653 102.64 71.5986L100.825 70.293ZM102.423 70C101.528 69.3292 101.528 69.3292 101.528 69.3292C101.528 69.3292 101.528 69.3292 101.528 69.3292C101.528 69.3293 101.528 69.3293 101.528 69.3294C101.528 69.3294 101.528 69.3295 101.528 69.3297C101.528 69.3299 101.528 69.3302 101.527 69.3307C101.527 69.3315 101.526 69.3326 101.525 69.3341C101.522 69.337 101.519 69.3413 101.515 69.3468C101.507 69.3579 101.495 69.374 101.479 69.3952C101.448 69.4376 101.401 69.5001 101.341 69.5817C101.221 69.7448 101.046 69.9845 100.825 70.293L102.64 71.5986C102.857 71.2968 103.027 71.0636 103.143 70.9064C103.201 70.8278 103.245 70.7682 103.274 70.7287C103.289 70.7089 103.3 70.6941 103.307 70.6844C103.311 70.6796 103.313 70.676 103.315 70.6737C103.316 70.6726 103.316 70.6718 103.317 70.6713C103.317 70.6711 103.317 70.6709 103.317 70.6708C103.317 70.6708 103.317 70.6708 103.317 70.6708C103.317 70.6708 103.317 70.6708 103.317 70.6708C103.317 70.6708 103.317 70.6708 103.317 70.6708C103.317 70.6708 103.317 70.6708 102.423 70ZM101.514 71.2505C101.117 71.8071 100.605 72.5343 100.013 73.4008L101.859 74.6625C102.442 73.8098 102.944 73.0952 103.334 72.5497L101.514 71.2505ZM104.833 73.3932C104.241 72.5295 103.73 71.8046 103.333 71.2495L101.515 72.5507C101.904 73.0945 102.406 73.8068 102.988 74.6566L104.833 73.3932ZM110.134 81.7632C108.206 78.4453 106.278 75.5045 104.833 73.3932L102.988 74.6566C104.412 76.7364 106.308 79.6292 108.201 82.8866L110.134 81.7632ZM115.436 92.396C113.99 88.7762 112.062 85.0812 110.134 81.7632L108.201 82.8866C110.097 86.1502 111.968 89.7424 113.359 93.2255L115.436 92.396ZM117.846 102.577C117.846 99.5603 116.882 96.0157 115.436 92.396L113.359 93.2255C114.765 96.7443 115.609 99.9788 115.609 102.577H117.846ZM102.423 118C110.919 118 117.846 111.073 117.846 102.577H115.609C115.609 109.838 109.684 115.764 102.423 115.764V118ZM87 102.577C87 111.073 93.9267 118 102.423 118V115.764C95.1617 115.764 89.2361 109.838 89.2361 102.577H87ZM89.4098 92.4188C87.964 96.036 87 99.5738 87 102.577H89.2361C89.2361 99.9933 90.0802 96.7663 91.4862 93.2488L89.4098 92.4188ZM94.7114 81.7835C92.7835 85.1048 90.8557 88.8016 89.4098 92.4188L91.4862 93.2488C92.8776 89.7677 94.7488 86.1734 96.6453 82.9061L94.7114 81.7835ZM100.013 73.4008C98.5671 75.5163 96.6392 78.4622 94.7114 81.7835L96.6453 82.9061C98.5383 79.6449 100.435 76.7467 101.859 74.6625L100.013 73.4008ZM102.427 101.714C101.544 101.027 101.544 101.027 101.544 101.027C101.544 101.027 101.544 101.028 101.544 101.028C101.544 101.028 101.543 101.028 101.543 101.029C101.542 101.03 101.541 101.031 101.54 101.032C101.538 101.035 101.535 101.039 101.531 101.044C101.524 101.054 101.513 101.068 101.499 101.085C101.472 101.121 101.433 101.173 101.384 101.239C101.285 101.371 101.146 101.561 100.979 101.796C100.646 102.265 100.201 102.92 99.7546 103.662C99.3098 104.401 98.8513 105.245 98.5011 106.089C98.1588 106.915 97.8801 107.833 97.8801 108.694H100.116C100.116 108.268 100.266 107.671 100.567 106.946C100.859 106.24 101.258 105.5 101.67 104.815C102.081 104.134 102.493 103.527 102.803 103.089C102.958 102.871 103.086 102.696 103.175 102.577C103.22 102.518 103.254 102.472 103.277 102.442C103.288 102.427 103.297 102.416 103.302 102.409C103.305 102.405 103.307 102.403 103.308 102.401C103.309 102.401 103.309 102.4 103.309 102.4C103.309 102.4 103.309 102.4 103.309 102.4C103.309 102.4 103.309 102.4 103.309 102.4C103.309 102.4 103.309 102.4 102.427 101.714ZM106.973 108.694C106.973 107.831 106.695 106.911 106.352 106.085C106.002 105.239 105.544 104.395 105.099 103.657C104.652 102.916 104.207 102.261 103.874 101.793C103.707 101.559 103.568 101.369 103.469 101.237C103.42 101.172 103.381 101.12 103.353 101.084C103.34 101.066 103.329 101.052 103.321 101.043C103.317 101.038 103.314 101.034 103.312 101.031C103.311 101.03 103.31 101.029 103.31 101.028C103.309 101.027 103.309 101.027 103.309 101.027C103.309 101.026 103.309 101.026 103.309 101.026C103.308 101.026 103.308 101.026 102.427 101.714C101.545 102.401 101.545 102.401 101.545 102.401C101.545 102.401 101.545 102.401 101.545 102.401C101.545 102.401 101.545 102.401 101.545 102.401C101.545 102.401 101.546 102.402 101.546 102.403C101.547 102.404 101.549 102.406 101.552 102.41C101.557 102.417 101.566 102.428 101.577 102.443C101.6 102.473 101.635 102.518 101.679 102.578C101.768 102.696 101.896 102.871 102.051 103.088C102.361 103.525 102.773 104.131 103.183 104.812C103.596 105.495 103.994 106.235 104.287 106.941C104.587 107.665 104.737 108.265 104.737 108.694H106.973ZM102.427 113.117C104.894 113.117 106.973 111.171 106.973 108.694H104.737C104.737 109.859 103.737 110.881 102.427 110.881V113.117ZM97.8801 108.694C97.8801 111.171 99.9596 113.117 102.427 113.117V110.881C101.116 110.881 100.116 109.859 100.116 108.694H97.8801Z" fill="#FC8738" mask="url(#path-1-inside-1-219489)"/>
<path d="M43.0257 56.8157H43.026C52.9865 56.8098 61.0593 48.7375 61.0593 38.7821C61.0593 28.8212 52.9866 20.7486 43.0257 20.7486C33.0648 20.7486 24.9921 28.8212 24.9921 38.7821C24.9921 48.7431 33.0648 56.8157 43.0257 56.8157ZM21.0696 28.1228C20.2474 29.8151 19.6121 31.6152 19.1996 33.4971H6.875V28.1228H21.0696ZM6.875 18.5643H29.3547C27.1767 20.038 25.253 21.8551 23.6547 23.9386H6.875V18.5643ZM6.875 9H47.3107V14.3743H6.875V9ZM29.1879 38.7821C29.1879 31.1464 35.3957 24.9386 43.0314 24.9386C50.6672 24.9386 56.875 31.1464 56.875 38.7821C56.875 46.4179 50.6672 52.6257 43.0314 52.6257C35.3957 52.6257 29.1879 46.4179 29.1879 38.7821ZM6.875 43.0614V37.6871H18.6518C18.6067 38.6858 18.5775 40.7691 18.9963 43.0614H6.875ZM63.2493 38.7821C63.2493 49.9292 54.1785 59 43.0314 59C31.8844 59 22.8136 49.9292 22.8136 38.7821C22.8136 27.6351 31.8844 18.5643 43.0314 18.5643C54.1785 18.5643 63.2493 27.6351 63.2493 38.7821ZM22.9281 52.6257H6.875V47.2514H20.1332C20.8457 49.1667 21.788 50.9699 22.9281 52.6257Z" stroke="#00D1FF"/>
</svg>