<svg viewBox="0 0 186 115" fill="none" xmlns="http://www.w3.org/2000/svg">
    <path d="M54.383 26.795c-1.14-1.303-2.543-1.957-4.213-1.957H16.023c-.303 0-.551-.095-.738-.287-.19-.19-.285-.403-.285-.632v-23c0-.229.095-.44.285-.631.187-.192.435-.288.738-.288h36.084c9.105 0 16.96 3.72 23.562 11.155l8.765 10.694L67.36 42.663 54.383 26.795zm63.061-15.755C124.047 3.68 131.938 0 141.12 0h35.97c.303 0 .53.077.683.229.15.155.227.384.227.69v23a.999.999 0 01-.227.632c-.153.192-.38.288-.683.288h-34.147c-1.67 0-3.073.653-4.213 1.956l-25.155 30.589 25.269 30.818c1.14 1.229 2.503 1.842 4.099 1.842h34.147c.303 0 .53.096.683.288.15.192.227.442.227.746v23a.998.998 0 01-.227.631c-.153.192-.38.288-.683.288h-35.97c-9.182 0-17.037-3.717-23.562-11.155L96.615 78.313l-20.946 25.529c-6.602 7.438-14.494 11.155-23.676 11.155h-35.97c-.303 0-.533-.096-.683-.288-.153-.192-.227-.439-.227-.749v-23c0-.229.074-.44.227-.631.15-.192.38-.288.683-.288H50.17c1.593 0 2.997-.65 4.213-1.956l24.699-30.128 38.362-46.917z" fill="#00D1FF"/>
    <path fill="url(#paint0_linear-319180)" d="M15 0h163v115H15z"/>
    <g filter="url(#filter0_d-463562)">
        <path fill="#00D1FF" d="M140.291 88H15v6h125.291z"/>
        <path stroke="#00D1FF" stroke-width="2" d="M139.291 89H16v4h123.291z"/>
    </g>
    <g filter="url(#filter1_d-540257)">
        <path stroke="#ED1EFF" stroke-width="2" d="M177 89h-35.709v4H177z"/>
    </g>
    <g filter="url(#filter2_d-890265)">
        <path d="M50.5 53.704c3.371 0 5.963.683 7.777 2.048 1.813 1.344 2.72 3.264 2.72 5.76 0 1.643-.523 3.083-1.568 4.32-1.024 1.216-2.496 2.155-4.416 2.816-1.92.661-4.16.992-6.72.992-4.16 0-7.35-.96-9.568-2.88-2.198-1.941-3.296-4.736-3.296-8.384 0-3.904 1.173-6.923 3.52-9.056 2.346-2.133 5.674-3.2 9.984-3.2 3.114 0 5.706.533 7.776 1.6 2.09 1.045 3.445 2.517 4.064 4.416l-8.192.896c-.278-.533-.758-.939-1.44-1.216-.683-.299-1.536-.448-2.56-.448-1.558 0-2.795.384-3.712 1.152-.896.747-1.44 1.856-1.632 3.328 1.813-1.43 4.234-2.144 7.264-2.144zm-2.24 10.688c1.345 0 2.433-.256 3.265-.768.832-.533 1.248-1.227 1.248-2.08 0-.939-.363-1.664-1.088-2.176-.726-.533-1.739-.8-3.04-.8-1.088 0-2.07.192-2.944.576-.875.384-1.61.95-2.208 1.696.597 2.368 2.186 3.552 4.768 3.552zm26.513 5.248c-2.24 0-4.245-.277-6.016-.832-1.75-.576-3.157-1.387-4.224-2.432-1.045-1.067-1.653-2.293-1.824-3.68l7.808-.8c.15.747.619 1.344 1.408 1.792.79.448 1.782.672 2.976.672 1.344 0 2.379-.256 3.104-.768.747-.512 1.12-1.237 1.12-2.176 0-.917-.362-1.621-1.088-2.112-.725-.49-1.77-.736-3.136-.736-1.024 0-1.91.192-2.656.576-.725.363-1.258.864-1.6 1.504l-7.04-.608 1.44-13.28h20.448v5.408H71.285l-.48 3.84c.598-.725 1.494-1.29 2.688-1.696 1.195-.405 2.582-.608 4.16-.608 2.006 0 3.734.31 5.184.928 1.472.619 2.603 1.504 3.392 2.656.79 1.152 1.184 2.507 1.184 4.064 0 1.664-.522 3.125-1.568 4.384-1.024 1.237-2.485 2.197-4.384 2.88-1.898.683-4.128 1.024-6.688 1.024zm28.066.128c-2.603 0-4.928-.459-6.976-1.376-2.027-.917-3.627-2.272-4.8-4.064-1.152-1.792-1.728-3.936-1.728-6.432 0-2.496.576-4.64 1.728-6.432 1.173-1.792 2.773-3.147 4.8-4.064 2.048-.939 4.373-1.408 6.976-1.408 2.603 0 4.917.47 6.944 1.408 2.048.917 3.648 2.272 4.8 4.064 1.173 1.792 1.76 3.936 1.76 6.432 0 2.496-.587 4.64-1.76 6.432-1.152 1.792-2.752 3.147-4.8 4.064-2.027.917-4.341 1.376-6.944 1.376zm0-5.472c1.536 0 2.795-.512 3.776-1.536.981-1.024 1.472-2.645 1.472-4.864s-.491-3.84-1.472-4.864c-.981-1.045-2.24-1.568-3.776-1.568-1.536 0-2.795.523-3.776 1.568-.981 1.024-1.472 2.645-1.472 4.864s.49 3.84 1.472 4.864c.981 1.024 2.24 1.536 3.776 1.536zm45.098-18.656h5.76l-26.336 23.808h-5.76l26.336-23.808zm-20.928 13.088c-1.814 0-3.414-.256-4.8-.768-1.366-.533-2.422-1.28-3.168-2.24-.747-.981-1.12-2.123-1.12-3.424 0-1.259.373-2.368 1.12-3.328.746-.981 1.802-1.728 3.168-2.24 1.386-.533 2.976-.8 4.768-.8 1.77 0 3.338.267 4.704.8 1.386.533 2.464 1.29 3.232 2.272.768.96 1.152 2.08 1.152 3.36 0 1.28-.384 2.4-1.152 3.36-.768.96-1.835 1.707-3.2 2.24-1.366.512-2.934.768-4.704.768zm0-3.776c.896 0 1.61-.224 2.144-.672.554-.47.832-1.11.832-1.92 0-.832-.278-1.483-.832-1.952-.534-.47-1.259-.704-2.176-.704-.918 0-1.664.235-2.24.704-.555.448-.832 1.077-.832 1.888 0 .832.277 1.483.832 1.952.576.47 1.333.704 2.272.704zm20.896 14.624c-1.814 0-3.414-.256-4.8-.768-1.366-.533-2.432-1.29-3.2-2.272-.747-.981-1.12-2.123-1.12-3.424 0-1.259.373-2.368 1.12-3.328.768-.981 1.834-1.728 3.2-2.24 1.386-.533 2.976-.8 4.768-.8 1.77 0 3.338.267 4.703.8 1.387.533 2.454 1.29 3.201 2.272.768.981 1.152 2.112 1.152 3.392 0 1.28-.384 2.4-1.152 3.36-.747.96-1.803 1.707-3.168 2.24-1.366.512-2.934.768-4.704.768zm0-3.776c.896 0 1.61-.235 2.144-.704.554-.47.832-1.099.832-1.888 0-.832-.278-1.483-.832-1.952-.534-.49-1.259-.736-2.176-.736-.939 0-1.686.235-2.24.704-.555.47-.832 1.099-.832 1.888 0 .832.277 1.493.832 1.984.554.47 1.312.704 2.272.704z" fill="#161B44"/>
        <path d="M58.277 55.752l-.903 1.198.01.007.893-1.205zm1.152 10.08l-1.146-.968-.002.002 1.148.966zm-4.416 2.816l-.489-1.418.489 1.418zM38.725 66.76l-.993 1.124.005.005.006.005.982-1.134zm.224-17.44l1.009 1.11-1.01-1.11zm17.76-1.6l-.688 1.333.009.005.008.004.67-1.342zm4.064 4.416l.163 1.491 1.835-.2-.572-1.756-1.426.465zm-8.192.896l-1.331.692.474.91 1.02-.11-.163-1.492zm-1.44-1.216l-.602 1.374.019.008.018.008.565-1.39zm-6.272.704l.96 1.152.003-.002-.963-1.15zm-1.632 3.328l-1.488-.194-.476 3.652 2.892-2.28-.928-1.178zm8.288 7.776l.786 1.277.012-.007.011-.007-.81-1.263zm.16-4.256l-.889 1.209.012.008.012.008.865-1.225zm-5.984-.224l-.603-1.373.603 1.373zm-2.208 1.696l-1.172-.937-.465.582.182.722 1.455-.367zm7.008-5.636c3.196 0 5.42.651 6.873 1.746l1.805-2.396c-2.172-1.636-5.133-2.35-8.678-2.35v3zm6.883 1.753c1.387 1.028 2.113 2.476 2.113 4.555h3c0-2.913-1.088-5.305-3.327-6.965l-1.786 2.41zm2.113 4.555c0 1.294-.401 2.39-1.214 3.352l2.292 1.936c1.277-1.512 1.922-3.296 1.922-5.288h-3zm-1.216 3.354c-.807.958-2.023 1.767-3.757 2.364l.977 2.836c2.107-.725 3.834-1.794 5.075-3.268l-2.295-1.932zm-3.757 2.364c-1.728.595-3.796.91-6.231.91v3c2.685 0 5.096-.346 7.208-1.074l-.977-2.836zm-6.231.91c-3.949 0-6.735-.912-8.587-2.514l-1.963 2.268c2.586 2.238 6.178 3.246 10.55 3.246v-3zm-8.575-2.504c-1.799-1.59-2.79-3.929-2.79-7.26h-3c0 3.965 1.208 7.215 3.804 9.508l1.986-2.248zm-2.79-7.26c0-3.587 1.066-6.16 3.03-7.946l-2.018-2.22c-2.73 2.481-4.011 5.945-4.011 10.166h3zm3.03-7.946c1.984-1.804 4.903-2.81 8.975-2.81v-3c-4.547 0-8.284 1.128-10.993 3.59l2.018 2.22zm8.975-2.81c2.953 0 5.291.507 7.089 1.433l1.374-2.666c-2.341-1.207-5.187-1.767-8.463-1.767v3zm7.105 1.442c1.798.899 2.835 2.087 3.309 3.539l2.852-.93c-.764-2.345-2.436-4.1-4.82-5.293l-1.341 2.684zm4.572 1.583l-8.192.896.326 2.982 8.192-.896-.326-2.982zm-6.698 1.695c-.477-.917-1.271-1.534-2.207-1.914l-1.129 2.78c.43.174.596.368.674.518l2.662-1.384zm-2.17-1.898c-.93-.407-2.003-.574-3.161-.574v3c.89 0 1.522.131 1.958.322l1.203-2.748zm-3.161-.574c-1.802 0-3.415.447-4.675 1.502l1.926 2.3c.575-.481 1.436-.802 2.749-.802v-3zm-4.673 1.5c-1.258 1.049-1.932 2.546-2.159 4.286l2.975.388c.157-1.204.572-1.925 1.105-2.37l-1.92-2.304zm.257 5.658c1.477-1.164 3.538-1.822 6.336-1.822v-3c-3.26 0-6.042.771-8.193 2.466l1.857 2.356zm4.096 8.866c1.521 0 2.909-.288 4.05-.99l-1.572-2.556c-.523.322-1.311.546-2.478.546v3zm4.073-1.005c1.183-.758 1.939-1.89 1.939-3.343h-3c0 .254-.076.509-.558.817l1.62 2.526zm1.939-3.343c0-1.393-.574-2.59-1.723-3.401l-1.73 2.45c.3.213.453.467.453.951h3zm-1.7-3.384c-1.075-.79-2.444-1.092-3.928-1.092v3c1.118 0 1.775.232 2.151.509l1.777-2.417zm-3.928-1.092c-1.267 0-2.458.224-3.547.703l1.206 2.746c.66-.29 1.432-.449 2.34-.449v-3zm-3.547.703a7.246 7.246 0 00-2.777 2.132l2.343 1.874a4.244 4.244 0 011.64-1.26l-1.206-2.747zm-3.06 3.436c.363 1.438 1.068 2.657 2.199 3.5 1.122.836 2.508 1.185 4.024 1.185v-3c-1.066 0-1.765-.243-2.232-.59-.458-.342-.847-.9-1.082-1.829l-2.909.734zm26.72 7.601l-.47 1.425.01.003.01.003.45-1.431zm-4.225-2.432l-1.071 1.05.01.01.011.011 1.05-1.071zm-1.824-3.68l-.153-1.492-1.523.156.188 1.52 1.488-.184zm7.808-.8l1.471-.294-.267-1.337-1.357.139.153 1.492zm7.488 1.696l-.848-1.237-.008.006-.009.006.865 1.225zm.032-4.288l-.84 1.242.84-1.242zm-5.792-.16l.671 1.342.008-.004.007-.004-.686-1.334zm-1.6 1.504l-.129 1.494.987.086.466-.874-1.324-.706zm-7.04-.608l-1.491-.162-.165 1.525 1.527.131.13-1.494zm1.44-13.28v-1.5H63.7l-.145 1.338 1.491.162zm20.448 0h1.5v-1.5h-1.5v1.5zm0 5.408v1.5h1.5v-1.5h-1.5zm-14.208 0v-1.5h-1.324l-.164 1.314 1.488.186zm-.48 3.84l-1.488-.186-.642 5.132 3.288-3.992-1.158-.954zm2.688-1.696l.482 1.42-.482-1.42zm9.344.32l-.588 1.38.007.003.581-1.383zm3.392 2.656l1.238-.848-1.238.848zm-.384 8.448l-1.154-.958-.001.002 1.155.956zm-4.384 2.88l-.507-1.412.507 1.412zm-6.688-.476c-2.118 0-3.968-.263-5.567-.763l-.897 2.862c1.942.609 4.103.901 6.464.901v-3zm-5.547-.757c-1.58-.52-2.774-1.227-3.643-2.078l-2.1 2.142c1.265 1.24 2.888 2.154 4.805 2.786l.938-2.85zm-3.621-2.057c-.832-.849-1.28-1.777-1.407-2.813l-2.977.366c.213 1.737.982 3.262 2.24 4.547l2.144-2.1zm-2.743-1.138l7.808-.8-.306-2.984-7.808.8.306 2.984zm6.184-1.998c.252 1.256 1.05 2.185 2.139 2.803l1.48-2.61c-.49-.278-.63-.544-.677-.781l-2.942.588zm2.139 2.803c1.075.61 2.342.867 3.716.867v-3c-1.014 0-1.732-.19-2.235-.477l-1.481 2.61zm3.716.867c1.504 0 2.891-.282 3.97-1.043l-1.73-2.45c-.373.263-1.056.493-2.24.493v3zm3.953-1.03c1.172-.805 1.771-2.002 1.771-3.414h-3c0 .466-.147.719-.468.939l1.697 2.474zm1.771-3.414c0-1.387-.587-2.57-1.747-3.354l-1.681 2.484c.29.197.428.422.428.87h3zm-1.747-3.354c-1.077-.729-2.467-.994-3.977-.994v3c1.221 0 1.922.225 2.296.478l1.68-2.484zm-3.977-.994c-1.21 0-2.341.227-3.342.742l1.372 2.668c.493-.254 1.133-.41 1.97-.41v-3zm-3.327.734c-.969.485-1.748 1.194-2.252 2.14l2.647 1.412c.178-.334.466-.628.947-.868l-1.342-2.684zm-.8 1.352l-7.04-.608-.258 2.988 7.04.608.258-2.988zm-5.677 1.048l1.44-13.28-2.983-.324-1.44 13.28 2.983.324zm-.052-11.942h20.448v-3H65.045v3zm18.948-1.5v5.408h3V46.76h-3zm1.5 3.908H71.285v3h14.208v-3zm-15.696 1.314l-.48 3.84 2.977.372.48-3.84-2.977-.372zm2.166 4.98c.369-.448.994-.884 2.012-1.23l-.964-2.84c-1.37.465-2.538 1.16-3.364 2.162l2.316 1.908zm2.012-1.23c1.006-.34 2.224-.528 3.678-.528v-3c-1.703 0-3.258.218-4.642.688l.964 2.84zm3.678-.528c1.856 0 3.374.287 4.596.808l1.177-2.76c-1.68-.716-3.618-1.048-5.773-1.048v3zm4.603.81c1.246.524 2.132 1.24 2.736 2.122l2.475-1.696c-.975-1.422-2.35-2.477-4.049-3.19l-1.162 2.765zm2.736 2.122c.599.874.921 1.925.921 3.216h3c0-1.824-.466-3.482-1.446-4.912l-2.475 1.696zm.921 3.216c0 1.32-.404 2.441-1.222 3.426L87 66.694c1.273-1.533 1.914-3.335 1.914-5.342h-3zM84.69 64.78c-.814.983-2.026 1.81-3.736 2.424l1.015 2.824c2.087-.751 3.798-1.845 5.032-3.336L84.69 64.78zm-3.736 2.424c-1.699.611-3.75.936-6.18.936v3c2.688 0 5.096-.358 7.195-1.112l-1.015-2.824zm14.909 1.188l-.618 1.367.005.002.613-1.369zm-4.8-4.064l-1.262.811.007.01 1.255-.821zm0-12.864l-1.255-.822-.007.01 1.262.812zm4.8-4.064l.618 1.367.007-.003-.625-1.364zm13.92 0l-.63 1.361.008.004.009.004.613-1.369zm4.8 4.064l-1.262.811.007.01 1.255-.821zm0 12.864l-1.255-.822-.007.01 1.262.812zm-4.8 4.064l-.613-1.369-.006.002.619 1.367zm-3.168-15.36l-1.094 1.027.006.005.005.006 1.083-1.038zm-7.552 0l1.083 1.038.005-.006.006-.005-1.094-1.027zm3.776 15.236c-2.425 0-4.536-.427-6.363-1.245l-1.226 2.738c2.27 1.016 4.809 1.507 7.589 1.507v-3zm-6.358-1.243c-1.777-.804-3.152-1.975-4.163-3.519l-2.51 1.644c1.336 2.04 3.16 3.578 5.436 4.608l1.237-2.733zm-4.156-3.508c-.972-1.511-1.49-3.362-1.49-5.621h-3c0 2.733.634 5.17 1.966 7.243l2.524-1.622zm-1.49-5.621c0-2.259.518-4.11 1.49-5.62L89.8 50.652c-1.332 2.073-1.966 4.51-1.966 7.243h3zm1.483-5.61c1.011-1.544 2.386-2.715 4.163-3.52l-1.236-2.733c-2.276 1.03-4.101 2.57-5.437 4.61l2.51 1.643zm4.17-3.522c1.824-.836 3.931-1.272 6.351-1.272v-3c-2.785 0-5.329.503-7.601 1.544l1.25 2.728zm6.351-1.272c2.421 0 4.515.436 6.314 1.27l1.26-2.723c-2.254-1.044-4.789-1.547-7.574-1.547v3zm6.331 1.277c1.797.805 3.165 1.973 4.151 3.506l2.524-1.622c-1.318-2.05-3.15-3.592-5.449-4.622l-1.226 2.738zm4.158 3.517c.988 1.51 1.515 3.357 1.515 5.61h3c0-2.739-.647-5.18-2.005-7.254l-2.51 1.644zm1.515 5.61c0 2.253-.527 4.1-1.515 5.61l2.51 1.644c1.358-2.075 2.005-4.515 2.005-7.254h-3zm-1.522 5.62c-.986 1.535-2.354 2.702-4.151 3.507l1.226 2.738c2.299-1.03 4.131-2.572 5.449-4.622l-2.524-1.622zm-4.157 3.51c-1.802.815-3.9 1.242-6.325 1.242v3c2.78 0 5.311-.49 7.563-1.51l-1.238-2.733zm-6.325-1.23c1.907 0 3.57-.653 4.859-1.998l-2.166-2.076c-.673.703-1.528 1.074-2.693 1.074v3zm4.859-1.998c1.366-1.425 1.889-3.507 1.889-5.902h-3c0 2.043-.458 3.203-1.055 3.826l2.166 2.076zm1.889-5.902c0-2.395-.523-4.477-1.889-5.902l-2.166 2.076c.597.623 1.055 1.783 1.055 3.826h3zm-1.878-5.89c-1.287-1.371-2.953-2.042-4.87-2.042v3c1.155 0 2.006.375 2.682 1.095l2.188-2.054zm-4.87-2.042c-1.917 0-3.583.67-4.87 2.041l2.188 2.054c.676-.72 1.527-1.095 2.682-1.095v-3zm-4.859 2.03c-1.366 1.425-1.889 3.507-1.889 5.902h3c0-2.043.458-3.203 1.055-3.826l-2.166-2.076zm-1.889 5.902c0 2.395.523 4.477 1.889 5.902l2.166-2.076c-.597-.623-1.055-1.783-1.055-3.826h-3zm1.889 5.902c1.29 1.345 2.952 1.998 4.859 1.998v-3c-1.165 0-2.02-.371-2.693-1.074l-2.166 2.076zm49.957-18.158v-1.5h-.578l-.428.387 1.006 1.113zm5.76 0l1.005 1.113 2.891-2.613h-3.896v1.5zm-26.336 23.808v1.5h.577l.428-.387-1.005-1.113zm-5.76 0l-1.006-1.113-2.891 2.613h3.897v-1.5zm.608-11.488l-.546 1.397.013.005.013.005.52-1.407zm-3.169-2.24l-1.193.908.005.007.004.006 1.184-.921zm0-6.752l1.185.92.004-.005.005-.007-1.194-.908zm3.169-2.24l.526 1.404.012-.004-.538-1.4zm9.472 0l-.546 1.397.007.003.539-1.4zM134.912 49l-1.181.925.005.006.005.006 1.171-.937zm0 6.72l-1.171-.937 1.171.937zm-3.199 2.24l.526 1.404.01-.003.009-.004-.545-1.397zm-2.561-3.68l.965 1.149.004-.004-.969-1.145zm0-3.872l-.99 1.126.01.01.012.01.968-1.146zm-4.415 0l.942 1.167.005-.004-.947-1.163zm0 3.84l-.969 1.145.01.01.011.008.948-1.163zm18.367 14.56l-.545 1.397.013.005.013.005.519-1.407zm-3.199-2.272l-1.194.908.006.008.006.008 1.182-.924zm0-6.752l-1.182-.925-.003.004 1.185.921zm3.199-2.24l.527 1.405.012-.005-.539-1.4zm9.472 0l-.545 1.397.007.003.538-1.4zm3.201 2.272l-1.194.908.006.008.006.008 1.182-.924zm0 6.752l-1.172-.937-.006.008-.007.008 1.185.921zm-3.168 2.24l.526 1.404.01-.003.009-.004-.545-1.397zm-2.56-3.712l-.969-1.145-.012.01-.01.009.991 1.126zm0-3.84l-1.016 1.104.023.021.024.02.969-1.145zm-4.417-.032l-.968-1.145.968 1.145zm0 3.872l-.993 1.123.012.011.013.011.968-1.145zm2.305-17.956h5.76v-3h-5.76v3zm4.754-2.613l-26.336 23.808 2.011 2.226 26.336-23.808-2.011-2.226zm-25.33 23.421h-5.76v3h5.76v-3zm-4.755 2.613l26.336-23.808-2.011-2.226-26.336 23.808 2.011 2.226zm4.402-13.333c-1.674 0-3.093-.237-4.28-.675l-1.039 2.814c1.586.586 3.368.861 5.319.861v-3zm-4.254-.665c-1.165-.455-1.98-1.057-2.529-1.764l-2.369 1.842c.944 1.213 2.241 2.105 3.807 2.716l1.091-2.794zm-2.52-1.751c-.536-.706-.813-1.523-.813-2.516h-3c0 1.61.469 3.075 1.426 4.332l2.387-1.816zm-.813-2.516c0-.938.269-1.72.804-2.407l-2.369-1.842c-.959 1.233-1.435 2.67-1.435 4.249h3zm.813-2.42c.547-.718 1.352-1.312 2.501-1.743l-1.053-2.81c-1.581.593-2.888 1.492-3.835 2.737l2.387 1.816zm2.513-1.748c1.183-.455 2.585-.7 4.23-.7v-3c-1.94 0-3.717.289-5.307.9l1.077 2.8zm4.23-.7c1.621 0 2.998.244 4.158.697l1.091-2.794c-1.571-.614-3.33-.903-5.249-.903v3zm4.165.7c1.182.455 2.018 1.067 2.589 1.797l2.363-1.85c-.965-1.232-2.284-2.135-3.875-2.747l-1.077 2.8zm2.599 1.809c.546.683.823 1.469.823 2.423h3c0-1.605-.49-3.06-1.48-4.297l-2.343 1.874zm.823 2.423c0 .955-.277 1.74-.823 2.423l2.343 1.874c.99-1.237 1.48-2.691 1.48-4.297h-3zm-.823 2.423c-.574.718-1.407 1.324-2.574 1.78l1.091 2.794c1.564-.61 2.864-1.498 3.826-2.7l-2.343-1.874zm-2.555 1.773c-1.165.436-2.549.672-4.178.672v3c1.914 0 3.666-.276 5.231-.864l-1.053-2.808zm-4.178-.104c1.146 0 2.236-.29 3.109-1.023l-1.929-2.298c-.194.163-.533.321-1.18.321v3zm3.113-1.027c.933-.79 1.363-1.87 1.363-3.065h-3c0 .427-.124.626-.3.775l1.937 2.29zm1.363-3.065c0-1.202-.42-2.3-1.363-3.097l-1.937 2.29c.166.141.3.345.3.807h3zm-1.341-3.078c-.879-.774-1.993-1.078-3.166-1.078v3c.661 0 .997.165 1.185.33l1.981-2.252zm-3.166-1.078c-1.18 0-2.286.306-3.188 1.041l1.895 2.326c.25-.204.637-.367 1.293-.367v-3zm-3.183 1.037c-.958.774-1.389 1.861-1.389 3.055h3c0-.428.123-.6.274-.721l-1.885-2.334zm-1.389 3.055c0 1.202.42 2.3 1.363 3.097l1.937-2.29c-.166-.141-.3-.345-.3-.807h-3zm1.384 3.115c.908.74 2.029 1.041 3.219 1.041v-3c-.686 0-1.08-.168-1.324-.367l-1.895 2.326zm24.116 12.665c-1.675 0-3.094-.237-4.281-.675l-1.039 2.814c1.586.586 3.368.861 5.32.861v-3zm-4.255-.665c-1.159-.453-1.989-1.064-2.564-1.8l-2.363 1.85c.961 1.227 2.265 2.13 3.836 2.744l1.091-2.794zm-2.552-1.783c-.536-.706-.813-1.523-.813-2.516h-3c0 1.61.469 3.075 1.426 4.332l2.387-1.816zm-.813-2.516c0-.938.269-1.72.804-2.407l-2.369-1.842c-.959 1.233-1.435 2.67-1.435 4.249h3zm.801-2.404c.571-.73 1.393-1.328 2.545-1.76l-1.053-2.809c-1.579.593-2.89 1.487-3.855 2.72l2.363 1.85zm2.557-1.764c1.183-.455 2.585-.7 4.229-.7v-3c-1.939 0-3.716.288-5.306.9l1.077 2.8zm4.229-.7c1.622 0 2.999.244 4.159.697l1.091-2.794c-1.571-.614-3.33-.903-5.25-.903v3zm4.166.7c1.18.454 1.998 1.062 2.545 1.78l2.387-1.816c-.947-1.245-2.262-2.151-3.855-2.764l-1.077 2.8zm2.557 1.796c.556.71.833 1.513.833 2.468h3c0-1.605-.49-3.064-1.47-4.316l-2.363 1.848zm.833 2.468c0 .954-.277 1.74-.823 2.423l2.343 1.874c.99-1.237 1.48-2.691 1.48-4.297h-3zm-.836 2.44c-.549.706-1.364 1.308-2.529 1.763l1.091 2.794c1.566-.611 2.863-1.503 3.807-2.716l-2.369-1.842zm-2.51 1.755c-1.165.437-2.549.673-4.177.673v3c1.913 0 3.665-.276 5.23-.863l-1.053-2.81zm-4.177-.103c1.162 0 2.261-.31 3.134-1.078l-1.981-2.252c-.194.17-.524.33-1.153.33v3zm3.112-1.059c.924-.781 1.364-1.846 1.364-3.033h-3c0 .391-.115.585-.301.743l1.937 2.29zm1.364-3.033c0-1.202-.421-2.3-1.364-3.097l-1.937 2.29c.166.141.301.345.301.807h3zm-1.317-3.056c-.878-.808-2.002-1.132-3.192-1.132v3c.645 0 .972.166 1.161.34l2.031-2.208zm-3.192-1.132c-1.187 0-2.312.3-3.208 1.059l1.937 2.29c.213-.18.582-.349 1.271-.349v-3zm-3.208 1.059c-.924.781-1.364 1.846-1.364 3.033h3c0-.391.115-.585.301-.743l-1.937-2.29zm-1.364 3.033c0 1.203.42 2.295 1.339 3.107l1.987-2.246c-.191-.17-.326-.4-.326-.861h-3zm1.364 3.13c.902.762 2.041 1.058 3.241 1.058v-3c-.721 0-1.096-.174-1.304-.35l-1.937 2.291z" fill="url(#paint1_linear-741823)"/>
    </g>
    <path d="M78.865 26.328H77c-.071-.48-.276-.856-.614-1.13-.338-.275-.76-.413-1.266-.413-.676 0-1.218.25-1.627.746-.407.495-.61 1.196-.61 2.105 0 .932.205 1.641.614 2.127.412.483.949.724 1.61.724.492 0 .908-.128 1.25-.383.34-.259.555-.621.643-1.087l1.866.009a3.436 3.436 0 01-.571 1.508 3.527 3.527 0 01-1.287 1.146c-.54.293-1.183.44-1.93.44-.779 0-1.475-.177-2.088-.53-.611-.351-1.094-.861-1.45-1.529-.352-.668-.528-1.476-.528-2.425 0-.951.18-1.761.537-2.429.358-.667.844-1.176 1.458-1.525.613-.352 1.304-.529 2.07-.529.674 0 1.28.125 1.82.375.543.248.986.608 1.33 1.083.346.471.56 1.044.64 1.717zm5.367.588v1.44h-3.98v-1.44h3.98zM85.813 32v-8.727h3.443c.992 0 1.76.258 2.306.775.548.517.822 1.21.822 2.076 0 .596-.133 1.106-.4 1.53a2.434 2.434 0 01-1.142.954L92.695 32h-2.037l-1.653-3.094h-1.347V32h-1.845zm1.845-4.577h1.253c1.049 0 1.573-.433 1.573-1.3 0-.894-.527-1.342-1.581-1.342h-1.245v2.642zM95.192 32h-1.977l3.013-8.727h2.378L101.614 32h-1.977l-.648-1.99H95.84L95.192 32zm1.117-3.43h2.216l-1.074-3.303h-.068l-1.074 3.303zm4.945-3.776v-1.521h7.168v1.521h-2.672V32h-1.824v-7.206h-2.672zm10.193-1.521V32h-1.845v-8.727h1.845zm9.538 4.363c0 .952-.18 1.762-.541 2.43-.358.667-.845 1.177-1.461 1.53-.617.349-1.311.523-2.084.523-.776 0-1.472-.176-2.088-.528-.617-.352-1.104-.862-1.462-1.53-.358-.67-.537-1.479-.537-2.425 0-.951.179-1.761.537-2.429.358-.667.845-1.176 1.462-1.525.616-.352 1.312-.529 2.088-.529.773 0 1.467.177 2.084.529.616.35 1.103.858 1.461 1.525.361.668.541 1.478.541 2.43zm-1.87 0c0-.926-.202-1.632-.605-2.117-.404-.49-.941-.733-1.611-.733-.671 0-1.208.244-1.611.732-.403.486-.605 1.192-.605 2.118 0 .924.202 1.63.605 2.118.403.489.94.733 1.611.733.67 0 1.207-.244 1.611-.733.403-.488.605-1.194.605-2.118z" fill="#fff"/>
    <defs>
        <filter id="filter0_d-463562" x="0" y="73" width="155.291" height="36" filterUnits="userSpaceOnUse" color-interpolation-filters="sRGB">
            <feFlood flood-opacity="0" result="BackgroundImageFix"/>
            <feColorMatrix in="SourceAlpha" values="0 0 0 0 0 0 0 0 0 0 0 0 0 0 0 0 0 0 127 0"/>
            <feOffset/>
            <feGaussianBlur stdDeviation="7.5"/>
            <feColorMatrix values="0 0 0 0 0 0 0 0 0 0.819608 0 0 0 0 1 0 0 0 0.6 0"/>
            <feBlend in2="BackgroundImageFix" result="effect1_dropShadow"/>
            <feBlend in="SourceGraphic" in2="effect1_dropShadow" result="shape"/>
        </filter>
        <filter id="filter1_d-540257" x="132.658" y="80.367" width="52.974" height="21.265" filterUnits="userSpaceOnUse" color-interpolation-filters="sRGB">
            <feFlood flood-opacity="0" result="BackgroundImageFix"/>
            <feColorMatrix in="SourceAlpha" values="0 0 0 0 0 0 0 0 0 0 0 0 0 0 0 0 0 0 127 0"/>
            <feOffset/>
            <feGaussianBlur stdDeviation="3.816"/>
            <feColorMatrix values="0 0 0 0 0.929412 0 0 0 0 0.117647 0 0 0 0 1 0 0 0 0.6 0"/>
            <feBlend in2="BackgroundImageFix" result="effect1_dropShadow"/>
            <feBlend in="SourceGraphic" in2="effect1_dropShadow" result="shape"/>
        </filter>
        <filter id="filter2_d-890265" x="18.929" y="29.14" width="154.5" height="57.128" filterUnits="userSpaceOnUse" color-interpolation-filters="sRGB">
            <feFlood flood-opacity="0" result="BackgroundImageFix"/>
            <feColorMatrix in="SourceAlpha" values="0 0 0 0 0 0 0 0 0 0 0 0 0 0 0 0 0 0 127 0"/>
            <feOffset/>
            <feGaussianBlur stdDeviation="7.5"/>
            <feColorMatrix values="0 0 0 0 0 0 0 0 0 0.819608 0 0 0 0 1 0 0 0 0.6 0"/>
            <feBlend in2="BackgroundImageFix" result="effect1_dropShadow"/>
            <feBlend in="SourceGraphic" in2="effect1_dropShadow" result="shape"/>
        </filter>
        <linearGradient id="paint0_linear-319180" x1="96.5" y1="115" x2="96.5" y2="-50.073" gradientUnits="userSpaceOnUse">
            <stop stop-color="#0B032A"/>
            <stop offset="1" stop-color="#0B032A" stop-opacity=".76"/>
        </linearGradient>
        <linearGradient id="paint1_linear-741823" x1="96" y1="38" x2="96" y2="76" gradientUnits="userSpaceOnUse">
            <stop stop-color="#ED1EFF"/>
            <stop offset="1" stop-color="#00D1FF"/>
        </linearGradient>
    </defs>
</svg>
