<svg width="186" height="115" viewBox="0 0 186 115" fill="none" xmlns="http://www.w3.org/2000/svg">
<path d="M54.3829 26.7946C53.2432 25.4916 51.8401 24.8385 50.1704 24.8385H16.0232C15.72 24.8385 15.4718 24.7426 15.2849 24.5507C15.095 24.3619 15 24.1483 15 23.9193V0.919257C15 0.690217 15.095 0.479747 15.2849 0.287848C15.4718 0.0959494 15.72 0 16.0232 0H52.1066C61.2117 0 69.0668 3.72036 75.6689 11.1549L84.4339 21.8486L67.3604 42.6634L54.3829 26.7946ZM117.444 11.0404C124.047 3.68012 131.938 0 141.12 0H177.09C177.393 0 177.62 0.0773785 177.773 0.229041C177.923 0.383798 178 0.612838 178 0.919257V23.9193C178 24.1483 177.923 24.3619 177.773 24.5507C177.62 24.7426 177.393 24.8385 177.09 24.8385H142.943C141.273 24.8385 139.87 25.4916 138.73 26.7946L113.575 57.3839L138.844 88.2023C139.984 89.431 141.347 90.0439 142.943 90.0439H177.09C177.393 90.0439 177.62 90.1398 177.773 90.3317C177.923 90.5236 178 90.7743 178 91.0777V114.078C178 114.307 177.923 114.52 177.773 114.709C177.62 114.901 177.393 114.997 177.09 114.997H141.12C131.938 114.997 124.083 111.28 117.558 103.842L96.6149 78.3133L75.6689 103.842C69.0668 111.28 61.1749 114.997 51.9932 114.997H16.0232C15.72 114.997 15.4902 114.901 15.3401 114.709C15.1869 114.517 15.1134 114.27 15.1134 113.96V90.96C15.1134 90.731 15.1869 90.5205 15.3401 90.3286C15.4902 90.1367 15.72 90.0408 16.0232 90.0408H50.1704C51.7635 90.0408 53.1666 89.3908 54.3829 88.0846L79.0818 57.9565L117.444 11.0404Z" fill="#00D1FF"/>
<rect x="15" width="163" height="115" fill="url(#paint0_linear-319180)"/>
<g filter="url(#filter0_d-463562)">
<rect width="125.291" height="6" transform="matrix(-1 0 0 1 140.291 88)" fill="#00D1FF"/>
<rect x="-1" y="1" width="123.291" height="4" transform="matrix(-1 0 0 1 138.291 88)" stroke="#00D1FF" stroke-width="2"/>
</g>
<g filter="url(#filter1_d-540257)">
<rect x="-1" y="1" width="35.709" height="4" transform="matrix(-1 0 0 1 176 88)" stroke="#ED1EFF" stroke-width="2"/>
</g>
<g filter="url(#filter2_d-890265)">
<path d="M50.5008 53.704C53.8714 53.704 56.4634 54.3867 58.2768 55.752C60.0901 57.096 60.9968 59.016 60.9968 61.512C60.9968 63.1547 60.4741 64.5947 59.4288 65.832C58.4048 67.048 56.9328 67.9867 55.0128 68.648C53.0928 69.3093 50.8528 69.64 48.2928 69.64C44.1328 69.64 40.9434 68.68 38.7248 66.76C36.5274 64.8187 35.4288 62.024 35.4288 58.376C35.4288 54.472 36.6021 51.4533 38.9488 49.32C41.2954 47.1867 44.6234 46.12 48.9328 46.12C52.0474 46.12 54.6394 46.6533 56.7088 47.72C58.7994 48.7653 60.1541 50.2373 60.7728 52.136L52.5808 53.032C52.3034 52.4987 51.8234 52.0933 51.1408 51.816C50.4581 51.5173 49.6048 51.368 48.5808 51.368C47.0234 51.368 45.7861 51.752 44.8688 52.52C43.9728 53.2667 43.4288 54.376 43.2368 55.848C45.0501 54.4187 47.4714 53.704 50.5008 53.704ZM48.2608 64.392C49.6048 64.392 50.6928 64.136 51.5248 63.624C52.3568 63.0907 52.7728 62.3973 52.7728 61.544C52.7728 60.6053 52.4101 59.88 51.6848 59.368C50.9594 58.8347 49.9461 58.568 48.6448 58.568C47.5568 58.568 46.5754 58.76 45.7008 59.144C44.8261 59.528 44.0901 60.0933 43.4928 60.84C44.0901 63.208 45.6794 64.392 48.2608 64.392ZM74.7733 69.64C72.5333 69.64 70.5279 69.3627 68.7573 68.808C67.0079 68.232 65.5999 67.4213 64.5333 66.376C63.4879 65.3093 62.8799 64.0827 62.7093 62.696L70.5173 61.896C70.6666 62.6427 71.1359 63.24 71.9253 63.688C72.7146 64.136 73.7066 64.36 74.9013 64.36C76.2453 64.36 77.2799 64.104 78.0053 63.592C78.7519 63.08 79.1253 62.3547 79.1253 61.416C79.1253 60.4987 78.7626 59.7947 78.0373 59.304C77.3119 58.8133 76.2666 58.568 74.9013 58.568C73.8773 58.568 72.9919 58.76 72.2453 59.144C71.5199 59.5067 70.9866 60.008 70.6453 60.648L63.6053 60.04L65.0453 46.76H85.4933V52.168H71.2853L70.8053 56.008C71.4026 55.2827 72.2986 54.7173 73.4933 54.312C74.6879 53.9067 76.0746 53.704 77.6533 53.704C79.6586 53.704 81.3866 54.0133 82.8373 54.632C84.3093 55.2507 85.4399 56.136 86.2293 57.288C87.0186 58.44 87.4133 59.7947 87.4133 61.352C87.4133 63.016 86.8906 64.4773 85.8453 65.736C84.8213 66.9733 83.3599 67.9333 81.4613 68.616C79.5626 69.2987 77.3333 69.64 74.7733 69.64ZM102.839 69.768C100.236 69.768 97.911 69.3093 95.863 68.392C93.8363 67.4747 92.2363 66.12 91.063 64.328C89.911 62.536 89.335 60.392 89.335 57.896C89.335 55.4 89.911 53.256 91.063 51.464C92.2363 49.672 93.8363 48.3173 95.863 47.4C97.911 46.4613 100.236 45.992 102.839 45.992C105.442 45.992 107.756 46.4613 109.783 47.4C111.831 48.3173 113.431 49.672 114.583 51.464C115.756 53.256 116.343 55.4 116.343 57.896C116.343 60.392 115.756 62.536 114.583 64.328C113.431 66.12 111.831 67.4747 109.783 68.392C107.756 69.3093 105.442 69.768 102.839 69.768ZM102.839 64.296C104.375 64.296 105.634 63.784 106.615 62.76C107.596 61.736 108.087 60.1147 108.087 57.896C108.087 55.6773 107.596 54.056 106.615 53.032C105.634 51.9867 104.375 51.464 102.839 51.464C101.303 51.464 100.044 51.9867 99.063 53.032C98.0817 54.056 97.591 55.6773 97.591 57.896C97.591 60.1147 98.0817 61.736 99.063 62.76C100.044 63.784 101.303 64.296 102.839 64.296ZM147.937 45.64H153.697L127.361 69.448H121.601L147.937 45.64ZM127.009 58.728C125.195 58.728 123.595 58.472 122.209 57.96C120.843 57.4267 119.787 56.68 119.041 55.72C118.294 54.7387 117.921 53.5973 117.921 52.296C117.921 51.0373 118.294 49.928 119.041 48.968C119.787 47.9867 120.843 47.24 122.209 46.728C123.595 46.1947 125.185 45.928 126.977 45.928C128.747 45.928 130.315 46.1947 131.681 46.728C133.067 47.2613 134.145 48.0187 134.913 49C135.681 49.96 136.065 51.08 136.065 52.36C136.065 53.64 135.681 54.76 134.913 55.72C134.145 56.68 133.078 57.4267 131.713 57.96C130.347 58.472 128.779 58.728 127.009 58.728ZM127.009 54.952C127.905 54.952 128.619 54.728 129.153 54.28C129.707 53.8107 129.985 53.1707 129.985 52.36C129.985 51.528 129.707 50.8773 129.153 50.408C128.619 49.9387 127.894 49.704 126.977 49.704C126.059 49.704 125.313 49.9387 124.737 50.408C124.182 50.856 123.905 51.4853 123.905 52.296C123.905 53.128 124.182 53.7787 124.737 54.248C125.313 54.7173 126.07 54.952 127.009 54.952ZM147.905 69.576C146.091 69.576 144.491 69.32 143.105 68.808C141.739 68.2747 140.673 67.5173 139.905 66.536C139.158 65.5547 138.785 64.4133 138.785 63.112C138.785 61.8533 139.158 60.744 139.905 59.784C140.673 58.8027 141.739 58.056 143.105 57.544C144.491 57.0107 146.081 56.744 147.873 56.744C149.643 56.744 151.211 57.0107 152.576 57.544C153.963 58.0773 155.03 58.8347 155.777 59.816C156.545 60.7973 156.929 61.928 156.929 63.208C156.929 64.488 156.545 65.608 155.777 66.568C155.03 67.528 153.974 68.2747 152.609 68.808C151.243 69.32 149.675 69.576 147.905 69.576ZM147.905 65.8C148.801 65.8 149.515 65.5653 150.049 65.096C150.603 64.6267 150.881 63.9973 150.881 63.208C150.881 62.376 150.603 61.7253 150.049 61.256C149.515 60.7653 148.79 60.52 147.873 60.52C146.934 60.52 146.187 60.7547 145.633 61.224C145.078 61.6933 144.801 62.3227 144.801 63.112C144.801 63.944 145.078 64.6053 145.633 65.096C146.187 65.5653 146.945 65.8 147.905 65.8Z" fill="#161B44"/>
<path d="M58.2768 55.752L57.3745 56.9503L57.3836 56.9571L58.2768 55.752ZM59.4288 65.832L58.2829 64.864L58.2814 64.8658L59.4288 65.832ZM55.0128 68.648L54.5243 67.2298L55.0128 68.648ZM38.7248 66.76L37.7316 67.8841L37.7374 67.8892L37.7432 67.8943L38.7248 66.76ZM38.9488 49.32L39.9578 50.4299H39.9578L38.9488 49.32ZM56.7088 47.72L56.0215 49.0533L56.0297 49.0575L56.0379 49.0616L56.7088 47.72ZM60.7728 52.136L60.9358 53.6271L62.7708 53.4264L62.1989 51.6713L60.7728 52.136ZM52.5808 53.032L51.2499 53.724L51.7235 54.6347L52.7438 54.5231L52.5808 53.032ZM51.1408 51.816L50.5395 53.1902L50.5578 53.1982L50.5762 53.2057L51.1408 51.816ZM44.8688 52.52L45.829 53.6723L45.8317 53.6701L44.8688 52.52ZM43.2368 55.848L41.7494 55.654L41.273 59.3058L44.1653 57.026L43.2368 55.848ZM51.5248 63.624L52.3109 64.9015L52.3226 64.8943L52.3343 64.8868L51.5248 63.624ZM51.6848 59.368L50.7962 60.5765L50.8079 60.5851L50.8197 60.5935L51.6848 59.368ZM45.7008 59.144L45.0978 57.7705H45.0978L45.7008 59.144ZM43.4928 60.84L42.3214 59.903L41.8561 60.4846L42.0383 61.2069L43.4928 60.84ZM50.5008 55.204C53.6966 55.204 55.9202 55.8553 57.3745 56.9503L59.179 54.5537C57.0066 52.918 54.0462 52.204 50.5008 52.204V55.204ZM57.3836 56.9571C58.7708 57.9853 59.4968 59.4331 59.4968 61.512H62.4968C62.4968 58.5989 61.4094 56.2067 59.1699 54.5469L57.3836 56.9571ZM59.4968 61.512C59.4968 62.8058 59.096 63.9015 58.2829 64.864L60.5746 66.8C61.8521 65.2878 62.4968 63.5036 62.4968 61.512H59.4968ZM58.2814 64.8658C57.4743 65.8242 56.2578 66.6327 54.5243 67.2298L55.5013 70.0662C57.6077 69.3407 59.3352 68.2718 60.5761 66.7982L58.2814 64.8658ZM54.5243 67.2298C52.7963 67.825 50.7279 68.14 48.2928 68.14V71.14C50.9776 71.14 53.3892 70.7937 55.5013 70.0662L54.5243 67.2298ZM48.2928 68.14C44.3443 68.14 41.5576 67.2278 39.7063 65.6257L37.7432 67.8943C40.3292 70.1322 43.9212 71.14 48.2928 71.14V68.14ZM39.7179 65.6359C37.919 64.0466 36.9288 61.7073 36.9288 58.376H33.9288C33.9288 62.3407 35.1358 65.5908 37.7316 67.8841L39.7179 65.6359ZM36.9288 58.376C36.9288 54.7894 37.994 52.2151 39.9578 50.4299L37.9397 48.2101C35.2102 50.6915 33.9288 54.1546 33.9288 58.376H36.9288ZM39.9578 50.4299C41.9423 48.6258 44.8611 47.62 48.9328 47.62V44.62C44.3857 44.62 40.6486 45.7475 37.9397 48.2101L39.9578 50.4299ZM48.9328 47.62C51.8856 47.62 54.2241 48.1268 56.0215 49.0533L57.396 46.3867C55.0547 45.1798 52.2092 44.62 48.9328 44.62V47.62ZM56.0379 49.0616C57.8358 49.9606 58.8734 51.1487 59.3466 52.6007L62.1989 51.6713C61.4348 49.326 59.763 47.5701 57.3796 46.3784L56.0379 49.0616ZM60.6097 50.6449L52.4177 51.5409L52.7438 54.5231L60.9358 53.6271L60.6097 50.6449ZM53.9116 52.34C53.435 51.4235 52.6408 50.8063 51.7053 50.4263L50.5762 53.2057C51.0061 53.3803 51.1718 53.5739 51.2499 53.724L53.9116 52.34ZM51.742 50.4418C50.8129 50.0353 49.7391 49.868 48.5808 49.868V52.868C49.4705 52.868 50.1033 52.9994 50.5395 53.1902L51.742 50.4418ZM48.5808 49.868C46.7792 49.868 45.1657 50.3151 43.9058 51.3699L45.8317 53.6701C46.4065 53.1889 47.2676 52.868 48.5808 52.868V49.868ZM43.9085 51.3677C42.6496 52.4167 41.9764 53.9136 41.7494 55.654L44.7242 56.042C44.8811 54.8384 45.2959 54.1166 45.829 53.6723L43.9085 51.3677ZM44.1653 57.026C45.6416 55.8624 47.7027 55.204 50.5008 55.204V52.204C47.2401 52.204 44.4586 52.975 42.3082 54.67L44.1653 57.026ZM48.2608 65.892C49.782 65.892 51.1696 65.6038 52.3109 64.9015L50.7386 62.3465C50.2159 62.6682 49.4275 62.892 48.2608 62.892V65.892ZM52.3343 64.8868C53.5169 64.1287 54.2728 62.9963 54.2728 61.544H51.2728C51.2728 61.7983 51.1966 62.0526 50.7153 62.3612L52.3343 64.8868ZM54.2728 61.544C54.2728 60.1509 53.6995 58.9541 52.5498 58.1425L50.8197 60.5935C51.1207 60.8059 51.2728 61.0598 51.2728 61.544H54.2728ZM52.5733 58.1595C51.4985 57.3692 50.1288 57.068 48.6448 57.068V60.068C49.7634 60.068 50.4203 60.3001 50.7962 60.5765L52.5733 58.1595ZM48.6448 57.068C47.3779 57.068 46.1872 57.2923 45.0978 57.7705L46.3037 60.5175C46.9636 60.2277 47.7356 60.068 48.6448 60.068V57.068ZM45.0978 57.7705C44.001 58.2521 43.07 58.9672 42.3214 59.903L44.6641 61.777C45.1101 61.2194 45.6512 60.8039 46.3037 60.5175L45.0978 57.7705ZM42.0383 61.2069C42.4012 62.6454 43.1056 63.8643 44.2366 64.7069C45.3589 65.543 46.7449 65.892 48.2608 65.892V62.892C47.1953 62.892 46.4959 62.649 46.0289 62.3011C45.5706 61.9597 45.1817 61.4026 44.9472 60.4731L42.0383 61.2069ZM68.7573 68.808L68.2881 70.2328L68.2985 70.2362L68.3089 70.2394L68.7573 68.808ZM64.5333 66.376L63.4619 67.4259L63.4725 67.4367L63.4834 67.4473L64.5333 66.376ZM62.7092 62.696L62.5564 61.2038L61.0335 61.3598L61.2205 62.8792L62.7092 62.696ZM70.5173 61.896L71.9881 61.6018L71.7207 60.2648L70.3644 60.4038L70.5173 61.896ZM78.0052 63.592L77.157 62.3549L77.1486 62.3607L77.1402 62.3665L78.0052 63.592ZM78.0373 59.304L77.1968 60.5464H77.1968L78.0373 59.304ZM72.2453 59.144L72.9161 60.4856L72.9237 60.4818L72.9313 60.4779L72.2453 59.144ZM70.6452 60.648L70.5162 62.1424L71.5028 62.2276L71.9688 61.3539L70.6452 60.648ZM63.6052 60.04L62.114 59.8783L61.9487 61.4025L63.4762 61.5344L63.6052 60.04ZM65.0452 46.76V45.26H63.6991L63.554 46.5983L65.0452 46.76ZM85.4933 46.76H86.9933V45.26H85.4933V46.76ZM85.4933 52.168V53.668H86.9933V52.168H85.4933ZM71.2853 52.168V50.668H69.9611L69.7968 51.9819L71.2853 52.168ZM70.8053 56.008L69.3168 55.8219L68.6753 60.9539L71.9631 56.9616L70.8053 56.008ZM73.4933 54.312L73.9752 55.7325L73.4933 54.312ZM82.8372 54.632L82.2488 56.0118L82.2561 56.0148L82.8372 54.632ZM86.2293 57.288L87.4667 56.4402V56.4402L86.2293 57.288ZM85.8453 65.736L84.6913 64.7776L84.6897 64.7796L85.8453 65.736ZM81.4613 68.616L80.9537 67.2045V67.2045L81.4613 68.616ZM74.7733 68.14C72.6549 68.14 70.8048 67.8775 69.2056 67.3766L68.3089 70.2394C70.2511 70.8478 72.4116 71.14 74.7733 71.14V68.14ZM69.2264 67.3832C67.6453 66.8626 66.4521 66.1562 65.5831 65.3047L63.4834 67.4473C64.7478 68.6864 66.3705 69.6014 68.2881 70.2328L69.2264 67.3832ZM65.6046 65.3261C64.7728 64.4774 64.3256 63.5493 64.198 62.5128L61.2205 62.8792C61.4342 64.616 62.203 66.1413 63.4619 67.4259L65.6046 65.3261ZM62.8621 64.1882L70.6701 63.3882L70.3644 60.4038L62.5564 61.2038L62.8621 64.1882ZM69.0464 62.1902C69.2976 63.4461 70.0968 64.375 71.1848 64.9925L72.6657 62.3835C72.1751 62.105 72.0356 61.8393 71.9881 61.6018L69.0464 62.1902ZM71.1848 64.9925C72.2603 65.6029 73.5266 65.86 74.9013 65.86V62.86C73.8865 62.86 73.1689 62.6691 72.6657 62.3835L71.1848 64.9925ZM74.9013 65.86C76.4053 65.86 77.7922 65.5784 78.8703 64.8175L77.1402 62.3665C76.7676 62.6296 76.0852 62.86 74.9013 62.86V65.86ZM78.8535 64.8291C80.0257 64.0253 80.6253 62.8275 80.6253 61.416H77.6253C77.6253 61.8818 77.4781 62.1347 77.157 62.3549L78.8535 64.8291ZM80.6253 61.416C80.6253 60.029 80.0383 58.8467 78.8777 58.0616L77.1968 60.5464C77.4868 60.7426 77.6253 60.9684 77.6253 61.416H80.6253ZM78.8777 58.0616C77.8011 57.3333 76.4112 57.068 74.9013 57.068V60.068C76.122 60.068 76.8227 60.2934 77.1968 60.5464L78.8777 58.0616ZM74.9013 57.068C73.6903 57.068 72.5598 57.2955 71.5592 57.8101L72.9313 60.4779C73.4241 60.2245 74.0642 60.068 74.9013 60.068V57.068ZM71.5744 57.8024C70.6051 58.287 69.8265 58.9957 69.3217 59.9421L71.9688 61.3539C72.1467 61.0203 72.4347 60.7263 72.9161 60.4856L71.5744 57.8024ZM70.7743 59.1536L63.7343 58.5456L63.4762 61.5344L70.5162 62.1424L70.7743 59.1536ZM65.0965 60.2017L66.5365 46.9217L63.554 46.5983L62.114 59.8783L65.0965 60.2017ZM65.0452 48.26H85.4933V45.26H65.0452V48.26ZM83.9933 46.76V52.168H86.9933V46.76H83.9933ZM85.4933 50.668H71.2853V53.668H85.4933V50.668ZM69.7968 51.9819L69.3168 55.8219L72.2937 56.1941L72.7737 52.3541L69.7968 51.9819ZM71.9631 56.9616C72.332 56.5136 72.957 56.0779 73.9752 55.7325L73.0113 52.8915C71.6402 53.3567 70.4731 54.0517 69.6474 55.0544L71.9631 56.9616ZM73.9752 55.7325C74.9813 55.3911 76.1991 55.204 77.6533 55.204V52.204C75.9501 52.204 74.3946 52.4222 73.0113 52.8915L73.9752 55.7325ZM77.6533 55.204C79.5092 55.204 81.0273 55.4908 82.2488 56.0118L83.4257 53.2522C81.7459 52.5358 79.808 52.204 77.6533 52.204V55.204ZM82.2561 56.0148C83.5016 56.5383 84.3878 57.2542 84.9919 58.1358L87.4667 56.4402C86.4921 55.0178 85.1169 53.963 83.4184 53.2492L82.2561 56.0148ZM84.9919 58.1358C85.5907 59.0099 85.9133 60.061 85.9133 61.352H88.9133C88.9133 59.5283 88.4465 57.8701 87.4667 56.4402L84.9919 58.1358ZM85.9133 61.352C85.9133 62.6725 85.5089 63.7932 84.6913 64.7776L86.9992 66.6944C88.2723 65.1614 88.9133 63.3595 88.9133 61.352H85.9133ZM84.6897 64.7796C83.8757 65.7631 82.6636 66.5897 80.9537 67.2045L81.9688 70.0275C84.0563 69.277 85.7668 68.1835 87.0008 66.6924L84.6897 64.7796ZM80.9537 67.2045C79.255 67.8153 77.2046 68.14 74.7733 68.14V71.14C77.4619 71.14 79.8702 70.7821 81.9688 70.0275L80.9537 67.2045ZM95.863 68.392L95.2445 69.7585L95.2498 69.7609L95.863 68.392ZM91.063 64.328L89.8012 65.1392L89.8081 65.1497L91.063 64.328ZM91.063 51.464L89.808 50.6423L89.8012 50.6529L91.063 51.464ZM95.863 47.4L96.4815 48.7665L96.488 48.7636L95.863 47.4ZM109.783 47.4L109.153 48.7611L109.161 48.7651L109.17 48.7689L109.783 47.4ZM114.583 51.464L113.321 52.2752L113.328 52.2857L114.583 51.464ZM114.583 64.328L113.328 63.5063L113.321 63.5169L114.583 64.328ZM109.783 68.392L109.17 67.023L109.164 67.0255L109.783 68.392ZM106.615 53.032L105.521 54.0587L105.527 54.0643L105.532 54.0699L106.615 53.032ZM99.063 53.032L100.146 54.0699L100.151 54.0643L100.157 54.0587L99.063 53.032ZM102.839 68.268C100.414 68.268 98.3029 67.8413 96.4762 67.0231L95.2498 69.7609C97.5191 70.7774 100.059 71.268 102.839 71.268V68.268ZM96.4815 67.0255C94.7039 66.2209 93.329 65.0504 92.3179 63.5063L89.8081 65.1497C91.1437 67.1896 92.9688 68.7285 95.2445 69.7585L96.4815 67.0255ZM92.3248 63.5169C91.3534 62.0059 90.835 60.1547 90.835 57.896H87.835C87.835 60.6293 88.4686 63.0661 89.8012 65.1391L92.3248 63.5169ZM90.835 57.896C90.835 55.6373 91.3534 53.7861 92.3248 52.2751L89.8012 50.6529C88.4686 52.7259 87.835 55.1627 87.835 57.896H90.835ZM92.3179 52.2857C93.329 50.7416 94.7039 49.5711 96.4815 48.7665L95.2445 46.0335C92.9688 47.0635 91.1437 48.6024 89.8081 50.6423L92.3179 52.2857ZM96.488 48.7636C98.3117 47.9277 100.419 47.492 102.839 47.492V44.492C100.054 44.492 97.5103 44.9949 95.238 46.0364L96.488 48.7636ZM102.839 47.492C105.26 47.492 107.354 47.9279 109.153 48.7611L110.413 46.0389C108.159 44.9948 105.624 44.492 102.839 44.492V47.492ZM109.17 48.7689C110.967 49.5739 112.335 50.7415 113.321 52.2751L115.845 50.6529C114.527 48.6025 112.695 47.0607 110.396 46.0311L109.17 48.7689ZM113.328 52.2857C114.316 53.7952 114.843 55.6426 114.843 57.896H117.843C117.843 55.1574 117.196 52.7168 115.838 50.6423L113.328 52.2857ZM114.843 57.896C114.843 60.1494 114.316 61.9968 113.328 63.5063L115.838 65.1497C117.196 63.0752 117.843 60.6346 117.843 57.896H114.843ZM113.321 63.5169C112.335 65.0505 110.967 66.2181 109.17 67.0231L110.396 69.7609C112.695 68.7313 114.527 67.1895 115.845 65.1391L113.321 63.5169ZM109.164 67.0255C107.362 67.8411 105.264 68.268 102.839 68.268V71.268C105.619 71.268 108.15 70.7775 110.402 69.7585L109.164 67.0255ZM102.839 65.796C104.746 65.796 106.409 65.1432 107.698 63.7979L105.532 61.7221C104.859 62.4248 104.004 62.796 102.839 62.796V65.796ZM107.698 63.7979C109.064 62.3726 109.587 60.2908 109.587 57.896H106.587C106.587 59.9386 106.129 61.0994 105.532 61.7221L107.698 63.7979ZM109.587 57.896C109.587 55.5012 109.064 53.4194 107.698 51.9941L105.532 54.0699C106.129 54.6926 106.587 55.8534 106.587 57.896H109.587ZM107.709 52.0053C106.422 50.6347 104.756 49.964 102.839 49.964V52.964C103.994 52.964 104.845 53.3386 105.521 54.0587L107.709 52.0053ZM102.839 49.964C100.922 49.964 99.2561 50.6347 97.9694 52.0053L100.157 54.0587C100.833 53.3386 101.684 52.964 102.839 52.964V49.964ZM97.98 51.9941C96.6141 53.4194 96.091 55.5012 96.091 57.896H99.091C99.091 55.8534 99.5492 54.6926 100.146 54.0699L97.98 51.9941ZM96.091 57.896C96.091 60.2908 96.6141 62.3726 97.98 63.7979L100.146 61.7221C99.5492 61.0994 99.091 59.9386 99.091 57.896H96.091ZM97.98 63.7979C99.2693 65.1432 100.932 65.796 102.839 65.796V62.796C101.674 62.796 100.819 62.4248 100.146 61.7221L97.98 63.7979ZM147.937 45.64V44.14H147.359L146.931 44.5273L147.937 45.64ZM153.697 45.64L154.702 46.7527L157.593 44.14H153.697V45.64ZM127.361 69.448V70.948H127.938L128.366 70.5607L127.361 69.448ZM121.601 69.448L120.595 68.3353L117.704 70.948H121.601V69.448ZM122.209 57.96L121.663 59.3572L121.676 59.3623L121.689 59.3671L122.209 57.96ZM119.04 55.72L117.847 56.6283L117.852 56.6346L117.856 56.6409L119.04 55.72ZM119.04 48.968L120.225 49.8889L120.229 49.8826L120.234 49.8763L119.04 48.968ZM122.209 46.728L122.735 48.1325L122.747 48.128L122.209 46.728ZM131.681 46.728L131.135 48.1252L131.142 48.128L131.681 46.728ZM134.912 49L133.731 49.9245L133.736 49.9308L133.741 49.937L134.912 49ZM134.912 55.72L133.741 54.783L134.912 55.72ZM131.713 57.96L132.239 59.3645L132.249 59.3609L132.258 59.3572L131.713 57.96ZM129.152 54.28L130.117 55.4286L130.121 55.4251L129.152 54.28ZM129.152 50.408L128.162 51.5341L128.172 51.5437L128.184 51.5531L129.152 50.408ZM124.737 50.408L125.679 51.5749L125.684 51.5709L124.737 50.408ZM124.737 54.248L123.768 55.3931L123.778 55.4021L123.789 55.4109L124.737 54.248ZM143.104 68.808L142.559 70.2052L142.572 70.2103L142.585 70.2151L143.104 68.808ZM139.905 66.536L138.711 67.4443L138.717 67.4524L138.723 67.4605L139.905 66.536ZM139.905 59.784L138.723 58.8595L138.72 58.8631L139.905 59.784ZM143.104 57.544L143.631 58.9485L143.643 58.944L143.104 57.544ZM152.576 57.544L152.031 58.9412L152.038 58.944L152.576 57.544ZM155.777 59.816L154.583 60.7243L154.589 60.7324L154.595 60.7405L155.777 59.816ZM155.777 66.568L154.605 65.631L154.599 65.639L154.592 65.6471L155.777 66.568ZM152.609 68.808L153.135 70.2125L153.145 70.2089L153.154 70.2052L152.609 68.808ZM150.049 65.096L149.08 63.9509L149.068 63.9603L149.058 63.9699L150.049 65.096ZM150.049 61.256L149.033 62.3599L149.056 62.381L149.08 62.4011L150.049 61.256ZM145.632 61.224L144.664 60.0789L145.632 61.224ZM145.632 65.096L144.639 66.2195L144.651 66.2304L144.664 66.2411L145.632 65.096ZM147.937 47.14H153.697V44.14H147.937V47.14ZM152.691 44.5273L126.355 68.3353L128.366 70.5607L154.702 46.7527L152.691 44.5273ZM127.361 67.948H121.601V70.948H127.361V67.948ZM122.606 70.5607L148.942 46.7527L146.931 44.5273L120.595 68.3353L122.606 70.5607ZM127.008 57.228C125.334 57.228 123.915 56.9913 122.728 56.5529L121.689 59.3671C123.275 59.9527 125.057 60.228 127.008 60.228V57.228ZM122.754 56.5628C121.589 56.1076 120.774 55.5057 120.225 54.7991L117.856 56.6409C118.8 57.8543 120.097 58.7457 121.663 59.3572L122.754 56.5628ZM120.234 54.8117C119.698 54.1065 119.421 53.2886 119.421 52.296H116.421C116.421 53.906 116.89 55.3708 117.847 56.6283L120.234 54.8117ZM119.421 52.296C119.421 51.3583 119.69 50.5759 120.225 49.8889L117.856 48.0471C116.897 49.2801 116.421 50.7163 116.421 52.296H119.421ZM120.234 49.8763C120.781 49.1582 121.586 48.5636 122.735 48.1325L121.682 45.3235C120.101 45.9164 118.794 46.8152 117.847 48.0597L120.234 49.8763ZM122.747 48.128C123.93 47.6729 125.332 47.428 126.977 47.428V44.428C125.037 44.428 123.26 44.7165 121.67 45.328L122.747 48.128ZM126.977 47.428C128.598 47.428 129.975 47.6723 131.135 48.1252L132.226 45.3308C130.655 44.717 128.896 44.428 126.977 44.428V47.428ZM131.142 48.128C132.324 48.5828 133.16 49.1948 133.731 49.9245L136.094 48.0755C135.129 46.8426 133.81 45.9399 132.219 45.328L131.142 48.128ZM133.741 49.937C134.287 50.6195 134.564 51.4055 134.564 52.36H137.564C137.564 50.7545 137.074 49.3005 136.084 48.063L133.741 49.937ZM134.564 52.36C134.564 53.3145 134.287 54.1005 133.741 54.783L136.084 56.657C137.074 55.4195 137.564 53.9655 137.564 52.36H134.564ZM133.741 54.783C133.167 55.501 132.334 56.1068 131.167 56.5628L132.258 59.3572C133.822 58.7465 135.122 57.859 136.084 56.657L133.741 54.783ZM131.186 56.5555C130.021 56.9924 128.637 57.228 127.008 57.228V60.228C128.922 60.228 130.674 59.9516 132.239 59.3645L131.186 56.5555ZM127.008 56.452C128.154 56.452 129.244 56.1621 130.117 55.4286L128.188 53.1314C127.994 53.2939 127.655 53.452 127.008 53.452V56.452ZM130.121 55.4251C131.054 54.6356 131.484 53.5545 131.484 52.36H128.484C128.484 52.7869 128.36 52.9857 128.184 53.1349L130.121 55.4251ZM131.484 52.36C131.484 51.1582 131.064 50.0604 130.121 49.2629L128.184 51.5531C128.35 51.6943 128.484 51.8978 128.484 52.36H131.484ZM130.143 49.2819C129.264 48.5082 128.15 48.204 126.977 48.204V51.204C127.638 51.204 127.974 51.3691 128.162 51.5341L130.143 49.2819ZM126.977 48.204C125.797 48.204 124.691 48.5103 123.789 49.2451L125.684 51.5709C125.934 51.367 126.321 51.204 126.977 51.204V48.204ZM123.794 49.2411C122.836 50.0151 122.405 51.1021 122.405 52.296H125.405C125.405 51.8685 125.528 51.6969 125.679 51.5749L123.794 49.2411ZM122.405 52.296C122.405 53.4978 122.825 54.5956 123.768 55.3931L125.705 53.1029C125.539 52.9617 125.405 52.7582 125.405 52.296H122.405ZM123.789 55.4109C124.697 56.1505 125.818 56.452 127.008 56.452V53.452C126.322 53.452 125.928 53.2842 125.684 53.0851L123.789 55.4109ZM147.905 68.076C146.23 68.076 144.811 67.8393 143.624 67.4009L142.585 70.2151C144.171 70.8007 145.953 71.076 147.905 71.076V68.076ZM143.65 67.4108C142.491 66.9579 141.661 66.3465 141.086 65.6115L138.723 67.4605C139.684 68.6882 140.988 69.5915 142.559 70.2052L143.65 67.4108ZM141.098 65.6277C140.562 64.9225 140.285 64.1046 140.285 63.112H137.285C137.285 64.722 137.754 66.1868 138.711 67.4443L141.098 65.6277ZM140.285 63.112C140.285 62.1743 140.554 61.3919 141.089 60.7049L138.72 58.8631C137.761 60.0961 137.285 61.5323 137.285 63.112H140.285ZM141.086 60.7085C141.657 59.9789 142.479 59.3804 143.631 58.9485L142.578 56.1395C140.999 56.7316 139.688 57.6264 138.723 58.8595L141.086 60.7085ZM143.643 58.944C144.826 58.4889 146.228 58.244 147.872 58.244V55.244C145.933 55.244 144.156 55.5325 142.566 56.144L143.643 58.944ZM147.872 58.244C149.494 58.244 150.871 58.4883 152.031 58.9412L153.122 56.1468C151.551 55.533 149.792 55.244 147.872 55.244V58.244ZM152.038 58.944C153.218 59.398 154.036 60.0061 154.583 60.7243L156.97 58.9077C156.023 57.6632 154.708 56.7567 153.115 56.144L152.038 58.944ZM154.595 60.7405C155.151 61.4502 155.428 62.2533 155.428 63.208H158.428C158.428 61.6027 157.938 60.1444 156.958 58.8915L154.595 60.7405ZM155.428 63.208C155.428 64.1625 155.151 64.9485 154.605 65.631L156.948 67.505C157.938 66.2675 158.428 64.8135 158.428 63.208H155.428ZM154.592 65.6471C154.043 66.3537 153.228 66.9556 152.063 67.4108L153.154 70.2052C154.72 69.5937 156.017 68.7023 156.961 67.4889L154.592 65.6471ZM152.082 67.4035C150.917 67.8404 149.533 68.076 147.905 68.076V71.076C149.818 71.076 151.57 70.7996 153.135 70.2125L152.082 67.4035ZM147.905 67.3C149.067 67.3 150.166 66.9903 151.039 66.2221L149.058 63.9699C148.864 64.1403 148.534 64.3 147.905 64.3V67.3ZM151.017 66.2411C151.941 65.46 152.381 64.3954 152.381 63.208H149.381C149.381 63.5993 149.266 63.7934 149.08 63.9509L151.017 66.2411ZM152.381 63.208C152.381 62.0062 151.96 60.9084 151.017 60.1109L149.08 62.4011C149.246 62.5423 149.381 62.7458 149.381 63.208H152.381ZM151.064 60.1521C150.186 59.3442 149.062 59.02 147.872 59.02V62.02C148.517 62.02 148.844 62.1865 149.033 62.3599L151.064 60.1521ZM147.872 59.02C146.685 59.02 145.56 59.3204 144.664 60.0789L146.601 62.3691C146.814 62.1889 147.183 62.02 147.872 62.02V59.02ZM144.664 60.0789C143.74 60.86 143.3 61.9246 143.3 63.112H146.3C146.3 62.7207 146.415 62.5266 146.601 62.3691L144.664 60.0789ZM143.3 63.112C143.3 64.3146 143.72 65.4072 144.639 66.2195L146.626 63.9725C146.435 63.8035 146.3 63.5734 146.3 63.112H143.3ZM144.664 66.2411C145.566 67.0044 146.705 67.3 147.905 67.3V64.3C147.184 64.3 146.809 64.1262 146.601 63.9509L144.664 66.2411Z" fill="url(#paint1_linear-741823)"/>
</g>
<path d="M78.8651 26.3281H76.9986C76.9276 25.848 76.723 25.4716 76.3849 25.1989C76.0469 24.9233 75.625 24.7855 75.1193 24.7855C74.4432 24.7855 73.9006 25.0341 73.4915 25.5312C73.0852 26.0256 72.8821 26.7273 72.8821 27.6364C72.8821 28.5682 73.0866 29.277 73.4957 29.7628C73.9077 30.2457 74.4446 30.4872 75.1065 30.4872C75.598 30.4872 76.0142 30.3594 76.3551 30.1037C76.696 29.8452 76.9105 29.483 76.9986 29.017L78.8651 29.0256C78.7997 29.5597 78.6094 30.0625 78.294 30.5341C77.9787 31.0057 77.5497 31.3878 77.0071 31.6804C76.4673 31.973 75.8239 32.1193 75.0767 32.1193C74.2983 32.1193 73.6023 31.9432 72.9886 31.5909C72.3778 31.2386 71.8949 30.7287 71.5398 30.0611C71.1875 29.3935 71.0114 28.5852 71.0114 27.6364C71.0114 26.6847 71.1903 25.875 71.5483 25.2074C71.9063 24.5398 72.392 24.0312 73.0057 23.6818C73.6193 23.3295 74.3097 23.1534 75.0767 23.1534C75.75 23.1534 76.3565 23.2784 76.8963 23.5284C77.4389 23.7756 77.8821 24.1364 78.2259 24.6108C78.5724 25.0824 78.7855 25.6548 78.8651 26.3281ZM84.2322 26.9162V28.3565H80.2521V26.9162H84.2322ZM85.8132 32V23.2727H89.2564C90.2479 23.2727 91.0163 23.5312 91.5618 24.0483C92.1101 24.5653 92.3842 25.2571 92.3842 26.1236C92.3842 26.7202 92.2507 27.2301 91.9837 27.6534C91.7195 28.0767 91.3388 28.3949 90.8416 28.608L92.6953 32H90.6584L89.005 28.9062H87.6584V32H85.8132ZM87.6584 27.4233H88.9112C89.9595 27.4233 90.4837 26.9901 90.4837 26.1236C90.4837 25.2287 89.9567 24.7812 88.9027 24.7812H87.6584V27.4233ZM95.1925 32H93.2152L96.228 23.2727H98.6058L101.614 32H99.6371L98.9893 30.0099H95.8402L95.1925 32ZM96.3089 28.5696H98.5249L97.451 25.267H97.3828L96.3089 28.5696ZM101.254 24.794V23.2727H108.422V24.794H105.75V32H103.926V24.794H101.254ZM111.447 23.2727V32H109.602V23.2727H111.447ZM120.985 27.6364C120.985 28.5881 120.805 29.3977 120.444 30.0653C120.086 30.733 119.599 31.2429 118.983 31.5952C118.366 31.9446 117.672 32.1193 116.899 32.1193C116.123 32.1193 115.427 31.9432 114.811 31.5909C114.194 31.2386 113.707 30.7287 113.349 30.0611C112.991 29.3906 112.812 28.5824 112.812 27.6364C112.812 26.6847 112.991 25.875 113.349 25.2074C113.707 24.5398 114.194 24.0312 114.811 23.6818C115.427 23.3295 116.123 23.1534 116.899 23.1534C117.672 23.1534 118.366 23.3295 118.983 23.6818C119.599 24.0312 120.086 24.5398 120.444 25.2074C120.805 25.875 120.985 26.6847 120.985 27.6364ZM119.115 27.6364C119.115 26.7102 118.913 26.0043 118.51 25.5185C118.106 25.0298 117.569 24.7855 116.899 24.7855C116.228 24.7855 115.691 25.0298 115.288 25.5185C114.885 26.0043 114.683 26.7102 114.683 27.6364C114.683 28.5597 114.885 29.2656 115.288 29.7543C115.691 30.2429 116.228 30.4872 116.899 30.4872C117.569 30.4872 118.106 30.2429 118.51 29.7543C118.913 29.2656 119.115 28.5597 119.115 27.6364Z" fill="white"/>
<defs>
<filter id="filter0_d-463562" x="-3.05176e-05" y="73" width="155.291" height="36" filterUnits="userSpaceOnUse" color-interpolation-filters="sRGB">
<feFlood flood-opacity="0" result="BackgroundImageFix"/>
<feColorMatrix in="SourceAlpha" type="matrix" values="0 0 0 0 0 0 0 0 0 0 0 0 0 0 0 0 0 0 127 0"/>
<feOffset/>
<feGaussianBlur stdDeviation="7.5"/>
<feColorMatrix type="matrix" values="0 0 0 0 0 0 0 0 0 0.819608 0 0 0 0 1 0 0 0 0.6 0"/>
<feBlend mode="normal" in2="BackgroundImageFix" result="effect1_dropShadow"/>
<feBlend mode="normal" in="SourceGraphic" in2="effect1_dropShadow" result="shape"/>
</filter>
<filter id="filter1_d-540257" x="132.658" y="80.3674" width="52.9742" height="21.2653" filterUnits="userSpaceOnUse" color-interpolation-filters="sRGB">
<feFlood flood-opacity="0" result="BackgroundImageFix"/>
<feColorMatrix in="SourceAlpha" type="matrix" values="0 0 0 0 0 0 0 0 0 0 0 0 0 0 0 0 0 0 127 0"/>
<feOffset/>
<feGaussianBlur stdDeviation="3.81632"/>
<feColorMatrix type="matrix" values="0 0 0 0 0.929412 0 0 0 0 0.117647 0 0 0 0 1 0 0 0 0.6 0"/>
<feBlend mode="normal" in2="BackgroundImageFix" result="effect1_dropShadow"/>
<feBlend mode="normal" in="SourceGraphic" in2="effect1_dropShadow" result="shape"/>
</filter>
<filter id="filter2_d-890265" x="18.9288" y="29.14" width="154.5" height="57.128" filterUnits="userSpaceOnUse" color-interpolation-filters="sRGB">
<feFlood flood-opacity="0" result="BackgroundImageFix"/>
<feColorMatrix in="SourceAlpha" type="matrix" values="0 0 0 0 0 0 0 0 0 0 0 0 0 0 0 0 0 0 127 0"/>
<feOffset/>
<feGaussianBlur stdDeviation="7.5"/>
<feColorMatrix type="matrix" values="0 0 0 0 0 0 0 0 0 0.819608 0 0 0 0 1 0 0 0 0.6 0"/>
<feBlend mode="normal" in2="BackgroundImageFix" result="effect1_dropShadow"/>
<feBlend mode="normal" in="SourceGraphic" in2="effect1_dropShadow" result="shape"/>
</filter>
<linearGradient id="paint0_linear-319180" x1="96.5" y1="115" x2="96.5" y2="-50.0729" gradientUnits="userSpaceOnUse">
<stop stop-color="#0B032A"/>
<stop offset="1" stop-color="#0B032A" stop-opacity="0.76"/>
</linearGradient>
<linearGradient id="paint1_linear-741823" x1="96" y1="38" x2="96" y2="76" gradientUnits="userSpaceOnUse">
<stop stop-color="#ED1EFF"/>
<stop offset="1" stop-color="#00D1FF"/>
</linearGradient>
</defs>
</svg>