<svg width="215" height="214" fill="none" xmlns="http://www.w3.org/2000/svg">
    <g filter="url(#a)">
        <path d="m40.42 112.871 72.934 61.242 61.204-72.98-72.934-61.242-61.203 72.98Z" stroke="url(#b)" stroke-width=".808" stroke-miterlimit="10" stroke-linecap="round"/>
    </g>
    <g filter="url(#c)">
        <path d="m35.408 119.709 84.784 59.403 59.365-84.837-84.784-59.403-59.365 84.837Z" stroke="url(#d)" stroke-width=".808" stroke-miterlimit="10" stroke-linecap="round"/>
    </g>
    <g filter="url(#e)">
        <path d="M107.597 133.104c14.587 0 26.413-11.834 26.413-26.431 0-14.597-11.826-26.43-26.413-26.43-14.588 0-26.414 11.833-26.414 26.43s11.826 26.431 26.414 26.431Z" fill="#0C2344"/>
        <path d="M133.47 106.673c0 14.3-11.584 25.891-25.873 25.891-14.29 0-25.874-11.591-25.874-25.891 0-14.299 11.584-25.89 25.874-25.89 14.289 0 25.873 11.591 25.873 25.89Z" stroke="#00D1FF" stroke-width="1.08"/>
    </g>
    <path d="M99.78 101.081a.992.992 0 0 0-.778-.361h-6.304a.18.18 0 0 1-.137-.054.16.16 0 0 1-.052-.116v-4.246c0-.042.017-.08.052-.116a.182.182 0 0 1 .137-.053h6.662c1.681 0 3.131.686 4.35 2.059l1.618 1.974-3.152 3.842-2.396-2.929Zm11.643-2.908c1.219-1.359 2.676-2.038 4.371-2.038h6.641c.056 0 .098.014.127.042.027.028.041.07.041.127v4.246a.185.185 0 0 1-.041.116c-.029.036-.071.054-.127.054h-6.304a.994.994 0 0 0-.778.361l-4.644 5.646 4.665 5.689c.21.227.462.34.757.34h6.304c.056 0 .098.017.127.053a.222.222 0 0 1 .041.138v4.245a.19.19 0 0 1-.041.117c-.029.035-.071.053-.127.053h-6.641c-1.695 0-3.145-.686-4.35-2.059l-3.867-4.713-3.867 4.713c-1.219 1.373-2.676 2.059-4.371 2.059h-6.641c-.056 0-.099-.018-.126-.053a.215.215 0 0 1-.042-.139v-4.245c0-.042.013-.081.042-.117.027-.035.07-.053.126-.053h6.304c.294 0 .553-.12.778-.361l4.56-5.561 7.083-8.66Z" fill="#00D1FF"/>
    <g filter="url(#f)">
        <path d="m30.643 127.586 97.426 56.287 56.251-97.488-97.426-56.287-56.251 97.488Z" stroke="url(#g)" stroke-width=".808" stroke-miterlimit="10" stroke-linecap="round"/>
    </g>
    <g filter="url(#h)">
        <path d="m26.227 136.579 110.823 51.708 51.676-110.893L77.903 25.685 26.227 136.58Z" stroke="url(#i)" stroke-width=".808" stroke-miterlimit="10" stroke-linecap="round"/>
    </g>
    <g filter="url(#j)">
        <path d="m22.32 146.758 124.887 45.482 45.452-124.967L67.772 21.792 22.319 146.758Z" stroke="url(#k)" stroke-width=".808" stroke-miterlimit="10" stroke-linecap="round"/>
    </g>
    <g filter="url(#l)">
        <path d="m19.033 158.123 139.533 37.41 37.385-139.62-139.532-37.41-37.386 139.62Z" stroke="url(#m)" stroke-width=".808" stroke-miterlimit="10" stroke-linecap="round"/>
    </g>
    <g filter="url(#n)">
        <path d="m16.533 170.733 154.634 27.276 27.259-154.732L43.792 16 16.533 170.733Z" stroke="url(#o)" stroke-width=".808" stroke-miterlimit="10" stroke-linecap="round"/>
    </g>
    <g filter="url(#p)">
        <path d="m15.028 184.62 170.034 14.893L199.946 29.37 29.911 14.477 15.028 184.62Z" stroke="url(#q)" stroke-width=".808" stroke-miterlimit="10" stroke-linecap="round"/>
    </g>
    <g filter="url(#r)">
        <path d="M14.731 14.184v185.632h185.515V14.184H14.731Z" stroke="url(#s)" stroke-width=".808" stroke-miterlimit="10" stroke-linecap="round"/>
    </g>
    <path fill-rule="evenodd" clip-rule="evenodd" d="M101.615 43.07a3.186 3.186 0 0 1-3.181-3.183 3.186 3.186 0 0 1 3.181-3.184 3.186 3.186 0 0 1 3.182 3.184 3.186 3.186 0 0 1-3.182 3.183Z" fill="url(#t)"/>
    <path fill-rule="evenodd" clip-rule="evenodd" d="M40.418 116.059a3.186 3.186 0 0 1-3.182-3.183 3.186 3.186 0 0 1 3.182-3.184 3.186 3.186 0 0 1 3.181 3.184 3.186 3.186 0 0 1-3.181 3.183Z" fill="url(#u)"/>
    <path fill-rule="evenodd" clip-rule="evenodd" d="M113.36 177.297a3.187 3.187 0 0 1-3.182-3.184 3.187 3.187 0 0 1 3.182-3.183 3.186 3.186 0 0 1 3.182 3.183c-.024 1.756-1.427 3.184-3.182 3.184Z" fill="url(#v)"/>
    <path fill-rule="evenodd" clip-rule="evenodd" d="M174.559 104.308a3.186 3.186 0 0 1-3.181-3.184 3.186 3.186 0 0 1 3.181-3.183 3.186 3.186 0 0 1 3.182 3.183 3.186 3.186 0 0 1-3.182 3.184Z" fill="url(#w)"/>
    <path fill-rule="evenodd" clip-rule="evenodd" d="M94.784 38.06a3.186 3.186 0 0 1-3.181-3.183 3.186 3.186 0 0 1 3.181-3.183 3.186 3.186 0 0 1 3.182 3.183c-.023 1.756-1.427 3.184-3.182 3.184Z" fill="url(#x)"/>
    <path fill-rule="evenodd" clip-rule="evenodd" d="M35.41 122.895a3.186 3.186 0 0 1-3.181-3.184 3.186 3.186 0 0 1 3.182-3.184 3.186 3.186 0 0 1 3.181 3.184 3.186 3.186 0 0 1-3.181 3.184Z" fill="url(#y)"/>
    <path fill-rule="evenodd" clip-rule="evenodd" d="M120.191 182.283a3.186 3.186 0 0 1-3.182-3.184 3.186 3.186 0 0 1 3.182-3.183 3.186 3.186 0 0 1 3.181 3.183 3.171 3.171 0 0 1-3.181 3.184Z" fill="url(#z)"/>
    <path fill-rule="evenodd" clip-rule="evenodd" d="M179.565 97.473a3.186 3.186 0 0 1-3.182-3.184 3.186 3.186 0 0 1 3.182-3.183 3.187 3.187 0 0 1 3.182 3.183c-.024 1.756-1.451 3.184-3.182 3.184Z" fill="url(#A)"/>
    <path fill-rule="evenodd" clip-rule="evenodd" d="M86.9 33.309a3.186 3.186 0 0 1-3.181-3.184 3.186 3.186 0 0 1 3.181-3.184 3.186 3.186 0 0 1 3.182 3.184 3.186 3.186 0 0 1-3.182 3.184Z" fill="url(#B)"/>
    <path fill-rule="evenodd" clip-rule="evenodd" d="M30.66 130.784a3.186 3.186 0 0 1-3.18-3.184 3.186 3.186 0 0 1 3.18-3.184 3.186 3.186 0 0 1 3.182 3.184c-.023 1.756-1.427 3.184-3.181 3.184Z" fill="url(#C)"/>
    <path fill-rule="evenodd" clip-rule="evenodd" d="M128.075 187.058a3.186 3.186 0 0 1-3.181-3.183 3.186 3.186 0 0 1 3.181-3.184 3.186 3.186 0 0 1 3.182 3.184 3.186 3.186 0 0 1-3.182 3.183Z" fill="url(#D)"/>
    <path fill-rule="evenodd" clip-rule="evenodd" d="M184.314 89.584a3.186 3.186 0 0 1-3.181-3.184 3.186 3.186 0 0 1 3.181-3.183 3.186 3.186 0 0 1 3.182 3.183 3.186 3.186 0 0 1-3.182 3.184Z" fill="url(#E)"/>
    <path fill-rule="evenodd" clip-rule="evenodd" d="M77.917 28.884a3.186 3.186 0 0 1-3.181-3.183 3.186 3.186 0 0 1 3.181-3.184 3.186 3.186 0 0 1 3.182 3.184 3.186 3.186 0 0 1-3.182 3.183Z" fill="url(#F)"/>
    <path fill-rule="evenodd" clip-rule="evenodd" d="M26.24 139.773a3.186 3.186 0 0 1-3.181-3.184 3.186 3.186 0 0 1 3.181-3.184 3.186 3.186 0 0 1 3.182 3.184 3.186 3.186 0 0 1-3.182 3.184Z" fill="url(#G)"/>
    <path fill-rule="evenodd" clip-rule="evenodd" d="M137.058 191.483a3.186 3.186 0 0 1-3.182-3.184 3.186 3.186 0 0 1 3.182-3.183 3.186 3.186 0 0 1 3.182 3.183 3.186 3.186 0 0 1-3.182 3.184Z" fill="url(#H)"/>
    <path fill-rule="evenodd" clip-rule="evenodd" d="M188.735 80.595a3.186 3.186 0 0 1-3.181-3.184 3.186 3.186 0 0 1 3.181-3.183 3.186 3.186 0 0 1 3.182 3.183 3.186 3.186 0 0 1-3.182 3.184Z" fill="url(#I)"/>
    <path fill-rule="evenodd" clip-rule="evenodd" d="M67.765 24.952a3.186 3.186 0 0 1-3.182-3.184 3.186 3.186 0 0 1 3.182-3.183 3.186 3.186 0 0 1 3.181 3.183 3.186 3.186 0 0 1-3.181 3.184Z" fill="url(#J)"/>
    <path fill-rule="evenodd" clip-rule="evenodd" d="M22.31 149.932a3.186 3.186 0 0 1-3.181-3.184 3.186 3.186 0 0 1 3.181-3.184 3.186 3.186 0 0 1 3.182 3.184 3.186 3.186 0 0 1-3.181 3.184Z" fill="url(#K)"/>
    <path fill-rule="evenodd" clip-rule="evenodd" d="M147.211 195.415a3.185 3.185 0 0 1-3.182-3.183 3.186 3.186 0 0 1 3.182-3.184 3.186 3.186 0 0 1 3.181 3.184 3.185 3.185 0 0 1-3.181 3.183Z" fill="url(#L)"/>
    <path fill-rule="evenodd" clip-rule="evenodd" d="M192.665 70.435a3.186 3.186 0 0 1-3.182-3.183 3.186 3.186 0 0 1 3.182-3.184 3.186 3.186 0 0 1 3.181 3.184c-.023 1.755-1.427 3.183-3.181 3.183Z" fill="url(#M)"/>
    <path fill-rule="evenodd" clip-rule="evenodd" d="M56.42 21.651a3.186 3.186 0 0 1-3.183-3.183 3.186 3.186 0 0 1 3.182-3.184 3.186 3.186 0 0 1 3.182 3.184 3.186 3.186 0 0 1-3.182 3.183Z" fill="url(#N)"/>
    <path fill-rule="evenodd" clip-rule="evenodd" d="M19.012 161.286a3.186 3.186 0 0 1-3.182-3.184 3.186 3.186 0 0 1 3.182-3.184 3.186 3.186 0 0 1 3.181 3.184 3.186 3.186 0 0 1-3.181 3.184Z" fill="url(#O)"/>
    <path fill-rule="evenodd" clip-rule="evenodd" d="M158.558 198.693a3.187 3.187 0 0 1-3.182-3.184 3.187 3.187 0 0 1 3.182-3.183 3.186 3.186 0 0 1 3.182 3.183 3.186 3.186 0 0 1-3.182 3.184Z" fill="url(#P)"/>
    <path fill-rule="evenodd" clip-rule="evenodd" d="M195.941 59.082a3.186 3.186 0 0 1-3.182-3.184 3.186 3.186 0 0 1 3.182-3.183 3.186 3.186 0 0 1 3.181 3.183 3.186 3.186 0 0 1-3.181 3.184Z" fill="url(#Q)"/>
    <path fill-rule="evenodd" clip-rule="evenodd" d="M43.809 19.17a3.186 3.186 0 0 1-3.182-3.184 3.186 3.186 0 0 1 3.181-3.183 3.186 3.186 0 0 1 3.182 3.183c-.023 1.756-1.427 3.184-3.181 3.184Z" fill="url(#R)"/>
    <path fill-rule="evenodd" clip-rule="evenodd" d="M16.531 173.903a3.186 3.186 0 0 1-3.182-3.184 3.185 3.185 0 0 1 3.182-3.183 3.185 3.185 0 0 1 3.181 3.183 3.186 3.186 0 0 1-3.181 3.184Z" fill="url(#S)"/>
    <path fill-rule="evenodd" clip-rule="evenodd" d="M171.167 201.197a3.186 3.186 0 0 1-3.182-3.183 3.186 3.186 0 0 1 3.182-3.184 3.186 3.186 0 0 1 3.181 3.184 3.186 3.186 0 0 1-3.181 3.183Z" fill="url(#T)"/>
    <path fill-rule="evenodd" clip-rule="evenodd" d="M198.445 46.465a3.186 3.186 0 0 1-3.182-3.184 3.186 3.186 0 0 1 3.182-3.184 3.186 3.186 0 0 1 3.181 3.184 3.186 3.186 0 0 1-3.181 3.184Z" fill="url(#U)"/>
    <path fill-rule="evenodd" clip-rule="evenodd" d="M29.914 17.672a3.186 3.186 0 0 1-3.182-3.184 3.186 3.186 0 0 1 3.182-3.184 3.186 3.186 0 0 1 3.181 3.184 3.186 3.186 0 0 1-3.181 3.184Z" fill="url(#V)"/>
    <path fill-rule="evenodd" clip-rule="evenodd" d="M15.034 187.807a3.186 3.186 0 0 1-3.181-3.183 3.186 3.186 0 0 1 3.181-3.184 3.186 3.186 0 0 1 3.182 3.184 3.186 3.186 0 0 1-3.182 3.183Z" fill="url(#W)"/>
    <path fill-rule="evenodd" clip-rule="evenodd" d="M185.062 202.695a3.186 3.186 0 0 1-3.182-3.183 3.186 3.186 0 0 1 3.182-3.184 3.186 3.186 0 0 1 3.181 3.184 3.186 3.186 0 0 1-3.181 3.183Z" fill="url(#X)"/>
    <path fill-rule="evenodd" clip-rule="evenodd" d="M199.941 32.56a3.186 3.186 0 0 1-3.181-3.184 3.186 3.186 0 0 1 3.181-3.184 3.186 3.186 0 0 1 3.182 3.184 3.186 3.186 0 0 1-3.182 3.184Z" fill="url(#Y)"/>
    <path fill-rule="evenodd" clip-rule="evenodd" d="M14.73 17.367a3.186 3.186 0 0 1-3.181-3.183A3.186 3.186 0 0 1 14.73 11a3.186 3.186 0 0 1 3.182 3.184c-.023 1.755-1.427 3.183-3.182 3.183Z" fill="url(#Z)"/>
    <path fill-rule="evenodd" clip-rule="evenodd" d="M14.73 203a3.186 3.186 0 0 1-3.181-3.183 3.186 3.186 0 0 1 3.181-3.184c1.755 0 3.159 1.428 3.159 3.184 0 1.755-1.404 3.183-3.159 3.183Z" fill="url(#aa)"/>
    <path fill-rule="evenodd" clip-rule="evenodd" d="M200.245 203a3.186 3.186 0 0 1-3.182-3.183 3.186 3.186 0 0 1 3.182-3.184 3.186 3.186 0 0 1 3.181 3.184 3.186 3.186 0 0 1-3.181 3.183Z" fill="url(#ab)"/>
    <path fill-rule="evenodd" clip-rule="evenodd" d="M200.245 17.367a3.186 3.186 0 0 1-3.182-3.183A3.186 3.186 0 0 1 200.245 11a3.186 3.186 0 0 1 3.181 3.184 3.186 3.186 0 0 1-3.181 3.183Z" fill="url(#ac)"/>
    <path transform="matrix(1 0 0 -1 5 203)" fill="url(#ad)" d="M0 0h204.321v50.457H0z"/>
    <defs>
        <linearGradient id="b" x1="76.887" y1="143.492" x2="138.136" y2="70.55" gradientUnits="userSpaceOnUse">
            <stop stop-color="#ED1EFF"/>
            <stop offset="1" stop-color="#00D1FF"/>
        </linearGradient>
        <linearGradient id="d" x1="77.8" y1="149.41" x2="137.215" y2="64.609" gradientUnits="userSpaceOnUse">
            <stop stop-color="#ED1EFF"/>
            <stop offset="1" stop-color="#00D1FF"/>
        </linearGradient>
        <linearGradient id="g" x1="79.356" y1="155.73" x2="135.66" y2="58.272" gradientUnits="userSpaceOnUse">
            <stop stop-color="#ED1EFF"/>
            <stop offset="1" stop-color="#00D1FF"/>
        </linearGradient>
        <linearGradient id="i" x1="81.638" y1="162.433" x2="133.368" y2="51.565" gradientUnits="userSpaceOnUse">
            <stop stop-color="#ED1EFF"/>
            <stop offset="1" stop-color="#00D1FF"/>
        </linearGradient>
        <linearGradient id="k" x1="84.763" y1="169.499" x2="130.266" y2="44.551" gradientUnits="userSpaceOnUse">
            <stop stop-color="#ED1EFF"/>
            <stop offset="1" stop-color="#00D1FF"/>
        </linearGradient>
        <linearGradient id="m" x1="88.799" y1="176.828" x2="126.23" y2="37.219" gradientUnits="userSpaceOnUse">
            <stop stop-color="#ED1EFF"/>
            <stop offset="1" stop-color="#00D1FF"/>
        </linearGradient>
        <linearGradient id="o" x1="93.85" y1="184.371" x2="121.143" y2="29.644" gradientUnits="userSpaceOnUse">
            <stop stop-color="#ED1EFF"/>
            <stop offset="1" stop-color="#00D1FF"/>
        </linearGradient>
        <linearGradient id="q" x1="100.045" y1="192.066" x2="114.947" y2="21.926" gradientUnits="userSpaceOnUse">
            <stop stop-color="#ED1EFF"/>
            <stop offset="1" stop-color="#00D1FF"/>
        </linearGradient>
        <linearGradient id="s" x1="14.731" y1="107" x2="200.246" y2="107" gradientUnits="userSpaceOnUse">
            <stop stop-color="#ED1EFF"/>
            <stop offset="1" stop-color="#00D1FF"/>
        </linearGradient>
        <linearGradient id="t" x1="98.434" y1="39.887" x2="104.797" y2="39.887" gradientUnits="userSpaceOnUse">
            <stop stop-color="#ED1EFF"/>
            <stop offset="1" stop-color="#00D1FF"/>
        </linearGradient>
        <linearGradient id="u" x1="37.236" y1="112.876" x2="43.599" y2="112.876" gradientUnits="userSpaceOnUse">
            <stop stop-color="#00D1FF"/>
            <stop offset="1" stop-color="#ED1EFF"/>
        </linearGradient>
        <linearGradient id="v" x1="110.178" y1="174.113" x2="116.542" y2="174.113" gradientUnits="userSpaceOnUse">
            <stop stop-color="#00D1FF"/>
            <stop offset="1" stop-color="#ED1EFF"/>
        </linearGradient>
        <linearGradient id="w" x1="171.378" y1="101.124" x2="177.741" y2="101.124" gradientUnits="userSpaceOnUse">
            <stop stop-color="#00D1FF"/>
            <stop offset="1" stop-color="#ED1EFF"/>
        </linearGradient>
        <linearGradient id="x" x1="91.603" y1="34.877" x2="97.966" y2="34.877" gradientUnits="userSpaceOnUse">
            <stop stop-color="#ED1EFF"/>
            <stop offset="1" stop-color="#00D1FF"/>
        </linearGradient>
        <linearGradient id="y" x1="32.229" y1="119.711" x2="38.592" y2="119.711" gradientUnits="userSpaceOnUse">
            <stop stop-color="#00D1FF"/>
            <stop offset="1" stop-color="#ED1EFF"/>
        </linearGradient>
        <linearGradient id="z" x1="117.009" y1="179.099" x2="123.372" y2="179.099" gradientUnits="userSpaceOnUse">
            <stop stop-color="#00D1FF"/>
            <stop offset="1" stop-color="#ED1EFF"/>
        </linearGradient>
        <linearGradient id="A" x1="176.383" y1="94.289" x2="182.747" y2="94.289" gradientUnits="userSpaceOnUse">
            <stop stop-color="#00D1FF"/>
            <stop offset="1" stop-color="#ED1EFF"/>
        </linearGradient>
        <linearGradient id="B" x1="83.719" y1="30.125" x2="90.082" y2="30.125" gradientUnits="userSpaceOnUse">
            <stop stop-color="#ED1EFF"/>
            <stop offset="1" stop-color="#00D1FF"/>
        </linearGradient>
        <linearGradient id="C" x1="27.479" y1="127.6" x2="33.842" y2="127.6" gradientUnits="userSpaceOnUse">
            <stop stop-color="#00D1FF"/>
            <stop offset="1" stop-color="#ED1EFF"/>
        </linearGradient>
        <linearGradient id="D" x1="124.894" y1="183.875" x2="131.257" y2="183.875" gradientUnits="userSpaceOnUse">
            <stop stop-color="#00D1FF"/>
            <stop offset="1" stop-color="#ED1EFF"/>
        </linearGradient>
        <linearGradient id="E" x1="181.133" y1="86.4" x2="187.496" y2="86.4" gradientUnits="userSpaceOnUse">
            <stop stop-color="#00D1FF"/>
            <stop offset="1" stop-color="#ED1EFF"/>
        </linearGradient>
        <linearGradient id="F" x1="74.736" y1="25.701" x2="81.099" y2="25.701" gradientUnits="userSpaceOnUse">
            <stop stop-color="#ED1EFF"/>
            <stop offset="1" stop-color="#00D1FF"/>
        </linearGradient>
        <linearGradient id="G" x1="23.059" y1="136.589" x2="29.422" y2="136.589" gradientUnits="userSpaceOnUse">
            <stop stop-color="#00D1FF"/>
            <stop offset="1" stop-color="#ED1EFF"/>
        </linearGradient>
        <linearGradient id="H" x1="133.876" y1="188.299" x2="140.24" y2="188.299" gradientUnits="userSpaceOnUse">
            <stop stop-color="#00D1FF"/>
            <stop offset="1" stop-color="#ED1EFF"/>
        </linearGradient>
        <linearGradient id="I" x1="185.554" y1="77.411" x2="191.917" y2="77.411" gradientUnits="userSpaceOnUse">
            <stop stop-color="#00D1FF"/>
            <stop offset="1" stop-color="#ED1EFF"/>
        </linearGradient>
        <linearGradient id="J" x1="64.583" y1="21.768" x2="70.946" y2="21.768" gradientUnits="userSpaceOnUse">
            <stop stop-color="#ED1EFF"/>
            <stop offset="1" stop-color="#00D1FF"/>
        </linearGradient>
        <linearGradient id="K" x1="19.129" y1="146.748" x2="25.492" y2="146.748" gradientUnits="userSpaceOnUse">
            <stop stop-color="#00D1FF"/>
            <stop offset="1" stop-color="#ED1EFF"/>
        </linearGradient>
        <linearGradient id="L" x1="144.029" y1="192.232" x2="150.392" y2="192.232" gradientUnits="userSpaceOnUse">
            <stop stop-color="#00D1FF"/>
            <stop offset="1" stop-color="#ED1EFF"/>
        </linearGradient>
        <linearGradient id="M" x1="189.483" y1="67.252" x2="195.846" y2="67.252" gradientUnits="userSpaceOnUse">
            <stop stop-color="#00D1FF"/>
            <stop offset="1" stop-color="#ED1EFF"/>
        </linearGradient>
        <linearGradient id="N" x1="53.237" y1="18.468" x2="59.601" y2="18.468" gradientUnits="userSpaceOnUse">
            <stop stop-color="#ED1EFF"/>
            <stop offset="1" stop-color="#00D1FF"/>
        </linearGradient>
        <linearGradient id="O" x1="15.83" y1="158.102" x2="22.193" y2="158.102" gradientUnits="userSpaceOnUse">
            <stop stop-color="#00D1FF"/>
            <stop offset="1" stop-color="#ED1EFF"/>
        </linearGradient>
        <linearGradient id="P" x1="155.376" y1="195.509" x2="161.74" y2="195.509" gradientUnits="userSpaceOnUse">
            <stop stop-color="#00D1FF"/>
            <stop offset="1" stop-color="#ED1EFF"/>
        </linearGradient>
        <linearGradient id="Q" x1="192.759" y1="55.898" x2="199.122" y2="55.898" gradientUnits="userSpaceOnUse">
            <stop stop-color="#00D1FF"/>
            <stop offset="1" stop-color="#ED1EFF"/>
        </linearGradient>
        <linearGradient id="R" x1="40.627" y1="15.986" x2="46.99" y2="15.986" gradientUnits="userSpaceOnUse">
            <stop stop-color="#ED1EFF"/>
            <stop offset="1" stop-color="#00D1FF"/>
        </linearGradient>
        <linearGradient id="S" x1="13.349" y1="170.719" x2="19.712" y2="170.719" gradientUnits="userSpaceOnUse">
            <stop stop-color="#00D1FF"/>
            <stop offset="1" stop-color="#ED1EFF"/>
        </linearGradient>
        <linearGradient id="T" x1="167.985" y1="198.014" x2="174.348" y2="198.014" gradientUnits="userSpaceOnUse">
            <stop stop-color="#00D1FF"/>
            <stop offset="1" stop-color="#ED1EFF"/>
        </linearGradient>
        <linearGradient id="U" x1="195.263" y1="43.281" x2="201.626" y2="43.281" gradientUnits="userSpaceOnUse">
            <stop stop-color="#00D1FF"/>
            <stop offset="1" stop-color="#ED1EFF"/>
        </linearGradient>
        <linearGradient id="V" x1="26.732" y1="14.488" x2="33.095" y2="14.488" gradientUnits="userSpaceOnUse">
            <stop stop-color="#00D1FF"/>
            <stop offset="1" stop-color="#ED1EFF"/>
        </linearGradient>
        <linearGradient id="W" x1="11.853" y1="184.624" x2="18.216" y2="184.624" gradientUnits="userSpaceOnUse">
            <stop stop-color="#00D1FF"/>
            <stop offset="1" stop-color="#ED1EFF"/>
        </linearGradient>
        <linearGradient id="X" x1="181.88" y1="199.512" x2="188.243" y2="199.512" gradientUnits="userSpaceOnUse">
            <stop stop-color="#00D1FF"/>
            <stop offset="1" stop-color="#ED1EFF"/>
        </linearGradient>
        <linearGradient id="Y" x1="196.76" y1="29.376" x2="203.123" y2="29.376" gradientUnits="userSpaceOnUse">
            <stop stop-color="#00D1FF"/>
            <stop offset="1" stop-color="#ED1EFF"/>
        </linearGradient>
        <linearGradient id="Z" x1="11.549" y1="9.71" x2="17.895" y2="17.386" gradientUnits="userSpaceOnUse">
            <stop stop-color="#ED1EFF"/>
            <stop offset="1" stop-color="#866CFF"/>
        </linearGradient>
        <linearGradient id="aa" x1="11.549" y1="199.817" x2="17.889" y2="199.817" gradientUnits="userSpaceOnUse">
            <stop stop-color="#00D1FF"/>
            <stop offset="1" stop-color="#ED1EFF"/>
        </linearGradient>
        <linearGradient id="ab" x1="197.063" y1="199.817" x2="203.426" y2="199.817" gradientUnits="userSpaceOnUse">
            <stop stop-color="#00D1FF"/>
            <stop offset="1" stop-color="#ED1EFF"/>
        </linearGradient>
        <linearGradient id="ac" x1="197.063" y1="14.184" x2="203.426" y2="14.184" gradientUnits="userSpaceOnUse">
            <stop stop-color="#00D1FF"/>
            <stop offset="1" stop-color="#ED1EFF"/>
        </linearGradient>
        <linearGradient id="ad" x1="102.16" y1="0" x2="102.16" y2="58.867" gradientUnits="userSpaceOnUse">
            <stop stop-color="#0E0436"/>
            <stop offset="1" stop-color="#0E0436" stop-opacity=".04"/>
        </linearGradient>
        <filter id="a" x="26.171" y="25.641" width="162.637" height="162.723" filterUnits="userSpaceOnUse" color-interpolation-filters="sRGB">
            <feFlood flood-opacity="0" result="BackgroundImageFix"/>
            <feColorMatrix in="SourceAlpha" values="0 0 0 0 0 0 0 0 0 0 0 0 0 0 0 0 0 0 127 0"/>
            <feOffset/>
            <feGaussianBlur stdDeviation="6.84"/>
            <feColorMatrix values="0 0 0 0 0 0 0 0 0 0.82 0 0 0 0 1 0 0 0 0.63 0"/>
            <feBlend in2="BackgroundImageFix" result="effect1_dropShadow"/>
            <feBlend in="SourceGraphic" in2="effect1_dropShadow" result="shape"/>
        </filter>
        <filter id="c" x="21.165" y="20.628" width="172.635" height="172.727" filterUnits="userSpaceOnUse" color-interpolation-filters="sRGB">
            <feFlood flood-opacity="0" result="BackgroundImageFix"/>
            <feColorMatrix in="SourceAlpha" values="0 0 0 0 0 0 0 0 0 0 0 0 0 0 0 0 0 0 127 0"/>
            <feOffset/>
            <feGaussianBlur stdDeviation="6.84"/>
            <feColorMatrix values="0 0 0 0 0 0 0 0 0 0.82 0 0 0 0 1 0 0 0 0.63 0"/>
            <feBlend in2="BackgroundImageFix" result="effect1_dropShadow"/>
            <feBlend in="SourceGraphic" in2="effect1_dropShadow" result="shape"/>
        </filter>
        <filter id="e" x="73.084" y="72.144" width="69.025" height="69.058" filterUnits="userSpaceOnUse" color-interpolation-filters="sRGB">
            <feFlood flood-opacity="0" result="BackgroundImageFix"/>
            <feColorMatrix in="SourceAlpha" values="0 0 0 0 0 0 0 0 0 0 0 0 0 0 0 0 0 0 127 0"/>
            <feOffset/>
            <feGaussianBlur stdDeviation="4.049"/>
            <feColorMatrix values="0 0 0 0 0 0 0 0 0 0.819608 0 0 0 0 1 0 0 0 0.6 0"/>
            <feBlend in2="BackgroundImageFix" result="effect1_dropShadow"/>
            <feBlend in="SourceGraphic" in2="effect1_dropShadow" result="shape"/>
        </filter>
        <filter id="f" x="16.41" y="15.865" width="182.143" height="182.241" filterUnits="userSpaceOnUse" color-interpolation-filters="sRGB">
            <feFlood flood-opacity="0" result="BackgroundImageFix"/>
            <feColorMatrix in="SourceAlpha" values="0 0 0 0 0 0 0 0 0 0 0 0 0 0 0 0 0 0 127 0"/>
            <feOffset/>
            <feGaussianBlur stdDeviation="6.84"/>
            <feColorMatrix values="0 0 0 0 0 0 0 0 0 0.82 0 0 0 0 1 0 0 0 0.63 0"/>
            <feBlend in2="BackgroundImageFix" result="effect1_dropShadow"/>
            <feBlend in="SourceGraphic" in2="effect1_dropShadow" result="shape"/>
        </filter>
        <filter id="h" x="12.009" y="11.467" width="190.934" height="191.038" filterUnits="userSpaceOnUse" color-interpolation-filters="sRGB">
            <feFlood flood-opacity="0" result="BackgroundImageFix"/>
            <feColorMatrix in="SourceAlpha" values="0 0 0 0 0 0 0 0 0 0 0 0 0 0 0 0 0 0 127 0"/>
            <feOffset/>
            <feGaussianBlur stdDeviation="6.84"/>
            <feColorMatrix values="0 0 0 0 0 0 0 0 0 0.82 0 0 0 0 1 0 0 0 0.63 0"/>
            <feBlend in2="BackgroundImageFix" result="effect1_dropShadow"/>
            <feBlend in="SourceGraphic" in2="effect1_dropShadow" result="shape"/>
        </filter>
        <filter id="j" x="8.121" y="7.593" width="198.737" height="198.846" filterUnits="userSpaceOnUse" color-interpolation-filters="sRGB">
            <feFlood flood-opacity="0" result="BackgroundImageFix"/>
            <feColorMatrix in="SourceAlpha" values="0 0 0 0 0 0 0 0 0 0 0 0 0 0 0 0 0 0 127 0"/>
            <feOffset/>
            <feGaussianBlur stdDeviation="6.84"/>
            <feColorMatrix values="0 0 0 0 0 0 0 0 0 0.82 0 0 0 0 1 0 0 0 0.63 0"/>
            <feBlend in2="BackgroundImageFix" result="effect1_dropShadow"/>
            <feBlend in="SourceGraphic" in2="effect1_dropShadow" result="shape"/>
        </filter>
        <filter id="l" x="4.858" y="4.327" width="205.269" height="205.382" filterUnits="userSpaceOnUse" color-interpolation-filters="sRGB">
            <feFlood flood-opacity="0" result="BackgroundImageFix"/>
            <feColorMatrix in="SourceAlpha" values="0 0 0 0 0 0 0 0 0 0 0 0 0 0 0 0 0 0 127 0"/>
            <feOffset/>
            <feGaussianBlur stdDeviation="6.84"/>
            <feColorMatrix values="0 0 0 0 0 0 0 0 0 0.82 0 0 0 0 1 0 0 0 0.63 0"/>
            <feBlend in2="BackgroundImageFix" result="effect1_dropShadow"/>
            <feBlend in="SourceGraphic" in2="effect1_dropShadow" result="shape"/>
        </filter>
        <filter id="n" x="2.385" y="1.852" width="210.191" height="210.306" filterUnits="userSpaceOnUse" color-interpolation-filters="sRGB">
            <feFlood flood-opacity="0" result="BackgroundImageFix"/>
            <feColorMatrix in="SourceAlpha" values="0 0 0 0 0 0 0 0 0 0 0 0 0 0 0 0 0 0 127 0"/>
            <feOffset/>
            <feGaussianBlur stdDeviation="6.84"/>
            <feColorMatrix values="0 0 0 0 0 0 0 0 0 0.82 0 0 0 0 1 0 0 0 0.63 0"/>
            <feBlend in2="BackgroundImageFix" result="effect1_dropShadow"/>
            <feBlend in="SourceGraphic" in2="effect1_dropShadow" result="shape"/>
        </filter>
        <filter id="p" x=".909" y=".359" width="213.155" height="213.273" filterUnits="userSpaceOnUse" color-interpolation-filters="sRGB">
            <feFlood flood-opacity="0" result="BackgroundImageFix"/>
            <feColorMatrix in="SourceAlpha" values="0 0 0 0 0 0 0 0 0 0 0 0 0 0 0 0 0 0 127 0"/>
            <feOffset/>
            <feGaussianBlur stdDeviation="6.84"/>
            <feColorMatrix values="0 0 0 0 0 0 0 0 0 0.82 0 0 0 0 1 0 0 0 0.63 0"/>
            <feBlend in2="BackgroundImageFix" result="effect1_dropShadow"/>
            <feBlend in="SourceGraphic" in2="effect1_dropShadow" result="shape"/>
        </filter>
        <filter id="r" x=".646" y=".099" width="213.685" height="213.802" filterUnits="userSpaceOnUse" color-interpolation-filters="sRGB">
            <feFlood flood-opacity="0" result="BackgroundImageFix"/>
            <feColorMatrix in="SourceAlpha" values="0 0 0 0 0 0 0 0 0 0 0 0 0 0 0 0 0 0 127 0"/>
            <feOffset/>
            <feGaussianBlur stdDeviation="6.84"/>
            <feColorMatrix values="0 0 0 0 0 0 0 0 0 0.82 0 0 0 0 1 0 0 0 0.63 0"/>
            <feBlend in2="BackgroundImageFix" result="effect1_dropShadow"/>
            <feBlend in="SourceGraphic" in2="effect1_dropShadow" result="shape"/>
        </filter>
    </defs>
</svg>
