<svg width="68" height="68" viewBox="0 0 68 68" fill="none" xmlns="http://www.w3.org/2000/svg">
<path d="M43.0257 56.8157H43.026C52.9865 56.8098 61.0593 48.7375 61.0593 38.7821C61.0593 28.8212 52.9866 20.7486 43.0257 20.7486C33.0648 20.7486 24.9921 28.8212 24.9921 38.7821C24.9921 48.7431 33.0648 56.8157 43.0257 56.8157ZM21.0696 28.1228C20.2474 29.8151 19.6121 31.6152 19.1996 33.4971H6.875V28.1228H21.0696ZM6.875 18.5643H29.3547C27.1767 20.038 25.253 21.8551 23.6547 23.9386H6.875V18.5643ZM6.875 9H47.3107V14.3743H6.875V9ZM29.1879 38.7821C29.1879 31.1464 35.3957 24.9386 43.0314 24.9386C50.6672 24.9386 56.875 31.1464 56.875 38.7821C56.875 46.4179 50.6672 52.6257 43.0314 52.6257C35.3957 52.6257 29.1879 46.4179 29.1879 38.7821ZM6.875 43.0614V37.6871H18.6518C18.6067 38.6858 18.5775 40.7691 18.9963 43.0614H6.875ZM63.2493 38.7821C63.2493 49.9292 54.1785 59 43.0314 59C31.8844 59 22.8136 49.9292 22.8136 38.7821C22.8136 27.6351 31.8844 18.5643 43.0314 18.5643C54.1785 18.5643 63.2493 27.6351 63.2493 38.7821ZM22.9281 52.6257H6.875V47.2514H20.1332C20.8457 49.1667 21.788 50.9699 22.9281 52.6257Z" stroke="#00D1FF"/>
</svg>