<svg width="186" height="115" viewBox="0 0 186 115" fill="none" xmlns="http://www.w3.org/2000/svg">
<path d="M54.3829 26.7946C53.2432 25.4916 51.8401 24.8385 50.1704 24.8385H16.0232C15.72 24.8385 15.4718 24.7426 15.2849 24.5507C15.095 24.3619 15 24.1483 15 23.9193V0.919257C15 0.690217 15.095 0.479747 15.2849 0.287848C15.4718 0.0959494 15.72 0 16.0232 0H52.1066C61.2117 0 69.0668 3.72036 75.6689 11.1549L84.4339 21.8486L67.3604 42.6634L54.3829 26.7946ZM117.444 11.0404C124.047 3.68012 131.938 0 141.12 0H177.09C177.393 0 177.62 0.0773785 177.773 0.229041C177.923 0.383798 178 0.612838 178 0.919257V23.9193C178 24.1483 177.923 24.3619 177.773 24.5507C177.62 24.7426 177.393 24.8385 177.09 24.8385H142.943C141.273 24.8385 139.87 25.4916 138.73 26.7946L113.575 57.3839L138.844 88.2023C139.984 89.431 141.347 90.0439 142.943 90.0439H177.09C177.393 90.0439 177.62 90.1398 177.773 90.3317C177.923 90.5236 178 90.7743 178 91.0777V114.078C178 114.307 177.923 114.52 177.773 114.709C177.62 114.901 177.393 114.997 177.09 114.997H141.12C131.938 114.997 124.083 111.28 117.558 103.842L96.6149 78.3133L75.6689 103.842C69.0668 111.28 61.1749 114.997 51.9932 114.997H16.0232C15.72 114.997 15.4902 114.901 15.3401 114.709C15.1869 114.517 15.1134 114.27 15.1134 113.96V90.96C15.1134 90.731 15.1869 90.5205 15.3401 90.3286C15.4902 90.1367 15.72 90.0408 16.0232 90.0408H50.1704C51.7635 90.0408 53.1666 89.3908 54.3829 88.0846L79.0818 57.9565L117.444 11.0404Z" fill="#00D1FF"/>
<rect x="15" width="163" height="115" fill="url(#paint0_linear-398981)"/>
<g filter="url(#filter0_d-204411)">
<rect width="125.291" height="6" transform="matrix(-1 0 0 1 140.291 88)" fill="#00D1FF"/>
<rect x="-1" y="1" width="123.291" height="4" transform="matrix(-1 0 0 1 138.291 88)" stroke="#00D1FF" stroke-width="2"/>
</g>
<g filter="url(#filter1_d-429378)">
<rect x="-1" y="1" width="35.709" height="4" transform="matrix(-1 0 0 1 176 88)" stroke="#ED1EFF" stroke-width="2"/>
</g>
<g filter="url(#filter2_d-126210)">
<path d="M51.3914 53.704C54.762 53.704 57.354 54.3867 59.1674 55.752C60.9807 57.096 61.8874 59.016 61.8874 61.512C61.8874 63.1547 61.3647 64.5947 60.3194 65.832C59.2954 67.048 57.8234 67.9867 55.9034 68.648C53.9834 69.3093 51.7434 69.64 49.1834 69.64C45.0234 69.64 41.834 68.68 39.6154 66.76C37.418 64.8187 36.3194 62.024 36.3194 58.376C36.3194 54.472 37.4927 51.4533 39.8394 49.32C42.186 47.1867 45.514 46.12 49.8234 46.12C52.938 46.12 55.53 46.6533 57.5994 47.72C59.69 48.7653 61.0447 50.2373 61.6634 52.136L53.4714 53.032C53.194 52.4987 52.714 52.0933 52.0314 51.816C51.3487 51.5173 50.4954 51.368 49.4714 51.368C47.914 51.368 46.6767 51.752 45.7594 52.52C44.8634 53.2667 44.3194 54.376 44.1274 55.848C45.9407 54.4187 48.362 53.704 51.3914 53.704ZM49.1514 64.392C50.4954 64.392 51.5834 64.136 52.4154 63.624C53.2474 63.0907 53.6634 62.3973 53.6634 61.544C53.6634 60.6053 53.3007 59.88 52.5754 59.368C51.85 58.8347 50.8367 58.568 49.5354 58.568C48.4474 58.568 47.466 58.76 46.5914 59.144C45.7167 59.528 44.9807 60.0933 44.3834 60.84C44.9807 63.208 46.57 64.392 49.1514 64.392ZM63.1974 63.976C66.7814 62.632 70.8987 60.872 75.5494 58.696C77 57.9707 78.0027 57.288 78.5574 56.648C79.112 55.9867 79.3894 55.2187 79.3894 54.344C79.3894 53.5333 79.0587 52.8827 78.3974 52.392C77.736 51.9013 76.808 51.656 75.6134 51.656C74.312 51.656 73.288 51.944 72.5414 52.52C71.816 53.0747 71.4534 53.9067 71.4534 55.016L71.4854 55.72L63.3254 55.016C63.2827 54.5467 63.2614 54.2053 63.2614 53.992C63.2614 52.328 63.8054 50.9093 64.8934 49.736C66.0027 48.5413 67.5067 47.6453 69.4054 47.048C71.304 46.4293 73.448 46.12 75.8374 46.12C79.528 46.12 82.4507 46.7387 84.6054 47.976C86.7814 49.192 87.8694 51.0693 87.8694 53.608C87.8694 55.144 87.5067 56.4133 86.7814 57.416C86.056 58.3973 84.8294 59.336 83.1014 60.232C81.16 61.2773 78.344 62.28 74.6534 63.24H88.1894V69H63.1974V63.976ZM90.8849 63.976C94.4689 62.632 98.5862 60.872 103.237 58.696C104.688 57.9707 105.69 57.288 106.245 56.648C106.8 55.9867 107.077 55.2187 107.077 54.344C107.077 53.5333 106.746 52.8827 106.085 52.392C105.424 51.9013 104.496 51.656 103.301 51.656C102 51.656 100.976 51.944 100.229 52.52C99.5035 53.0747 99.1409 53.9067 99.1409 55.016L99.1729 55.72L91.0129 55.016C90.9702 54.5467 90.9489 54.2053 90.9489 53.992C90.9489 52.328 91.4929 50.9093 92.5809 49.736C93.6902 48.5413 95.1942 47.6453 97.0929 47.048C98.9915 46.4293 101.136 46.12 103.525 46.12C107.216 46.12 110.138 46.7387 112.293 47.976C114.469 49.192 115.557 51.0693 115.557 53.608C115.557 55.144 115.194 56.4133 114.469 57.416C113.744 58.3973 112.517 59.336 110.789 60.232C108.848 61.2773 106.032 62.28 102.341 63.24H115.877V69H90.8849V63.976ZM148.046 45.64H153.806L127.47 69.448H121.71L148.046 45.64ZM127.118 58.728C125.305 58.728 123.705 58.472 122.318 57.96C120.953 57.4267 119.897 56.68 119.15 55.72C118.403 54.7387 118.03 53.5973 118.03 52.296C118.03 51.0373 118.403 49.928 119.15 48.968C119.897 47.9867 120.953 47.24 122.318 46.728C123.705 46.1947 125.294 45.928 127.086 45.928C128.857 45.928 130.425 46.1947 131.79 46.728C133.177 47.2613 134.254 48.0187 135.022 49C135.79 49.96 136.174 51.08 136.174 52.36C136.174 53.64 135.79 54.76 135.022 55.72C134.254 56.68 133.187 57.4267 131.822 57.96C130.457 58.472 128.889 58.728 127.118 58.728ZM127.118 54.952C128.014 54.952 128.729 54.728 129.262 54.28C129.817 53.8107 130.094 53.1707 130.094 52.36C130.094 51.528 129.817 50.8773 129.262 50.408C128.729 49.9387 128.003 49.704 127.086 49.704C126.169 49.704 125.422 49.9387 124.846 50.408C124.291 50.856 124.014 51.4853 124.014 52.296C124.014 53.128 124.291 53.7787 124.846 54.248C125.422 54.7173 126.179 54.952 127.118 54.952ZM148.014 69.576C146.201 69.576 144.601 69.32 143.214 68.808C141.849 68.2747 140.782 67.5173 140.014 66.536C139.267 65.5547 138.894 64.4133 138.894 63.112C138.894 61.8533 139.267 60.744 140.014 59.784C140.782 58.8027 141.849 58.056 143.214 57.544C144.601 57.0107 146.19 56.744 147.982 56.744C149.753 56.744 151.321 57.0107 152.686 57.544C154.073 58.0773 155.139 58.8347 155.886 59.816C156.654 60.7973 157.038 61.928 157.038 63.208C157.038 64.488 156.654 65.608 155.886 66.568C155.139 67.528 154.083 68.2747 152.718 68.808C151.353 69.32 149.785 69.576 148.014 69.576ZM148.014 65.8C148.91 65.8 149.625 65.5653 150.158 65.096C150.713 64.6267 150.99 63.9973 150.99 63.208C150.99 62.376 150.713 61.7253 150.158 61.256C149.625 60.7653 148.899 60.52 147.982 60.52C147.043 60.52 146.297 60.7547 145.742 61.224C145.187 61.6933 144.91 62.3227 144.91 63.112C144.91 63.944 145.187 64.6053 145.742 65.096C146.297 65.5653 147.054 65.8 148.014 65.8Z" fill="#161B44"/>
<path d="M59.1674 55.752L58.2651 56.9503L58.2742 56.9571L59.1674 55.752ZM60.3194 65.832L59.1735 64.864L59.172 64.8658L60.3194 65.832ZM55.9034 68.648L55.4149 67.2298L55.9034 68.648ZM39.6154 66.76L38.6222 67.8841L38.628 67.8892L38.6338 67.8943L39.6154 66.76ZM39.8394 49.32L40.8484 50.4299H40.8484L39.8394 49.32ZM57.5994 47.72L56.9121 49.0533L56.9203 49.0575L56.9286 49.0616L57.5994 47.72ZM61.6634 52.136L61.8265 53.6271L63.6615 53.4264L63.0896 51.6713L61.6634 52.136ZM53.4714 53.032L52.1406 53.724L52.6141 54.6347L53.6345 54.5231L53.4714 53.032ZM52.0314 51.816L51.4301 53.1902L51.4484 53.1982L51.4668 53.2057L52.0314 51.816ZM45.7594 52.52L46.7197 53.6723L46.7223 53.6701L45.7594 52.52ZM44.1274 55.848L42.64 55.654L42.1636 59.3058L45.0559 57.026L44.1274 55.848ZM52.4154 63.624L53.2015 64.9015L53.2133 64.8943L53.2249 64.8868L52.4154 63.624ZM52.5754 59.368L51.6868 60.5765L51.6985 60.5851L51.7104 60.5935L52.5754 59.368ZM46.5914 59.144L45.9884 57.7705H45.9884L46.5914 59.144ZM44.3834 60.84L43.2121 59.903L42.7467 60.4846L42.9289 61.2069L44.3834 60.84ZM51.3914 55.204C54.5872 55.204 56.8108 55.8553 58.2651 56.9503L60.0696 54.5537C57.8972 52.918 54.9369 52.204 51.3914 52.204V55.204ZM58.2742 56.9571C59.6614 57.9853 60.3874 59.4331 60.3874 61.512H63.3874C63.3874 58.5989 62.3 56.2067 60.0606 54.5469L58.2742 56.9571ZM60.3874 61.512C60.3874 62.8058 59.9867 63.9015 59.1735 64.864L61.4652 66.8C62.7428 65.2878 63.3874 63.5036 63.3874 61.512H60.3874ZM59.172 64.8658C58.3649 65.8242 57.1484 66.6327 55.4149 67.2298L56.3919 70.0662C58.4983 69.3407 60.2258 68.2718 61.4667 66.7982L59.172 64.8658ZM55.4149 67.2298C53.6869 67.825 51.6185 68.14 49.1834 68.14V71.14C51.8682 71.14 54.2798 70.7937 56.3919 70.0662L55.4149 67.2298ZM49.1834 68.14C45.2349 68.14 42.4482 67.2278 40.5969 65.6257L38.6338 67.8943C41.2198 70.1322 44.8119 71.14 49.1834 71.14V68.14ZM40.6085 65.6359C38.8097 64.0466 37.8194 61.7073 37.8194 58.376H34.8194C34.8194 62.3407 36.0264 65.5908 38.6222 67.8841L40.6085 65.6359ZM37.8194 58.376C37.8194 54.7894 38.8846 52.2151 40.8484 50.4299L38.8304 48.2101C36.1008 50.6915 34.8194 54.1546 34.8194 58.376H37.8194ZM40.8484 50.4299C42.8329 48.6258 45.7517 47.62 49.8234 47.62V44.62C45.2763 44.62 41.5392 45.7475 38.8304 48.2101L40.8484 50.4299ZM49.8234 47.62C52.7763 47.62 55.1148 48.1268 56.9121 49.0533L58.2866 46.3867C55.9453 45.1798 53.0998 44.62 49.8234 44.62V47.62ZM56.9286 49.0616C58.7264 49.9606 59.764 51.1487 60.2372 52.6007L63.0896 51.6713C62.3254 49.326 60.6537 47.5701 58.2702 46.3784L56.9286 49.0616ZM61.5003 50.6449L53.3083 51.5409L53.6345 54.5231L61.8265 53.6271L61.5003 50.6449ZM54.8022 52.34C54.3256 51.4235 53.5314 50.8063 52.5959 50.4263L51.4668 53.2057C51.8967 53.3803 52.0625 53.5739 52.1406 53.724L54.8022 52.34ZM52.6326 50.4418C51.7035 50.0353 50.6297 49.868 49.4714 49.868V52.868C50.3611 52.868 50.9939 52.9994 51.4301 53.1902L52.6326 50.4418ZM49.4714 49.868C47.6698 49.868 46.0563 50.3151 44.7965 51.3699L46.7223 53.6701C47.2971 53.1889 48.1583 52.868 49.4714 52.868V49.868ZM44.7991 51.3677C43.5402 52.4167 42.867 53.9136 42.64 55.654L45.6148 56.042C45.7718 54.8384 46.1865 54.1166 46.7197 53.6723L44.7991 51.3677ZM45.0559 57.026C46.5322 55.8624 48.5933 55.204 51.3914 55.204V52.204C48.1308 52.204 45.3492 52.975 43.1988 54.67L45.0559 57.026ZM49.1514 65.892C50.6727 65.892 52.0602 65.6038 53.2015 64.9015L51.6292 62.3465C51.1066 62.6682 50.3181 62.892 49.1514 62.892V65.892ZM53.2249 64.8868C54.4075 64.1287 55.1634 62.9963 55.1634 61.544H52.1634C52.1634 61.7983 52.0872 62.0526 51.6059 62.3612L53.2249 64.8868ZM55.1634 61.544C55.1634 60.1509 54.5901 58.9541 53.4404 58.1425L51.7104 60.5935C52.0113 60.8059 52.1634 61.0598 52.1634 61.544H55.1634ZM53.464 58.1595C52.3891 57.3692 51.0194 57.068 49.5354 57.068V60.068C50.654 60.068 51.311 60.3001 51.6868 60.5765L53.464 58.1595ZM49.5354 57.068C48.2686 57.068 47.0778 57.2923 45.9884 57.7705L47.1944 60.5175C47.8543 60.2277 48.6262 60.068 49.5354 60.068V57.068ZM45.9884 57.7705C44.8916 58.2521 43.9606 58.9672 43.2121 59.903L45.5547 61.777C46.0008 61.2194 46.5418 60.8039 47.1944 60.5175L45.9884 57.7705ZM42.9289 61.2069C43.2918 62.6454 43.9962 63.8643 45.1273 64.7069C46.2496 65.543 47.6355 65.892 49.1514 65.892V62.892C48.0859 62.892 47.3865 62.649 46.9195 62.3011C46.4612 61.9597 46.0723 61.4026 45.8378 60.4731L42.9289 61.2069ZM63.1974 63.976L62.6707 62.5715L61.6974 62.9365V63.976H63.1974ZM75.5494 58.696L76.1851 60.0546L76.2027 60.0464L76.2202 60.0376L75.5494 58.696ZM78.5574 56.648L79.6909 57.6304L79.6989 57.6212L79.7067 57.6119L78.5574 56.648ZM78.3974 52.392L79.2911 51.1874L78.3974 52.392ZM72.5414 52.52L73.4526 53.7115L73.4576 53.7077L72.5414 52.52ZM71.4534 55.016H69.9534V55.0501L69.9549 55.0841L71.4534 55.016ZM71.4854 55.72L71.3564 57.2144L73.0615 57.3616L72.9838 55.6519L71.4854 55.72ZM63.3254 55.016L61.8315 55.1518L61.9452 56.4025L63.1964 56.5104L63.3254 55.016ZM64.8934 49.736L63.7942 48.7153L63.7935 48.7161L64.8934 49.736ZM69.4054 47.048L69.8555 48.4789L69.8628 48.4766L69.8701 48.4742L69.4054 47.048ZM84.6054 47.976L83.8584 49.2768L83.866 49.2811L83.8736 49.2854L84.6054 47.976ZM86.7814 57.416L87.9876 58.3076L87.9922 58.3014L87.9967 58.2952L86.7814 57.416ZM83.1014 60.232L82.4109 58.9004L82.4005 58.9058L82.3902 58.9113L83.1014 60.232ZM74.6534 63.24L74.2758 61.7883L74.6534 64.74V63.24ZM88.1894 63.24H89.6894V61.74H88.1894V63.24ZM88.1894 69V70.5H89.6894V69H88.1894ZM63.1974 69H61.6974V70.5H63.1974V69ZM63.7241 65.3805C67.355 64.0189 71.5099 62.2421 76.1851 60.0546L74.9137 57.3374C70.2875 59.5019 66.2078 61.2451 62.6707 62.5715L63.7241 65.3805ZM76.2202 60.0376C77.7156 59.2899 78.9369 58.5004 79.6909 57.6304L77.4238 55.6656C77.0686 56.0756 76.2845 56.6514 74.8786 57.3544L76.2202 60.0376ZM79.7067 57.6119C80.4912 56.6766 80.8894 55.566 80.8894 54.344H77.8894C77.8894 54.8713 77.7329 55.2968 77.4081 55.6841L79.7067 57.6119ZM80.8894 54.344C80.8894 53.0497 80.3267 51.9557 79.2911 51.1874L77.5036 53.5966C77.7907 53.8096 77.8894 54.017 77.8894 54.344H80.8894ZM79.2911 51.1874C78.2781 50.4357 76.9904 50.156 75.6134 50.156V53.156C76.6257 53.156 77.194 53.3669 77.5036 53.5966L79.2911 51.1874ZM75.6134 50.156C74.1045 50.156 72.718 50.4893 71.6252 51.3323L73.4576 53.7077C73.8581 53.3987 74.5196 53.156 75.6134 53.156V50.156ZM71.6302 51.3285C70.453 52.2287 69.9534 53.5515 69.9534 55.016H72.9534C72.9534 54.2619 73.1791 53.9206 73.4526 53.7115L71.6302 51.3285ZM69.9549 55.0841L69.9869 55.7881L72.9838 55.6519L72.9518 54.9479L69.9549 55.0841ZM71.6143 54.2256L63.4543 53.5216L63.1964 56.5104L71.3564 57.2144L71.6143 54.2256ZM64.8192 54.8802C64.777 54.4155 64.7614 54.1322 64.7614 53.992H61.7614C61.7614 54.2784 61.7884 54.6778 61.8315 55.1518L64.8192 54.8802ZM64.7614 53.992C64.7614 52.6896 65.1736 51.6399 65.9933 50.7559L63.7935 48.7161C62.4372 50.1788 61.7614 51.9664 61.7614 53.992H64.7614ZM65.9926 50.7567C66.8896 49.7907 68.1506 49.0152 69.8555 48.4789L68.9552 45.6171C66.8628 46.2754 65.1158 47.292 63.7942 48.7153L65.9926 50.7567ZM69.8701 48.4742C71.5926 47.9129 73.5758 47.62 75.8374 47.62V44.62C73.3203 44.62 71.0155 44.9457 68.9407 45.6218L69.8701 48.4742ZM75.8374 47.62C79.3841 47.62 82.0153 48.2184 83.8584 49.2768L85.3524 46.6752C82.8861 45.259 79.672 44.62 75.8374 44.62V47.62ZM83.8736 49.2854C84.7619 49.7818 85.3658 50.3757 85.7556 51.0481C86.1461 51.722 86.3694 52.5575 86.3694 53.608H89.3694C89.3694 52.1198 89.0486 50.7473 88.3512 49.5439C87.6529 48.339 86.6248 47.3862 85.3371 46.6666L83.8736 49.2854ZM86.3694 53.608C86.3694 54.9054 86.0657 55.8461 85.566 56.5368L87.9967 58.2952C88.9477 56.9806 89.3694 55.3826 89.3694 53.608H86.3694ZM85.5751 56.5244C85.0433 57.244 84.0436 58.0538 82.4109 58.9004L83.7919 61.5636C85.6152 60.6182 87.0688 59.5507 87.9876 58.3076L85.5751 56.5244ZM82.3902 58.9113C80.6038 59.8732 77.9214 60.84 74.2758 61.7883L75.031 64.6917C78.7666 63.72 81.7163 62.6815 83.8125 61.5527L82.3902 58.9113ZM74.6534 64.74H88.1894V61.74H74.6534V64.74ZM86.6894 63.24V69H89.6894V63.24H86.6894ZM88.1894 67.5H63.1974V70.5H88.1894V67.5ZM64.6974 69V63.976H61.6974V69H64.6974ZM90.8849 63.976L90.3582 62.5715L89.3849 62.9365V63.976H90.8849ZM103.237 58.696L103.873 60.0546L103.89 60.0464L103.908 60.0376L103.237 58.696ZM106.245 56.648L107.378 57.6304L107.386 57.6212L107.394 57.6119L106.245 56.648ZM106.085 52.392L106.979 51.1874L106.085 52.392ZM100.229 52.52L101.14 53.7115L101.145 53.7077L100.229 52.52ZM99.1409 55.016H97.6409V55.0501L97.6424 55.0841L99.1409 55.016ZM99.1729 55.72L99.0439 57.2144L100.749 57.3616L100.671 55.6519L99.1729 55.72ZM91.0129 55.016L89.519 55.1518L89.6327 56.4025L90.8839 56.5104L91.0129 55.016ZM92.5809 49.736L91.4817 48.7153L91.481 48.7161L92.5809 49.736ZM97.0929 47.048L97.543 48.4789L97.5503 48.4766L97.5576 48.4742L97.0929 47.048ZM112.293 47.976L111.546 49.2768L111.553 49.2811L111.561 49.2854L112.293 47.976ZM114.469 57.416L115.675 58.3076L115.68 58.3014L115.684 58.2952L114.469 57.416ZM110.789 60.232L110.098 58.9004L110.088 58.9058L110.078 58.9113L110.789 60.232ZM102.341 63.24L101.963 61.7883L102.341 64.74V63.24ZM115.877 63.24H117.377V61.74H115.877V63.24ZM115.877 69V70.5H117.377V69H115.877ZM90.8849 69H89.3849V70.5H90.8849V69ZM91.4116 65.3805C95.0425 64.0189 99.1974 62.2421 103.873 60.0546L102.601 57.3374C97.975 59.5019 93.8953 61.2451 90.3582 62.5715L91.4116 65.3805ZM103.908 60.0376C105.403 59.2899 106.624 58.5004 107.378 57.6304L105.111 55.6656C104.756 56.0756 103.972 56.6514 102.566 57.3544L103.908 60.0376ZM107.394 57.6119C108.179 56.6766 108.577 55.566 108.577 54.344H105.577C105.577 54.8713 105.42 55.2968 105.096 55.6841L107.394 57.6119ZM108.577 54.344C108.577 53.0497 108.014 51.9557 106.979 51.1874L105.191 53.5966C105.478 53.8096 105.577 54.017 105.577 54.344H108.577ZM106.979 51.1874C105.966 50.4357 104.678 50.156 103.301 50.156V53.156C104.313 53.156 104.881 53.3669 105.191 53.5966L106.979 51.1874ZM103.301 50.156C101.792 50.156 100.406 50.4893 99.3127 51.3323L101.145 53.7077C101.546 53.3987 102.207 53.156 103.301 53.156V50.156ZM99.3177 51.3285C98.1405 52.2287 97.6409 53.5515 97.6409 55.016H100.641C100.641 54.2619 100.867 53.9206 101.14 53.7115L99.3177 51.3285ZM97.6424 55.0841L97.6744 55.7881L100.671 55.6519L100.639 54.9479L97.6424 55.0841ZM99.3018 54.2256L91.1418 53.5216L90.8839 56.5104L99.0439 57.2144L99.3018 54.2256ZM92.5067 54.8802C92.4645 54.4155 92.4489 54.1322 92.4489 53.992H89.4489C89.4489 54.2784 89.4759 54.6778 89.519 55.1518L92.5067 54.8802ZM92.4489 53.992C92.4489 52.6896 92.8611 51.6399 93.6808 50.7559L91.481 48.7161C90.1247 50.1788 89.4489 51.9664 89.4489 53.992H92.4489ZM93.6801 50.7567C94.5771 49.7907 95.8381 49.0152 97.543 48.4789L96.6427 45.6171C94.5503 46.2754 92.8033 47.292 91.4817 48.7153L93.6801 50.7567ZM97.5576 48.4742C99.2801 47.9129 101.263 47.62 103.525 47.62V44.62C101.008 44.62 98.703 44.9457 96.6282 45.6218L97.5576 48.4742ZM103.525 47.62C107.072 47.62 109.703 48.2184 111.546 49.2768L113.04 46.6752C110.574 45.259 107.359 44.62 103.525 44.62V47.62ZM111.561 49.2854C112.449 49.7818 113.053 50.3757 113.443 51.0481C113.834 51.722 114.057 52.5575 114.057 53.608H117.057C117.057 52.1198 116.736 50.7473 116.039 49.5439C115.34 48.339 114.312 47.3862 113.025 46.6666L111.561 49.2854ZM114.057 53.608C114.057 54.9054 113.753 55.8461 113.254 56.5368L115.684 58.2952C116.635 56.9806 117.057 55.3826 117.057 53.608H114.057ZM113.263 56.5244C112.731 57.244 111.731 58.0538 110.098 58.9004L111.479 61.5636C113.303 60.6182 114.756 59.5507 115.675 58.3076L113.263 56.5244ZM110.078 58.9113C108.291 59.8732 105.609 60.84 101.963 61.7883L102.718 64.6917C106.454 63.72 109.404 62.6815 111.5 61.5527L110.078 58.9113ZM102.341 64.74H115.877V61.74H102.341V64.74ZM114.377 63.24V69H117.377V63.24H114.377ZM115.877 67.5H90.8849V70.5H115.877V67.5ZM92.3849 69V63.976H89.3849V69H92.3849ZM148.046 45.64V44.14H147.468L147.04 44.5273L148.046 45.64ZM153.806 45.64L154.812 46.7527L157.702 44.14H153.806V45.64ZM127.47 69.448V70.948H128.047L128.476 70.5607L127.47 69.448ZM121.71 69.448L120.704 68.3353L117.814 70.948H121.71V69.448ZM122.318 57.96L121.772 59.3572L121.785 59.3623L121.798 59.3671L122.318 57.96ZM119.15 55.72L117.956 56.6283L117.961 56.6346L117.966 56.6409L119.15 55.72ZM119.15 48.968L120.334 49.8889L120.339 49.8826L120.344 49.8763L119.15 48.968ZM122.318 46.728L122.845 48.1325L122.856 48.128L122.318 46.728ZM131.79 46.728L131.244 48.1252L131.251 48.128L131.79 46.728ZM135.022 49L133.841 49.9245L133.846 49.9308L133.851 49.937L135.022 49ZM135.022 55.72L133.851 54.783L135.022 55.72ZM131.822 57.96L132.349 59.3645L132.358 59.3609L132.368 59.3572L131.822 57.96ZM129.262 54.28L130.227 55.4286L130.231 55.4251L129.262 54.28ZM129.262 50.408L128.271 51.5341L128.282 51.5437L128.293 51.5531L129.262 50.408ZM124.846 50.408L125.788 51.5749L125.793 51.5709L124.846 50.408ZM124.846 54.248L123.877 55.3931L123.888 55.4021L123.898 55.4109L124.846 54.248ZM143.214 68.808L142.668 70.2052L142.681 70.2103L142.694 70.2151L143.214 68.808ZM140.014 66.536L138.82 67.4443L138.826 67.4524L138.833 67.4605L140.014 66.536ZM140.014 59.784L138.833 58.8595L138.83 58.8631L140.014 59.784ZM143.214 57.544L143.741 58.9485L143.752 58.944L143.214 57.544ZM152.686 57.544L152.14 58.9412L152.147 58.944L152.686 57.544ZM155.886 59.816L154.692 60.7243L154.698 60.7324L154.705 60.7405L155.886 59.816ZM155.886 66.568L154.715 65.631L154.708 65.639L154.702 65.6471L155.886 66.568ZM152.718 68.808L153.245 70.2125L153.254 70.2089L153.264 70.2052L152.718 68.808ZM150.158 65.096L149.189 63.9509L149.178 63.9603L149.167 63.9699L150.158 65.096ZM150.158 61.256L149.142 62.3599L149.165 62.381L149.189 62.4011L150.158 61.256ZM145.742 61.224L144.773 60.0789L145.742 61.224ZM145.742 65.096L144.748 66.2195L144.76 66.2304L144.773 66.2411L145.742 65.096ZM148.046 47.14H153.806V44.14H148.046V47.14ZM152.8 44.5273L126.464 68.3353L128.476 70.5607L154.812 46.7527L152.8 44.5273ZM127.47 67.948H121.71V70.948H127.47V67.948ZM122.716 70.5607L149.052 46.7527L147.04 44.5273L120.704 68.3353L122.716 70.5607ZM127.118 57.228C125.443 57.228 124.025 56.9913 122.837 56.5529L121.798 59.3671C123.384 59.9527 125.166 60.228 127.118 60.228V57.228ZM122.864 56.5628C121.698 56.1076 120.884 55.5057 120.334 54.7991L117.966 56.6409C118.91 57.8543 120.207 58.7457 121.772 59.3572L122.864 56.5628ZM120.344 54.8117C119.807 54.1065 119.53 53.2886 119.53 52.296H116.53C116.53 53.906 116.999 55.3708 117.956 56.6283L120.344 54.8117ZM119.53 52.296C119.53 51.3583 119.8 50.5759 120.334 49.8889L117.966 48.0471C117.007 49.2801 116.53 50.7163 116.53 52.296H119.53ZM120.344 49.8763C120.89 49.1582 121.695 48.5636 122.845 48.1325L121.791 45.3235C120.21 45.9164 118.903 46.8152 117.956 48.0597L120.344 49.8763ZM122.856 48.128C124.04 47.6729 125.441 47.428 127.086 47.428V44.428C125.147 44.428 123.369 44.7165 121.779 45.328L122.856 48.128ZM127.086 47.428C128.708 47.428 130.085 47.6723 131.244 48.1252L132.336 45.3308C130.764 44.717 129.005 44.428 127.086 44.428V47.428ZM131.251 48.128C132.434 48.5828 133.27 49.1948 133.841 49.9245L136.203 48.0755C135.238 46.8426 133.919 45.9399 132.328 45.328L131.251 48.128ZM133.851 49.937C134.397 50.6195 134.674 51.4055 134.674 52.36H137.674C137.674 50.7545 137.183 49.3005 136.193 48.063L133.851 49.937ZM134.674 52.36C134.674 53.3145 134.397 54.1005 133.851 54.783L136.193 56.657C137.183 55.4195 137.674 53.9655 137.674 52.36H134.674ZM133.851 54.783C133.276 55.501 132.443 56.1068 131.276 56.5628L132.368 59.3572C133.931 58.7465 135.232 57.859 136.193 56.657L133.851 54.783ZM131.295 56.5555C130.13 56.9924 128.746 57.228 127.118 57.228V60.228C129.031 60.228 130.783 59.9516 132.349 59.3645L131.295 56.5555ZM127.118 56.452C128.264 56.452 129.353 56.1621 130.227 55.4286L128.297 53.1314C128.104 53.2939 127.764 53.452 127.118 53.452V56.452ZM130.231 55.4251C131.164 54.6356 131.594 53.5545 131.594 52.36H128.594C128.594 52.7869 128.469 52.9857 128.293 53.1349L130.231 55.4251ZM131.594 52.36C131.594 51.1582 131.173 50.0604 130.231 49.2629L128.293 51.5531C128.46 51.6943 128.594 51.8978 128.594 52.36H131.594ZM130.253 49.2819C129.374 48.5082 128.259 48.204 127.086 48.204V51.204C127.747 51.204 128.083 51.3691 128.271 51.5341L130.253 49.2819ZM127.086 48.204C125.907 48.204 124.8 48.5103 123.898 49.2451L125.793 51.5709C126.044 51.367 126.43 51.204 127.086 51.204V48.204ZM123.903 49.2411C122.945 50.0151 122.514 51.1021 122.514 52.296H125.514C125.514 51.8685 125.637 51.6969 125.788 51.5749L123.903 49.2411ZM122.514 52.296C122.514 53.4978 122.934 54.5956 123.877 55.3931L125.815 53.1029C125.648 52.9617 125.514 52.7582 125.514 52.296H122.514ZM123.898 55.4109C124.806 56.1505 125.927 56.452 127.118 56.452V53.452C126.432 53.452 126.038 53.2842 125.793 53.0851L123.898 55.4109ZM148.014 68.076C146.339 68.076 144.921 67.8393 143.733 67.4009L142.694 70.2151C144.28 70.8007 146.062 71.076 148.014 71.076V68.076ZM143.76 67.4108C142.6 66.9579 141.77 66.3465 141.195 65.6115L138.833 67.4605C139.793 68.6882 141.097 69.5915 142.668 70.2052L143.76 67.4108ZM141.208 65.6277C140.671 64.9225 140.394 64.1046 140.394 63.112H137.394C137.394 64.722 137.863 66.1868 138.82 67.4443L141.208 65.6277ZM140.394 63.112C140.394 62.1743 140.664 61.3919 141.198 60.7049L138.83 58.8631C137.871 60.0961 137.394 61.5323 137.394 63.112H140.394ZM141.195 60.7085C141.766 59.9789 142.589 59.3804 143.741 58.9485L142.687 56.1395C141.108 56.7316 139.798 57.6264 138.833 58.8595L141.195 60.7085ZM143.752 58.944C144.936 58.4889 146.337 58.244 147.982 58.244V55.244C146.043 55.244 144.265 55.5325 142.675 56.144L143.752 58.944ZM147.982 58.244C149.604 58.244 150.981 58.4883 152.14 58.9412L153.232 56.1468C151.66 55.533 149.901 55.244 147.982 55.244V58.244ZM152.147 58.944C153.328 59.398 154.146 60.0061 154.692 60.7243L157.08 58.9077C156.133 57.6632 154.817 56.7567 153.224 56.144L152.147 58.944ZM154.705 60.7405C155.26 61.4502 155.538 62.2533 155.538 63.208H158.538C158.538 61.6027 158.048 60.1444 157.067 58.8915L154.705 60.7405ZM155.538 63.208C155.538 64.1625 155.261 64.9485 154.715 65.631L157.057 67.505C158.047 66.2675 158.538 64.8135 158.538 63.208H155.538ZM154.702 65.6471C154.152 66.3537 153.337 66.9556 152.172 67.4108L153.264 70.2052C154.829 69.5937 156.126 68.7023 157.07 67.4889L154.702 65.6471ZM152.191 67.4035C151.026 67.8404 149.642 68.076 148.014 68.076V71.076C149.927 71.076 151.679 70.7996 153.245 70.2125L152.191 67.4035ZM148.014 67.3C149.176 67.3 150.276 66.9903 151.149 66.2221L149.167 63.9699C148.973 64.1403 148.644 64.3 148.014 64.3V67.3ZM151.127 66.2411C152.05 65.46 152.49 64.3954 152.49 63.208H149.49C149.49 63.5993 149.375 63.7934 149.189 63.9509L151.127 66.2411ZM152.49 63.208C152.49 62.0062 152.069 60.9084 151.127 60.1109L149.189 62.4011C149.356 62.5423 149.49 62.7458 149.49 63.208H152.49ZM151.173 60.1521C150.295 59.3442 149.172 59.02 147.982 59.02V62.02C148.627 62.02 148.954 62.1865 149.142 62.3599L151.173 60.1521ZM147.982 59.02C146.794 59.02 145.669 59.3204 144.773 60.0789L146.711 62.3691C146.924 62.1889 147.292 62.02 147.982 62.02V59.02ZM144.773 60.0789C143.85 60.86 143.41 61.9246 143.41 63.112H146.41C146.41 62.7207 146.525 62.5266 146.711 62.3691L144.773 60.0789ZM143.41 63.112C143.41 64.3146 143.83 65.4072 144.748 66.2195L146.736 63.9725C146.545 63.8035 146.41 63.5734 146.41 63.112H143.41ZM144.773 66.2411C145.675 67.0044 146.814 67.3 148.014 67.3V64.3C147.293 64.3 146.918 64.1262 146.711 63.9509L144.773 66.2411Z" fill="url(#paint1_linear-182157)"/>
</g>
<path d="M78.8651 26.3281C78.6222 24.3125 77.0966 23.1534 75.0767 23.1534C72.7713 23.1534 71.0114 24.7812 71.0114 27.6364C71.0114 30.483 72.7415 32.1193 75.0767 32.1193C77.3139 32.1193 78.6648 30.6321 78.8651 29.0256L76.9986 29.017C76.8239 29.9503 76.0909 30.4872 75.1065 30.4872C73.7812 30.4872 72.8821 29.5028 72.8821 27.6364C72.8821 25.821 73.7685 24.7855 75.1193 24.7855C76.1293 24.7855 76.858 25.3693 76.9986 26.3281H78.8651ZM84.2322 26.9162H80.2521V28.3565H84.2322V26.9162ZM85.8132 32H87.6584V28.9062H89.005L90.6584 32H92.6953L90.8416 28.608C91.8345 28.1818 92.3842 27.3168 92.3842 26.1236C92.3842 24.3892 91.2379 23.2727 89.2564 23.2727H85.8132V32ZM87.6584 27.4233V24.7812H88.9027C89.968 24.7812 90.4837 25.2543 90.4837 26.1236C90.4837 26.9886 89.968 27.4233 88.9112 27.4233H87.6584ZM95.1925 32L95.8402 30.0099H98.9893L99.6371 32H101.614L98.6058 23.2727H96.228L93.2152 32H95.1925ZM96.3089 28.5696L97.3828 25.267H97.451L98.5249 28.5696H96.3089ZM101.254 24.794H103.926V32H105.75V24.794H108.422V23.2727H101.254V24.794ZM111.447 23.2727H109.602V32H111.447V23.2727ZM120.985 27.6364C120.985 24.7812 119.213 23.1534 116.899 23.1534C114.572 23.1534 112.812 24.7812 112.812 27.6364C112.812 30.4787 114.572 32.1193 116.899 32.1193C119.213 32.1193 120.985 30.4915 120.985 27.6364ZM119.115 27.6364C119.115 29.4858 118.237 30.4872 116.899 30.4872C115.556 30.4872 114.683 29.4858 114.683 27.6364C114.683 25.7869 115.556 24.7855 116.899 24.7855C118.237 24.7855 119.115 25.7869 119.115 27.6364Z" fill="white"/>
<defs>
<filter id="filter0_d-204411" x="-3.05176e-05" y="73" width="155.291" height="36" filterUnits="userSpaceOnUse" color-interpolation-filters="sRGB">
<feFlood flood-opacity="0" result="BackgroundImageFix"/>
<feColorMatrix in="SourceAlpha" type="matrix" values="0 0 0 0 0 0 0 0 0 0 0 0 0 0 0 0 0 0 127 0"/>
<feOffset/>
<feGaussianBlur stdDeviation="7.5"/>
<feColorMatrix type="matrix" values="0 0 0 0 0 0 0 0 0 0.819608 0 0 0 0 1 0 0 0 0.6 0"/>
<feBlend mode="normal" in2="BackgroundImageFix" result="effect1_dropShadow"/>
<feBlend mode="normal" in="SourceGraphic" in2="effect1_dropShadow" result="shape"/>
</filter>
<filter id="filter1_d-429378" x="132.658" y="80.3674" width="52.9742" height="21.2653" filterUnits="userSpaceOnUse" color-interpolation-filters="sRGB">
<feFlood flood-opacity="0" result="BackgroundImageFix"/>
<feColorMatrix in="SourceAlpha" type="matrix" values="0 0 0 0 0 0 0 0 0 0 0 0 0 0 0 0 0 0 127 0"/>
<feOffset/>
<feGaussianBlur stdDeviation="3.81632"/>
<feColorMatrix type="matrix" values="0 0 0 0 0.929412 0 0 0 0 0.117647 0 0 0 0 1 0 0 0 0.6 0"/>
<feBlend mode="normal" in2="BackgroundImageFix" result="effect1_dropShadow"/>
<feBlend mode="normal" in="SourceGraphic" in2="effect1_dropShadow" result="shape"/>
</filter>
<filter id="filter2_d-126210" x="19.8194" y="29.14" width="153.718" height="57" filterUnits="userSpaceOnUse" color-interpolation-filters="sRGB">
<feFlood flood-opacity="0" result="BackgroundImageFix"/>
<feColorMatrix in="SourceAlpha" type="matrix" values="0 0 0 0 0 0 0 0 0 0 0 0 0 0 0 0 0 0 127 0"/>
<feOffset/>
<feGaussianBlur stdDeviation="7.5"/>
<feColorMatrix type="matrix" values="0 0 0 0 0 0 0 0 0 0.819608 0 0 0 0 1 0 0 0 0.6 0"/>
<feBlend mode="normal" in2="BackgroundImageFix" result="effect1_dropShadow"/>
<feBlend mode="normal" in="SourceGraphic" in2="effect1_dropShadow" result="shape"/>
</filter>
<linearGradient id="paint0_linear-398981" x1="96.5" y1="115" x2="96.5" y2="-50.0729" gradientUnits="userSpaceOnUse">
<stop stop-color="#0B032A"/>
<stop offset="1" stop-color="#0B032A" stop-opacity="0.76"/>
</linearGradient>
<linearGradient id="paint1_linear-182157" x1="96.5" y1="38" x2="96.5" y2="76" gradientUnits="userSpaceOnUse">
<stop stop-color="#ED1EFF"/>
<stop offset="1" stop-color="#00D1FF"/>
</linearGradient>
</defs>
</svg>