<svg width="215" height="214" viewBox="0 0 215 214" fill="none" xmlns="http://www.w3.org/2000/svg">
<g filter="url(#filter0_d-736522)">
<path d="M40.4205 112.871L113.354 174.113L174.558 101.133L101.624 39.8908L40.4205 112.871Z" stroke="url(#paint0_linear-016731)" stroke-width="0.807915" stroke-miterlimit="10" stroke-linecap="round"/>
</g>
<g filter="url(#filter1_d-028658)">
<path d="M35.4083 119.709L120.192 179.112L179.557 94.2746L94.7732 34.872L35.4083 119.709Z" stroke="url(#paint1_linear-948299)" stroke-width="0.807915" stroke-miterlimit="10" stroke-linecap="round"/>
</g>
<g filter="url(#filter2_d-689099)">
<path d="M107.597 133.104C122.184 133.104 134.01 121.27 134.01 106.673C134.01 92.0762 122.184 80.2429 107.597 80.2429C93.0087 80.2429 81.1829 92.0762 81.1829 106.673C81.1829 121.27 93.0087 133.104 107.597 133.104Z" fill="#0C2344"/>
<path d="M133.47 106.673C133.47 120.973 121.886 132.564 107.597 132.564C93.3072 132.564 81.7228 120.973 81.7228 106.673C81.7228 92.3741 93.3072 80.7828 107.597 80.7828C121.886 80.7828 133.47 92.3741 133.47 106.673Z" stroke="#00D1FF" stroke-width="1.07981"/>
</g>
<path d="M99.78 101.081C99.5696 100.84 99.3106 100.72 99.0023 100.72L92.6977 100.72C92.6417 100.72 92.5959 100.702 92.5614 100.666C92.5263 100.632 92.5088 100.592 92.5088 100.55L92.5088 96.3043C92.5088 96.2621 92.5263 96.2232 92.5614 96.1878C92.5959 96.1524 92.6417 96.1346 92.6977 96.1346L99.3598 96.1346C101.041 96.1346 102.491 96.8214 103.71 98.1937L105.328 100.168L102.176 104.01L99.78 101.081ZM111.423 98.1726C112.642 96.814 114.099 96.1346 115.794 96.1346L122.435 96.1346C122.491 96.1346 122.533 96.1489 122.562 96.1769C122.589 96.2055 122.603 96.2478 122.603 96.3043L122.603 100.55C122.603 100.592 122.589 100.632 122.562 100.666C122.533 100.702 122.491 100.72 122.435 100.72L116.131 100.72C115.823 100.72 115.564 100.84 115.353 101.081L110.709 106.727L115.374 112.416C115.584 112.643 115.836 112.756 116.131 112.756L122.435 112.756C122.491 112.756 122.533 112.773 122.562 112.809C122.589 112.844 122.603 112.891 122.603 112.947L122.603 117.192C122.603 117.234 122.589 117.274 122.562 117.309C122.533 117.344 122.491 117.362 122.435 117.362L115.794 117.362C114.099 117.362 112.649 116.676 111.444 115.303L107.577 110.59L103.71 115.303C102.491 116.676 101.034 117.362 99.3388 117.362L92.6977 117.362C92.6417 117.362 92.5993 117.344 92.5716 117.309C92.5433 117.273 92.5297 117.228 92.5297 117.17L92.5297 112.925C92.5297 112.883 92.5433 112.844 92.5716 112.808C92.5993 112.773 92.6417 112.755 92.6977 112.755L99.0023 112.755C99.2964 112.755 99.5555 112.635 99.78 112.394L104.34 106.833L111.423 98.1726Z" fill="#00D1FF"/>
<g filter="url(#filter3_d-071181)">
<path d="M30.6426 127.586L128.069 183.873L184.32 86.3845L86.8936 30.0979L30.6426 127.586Z" stroke="url(#paint2_linear-514617)" stroke-width="0.807915" stroke-miterlimit="10" stroke-linecap="round"/>
</g>
<g filter="url(#filter4_d-236937)">
<path d="M26.2268 136.579L137.05 188.287L188.726 77.3939L77.9026 25.6853L26.2268 136.579Z" stroke="url(#paint3_linear-054212)" stroke-width="0.807915" stroke-miterlimit="10" stroke-linecap="round"/>
</g>
<g filter="url(#filter5_d-362857)">
<path d="M22.3191 146.758L147.207 192.24L192.659 67.2728L67.7715 21.7916L22.3191 146.758Z" stroke="url(#paint4_linear-575189)" stroke-width="0.807915" stroke-miterlimit="10" stroke-linecap="round"/>
</g>
<g filter="url(#filter6_d-092176)">
<path d="M19.0334 158.123L158.566 195.533L195.951 55.9121L56.4192 18.5026L19.0334 158.123Z" stroke="url(#paint5_linear-502278)" stroke-width="0.807915" stroke-miterlimit="10" stroke-linecap="round"/>
</g>
<g filter="url(#filter7_d-898258)">
<path d="M16.5333 170.733L171.167 198.009L198.426 43.2765L43.7921 16.0004L16.5333 170.733Z" stroke="url(#paint6_linear-683851)" stroke-width="0.807915" stroke-miterlimit="10" stroke-linecap="round"/>
</g>
<g filter="url(#filter8_d-265836)">
<path d="M15.0278 184.62L185.062 199.513L199.946 29.3705L29.9114 14.4775L15.0278 184.62Z" stroke="url(#paint7_linear-911904)" stroke-width="0.807915" stroke-miterlimit="10" stroke-linecap="round"/>
</g>
<g filter="url(#filter9_d-704303)">
<path d="M14.7312 14.1836L14.7312 199.816L200.246 199.816L200.246 14.1836L14.7312 14.1836Z" stroke="url(#paint8_linear-613026)" stroke-width="0.807915" stroke-miterlimit="10" stroke-linecap="round"/>
</g>
<path fill-rule="evenodd" clip-rule="evenodd" d="M101.615 43.0703C99.8606 43.0703 98.4336 41.6424 98.4336 39.8867C98.4336 38.131 99.8606 36.7031 101.615 36.7031C103.37 36.7031 104.797 38.131 104.797 39.8867C104.797 41.6424 103.37 43.0703 101.615 43.0703Z" fill="url(#paint9_linear-940604)"/>
<path fill-rule="evenodd" clip-rule="evenodd" d="M40.4179 116.059C38.6634 116.059 37.2363 114.631 37.2363 112.876C37.2363 111.12 38.6634 109.692 40.4179 109.692C42.1725 109.692 43.5995 111.12 43.5995 112.876C43.5995 114.631 42.1725 116.059 40.4179 116.059Z" fill="url(#paint10_linear-802654)"/>
<path fill-rule="evenodd" clip-rule="evenodd" d="M113.36 177.297C111.606 177.297 110.178 175.869 110.178 174.113C110.178 172.358 111.606 170.93 113.36 170.93C115.115 170.93 116.542 172.358 116.542 174.113C116.518 175.869 115.115 177.297 113.36 177.297Z" fill="url(#paint11_linear-816708)"/>
<path fill-rule="evenodd" clip-rule="evenodd" d="M174.559 104.308C172.805 104.308 171.378 102.88 171.378 101.124C171.378 99.3687 172.805 97.9408 174.559 97.9408C176.314 97.9408 177.741 99.3687 177.741 101.124C177.741 102.88 176.314 104.308 174.559 104.308Z" fill="url(#paint12_linear-319441)"/>
<path fill-rule="evenodd" clip-rule="evenodd" d="M94.7844 38.0609C93.0298 38.0609 91.6028 36.633 91.6028 34.8773C91.6028 33.1216 93.0298 31.6937 94.7844 31.6937C96.5389 31.6937 97.966 33.1216 97.966 34.8773C97.9426 36.633 96.5389 38.0609 94.7844 38.0609Z" fill="url(#paint13_linear-028653)"/>
<path fill-rule="evenodd" clip-rule="evenodd" d="M35.4106 122.895C33.656 122.895 32.229 121.467 32.229 119.711C32.229 117.955 33.656 116.527 35.4106 116.527C37.1651 116.527 38.5922 117.955 38.5922 119.711C38.5922 121.467 37.1651 122.895 35.4106 122.895Z" fill="url(#paint14_linear-320562)"/>
<path fill-rule="evenodd" clip-rule="evenodd" d="M120.191 182.283C118.436 182.283 117.009 180.855 117.009 179.099C117.009 177.344 118.436 175.916 120.191 175.916C121.945 175.916 123.372 177.344 123.372 179.099C123.372 180.878 121.945 182.283 120.191 182.283Z" fill="url(#paint15_linear-868569)"/>
<path fill-rule="evenodd" clip-rule="evenodd" d="M179.565 97.4728C177.81 97.4728 176.383 96.0448 176.383 94.2892C176.383 92.5335 177.81 91.1056 179.565 91.1056C181.319 91.1056 182.747 92.5335 182.747 94.2892C182.723 96.0448 181.296 97.4728 179.565 97.4728Z" fill="url(#paint16_linear-726532)"/>
<path fill-rule="evenodd" clip-rule="evenodd" d="M86.9003 33.3086C85.1458 33.3086 83.7187 31.8806 83.7187 30.125C83.7187 28.3693 85.1458 26.9414 86.9003 26.9414C88.6549 26.9414 90.0819 28.3693 90.0819 30.125C90.0819 31.8806 88.6549 33.3086 86.9003 33.3086Z" fill="url(#paint17_linear-737012)"/>
<path fill-rule="evenodd" clip-rule="evenodd" d="M30.6608 130.784C28.9063 130.784 27.4792 129.356 27.4792 127.6C27.4792 125.844 28.9063 124.416 30.6608 124.416C32.4154 124.416 33.8424 125.844 33.8424 127.6C33.819 129.356 32.4154 130.784 30.6608 130.784Z" fill="url(#paint18_linear-862169)"/>
<path fill-rule="evenodd" clip-rule="evenodd" d="M128.075 187.058C126.321 187.058 124.894 185.63 124.894 183.875C124.894 182.119 126.321 180.691 128.075 180.691C129.83 180.691 131.257 182.119 131.257 183.875C131.257 185.63 129.83 187.058 128.075 187.058Z" fill="url(#paint19_linear-974501)"/>
<path fill-rule="evenodd" clip-rule="evenodd" d="M184.314 89.5841C182.56 89.5841 181.133 88.1562 181.133 86.4005C181.133 84.6448 182.56 83.2169 184.314 83.2169C186.069 83.2169 187.496 84.6448 187.496 86.4005C187.496 88.1562 186.069 89.5841 184.314 89.5841Z" fill="url(#paint20_linear-430164)"/>
<path fill-rule="evenodd" clip-rule="evenodd" d="M77.9174 28.8845C76.1629 28.8845 74.7358 27.4566 74.7358 25.7009C74.7358 23.9452 76.1629 22.5173 77.9174 22.5173C79.672 22.5173 81.099 23.9452 81.099 25.7009C81.099 27.4566 79.672 28.8845 77.9174 28.8845Z" fill="url(#paint21_linear-090552)"/>
<path fill-rule="evenodd" clip-rule="evenodd" d="M26.2402 139.773C24.4856 139.773 23.0586 138.345 23.0586 136.589C23.0586 134.833 24.4856 133.405 26.2402 133.405C27.9947 133.405 29.4218 134.833 29.4218 136.589C29.4218 138.345 27.9947 139.773 26.2402 139.773Z" fill="url(#paint22_linear-482422)"/>
<path fill-rule="evenodd" clip-rule="evenodd" d="M137.058 191.483C135.303 191.483 133.876 190.055 133.876 188.299C133.876 186.544 135.303 185.116 137.058 185.116C138.813 185.116 140.24 186.544 140.24 188.299C140.24 190.055 138.813 191.483 137.058 191.483Z" fill="url(#paint23_linear-108340)"/>
<path fill-rule="evenodd" clip-rule="evenodd" d="M188.735 80.5948C186.981 80.5948 185.554 79.1669 185.554 77.4112C185.554 75.6556 186.981 74.2277 188.735 74.2277C190.49 74.2277 191.917 75.6556 191.917 77.4112C191.917 79.1669 190.49 80.5948 188.735 80.5948Z" fill="url(#paint24_linear-980755)"/>
<path fill-rule="evenodd" clip-rule="evenodd" d="M67.7646 24.9519C66.01 24.9519 64.583 23.524 64.583 21.7683C64.583 20.0126 66.01 18.5847 67.7646 18.5847C69.5192 18.5847 70.9462 20.0126 70.9462 21.7683C70.9462 23.524 69.5192 24.9519 67.7646 24.9519Z" fill="url(#paint25_linear-677737)"/>
<path fill-rule="evenodd" clip-rule="evenodd" d="M22.3105 149.932C20.5559 149.932 19.1289 148.504 19.1289 146.748C19.1289 144.992 20.5559 143.564 22.3105 143.564C24.0651 143.564 25.4921 144.992 25.4921 146.748C25.4921 148.504 24.0651 149.932 22.3105 149.932Z" fill="url(#paint26_linear-943295)"/>
<path fill-rule="evenodd" clip-rule="evenodd" d="M147.211 195.415C145.456 195.415 144.029 193.988 144.029 192.232C144.029 190.476 145.456 189.048 147.211 189.048C148.965 189.048 150.392 190.476 150.392 192.232C150.392 193.988 148.965 195.415 147.211 195.415Z" fill="url(#paint27_linear-742917)"/>
<path fill-rule="evenodd" clip-rule="evenodd" d="M192.665 70.4353C190.91 70.4353 189.483 69.0074 189.483 67.2517C189.483 65.496 190.91 64.0681 192.665 64.0681C194.419 64.0681 195.846 65.496 195.846 67.2517C195.823 69.0074 194.419 70.4353 192.665 70.4353Z" fill="url(#paint28_linear-642612)"/>
<path fill-rule="evenodd" clip-rule="evenodd" d="M56.4191 21.6511C54.6646 21.6511 53.2375 20.2232 53.2375 18.4675C53.2375 16.7118 54.6646 15.2839 56.4191 15.2839C58.1737 15.2839 59.6007 16.7118 59.6007 18.4675C59.6007 20.2232 58.1737 21.6511 56.4191 21.6511Z" fill="url(#paint29_linear-097483)"/>
<path fill-rule="evenodd" clip-rule="evenodd" d="M19.0117 161.286C17.2571 161.286 15.8301 159.858 15.8301 158.102C15.8301 156.346 17.2571 154.918 19.0117 154.918C20.7662 154.918 22.1933 156.346 22.1933 158.102C22.1933 159.858 20.7662 161.286 19.0117 161.286Z" fill="url(#paint30_linear-098345)"/>
<path fill-rule="evenodd" clip-rule="evenodd" d="M158.558 198.693C156.804 198.693 155.376 197.265 155.376 195.509C155.376 193.754 156.804 192.326 158.558 192.326C160.313 192.326 161.74 193.754 161.74 195.509C161.74 197.265 160.313 198.693 158.558 198.693Z" fill="url(#paint31_linear-593238)"/>
<path fill-rule="evenodd" clip-rule="evenodd" d="M195.941 59.082C194.186 59.082 192.759 57.6541 192.759 55.8984C192.759 54.1427 194.186 52.7148 195.941 52.7148C197.695 52.7148 199.122 54.1427 199.122 55.8984C199.122 57.6541 197.695 59.082 195.941 59.082Z" fill="url(#paint32_linear-720348)"/>
<path fill-rule="evenodd" clip-rule="evenodd" d="M43.8085 19.1699C42.054 19.1699 40.627 17.742 40.627 15.9863C40.627 14.2306 42.054 12.8027 43.8085 12.8027C45.5631 12.8027 46.9901 14.2306 46.9901 15.9863C46.9667 17.742 45.5631 19.1699 43.8085 19.1699Z" fill="url(#paint33_linear-295148)"/>
<path fill-rule="evenodd" clip-rule="evenodd" d="M16.531 173.903C14.7764 173.903 13.3494 172.475 13.3494 170.719C13.3494 168.963 14.7764 167.536 16.531 167.536C18.2855 167.536 19.7125 168.963 19.7125 170.719C19.7125 172.475 18.2855 173.903 16.531 173.903Z" fill="url(#paint34_linear-166413)"/>
<path fill-rule="evenodd" clip-rule="evenodd" d="M171.167 201.197C169.412 201.197 167.985 199.769 167.985 198.014C167.985 196.258 169.412 194.83 171.167 194.83C172.921 194.83 174.348 196.258 174.348 198.014C174.348 199.769 172.921 201.197 171.167 201.197Z" fill="url(#paint35_linear-811745)"/>
<path fill-rule="evenodd" clip-rule="evenodd" d="M198.445 46.4646C196.69 46.4646 195.263 45.0367 195.263 43.281C195.263 41.5253 196.69 40.0974 198.445 40.0974C200.199 40.0974 201.626 41.5253 201.626 43.281C201.626 45.0367 200.199 46.4646 198.445 46.4646Z" fill="url(#paint36_linear-411909)"/>
<path fill-rule="evenodd" clip-rule="evenodd" d="M29.9138 17.6716C28.1592 17.6716 26.7322 16.2437 26.7322 14.488C26.7322 12.7324 28.1592 11.3044 29.9138 11.3044C31.6683 11.3044 33.0954 12.7324 33.0954 14.488C33.0954 16.2437 31.6683 17.6716 29.9138 17.6716Z" fill="url(#paint37_linear-440082)"/>
<path fill-rule="evenodd" clip-rule="evenodd" d="M15.0344 187.807C13.2798 187.807 11.8528 186.379 11.8528 184.624C11.8528 182.868 13.2798 181.44 15.0344 181.44C16.7889 181.44 18.216 182.868 18.216 184.624C18.216 186.379 16.7889 187.807 15.0344 187.807Z" fill="url(#paint38_linear-798576)"/>
<path fill-rule="evenodd" clip-rule="evenodd" d="M185.062 202.695C183.307 202.695 181.88 201.267 181.88 199.512C181.88 197.756 183.307 196.328 185.062 196.328C186.816 196.328 188.243 197.756 188.243 199.512C188.243 201.267 186.816 202.695 185.062 202.695Z" fill="url(#paint39_linear-871248)"/>
<path fill-rule="evenodd" clip-rule="evenodd" d="M199.941 32.5596C198.187 32.5596 196.76 31.1316 196.76 29.376C196.76 27.6203 198.187 26.1924 199.941 26.1924C201.696 26.1924 203.123 27.6203 203.123 29.376C203.123 31.1316 201.696 32.5596 199.941 32.5596Z" fill="url(#paint40_linear-211735)"/>
<path fill-rule="evenodd" clip-rule="evenodd" d="M14.7304 17.3672C12.9759 17.3672 11.5488 15.9392 11.5488 14.1836C11.5488 12.4279 12.9759 11 14.7304 11C16.485 11 17.912 12.4279 17.912 14.1836C17.8886 15.9392 16.485 17.3672 14.7304 17.3672Z" fill="url(#paint41_linear-190472)"/>
<path fill-rule="evenodd" clip-rule="evenodd" d="M14.7304 203C12.9759 203 11.5488 201.572 11.5488 199.817C11.5488 198.061 12.9759 196.633 14.7304 196.633C16.485 196.633 17.8886 198.061 17.8886 199.817C17.8886 201.572 16.485 203 14.7304 203Z" fill="url(#paint42_linear-204739)"/>
<path fill-rule="evenodd" clip-rule="evenodd" d="M200.245 203C198.49 203 197.063 201.572 197.063 199.817C197.063 198.061 198.49 196.633 200.245 196.633C201.999 196.633 203.426 198.061 203.426 199.817C203.426 201.572 201.999 203 200.245 203Z" fill="url(#paint43_linear-018247)"/>
<path fill-rule="evenodd" clip-rule="evenodd" d="M200.245 17.3672C198.49 17.3672 197.063 15.9392 197.063 14.1836C197.063 12.4279 198.49 11 200.245 11C201.999 11 203.426 12.4279 203.426 14.1836C203.426 15.9392 201.999 17.3672 200.245 17.3672Z" fill="url(#paint44_linear-287713)"/>
<rect width="204.321" height="50.4574" transform="matrix(1 0 0 -1 5 203)" fill="url(#paint45_linear-965023)"/>
<defs>
<filter id="filter0_d-736522" x="26.1706" y="25.6406" width="162.637" height="162.723" filterUnits="userSpaceOnUse" color-interpolation-filters="sRGB">
<feFlood flood-opacity="0" result="BackgroundImageFix"/>
<feColorMatrix in="SourceAlpha" type="matrix" values="0 0 0 0 0 0 0 0 0 0 0 0 0 0 0 0 0 0 127 0"/>
<feOffset/>
<feGaussianBlur stdDeviation="6.84046"/>
<feColorMatrix type="matrix" values="0 0 0 0 0 0 0 0 0 0.82 0 0 0 0 1 0 0 0 0.63 0"/>
<feBlend mode="normal" in2="BackgroundImageFix" result="effect1_dropShadow"/>
<feBlend mode="normal" in="SourceGraphic" in2="effect1_dropShadow" result="shape"/>
</filter>
<filter id="filter1_d-028658" x="21.165" y="20.6283" width="172.635" height="172.727" filterUnits="userSpaceOnUse" color-interpolation-filters="sRGB">
<feFlood flood-opacity="0" result="BackgroundImageFix"/>
<feColorMatrix in="SourceAlpha" type="matrix" values="0 0 0 0 0 0 0 0 0 0 0 0 0 0 0 0 0 0 127 0"/>
<feOffset/>
<feGaussianBlur stdDeviation="6.84046"/>
<feColorMatrix type="matrix" values="0 0 0 0 0 0 0 0 0 0.82 0 0 0 0 1 0 0 0 0.63 0"/>
<feBlend mode="normal" in2="BackgroundImageFix" result="effect1_dropShadow"/>
<feBlend mode="normal" in="SourceGraphic" in2="effect1_dropShadow" result="shape"/>
</filter>
<filter id="filter2_d-689099" x="73.0843" y="72.1443" width="69.0246" height="69.0581" filterUnits="userSpaceOnUse" color-interpolation-filters="sRGB">
<feFlood flood-opacity="0" result="BackgroundImageFix"/>
<feColorMatrix in="SourceAlpha" type="matrix" values="0 0 0 0 0 0 0 0 0 0 0 0 0 0 0 0 0 0 127 0"/>
<feOffset/>
<feGaussianBlur stdDeviation="4.0493"/>
<feColorMatrix type="matrix" values="0 0 0 0 0 0 0 0 0 0.819608 0 0 0 0 1 0 0 0 0.6 0"/>
<feBlend mode="normal" in2="BackgroundImageFix" result="effect1_dropShadow"/>
<feBlend mode="normal" in="SourceGraphic" in2="effect1_dropShadow" result="shape"/>
</filter>
<filter id="filter3_d-071181" x="16.4099" y="15.865" width="182.143" height="182.241" filterUnits="userSpaceOnUse" color-interpolation-filters="sRGB">
<feFlood flood-opacity="0" result="BackgroundImageFix"/>
<feColorMatrix in="SourceAlpha" type="matrix" values="0 0 0 0 0 0 0 0 0 0 0 0 0 0 0 0 0 0 127 0"/>
<feOffset/>
<feGaussianBlur stdDeviation="6.84046"/>
<feColorMatrix type="matrix" values="0 0 0 0 0 0 0 0 0 0.82 0 0 0 0 1 0 0 0 0.63 0"/>
<feBlend mode="normal" in2="BackgroundImageFix" result="effect1_dropShadow"/>
<feBlend mode="normal" in="SourceGraphic" in2="effect1_dropShadow" result="shape"/>
</filter>
<filter id="filter4_d-236937" x="12.0093" y="11.4674" width="190.934" height="191.038" filterUnits="userSpaceOnUse" color-interpolation-filters="sRGB">
<feFlood flood-opacity="0" result="BackgroundImageFix"/>
<feColorMatrix in="SourceAlpha" type="matrix" values="0 0 0 0 0 0 0 0 0 0 0 0 0 0 0 0 0 0 127 0"/>
<feOffset/>
<feGaussianBlur stdDeviation="6.84046"/>
<feColorMatrix type="matrix" values="0 0 0 0 0 0 0 0 0 0.82 0 0 0 0 1 0 0 0 0.63 0"/>
<feBlend mode="normal" in2="BackgroundImageFix" result="effect1_dropShadow"/>
<feBlend mode="normal" in="SourceGraphic" in2="effect1_dropShadow" result="shape"/>
</filter>
<filter id="filter5_d-362857" x="8.12059" y="7.59276" width="198.737" height="198.846" filterUnits="userSpaceOnUse" color-interpolation-filters="sRGB">
<feFlood flood-opacity="0" result="BackgroundImageFix"/>
<feColorMatrix in="SourceAlpha" type="matrix" values="0 0 0 0 0 0 0 0 0 0 0 0 0 0 0 0 0 0 127 0"/>
<feOffset/>
<feGaussianBlur stdDeviation="6.84046"/>
<feColorMatrix type="matrix" values="0 0 0 0 0 0 0 0 0 0.82 0 0 0 0 1 0 0 0 0.63 0"/>
<feBlend mode="normal" in2="BackgroundImageFix" result="effect1_dropShadow"/>
<feBlend mode="normal" in="SourceGraphic" in2="effect1_dropShadow" result="shape"/>
</filter>
<filter id="filter6_d-092176" x="4.8579" y="4.32677" width="205.269" height="205.382" filterUnits="userSpaceOnUse" color-interpolation-filters="sRGB">
<feFlood flood-opacity="0" result="BackgroundImageFix"/>
<feColorMatrix in="SourceAlpha" type="matrix" values="0 0 0 0 0 0 0 0 0 0 0 0 0 0 0 0 0 0 127 0"/>
<feOffset/>
<feGaussianBlur stdDeviation="6.84046"/>
<feColorMatrix type="matrix" values="0 0 0 0 0 0 0 0 0 0.82 0 0 0 0 1 0 0 0 0.63 0"/>
<feBlend mode="normal" in2="BackgroundImageFix" result="effect1_dropShadow"/>
<feBlend mode="normal" in="SourceGraphic" in2="effect1_dropShadow" result="shape"/>
</filter>
<filter id="filter7_d-898258" x="2.38451" y="1.85155" width="210.191" height="210.306" filterUnits="userSpaceOnUse" color-interpolation-filters="sRGB">
<feFlood flood-opacity="0" result="BackgroundImageFix"/>
<feColorMatrix in="SourceAlpha" type="matrix" values="0 0 0 0 0 0 0 0 0 0 0 0 0 0 0 0 0 0 127 0"/>
<feOffset/>
<feGaussianBlur stdDeviation="6.84046"/>
<feColorMatrix type="matrix" values="0 0 0 0 0 0 0 0 0 0.82 0 0 0 0 1 0 0 0 0.63 0"/>
<feBlend mode="normal" in2="BackgroundImageFix" result="effect1_dropShadow"/>
<feBlend mode="normal" in="SourceGraphic" in2="effect1_dropShadow" result="shape"/>
</filter>
<filter id="filter8_d-265836" x="0.909168" y="0.358875" width="213.155" height="213.273" filterUnits="userSpaceOnUse" color-interpolation-filters="sRGB">
<feFlood flood-opacity="0" result="BackgroundImageFix"/>
<feColorMatrix in="SourceAlpha" type="matrix" values="0 0 0 0 0 0 0 0 0 0 0 0 0 0 0 0 0 0 127 0"/>
<feOffset/>
<feGaussianBlur stdDeviation="6.84046"/>
<feColorMatrix type="matrix" values="0 0 0 0 0 0 0 0 0 0.82 0 0 0 0 1 0 0 0 0.63 0"/>
<feBlend mode="normal" in2="BackgroundImageFix" result="effect1_dropShadow"/>
<feBlend mode="normal" in="SourceGraphic" in2="effect1_dropShadow" result="shape"/>
</filter>
<filter id="filter9_d-704303" x="0.646229" y="0.0987434" width="213.685" height="213.802" filterUnits="userSpaceOnUse" color-interpolation-filters="sRGB">
<feFlood flood-opacity="0" result="BackgroundImageFix"/>
<feColorMatrix in="SourceAlpha" type="matrix" values="0 0 0 0 0 0 0 0 0 0 0 0 0 0 0 0 0 0 127 0"/>
<feOffset/>
<feGaussianBlur stdDeviation="6.84046"/>
<feColorMatrix type="matrix" values="0 0 0 0 0 0 0 0 0 0.82 0 0 0 0 1 0 0 0 0.63 0"/>
<feBlend mode="normal" in2="BackgroundImageFix" result="effect1_dropShadow"/>
<feBlend mode="normal" in="SourceGraphic" in2="effect1_dropShadow" result="shape"/>
</filter>
<linearGradient id="paint0_linear-016731" x1="76.8874" y1="143.492" x2="138.136" y2="70.5502" gradientUnits="userSpaceOnUse">
<stop stop-color="#ED1EFF"/>
<stop offset="1" stop-color="#00D1FF"/>
</linearGradient>
<linearGradient id="paint1_linear-948299" x1="77.8" y1="149.41" x2="137.215" y2="64.6087" gradientUnits="userSpaceOnUse">
<stop stop-color="#ED1EFF"/>
<stop offset="1" stop-color="#00D1FF"/>
</linearGradient>
<linearGradient id="paint2_linear-514617" x1="79.356" y1="155.73" x2="135.66" y2="58.2721" gradientUnits="userSpaceOnUse">
<stop stop-color="#ED1EFF"/>
<stop offset="1" stop-color="#00D1FF"/>
</linearGradient>
<linearGradient id="paint3_linear-054212" x1="81.6383" y1="162.433" x2="133.368" y2="51.5648" gradientUnits="userSpaceOnUse">
<stop stop-color="#ED1EFF"/>
<stop offset="1" stop-color="#00D1FF"/>
</linearGradient>
<linearGradient id="paint4_linear-575189" x1="84.7629" y1="169.499" x2="130.266" y2="44.5507" gradientUnits="userSpaceOnUse">
<stop stop-color="#ED1EFF"/>
<stop offset="1" stop-color="#00D1FF"/>
</linearGradient>
<linearGradient id="paint5_linear-502278" x1="88.7995" y1="176.828" x2="126.23" y2="37.2192" gradientUnits="userSpaceOnUse">
<stop stop-color="#ED1EFF"/>
<stop offset="1" stop-color="#00D1FF"/>
</linearGradient>
<linearGradient id="paint6_linear-683851" x1="93.8504" y1="184.371" x2="121.143" y2="29.6444" gradientUnits="userSpaceOnUse">
<stop stop-color="#ED1EFF"/>
<stop offset="1" stop-color="#00D1FF"/>
</linearGradient>
<linearGradient id="paint7_linear-911904" x1="100.045" y1="192.066" x2="114.947" y2="21.9256" gradientUnits="userSpaceOnUse">
<stop stop-color="#ED1EFF"/>
<stop offset="1" stop-color="#00D1FF"/>
</linearGradient>
<linearGradient id="paint8_linear-613026" x1="14.7312" y1="107" x2="200.246" y2="107" gradientUnits="userSpaceOnUse">
<stop stop-color="#ED1EFF"/>
<stop offset="1" stop-color="#00D1FF"/>
</linearGradient>
<linearGradient id="paint9_linear-940604" x1="98.4336" y1="39.8867" x2="104.797" y2="39.8867" gradientUnits="userSpaceOnUse">
<stop stop-color="#ED1EFF"/>
<stop offset="1" stop-color="#00D1FF"/>
</linearGradient>
<linearGradient id="paint10_linear-802654" x1="37.2363" y1="112.876" x2="43.5995" y2="112.876" gradientUnits="userSpaceOnUse">
<stop stop-color="#00D1FF"/>
<stop offset="1" stop-color="#ED1EFF"/>
</linearGradient>
<linearGradient id="paint11_linear-816708" x1="110.178" y1="174.113" x2="116.542" y2="174.113" gradientUnits="userSpaceOnUse">
<stop stop-color="#00D1FF"/>
<stop offset="1" stop-color="#ED1EFF"/>
</linearGradient>
<linearGradient id="paint12_linear-319441" x1="171.378" y1="101.124" x2="177.741" y2="101.124" gradientUnits="userSpaceOnUse">
<stop stop-color="#00D1FF"/>
<stop offset="1" stop-color="#ED1EFF"/>
</linearGradient>
<linearGradient id="paint13_linear-028653" x1="91.6028" y1="34.8773" x2="97.966" y2="34.8773" gradientUnits="userSpaceOnUse">
<stop stop-color="#ED1EFF"/>
<stop offset="1" stop-color="#00D1FF"/>
</linearGradient>
<linearGradient id="paint14_linear-320562" x1="32.229" y1="119.711" x2="38.5922" y2="119.711" gradientUnits="userSpaceOnUse">
<stop stop-color="#00D1FF"/>
<stop offset="1" stop-color="#ED1EFF"/>
</linearGradient>
<linearGradient id="paint15_linear-868569" x1="117.009" y1="179.099" x2="123.372" y2="179.099" gradientUnits="userSpaceOnUse">
<stop stop-color="#00D1FF"/>
<stop offset="1" stop-color="#ED1EFF"/>
</linearGradient>
<linearGradient id="paint16_linear-726532" x1="176.383" y1="94.2892" x2="182.747" y2="94.2892" gradientUnits="userSpaceOnUse">
<stop stop-color="#00D1FF"/>
<stop offset="1" stop-color="#ED1EFF"/>
</linearGradient>
<linearGradient id="paint17_linear-737012" x1="83.7187" y1="30.125" x2="90.0819" y2="30.125" gradientUnits="userSpaceOnUse">
<stop stop-color="#ED1EFF"/>
<stop offset="1" stop-color="#00D1FF"/>
</linearGradient>
<linearGradient id="paint18_linear-862169" x1="27.4792" y1="127.6" x2="33.8424" y2="127.6" gradientUnits="userSpaceOnUse">
<stop stop-color="#00D1FF"/>
<stop offset="1" stop-color="#ED1EFF"/>
</linearGradient>
<linearGradient id="paint19_linear-974501" x1="124.894" y1="183.875" x2="131.257" y2="183.875" gradientUnits="userSpaceOnUse">
<stop stop-color="#00D1FF"/>
<stop offset="1" stop-color="#ED1EFF"/>
</linearGradient>
<linearGradient id="paint20_linear-430164" x1="181.133" y1="86.4005" x2="187.496" y2="86.4005" gradientUnits="userSpaceOnUse">
<stop stop-color="#00D1FF"/>
<stop offset="1" stop-color="#ED1EFF"/>
</linearGradient>
<linearGradient id="paint21_linear-090552" x1="74.7358" y1="25.7009" x2="81.099" y2="25.7009" gradientUnits="userSpaceOnUse">
<stop stop-color="#ED1EFF"/>
<stop offset="1" stop-color="#00D1FF"/>
</linearGradient>
<linearGradient id="paint22_linear-482422" x1="23.0586" y1="136.589" x2="29.4218" y2="136.589" gradientUnits="userSpaceOnUse">
<stop stop-color="#00D1FF"/>
<stop offset="1" stop-color="#ED1EFF"/>
</linearGradient>
<linearGradient id="paint23_linear-108340" x1="133.876" y1="188.299" x2="140.24" y2="188.299" gradientUnits="userSpaceOnUse">
<stop stop-color="#00D1FF"/>
<stop offset="1" stop-color="#ED1EFF"/>
</linearGradient>
<linearGradient id="paint24_linear-980755" x1="185.554" y1="77.4113" x2="191.917" y2="77.4113" gradientUnits="userSpaceOnUse">
<stop stop-color="#00D1FF"/>
<stop offset="1" stop-color="#ED1EFF"/>
</linearGradient>
<linearGradient id="paint25_linear-677737" x1="64.583" y1="21.7683" x2="70.9462" y2="21.7683" gradientUnits="userSpaceOnUse">
<stop stop-color="#ED1EFF"/>
<stop offset="1" stop-color="#00D1FF"/>
</linearGradient>
<linearGradient id="paint26_linear-943295" x1="19.1289" y1="146.748" x2="25.4921" y2="146.748" gradientUnits="userSpaceOnUse">
<stop stop-color="#00D1FF"/>
<stop offset="1" stop-color="#ED1EFF"/>
</linearGradient>
<linearGradient id="paint27_linear-742917" x1="144.029" y1="192.232" x2="150.392" y2="192.232" gradientUnits="userSpaceOnUse">
<stop stop-color="#00D1FF"/>
<stop offset="1" stop-color="#ED1EFF"/>
</linearGradient>
<linearGradient id="paint28_linear-642612" x1="189.483" y1="67.2517" x2="195.846" y2="67.2517" gradientUnits="userSpaceOnUse">
<stop stop-color="#00D1FF"/>
<stop offset="1" stop-color="#ED1EFF"/>
</linearGradient>
<linearGradient id="paint29_linear-097483" x1="53.2375" y1="18.4675" x2="59.6007" y2="18.4675" gradientUnits="userSpaceOnUse">
<stop stop-color="#ED1EFF"/>
<stop offset="1" stop-color="#00D1FF"/>
</linearGradient>
<linearGradient id="paint30_linear-098345" x1="15.8301" y1="158.102" x2="22.1933" y2="158.102" gradientUnits="userSpaceOnUse">
<stop stop-color="#00D1FF"/>
<stop offset="1" stop-color="#ED1EFF"/>
</linearGradient>
<linearGradient id="paint31_linear-593238" x1="155.376" y1="195.509" x2="161.74" y2="195.509" gradientUnits="userSpaceOnUse">
<stop stop-color="#00D1FF"/>
<stop offset="1" stop-color="#ED1EFF"/>
</linearGradient>
<linearGradient id="paint32_linear-720348" x1="192.759" y1="55.8984" x2="199.122" y2="55.8984" gradientUnits="userSpaceOnUse">
<stop stop-color="#00D1FF"/>
<stop offset="1" stop-color="#ED1EFF"/>
</linearGradient>
<linearGradient id="paint33_linear-295148" x1="40.627" y1="15.9863" x2="46.9901" y2="15.9863" gradientUnits="userSpaceOnUse">
<stop stop-color="#ED1EFF"/>
<stop offset="1" stop-color="#00D1FF"/>
</linearGradient>
<linearGradient id="paint34_linear-166413" x1="13.3494" y1="170.719" x2="19.7125" y2="170.719" gradientUnits="userSpaceOnUse">
<stop stop-color="#00D1FF"/>
<stop offset="1" stop-color="#ED1EFF"/>
</linearGradient>
<linearGradient id="paint35_linear-811745" x1="167.985" y1="198.014" x2="174.348" y2="198.014" gradientUnits="userSpaceOnUse">
<stop stop-color="#00D1FF"/>
<stop offset="1" stop-color="#ED1EFF"/>
</linearGradient>
<linearGradient id="paint36_linear-411909" x1="195.263" y1="43.281" x2="201.626" y2="43.281" gradientUnits="userSpaceOnUse">
<stop stop-color="#00D1FF"/>
<stop offset="1" stop-color="#ED1EFF"/>
</linearGradient>
<linearGradient id="paint37_linear-440082" x1="26.7322" y1="14.488" x2="33.0954" y2="14.488" gradientUnits="userSpaceOnUse">
<stop stop-color="#00D1FF"/>
<stop offset="1" stop-color="#ED1EFF"/>
</linearGradient>
<linearGradient id="paint38_linear-798576" x1="11.8528" y1="184.624" x2="18.216" y2="184.624" gradientUnits="userSpaceOnUse">
<stop stop-color="#00D1FF"/>
<stop offset="1" stop-color="#ED1EFF"/>
</linearGradient>
<linearGradient id="paint39_linear-871248" x1="181.88" y1="199.512" x2="188.243" y2="199.512" gradientUnits="userSpaceOnUse">
<stop stop-color="#00D1FF"/>
<stop offset="1" stop-color="#ED1EFF"/>
</linearGradient>
<linearGradient id="paint40_linear-211735" x1="196.76" y1="29.376" x2="203.123" y2="29.376" gradientUnits="userSpaceOnUse">
<stop stop-color="#00D1FF"/>
<stop offset="1" stop-color="#ED1EFF"/>
</linearGradient>
<linearGradient id="paint41_linear-190472" x1="11.5488" y1="9.70964" x2="17.8954" y2="17.3862" gradientUnits="userSpaceOnUse">
<stop stop-color="#ED1EFF"/>
<stop offset="1" stop-color="#866CFF"/>
</linearGradient>
<linearGradient id="paint42_linear-204739" x1="11.5488" y1="199.817" x2="17.8886" y2="199.817" gradientUnits="userSpaceOnUse">
<stop stop-color="#00D1FF"/>
<stop offset="1" stop-color="#ED1EFF"/>
</linearGradient>
<linearGradient id="paint43_linear-018247" x1="197.063" y1="199.817" x2="203.426" y2="199.817" gradientUnits="userSpaceOnUse">
<stop stop-color="#00D1FF"/>
<stop offset="1" stop-color="#ED1EFF"/>
</linearGradient>
<linearGradient id="paint44_linear-287713" x1="197.063" y1="14.1836" x2="203.426" y2="14.1836" gradientUnits="userSpaceOnUse">
<stop stop-color="#00D1FF"/>
<stop offset="1" stop-color="#ED1EFF"/>
</linearGradient>
<linearGradient id="paint45_linear-965023" x1="102.16" y1="0" x2="102.16" y2="58.8669" gradientUnits="userSpaceOnUse">
<stop stop-color="#0E0436"/>
<stop offset="1" stop-color="#0E0436" stop-opacity="0.04"/>
</linearGradient>
</defs>
</svg>